<?xml version="1.0" encoding="utf-8"?>
<!-- Generator: Adobe Illustrator 27.2.0, SVG Export Plug-In . SVG Version: 6.00 Build 0)  -->
<svg version="1.1" id="Layer_1" xmlns="http://www.w3.org/2000/svg" xmlns:xlink="http://www.w3.org/1999/xlink" x="0px" y="0px"
	 viewBox="0 0 950.5 621.23" enable-background="new 0 0 950.5 621.23" xml:space="preserve">
<path fill="#E6E6E6" d="M793.88,333.19H140.42c-3.82,0-6.91-3.1-6.92-6.92V6.92c0-3.82,3.1-6.91,6.92-6.92h653.46
	c3.82,0,6.91,3.1,6.92,6.92v319.36C800.79,330.09,797.7,333.19,793.88,333.19z M140.42,2.77c-2.29,0-4.15,1.86-4.15,4.15v319.36
	c0,2.29,1.86,4.15,4.15,4.15h653.46c2.29,0,4.15-1.86,4.15-4.15V6.92c0-2.29-1.86-4.15-4.15-4.15H140.42z"/>
<path fill="#E6E6E6" d="M306.88,230.3H177.42c-3.82,0-6.91-3.1-6.92-6.92V84.02c0-3.82,3.1-6.91,6.92-6.92h129.46
	c3.82,0,6.91,3.1,6.92,6.92v139.36C313.79,227.2,310.7,230.29,306.88,230.3z M177.42,79.88c-2.29,0-4.15,1.86-4.15,4.15v139.36
	c0,2.29,1.86,4.15,4.15,4.15h129.46c2.29,0,4.15-1.86,4.15-4.15V84.02c0-2.29-1.86-4.15-4.15-4.15H177.42z"/>
<path fill="#E6E6E6" d="M531.88,230.3H402.42c-3.82,0-6.91-3.1-6.92-6.92V84.02c0-3.82,3.1-6.91,6.92-6.92h129.46
	c3.82,0,6.91,3.1,6.92,6.92v139.36C538.79,227.2,535.7,230.29,531.88,230.3z M402.42,79.88c-2.29,0-4.15,1.86-4.15,4.15v139.36
	c0,2.29,1.86,4.15,4.15,4.15h129.46c2.29,0,4.15-1.86,4.15-4.15V84.02c0-2.29-1.86-4.15-4.15-4.15H402.42z"/>
<path fill="#E6E6E6" d="M756.88,230.3H627.42c-3.82,0-6.91-3.1-6.92-6.92V84.02c0-3.82,3.1-6.91,6.92-6.92h129.46
	c3.82,0,6.91,3.1,6.92,6.92v139.36C763.79,227.2,760.7,230.29,756.88,230.3z M627.42,79.88c-2.29,0-4.15,1.86-4.15,4.15v139.36
	c0,2.29,1.86,4.15,4.15,4.15h129.46c2.29,0,4.15-1.86,4.15-4.15V84.02c0-2.29-1.86-4.15-4.15-4.15H627.42z"/>
<path fill="#3F3D56" d="M660.15,246.08c-0.55,0-1,0.45-1,1v8c0,0.55,0.45,1,1,1h64c0.55,0,1-0.45,1-1v-8c0-0.55-0.45-1-1-1H660.15z"
	/>
<path fill="#3F3D56" d="M210.15,246.08c-0.55,0-1,0.45-1,1v8c0,0.55,0.45,1,1,1h64c0.55,0,1-0.45,1-1v-8c0-0.55-0.45-1-1-1H210.15z"
	/>
<path fill="#6C63FF" d="M435.15,246.08c-0.55,0-1,0.45-1,1v8c0,0.55,0.45,1,1,1h64c0.55,0,1-0.45,1-1v-8c0-0.55-0.45-1-1-1H435.15z"
	/>
<g id="woman">
	<path fill="#9F616A" d="M620.14,385.98l2.27,9.1c0,0,10.24,21.04-2.27,21.04s-7.96-19.33-7.96-19.33l-1.14-9.1L620.14,385.98z"/>
	<path fill="#9F616A" d="M510.4,393.37l-2.27,9.1c0,0-10.24,21.04,2.27,21.04c12.51,0,7.96-19.33,7.96-19.33l1.14-9.1L510.4,393.37z
		"/>
	<ellipse fill="#E6E6E6" cx="554.36" cy="593.35" rx="129" ry="15"/>
	<path fill="#2F2E41" d="M568.68,571.07c0,0-22.18,1.71-19.9,9.67s19.9,6.82,19.9,6.82s13.65-1.14,21.04,1.14s15.92,0,16.49-3.98
		s-3.98-6.82-3.98-6.82l-2.84-5.69L568.68,571.07z"/>
	<circle fill="#9F616A" cx="561.01" cy="206.86" r="24.45"/>
	<path fill="#9F616A" d="M553.61,225.63c0,0,2.84,13.08,1.14,19.33s35.26-1.14,35.26-1.14s-13.08-21.61-12.51-22.18L553.61,225.63z"
		/>
	<path fill="#E6E6E6" d="M559.24,240.11c0,0-10.24-2.83-13.65,0.58s-23.3,13.1-23.3,13.1l13.72,83.58l59.13-13.13l10.17-79.05
		c0,0-16.13-9.44-18.87-7.55S559.24,240.11,559.24,240.11z"/>
	<path fill="#E6E6E6" d="M526.84,254.35l-2.73-1.46c0,0-10.35,2.04-9.77,10c0.58,7.96,2.89,52.31,2.89,52.31l-9.03,80.18l16.49,2.83
		l16.43-67.11L526.84,254.35z"/>
	<path fill="#E6E6E6" d="M603.6,246.89l2.73-1.47c0,0,10.35,2.02,9.79,9.98c-0.56,7.96-2.8,52.32-2.8,52.32l9.17,80.17L606,390.75
		l-16.55-67.08L603.6,246.89z"/>
	<path fill="#2F2E41" d="M536.55,329.12l-2.27,34.69l-7.39,69.37l10.8,143.86l37.53,1.14l-11.37-137.04l11.37-47.2l37.17-1.38
		c0,0,2.63-54.35-18.41-71.41L536.55,329.12z"/>
	<polygon fill="#2F2E41" points="577.5,385.98 571.53,511.36 569.54,574.77 603.08,578.18 611.55,391.72 598.54,378.59 	"/>
	<path fill="#2F2E41" d="M571.81,174.45c0,0-22.18-2.84-28.43,7.96c0,0-1.71,7.96-7.39,10.8s1.14,12.51,2.84,15.35
		s6.25,19.33,1.14,23.31s9.1,15.35,9.1,15.35s6.82,9.1,1.14,15.92s7.39,9.1,7.39,9.1s-2.84,19.33,2.27,14.22
		c0,0,2.27,43.78,23.88,16.49s30.71-40.37,21.61-51.18c-9.1-10.8-2.27-20.47-2.27-20.47s2.84-5.69-3.41-14.22
		S593.42,174.45,571.81,174.45z"/>
	<path fill="#2F2E41" d="M539.68,574.48c0,0-22.18,1.71-19.9,9.67s19.9,6.82,19.9,6.82s13.65-1.14,21.04,1.14s15.92,0,16.49-3.98
		s-3.98-6.82-3.98-6.82l-2.84-5.69L539.68,574.48z"/>
</g>
<g id="c">
	<g id="d">
		<g id="e">
			<path fill="#C6D325" d="M223.24,180.94v-4.32l33.33-1.54l-0.43,5.86H223.24z"/>
			<path fill="#EF7C00" d="M213.83,180.98l-0.49-67.12c0.18-0.12,0.46-0.28,0.84-0.39c0.41-0.11,0.76-0.1,0.98-0.07
				c0.8,13.99,1.35,28.42,1.63,43.26c0.16,8.24,0.21,16.35,0.18,24.31H213.83z"/>
			<path fill="#EF7C00" d="M256.14,180.94l-1.16-81.45c0.36-0.04,0.9-0.06,1.53,0.08c0.74,0.16,1.3,0.48,1.62,0.71
				c0.57,26.89,1.13,53.78,1.7,80.67L256.14,180.94L256.14,180.94z"/>
			<path fill="#29485D" d="M231.77,182.49c1.21,0,2.19-1,2.19-2.23s-0.98-2.23-2.19-2.23c-1.21,0-2.19,1-2.19,2.23
				S230.56,182.49,231.77,182.49z"/>
			<path fill="#29485D" d="M241.88,182.49c1.21,0,2.19-1,2.19-2.23s-0.98-2.23-2.19-2.23c-1.21,0-2.19,1-2.19,2.23
				S240.67,182.49,241.88,182.49z"/>
			<path fill="#29485D" d="M251.98,182.49c1.21,0,2.19-1,2.19-2.23s-0.98-2.23-2.19-2.23c-1.21,0-2.19,1-2.19,2.23
				S250.77,182.49,251.98,182.49z"/>
			<path fill="#7B493F" d="M191.58,180.94h96.26c-3.1,5.15-9.89,14.69-22.02,21.04c-24.47,12.83-48.74,1.19-51.12,0
				C202.16,195.71,194.96,186.19,191.58,180.94L191.58,180.94z"/>
			<path fill="#7B493F" d="M184.79,179.35l9.03,2.48c0.64-0.24,1.27-0.48,1.9-0.73C192.08,180.51,188.44,179.93,184.79,179.35
				L184.79,179.35z"/>
			<path fill="#7B493F" d="M299.51,175.63c-4.31,2.04-8.63,4.08-12.95,6.12c-1.17-0.27-2.34-0.54-3.51-0.81L299.51,175.63
				L299.51,175.63L299.51,175.63z"/>
			<path fill="#A16053" d="M191.58,180.94h96.26c-0.79,1.33-1.72,2.77-2.82,4.26c-1.03,1.39-2.06,2.62-3.04,3.71
				c-27.93,0.2-55.84,0.41-83.77,0.61c-1.32-1.43-2.69-3.06-4.07-4.89C193.19,183.36,192.34,182.13,191.58,180.94L191.58,180.94z"/>
			<path fill="none" stroke="#C6D325" stroke-width="2.57" stroke-linecap="round" stroke-miterlimit="10" d="M197.12,181.99
				c0.25,0.8,0.61,1.73,1.13,2.72c0.65,1.25,1.37,2.24,1.99,2.99"/>
			<path fill="none" stroke="#C6D325" stroke-width="2.57" stroke-linecap="round" stroke-miterlimit="10" d="M201.38,181.99
				c0.13,0.67,0.32,1.41,0.6,2.21c0.51,1.44,1.14,2.61,1.72,3.5"/>
			<path fill="none" stroke="#C6D325" stroke-width="2.57" stroke-linecap="round" stroke-miterlimit="10" d="M205.42,181.99
				c0.08,0.72,0.22,1.57,0.48,2.48c0.38,1.35,0.89,2.45,1.36,3.29"/>
			<path fill="none" stroke="#C6D325" stroke-width="2.57" stroke-linecap="round" stroke-miterlimit="10" d="M209.69,181.99
				c0.11,0.76,0.26,1.59,0.48,2.48c0.32,1.28,0.72,2.4,1.12,3.35"/>
			<path fill="none" stroke="#C6D325" stroke-width="2.57" stroke-linecap="round" stroke-miterlimit="10" d="M214.05,181.99
				c0.11,0.76,0.26,1.59,0.48,2.48c0.32,1.28,0.72,2.4,1.12,3.35"/>
			<path fill="none" stroke="#C6D325" stroke-width="2.57" stroke-linecap="round" stroke-miterlimit="10" d="M218.43,181.99
				c0.1,0.91,0.23,1.87,0.4,2.87c0.2,1.14,0.43,2.21,0.68,3.2"/>
			<path fill="none" stroke="#C6D325" stroke-width="2.57" stroke-linecap="round" stroke-miterlimit="10" d="M223.67,181.99
				c0.08,1.03,0.16,2.08,0.25,3.15c0.09,1.03,0.19,2.05,0.3,3.04"/>
			<path fill="none" stroke="#C6D325" stroke-width="2.57" stroke-linecap="round" stroke-miterlimit="10" d="M283.12,181.75
				c-0.3,0.8-0.68,1.69-1.17,2.61c-0.64,1.22-1.32,2.25-1.95,3.1"/>
			<path fill="none" stroke="#C6D325" stroke-width="2.57" stroke-linecap="round" stroke-miterlimit="10" d="M279.41,181.75
				c-0.13,0.67-0.32,1.41-0.6,2.21c-0.51,1.44-1.14,2.61-1.72,3.5"/>
			<path fill="none" stroke="#C6D325" stroke-width="2.57" stroke-linecap="round" stroke-miterlimit="10" d="M275.54,181.75
				c-0.08,0.72-0.22,1.57-0.48,2.48c-0.38,1.35-0.89,2.45-1.36,3.29"/>
			<path fill="none" stroke="#C6D325" stroke-width="2.57" stroke-linecap="round" stroke-miterlimit="10" d="M272.15,181.75
				c-0.16,0.76-0.39,1.59-0.71,2.48c-0.45,1.29-0.98,2.37-1.49,3.27"/>
			<path fill="none" stroke="#C6D325" stroke-width="2.57" stroke-linecap="round" stroke-miterlimit="10" d="M264.06,181.75
				c-0.11,0.76-0.26,1.59-0.48,2.48c-0.32,1.28-0.72,2.4-1.12,3.35"/>
			<path fill="none" stroke="#C6D325" stroke-width="2.57" stroke-linecap="round" stroke-miterlimit="10" d="M268.35,181.79
				c-0.19,0.75-0.44,1.57-0.78,2.44c-0.49,1.27-1.05,2.35-1.59,3.23"/>
			<path fill="none" stroke="#C6D325" stroke-width="2.57" stroke-linecap="round" stroke-miterlimit="10" d="M260.11,181.75
				c-0.1,0.91-0.23,1.87-0.4,2.87c-0.2,1.14-0.43,2.21-0.68,3.2"/>
			<path fill="none" stroke="#C6D325" stroke-width="2.57" stroke-linecap="round" stroke-miterlimit="10" d="M256.29,181.75
				c-0.08,1.03-0.16,2.08-0.25,3.15c-0.09,1.03-0.19,2.05-0.3,3.04"/>
			<path fill="none" stroke="#C6D325" stroke-width="2.57" stroke-linecap="round" stroke-miterlimit="10" d="M227.95,181.99
				c0.08,1.03,0.16,2.08,0.25,3.15c0.09,1.03,0.19,2.05,0.3,3.04"/>
			<path fill="none" stroke="#C6D325" stroke-width="2.57" stroke-linecap="round" stroke-miterlimit="10" d="M232.07,182.01
				c0.05,1.03,0.1,2.07,0.14,3.12c0.04,1.02,0.08,2.03,0.1,3.04"/>
			<path fill="none" stroke="#C6D325" stroke-width="2.57" stroke-linecap="round" stroke-miterlimit="10" d="M235.22,182.01
				c0.05,1.03,0.1,2.07,0.14,3.12c0.04,1.02,0.08,2.03,0.1,3.04"/>
			<path fill="none" stroke="#C6D325" stroke-width="2.57" stroke-linecap="round" stroke-miterlimit="10" d="M238.66,182.01
				c0.08,0.98,0.12,2.03,0.14,3.12c0.02,1.05,0,2.05-0.04,3"/>
			<path fill="none" stroke="#C6D325" stroke-width="2.57" stroke-linecap="round" stroke-miterlimit="10" d="M241.99,182.01
				c0.08,0.98,0.12,2.03,0.14,3.12c0.02,1.05,0,2.05-0.04,3"/>
			<path fill="none" stroke="#C6D325" stroke-width="2.57" stroke-linecap="round" stroke-miterlimit="10" d="M245.7,182.01
				c0.08,0.98,0.12,2.03,0.14,3.12c0.02,1.05,0,2.05-0.04,3"/>
			<path fill="none" stroke="#C6D325" stroke-width="2.57" stroke-linecap="round" stroke-miterlimit="10" d="M249.1,182.01
				c0.1,0.92,0.16,1.97,0.14,3.12c-0.02,1.08-0.12,2.05-0.24,2.9"/>
			<path fill="none" stroke="#C6D325" stroke-width="2.57" stroke-linecap="round" stroke-miterlimit="10" d="M252.47,182.01
				c0.1,0.92,0.16,1.97,0.14,3.12c-0.02,1.08-0.12,2.05-0.24,2.9"/>
			<path fill="none" stroke="#EF7C00" stroke-width="2.57" stroke-miterlimit="10" d="M211.34,119.59c0.38-0.92,0.82-1.89,1.33-2.89
				c0.37-0.72,0.74-1.4,1.12-2.02"/>
			<path fill="none" stroke="#EF7C00" stroke-width="2.57" stroke-miterlimit="10" d="M214.23,117.46c0.32,0.7,0.82,1.6,1.59,2.51
				c0.64,0.77,1.3,1.34,1.85,1.75"/>
			<path fill="none" stroke="#EF7C00" stroke-width="2.57" stroke-miterlimit="10" d="M214.7,177.71c-0.41-0.64-1.04-1.46-1.93-2.26
				c-0.75-0.67-1.48-1.14-2.07-1.46"/>
			<path fill="none" stroke="#EF7C00" stroke-width="2.57" stroke-miterlimit="10" d="M215.81,177.4c0.41-0.64,1.04-1.46,1.93-2.26
				c0.75-0.67,1.48-1.14,2.07-1.46"/>
			<path fill="none" stroke="#EF7C00" stroke-width="2.57" stroke-miterlimit="10" d="M257.83,169.77c0.41-0.64,1.04-1.46,1.93-2.26
				c0.75-0.67,1.48-1.14,2.07-1.46"/>
			<path fill="none" stroke="#EF7C00" stroke-width="2.57" stroke-miterlimit="10" d="M288.8,164.7c0.76-0.03,1.77,0,2.92,0.28
				c0.97,0.23,1.77,0.56,2.37,0.86"/>
			<path fill="none" stroke="#EF7C00" stroke-width="2.57" stroke-miterlimit="10" d="M257.68,103.77l2.34,4.7"/>
			<path fill="none" stroke="#EF7C00" stroke-width="2.57" stroke-miterlimit="10" d="M234.34,108.08
				c4.86-0.68,10.98-2.25,17.18-5.91c1.32-0.77,2.53-1.59,3.66-2.41"/>
			<path fill="none" stroke="#EF7C00" stroke-width="2.57" stroke-miterlimit="10" d="M257.93,100.48
				c13.86,25.05,27.72,50.1,41.57,75.15"/>
			<path fill="#29485D" d="M259.83,107.82l1.29,58.65c0.8,0.25,2,0.56,3.48,0.69c5.08,0.46,6.39-1.81,11.5-2.1
				c3.88-0.21,4.32,1.03,9.29,0.77c2.45-0.13,4.46-0.54,5.79-0.88C280.73,145.91,270.28,126.86,259.83,107.82L259.83,107.82
				L259.83,107.82z"/>
			<path fill="#29485D" d="M184.79,179.35l26.74-60.63v55.96c-3.48-0.01-7.48,0.21-11.87,0.87
				C193.84,176.43,188.84,177.87,184.79,179.35L184.79,179.35L184.79,179.35z"/>
			<path fill="#29485D" d="M216.49,120.79l2.77,53.2l28.58-0.94c-3.54-12.12-6.83-25.45-9.53-39.9c-1.65-8.8-2.93-17.25-3.93-25.33
				C228.41,112.14,222.45,116.47,216.49,120.79L216.49,120.79L216.49,120.79z"/>
		</g>
	</g>
</g>
<g id="c_00000120545021426409936960000007346337616818327974_">
	<g id="d_00000105397516253560208380000016660293450111003553_">
		<g id="e_00000151527820642854511930000004057442496554050984_">
			<path fill="#C6D325" d="M673.24,180.94v-4.32l33.33-1.54l-0.43,5.86H673.24z"/>
			<path fill="#EF7C00" d="M663.83,180.98l-0.49-67.12c0.18-0.12,0.46-0.28,0.84-0.39c0.41-0.11,0.76-0.1,0.98-0.07
				c0.8,13.99,1.35,28.42,1.63,43.26c0.16,8.24,0.21,16.35,0.18,24.31H663.83z"/>
			<path fill="#EF7C00" d="M706.14,180.94l-1.16-81.45c0.36-0.04,0.9-0.06,1.53,0.08c0.74,0.16,1.3,0.48,1.62,0.71
				c0.57,26.89,1.13,53.78,1.7,80.67L706.14,180.94L706.14,180.94z"/>
			<path fill="#29485D" d="M681.77,182.49c1.21,0,2.19-1,2.19-2.23s-0.98-2.23-2.19-2.23c-1.21,0-2.19,1-2.19,2.23
				S680.56,182.49,681.77,182.49z"/>
			<path fill="#29485D" d="M691.88,182.49c1.21,0,2.19-1,2.19-2.23s-0.98-2.23-2.19-2.23c-1.21,0-2.19,1-2.19,2.23
				S690.67,182.49,691.88,182.49z"/>
			<path fill="#29485D" d="M701.98,182.49c1.21,0,2.19-1,2.19-2.23s-0.98-2.23-2.19-2.23s-2.19,1-2.19,2.23
				S700.77,182.49,701.98,182.49z"/>
			<path fill="#7B493F" d="M641.58,180.94h96.26c-3.1,5.15-9.89,14.69-22.02,21.04c-24.47,12.83-48.74,1.19-51.12,0
				C652.16,195.71,644.96,186.19,641.58,180.94L641.58,180.94z"/>
			<path fill="#7B493F" d="M634.79,179.35l9.03,2.48c0.64-0.24,1.27-0.48,1.9-0.73C642.08,180.51,638.44,179.93,634.79,179.35
				L634.79,179.35z"/>
			<path fill="#7B493F" d="M749.51,175.63c-4.31,2.04-8.63,4.08-12.95,6.12c-1.17-0.27-2.34-0.54-3.51-0.81L749.51,175.63
				L749.51,175.63L749.51,175.63z"/>
			<path fill="#A16053" d="M641.58,180.94h96.26c-0.79,1.33-1.72,2.77-2.82,4.26c-1.03,1.39-2.06,2.62-3.04,3.71
				c-27.93,0.2-55.84,0.41-83.77,0.61c-1.32-1.43-2.69-3.06-4.07-4.89C643.19,183.36,642.34,182.13,641.58,180.94L641.58,180.94z"/>
			<path fill="none" stroke="#C6D325" stroke-width="2.57" stroke-linecap="round" stroke-miterlimit="10" d="M647.12,181.99
				c0.25,0.8,0.61,1.73,1.13,2.72c0.65,1.25,1.37,2.24,1.99,2.99"/>
			<path fill="none" stroke="#C6D325" stroke-width="2.57" stroke-linecap="round" stroke-miterlimit="10" d="M651.38,181.99
				c0.13,0.67,0.32,1.41,0.6,2.21c0.51,1.44,1.14,2.61,1.72,3.5"/>
			<path fill="none" stroke="#C6D325" stroke-width="2.57" stroke-linecap="round" stroke-miterlimit="10" d="M655.42,181.99
				c0.08,0.72,0.22,1.57,0.48,2.48c0.38,1.35,0.89,2.45,1.36,3.29"/>
			<path fill="none" stroke="#C6D325" stroke-width="2.57" stroke-linecap="round" stroke-miterlimit="10" d="M659.69,181.99
				c0.11,0.76,0.26,1.59,0.48,2.48c0.32,1.28,0.72,2.4,1.12,3.35"/>
			<path fill="none" stroke="#C6D325" stroke-width="2.57" stroke-linecap="round" stroke-miterlimit="10" d="M664.05,181.99
				c0.11,0.76,0.26,1.59,0.48,2.48c0.32,1.28,0.72,2.4,1.12,3.35"/>
			<path fill="none" stroke="#C6D325" stroke-width="2.57" stroke-linecap="round" stroke-miterlimit="10" d="M668.43,181.99
				c0.1,0.91,0.23,1.87,0.4,2.87c0.2,1.14,0.43,2.21,0.68,3.2"/>
			<path fill="none" stroke="#C6D325" stroke-width="2.57" stroke-linecap="round" stroke-miterlimit="10" d="M673.67,181.99
				c0.08,1.03,0.16,2.08,0.25,3.15c0.09,1.03,0.19,2.05,0.3,3.04"/>
			<path fill="none" stroke="#C6D325" stroke-width="2.57" stroke-linecap="round" stroke-miterlimit="10" d="M733.12,181.75
				c-0.3,0.8-0.68,1.69-1.17,2.61c-0.64,1.22-1.32,2.25-1.95,3.1"/>
			<path fill="none" stroke="#C6D325" stroke-width="2.57" stroke-linecap="round" stroke-miterlimit="10" d="M729.41,181.75
				c-0.13,0.67-0.32,1.41-0.6,2.21c-0.51,1.44-1.14,2.61-1.72,3.5"/>
			<path fill="none" stroke="#C6D325" stroke-width="2.57" stroke-linecap="round" stroke-miterlimit="10" d="M725.54,181.75
				c-0.08,0.72-0.22,1.57-0.48,2.48c-0.38,1.35-0.89,2.45-1.36,3.29"/>
			<path fill="none" stroke="#C6D325" stroke-width="2.57" stroke-linecap="round" stroke-miterlimit="10" d="M722.15,181.75
				c-0.16,0.76-0.39,1.59-0.71,2.48c-0.45,1.29-0.98,2.37-1.49,3.27"/>
			<path fill="none" stroke="#C6D325" stroke-width="2.57" stroke-linecap="round" stroke-miterlimit="10" d="M714.06,181.75
				c-0.11,0.76-0.26,1.59-0.48,2.48c-0.32,1.28-0.72,2.4-1.12,3.35"/>
			<path fill="none" stroke="#C6D325" stroke-width="2.57" stroke-linecap="round" stroke-miterlimit="10" d="M718.35,181.79
				c-0.19,0.75-0.44,1.57-0.78,2.44c-0.49,1.27-1.05,2.35-1.59,3.23"/>
			<path fill="none" stroke="#C6D325" stroke-width="2.57" stroke-linecap="round" stroke-miterlimit="10" d="M710.11,181.75
				c-0.1,0.91-0.23,1.87-0.4,2.87c-0.2,1.14-0.43,2.21-0.68,3.2"/>
			<path fill="none" stroke="#C6D325" stroke-width="2.57" stroke-linecap="round" stroke-miterlimit="10" d="M706.29,181.75
				c-0.08,1.03-0.16,2.08-0.25,3.15c-0.09,1.03-0.19,2.05-0.3,3.04"/>
			<path fill="none" stroke="#C6D325" stroke-width="2.57" stroke-linecap="round" stroke-miterlimit="10" d="M677.95,181.99
				c0.08,1.03,0.16,2.08,0.25,3.15c0.09,1.03,0.19,2.05,0.3,3.04"/>
			<path fill="none" stroke="#C6D325" stroke-width="2.57" stroke-linecap="round" stroke-miterlimit="10" d="M682.07,182.01
				c0.05,1.03,0.1,2.07,0.14,3.12c0.04,1.02,0.08,2.03,0.1,3.04"/>
			<path fill="none" stroke="#C6D325" stroke-width="2.57" stroke-linecap="round" stroke-miterlimit="10" d="M685.22,182.01
				c0.05,1.03,0.1,2.07,0.14,3.12c0.04,1.02,0.08,2.03,0.1,3.04"/>
			<path fill="none" stroke="#C6D325" stroke-width="2.57" stroke-linecap="round" stroke-miterlimit="10" d="M688.66,182.01
				c0.08,0.98,0.12,2.03,0.14,3.12c0.02,1.05,0,2.05-0.04,3"/>
			<path fill="none" stroke="#C6D325" stroke-width="2.57" stroke-linecap="round" stroke-miterlimit="10" d="M691.99,182.01
				c0.08,0.98,0.12,2.03,0.14,3.12c0.02,1.05,0,2.05-0.04,3"/>
			<path fill="none" stroke="#C6D325" stroke-width="2.57" stroke-linecap="round" stroke-miterlimit="10" d="M695.7,182.01
				c0.08,0.98,0.12,2.03,0.14,3.12c0.02,1.05,0,2.05-0.04,3"/>
			<path fill="none" stroke="#C6D325" stroke-width="2.57" stroke-linecap="round" stroke-miterlimit="10" d="M699.1,182.01
				c0.1,0.92,0.16,1.97,0.14,3.12c-0.02,1.08-0.12,2.05-0.24,2.9"/>
			<path fill="none" stroke="#C6D325" stroke-width="2.57" stroke-linecap="round" stroke-miterlimit="10" d="M702.47,182.01
				c0.1,0.92,0.16,1.97,0.14,3.12c-0.02,1.08-0.12,2.05-0.24,2.9"/>
			<path fill="none" stroke="#EF7C00" stroke-width="2.57" stroke-miterlimit="10" d="M661.34,119.59c0.38-0.92,0.82-1.89,1.33-2.89
				c0.37-0.72,0.74-1.4,1.12-2.02"/>
			<path fill="none" stroke="#EF7C00" stroke-width="2.57" stroke-miterlimit="10" d="M664.23,117.46c0.32,0.7,0.82,1.6,1.59,2.51
				c0.64,0.77,1.3,1.34,1.85,1.75"/>
			<path fill="none" stroke="#EF7C00" stroke-width="2.57" stroke-miterlimit="10" d="M664.7,177.71c-0.41-0.64-1.04-1.46-1.93-2.26
				c-0.75-0.67-1.48-1.14-2.07-1.46"/>
			<path fill="none" stroke="#EF7C00" stroke-width="2.57" stroke-miterlimit="10" d="M665.81,177.4c0.41-0.64,1.04-1.46,1.93-2.26
				c0.75-0.67,1.48-1.14,2.07-1.46"/>
			<path fill="none" stroke="#EF7C00" stroke-width="2.57" stroke-miterlimit="10" d="M707.83,169.77c0.41-0.64,1.04-1.46,1.93-2.26
				c0.75-0.67,1.48-1.14,2.07-1.46"/>
			<path fill="none" stroke="#EF7C00" stroke-width="2.57" stroke-miterlimit="10" d="M738.8,164.7c0.76-0.03,1.77,0,2.92,0.28
				c0.97,0.23,1.77,0.56,2.37,0.86"/>
			<path fill="none" stroke="#EF7C00" stroke-width="2.57" stroke-miterlimit="10" d="M707.68,103.77l2.34,4.7"/>
			<path fill="none" stroke="#EF7C00" stroke-width="2.57" stroke-miterlimit="10" d="M684.34,108.08
				c4.86-0.68,10.98-2.25,17.18-5.91c1.32-0.77,2.53-1.59,3.66-2.41"/>
			<path fill="none" stroke="#EF7C00" stroke-width="2.57" stroke-miterlimit="10" d="M707.93,100.48
				c13.86,25.05,27.72,50.1,41.57,75.15"/>
			<path fill="#29485D" d="M709.83,107.82l1.29,58.65c0.8,0.25,2,0.56,3.48,0.69c5.08,0.46,6.39-1.81,11.5-2.1
				c3.88-0.21,4.32,1.03,9.29,0.77c2.45-0.13,4.46-0.54,5.79-0.88C730.73,145.91,720.28,126.86,709.83,107.82L709.83,107.82
				L709.83,107.82z"/>
			<path fill="#29485D" d="M634.79,179.35l26.74-60.63v55.96c-3.48-0.01-7.48,0.21-11.87,0.87
				C643.84,176.43,638.84,177.87,634.79,179.35L634.79,179.35L634.79,179.35z"/>
			<path fill="#29485D" d="M666.49,120.79l2.77,53.2l28.58-0.94c-3.54-12.12-6.83-25.45-9.53-39.9c-1.65-8.8-2.93-17.25-3.93-25.33
				C678.41,112.14,672.45,116.47,666.49,120.79L666.49,120.79L666.49,120.79z"/>
		</g>
	</g>
</g>
<g>
	<path fill="#29485D" d="M460.91,163.78c0-5.64,2.03-9.25,7.12-12.57l5.55-3.79c3.79-2.68,5.82-5.73,5.82-10.17
		c0-6.01-4.72-11.09-14.33-11.09c-6.01,0-11.65,1.76-16.55,4.44v-6.38c3.79-1.85,9.8-3.79,16.55-3.79
		c13.87,0,20.71,7.86,20.71,16.83c0,7.21-3.61,11.46-9.06,15.07l-5.73,3.88c-3.14,2.13-4.35,4.72-4.35,8.6v2.03h-5.73V163.78z
		 M458.69,181.81c0-2.87,2.22-5.18,5.09-5.18c2.96,0,5.18,2.31,5.18,5.18c0,2.96-2.22,5.18-5.18,5.18
		C460.91,186.99,458.69,184.77,458.69,181.81z"/>
</g>
</svg>
