<?xml version="1.0" encoding="UTF-8"?><svg id="b" xmlns="http://www.w3.org/2000/svg" viewBox="0 0 331.29 294.29"><g id="c"><g id="d"><g id="e"><path d="M14.97,5.75h-4.53V117.22c0,.68,.1,1.36,.28,2.01l3.33,11.58c.22,.78,1.62,.78,1.85,0l3.33-11.58c.18-.66,.28-1.34,.28-2.01V5.75h-4.53Z" fill="#777"/><path d="M14.97,11.49c8.27,0,14.97-2.57,14.97-5.75S23.23,0,14.97,0,0,2.57,0,5.75s6.7,5.75,14.97,5.75Z" fill="#777"/><path d="M13.08,8.48c.54,.06,1.08,.13,1.6,.21l.7,.06,.78,.08c.28,.02,.56,0,.82,0h.78c.26-.04,.52-.04,.78-.08,.26-.04,.48-.08,.74-.13,.88-.17,1.75-.47,2.59-.78,.4-.15,.82-.32,1.2-.51,.18-.08,.36-.21,.54-.34,.1-.08,.22-.15,.32-.23,.1-.08,.2-.21,.3-.32,.12-.13,.1-.4,0-.53-.14-.19-.4-.19-.58-.06-.08,.11-.2,.17-.3,.23-.36,.21-.74,.4-1.12,.57-.38,.15-.74,.28-1.12,.42-.56,.17-1.12,.34-1.71,.47-.28,.06-.6,.11-.9,.15-.3,.06-.6,.06-.94,.11-.32,0-.62,.02-.92,0h-.6l-.6-.06c-.74-.08-1.5-.17-2.23-.28-.28-.02-.54,.19-.56,.49-.02,.3,.18,.57,.46,.59l-.04-.04v-.02Z"/><path d="M88.27,5.75h-4.53V117.22c0,.68,.1,1.36,.28,2.01l3.33,11.58c.22,.78,1.62,.78,1.85,0l3.33-11.58c.18-.66,.28-1.34,.28-2.01V5.75h-4.53Z" fill="#777"/><path d="M88.27,11.49c8.27,0,14.97-2.57,14.97-5.75s-6.7-5.75-14.97-5.75-14.97,2.57-14.97,5.75,6.7,5.75,14.97,5.75Z" fill="#777"/><path d="M86.38,8.48c.54,.06,1.08,.13,1.6,.21l.7,.06,.78,.08c.28,.02,.56,0,.82,0h.78c.26-.04,.52-.04,.78-.08,.26-.04,.48-.08,.74-.13,.88-.17,1.75-.47,2.59-.78,.4-.15,.82-.32,1.2-.51,.18-.08,.36-.21,.54-.34,.1-.08,.22-.15,.32-.23,.1-.08,.2-.21,.3-.32,.12-.13,.1-.4,0-.53-.14-.19-.4-.19-.58-.06-.08,.11-.2,.17-.3,.23-.36,.21-.74,.4-1.12,.57-.38,.15-.74,.28-1.12,.42-.56,.17-1.12,.34-1.71,.47-.28,.06-.6,.11-.9,.15-.3,.06-.6,.06-.94,.11-.32,0-.62,.02-.92,0h-.6l-.6-.06c-.74-.08-1.5-.17-2.23-.28-.28-.02-.54,.19-.56,.49-.02,.3,.18,.57,.46,.59l-.04-.04v-.02Z"/><path d="M165.64,5.75h-4.53V117.22c0,.68,.1,1.36,.28,2.01l3.33,11.58c.22,.78,1.62,.78,1.85,0l3.33-11.58c.18-.66,.28-1.34,.28-2.01V5.75h-4.53Z" fill="#777"/><path d="M165.64,11.49c8.27,0,14.97-2.57,14.97-5.75s-6.7-5.75-14.97-5.75-14.97,2.57-14.97,5.75,6.7,5.75,14.97,5.75Z" fill="#777"/><path d="M163.76,8.48c.54,.06,1.08,.13,1.6,.21l.7,.06,.78,.08c.28,.02,.56,0,.82,0h.78c.26-.04,.52-.04,.78-.08,.26-.04,.48-.08,.74-.13,.88-.17,1.75-.47,2.59-.78,.4-.15,.82-.32,1.2-.51,.18-.08,.36-.21,.54-.34,.1-.08,.22-.15,.32-.23,.1-.08,.2-.21,.3-.32,.12-.13,.1-.4,0-.53-.14-.19-.4-.19-.58-.06-.08,.11-.2,.17-.3,.23-.36,.21-.74,.4-1.12,.57-.38,.15-.74,.28-1.12,.42-.56,.17-1.12,.34-1.71,.47-.28,.06-.6,.11-.9,.15-.3,.06-.6,.06-.94,.11-.32,0-.62,.02-.92,0h-.6l-.6-.06c-.74-.08-1.5-.17-2.23-.28-.28-.02-.54,.19-.56,.49-.02,.3,.18,.57,.46,.59l-.04-.04v-.02Z"/><path d="M238.95,5.75h-4.53V117.22c0,.68,.1,1.36,.28,2.01l3.33,11.58c.22,.78,1.62,.78,1.85,0l3.33-11.58c.18-.66,.28-1.34,.28-2.01V5.75h-4.53Z" fill="#777"/><path d="M238.95,11.49c8.27,0,14.97-2.57,14.97-5.75s-6.7-5.75-14.97-5.75-14.97,2.57-14.97,5.75,6.7,5.75,14.97,5.75Z" fill="#777"/><path d="M237.06,8.48c.54,.06,1.08,.13,1.6,.21l.7,.06,.78,.08c.28,.02,.56,0,.82,0h.78c.26-.04,.52-.04,.78-.08,.26-.04,.48-.08,.74-.13,.88-.17,1.75-.47,2.59-.78,.4-.15,.82-.32,1.2-.51,.18-.08,.36-.21,.54-.34,.1-.08,.22-.15,.32-.23,.1-.08,.2-.21,.3-.32,.12-.13,.1-.4,0-.53-.14-.19-.4-.19-.58-.06-.08,.11-.2,.17-.3,.23-.36,.21-.74,.4-1.12,.57-.38,.15-.74,.28-1.12,.42-.56,.17-1.12,.34-1.71,.47-.28,.06-.6,.11-.9,.15-.3,.06-.6,.06-.94,.11-.32,0-.62,.02-.92,0h-.6l-.6-.06c-.74-.08-1.5-.17-2.23-.28-.28-.02-.54,.19-.56,.49-.02,.3,.18,.57,.46,.59l-.04-.04v-.02Z"/><path d="M14.97,168.64h-4.53v111.47c0,.68,.1,1.36,.28,2.01l3.33,11.58c.22,.78,1.62,.78,1.85,0l3.33-11.58c.18-.66,.28-1.34,.28-2.01v-111.47h-4.53Z" fill="#777"/><path d="M14.97,174.39c8.27,0,14.97-2.57,14.97-5.75s-6.7-5.75-14.97-5.75-14.97,2.57-14.97,5.75,6.7,5.75,14.97,5.75Z" fill="#777"/><path d="M13.08,171.38c.54,.06,1.08,.13,1.6,.21l.7,.06,.78,.08c.28,.02,.56,0,.82,0h.78c.26-.04,.52-.04,.78-.08,.26-.04,.48-.09,.74-.13,.88-.17,1.75-.47,2.59-.78,.4-.15,.82-.32,1.2-.51,.18-.08,.36-.21,.54-.34,.1-.08,.22-.15,.32-.23,.1-.08,.2-.21,.3-.32,.12-.13,.1-.4,0-.53-.14-.19-.4-.19-.58-.06-.08,.11-.2,.17-.3,.23-.36,.21-.74,.4-1.12,.57-.38,.15-.74,.28-1.12,.42-.56,.17-1.12,.34-1.71,.47-.28,.06-.6,.11-.9,.15-.3,.06-.6,.06-.94,.11-.32,0-.62,.02-.92,0h-.6l-.6-.06c-.74-.08-1.5-.17-2.23-.28-.28-.02-.54,.19-.56,.49-.02,.3,.18,.57,.46,.59l-.04-.04v-.02Z"/><path d="M88.27,168.64h-4.53v111.47c0,.68,.1,1.36,.28,2.01l3.33,11.58c.22,.78,1.62,.78,1.85,0l3.33-11.58c.18-.66,.28-1.34,.28-2.01v-111.47h-4.53Z" fill="#777"/><path d="M88.27,174.39c8.27,0,14.97-2.57,14.97-5.75s-6.7-5.75-14.97-5.75-14.97,2.57-14.97,5.75,6.7,5.75,14.97,5.75Z" fill="#777"/><path d="M86.38,171.38c.54,.06,1.08,.13,1.6,.21l.7,.06,.78,.08c.28,.02,.56,0,.82,0h.78c.26-.04,.52-.04,.78-.08,.26-.04,.48-.09,.74-.13,.88-.17,1.75-.47,2.59-.78,.4-.15,.82-.32,1.2-.51,.18-.08,.36-.21,.54-.34,.1-.08,.22-.15,.32-.23,.1-.08,.2-.21,.3-.32,.12-.13,.1-.4,0-.53-.14-.19-.4-.19-.58-.06-.08,.11-.2,.17-.3,.23-.36,.21-.74,.4-1.12,.57-.38,.15-.74,.28-1.12,.42-.56,.17-1.12,.34-1.71,.47-.28,.06-.6,.11-.9,.15-.3,.06-.6,.06-.94,.11-.32,0-.62,.02-.92,0h-.6l-.6-.06c-.74-.08-1.5-.17-2.23-.28-.28-.02-.54,.19-.56,.49-.02,.3,.18,.57,.46,.59l-.04-.04v-.02Z"/><path d="M165.64,168.64h-4.53v111.47c0,.68,.1,1.36,.28,2.01l3.33,11.58c.22,.78,1.62,.78,1.85,0l3.33-11.58c.18-.66,.28-1.34,.28-2.01v-111.47h-4.53Z" fill="#777"/><path d="M165.64,174.39c8.27,0,14.97-2.57,14.97-5.75s-6.7-5.75-14.97-5.75-14.97,2.57-14.97,5.75,6.7,5.75,14.97,5.75Z" fill="#777"/><path d="M163.76,171.38c.54,.06,1.08,.13,1.6,.21l.7,.06,.78,.08c.28,.02,.56,0,.82,0h.78c.26-.04,.52-.04,.78-.08,.26-.04,.48-.09,.74-.13,.88-.17,1.75-.47,2.59-.78,.4-.15,.82-.32,1.2-.51,.18-.08,.36-.21,.54-.34,.1-.08,.22-.15,.32-.23,.1-.08,.2-.21,.3-.32,.12-.13,.1-.4,0-.53-.14-.19-.4-.19-.58-.06-.08,.11-.2,.17-.3,.23-.36,.21-.74,.4-1.12,.57-.38,.15-.74,.28-1.12,.42-.56,.17-1.12,.34-1.71,.47-.28,.06-.6,.11-.9,.15-.3,.06-.6,.06-.94,.11-.32,0-.62,.02-.92,0h-.6l-.6-.06c-.74-.08-1.5-.17-2.23-.28-.28-.02-.54,.19-.56,.49-.02,.3,.18,.57,.46,.59l-.04-.04v-.02Z"/><path d="M238.95,168.64h-4.53v111.47c0,.68,.1,1.36,.28,2.01l3.33,11.58c.22,.78,1.62,.78,1.85,0l3.33-11.58c.18-.66,.28-1.34,.28-2.01v-111.47h-4.53Z" fill="#777"/><path d="M238.95,174.39c8.27,0,14.97-2.57,14.97-5.75s-6.7-5.75-14.97-5.75-14.97,2.57-14.97,5.75,6.7,5.75,14.97,5.75Z" fill="#777"/><path d="M237.06,171.38c.54,.06,1.08,.13,1.6,.21l.7,.06,.78,.08c.28,.02,.56,0,.82,0h.78c.26-.04,.52-.04,.78-.08,.26-.04,.48-.09,.74-.13,.88-.17,1.75-.47,2.59-.78,.4-.15,.82-.32,1.2-.51,.18-.08,.36-.21,.54-.34,.1-.08,.22-.15,.32-.23,.1-.08,.2-.21,.3-.32,.12-.13,.1-.4,0-.53-.14-.19-.4-.19-.58-.06-.08,.11-.2,.17-.3,.23-.36,.21-.74,.4-1.12,.57-.38,.15-.74,.28-1.12,.42-.56,.17-1.12,.34-1.71,.47-.28,.06-.6,.11-.9,.15-.3,.06-.6,.06-.94,.11-.32,0-.62,.02-.92,0h-.6l-.6-.06c-.74-.08-1.5-.17-2.23-.28-.28-.02-.54,.19-.56,.49-.02,.3,.18,.57,.46,.59l-.04-.04v-.02Z"/><path d="M316.32,168.64h-4.53v111.47c0,.68,.1,1.36,.28,2.01l3.33,11.58c.22,.78,1.62,.78,1.85,0l3.33-11.58c.18-.66,.28-1.34,.28-2.01v-111.47h-4.53Z" fill="#777"/><path d="M316.32,174.39c8.27,0,14.97-2.57,14.97-5.75s-6.7-5.75-14.97-5.75-14.97,2.57-14.97,5.75,6.7,5.75,14.97,5.75Z" fill="#777"/><path d="M314.43,171.38c.54,.06,1.08,.13,1.6,.21l.7,.06,.78,.08c.28,.02,.56,0,.82,0h.78c.26-.04,.52-.04,.78-.08,.26-.04,.48-.09,.74-.13,.88-.17,1.75-.47,2.59-.78,.4-.15,.82-.32,1.2-.51,.18-.08,.36-.21,.54-.34,.1-.08,.22-.15,.32-.23,.1-.08,.2-.21,.3-.32,.12-.13,.1-.4,0-.53-.14-.19-.4-.19-.58-.06-.08,.11-.2,.17-.3,.23-.36,.21-.74,.4-1.12,.57-.38,.15-.74,.28-1.12,.42-.56,.17-1.12,.34-1.71,.47-.28,.06-.6,.11-.9,.15-.3,.06-.6,.06-.94,.11-.32,0-.62,.02-.92,0h-.6l-.6-.06c-.74-.08-1.5-.17-2.23-.28-.28-.02-.54,.19-.56,.49-.02,.3,.18,.57,.46,.59l-.04-.04v-.02Z"/><path d="M316.32,5.75h-4.53V117.22c0,.68,.1,1.36,.28,2.01l3.33,11.58c.22,.78,1.62,.78,1.85,0l3.33-11.58c.18-.66,.28-1.34,.28-2.01V5.75h-4.53Z" fill="#777"/><path d="M316.32,11.49c8.27,0,14.97-2.57,14.97-5.75s-6.7-5.75-14.97-5.75-14.97,2.57-14.97,5.75,6.7,5.75,14.97,5.75Z" fill="#777"/><path d="M314.43,8.48c.54,.06,1.08,.13,1.6,.21l.7,.06,.78,.08c.28,.02,.56,0,.82,0h.78c.26-.04,.52-.04,.78-.08,.26-.04,.48-.08,.74-.13,.88-.17,1.75-.47,2.59-.78,.4-.15,.82-.32,1.2-.51,.18-.08,.36-.21,.54-.34,.1-.08,.22-.15,.32-.23,.1-.08,.2-.21,.3-.32,.12-.13,.1-.4,0-.53-.14-.19-.4-.19-.58-.06-.08,.11-.2,.17-.3,.23-.36,.21-.74,.4-1.12,.57-.38,.15-.74,.28-1.12,.42-.56,.17-1.12,.34-1.71,.47-.28,.06-.6,.11-.9,.15-.3,.06-.6,.06-.94,.11-.32,0-.62,.02-.92,0h-.6l-.6-.06c-.74-.08-1.5-.17-2.23-.28-.28-.02-.54,.19-.56,.49-.02,.3,.18,.57,.46,.59l-.04-.04v-.02Z"/></g></g></g></svg>