<?xml version="1.0" encoding="utf-8"?>
<!-- Generator: Adobe Illustrator 27.7.0, SVG Export Plug-In . SVG Version: 6.00 Build 0)  -->
<svg version="1.1" id="Layer_1" xmlns="http://www.w3.org/2000/svg" xmlns:xlink="http://www.w3.org/1999/xlink" x="0px" y="0px"
	 viewBox="0 0 110 97" enable-background="new 0 0 110 97" xml:space="preserve">
<g>
	<g>
		<defs>
			<rect id="SVGID_1_" width="28" height="19"/>
		</defs>
		<clipPath id="SVGID_00000091007767992930807490000005947184483819919527_">
			<use xlink:href="#SVGID_1_"  overflow="visible"/>
		</clipPath>
		<g clip-path="url(#SVGID_00000091007767992930807490000005947184483819919527_)">
			<path fill="#FFF694" d="M27.16,12.05c-0.89-1.04-2.67-3.1-3.62-4.09c-0.87-0.9-2.72-2.59-3.62-3.45
				c-1.36-1.3-4.78-4.59-6.06-4.51c-0.97,0.06-6.41,5.13-6.41,5.13l-5.58,6.55c0,0-2.66,2.54-1.63,3.69
				c0.88,0.98,2.14,1.79,4.59,2.63c3.34,1.14,8.59,1.19,12.46,0.76c4.65-0.52,9.16-1.44,10.52-4.59
				C28.25,13.13,27.89,12.9,27.16,12.05z"/>
			<path fill="#FFD15E" d="M2.77,12.72C2.77,12.72,2.78,12.72,2.77,12.72C2.78,12.72,2.78,12.72,2.77,12.72
				C2.77,12.72,2.77,12.72,2.77,12.72L2.77,12.72z"/>
			<path fill="#FFD15E" d="M13.32,1.18c-0.26,0.16-0.49,0.34-0.79,0.6c-0.02,0.02-0.04,0.04-0.06,0.06
				c-0.05,0.03-0.09,0.06-0.14,0.09c-0.01,0-0.01,0.01-0.02,0.01C12.19,2,12.08,2.09,11.98,2.19c-0.07,0.07-0.21,0.19-0.07,0.07
				c-0.21,0.18-0.3,0.2-0.57,0.42c-0.05,0.03-0.09,0.06-0.13,0.09c-0.02,0.01-0.04,0.03-0.06,0.04c-0.09,0.06-0.18,0.13-0.27,0.2
				c-0.18,0.12-0.35,0.26-0.51,0.41c-0.08,0.07-0.16,0.15-0.24,0.22C10.06,3.69,10,3.74,9.93,3.79c-0.27,0.18-0.58,0.4-1,0.76
				c-0.64,0.59-0.63,0.62-1,1.06C7.82,5.73,7.71,5.86,7.61,5.98C7.31,6.3,7.28,6.36,7.13,6.54C6.9,6.77,6.69,7,6.5,7.27
				C6.49,7.29,6.47,7.31,6.46,7.33c0,0-0.01,0.01-0.01,0.01C6.44,7.35,6.43,7.36,6.42,7.38l0.02-0.02h0C6.42,7.38,6.4,7.4,6.38,7.42
				C6.33,7.48,6.29,7.55,6.24,7.61C6.17,7.69,6.1,7.78,6.03,7.87c-0.09,0.1-0.17,0.21-0.25,0.32C5.6,8.48,5.63,8.44,5.34,8.88
				C5.29,8.93,5.24,8.98,5.2,9.04C5.19,9.05,5.18,9.06,5.17,9.07c-0.2,0.2-0.39,0.42-0.56,0.65C4.58,9.76,4.55,9.8,4.52,9.85
				c-0.1,0.11-0.2,0.23-0.29,0.35c-0.09,0.1-0.18,0.21-0.27,0.31c-0.15,0.15-0.31,0.31-0.45,0.48c-0.06,0.07-0.12,0.14-0.17,0.22
				c-0.31,0.33-0.32,0.38-0.5,0.62c-0.06,0.08-0.12,0.15-0.18,0.23c-0.01,0.01-0.02,0.03-0.04,0.05c-0.06,0.07-0.12,0.15-0.18,0.22
				c-0.01,0.01-0.01,0.01-0.02,0.02c-0.06,0.06-0.12,0.13-0.18,0.19C2.12,12.67,2,12.81,1.9,12.96c-0.12,0.16-0.24,0.33-0.35,0.5
				c-0.07,0.09-0.13,0.18-0.17,0.29c0,0.01-0.01,0.02,0,0.02c-0.08,0.14-0.05,0.1-0.11,0.27c-0.05,0.14-0.01,0.29,0.02,0.43
				c0.02,0.04,0.03,0.09,0.06,0.12c0.03,0.03,0.03,0.08,0.04,0.11c0,0,0,0.01,0,0.01c0,0,0,0.01,0,0.01c0.01,0.19-0.01,0.39,0,0.58
				c0.06,0.27,0.05,0.26,0.1,0.57c0.05,0.11,0.18,0.11,0.28,0.13c0,0-0.01,0-0.01,0c0,0,0.01,0,0.01,0c0,0,0.01,0,0.01,0
				c0.05,0,0.01,0-0.01,0C1.78,16,1.79,16,1.8,16c0.22,0.05,0.36,0.25,0.58,0.31c0.26,0.06,0.52,0.05,0.78,0.01
				c0.03,0,0.06-0.01,0.09-0.01c0.01,0,0.03,0,0.05,0c0.05,0.01,0.08,0.05,0.13,0.07c0.09,0.03,0.17,0.06,0.25,0.09
				c0.25,0.07,0.48,0.21,0.72,0.31c0.18,0.07,0.38,0.11,0.56,0.19c0.22,0.09,0.46,0.1,0.69,0.15c0.22,0.06,0.43,0.15,0.66,0.19
				c0.4,0.09,0.81,0.14,1.22,0.09c-0.03,0-0.06-0.01-0.09-0.01c-0.35-0.06-0.67-0.24-0.98-0.41c-0.15-0.08-0.27-0.21-0.42-0.29
				c-0.14-0.08-0.29-0.13-0.43-0.21c-0.12-0.09-0.24-0.17-0.37-0.25c-0.28-0.17-0.48-0.44-0.77-0.6c-0.06-0.05-0.13-0.08-0.18-0.13
				c-0.03-0.04-0.07-0.08-0.13-0.09c-0.11-0.03-0.23-0.02-0.34-0.03c-0.09-0.02-0.18-0.04-0.27-0.07c-0.26-0.06-0.34-0.35-0.57-0.46
				c-0.09-0.04-0.2-0.06-0.24-0.16c0-0.01,0-0.03,0-0.04c0.03-0.22-0.02-0.45,0.01-0.67c0.03-0.25,0.11-0.51,0.04-0.77
				c0-0.02-0.01-0.04-0.02-0.06c0-0.02,0-0.05-0.01-0.07c0-0.01,0-0.01-0.01-0.02c-0.01-0.09,0-0.17,0-0.26
				c0-0.02,0.01-0.04,0.02-0.06c0-0.01,0.01-0.02,0.01-0.03c-0.01,0.02-0.03,0.05-0.04,0.07c0.02-0.02,0.03-0.05,0.04-0.07l0-0.01h0
				c0,0,0,0,0,0.01c0-0.01,0.01-0.02,0.01-0.02c0.04-0.05,0.08-0.11,0.12-0.16c0.02-0.03,0.04-0.05,0.06-0.08
				c0.01-0.01,0.01-0.02,0.02-0.02c0.2-0.2,0.4-0.42,0.58-0.64c0.1-0.12,0.2-0.23,0.3-0.35c0.07-0.09,0.15-0.17,0.22-0.26
				c0.03-0.04,0.05-0.07,0.08-0.11c0.01-0.01,0.02-0.03,0.04-0.05c0.09-0.1,0.18-0.2,0.27-0.3c0.13-0.13,0.25-0.25,0.37-0.38
				c0.09-0.1,0.18-0.21,0.27-0.31c0.13-0.13,0.25-0.27,0.36-0.41C5.47,9.6,5.48,9.59,5.48,9.58c0,0,0.01-0.01,0.01-0.01
				C5.81,9.2,5.86,9.14,5.92,9.06c0.18-0.19,0.34-0.38,0.5-0.58c0.32-0.38,0.6-0.8,0.85-1.24c0.04-0.05,0.08-0.1,0.11-0.15
				C7.38,7.08,7.39,7.07,7.4,7.06c0.06-0.07,0.09-0.12,0.16-0.21c0.02-0.03,0.04-0.06,0.06-0.09c0.05-0.07,0.11-0.14,0.16-0.21
				C7.94,6.37,8.1,6.18,8.24,5.98c0-0.01,0.01-0.01,0.01-0.02C8.28,5.93,8.3,5.9,8.32,5.87c0.13-0.15,0.26-0.3,0.37-0.46
				c0.18-0.21,0.25-0.32,0.31-0.4c0.06-0.05,0.11-0.1,0.17-0.14c0.19-0.14,0.37-0.29,0.55-0.44c0.27-0.21,0.5-0.45,0.73-0.69
				c0.09-0.07,0.17-0.14,0.25-0.21c0.21-0.17,0.31-0.22,0.58-0.48c-0.04,0.04-0.02,0.02,0.01,0c0.24-0.18,0.47-0.38,0.68-0.6h0
				c-0.02,0.02-0.04,0.04-0.04,0.04c0.01-0.01,0.03-0.03,0.04-0.04c0.07-0.05,0.14-0.11,0.21-0.16c0.12-0.09,0.24-0.19,0.34-0.3
				c0.26-0.26,0.44-0.42,0.65-0.58c0.22-0.17,0.62-0.49,0.99-0.28C13.9,0.84,13.58,1.01,13.32,1.18L13.32,1.18z"/>
			<path fill="#FFD15E" d="M2.77,12.72c0,0.01-0.01,0.02-0.01,0.02C2.8,12.68,2.79,12.69,2.77,12.72z"/>
			<path fill="#FFD15E" d="M14.36,17.9c-0.44-0.04-0.85-0.03-1.25-0.16c-0.34-0.06-0.62-0.29-0.97-0.28
				c-0.41,0.02-0.82-0.02-1.23-0.01c-0.24,0.01-0.48,0.08-0.72,0.1c-0.46,0.04-0.92,0.06-1.39,0.06c0.32,0.16,0.68,0.27,1.03,0.33
				c0.21,0.04,0.43,0.01,0.65,0.05c0.33,0.06,0.72,0.13,1.13,0.09c0.28-0.01,0.43,0.05,0.69,0.09c0.2,0.03,0.4,0.02,0.6,0.02
				c0.34,0,0.68-0.07,1.01-0.16c0.17-0.04,0.34-0.07,0.52-0.12C14.4,17.9,14.38,17.9,14.36,17.9z"/>
		</g>
	</g>
	<g>
		<defs>
			<rect id="SVGID_00000126316676558765347730000012835613147117285015_" x="41" width="28" height="19"/>
		</defs>
		<clipPath id="SVGID_00000049919012586484318310000005025470109086396585_">
			<use xlink:href="#SVGID_00000126316676558765347730000012835613147117285015_"  overflow="visible"/>
		</clipPath>
		<g clip-path="url(#SVGID_00000049919012586484318310000005025470109086396585_)">
			<path fill="#FFF694" d="M68.16,12.05c-0.89-1.04-2.67-3.1-3.62-4.09c-0.87-0.9-2.72-2.59-3.62-3.45
				c-1.36-1.3-4.78-4.59-6.06-4.51c-0.97,0.06-6.41,5.13-6.41,5.13l-5.58,6.55c0,0-2.66,2.54-1.63,3.69
				c0.88,0.98,2.14,1.79,4.59,2.63c3.34,1.14,8.59,1.19,12.46,0.76c4.65-0.52,9.16-1.44,10.52-4.59
				C69.25,13.13,68.89,12.9,68.16,12.05z"/>
			<path fill="#FFD15E" d="M43.77,12.72C43.77,12.72,43.78,12.72,43.77,12.72C43.78,12.72,43.78,12.72,43.77,12.72
				C43.77,12.72,43.77,12.72,43.77,12.72L43.77,12.72z"/>
			<path fill="#FFD15E" d="M54.32,1.18c-0.26,0.16-0.49,0.34-0.79,0.6c-0.02,0.02-0.04,0.04-0.06,0.06
				c-0.05,0.03-0.09,0.06-0.14,0.09c-0.01,0-0.01,0.01-0.02,0.01C53.19,2,53.08,2.09,52.98,2.19c-0.07,0.07-0.21,0.19-0.07,0.07
				c-0.21,0.18-0.3,0.2-0.57,0.42c-0.05,0.03-0.09,0.06-0.13,0.09c-0.02,0.01-0.04,0.03-0.06,0.04c-0.09,0.06-0.18,0.13-0.27,0.2
				c-0.18,0.12-0.35,0.26-0.51,0.41c-0.08,0.07-0.16,0.15-0.24,0.22c-0.06,0.05-0.13,0.1-0.19,0.15c-0.27,0.18-0.58,0.4-1,0.76
				c-0.64,0.59-0.63,0.62-1,1.06c-0.11,0.12-0.22,0.24-0.32,0.37c-0.3,0.31-0.33,0.38-0.48,0.56C47.9,6.77,47.69,7,47.5,7.27
				c-0.02,0.02-0.03,0.05-0.04,0.06c0,0-0.01,0.01-0.01,0.01c-0.01,0.01-0.02,0.02-0.03,0.04l0.02-0.02h0
				c-0.02,0.02-0.04,0.05-0.06,0.07c-0.05,0.06-0.09,0.12-0.14,0.18c-0.07,0.09-0.14,0.17-0.21,0.26c-0.09,0.1-0.17,0.21-0.25,0.32
				c-0.19,0.3-0.16,0.25-0.45,0.69c-0.05,0.05-0.09,0.11-0.14,0.16c-0.01,0.01-0.01,0.02-0.02,0.03c-0.2,0.2-0.39,0.42-0.56,0.65
				c-0.03,0.04-0.07,0.09-0.1,0.13c-0.1,0.11-0.2,0.23-0.29,0.35c-0.09,0.1-0.18,0.21-0.27,0.31c-0.15,0.15-0.31,0.31-0.45,0.48
				c-0.06,0.07-0.12,0.14-0.17,0.22c-0.31,0.33-0.32,0.38-0.5,0.62c-0.06,0.08-0.12,0.15-0.18,0.23c-0.01,0.01-0.02,0.03-0.04,0.05
				c-0.06,0.07-0.12,0.15-0.18,0.22c-0.01,0.01-0.01,0.01-0.02,0.02c-0.06,0.06-0.12,0.13-0.18,0.19c-0.12,0.14-0.24,0.28-0.34,0.43
				c-0.12,0.16-0.24,0.33-0.35,0.5c-0.07,0.09-0.13,0.18-0.17,0.29c0,0.01-0.01,0.02,0,0.02c-0.08,0.14-0.05,0.1-0.11,0.27
				c-0.05,0.14-0.01,0.29,0.02,0.43c0.02,0.04,0.03,0.09,0.06,0.12c0.03,0.03,0.03,0.08,0.04,0.11c0,0,0,0.01,0,0.01
				c0,0,0,0.01,0,0.01c0.01,0.19-0.01,0.39,0,0.58c0.06,0.27,0.05,0.26,0.1,0.57c0.05,0.11,0.18,0.11,0.28,0.13c0,0-0.01,0-0.01,0
				c0,0,0.01,0,0.01,0c0,0,0.01,0,0.01,0c0.05,0,0.01,0-0.01,0c0.01,0,0.02,0,0.03,0.01c0.22,0.05,0.36,0.25,0.58,0.31
				c0.26,0.06,0.52,0.05,0.78,0.01c0.03,0,0.06-0.01,0.09-0.01c0.01,0,0.03,0,0.05,0c0.05,0.01,0.08,0.05,0.13,0.07
				c0.09,0.03,0.17,0.06,0.25,0.09c0.25,0.07,0.48,0.21,0.72,0.31c0.18,0.07,0.38,0.11,0.56,0.19c0.22,0.09,0.46,0.1,0.69,0.15
				c0.22,0.06,0.43,0.15,0.66,0.19c0.4,0.09,0.81,0.14,1.22,0.09c-0.03,0-0.06-0.01-0.09-0.01c-0.35-0.06-0.67-0.24-0.98-0.41
				c-0.15-0.08-0.27-0.21-0.42-0.29c-0.14-0.08-0.29-0.13-0.43-0.21c-0.12-0.09-0.24-0.17-0.37-0.25c-0.28-0.17-0.48-0.44-0.77-0.6
				c-0.06-0.05-0.13-0.08-0.18-0.13c-0.03-0.04-0.07-0.08-0.13-0.09c-0.11-0.03-0.23-0.02-0.34-0.03c-0.09-0.02-0.18-0.04-0.27-0.07
				c-0.26-0.06-0.34-0.35-0.57-0.46c-0.09-0.04-0.2-0.06-0.24-0.16c0-0.01,0-0.03,0-0.04c0.03-0.22-0.02-0.45,0.01-0.67
				c0.03-0.25,0.11-0.51,0.04-0.77c0-0.02-0.01-0.04-0.02-0.06c0-0.02,0-0.05-0.01-0.07c0-0.01,0-0.01-0.01-0.02
				c-0.01-0.09,0-0.17,0-0.26c0-0.02,0.01-0.04,0.02-0.06c0-0.01,0.01-0.02,0.01-0.03c-0.01,0.02-0.03,0.05-0.04,0.07
				c0.02-0.02,0.03-0.05,0.04-0.07l0-0.01h0c0,0,0,0,0,0.01c0-0.01,0.01-0.02,0.01-0.02c0.04-0.05,0.08-0.11,0.12-0.16
				c0.02-0.03,0.04-0.05,0.06-0.08c0.01-0.01,0.01-0.02,0.02-0.02c0.2-0.2,0.4-0.42,0.58-0.64c0.1-0.12,0.2-0.23,0.3-0.35
				c0.07-0.09,0.15-0.17,0.22-0.26c0.03-0.04,0.05-0.07,0.08-0.11c0.01-0.01,0.02-0.03,0.04-0.05c0.09-0.1,0.18-0.2,0.27-0.3
				c0.13-0.13,0.25-0.25,0.37-0.38c0.09-0.1,0.18-0.21,0.27-0.31c0.13-0.13,0.25-0.27,0.36-0.41c0.01-0.01,0.01-0.02,0.02-0.03
				c0,0,0.01-0.01,0.01-0.01c0.31-0.37,0.36-0.44,0.42-0.52c0.18-0.19,0.34-0.38,0.5-0.58c0.32-0.38,0.6-0.8,0.85-1.24
				c0.04-0.05,0.08-0.1,0.11-0.15c0.01-0.01,0.02-0.02,0.03-0.03c0.06-0.07,0.09-0.12,0.16-0.21c0.02-0.03,0.04-0.06,0.06-0.09
				c0.05-0.07,0.11-0.14,0.16-0.21c0.17-0.18,0.33-0.38,0.47-0.58c0-0.01,0.01-0.01,0.01-0.02c0.02-0.03,0.05-0.06,0.07-0.09
				c0.13-0.15,0.26-0.3,0.37-0.46c0.18-0.21,0.25-0.32,0.31-0.4c0.06-0.05,0.11-0.1,0.17-0.14c0.19-0.14,0.37-0.29,0.55-0.44
				c0.27-0.21,0.5-0.45,0.73-0.69c0.09-0.07,0.17-0.14,0.25-0.21c0.21-0.17,0.31-0.22,0.58-0.48c-0.04,0.04-0.02,0.02,0.01,0
				c0.24-0.18,0.47-0.38,0.68-0.6h0c-0.02,0.02-0.04,0.04-0.04,0.04c0.01-0.01,0.03-0.03,0.04-0.04c0.07-0.05,0.14-0.11,0.21-0.16
				c0.12-0.09,0.24-0.19,0.34-0.3c0.26-0.26,0.44-0.42,0.65-0.58c0.22-0.17,0.62-0.49,0.99-0.28C54.9,0.84,54.58,1.01,54.32,1.18
				L54.32,1.18z"/>
			<path fill="#FFD15E" d="M43.77,12.72c0,0.01-0.01,0.02-0.01,0.02C43.8,12.68,43.79,12.69,43.77,12.72z"/>
			<path fill="#FFD15E" d="M55.36,17.9c-0.44-0.04-0.85-0.03-1.25-0.16c-0.34-0.06-0.62-0.29-0.97-0.28
				c-0.41,0.02-0.82-0.02-1.23-0.01c-0.24,0.01-0.48,0.08-0.72,0.1c-0.46,0.04-0.92,0.06-1.39,0.06c0.32,0.16,0.68,0.27,1.03,0.33
				c0.21,0.04,0.43,0.01,0.65,0.05c0.33,0.06,0.72,0.13,1.13,0.09c0.28-0.01,0.43,0.05,0.69,0.09c0.2,0.03,0.4,0.02,0.6,0.02
				c0.34,0,0.68-0.07,1.01-0.16c0.17-0.04,0.34-0.07,0.52-0.12C55.4,17.9,55.38,17.9,55.36,17.9z"/>
		</g>
	</g>
	<g>
		<defs>
			<rect id="SVGID_00000023283238987615629380000015503933139742320040_" x="42" y="78" width="28" height="19"/>
		</defs>
		<clipPath id="SVGID_00000093166452657950152130000007268269388461524113_">
			<use xlink:href="#SVGID_00000023283238987615629380000015503933139742320040_"  overflow="visible"/>
		</clipPath>
		<g clip-path="url(#SVGID_00000093166452657950152130000007268269388461524113_)">
			<path fill="#FFF694" d="M69.16,90.05c-0.89-1.04-2.67-3.1-3.62-4.09c-0.87-0.9-2.72-2.59-3.62-3.45
				c-1.36-1.3-4.78-4.59-6.06-4.51c-0.97,0.06-6.41,5.13-6.41,5.13l-5.58,6.55c0,0-2.66,2.54-1.63,3.69
				c0.88,0.98,2.14,1.79,4.59,2.63c3.34,1.14,8.59,1.19,12.46,0.76c4.65-0.52,9.16-1.44,10.52-4.59
				C70.25,91.13,69.89,90.9,69.16,90.05z"/>
			<path fill="#FFD15E" d="M44.77,90.72C44.77,90.72,44.78,90.72,44.77,90.72C44.78,90.72,44.78,90.72,44.77,90.72
				C44.77,90.72,44.77,90.72,44.77,90.72L44.77,90.72z"/>
			<path fill="#FFD15E" d="M55.32,79.18c-0.26,0.16-0.49,0.34-0.79,0.6c-0.02,0.02-0.04,0.04-0.06,0.06
				c-0.05,0.03-0.09,0.06-0.14,0.09c-0.01,0-0.01,0.01-0.02,0.01c-0.13,0.07-0.23,0.16-0.34,0.25c-0.07,0.07-0.21,0.19-0.07,0.07
				c-0.21,0.18-0.3,0.2-0.57,0.42c-0.05,0.03-0.09,0.06-0.13,0.09c-0.02,0.01-0.04,0.03-0.06,0.04c-0.09,0.06-0.18,0.13-0.27,0.2
				c-0.18,0.12-0.35,0.26-0.51,0.41c-0.08,0.07-0.16,0.15-0.24,0.22c-0.06,0.05-0.13,0.1-0.19,0.15c-0.27,0.18-0.58,0.4-1,0.76
				c-0.64,0.59-0.63,0.62-1,1.06c-0.11,0.12-0.22,0.24-0.32,0.37c-0.3,0.31-0.33,0.38-0.48,0.56c-0.23,0.22-0.45,0.46-0.63,0.72
				c-0.02,0.03-0.03,0.05-0.04,0.06c0,0-0.01,0.01-0.01,0.01c-0.01,0.01-0.02,0.02-0.03,0.04l0.02-0.02h0
				c-0.02,0.02-0.04,0.05-0.06,0.07c-0.05,0.06-0.09,0.12-0.14,0.18c-0.07,0.09-0.14,0.17-0.21,0.26c-0.09,0.1-0.17,0.21-0.25,0.32
				c-0.19,0.3-0.16,0.25-0.45,0.69c-0.05,0.05-0.09,0.11-0.14,0.16c-0.01,0.01-0.01,0.02-0.02,0.03c-0.2,0.2-0.39,0.42-0.56,0.65
				c-0.03,0.04-0.07,0.09-0.1,0.13c-0.1,0.11-0.2,0.23-0.29,0.35c-0.09,0.1-0.18,0.21-0.27,0.31c-0.15,0.15-0.31,0.31-0.45,0.48
				c-0.06,0.07-0.12,0.14-0.17,0.22c-0.31,0.33-0.32,0.38-0.5,0.62c-0.06,0.08-0.12,0.15-0.18,0.23c-0.01,0.01-0.02,0.03-0.04,0.05
				c-0.06,0.07-0.12,0.15-0.18,0.22c-0.01,0.01-0.01,0.01-0.02,0.02c-0.06,0.06-0.12,0.13-0.18,0.19c-0.12,0.14-0.24,0.28-0.34,0.43
				c-0.12,0.16-0.24,0.33-0.35,0.5c-0.07,0.09-0.13,0.18-0.17,0.29c0,0.01-0.01,0.02,0,0.02c-0.08,0.14-0.05,0.1-0.11,0.27
				c-0.05,0.14-0.01,0.29,0.02,0.43c0.02,0.04,0.03,0.09,0.06,0.12c0.03,0.03,0.03,0.08,0.04,0.11c0,0,0,0.01,0,0.01
				c0,0,0,0.01,0,0.01c0.01,0.19-0.01,0.39,0,0.58c0.06,0.27,0.05,0.26,0.1,0.57c0.05,0.11,0.18,0.11,0.28,0.13c0,0-0.01,0-0.01,0
				c0,0,0.01,0,0.01,0c0,0,0.01,0,0.01,0c0.05,0,0.01,0-0.01,0c0.01,0,0.02,0,0.03,0.01c0.22,0.05,0.36,0.25,0.58,0.31
				c0.26,0.06,0.52,0.05,0.78,0.01c0.03,0,0.06-0.01,0.09-0.01c0.01,0,0.03,0,0.05,0c0.05,0.01,0.08,0.05,0.13,0.07
				c0.09,0.03,0.17,0.06,0.25,0.09c0.25,0.07,0.48,0.21,0.72,0.31c0.18,0.07,0.38,0.11,0.56,0.19c0.22,0.09,0.46,0.1,0.69,0.15
				c0.22,0.06,0.43,0.15,0.66,0.19c0.4,0.09,0.81,0.14,1.22,0.09c-0.03,0-0.06-0.01-0.09-0.01c-0.35-0.06-0.67-0.24-0.98-0.41
				c-0.15-0.08-0.27-0.21-0.42-0.29c-0.14-0.08-0.29-0.13-0.43-0.21c-0.12-0.09-0.24-0.17-0.37-0.25c-0.28-0.17-0.48-0.44-0.77-0.6
				c-0.06-0.05-0.13-0.08-0.18-0.13c-0.03-0.04-0.07-0.08-0.13-0.09c-0.11-0.03-0.23-0.02-0.34-0.03c-0.09-0.02-0.18-0.04-0.27-0.07
				c-0.26-0.06-0.34-0.35-0.57-0.46c-0.09-0.04-0.2-0.06-0.24-0.16c0-0.01,0-0.03,0-0.04c0.03-0.22-0.02-0.45,0.01-0.67
				c0.03-0.25,0.11-0.51,0.04-0.77c0-0.02-0.01-0.04-0.02-0.06c0-0.02,0-0.05-0.01-0.07c0-0.01,0-0.01-0.01-0.02
				c-0.01-0.09,0-0.17,0-0.26c0-0.02,0.01-0.04,0.02-0.06c0-0.01,0.01-0.02,0.01-0.02c-0.01,0.02-0.03,0.05-0.04,0.07
				c0.02-0.02,0.03-0.05,0.04-0.07l0-0.01h0c0,0,0,0,0,0.01c0-0.01,0.01-0.02,0.01-0.02c0.04-0.05,0.08-0.11,0.12-0.16
				c0.02-0.03,0.04-0.05,0.06-0.08c0.01-0.01,0.01-0.02,0.02-0.02c0.2-0.2,0.4-0.42,0.58-0.64c0.1-0.12,0.2-0.23,0.3-0.35
				c0.07-0.09,0.15-0.17,0.22-0.26c0.03-0.04,0.05-0.07,0.08-0.11c0.01-0.01,0.02-0.03,0.04-0.05c0.09-0.1,0.18-0.2,0.27-0.3
				c0.13-0.13,0.25-0.25,0.37-0.38c0.09-0.1,0.18-0.21,0.27-0.31c0.13-0.13,0.25-0.27,0.36-0.41c0.01-0.01,0.01-0.02,0.02-0.03
				c0,0,0.01-0.01,0.01-0.01c0.31-0.37,0.36-0.44,0.42-0.52c0.18-0.19,0.34-0.38,0.5-0.58c0.32-0.38,0.6-0.8,0.85-1.24
				c0.04-0.05,0.08-0.1,0.11-0.15c0.01-0.01,0.02-0.02,0.03-0.03c0.06-0.07,0.09-0.12,0.16-0.21c0.02-0.03,0.04-0.06,0.06-0.09
				c0.05-0.07,0.11-0.14,0.16-0.21c0.17-0.18,0.33-0.38,0.47-0.58c0-0.01,0.01-0.01,0.01-0.02c0.02-0.03,0.05-0.06,0.07-0.09
				c0.13-0.15,0.26-0.3,0.37-0.46c0.18-0.21,0.25-0.32,0.31-0.4c0.06-0.05,0.11-0.1,0.17-0.14c0.19-0.14,0.37-0.29,0.55-0.44
				c0.27-0.21,0.5-0.45,0.73-0.69c0.09-0.07,0.17-0.14,0.25-0.21c0.21-0.17,0.31-0.22,0.58-0.48c-0.04,0.04-0.02,0.02,0.01,0
				c0.24-0.18,0.47-0.38,0.68-0.6h0c-0.02,0.02-0.04,0.04-0.04,0.04c0.01-0.01,0.03-0.03,0.04-0.04c0.07-0.05,0.14-0.11,0.21-0.16
				c0.12-0.09,0.24-0.19,0.34-0.3c0.26-0.26,0.44-0.42,0.65-0.58c0.22-0.17,0.62-0.49,0.99-0.28C55.9,78.84,55.58,79.01,55.32,79.18
				L55.32,79.18z"/>
			<path fill="#FFD15E" d="M44.77,90.72c0,0.01-0.01,0.02-0.01,0.02C44.8,90.68,44.79,90.69,44.77,90.72z"/>
			<path fill="#FFD15E" d="M56.36,95.9c-0.44-0.04-0.85-0.03-1.25-0.16c-0.34-0.06-0.62-0.29-0.97-0.28
				c-0.41,0.02-0.82-0.03-1.23-0.01c-0.24,0.01-0.48,0.08-0.72,0.1c-0.46,0.04-0.92,0.06-1.39,0.06c0.32,0.16,0.68,0.27,1.03,0.33
				c0.21,0.04,0.43,0.01,0.65,0.05c0.33,0.06,0.72,0.13,1.13,0.09c0.28-0.01,0.43,0.05,0.69,0.09c0.2,0.03,0.4,0.02,0.6,0.02
				c0.34,0,0.68-0.07,1.01-0.16c0.17-0.04,0.34-0.07,0.52-0.12C56.4,95.9,56.38,95.9,56.36,95.9z"/>
		</g>
	</g>
	<g>
		<defs>
			<rect id="SVGID_00000085212529444263312840000008323599643786369942_" x="82" width="28" height="19"/>
		</defs>
		<clipPath id="SVGID_00000059991943738211090560000004469357941232672443_">
			<use xlink:href="#SVGID_00000085212529444263312840000008323599643786369942_"  overflow="visible"/>
		</clipPath>
		<g clip-path="url(#SVGID_00000059991943738211090560000004469357941232672443_)">
			<path fill="#FFF694" d="M109.16,12.05c-0.89-1.04-2.67-3.1-3.62-4.09c-0.87-0.9-2.72-2.59-3.62-3.45
				c-1.36-1.3-4.78-4.59-6.06-4.51c-0.97,0.06-6.41,5.13-6.41,5.13l-5.58,6.55c0,0-2.66,2.54-1.63,3.69
				c0.88,0.98,2.14,1.79,4.59,2.63c3.34,1.14,8.59,1.19,12.46,0.76c4.65-0.52,9.16-1.44,10.52-4.59
				C110.25,13.13,109.89,12.9,109.16,12.05z"/>
			<path fill="#FFD15E" d="M84.77,12.72C84.77,12.72,84.78,12.72,84.77,12.72C84.78,12.72,84.78,12.72,84.77,12.72
				C84.77,12.72,84.77,12.72,84.77,12.72L84.77,12.72z"/>
			<path fill="#FFD15E" d="M95.32,1.18c-0.26,0.16-0.49,0.34-0.79,0.6c-0.02,0.02-0.04,0.04-0.06,0.06
				c-0.05,0.03-0.09,0.06-0.14,0.09c-0.01,0-0.01,0.01-0.02,0.01C94.19,2,94.08,2.09,93.98,2.19c-0.07,0.07-0.21,0.19-0.07,0.07
				c-0.21,0.18-0.3,0.2-0.57,0.42c-0.05,0.03-0.09,0.06-0.13,0.09c-0.02,0.01-0.04,0.03-0.06,0.04c-0.09,0.06-0.18,0.13-0.27,0.2
				c-0.18,0.12-0.35,0.26-0.51,0.41c-0.08,0.07-0.16,0.15-0.24,0.22c-0.06,0.05-0.13,0.1-0.19,0.15c-0.27,0.18-0.58,0.4-1,0.76
				c-0.64,0.59-0.63,0.62-1,1.06c-0.11,0.12-0.22,0.24-0.32,0.37c-0.3,0.31-0.33,0.38-0.48,0.56C88.9,6.77,88.69,7,88.5,7.27
				c-0.02,0.02-0.03,0.05-0.04,0.06c0,0-0.01,0.01-0.01,0.01c-0.01,0.01-0.02,0.02-0.03,0.04l0.02-0.02h0
				c-0.02,0.02-0.04,0.05-0.06,0.07c-0.05,0.06-0.09,0.12-0.14,0.18c-0.07,0.09-0.14,0.17-0.21,0.26c-0.09,0.1-0.17,0.21-0.25,0.32
				c-0.19,0.3-0.16,0.25-0.45,0.69c-0.05,0.05-0.09,0.11-0.14,0.16c-0.01,0.01-0.01,0.02-0.02,0.03c-0.2,0.2-0.39,0.42-0.56,0.65
				c-0.03,0.04-0.07,0.09-0.1,0.13c-0.1,0.11-0.2,0.23-0.29,0.35c-0.09,0.1-0.18,0.21-0.27,0.31c-0.15,0.15-0.31,0.31-0.45,0.48
				c-0.06,0.07-0.12,0.14-0.17,0.22c-0.31,0.33-0.32,0.38-0.5,0.62c-0.06,0.08-0.12,0.15-0.18,0.23c-0.01,0.01-0.02,0.03-0.04,0.05
				c-0.06,0.07-0.12,0.15-0.18,0.22c-0.01,0.01-0.01,0.01-0.02,0.02c-0.06,0.06-0.12,0.13-0.18,0.19c-0.12,0.14-0.24,0.28-0.34,0.43
				c-0.12,0.16-0.24,0.33-0.35,0.5c-0.07,0.09-0.13,0.18-0.17,0.29c0,0.01-0.01,0.02,0,0.02c-0.08,0.14-0.05,0.1-0.11,0.27
				c-0.05,0.14-0.01,0.29,0.02,0.43c0.02,0.04,0.03,0.09,0.06,0.12c0.03,0.03,0.03,0.08,0.04,0.11c0,0,0,0.01,0,0.01
				c0,0,0,0.01,0,0.01c0.01,0.19-0.01,0.39,0,0.58c0.06,0.27,0.05,0.26,0.1,0.57c0.05,0.11,0.18,0.11,0.28,0.13c0,0-0.01,0-0.01,0
				c0,0,0.01,0,0.01,0c0,0,0.01,0,0.01,0c0.05,0,0.01,0-0.01,0c0.01,0,0.02,0,0.03,0.01c0.22,0.05,0.36,0.25,0.58,0.31
				c0.26,0.06,0.52,0.05,0.78,0.01c0.03,0,0.06-0.01,0.09-0.01c0.01,0,0.03,0,0.05,0c0.05,0.01,0.08,0.05,0.13,0.07
				c0.09,0.03,0.17,0.06,0.25,0.09c0.25,0.07,0.48,0.21,0.72,0.31c0.18,0.07,0.38,0.11,0.56,0.19c0.22,0.09,0.46,0.1,0.69,0.15
				c0.22,0.06,0.43,0.15,0.66,0.19c0.4,0.09,0.81,0.14,1.22,0.09c-0.03,0-0.06-0.01-0.09-0.01c-0.35-0.06-0.67-0.24-0.98-0.41
				c-0.15-0.08-0.27-0.21-0.42-0.29c-0.14-0.08-0.29-0.13-0.43-0.21c-0.12-0.09-0.24-0.17-0.37-0.25c-0.28-0.17-0.48-0.44-0.77-0.6
				c-0.06-0.05-0.13-0.08-0.18-0.13c-0.03-0.04-0.07-0.08-0.13-0.09c-0.11-0.03-0.23-0.02-0.34-0.03c-0.09-0.02-0.18-0.04-0.27-0.07
				c-0.26-0.06-0.34-0.35-0.57-0.46c-0.09-0.04-0.2-0.06-0.24-0.16c0-0.01,0-0.03,0-0.04c0.03-0.22-0.02-0.45,0.01-0.67
				c0.03-0.25,0.11-0.51,0.04-0.77c0-0.02-0.01-0.04-0.02-0.06c0-0.02,0-0.05-0.01-0.07c0-0.01,0-0.01-0.01-0.02
				c-0.01-0.09,0-0.17,0-0.26c0-0.02,0.01-0.04,0.02-0.06c0-0.01,0.01-0.02,0.01-0.03c-0.01,0.02-0.03,0.05-0.04,0.07
				c0.02-0.02,0.03-0.05,0.04-0.07l0-0.01h0c0,0,0,0,0,0.01c0-0.01,0.01-0.02,0.01-0.02c0.04-0.05,0.08-0.11,0.12-0.16
				c0.02-0.03,0.04-0.05,0.06-0.08c0.01-0.01,0.01-0.02,0.02-0.02c0.2-0.2,0.4-0.42,0.58-0.64c0.1-0.12,0.2-0.23,0.3-0.35
				c0.07-0.09,0.15-0.17,0.22-0.26c0.03-0.04,0.05-0.07,0.08-0.11c0.01-0.01,0.02-0.03,0.04-0.05c0.09-0.1,0.18-0.2,0.27-0.3
				c0.13-0.13,0.25-0.25,0.37-0.38c0.09-0.1,0.18-0.21,0.27-0.31c0.13-0.13,0.25-0.27,0.36-0.41c0.01-0.01,0.01-0.02,0.02-0.03
				c0,0,0.01-0.01,0.01-0.01c0.31-0.37,0.36-0.44,0.42-0.52c0.18-0.19,0.34-0.38,0.5-0.58c0.32-0.38,0.6-0.8,0.85-1.24
				c0.04-0.05,0.08-0.1,0.11-0.15c0.01-0.01,0.02-0.02,0.03-0.03c0.06-0.07,0.09-0.12,0.16-0.21c0.02-0.03,0.04-0.06,0.06-0.09
				c0.05-0.07,0.11-0.14,0.16-0.21c0.17-0.18,0.33-0.38,0.47-0.58c0-0.01,0.01-0.01,0.01-0.02c0.02-0.03,0.05-0.06,0.07-0.09
				c0.13-0.15,0.26-0.3,0.37-0.46c0.18-0.21,0.25-0.32,0.31-0.4c0.06-0.05,0.11-0.1,0.17-0.14c0.19-0.14,0.37-0.29,0.55-0.44
				c0.27-0.21,0.5-0.45,0.73-0.69c0.09-0.07,0.17-0.14,0.25-0.21c0.21-0.17,0.31-0.22,0.58-0.48c-0.04,0.04-0.02,0.02,0.01,0
				c0.24-0.18,0.47-0.38,0.68-0.6h0c-0.02,0.02-0.04,0.04-0.04,0.04c0.01-0.01,0.03-0.03,0.04-0.04c0.07-0.05,0.14-0.11,0.21-0.16
				c0.12-0.09,0.24-0.19,0.34-0.3c0.26-0.26,0.44-0.42,0.65-0.58c0.22-0.17,0.62-0.49,0.99-0.28C95.9,0.84,95.58,1.01,95.32,1.18
				L95.32,1.18z"/>
			<path fill="#FFD15E" d="M84.77,12.72c0,0.01-0.01,0.02-0.01,0.02C84.8,12.68,84.79,12.69,84.77,12.72z"/>
			<path fill="#FFD15E" d="M96.36,17.9c-0.44-0.04-0.85-0.03-1.25-0.16c-0.34-0.06-0.62-0.29-0.97-0.28
				c-0.41,0.02-0.82-0.02-1.23-0.01c-0.24,0.01-0.48,0.08-0.72,0.1c-0.46,0.04-0.92,0.06-1.39,0.06c0.32,0.16,0.68,0.27,1.03,0.33
				c0.21,0.04,0.43,0.01,0.65,0.05c0.33,0.06,0.72,0.13,1.13,0.09c0.28-0.01,0.43,0.05,0.69,0.09c0.2,0.03,0.4,0.02,0.6,0.02
				c0.34,0,0.68-0.07,1.01-0.16c0.17-0.04,0.34-0.07,0.52-0.12C96.4,17.9,96.38,17.9,96.36,17.9z"/>
		</g>
	</g>
	<g>
		<defs>
			<rect id="SVGID_00000173146081506508085830000014310970624775739286_" y="52" width="28" height="19"/>
		</defs>
		<clipPath id="SVGID_00000029762571675405523880000014275069431977032090_">
			<use xlink:href="#SVGID_00000173146081506508085830000014310970624775739286_"  overflow="visible"/>
		</clipPath>
		<g clip-path="url(#SVGID_00000029762571675405523880000014275069431977032090_)">
			<path fill="#FFF694" d="M27.16,64.05c-0.89-1.04-2.67-3.1-3.62-4.09c-0.87-0.9-2.72-2.59-3.62-3.45
				c-1.36-1.3-4.78-4.59-6.06-4.51c-0.97,0.06-6.41,5.13-6.41,5.13l-5.58,6.55c0,0-2.66,2.54-1.63,3.69
				c0.88,0.98,2.14,1.79,4.59,2.63c3.34,1.14,8.59,1.19,12.46,0.76c4.65-0.52,9.16-1.44,10.52-4.59
				C28.25,65.13,27.89,64.9,27.16,64.05z"/>
			<path fill="#FFD15E" d="M2.77,64.72C2.77,64.72,2.78,64.72,2.77,64.72C2.78,64.72,2.78,64.72,2.77,64.72
				C2.77,64.72,2.77,64.72,2.77,64.72L2.77,64.72z"/>
			<path fill="#FFD15E" d="M13.32,53.18c-0.26,0.16-0.49,0.34-0.79,0.6c-0.02,0.02-0.04,0.04-0.06,0.06
				c-0.05,0.03-0.09,0.06-0.14,0.09c-0.01,0-0.01,0.01-0.02,0.01c-0.13,0.07-0.23,0.16-0.34,0.25c-0.07,0.07-0.21,0.19-0.07,0.07
				c-0.21,0.18-0.3,0.2-0.57,0.42c-0.05,0.03-0.09,0.06-0.13,0.09c-0.02,0.01-0.04,0.03-0.06,0.04c-0.09,0.06-0.18,0.13-0.27,0.2
				c-0.18,0.12-0.35,0.26-0.51,0.41c-0.08,0.07-0.16,0.15-0.24,0.22c-0.06,0.05-0.13,0.1-0.19,0.15c-0.27,0.18-0.58,0.4-1,0.76
				c-0.64,0.59-0.63,0.62-1,1.06c-0.11,0.12-0.22,0.24-0.32,0.37c-0.3,0.31-0.33,0.38-0.48,0.56C6.9,58.77,6.69,59,6.5,59.27
				c-0.02,0.03-0.03,0.05-0.04,0.06c0,0-0.01,0.01-0.01,0.01c-0.01,0.01-0.02,0.02-0.03,0.04l0.02-0.02h0
				c-0.02,0.02-0.04,0.05-0.06,0.07c-0.05,0.06-0.09,0.12-0.14,0.18c-0.07,0.09-0.14,0.17-0.21,0.26c-0.09,0.1-0.17,0.21-0.25,0.32
				c-0.19,0.3-0.16,0.25-0.45,0.69c-0.05,0.05-0.09,0.11-0.14,0.16c-0.01,0.01-0.01,0.02-0.02,0.03c-0.2,0.2-0.39,0.42-0.56,0.65
				c-0.03,0.04-0.07,0.09-0.1,0.13c-0.1,0.11-0.2,0.23-0.29,0.35c-0.09,0.1-0.18,0.21-0.27,0.31c-0.15,0.15-0.31,0.31-0.45,0.48
				c-0.06,0.07-0.12,0.14-0.17,0.22c-0.31,0.33-0.32,0.38-0.5,0.62c-0.06,0.08-0.12,0.15-0.18,0.23c-0.01,0.01-0.02,0.03-0.04,0.05
				c-0.06,0.07-0.12,0.15-0.18,0.22c-0.01,0.01-0.01,0.01-0.02,0.02c-0.06,0.06-0.12,0.13-0.18,0.19C2.12,64.67,2,64.81,1.9,64.96
				c-0.12,0.16-0.24,0.33-0.35,0.5c-0.07,0.09-0.13,0.18-0.17,0.29c0,0.01-0.01,0.02,0,0.02c-0.08,0.14-0.05,0.1-0.11,0.27
				c-0.05,0.14-0.01,0.29,0.02,0.43c0.02,0.04,0.03,0.09,0.06,0.12c0.03,0.03,0.03,0.08,0.04,0.11c0,0,0,0.01,0,0.01
				c0,0,0,0.01,0,0.01c0.01,0.19-0.01,0.39,0,0.58c0.06,0.27,0.05,0.26,0.1,0.57c0.05,0.11,0.18,0.11,0.28,0.13c0,0-0.01,0-0.01,0
				c0,0,0.01,0,0.01,0c0,0,0.01,0,0.01,0c0.05,0,0.01,0-0.01,0C1.78,68,1.79,68,1.8,68c0.22,0.05,0.36,0.25,0.58,0.31
				c0.26,0.06,0.52,0.05,0.78,0.01c0.03,0,0.06-0.01,0.09-0.01c0.01,0,0.03,0,0.05,0c0.05,0.01,0.08,0.05,0.13,0.07
				c0.09,0.03,0.17,0.06,0.25,0.09c0.25,0.07,0.48,0.21,0.72,0.31c0.18,0.07,0.38,0.11,0.56,0.19c0.22,0.09,0.46,0.1,0.69,0.15
				c0.22,0.06,0.43,0.15,0.66,0.19c0.4,0.09,0.81,0.14,1.22,0.09c-0.03,0-0.06-0.01-0.09-0.01c-0.35-0.06-0.67-0.24-0.98-0.41
				c-0.15-0.08-0.27-0.21-0.42-0.29c-0.14-0.08-0.29-0.13-0.43-0.21c-0.12-0.09-0.24-0.17-0.37-0.25c-0.28-0.17-0.48-0.44-0.77-0.6
				c-0.06-0.05-0.13-0.08-0.18-0.13c-0.03-0.04-0.07-0.08-0.13-0.09c-0.11-0.03-0.23-0.02-0.34-0.03c-0.09-0.02-0.18-0.04-0.27-0.07
				c-0.26-0.06-0.34-0.35-0.57-0.46c-0.09-0.04-0.2-0.06-0.24-0.16c0-0.01,0-0.03,0-0.04c0.03-0.22-0.02-0.45,0.01-0.67
				c0.03-0.25,0.11-0.51,0.04-0.77c0-0.02-0.01-0.04-0.02-0.06c0-0.02,0-0.05-0.01-0.07c0-0.01,0-0.01-0.01-0.02
				c-0.01-0.09,0-0.17,0-0.26c0-0.02,0.01-0.04,0.02-0.06c0-0.01,0.01-0.02,0.01-0.02c-0.01,0.02-0.03,0.05-0.04,0.07
				c0.02-0.02,0.03-0.05,0.04-0.07l0-0.01h0c0,0,0,0,0,0.01c0-0.01,0.01-0.02,0.01-0.02c0.04-0.05,0.08-0.11,0.12-0.16
				c0.02-0.03,0.04-0.05,0.06-0.08c0.01-0.01,0.01-0.02,0.02-0.02c0.2-0.2,0.4-0.42,0.58-0.64c0.1-0.12,0.2-0.23,0.3-0.35
				c0.07-0.09,0.15-0.17,0.22-0.26c0.03-0.04,0.05-0.07,0.08-0.11c0.01-0.01,0.02-0.03,0.04-0.05c0.09-0.1,0.18-0.2,0.27-0.3
				c0.13-0.13,0.25-0.25,0.37-0.38c0.09-0.1,0.18-0.21,0.27-0.31c0.13-0.13,0.25-0.27,0.36-0.41c0.01-0.01,0.01-0.02,0.02-0.03
				c0,0,0.01-0.01,0.01-0.01c0.31-0.37,0.36-0.44,0.42-0.52c0.18-0.19,0.34-0.38,0.5-0.58c0.32-0.38,0.6-0.8,0.85-1.24
				c0.04-0.05,0.08-0.1,0.11-0.15c0.01-0.01,0.02-0.02,0.03-0.03c0.06-0.07,0.09-0.12,0.16-0.21c0.02-0.03,0.04-0.06,0.06-0.09
				c0.05-0.07,0.11-0.14,0.16-0.21c0.17-0.18,0.33-0.38,0.47-0.58c0-0.01,0.01-0.01,0.01-0.02c0.02-0.03,0.05-0.06,0.07-0.09
				c0.13-0.15,0.26-0.3,0.37-0.46c0.18-0.21,0.25-0.32,0.31-0.4c0.06-0.05,0.11-0.1,0.17-0.14c0.19-0.14,0.37-0.29,0.55-0.44
				c0.27-0.21,0.5-0.45,0.73-0.69c0.09-0.07,0.17-0.14,0.25-0.21c0.21-0.17,0.31-0.22,0.58-0.48c-0.04,0.04-0.02,0.02,0.01,0
				c0.24-0.18,0.47-0.38,0.68-0.6h0c-0.02,0.02-0.04,0.04-0.04,0.04c0.01-0.01,0.03-0.03,0.04-0.04c0.07-0.05,0.14-0.11,0.21-0.16
				c0.12-0.09,0.24-0.19,0.34-0.3c0.26-0.26,0.44-0.42,0.65-0.58c0.22-0.17,0.62-0.49,0.99-0.28C13.9,52.84,13.58,53.01,13.32,53.18
				L13.32,53.18z"/>
			<path fill="#FFD15E" d="M2.77,64.72c0,0.01-0.01,0.02-0.01,0.02C2.8,64.68,2.79,64.69,2.77,64.72z"/>
			<path fill="#FFD15E" d="M14.36,69.9c-0.44-0.04-0.85-0.03-1.25-0.16c-0.34-0.06-0.62-0.29-0.97-0.28
				c-0.41,0.02-0.82-0.03-1.23-0.01c-0.24,0.01-0.48,0.08-0.72,0.1c-0.46,0.04-0.92,0.06-1.39,0.06c0.32,0.16,0.68,0.27,1.03,0.33
				c0.21,0.04,0.43,0.01,0.65,0.05c0.33,0.06,0.72,0.13,1.13,0.09c0.28-0.01,0.43,0.05,0.69,0.09c0.2,0.03,0.4,0.02,0.6,0.02
				c0.34,0,0.68-0.07,1.01-0.16c0.17-0.04,0.34-0.07,0.52-0.12C14.4,69.9,14.38,69.9,14.36,69.9z"/>
		</g>
	</g>
	<g>
		<defs>
			<rect id="SVGID_00000031902316021681730280000018198624963530387331_" x="41" y="52" width="28" height="19"/>
		</defs>
		<clipPath id="SVGID_00000088840645764635394500000002581581439050187397_">
			<use xlink:href="#SVGID_00000031902316021681730280000018198624963530387331_"  overflow="visible"/>
		</clipPath>
		<g clip-path="url(#SVGID_00000088840645764635394500000002581581439050187397_)">
			<path fill="#FFF694" d="M68.16,64.05c-0.89-1.04-2.67-3.1-3.62-4.09c-0.87-0.9-2.72-2.59-3.62-3.45
				c-1.36-1.3-4.78-4.59-6.06-4.51c-0.97,0.06-6.41,5.13-6.41,5.13l-5.58,6.55c0,0-2.66,2.54-1.63,3.69
				c0.88,0.98,2.14,1.79,4.59,2.63c3.34,1.14,8.59,1.19,12.46,0.76c4.65-0.52,9.16-1.44,10.52-4.59
				C69.25,65.13,68.89,64.9,68.16,64.05z"/>
			<path fill="#FFD15E" d="M43.77,64.72C43.77,64.72,43.78,64.72,43.77,64.72C43.78,64.72,43.78,64.72,43.77,64.72
				C43.77,64.72,43.77,64.72,43.77,64.72L43.77,64.72z"/>
			<path fill="#FFD15E" d="M54.32,53.18c-0.26,0.16-0.49,0.34-0.79,0.6c-0.02,0.02-0.04,0.04-0.06,0.06
				c-0.05,0.03-0.09,0.06-0.14,0.09c-0.01,0-0.01,0.01-0.02,0.01c-0.13,0.07-0.23,0.16-0.34,0.25c-0.07,0.07-0.21,0.19-0.07,0.07
				c-0.21,0.18-0.3,0.2-0.57,0.42c-0.05,0.03-0.09,0.06-0.13,0.09c-0.02,0.01-0.04,0.03-0.06,0.04c-0.09,0.06-0.18,0.13-0.27,0.2
				c-0.18,0.12-0.35,0.26-0.51,0.41c-0.08,0.07-0.16,0.15-0.24,0.22c-0.06,0.05-0.13,0.1-0.19,0.15c-0.27,0.18-0.58,0.4-1,0.76
				c-0.64,0.59-0.63,0.62-1,1.06c-0.11,0.12-0.22,0.24-0.32,0.37c-0.3,0.31-0.33,0.38-0.48,0.56c-0.23,0.22-0.45,0.46-0.63,0.72
				c-0.02,0.03-0.03,0.05-0.04,0.06c0,0-0.01,0.01-0.01,0.01c-0.01,0.01-0.02,0.02-0.03,0.04l0.02-0.02h0
				c-0.02,0.02-0.04,0.05-0.06,0.07c-0.05,0.06-0.09,0.12-0.14,0.18c-0.07,0.09-0.14,0.17-0.21,0.26c-0.09,0.1-0.17,0.21-0.25,0.32
				c-0.19,0.3-0.16,0.25-0.45,0.69c-0.05,0.05-0.09,0.11-0.14,0.16c-0.01,0.01-0.01,0.02-0.02,0.03c-0.2,0.2-0.39,0.42-0.56,0.65
				c-0.03,0.04-0.07,0.09-0.1,0.13c-0.1,0.11-0.2,0.23-0.29,0.35c-0.09,0.1-0.18,0.21-0.27,0.31c-0.15,0.15-0.31,0.31-0.45,0.48
				c-0.06,0.07-0.12,0.14-0.17,0.22c-0.31,0.33-0.32,0.38-0.5,0.62c-0.06,0.08-0.12,0.15-0.18,0.23c-0.01,0.01-0.02,0.03-0.04,0.05
				c-0.06,0.07-0.12,0.15-0.18,0.22c-0.01,0.01-0.01,0.01-0.02,0.02c-0.06,0.06-0.12,0.13-0.18,0.19c-0.12,0.14-0.24,0.28-0.34,0.43
				c-0.12,0.16-0.24,0.33-0.35,0.5c-0.07,0.09-0.13,0.18-0.17,0.29c0,0.01-0.01,0.02,0,0.02c-0.08,0.14-0.05,0.1-0.11,0.27
				c-0.05,0.14-0.01,0.29,0.02,0.43c0.02,0.04,0.03,0.09,0.06,0.12c0.03,0.03,0.03,0.08,0.04,0.11c0,0,0,0.01,0,0.01
				c0,0,0,0.01,0,0.01c0.01,0.19-0.01,0.39,0,0.58c0.06,0.27,0.05,0.26,0.1,0.57c0.05,0.11,0.18,0.11,0.28,0.13c0,0-0.01,0-0.01,0
				c0,0,0.01,0,0.01,0c0,0,0.01,0,0.01,0c0.05,0,0.01,0-0.01,0c0.01,0,0.02,0,0.03,0.01c0.22,0.05,0.36,0.25,0.58,0.31
				c0.26,0.06,0.52,0.05,0.78,0.01c0.03,0,0.06-0.01,0.09-0.01c0.01,0,0.03,0,0.05,0c0.05,0.01,0.08,0.05,0.13,0.07
				c0.09,0.03,0.17,0.06,0.25,0.09c0.25,0.07,0.48,0.21,0.72,0.31c0.18,0.07,0.38,0.11,0.56,0.19c0.22,0.09,0.46,0.1,0.69,0.15
				c0.22,0.06,0.43,0.15,0.66,0.19c0.4,0.09,0.81,0.14,1.22,0.09c-0.03,0-0.06-0.01-0.09-0.01c-0.35-0.06-0.67-0.24-0.98-0.41
				c-0.15-0.08-0.27-0.21-0.42-0.29c-0.14-0.08-0.29-0.13-0.43-0.21c-0.12-0.09-0.24-0.17-0.37-0.25c-0.28-0.17-0.48-0.44-0.77-0.6
				c-0.06-0.05-0.13-0.08-0.18-0.13c-0.03-0.04-0.07-0.08-0.13-0.09c-0.11-0.03-0.23-0.02-0.34-0.03c-0.09-0.02-0.18-0.04-0.27-0.07
				c-0.26-0.06-0.34-0.35-0.57-0.46c-0.09-0.04-0.2-0.06-0.24-0.16c0-0.01,0-0.03,0-0.04c0.03-0.22-0.02-0.45,0.01-0.67
				c0.03-0.25,0.11-0.51,0.04-0.77c0-0.02-0.01-0.04-0.02-0.06c0-0.02,0-0.05-0.01-0.07c0-0.01,0-0.01-0.01-0.02
				c-0.01-0.09,0-0.17,0-0.26c0-0.02,0.01-0.04,0.02-0.06c0-0.01,0.01-0.02,0.01-0.02c-0.01,0.02-0.03,0.05-0.04,0.07
				c0.02-0.02,0.03-0.05,0.04-0.07l0-0.01h0c0,0,0,0,0,0.01c0-0.01,0.01-0.02,0.01-0.02c0.04-0.05,0.08-0.11,0.12-0.16
				c0.02-0.03,0.04-0.05,0.06-0.08c0.01-0.01,0.01-0.02,0.02-0.02c0.2-0.2,0.4-0.42,0.58-0.64c0.1-0.12,0.2-0.23,0.3-0.35
				c0.07-0.09,0.15-0.17,0.22-0.26c0.03-0.04,0.05-0.07,0.08-0.11c0.01-0.01,0.02-0.03,0.04-0.05c0.09-0.1,0.18-0.2,0.27-0.3
				c0.13-0.13,0.25-0.25,0.37-0.38c0.09-0.1,0.18-0.21,0.27-0.31c0.13-0.13,0.25-0.27,0.36-0.41c0.01-0.01,0.01-0.02,0.02-0.03
				c0,0,0.01-0.01,0.01-0.01c0.31-0.37,0.36-0.44,0.42-0.52c0.18-0.19,0.34-0.38,0.5-0.58c0.32-0.38,0.6-0.8,0.85-1.24
				c0.04-0.05,0.08-0.1,0.11-0.15c0.01-0.01,0.02-0.02,0.03-0.03c0.06-0.07,0.09-0.12,0.16-0.21c0.02-0.03,0.04-0.06,0.06-0.09
				c0.05-0.07,0.11-0.14,0.16-0.21c0.17-0.18,0.33-0.38,0.47-0.58c0-0.01,0.01-0.01,0.01-0.02c0.02-0.03,0.05-0.06,0.07-0.09
				c0.13-0.15,0.26-0.3,0.37-0.46c0.18-0.21,0.25-0.32,0.31-0.4c0.06-0.05,0.11-0.1,0.17-0.14c0.19-0.14,0.37-0.29,0.55-0.44
				c0.27-0.21,0.5-0.45,0.73-0.69c0.09-0.07,0.17-0.14,0.25-0.21c0.21-0.17,0.31-0.22,0.58-0.48c-0.04,0.04-0.02,0.02,0.01,0
				c0.24-0.18,0.47-0.38,0.68-0.6h0c-0.02,0.02-0.04,0.04-0.04,0.04c0.01-0.01,0.03-0.03,0.04-0.04c0.07-0.05,0.14-0.11,0.21-0.16
				c0.12-0.09,0.24-0.19,0.34-0.3c0.26-0.26,0.44-0.42,0.65-0.58c0.22-0.17,0.62-0.49,0.99-0.28C54.9,52.84,54.58,53.01,54.32,53.18
				L54.32,53.18z"/>
			<path fill="#FFD15E" d="M43.77,64.72c0,0.01-0.01,0.02-0.01,0.02C43.8,64.68,43.79,64.69,43.77,64.72z"/>
			<path fill="#FFD15E" d="M55.36,69.9c-0.44-0.04-0.85-0.03-1.25-0.16c-0.34-0.06-0.62-0.29-0.97-0.28
				c-0.41,0.02-0.82-0.03-1.23-0.01c-0.24,0.01-0.48,0.08-0.72,0.1c-0.46,0.04-0.92,0.06-1.39,0.06c0.32,0.16,0.68,0.27,1.03,0.33
				c0.21,0.04,0.43,0.01,0.65,0.05c0.33,0.06,0.72,0.13,1.13,0.09c0.28-0.01,0.43,0.05,0.69,0.09c0.2,0.03,0.4,0.02,0.6,0.02
				c0.34,0,0.68-0.07,1.01-0.16c0.17-0.04,0.34-0.07,0.52-0.12C55.4,69.9,55.38,69.9,55.36,69.9z"/>
		</g>
	</g>
	<g>
		<defs>
			<rect id="SVGID_00000024686736823735394950000002145893866871632028_" x="82" y="52" width="28" height="19"/>
		</defs>
		<clipPath id="SVGID_00000150093008605046719330000005935536163788840585_">
			<use xlink:href="#SVGID_00000024686736823735394950000002145893866871632028_"  overflow="visible"/>
		</clipPath>
		<g clip-path="url(#SVGID_00000150093008605046719330000005935536163788840585_)">
			<path fill="#FFF694" d="M109.16,64.05c-0.89-1.04-2.67-3.1-3.62-4.09c-0.87-0.9-2.72-2.59-3.62-3.45
				c-1.36-1.3-4.78-4.59-6.06-4.51c-0.97,0.06-6.41,5.13-6.41,5.13l-5.58,6.55c0,0-2.66,2.54-1.63,3.69
				c0.88,0.98,2.14,1.79,4.59,2.63c3.34,1.14,8.59,1.19,12.46,0.76c4.65-0.52,9.16-1.44,10.52-4.59
				C110.25,65.13,109.89,64.9,109.16,64.05z"/>
			<path fill="#FFD15E" d="M84.77,64.72C84.77,64.72,84.78,64.72,84.77,64.72C84.78,64.72,84.78,64.72,84.77,64.72
				C84.77,64.72,84.77,64.72,84.77,64.72L84.77,64.72z"/>
			<path fill="#FFD15E" d="M95.32,53.18c-0.26,0.16-0.49,0.34-0.79,0.6c-0.02,0.02-0.04,0.04-0.06,0.06
				c-0.05,0.03-0.09,0.06-0.14,0.09c-0.01,0-0.01,0.01-0.02,0.01c-0.13,0.07-0.23,0.16-0.34,0.25c-0.07,0.07-0.21,0.19-0.07,0.07
				c-0.21,0.18-0.3,0.2-0.57,0.42c-0.05,0.03-0.09,0.06-0.13,0.09c-0.02,0.01-0.04,0.03-0.06,0.04c-0.09,0.06-0.18,0.13-0.27,0.2
				c-0.18,0.12-0.35,0.26-0.51,0.41c-0.08,0.07-0.16,0.15-0.24,0.22c-0.06,0.05-0.13,0.1-0.19,0.15c-0.27,0.18-0.58,0.4-1,0.76
				c-0.64,0.59-0.63,0.62-1,1.06c-0.11,0.12-0.22,0.24-0.32,0.37c-0.3,0.31-0.33,0.38-0.48,0.56c-0.23,0.22-0.45,0.46-0.63,0.72
				c-0.02,0.03-0.03,0.05-0.04,0.06c0,0-0.01,0.01-0.01,0.01c-0.01,0.01-0.02,0.02-0.03,0.04l0.02-0.02h0
				c-0.02,0.02-0.04,0.05-0.06,0.07c-0.05,0.06-0.09,0.12-0.14,0.18c-0.07,0.09-0.14,0.17-0.21,0.26c-0.09,0.1-0.17,0.21-0.25,0.32
				c-0.19,0.3-0.16,0.25-0.45,0.69c-0.05,0.05-0.09,0.11-0.14,0.16c-0.01,0.01-0.01,0.02-0.02,0.03c-0.2,0.2-0.39,0.42-0.56,0.65
				c-0.03,0.04-0.07,0.09-0.1,0.13c-0.1,0.11-0.2,0.23-0.29,0.35c-0.09,0.1-0.18,0.21-0.27,0.31c-0.15,0.15-0.31,0.31-0.45,0.48
				c-0.06,0.07-0.12,0.14-0.17,0.22c-0.31,0.33-0.32,0.38-0.5,0.62c-0.06,0.08-0.12,0.15-0.18,0.23c-0.01,0.01-0.02,0.03-0.04,0.05
				c-0.06,0.07-0.12,0.15-0.18,0.22c-0.01,0.01-0.01,0.01-0.02,0.02c-0.06,0.06-0.12,0.13-0.18,0.19c-0.12,0.14-0.24,0.28-0.34,0.43
				c-0.12,0.16-0.24,0.33-0.35,0.5c-0.07,0.09-0.13,0.18-0.17,0.29c0,0.01-0.01,0.02,0,0.02c-0.08,0.14-0.05,0.1-0.11,0.27
				c-0.05,0.14-0.01,0.29,0.02,0.43c0.02,0.04,0.03,0.09,0.06,0.12c0.03,0.03,0.03,0.08,0.04,0.11c0,0,0,0.01,0,0.01
				c0,0,0,0.01,0,0.01c0.01,0.19-0.01,0.39,0,0.58c0.06,0.27,0.05,0.26,0.1,0.57c0.05,0.11,0.18,0.11,0.28,0.13c0,0-0.01,0-0.01,0
				c0,0,0.01,0,0.01,0c0,0,0.01,0,0.01,0c0.05,0,0.01,0-0.01,0c0.01,0,0.02,0,0.03,0.01c0.22,0.05,0.36,0.25,0.58,0.31
				c0.26,0.06,0.52,0.05,0.78,0.01c0.03,0,0.06-0.01,0.09-0.01c0.01,0,0.03,0,0.05,0c0.05,0.01,0.08,0.05,0.13,0.07
				c0.09,0.03,0.17,0.06,0.25,0.09c0.25,0.07,0.48,0.21,0.72,0.31c0.18,0.07,0.38,0.11,0.56,0.19c0.22,0.09,0.46,0.1,0.69,0.15
				c0.22,0.06,0.43,0.15,0.66,0.19c0.4,0.09,0.81,0.14,1.22,0.09c-0.03,0-0.06-0.01-0.09-0.01c-0.35-0.06-0.67-0.24-0.98-0.41
				c-0.15-0.08-0.27-0.21-0.42-0.29c-0.14-0.08-0.29-0.13-0.43-0.21c-0.12-0.09-0.24-0.17-0.37-0.25c-0.28-0.17-0.48-0.44-0.77-0.6
				c-0.06-0.05-0.13-0.08-0.18-0.13c-0.03-0.04-0.07-0.08-0.13-0.09c-0.11-0.03-0.23-0.02-0.34-0.03c-0.09-0.02-0.18-0.04-0.27-0.07
				c-0.26-0.06-0.34-0.35-0.57-0.46c-0.09-0.04-0.2-0.06-0.24-0.16c0-0.01,0-0.03,0-0.04c0.03-0.22-0.02-0.45,0.01-0.67
				c0.03-0.25,0.11-0.51,0.04-0.77c0-0.02-0.01-0.04-0.02-0.06c0-0.02,0-0.05-0.01-0.07c0-0.01,0-0.01-0.01-0.02
				c-0.01-0.09,0-0.17,0-0.26c0-0.02,0.01-0.04,0.02-0.06c0-0.01,0.01-0.02,0.01-0.02c-0.01,0.02-0.03,0.05-0.04,0.07
				c0.02-0.02,0.03-0.05,0.04-0.07l0-0.01h0c0,0,0,0,0,0.01c0-0.01,0.01-0.02,0.01-0.02c0.04-0.05,0.08-0.11,0.12-0.16
				c0.02-0.03,0.04-0.05,0.06-0.08c0.01-0.01,0.01-0.02,0.02-0.02c0.2-0.2,0.4-0.42,0.58-0.64c0.1-0.12,0.2-0.23,0.3-0.35
				c0.07-0.09,0.15-0.17,0.22-0.26c0.03-0.04,0.05-0.07,0.08-0.11c0.01-0.01,0.02-0.03,0.04-0.05c0.09-0.1,0.18-0.2,0.27-0.3
				c0.13-0.13,0.25-0.25,0.37-0.38c0.09-0.1,0.18-0.21,0.27-0.31c0.13-0.13,0.25-0.27,0.36-0.41c0.01-0.01,0.01-0.02,0.02-0.03
				c0,0,0.01-0.01,0.01-0.01c0.31-0.37,0.36-0.44,0.42-0.52c0.18-0.19,0.34-0.38,0.5-0.58c0.32-0.38,0.6-0.8,0.85-1.24
				c0.04-0.05,0.08-0.1,0.11-0.15c0.01-0.01,0.02-0.02,0.03-0.03c0.06-0.07,0.09-0.12,0.16-0.21c0.02-0.03,0.04-0.06,0.06-0.09
				c0.05-0.07,0.11-0.14,0.16-0.21c0.17-0.18,0.33-0.38,0.47-0.58c0-0.01,0.01-0.01,0.01-0.02c0.02-0.03,0.05-0.06,0.07-0.09
				c0.13-0.15,0.26-0.3,0.37-0.46c0.18-0.21,0.25-0.32,0.31-0.4c0.06-0.05,0.11-0.1,0.17-0.14c0.19-0.14,0.37-0.29,0.55-0.44
				c0.27-0.21,0.5-0.45,0.73-0.69c0.09-0.07,0.17-0.14,0.25-0.21c0.21-0.17,0.31-0.22,0.58-0.48c-0.04,0.04-0.02,0.02,0.01,0
				c0.24-0.18,0.47-0.38,0.68-0.6h0c-0.02,0.02-0.04,0.04-0.04,0.04c0.01-0.01,0.03-0.03,0.04-0.04c0.07-0.05,0.14-0.11,0.21-0.16
				c0.12-0.09,0.24-0.19,0.34-0.3c0.26-0.26,0.44-0.42,0.65-0.58c0.22-0.17,0.62-0.49,0.99-0.28C95.9,52.84,95.58,53.01,95.32,53.18
				L95.32,53.18z"/>
			<path fill="#FFD15E" d="M84.77,64.72c0,0.01-0.01,0.02-0.01,0.02C84.8,64.68,84.79,64.69,84.77,64.72z"/>
			<path fill="#FFD15E" d="M96.36,69.9c-0.44-0.04-0.85-0.03-1.25-0.16c-0.34-0.06-0.62-0.29-0.97-0.28
				c-0.41,0.02-0.82-0.03-1.23-0.01c-0.24,0.01-0.48,0.08-0.72,0.1c-0.46,0.04-0.92,0.06-1.39,0.06c0.32,0.16,0.68,0.27,1.03,0.33
				c0.21,0.04,0.43,0.01,0.65,0.05c0.33,0.06,0.72,0.13,1.13,0.09c0.28-0.01,0.43,0.05,0.69,0.09c0.2,0.03,0.4,0.02,0.6,0.02
				c0.34,0,0.68-0.07,1.01-0.16c0.17-0.04,0.34-0.07,0.52-0.12C96.4,69.9,96.38,69.9,96.36,69.9z"/>
		</g>
	</g>
	<g>
		<defs>
			<rect id="SVGID_00000158017986672706449090000012253151942799480474_" y="26" width="28" height="19"/>
		</defs>
		<clipPath id="SVGID_00000011748098391086082140000012506457993691378326_">
			<use xlink:href="#SVGID_00000158017986672706449090000012253151942799480474_"  overflow="visible"/>
		</clipPath>
		<g clip-path="url(#SVGID_00000011748098391086082140000012506457993691378326_)">
			<path fill="#FFF694" d="M27.16,38.05c-0.89-1.04-2.67-3.1-3.62-4.09c-0.87-0.9-2.72-2.59-3.62-3.45
				c-1.36-1.3-4.78-4.59-6.06-4.51c-0.97,0.06-6.41,5.13-6.41,5.13l-5.58,6.55c0,0-2.66,2.54-1.63,3.69
				c0.88,0.98,2.14,1.79,4.59,2.63c3.34,1.14,8.59,1.19,12.46,0.76c4.65-0.52,9.16-1.44,10.52-4.59
				C28.25,39.13,27.89,38.9,27.16,38.05z"/>
			<path fill="#FFD15E" d="M2.77,38.72C2.77,38.72,2.78,38.72,2.77,38.72C2.78,38.72,2.78,38.72,2.77,38.72
				C2.77,38.72,2.77,38.72,2.77,38.72L2.77,38.72z"/>
			<path fill="#FFD15E" d="M13.32,27.18c-0.26,0.16-0.49,0.34-0.79,0.6c-0.02,0.02-0.04,0.04-0.06,0.06
				c-0.05,0.03-0.09,0.06-0.14,0.09c-0.01,0-0.01,0.01-0.02,0.01c-0.13,0.07-0.23,0.16-0.34,0.25c-0.07,0.07-0.21,0.19-0.07,0.07
				c-0.21,0.18-0.3,0.2-0.57,0.42c-0.05,0.03-0.09,0.06-0.13,0.09c-0.02,0.01-0.04,0.03-0.06,0.04c-0.09,0.06-0.18,0.13-0.27,0.2
				c-0.18,0.12-0.35,0.26-0.51,0.41c-0.08,0.07-0.16,0.15-0.24,0.22c-0.06,0.05-0.13,0.1-0.19,0.15c-0.27,0.18-0.58,0.4-1,0.76
				c-0.64,0.59-0.63,0.62-1,1.06c-0.11,0.12-0.22,0.24-0.32,0.37c-0.3,0.31-0.33,0.38-0.48,0.56C6.9,32.77,6.69,33,6.5,33.27
				c-0.02,0.03-0.03,0.05-0.04,0.06c0,0-0.01,0.01-0.01,0.01c-0.01,0.01-0.02,0.02-0.03,0.04l0.02-0.02h0
				c-0.02,0.02-0.04,0.05-0.06,0.07c-0.05,0.06-0.09,0.12-0.14,0.18c-0.07,0.09-0.14,0.17-0.21,0.26c-0.09,0.1-0.17,0.21-0.25,0.32
				c-0.19,0.3-0.16,0.25-0.45,0.69c-0.05,0.05-0.09,0.11-0.14,0.16c-0.01,0.01-0.01,0.02-0.02,0.03c-0.2,0.2-0.39,0.42-0.56,0.65
				c-0.03,0.04-0.07,0.09-0.1,0.13c-0.1,0.11-0.2,0.23-0.29,0.35c-0.09,0.1-0.18,0.21-0.27,0.31c-0.15,0.15-0.31,0.31-0.45,0.48
				c-0.06,0.07-0.12,0.14-0.17,0.22c-0.31,0.33-0.32,0.38-0.5,0.62c-0.06,0.08-0.12,0.15-0.18,0.23c-0.01,0.01-0.02,0.03-0.04,0.05
				c-0.06,0.07-0.12,0.15-0.18,0.22c-0.01,0.01-0.01,0.01-0.02,0.02c-0.06,0.06-0.12,0.13-0.18,0.19C2.12,38.67,2,38.81,1.9,38.96
				c-0.12,0.16-0.24,0.33-0.35,0.5c-0.07,0.09-0.13,0.18-0.17,0.29c0,0.01-0.01,0.02,0,0.02c-0.08,0.14-0.05,0.1-0.11,0.27
				c-0.05,0.14-0.01,0.29,0.02,0.43c0.02,0.04,0.03,0.09,0.06,0.12c0.03,0.03,0.03,0.08,0.04,0.11c0,0,0,0.01,0,0.01
				c0,0,0,0.01,0,0.01c0.01,0.19-0.01,0.39,0,0.58c0.06,0.27,0.05,0.26,0.1,0.57c0.05,0.11,0.18,0.11,0.28,0.13c0,0-0.01,0-0.01,0
				c0,0,0.01,0,0.01,0c0,0,0.01,0,0.01,0c0.05,0,0.01,0-0.01,0C1.78,42,1.79,42,1.8,42c0.22,0.05,0.36,0.25,0.58,0.31
				c0.26,0.06,0.52,0.05,0.78,0.01c0.03,0,0.06-0.01,0.09-0.01c0.01,0,0.03,0,0.05,0c0.05,0.01,0.08,0.05,0.13,0.07
				c0.09,0.03,0.17,0.06,0.25,0.09c0.25,0.07,0.48,0.21,0.72,0.31c0.18,0.07,0.38,0.11,0.56,0.19c0.22,0.09,0.46,0.1,0.69,0.15
				c0.22,0.06,0.43,0.15,0.66,0.19c0.4,0.09,0.81,0.14,1.22,0.09c-0.03,0-0.06-0.01-0.09-0.01c-0.35-0.06-0.67-0.24-0.98-0.41
				c-0.15-0.08-0.27-0.21-0.42-0.29c-0.14-0.08-0.29-0.13-0.43-0.21c-0.12-0.09-0.24-0.17-0.37-0.25c-0.28-0.17-0.48-0.44-0.77-0.6
				c-0.06-0.05-0.13-0.08-0.18-0.13c-0.03-0.04-0.07-0.08-0.13-0.09c-0.11-0.03-0.23-0.02-0.34-0.03c-0.09-0.02-0.18-0.04-0.27-0.07
				c-0.26-0.06-0.34-0.35-0.57-0.46c-0.09-0.04-0.2-0.06-0.24-0.16c0-0.01,0-0.03,0-0.04c0.03-0.22-0.02-0.45,0.01-0.67
				c0.03-0.25,0.11-0.51,0.04-0.77c0-0.02-0.01-0.04-0.02-0.06c0-0.02,0-0.05-0.01-0.07c0-0.01,0-0.01-0.01-0.02
				c-0.01-0.09,0-0.17,0-0.26c0-0.02,0.01-0.04,0.02-0.06c0-0.01,0.01-0.02,0.01-0.03c-0.01,0.02-0.03,0.05-0.04,0.07
				c0.02-0.02,0.03-0.05,0.04-0.07l0-0.01h0c0,0,0,0,0,0.01c0-0.01,0.01-0.02,0.01-0.02c0.04-0.05,0.08-0.11,0.12-0.16
				c0.02-0.03,0.04-0.05,0.06-0.08c0.01-0.01,0.01-0.02,0.02-0.02c0.2-0.2,0.4-0.42,0.58-0.64c0.1-0.12,0.2-0.23,0.3-0.35
				c0.07-0.09,0.15-0.17,0.22-0.26c0.03-0.04,0.05-0.07,0.08-0.11c0.01-0.01,0.02-0.03,0.04-0.05c0.09-0.1,0.18-0.2,0.27-0.3
				c0.13-0.13,0.25-0.25,0.37-0.38c0.09-0.1,0.18-0.21,0.27-0.31c0.13-0.13,0.25-0.27,0.36-0.41c0.01-0.01,0.01-0.02,0.02-0.03
				c0,0,0.01-0.01,0.01-0.01c0.31-0.37,0.36-0.44,0.42-0.52c0.18-0.19,0.34-0.38,0.5-0.58c0.32-0.38,0.6-0.8,0.85-1.24
				c0.04-0.05,0.08-0.1,0.11-0.15c0.01-0.01,0.02-0.02,0.03-0.03c0.06-0.07,0.09-0.12,0.16-0.21c0.02-0.03,0.04-0.06,0.06-0.09
				c0.05-0.07,0.11-0.14,0.16-0.21c0.17-0.18,0.33-0.38,0.47-0.58c0-0.01,0.01-0.01,0.01-0.02c0.02-0.03,0.05-0.06,0.07-0.09
				c0.13-0.15,0.26-0.3,0.37-0.46c0.18-0.21,0.25-0.32,0.31-0.4c0.06-0.05,0.11-0.1,0.17-0.14c0.19-0.14,0.37-0.29,0.55-0.44
				c0.27-0.21,0.5-0.45,0.73-0.69c0.09-0.07,0.17-0.14,0.25-0.21c0.21-0.17,0.31-0.22,0.58-0.48c-0.04,0.04-0.02,0.02,0.01,0
				c0.24-0.18,0.47-0.38,0.68-0.6h0c-0.02,0.02-0.04,0.04-0.04,0.04c0.01-0.01,0.03-0.03,0.04-0.04c0.07-0.05,0.14-0.11,0.21-0.16
				c0.12-0.09,0.24-0.19,0.34-0.3c0.26-0.26,0.44-0.42,0.65-0.58c0.22-0.17,0.62-0.49,0.99-0.28C13.9,26.84,13.58,27.01,13.32,27.18
				L13.32,27.18z"/>
			<path fill="#FFD15E" d="M2.77,38.72c0,0.01-0.01,0.02-0.01,0.03C2.8,38.68,2.79,38.69,2.77,38.72z"/>
			<path fill="#FFD15E" d="M14.36,43.9c-0.44-0.04-0.85-0.03-1.25-0.16c-0.34-0.06-0.62-0.29-0.97-0.28
				c-0.41,0.02-0.82-0.03-1.23-0.01c-0.24,0.01-0.48,0.08-0.72,0.1c-0.46,0.04-0.92,0.06-1.39,0.06c0.32,0.16,0.68,0.27,1.03,0.33
				c0.21,0.04,0.43,0.01,0.65,0.05c0.33,0.06,0.72,0.13,1.13,0.09c0.28-0.01,0.43,0.05,0.69,0.09c0.2,0.03,0.4,0.02,0.6,0.02
				c0.34,0,0.68-0.07,1.01-0.16c0.17-0.04,0.34-0.07,0.52-0.12C14.4,43.9,14.38,43.9,14.36,43.9z"/>
		</g>
	</g>
	<g>
		<defs>
			<rect id="SVGID_00000075857183189162262130000005766414205306321287_" x="41" y="26" width="28" height="19"/>
		</defs>
		<clipPath id="SVGID_00000015339815736330776620000008877233481047824013_">
			<use xlink:href="#SVGID_00000075857183189162262130000005766414205306321287_"  overflow="visible"/>
		</clipPath>
		<g clip-path="url(#SVGID_00000015339815736330776620000008877233481047824013_)">
			<path fill="#FFF694" d="M68.16,38.05c-0.89-1.04-2.67-3.1-3.62-4.09c-0.87-0.9-2.72-2.59-3.62-3.45
				c-1.36-1.3-4.78-4.59-6.06-4.51c-0.97,0.06-6.41,5.13-6.41,5.13l-5.58,6.55c0,0-2.66,2.54-1.63,3.69
				c0.88,0.98,2.14,1.79,4.59,2.63c3.34,1.14,8.59,1.19,12.46,0.76c4.65-0.52,9.16-1.44,10.52-4.59
				C69.25,39.13,68.89,38.9,68.16,38.05z"/>
			<path fill="#FFD15E" d="M43.77,38.72C43.77,38.72,43.78,38.72,43.77,38.72C43.78,38.72,43.78,38.72,43.77,38.72
				C43.77,38.72,43.77,38.72,43.77,38.72L43.77,38.72z"/>
			<path fill="#FFD15E" d="M54.32,27.18c-0.26,0.16-0.49,0.34-0.79,0.6c-0.02,0.02-0.04,0.04-0.06,0.06
				c-0.05,0.03-0.09,0.06-0.14,0.09c-0.01,0-0.01,0.01-0.02,0.01c-0.13,0.07-0.23,0.16-0.34,0.25c-0.07,0.07-0.21,0.19-0.07,0.07
				c-0.21,0.18-0.3,0.2-0.57,0.42c-0.05,0.03-0.09,0.06-0.13,0.09c-0.02,0.01-0.04,0.03-0.06,0.04c-0.09,0.06-0.18,0.13-0.27,0.2
				c-0.18,0.12-0.35,0.26-0.51,0.41c-0.08,0.07-0.16,0.15-0.24,0.22c-0.06,0.05-0.13,0.1-0.19,0.15c-0.27,0.18-0.58,0.4-1,0.76
				c-0.64,0.59-0.63,0.62-1,1.06c-0.11,0.12-0.22,0.24-0.32,0.37c-0.3,0.31-0.33,0.38-0.48,0.56c-0.23,0.22-0.45,0.46-0.63,0.72
				c-0.02,0.03-0.03,0.05-0.04,0.06c0,0-0.01,0.01-0.01,0.01c-0.01,0.01-0.02,0.02-0.03,0.04l0.02-0.02h0
				c-0.02,0.02-0.04,0.05-0.06,0.07c-0.05,0.06-0.09,0.12-0.14,0.18c-0.07,0.09-0.14,0.17-0.21,0.26c-0.09,0.1-0.17,0.21-0.25,0.32
				c-0.19,0.3-0.16,0.25-0.45,0.69c-0.05,0.05-0.09,0.11-0.14,0.16c-0.01,0.01-0.01,0.02-0.02,0.03c-0.2,0.2-0.39,0.42-0.56,0.65
				c-0.03,0.04-0.07,0.09-0.1,0.13c-0.1,0.11-0.2,0.23-0.29,0.35c-0.09,0.1-0.18,0.21-0.27,0.31c-0.15,0.15-0.31,0.31-0.45,0.48
				c-0.06,0.07-0.12,0.14-0.17,0.22c-0.31,0.33-0.32,0.38-0.5,0.62c-0.06,0.08-0.12,0.15-0.18,0.23c-0.01,0.01-0.02,0.03-0.04,0.05
				c-0.06,0.07-0.12,0.15-0.18,0.22c-0.01,0.01-0.01,0.01-0.02,0.02c-0.06,0.06-0.12,0.13-0.18,0.19c-0.12,0.14-0.24,0.28-0.34,0.43
				c-0.12,0.16-0.24,0.33-0.35,0.5c-0.07,0.09-0.13,0.18-0.17,0.29c0,0.01-0.01,0.02,0,0.02c-0.08,0.14-0.05,0.1-0.11,0.27
				c-0.05,0.14-0.01,0.29,0.02,0.43c0.02,0.04,0.03,0.09,0.06,0.12c0.03,0.03,0.03,0.08,0.04,0.11c0,0,0,0.01,0,0.01
				c0,0,0,0.01,0,0.01c0.01,0.19-0.01,0.39,0,0.58c0.06,0.27,0.05,0.26,0.1,0.57c0.05,0.11,0.18,0.11,0.28,0.13c0,0-0.01,0-0.01,0
				c0,0,0.01,0,0.01,0c0,0,0.01,0,0.01,0c0.05,0,0.01,0-0.01,0c0.01,0,0.02,0,0.03,0.01c0.22,0.05,0.36,0.25,0.58,0.31
				c0.26,0.06,0.52,0.05,0.78,0.01c0.03,0,0.06-0.01,0.09-0.01c0.01,0,0.03,0,0.05,0c0.05,0.01,0.08,0.05,0.13,0.07
				c0.09,0.03,0.17,0.06,0.25,0.09c0.25,0.07,0.48,0.21,0.72,0.31c0.18,0.07,0.38,0.11,0.56,0.19c0.22,0.09,0.46,0.1,0.69,0.15
				c0.22,0.06,0.43,0.15,0.66,0.19c0.4,0.09,0.81,0.14,1.22,0.09c-0.03,0-0.06-0.01-0.09-0.01c-0.35-0.06-0.67-0.24-0.98-0.41
				c-0.15-0.08-0.27-0.21-0.42-0.29c-0.14-0.08-0.29-0.13-0.43-0.21c-0.12-0.09-0.24-0.17-0.37-0.25c-0.28-0.17-0.48-0.44-0.77-0.6
				c-0.06-0.05-0.13-0.08-0.18-0.13c-0.03-0.04-0.07-0.08-0.13-0.09c-0.11-0.03-0.23-0.02-0.34-0.03c-0.09-0.02-0.18-0.04-0.27-0.07
				c-0.26-0.06-0.34-0.35-0.57-0.46c-0.09-0.04-0.2-0.06-0.24-0.16c0-0.01,0-0.03,0-0.04c0.03-0.22-0.02-0.45,0.01-0.67
				c0.03-0.25,0.11-0.51,0.04-0.77c0-0.02-0.01-0.04-0.02-0.06c0-0.02,0-0.05-0.01-0.07c0-0.01,0-0.01-0.01-0.02
				c-0.01-0.09,0-0.17,0-0.26c0-0.02,0.01-0.04,0.02-0.06c0-0.01,0.01-0.02,0.01-0.03c-0.01,0.02-0.03,0.05-0.04,0.07
				c0.02-0.02,0.03-0.05,0.04-0.07l0-0.01h0c0,0,0,0,0,0.01c0-0.01,0.01-0.02,0.01-0.02c0.04-0.05,0.08-0.11,0.12-0.16
				c0.02-0.03,0.04-0.05,0.06-0.08c0.01-0.01,0.01-0.02,0.02-0.02c0.2-0.2,0.4-0.42,0.58-0.64c0.1-0.12,0.2-0.23,0.3-0.35
				c0.07-0.09,0.15-0.17,0.22-0.26c0.03-0.04,0.05-0.07,0.08-0.11c0.01-0.01,0.02-0.03,0.04-0.05c0.09-0.1,0.18-0.2,0.27-0.3
				c0.13-0.13,0.25-0.25,0.37-0.38c0.09-0.1,0.18-0.21,0.27-0.31c0.13-0.13,0.25-0.27,0.36-0.41c0.01-0.01,0.01-0.02,0.02-0.03
				c0,0,0.01-0.01,0.01-0.01c0.31-0.37,0.36-0.44,0.42-0.52c0.18-0.19,0.34-0.38,0.5-0.58c0.32-0.38,0.6-0.8,0.85-1.24
				c0.04-0.05,0.08-0.1,0.11-0.15c0.01-0.01,0.02-0.02,0.03-0.03c0.06-0.07,0.09-0.12,0.16-0.21c0.02-0.03,0.04-0.06,0.06-0.09
				c0.05-0.07,0.11-0.14,0.16-0.21c0.17-0.18,0.33-0.38,0.47-0.58c0-0.01,0.01-0.01,0.01-0.02c0.02-0.03,0.05-0.06,0.07-0.09
				c0.13-0.15,0.26-0.3,0.37-0.46c0.18-0.21,0.25-0.32,0.31-0.4c0.06-0.05,0.11-0.1,0.17-0.14c0.19-0.14,0.37-0.29,0.55-0.44
				c0.27-0.21,0.5-0.45,0.73-0.69c0.09-0.07,0.17-0.14,0.25-0.21c0.21-0.17,0.31-0.22,0.58-0.48c-0.04,0.04-0.02,0.02,0.01,0
				c0.24-0.18,0.47-0.38,0.68-0.6h0c-0.02,0.02-0.04,0.04-0.04,0.04c0.01-0.01,0.03-0.03,0.04-0.04c0.07-0.05,0.14-0.11,0.21-0.16
				c0.12-0.09,0.24-0.19,0.34-0.3c0.26-0.26,0.44-0.42,0.65-0.58c0.22-0.17,0.62-0.49,0.99-0.28C54.9,26.84,54.58,27.01,54.32,27.18
				L54.32,27.18z"/>
			<path fill="#FFD15E" d="M43.77,38.72c0,0.01-0.01,0.02-0.01,0.03C43.8,38.68,43.79,38.69,43.77,38.72z"/>
			<path fill="#FFD15E" d="M55.36,43.9c-0.44-0.04-0.85-0.03-1.25-0.16c-0.34-0.06-0.62-0.29-0.97-0.28
				c-0.41,0.02-0.82-0.03-1.23-0.01c-0.24,0.01-0.48,0.08-0.72,0.1c-0.46,0.04-0.92,0.06-1.39,0.06c0.32,0.16,0.68,0.27,1.03,0.33
				c0.21,0.04,0.43,0.01,0.65,0.05c0.33,0.06,0.72,0.13,1.13,0.09c0.28-0.01,0.43,0.05,0.69,0.09c0.2,0.03,0.4,0.02,0.6,0.02
				c0.34,0,0.68-0.07,1.01-0.16c0.17-0.04,0.34-0.07,0.52-0.12C55.4,43.9,55.38,43.9,55.36,43.9z"/>
		</g>
	</g>
	<g>
		<defs>
			<rect id="SVGID_00000160874268716607241570000000094928725765599642_" x="82" y="26" width="28" height="19"/>
		</defs>
		<clipPath id="SVGID_00000125566523155575893710000001896619411508384686_">
			<use xlink:href="#SVGID_00000160874268716607241570000000094928725765599642_"  overflow="visible"/>
		</clipPath>
		<g clip-path="url(#SVGID_00000125566523155575893710000001896619411508384686_)">
			<path fill="#FFF694" d="M109.16,38.05c-0.89-1.04-2.67-3.1-3.62-4.09c-0.87-0.9-2.72-2.59-3.62-3.45
				c-1.36-1.3-4.78-4.59-6.06-4.51c-0.97,0.06-6.41,5.13-6.41,5.13l-5.58,6.55c0,0-2.66,2.54-1.63,3.69
				c0.88,0.98,2.14,1.79,4.59,2.63c3.34,1.14,8.59,1.19,12.46,0.76c4.65-0.52,9.16-1.44,10.52-4.59
				C110.25,39.13,109.89,38.9,109.16,38.05z"/>
			<path fill="#FFD15E" d="M84.77,38.72C84.77,38.72,84.78,38.72,84.77,38.72C84.78,38.72,84.78,38.72,84.77,38.72
				C84.77,38.72,84.77,38.72,84.77,38.72L84.77,38.72z"/>
			<path fill="#FFD15E" d="M95.32,27.18c-0.26,0.16-0.49,0.34-0.79,0.6c-0.02,0.02-0.04,0.04-0.06,0.06
				c-0.05,0.03-0.09,0.06-0.14,0.09c-0.01,0-0.01,0.01-0.02,0.01c-0.13,0.07-0.23,0.16-0.34,0.25c-0.07,0.07-0.21,0.19-0.07,0.07
				c-0.21,0.18-0.3,0.2-0.57,0.42c-0.05,0.03-0.09,0.06-0.13,0.09c-0.02,0.01-0.04,0.03-0.06,0.04c-0.09,0.06-0.18,0.13-0.27,0.2
				c-0.18,0.12-0.35,0.26-0.51,0.41c-0.08,0.07-0.16,0.15-0.24,0.22c-0.06,0.05-0.13,0.1-0.19,0.15c-0.27,0.18-0.58,0.4-1,0.76
				c-0.64,0.59-0.63,0.62-1,1.06c-0.11,0.12-0.22,0.24-0.32,0.37c-0.3,0.31-0.33,0.38-0.48,0.56c-0.23,0.22-0.45,0.46-0.63,0.72
				c-0.02,0.03-0.03,0.05-0.04,0.06c0,0-0.01,0.01-0.01,0.01c-0.01,0.01-0.02,0.02-0.03,0.04l0.02-0.02h0
				c-0.02,0.02-0.04,0.05-0.06,0.07c-0.05,0.06-0.09,0.12-0.14,0.18c-0.07,0.09-0.14,0.17-0.21,0.26c-0.09,0.1-0.17,0.21-0.25,0.32
				c-0.19,0.3-0.16,0.25-0.45,0.69c-0.05,0.05-0.09,0.11-0.14,0.16c-0.01,0.01-0.01,0.02-0.02,0.03c-0.2,0.2-0.39,0.42-0.56,0.65
				c-0.03,0.04-0.07,0.09-0.1,0.13c-0.1,0.11-0.2,0.23-0.29,0.35c-0.09,0.1-0.18,0.21-0.27,0.31c-0.15,0.15-0.31,0.31-0.45,0.48
				c-0.06,0.07-0.12,0.14-0.17,0.22c-0.31,0.33-0.32,0.38-0.5,0.62c-0.06,0.08-0.12,0.15-0.18,0.23c-0.01,0.01-0.02,0.03-0.04,0.05
				c-0.06,0.07-0.12,0.15-0.18,0.22c-0.01,0.01-0.01,0.01-0.02,0.02c-0.06,0.06-0.12,0.13-0.18,0.19c-0.12,0.14-0.24,0.28-0.34,0.43
				c-0.12,0.16-0.24,0.33-0.35,0.5c-0.07,0.09-0.13,0.18-0.17,0.29c0,0.01-0.01,0.02,0,0.02c-0.08,0.14-0.05,0.1-0.11,0.27
				c-0.05,0.14-0.01,0.29,0.02,0.43c0.02,0.04,0.03,0.09,0.06,0.12c0.03,0.03,0.03,0.08,0.04,0.11c0,0,0,0.01,0,0.01
				c0,0,0,0.01,0,0.01c0.01,0.19-0.01,0.39,0,0.58c0.06,0.27,0.05,0.26,0.1,0.57c0.05,0.11,0.18,0.11,0.28,0.13c0,0-0.01,0-0.01,0
				c0,0,0.01,0,0.01,0c0,0,0.01,0,0.01,0c0.05,0,0.01,0-0.01,0c0.01,0,0.02,0,0.03,0.01c0.22,0.05,0.36,0.25,0.58,0.31
				c0.26,0.06,0.52,0.05,0.78,0.01c0.03,0,0.06-0.01,0.09-0.01c0.01,0,0.03,0,0.05,0c0.05,0.01,0.08,0.05,0.13,0.07
				c0.09,0.03,0.17,0.06,0.25,0.09c0.25,0.07,0.48,0.21,0.72,0.31c0.18,0.07,0.38,0.11,0.56,0.19c0.22,0.09,0.46,0.1,0.69,0.15
				c0.22,0.06,0.43,0.15,0.66,0.19c0.4,0.09,0.81,0.14,1.22,0.09c-0.03,0-0.06-0.01-0.09-0.01c-0.35-0.06-0.67-0.24-0.98-0.41
				c-0.15-0.08-0.27-0.21-0.42-0.29c-0.14-0.08-0.29-0.13-0.43-0.21c-0.12-0.09-0.24-0.17-0.37-0.25c-0.28-0.17-0.48-0.44-0.77-0.6
				c-0.06-0.05-0.13-0.08-0.18-0.13c-0.03-0.04-0.07-0.08-0.13-0.09c-0.11-0.03-0.23-0.02-0.34-0.03c-0.09-0.02-0.18-0.04-0.27-0.07
				c-0.26-0.06-0.34-0.35-0.57-0.46c-0.09-0.04-0.2-0.06-0.24-0.16c0-0.01,0-0.03,0-0.04c0.03-0.22-0.02-0.45,0.01-0.67
				c0.03-0.25,0.11-0.51,0.04-0.77c0-0.02-0.01-0.04-0.02-0.06c0-0.02,0-0.05-0.01-0.07c0-0.01,0-0.01-0.01-0.02
				c-0.01-0.09,0-0.17,0-0.26c0-0.02,0.01-0.04,0.02-0.06c0-0.01,0.01-0.02,0.01-0.03c-0.01,0.02-0.03,0.05-0.04,0.07
				c0.02-0.02,0.03-0.05,0.04-0.07l0-0.01h0c0,0,0,0,0,0.01c0-0.01,0.01-0.02,0.01-0.02c0.04-0.05,0.08-0.11,0.12-0.16
				c0.02-0.03,0.04-0.05,0.06-0.08c0.01-0.01,0.01-0.02,0.02-0.02c0.2-0.2,0.4-0.42,0.58-0.64c0.1-0.12,0.2-0.23,0.3-0.35
				c0.07-0.09,0.15-0.17,0.22-0.26c0.03-0.04,0.05-0.07,0.08-0.11c0.01-0.01,0.02-0.03,0.04-0.05c0.09-0.1,0.18-0.2,0.27-0.3
				c0.13-0.13,0.25-0.25,0.37-0.38c0.09-0.1,0.18-0.21,0.27-0.31c0.13-0.13,0.25-0.27,0.36-0.41c0.01-0.01,0.01-0.02,0.02-0.03
				c0,0,0.01-0.01,0.01-0.01c0.31-0.37,0.36-0.44,0.42-0.52c0.18-0.19,0.34-0.38,0.5-0.58c0.32-0.38,0.6-0.8,0.85-1.24
				c0.04-0.05,0.08-0.1,0.11-0.15c0.01-0.01,0.02-0.02,0.03-0.03c0.06-0.07,0.09-0.12,0.16-0.21c0.02-0.03,0.04-0.06,0.06-0.09
				c0.05-0.07,0.11-0.14,0.16-0.21c0.17-0.18,0.33-0.38,0.47-0.58c0-0.01,0.01-0.01,0.01-0.02c0.02-0.03,0.05-0.06,0.07-0.09
				c0.13-0.15,0.26-0.3,0.37-0.46c0.18-0.21,0.25-0.32,0.31-0.4c0.06-0.05,0.11-0.1,0.17-0.14c0.19-0.14,0.37-0.29,0.55-0.44
				c0.27-0.21,0.5-0.45,0.73-0.69c0.09-0.07,0.17-0.14,0.25-0.21c0.21-0.17,0.31-0.22,0.58-0.48c-0.04,0.04-0.02,0.02,0.01,0
				c0.24-0.18,0.47-0.38,0.68-0.6h0c-0.02,0.02-0.04,0.04-0.04,0.04c0.01-0.01,0.03-0.03,0.04-0.04c0.07-0.05,0.14-0.11,0.21-0.16
				c0.12-0.09,0.24-0.19,0.34-0.3c0.26-0.26,0.44-0.42,0.65-0.58c0.22-0.17,0.62-0.49,0.99-0.28C95.9,26.84,95.58,27.01,95.32,27.18
				L95.32,27.18z"/>
			<path fill="#FFD15E" d="M84.77,38.72c0,0.01-0.01,0.02-0.01,0.03C84.8,38.68,84.79,38.69,84.77,38.72z"/>
			<path fill="#FFD15E" d="M96.36,43.9c-0.44-0.04-0.85-0.03-1.25-0.16c-0.34-0.06-0.62-0.29-0.97-0.28
				c-0.41,0.02-0.82-0.03-1.23-0.01c-0.24,0.01-0.48,0.08-0.72,0.1c-0.46,0.04-0.92,0.06-1.39,0.06c0.32,0.16,0.68,0.27,1.03,0.33
				c0.21,0.04,0.43,0.01,0.65,0.05c0.33,0.06,0.72,0.13,1.13,0.09c0.28-0.01,0.43,0.05,0.69,0.09c0.2,0.03,0.4,0.02,0.6,0.02
				c0.34,0,0.68-0.07,1.01-0.16c0.17-0.04,0.34-0.07,0.52-0.12C96.4,43.9,96.38,43.9,96.36,43.9z"/>
		</g>
	</g>
</g>
</svg>
