<?xml version="1.0" encoding="UTF-8"?><svg id="b" xmlns="http://www.w3.org/2000/svg" xmlns:xlink="http://www.w3.org/1999/xlink" viewBox="0 0 394.13 294.36"><defs><clipPath id="f"><rect x="182.04" y="191.24" width="171.87" height="103.12" fill="none"/></clipPath></defs><g id="c"><g id="d"><g id="e"><path d="M253.32,83.19h-112v34.24h112v-34.24Z" fill="#fde84f"/><path d="M253.32,77.87h-112v5.32h112v-5.32Z" fill="#005c5a"/><path d="M153.98,113.11c1.61,0,2.92-1.39,2.92-3.1s-1.31-3.1-2.92-3.1-2.92,1.39-2.92,3.1,1.31,3.1,2.92,3.1Z" fill="#cf942b"/><path d="M200.46,107.49c1.73,0,3.14-1.5,3.14-3.34s-1.41-3.34-3.14-3.34-3.14,1.5-3.14,3.34,1.41,3.34,3.14,3.34Z" fill="#cf942b"/><path d="M164.34,100.01c1.74,0,3.14-1.5,3.14-3.34s-1.41-3.34-3.14-3.34-3.14,1.49-3.14,3.34,1.41,3.34,3.14,3.34Z" fill="#cf942b"/><path d="M235.73,100.01c1.73,0,3.14-1.5,3.14-3.34s-1.41-3.34-3.14-3.34-3.14,1.49-3.14,3.34,1.41,3.34,3.14,3.34Z" fill="#cf942b"/><path d="M177.17,91.15c.76,0,1.37-.65,1.37-1.46s-.61-1.46-1.37-1.46-1.37,.65-1.37,1.46,.61,1.46,1.37,1.46Z" fill="#cf942b"/><path d="M234.36,112.27c.76,0,1.37-.65,1.37-1.46s-.61-1.46-1.37-1.46-1.37,.65-1.37,1.46,.61,1.46,1.37,1.46Z" fill="#cf942b"/><path d="M212.56,99.59c.76,0,1.37-.65,1.37-1.46s-.61-1.46-1.37-1.46-1.37,.65-1.37,1.46,.61,1.46,1.37,1.46Z" fill="#cf942b"/><path d="M194.08,94.35c.76,0,1.37-.65,1.37-1.46s-.61-1.46-1.37-1.46-1.37,.65-1.37,1.46,.61,1.46,1.37,1.46Z" fill="#cf942b"/><path d="M180.8,104.15c1.25,0,2.26-1.07,2.26-2.4s-1.01-2.4-2.26-2.4-2.26,1.07-2.26,2.4,1.01,2.4,2.26,2.4Z" fill="#cf942b"/><path d="M187.25,112.41c1.25,0,2.26-1.07,2.26-2.4s-1.01-2.4-2.26-2.4-2.26,1.07-2.26,2.4,1.01,2.4,2.26,2.4Z" fill="#cf942b"/><path d="M204.39,94.49c1.25,0,2.26-1.07,2.26-2.4s-1.01-2.4-2.26-2.4-2.26,1.07-2.26,2.4,1.01,2.4,2.26,2.4Z" fill="#cf942b"/><path d="M245.7,109.31c1.25,0,2.26-1.07,2.26-2.4s-1.01-2.4-2.26-2.4-2.26,1.07-2.26,2.4,1.01,2.4,2.26,2.4Z" fill="#cf942b"/><path d="M225.08,92.09c1.25,0,2.26-1.07,2.26-2.4s-1.01-2.4-2.26-2.4-2.26,1.07-2.26,2.4,1.01,2.4,2.26,2.4Z" fill="#cf942b"/><path d="M245.7,94.49c1.25,0,2.26-1.07,2.26-2.4s-1.01-2.4-2.26-2.4-2.26,1.07-2.26,2.4,1.01,2.4,2.26,2.4Z" fill="#cf942b"/><path d="M219.46,110.83c1.25,0,2.26-1.07,2.26-2.4s-1.01-2.4-2.26-2.4-2.26,1.07-2.26,2.4,1.01,2.4,2.26,2.4Z" fill="#cf942b"/><path d="M151.06,91.61c.76,0,1.37-.65,1.37-1.46s-.61-1.46-1.37-1.46-1.37,.65-1.37,1.46,.61,1.46,1.37,1.46Z" fill="#cf942b"/><path d="M141.81,77.49l3.39,1.78,3.37-1.72,3.39-.18,3.39,2.12,3.35-2.24,3.39,.46,3.37,1.54h3.37l3.37-.66,3.39,.22,3.37-1.16,3.39,.86,3.37-.84,3.39,1.52,3.37-.42,3.39-.58,3.37,.82,3.39-.66,3.37-.4,3.39-.06,3.39,1.22,3.39-.68,3.37-1.22,3.39,1.68,3.39-1.24,3.39,.86,3.37-.9,3.39,.04,3.39,.86,3.39,.18,3.39-1.5,3.39-.3,3.4,.92" fill="#005c5a"/><path d="M141.81,77.49l3.39,1.78,3.37-1.72,3.39-.18,3.39,2.12,3.35-2.24,3.39,.46,3.37,1.54h3.37l3.37-.66,3.39,.22,3.37-1.16,3.39,.86,3.37-.84,3.39,1.52,3.37-.42,3.39-.58,3.37,.82,3.39-.66,3.37-.4,3.39-.06,3.39,1.22,3.39-.68,3.37-1.22,3.39,1.68,3.39-1.24,3.39,.86,3.37-.9,3.39,.04,3.39,.86,3.39,.18,3.39-1.5,3.39-.3,3.4,.92" fill="none" stroke="#005c5a" stroke-miterlimit="10"/><path d="M112,6.8H0V41.04H112V6.8Z" fill="#fde84f"/><path d="M112,1.49H0V6.8H112V1.49Z" fill="#005c5a"/><path d="M12.66,36.72c1.61,0,2.92-1.39,2.92-3.1s-1.31-3.1-2.92-3.1-2.92,1.39-2.92,3.1,1.31,3.1,2.92,3.1Z" fill="#cf942b"/><path d="M59.14,31.1c1.73,0,3.14-1.5,3.14-3.34s-1.41-3.34-3.14-3.34-3.14,1.5-3.14,3.34,1.41,3.34,3.14,3.34Z" fill="#cf942b"/><path d="M23.02,23.62c1.74,0,3.14-1.5,3.14-3.34s-1.41-3.34-3.14-3.34-3.14,1.49-3.14,3.34,1.41,3.34,3.14,3.34Z" fill="#cf942b"/><path d="M94.41,23.62c1.73,0,3.14-1.5,3.14-3.34s-1.41-3.34-3.14-3.34-3.14,1.49-3.14,3.34,1.41,3.34,3.14,3.34Z" fill="#cf942b"/><path d="M35.85,14.76c.76,0,1.37-.65,1.37-1.46s-.61-1.46-1.37-1.46-1.37,.65-1.37,1.46,.61,1.46,1.37,1.46Z" fill="#cf942b"/><path d="M93.04,35.88c.76,0,1.37-.65,1.37-1.46s-.61-1.46-1.37-1.46-1.37,.65-1.37,1.46,.61,1.46,1.37,1.46Z" fill="#cf942b"/><path d="M71.24,23.2c.76,0,1.37-.65,1.37-1.46s-.61-1.46-1.37-1.46-1.37,.65-1.37,1.46,.61,1.46,1.37,1.46Z" fill="#cf942b"/><path d="M52.76,17.96c.76,0,1.37-.65,1.37-1.46s-.61-1.46-1.37-1.46-1.37,.65-1.37,1.46,.61,1.46,1.37,1.46Z" fill="#cf942b"/><path d="M39.48,27.76c1.25,0,2.26-1.07,2.26-2.4s-1.01-2.4-2.26-2.4-2.26,1.07-2.26,2.4,1.01,2.4,2.26,2.4Z" fill="#cf942b"/><path d="M45.94,36.02c1.25,0,2.26-1.07,2.26-2.4s-1.01-2.4-2.26-2.4-2.26,1.07-2.26,2.4,1.01,2.4,2.26,2.4Z" fill="#cf942b"/><path d="M63.07,18.1c1.25,0,2.26-1.07,2.26-2.4s-1.01-2.4-2.26-2.4-2.26,1.07-2.26,2.4,1.01,2.4,2.26,2.4Z" fill="#cf942b"/><path d="M104.38,32.92c1.25,0,2.26-1.07,2.26-2.4s-1.01-2.4-2.26-2.4-2.26,1.07-2.26,2.4,1.01,2.4,2.26,2.4Z" fill="#cf942b"/><path d="M83.76,15.7c1.25,0,2.26-1.07,2.26-2.4s-1.01-2.4-2.26-2.4-2.26,1.07-2.26,2.4,1.01,2.4,2.26,2.4Z" fill="#cf942b"/><path d="M104.38,18.1c1.25,0,2.26-1.07,2.26-2.4s-1.01-2.4-2.26-2.4-2.26,1.07-2.26,2.4,1.01,2.4,2.26,2.4Z" fill="#cf942b"/><path d="M78.14,34.44c1.25,0,2.26-1.07,2.26-2.4s-1.01-2.4-2.26-2.4-2.26,1.07-2.26,2.4,1.01,2.4,2.26,2.4Z" fill="#cf942b"/><path d="M9.74,15.22c.76,0,1.37-.65,1.37-1.46s-.61-1.46-1.37-1.46-1.37,.65-1.37,1.46,.61,1.46,1.37,1.46Z" fill="#cf942b"/><path d="M.49,1.11l3.39,1.78,3.37-1.72,3.39-.18,3.39,2.12,3.35-2.24,3.39,.46,3.37,1.54h3.37l3.37-.66,3.39,.22,3.37-1.16,3.39,.86,3.37-.84,3.39,1.52,3.37-.42,3.39-.58,3.37,.82,3.39-.66,3.37-.4,3.39-.06,3.39,1.22,3.39-.68,3.37-1.22,3.39,1.68,3.39-1.24,3.39,.86,3.37-.9,3.39,.04,3.39,.86,3.39,.18,3.39-1.5,3.39-.3,3.4,.92" fill="#005c5a"/><path d="M.49,1.11l3.39,1.78,3.37-1.72,3.39-.18,3.39,2.12,3.35-2.24,3.39,.46,3.37,1.54h3.37l3.37-.66,3.39,.22,3.37-1.16,3.39,.86,3.37-.84,3.39,1.52,3.37-.42,3.39-.58,3.37,.82,3.39-.66,3.37-.4,3.39-.06,3.39,1.22,3.39-.68,3.37-1.22,3.39,1.68,3.39-1.24,3.39,.86,3.37-.9,3.39,.04,3.39,.86,3.39,.18,3.39-1.5,3.39-.3,3.4,.92" fill="none" stroke="#005c5a" stroke-miterlimit="10"/><path d="M184.57,155.76H72.57v34.24h112v-34.24Z" fill="#fde84f"/><path d="M184.57,150.44H72.57v5.32h112v-5.32Z" fill="#005c5a"/><path d="M85.23,185.68c1.61,0,2.92-1.39,2.92-3.1s-1.31-3.1-2.92-3.1-2.92,1.39-2.92,3.1,1.31,3.1,2.92,3.1Z" fill="#cf942b"/><path d="M131.71,180.06c1.73,0,3.14-1.5,3.14-3.34s-1.41-3.34-3.14-3.34-3.14,1.5-3.14,3.34,1.41,3.34,3.14,3.34Z" fill="#cf942b"/><path d="M95.59,172.58c1.74,0,3.14-1.5,3.14-3.34s-1.41-3.34-3.14-3.34-3.14,1.49-3.14,3.34,1.41,3.34,3.14,3.34Z" fill="#cf942b"/><path d="M166.98,172.58c1.73,0,3.14-1.5,3.14-3.34s-1.41-3.34-3.14-3.34-3.14,1.49-3.14,3.34,1.41,3.34,3.14,3.34Z" fill="#cf942b"/><path d="M108.42,163.72c.76,0,1.37-.65,1.37-1.46s-.61-1.46-1.37-1.46-1.37,.65-1.37,1.46,.61,1.46,1.37,1.46Z" fill="#cf942b"/><path d="M165.61,184.84c.76,0,1.37-.65,1.37-1.46s-.61-1.46-1.37-1.46-1.37,.65-1.37,1.46,.61,1.46,1.37,1.46Z" fill="#cf942b"/><path d="M143.81,172.16c.76,0,1.37-.65,1.37-1.46s-.61-1.46-1.37-1.46-1.37,.65-1.37,1.46,.61,1.46,1.37,1.46Z" fill="#cf942b"/><path d="M125.33,166.92c.76,0,1.37-.65,1.37-1.46s-.61-1.46-1.37-1.46-1.37,.65-1.37,1.46,.61,1.46,1.37,1.46Z" fill="#cf942b"/><path d="M112.05,176.72c1.25,0,2.26-1.07,2.26-2.4s-1.01-2.4-2.26-2.4-2.26,1.07-2.26,2.4,1.01,2.4,2.26,2.4Z" fill="#cf942b"/><path d="M118.51,184.98c1.25,0,2.26-1.07,2.26-2.4s-1.01-2.4-2.26-2.4-2.26,1.07-2.26,2.4,1.01,2.4,2.26,2.4Z" fill="#cf942b"/><path d="M135.64,167.06c1.25,0,2.26-1.07,2.26-2.4s-1.01-2.4-2.26-2.4-2.26,1.07-2.26,2.4,1.01,2.4,2.26,2.4Z" fill="#cf942b"/><path d="M176.95,181.88c1.25,0,2.26-1.07,2.26-2.4s-1.01-2.4-2.26-2.4-2.26,1.07-2.26,2.4,1.01,2.4,2.26,2.4Z" fill="#cf942b"/><path d="M156.33,164.66c1.25,0,2.26-1.07,2.26-2.4s-1.01-2.4-2.26-2.4-2.26,1.07-2.26,2.4,1.01,2.4,2.26,2.4Z" fill="#cf942b"/><path d="M176.95,167.06c1.25,0,2.26-1.07,2.26-2.4s-1.01-2.4-2.26-2.4-2.26,1.07-2.26,2.4,1.01,2.4,2.26,2.4Z" fill="#cf942b"/><path d="M150.71,183.4c1.25,0,2.26-1.07,2.26-2.4s-1.01-2.4-2.26-2.4-2.26,1.07-2.26,2.4,1.01,2.4,2.26,2.4Z" fill="#cf942b"/><path d="M82.31,164.18c.76,0,1.37-.65,1.37-1.46s-.61-1.46-1.37-1.46-1.37,.65-1.37,1.46,.61,1.46,1.37,1.46Z" fill="#cf942b"/><path d="M73.06,150.06l3.39,1.78,3.37-1.72,3.39-.18,3.39,2.12,3.35-2.24,3.39,.46,3.37,1.54h3.37l3.37-.66,3.39,.22,3.37-1.16,3.39,.86,3.37-.84,3.39,1.52,3.37-.42,3.39-.58,3.37,.82,3.39-.66,3.37-.4,3.39-.06,3.39,1.22,3.39-.68,3.37-1.22,3.39,1.68,3.39-1.24,3.39,.86,3.37-.9,3.39,.04,3.39,.86,3.39,.18,3.39-1.5,3.39-.3,3.4,.92" fill="#005c5a"/><path d="M73.06,150.06l3.39,1.78,3.37-1.72,3.39-.18,3.39,2.12,3.35-2.24,3.39,.46,3.37,1.54h3.37l3.37-.66,3.39,.22,3.37-1.16,3.39,.86,3.37-.84,3.39,1.52,3.37-.42,3.39-.58,3.37,.82,3.39-.66,3.37-.4,3.39-.06,3.39,1.22,3.39-.68,3.37-1.22,3.39,1.68,3.39-1.24,3.39,.86,3.37-.9,3.39,.04,3.39,.86,3.39,.18,3.39-1.5,3.39-.3,3.4,.92" fill="none" stroke="#005c5a" stroke-miterlimit="10"/><g clip-path="url(#f)"><g><path d="M325.25,228.33h-114.54v34.24h114.54v-34.24Z" fill="#fde84f"/><path d="M325.25,223.01h-114.54v5.32h114.54v-5.32Z" fill="#005c5a"/><path d="M223.65,258.25c1.65,0,2.98-1.39,2.98-3.1s-1.34-3.1-2.98-3.1-2.98,1.39-2.98,3.1,1.34,3.1,2.98,3.1Z" fill="#cf942b"/><path d="M271.19,252.63c1.77,0,3.21-1.5,3.21-3.34s-1.44-3.34-3.21-3.34-3.21,1.5-3.21,3.34,1.44,3.34,3.21,3.34Z" fill="#cf942b"/><path d="M234.25,245.15c1.77,0,3.21-1.5,3.21-3.34s-1.44-3.34-3.21-3.34-3.21,1.49-3.21,3.34,1.44,3.34,3.21,3.34Z" fill="#cf942b"/><path d="M307.26,245.15c1.77,0,3.21-1.5,3.21-3.34s-1.44-3.34-3.21-3.34-3.21,1.49-3.21,3.34,1.44,3.34,3.21,3.34Z" fill="#cf942b"/><path d="M247.37,236.29c.78,0,1.4-.65,1.4-1.46s-.63-1.46-1.4-1.46-1.4,.65-1.4,1.46,.63,1.46,1.4,1.46Z" fill="#cf942b"/><path d="M305.86,257.41c.78,0,1.4-.65,1.4-1.46s-.63-1.46-1.4-1.46-1.4,.65-1.4,1.46,.63,1.46,1.4,1.46Z" fill="#cf942b"/><path d="M283.56,244.73c.78,0,1.4-.65,1.4-1.46s-.63-1.46-1.4-1.46-1.4,.65-1.4,1.46,.63,1.46,1.4,1.46Z" fill="#cf942b"/><path d="M264.67,239.49c.78,0,1.4-.65,1.4-1.46s-.63-1.46-1.4-1.46-1.4,.65-1.4,1.46,.63,1.46,1.4,1.46Z" fill="#cf942b"/><path d="M251.09,249.29c1.27,0,2.31-1.07,2.31-2.4s-1.03-2.4-2.31-2.4-2.31,1.07-2.31,2.4,1.03,2.4,2.31,2.4Z" fill="#cf942b"/><path d="M257.69,257.55c1.28,0,2.31-1.07,2.31-2.4s-1.03-2.4-2.31-2.4-2.31,1.07-2.31,2.4,1.03,2.4,2.31,2.4Z" fill="#cf942b"/><path d="M275.21,239.63c1.27,0,2.31-1.07,2.31-2.4s-1.03-2.4-2.31-2.4-2.31,1.07-2.31,2.4,1.03,2.4,2.31,2.4Z" fill="#cf942b"/><path d="M317.46,254.45c1.27,0,2.31-1.07,2.31-2.4s-1.03-2.4-2.31-2.4-2.31,1.07-2.31,2.4,1.03,2.4,2.31,2.4Z" fill="#cf942b"/><path d="M296.37,237.23c1.27,0,2.31-1.07,2.31-2.4s-1.03-2.4-2.31-2.4-2.31,1.07-2.31,2.4,1.03,2.4,2.31,2.4Z" fill="#cf942b"/><path d="M317.46,239.63c1.27,0,2.31-1.07,2.31-2.4s-1.03-2.4-2.31-2.4-2.31,1.07-2.31,2.4,1.03,2.4,2.31,2.4Z" fill="#cf942b"/><path d="M290.62,255.97c1.27,0,2.31-1.07,2.31-2.4s-1.03-2.4-2.31-2.4-2.31,1.07-2.31,2.4,1.03,2.4,2.31,2.4Z" fill="#cf942b"/><path d="M220.67,236.75c.78,0,1.4-.65,1.4-1.46s-.63-1.46-1.4-1.46-1.4,.65-1.4,1.46,.63,1.46,1.4,1.46Z" fill="#cf942b"/><path d="M211.21,222.63l3.46,1.78,3.44-1.72,3.46-.18,3.46,2.12,3.42-2.24,3.46,.46,3.44,1.54h3.44l3.44-.66,3.46,.22,3.44-1.16,3.46,.86,3.44-.84,3.46,1.52,3.44-.42,3.46-.58,3.44,.82,3.46-.66,3.44-.4,3.46-.06,3.46,1.22,3.46-.68,3.44-1.22,3.46,1.68,3.46-1.24,3.46,.86,3.44-.9,3.46,.04,3.46,.86,3.46,.18,3.46-1.5,3.46-.3,3.48,.92" fill="#005c5a"/><path d="M211.21,222.63l3.46,1.78,3.44-1.72,3.46-.18,3.46,2.12,3.42-2.24,3.46,.46,3.44,1.54h3.44l3.44-.66,3.46,.22,3.44-1.16,3.46,.86,3.44-.84,3.46,1.52,3.44-.42,3.46-.58,3.44,.82,3.46-.66,3.44-.4,3.46-.06,3.46,1.22,3.46-.68,3.44-1.22,3.46,1.68,3.46-1.24,3.46,.86,3.44-.9,3.46,.04,3.46,.86,3.46,.18,3.46-1.5,3.46-.3,3.48,.92" fill="none" stroke="#005c5a" stroke-miterlimit="10"/></g></g><path d="M394,6.8h-114.54V41.04h114.54V6.8Z" fill="#fde84f"/><path d="M394,1.49h-114.54V6.8h114.54V1.49Z" fill="#005c5a"/><path d="M292.4,36.72c1.65,0,2.98-1.39,2.98-3.1s-1.34-3.1-2.98-3.1-2.98,1.39-2.98,3.1,1.34,3.1,2.98,3.1Z" fill="#cf942b"/><path d="M339.94,31.1c1.77,0,3.21-1.5,3.21-3.34s-1.44-3.34-3.21-3.34-3.21,1.5-3.21,3.34,1.44,3.34,3.21,3.34Z" fill="#cf942b"/><path d="M303,23.62c1.77,0,3.21-1.5,3.21-3.34s-1.44-3.34-3.21-3.34-3.21,1.49-3.21,3.34,1.44,3.34,3.21,3.34Z" fill="#cf942b"/><path d="M376.01,23.62c1.78,0,3.22-1.5,3.22-3.34s-1.44-3.34-3.22-3.34-3.21,1.49-3.21,3.34,1.44,3.34,3.21,3.34Z" fill="#cf942b"/><path d="M316.12,14.76c.78,0,1.4-.65,1.4-1.46s-.63-1.46-1.4-1.46-1.4,.65-1.4,1.46,.63,1.46,1.4,1.46Z" fill="#cf942b"/><path d="M374.61,35.88c.78,0,1.4-.65,1.4-1.46s-.63-1.46-1.4-1.46-1.41,.65-1.41,1.46,.63,1.46,1.41,1.46Z" fill="#cf942b"/><path d="M352.31,23.2c.78,0,1.4-.65,1.4-1.46s-.63-1.46-1.4-1.46-1.4,.65-1.4,1.46,.63,1.46,1.4,1.46Z" fill="#cf942b"/><path d="M333.42,17.96c.78,0,1.4-.65,1.4-1.46s-.63-1.46-1.4-1.46-1.4,.65-1.4,1.46,.63,1.46,1.4,1.46Z" fill="#cf942b"/><path d="M319.84,27.76c1.27,0,2.31-1.07,2.31-2.4s-1.03-2.4-2.31-2.4-2.31,1.07-2.31,2.4,1.03,2.4,2.31,2.4Z" fill="#cf942b"/><path d="M326.44,36.02c1.28,0,2.31-1.07,2.31-2.4s-1.03-2.4-2.31-2.4-2.31,1.07-2.31,2.4,1.03,2.4,2.31,2.4Z" fill="#cf942b"/><path d="M343.96,18.1c1.27,0,2.31-1.07,2.31-2.4s-1.03-2.4-2.31-2.4-2.31,1.07-2.31,2.4,1.03,2.4,2.31,2.4Z" fill="#cf942b"/><path d="M386.21,32.92c1.28,0,2.31-1.07,2.31-2.4s-1.03-2.4-2.31-2.4-2.31,1.07-2.31,2.4,1.03,2.4,2.31,2.4Z" fill="#cf942b"/><path d="M365.13,15.7c1.27,0,2.31-1.07,2.31-2.4s-1.04-2.4-2.31-2.4-2.31,1.07-2.31,2.4,1.04,2.4,2.31,2.4Z" fill="#cf942b"/><path d="M386.21,18.1c1.28,0,2.31-1.07,2.31-2.4s-1.03-2.4-2.31-2.4-2.31,1.07-2.31,2.4,1.03,2.4,2.31,2.4Z" fill="#cf942b"/><path d="M359.37,34.44c1.28,0,2.31-1.07,2.31-2.4s-1.04-2.4-2.31-2.4-2.31,1.07-2.31,2.4,1.04,2.4,2.31,2.4Z" fill="#cf942b"/><path d="M289.42,15.22c.78,0,1.4-.65,1.4-1.46s-.63-1.46-1.4-1.46-1.4,.65-1.4,1.46,.63,1.46,1.4,1.46Z" fill="#cf942b"/><path d="M279.96,1.11l3.46,1.78,3.44-1.72,3.46-.18,3.46,2.12,3.42-2.24,3.46,.46,3.44,1.54h3.44l3.44-.66,3.46,.22,3.44-1.16,3.46,.86,3.44-.84,3.46,1.52,3.44-.42,3.46-.58,3.44,.82,3.46-.66,3.44-.4,3.46-.06,3.46,1.22,3.46-.68,3.44-1.22,3.46,1.68,3.46-1.24,3.46,.86,3.45-.9,3.46,.04,3.46,.86,3.46,.18,3.46-1.5,3.46-.3,3.48,.92" fill="#005c5a"/><path d="M279.96,1.11l3.46,1.78,3.44-1.72,3.46-.18,3.46,2.12,3.42-2.24,3.46,.46,3.44,1.54h3.44l3.44-.66,3.46,.22,3.44-1.16,3.46,.86,3.44-.84,3.46,1.52,3.44-.42,3.46-.58,3.44,.82,3.46-.66,3.44-.4,3.46-.06,3.46,1.22,3.46-.68,3.44-1.22,3.46,1.68,3.46-1.24,3.46,.86,3.45-.9,3.46,.04,3.46,.86,3.46,.18,3.46-1.5,3.46-.3,3.48,.92" fill="none" stroke="#005c5a" stroke-miterlimit="10"/><path d="M325.89,155.76h-112v34.24h112v-34.24Z" fill="#fde84f"/><path d="M325.89,150.44h-112v5.32h112v-5.32Z" fill="#005c5a"/><path d="M226.55,185.68c1.61,0,2.92-1.39,2.92-3.1s-1.31-3.1-2.92-3.1-2.92,1.39-2.92,3.1,1.31,3.1,2.92,3.1Z" fill="#cf942b"/><path d="M273.03,180.06c1.73,0,3.14-1.5,3.14-3.34s-1.41-3.34-3.14-3.34-3.14,1.5-3.14,3.34,1.41,3.34,3.14,3.34Z" fill="#cf942b"/><path d="M236.91,172.58c1.74,0,3.14-1.5,3.14-3.34s-1.41-3.34-3.14-3.34-3.14,1.49-3.14,3.34,1.41,3.34,3.14,3.34Z" fill="#cf942b"/><path d="M308.3,172.58c1.73,0,3.14-1.5,3.14-3.34s-1.41-3.34-3.14-3.34-3.14,1.49-3.14,3.34,1.41,3.34,3.14,3.34Z" fill="#cf942b"/><path d="M249.74,163.72c.76,0,1.37-.65,1.37-1.46s-.61-1.46-1.37-1.46-1.37,.65-1.37,1.46,.61,1.46,1.37,1.46Z" fill="#cf942b"/><path d="M306.93,184.84c.76,0,1.37-.65,1.37-1.46s-.61-1.46-1.37-1.46-1.37,.65-1.37,1.46,.61,1.46,1.37,1.46Z" fill="#cf942b"/><path d="M285.12,172.16c.76,0,1.37-.65,1.37-1.46s-.61-1.46-1.37-1.46-1.37,.65-1.37,1.46,.61,1.46,1.37,1.46Z" fill="#cf942b"/><path d="M266.65,166.92c.76,0,1.37-.65,1.37-1.46s-.61-1.46-1.37-1.46-1.37,.65-1.37,1.46,.61,1.46,1.37,1.46Z" fill="#cf942b"/><path d="M253.37,176.72c1.25,0,2.26-1.07,2.26-2.4s-1.01-2.4-2.26-2.4-2.26,1.07-2.26,2.4,1.01,2.4,2.26,2.4Z" fill="#cf942b"/><path d="M259.82,184.98c1.25,0,2.26-1.07,2.26-2.4s-1.01-2.4-2.26-2.4-2.26,1.07-2.26,2.4,1.01,2.4,2.26,2.4Z" fill="#cf942b"/><path d="M276.96,167.06c1.25,0,2.26-1.07,2.26-2.4s-1.01-2.4-2.26-2.4-2.26,1.07-2.26,2.4,1.01,2.4,2.26,2.4Z" fill="#cf942b"/><path d="M318.27,181.88c1.25,0,2.26-1.07,2.26-2.4s-1.01-2.4-2.26-2.4-2.26,1.07-2.26,2.4,1.01,2.4,2.26,2.4Z" fill="#cf942b"/><path d="M297.65,164.66c1.25,0,2.26-1.07,2.26-2.4s-1.01-2.4-2.26-2.4-2.26,1.07-2.26,2.4,1.01,2.4,2.26,2.4Z" fill="#cf942b"/><path d="M318.27,167.06c1.25,0,2.26-1.07,2.26-2.4s-1.01-2.4-2.26-2.4-2.26,1.07-2.26,2.4,1.01,2.4,2.26,2.4Z" fill="#cf942b"/><path d="M292.03,183.4c1.25,0,2.26-1.07,2.26-2.4s-1.01-2.4-2.26-2.4-2.26,1.07-2.26,2.4,1.01,2.4,2.26,2.4Z" fill="#cf942b"/><path d="M223.63,164.18c.76,0,1.37-.65,1.37-1.46s-.61-1.46-1.37-1.46-1.37,.65-1.37,1.46,.61,1.46,1.37,1.46Z" fill="#cf942b"/><path d="M214.38,150.06l3.39,1.78,3.37-1.72,3.39-.18,3.39,2.12,3.35-2.24,3.39,.46,3.37,1.54h3.37l3.37-.66,3.39,.22,3.37-1.16,3.39,.86,3.37-.84,3.39,1.52,3.37-.42,3.39-.58,3.37,.82,3.39-.66,3.37-.4,3.39-.06,3.39,1.22,3.39-.68,3.37-1.22,3.39,1.68,3.39-1.24,3.39,.86,3.37-.9,3.39,.04,3.39,.86,3.39,.18,3.39-1.5,3.39-.3,3.4,.92" fill="#005c5a"/><path d="M214.38,150.06l3.39,1.78,3.37-1.72,3.39-.18,3.39,2.12,3.35-2.24,3.39,.46,3.37,1.54h3.37l3.37-.66,3.39,.22,3.37-1.16,3.39,.86,3.37-.84,3.39,1.52,3.37-.42,3.39-.58,3.37,.82,3.39-.66,3.37-.4,3.39-.06,3.39,1.22,3.39-.68,3.37-1.22,3.39,1.68,3.39-1.24,3.39,.86,3.37-.9,3.39,.04,3.39,.86,3.39,.18,3.39-1.5,3.39-.3,3.4,.92" fill="none" stroke="#005c5a" stroke-miterlimit="10"/><path d="M112,83.19H0v34.24H112v-34.24Z" fill="#fde84f"/><path d="M112,77.87H0v5.32H112v-5.32Z" fill="#005c5a"/><path d="M12.66,113.11c1.61,0,2.92-1.39,2.92-3.1s-1.31-3.1-2.92-3.1-2.92,1.39-2.92,3.1,1.31,3.1,2.92,3.1Z" fill="#cf942b"/><path d="M59.14,107.49c1.73,0,3.14-1.5,3.14-3.34s-1.41-3.34-3.14-3.34-3.14,1.5-3.14,3.34,1.41,3.34,3.14,3.34Z" fill="#cf942b"/><path d="M23.02,100.01c1.74,0,3.14-1.5,3.14-3.34s-1.41-3.34-3.14-3.34-3.14,1.49-3.14,3.34,1.41,3.34,3.14,3.34Z" fill="#cf942b"/><path d="M94.41,100.01c1.73,0,3.14-1.5,3.14-3.34s-1.41-3.34-3.14-3.34-3.14,1.49-3.14,3.34,1.41,3.34,3.14,3.34Z" fill="#cf942b"/><path d="M35.85,91.15c.76,0,1.37-.65,1.37-1.46s-.61-1.46-1.37-1.46-1.37,.65-1.37,1.46,.61,1.46,1.37,1.46Z" fill="#cf942b"/><path d="M93.04,112.27c.76,0,1.37-.65,1.37-1.46s-.61-1.46-1.37-1.46-1.37,.65-1.37,1.46,.61,1.46,1.37,1.46Z" fill="#cf942b"/><path d="M71.24,99.59c.76,0,1.37-.65,1.37-1.46s-.61-1.46-1.37-1.46-1.37,.65-1.37,1.46,.61,1.46,1.37,1.46Z" fill="#cf942b"/><path d="M52.76,94.35c.76,0,1.37-.65,1.37-1.46s-.61-1.46-1.37-1.46-1.37,.65-1.37,1.46,.61,1.46,1.37,1.46Z" fill="#cf942b"/><path d="M39.48,104.15c1.25,0,2.26-1.07,2.26-2.4s-1.01-2.4-2.26-2.4-2.26,1.07-2.26,2.4,1.01,2.4,2.26,2.4Z" fill="#cf942b"/><path d="M45.94,112.41c1.25,0,2.26-1.07,2.26-2.4s-1.01-2.4-2.26-2.4-2.26,1.07-2.26,2.4,1.01,2.4,2.26,2.4Z" fill="#cf942b"/><path d="M63.07,94.49c1.25,0,2.26-1.07,2.26-2.4s-1.01-2.4-2.26-2.4-2.26,1.07-2.26,2.4,1.01,2.4,2.26,2.4Z" fill="#cf942b"/><path d="M104.38,109.31c1.25,0,2.26-1.07,2.26-2.4s-1.01-2.4-2.26-2.4-2.26,1.07-2.26,2.4,1.01,2.4,2.26,2.4Z" fill="#cf942b"/><path d="M83.76,92.09c1.25,0,2.26-1.07,2.26-2.4s-1.01-2.4-2.26-2.4-2.26,1.07-2.26,2.4,1.01,2.4,2.26,2.4Z" fill="#cf942b"/><path d="M104.38,94.49c1.25,0,2.26-1.07,2.26-2.4s-1.01-2.4-2.26-2.4-2.26,1.07-2.26,2.4,1.01,2.4,2.26,2.4Z" fill="#cf942b"/><path d="M78.14,110.83c1.25,0,2.26-1.07,2.26-2.4s-1.01-2.4-2.26-2.4-2.26,1.07-2.26,2.4,1.01,2.4,2.26,2.4Z" fill="#cf942b"/><path d="M9.74,91.61c.76,0,1.37-.65,1.37-1.46s-.61-1.46-1.37-1.46-1.37,.65-1.37,1.46,.61,1.46,1.37,1.46Z" fill="#cf942b"/><path d="M.49,77.49l3.39,1.78,3.37-1.72,3.39-.18,3.39,2.12,3.35-2.24,3.39,.46,3.37,1.54h3.37l3.37-.66,3.39,.22,3.37-1.16,3.39,.86,3.37-.84,3.39,1.52,3.37-.42,3.39-.58,3.37,.82,3.39-.66,3.37-.4,3.39-.06,3.39,1.22,3.39-.68,3.37-1.22,3.39,1.68,3.39-1.24,3.39,.86,3.37-.9,3.39,.04,3.39,.86,3.39,.18,3.39-1.5,3.39-.3,3.4,.92" fill="#005c5a"/><path d="M.49,77.49l3.39,1.78,3.37-1.72,3.39-.18,3.39,2.12,3.35-2.24,3.39,.46,3.37,1.54h3.37l3.37-.66,3.39,.22,3.37-1.16,3.39,.86,3.37-.84,3.39,1.52,3.37-.42,3.39-.58,3.37,.82,3.39-.66,3.37-.4,3.39-.06,3.39,1.22,3.39-.68,3.37-1.22,3.39,1.68,3.39-1.24,3.39,.86,3.37-.9,3.39,.04,3.39,.86,3.39,.18,3.39-1.5,3.39-.3,3.4,.92" fill="none" stroke="#005c5a" stroke-miterlimit="10"/><path d="M394,83.19h-114.54v34.24h114.54v-34.24Z" fill="#fde84f"/><path d="M394,77.87h-114.54v5.32h114.54v-5.32Z" fill="#005c5a"/><path d="M292.4,113.11c1.65,0,2.98-1.39,2.98-3.1s-1.34-3.1-2.98-3.1-2.98,1.39-2.98,3.1,1.34,3.1,2.98,3.1Z" fill="#cf942b"/><path d="M339.94,107.49c1.77,0,3.21-1.5,3.21-3.34s-1.44-3.34-3.21-3.34-3.21,1.5-3.21,3.34,1.44,3.34,3.21,3.34Z" fill="#cf942b"/><path d="M303,100.01c1.77,0,3.21-1.5,3.21-3.34s-1.44-3.34-3.21-3.34-3.21,1.49-3.21,3.34,1.44,3.34,3.21,3.34Z" fill="#cf942b"/><path d="M376.01,100.01c1.78,0,3.22-1.5,3.22-3.34s-1.44-3.34-3.22-3.34-3.21,1.49-3.21,3.34,1.44,3.34,3.21,3.34Z" fill="#cf942b"/><path d="M316.12,91.15c.78,0,1.4-.65,1.4-1.46s-.63-1.46-1.4-1.46-1.4,.65-1.4,1.46,.63,1.46,1.4,1.46Z" fill="#cf942b"/><path d="M374.61,112.27c.78,0,1.4-.65,1.4-1.46s-.63-1.46-1.4-1.46-1.41,.65-1.41,1.46,.63,1.46,1.41,1.46Z" fill="#cf942b"/><path d="M352.31,99.59c.78,0,1.4-.65,1.4-1.46s-.63-1.46-1.4-1.46-1.4,.65-1.4,1.46,.63,1.46,1.4,1.46Z" fill="#cf942b"/><path d="M333.42,94.35c.78,0,1.4-.65,1.4-1.46s-.63-1.46-1.4-1.46-1.4,.65-1.4,1.46,.63,1.46,1.4,1.46Z" fill="#cf942b"/><path d="M319.84,104.15c1.27,0,2.31-1.07,2.31-2.4s-1.03-2.4-2.31-2.4-2.31,1.07-2.31,2.4,1.03,2.4,2.31,2.4Z" fill="#cf942b"/><path d="M326.44,112.41c1.28,0,2.31-1.07,2.31-2.4s-1.03-2.4-2.31-2.4-2.31,1.07-2.31,2.4,1.03,2.4,2.31,2.4Z" fill="#cf942b"/><path d="M343.96,94.49c1.27,0,2.31-1.07,2.31-2.4s-1.03-2.4-2.31-2.4-2.31,1.07-2.31,2.4,1.03,2.4,2.31,2.4Z" fill="#cf942b"/><path d="M386.21,109.31c1.28,0,2.31-1.07,2.31-2.4s-1.03-2.4-2.31-2.4-2.31,1.07-2.31,2.4,1.03,2.4,2.31,2.4Z" fill="#cf942b"/><path d="M365.13,92.09c1.27,0,2.31-1.07,2.31-2.4s-1.04-2.4-2.31-2.4-2.31,1.07-2.31,2.4,1.04,2.4,2.31,2.4Z" fill="#cf942b"/><path d="M386.21,94.49c1.28,0,2.31-1.07,2.31-2.4s-1.03-2.4-2.31-2.4-2.31,1.07-2.31,2.4,1.03,2.4,2.31,2.4Z" fill="#cf942b"/><path d="M359.37,110.83c1.28,0,2.31-1.07,2.31-2.4s-1.04-2.4-2.31-2.4-2.31,1.07-2.31,2.4,1.04,2.4,2.31,2.4Z" fill="#cf942b"/><path d="M289.42,91.61c.78,0,1.4-.65,1.4-1.46s-.63-1.46-1.4-1.46-1.4,.65-1.4,1.46,.63,1.46,1.4,1.46Z" fill="#cf942b"/><path d="M279.96,77.49l3.46,1.78,3.44-1.72,3.46-.18,3.46,2.12,3.42-2.24,3.46,.46,3.44,1.54h3.44l3.44-.66,3.46,.22,3.44-1.16,3.46,.86,3.44-.84,3.46,1.52,3.44-.42,3.46-.58,3.44,.82,3.46-.66,3.44-.4,3.46-.06,3.46,1.22,3.46-.68,3.44-1.22,3.46,1.68,3.46-1.24,3.46,.86,3.45-.9,3.46,.04,3.46,.86,3.46,.18,3.46-1.5,3.46-.3,3.48,.92" fill="#005c5a"/><path d="M279.96,77.49l3.46,1.78,3.44-1.72,3.46-.18,3.46,2.12,3.42-2.24,3.46,.46,3.44,1.54h3.44l3.44-.66,3.46,.22,3.44-1.16,3.46,.86,3.44-.84,3.46,1.52,3.44-.42,3.46-.58,3.44,.82,3.46-.66,3.44-.4,3.46-.06,3.46,1.22,3.46-.68,3.44-1.22,3.46,1.68,3.46-1.24,3.46,.86,3.45-.9,3.46,.04,3.46,.86,3.46,.18,3.46-1.5,3.46-.3,3.48,.92" fill="none" stroke="#005c5a" stroke-miterlimit="10"/><path d="M253.32,6.8h-112V41.04h112V6.8Z" fill="#fde84f"/><path d="M253.32,1.49h-112V6.8h112V1.49Z" fill="#005c5a"/><path d="M153.98,36.72c1.61,0,2.92-1.39,2.92-3.1s-1.31-3.1-2.92-3.1-2.92,1.39-2.92,3.1,1.31,3.1,2.92,3.1Z" fill="#cf942b"/><path d="M200.46,31.1c1.73,0,3.14-1.5,3.14-3.34s-1.41-3.34-3.14-3.34-3.14,1.5-3.14,3.34,1.41,3.34,3.14,3.34Z" fill="#cf942b"/><path d="M164.34,23.62c1.74,0,3.14-1.5,3.14-3.34s-1.41-3.34-3.14-3.34-3.14,1.49-3.14,3.34,1.41,3.34,3.14,3.34Z" fill="#cf942b"/><path d="M235.73,23.62c1.73,0,3.14-1.5,3.14-3.34s-1.41-3.34-3.14-3.34-3.14,1.49-3.14,3.34,1.41,3.34,3.14,3.34Z" fill="#cf942b"/><path d="M177.17,14.76c.76,0,1.37-.65,1.37-1.46s-.61-1.46-1.37-1.46-1.37,.65-1.37,1.46,.61,1.46,1.37,1.46Z" fill="#cf942b"/><path d="M234.36,35.88c.76,0,1.37-.65,1.37-1.46s-.61-1.46-1.37-1.46-1.37,.65-1.37,1.46,.61,1.46,1.37,1.46Z" fill="#cf942b"/><path d="M212.56,23.2c.76,0,1.37-.65,1.37-1.46s-.61-1.46-1.37-1.46-1.37,.65-1.37,1.46,.61,1.46,1.37,1.46Z" fill="#cf942b"/><path d="M194.08,17.96c.76,0,1.37-.65,1.37-1.46s-.61-1.46-1.37-1.46-1.37,.65-1.37,1.46,.61,1.46,1.37,1.46Z" fill="#cf942b"/><path d="M180.8,27.76c1.25,0,2.26-1.07,2.26-2.4s-1.01-2.4-2.26-2.4-2.26,1.07-2.26,2.4,1.01,2.4,2.26,2.4Z" fill="#cf942b"/><path d="M187.25,36.02c1.25,0,2.26-1.07,2.26-2.4s-1.01-2.4-2.26-2.4-2.26,1.07-2.26,2.4,1.01,2.4,2.26,2.4Z" fill="#cf942b"/><path d="M204.39,18.1c1.25,0,2.26-1.07,2.26-2.4s-1.01-2.4-2.26-2.4-2.26,1.07-2.26,2.4,1.01,2.4,2.26,2.4Z" fill="#cf942b"/><path d="M245.7,32.92c1.25,0,2.26-1.07,2.26-2.4s-1.01-2.4-2.26-2.4-2.26,1.07-2.26,2.4,1.01,2.4,2.26,2.4Z" fill="#cf942b"/><path d="M225.08,15.7c1.25,0,2.26-1.07,2.26-2.4s-1.01-2.4-2.26-2.4-2.26,1.07-2.26,2.4,1.01,2.4,2.26,2.4Z" fill="#cf942b"/><path d="M245.7,18.1c1.25,0,2.26-1.07,2.26-2.4s-1.01-2.4-2.26-2.4-2.26,1.07-2.26,2.4,1.01,2.4,2.26,2.4Z" fill="#cf942b"/><path d="M219.46,34.44c1.25,0,2.26-1.07,2.26-2.4s-1.01-2.4-2.26-2.4-2.26,1.07-2.26,2.4,1.01,2.4,2.26,2.4Z" fill="#cf942b"/><path d="M151.06,15.22c.76,0,1.37-.65,1.37-1.46s-.61-1.46-1.37-1.46-1.37,.65-1.37,1.46,.61,1.46,1.37,1.46Z" fill="#cf942b"/><path d="M141.81,1.11l3.39,1.78,3.37-1.72,3.39-.18,3.39,2.12,3.35-2.24,3.39,.46,3.37,1.54h3.37l3.37-.66,3.39,.22,3.37-1.16,3.39,.86,3.37-.84,3.39,1.52,3.37-.42,3.39-.58,3.37,.82,3.39-.66,3.37-.4,3.39-.06,3.39,1.22,3.39-.68,3.37-1.22,3.39,1.68,3.39-1.24,3.39,.86,3.37-.9,3.39,.04,3.39,.86,3.39,.18,3.39-1.5,3.39-.3,3.4,.92" fill="#005c5a"/><path d="M141.81,1.11l3.39,1.78,3.37-1.72,3.39-.18,3.39,2.12,3.35-2.24,3.39,.46,3.37,1.54h3.37l3.37-.66,3.39,.22,3.37-1.16,3.39,.86,3.37-.84,3.39,1.52,3.37-.42,3.39-.58,3.37,.82,3.39-.66,3.37-.4,3.39-.06,3.39,1.22,3.39-.68,3.37-1.22,3.39,1.68,3.39-1.24,3.39,.86,3.37-.9,3.39,.04,3.39,.86,3.39,.18,3.39-1.5,3.39-.3,3.4,.92" fill="none" stroke="#005c5a" stroke-miterlimit="10"/><path d="M180.11,228.33H65.57v34.24h114.54v-34.24Z" fill="#fde84f"/><path d="M180.11,223.01H65.57v5.32h114.54v-5.32Z" fill="#005c5a"/><path d="M78.51,258.25c1.65,0,2.98-1.39,2.98-3.1s-1.34-3.1-2.98-3.1-2.98,1.39-2.98,3.1,1.34,3.1,2.98,3.1Z" fill="#cf942b"/><path d="M126.05,252.63c1.77,0,3.21-1.5,3.21-3.34s-1.44-3.34-3.21-3.34-3.21,1.5-3.21,3.34,1.44,3.34,3.21,3.34Z" fill="#cf942b"/><path d="M89.12,245.15c1.77,0,3.21-1.5,3.21-3.34s-1.44-3.34-3.21-3.34-3.21,1.49-3.21,3.34,1.44,3.34,3.21,3.34Z" fill="#cf942b"/><path d="M162.12,245.15c1.77,0,3.21-1.5,3.21-3.34s-1.44-3.34-3.21-3.34-3.21,1.49-3.21,3.34,1.44,3.34,3.21,3.34Z" fill="#cf942b"/><path d="M102.24,236.29c.78,0,1.4-.65,1.4-1.46s-.63-1.46-1.4-1.46-1.4,.65-1.4,1.46,.63,1.46,1.4,1.46Z" fill="#cf942b"/><path d="M160.72,257.41c.78,0,1.4-.65,1.4-1.46s-.63-1.46-1.4-1.46-1.4,.65-1.4,1.46,.63,1.46,1.4,1.46Z" fill="#cf942b"/><path d="M138.42,244.73c.78,0,1.4-.65,1.4-1.46s-.63-1.46-1.4-1.46-1.4,.65-1.4,1.46,.63,1.46,1.4,1.46Z" fill="#cf942b"/><path d="M119.53,239.49c.78,0,1.4-.65,1.4-1.46s-.63-1.46-1.4-1.46-1.4,.65-1.4,1.46,.63,1.46,1.4,1.46Z" fill="#cf942b"/><path d="M105.95,249.29c1.27,0,2.31-1.07,2.31-2.4s-1.03-2.4-2.31-2.4-2.31,1.07-2.31,2.4,1.03,2.4,2.31,2.4Z" fill="#cf942b"/><path d="M112.55,257.55c1.28,0,2.31-1.07,2.31-2.4s-1.03-2.4-2.31-2.4-2.31,1.07-2.31,2.4,1.03,2.4,2.31,2.4Z" fill="#cf942b"/><path d="M130.07,239.63c1.27,0,2.31-1.07,2.31-2.4s-1.03-2.4-2.31-2.4-2.31,1.07-2.31,2.4,1.03,2.4,2.31,2.4Z" fill="#cf942b"/><path d="M172.32,254.45c1.27,0,2.31-1.07,2.31-2.4s-1.03-2.4-2.31-2.4-2.31,1.07-2.31,2.4,1.03,2.4,2.31,2.4Z" fill="#cf942b"/><path d="M151.24,237.23c1.27,0,2.31-1.07,2.31-2.4s-1.03-2.4-2.31-2.4-2.31,1.07-2.31,2.4,1.03,2.4,2.31,2.4Z" fill="#cf942b"/><path d="M172.32,239.63c1.27,0,2.31-1.07,2.31-2.4s-1.03-2.4-2.31-2.4-2.31,1.07-2.31,2.4,1.03,2.4,2.31,2.4Z" fill="#cf942b"/><path d="M145.48,255.97c1.27,0,2.31-1.07,2.31-2.4s-1.03-2.4-2.31-2.4-2.31,1.07-2.31,2.4,1.03,2.4,2.31,2.4Z" fill="#cf942b"/><path d="M75.53,236.75c.78,0,1.4-.65,1.4-1.46s-.63-1.46-1.4-1.46-1.4,.65-1.4,1.46,.63,1.46,1.4,1.46Z" fill="#cf942b"/><path d="M66.07,222.63l3.46,1.78,3.44-1.72,3.46-.18,3.46,2.12,3.42-2.24,3.46,.46,3.44,1.54h3.44l3.44-.66,3.46,.22,3.44-1.16,3.46,.86,3.44-.84,3.46,1.52,3.44-.42,3.46-.58,3.44,.82,3.46-.66,3.44-.4,3.46-.06,3.46,1.22,3.46-.68,3.44-1.22,3.46,1.68,3.46-1.24,3.46,.86,3.44-.9,3.46,.04,3.46,.86,3.46,.18,3.46-1.5,3.46-.3,3.48,.92" fill="#005c5a"/><path d="M66.07,222.63l3.46,1.78,3.44-1.72,3.46-.18,3.46,2.12,3.42-2.24,3.46,.46,3.44,1.54h3.44l3.44-.66,3.46,.22,3.44-1.16,3.46,.86,3.44-.84,3.46,1.52,3.44-.42,3.46-.58,3.44,.82,3.46-.66,3.44-.4,3.46-.06,3.46,1.22,3.46-.68,3.44-1.22,3.46,1.68,3.46-1.24,3.46,.86,3.44-.9,3.46,.04,3.46,.86,3.46,.18,3.46-1.5,3.46-.3,3.48,.92" fill="none" stroke="#005c5a" stroke-miterlimit="10"/></g></g></g></svg>