<?xml version="1.0" encoding="UTF-8"?><svg id="b" xmlns="http://www.w3.org/2000/svg" viewBox="0 0 249.5 305"><g id="c"><path d="m19.19,54.76c.73,0,1.46-1.25,2.17-1.25-.73,0-1.46,1.25-2.17,1.25Z" fill="#242222" stroke-width="0"/><path d="m17.73,61.31c9.79,0,17.73-13.72,17.73-30.66S27.53,0,17.73,0,0,13.72,0,30.66s7.94,30.66,17.73,30.66Z" fill="#b5b5b5" stroke-width="0"/><path d="m13.26,140.45c.2-6.14.23-57.2-.69-74.56-.05-.99-.33-3.46-.47-4.64-.05-.42-.23-.82-.52-1.13l-2.3-2.51,1.9-2.68,1.39-2.44h10.37l3.46,4.9s-2.52,2.02-2.95,2.91c-.6,1.26-.53,4.17-.51,5.57.18,17.16.02,66.81,0,72.02,0,.38-.02.75-.07,1.12-.13,1.08-.65,3.1-1.51,4.14-.68.83-2.59,1.31-3.66,1.32-1.13,0-3.52-.54-4.44-4.02" fill="#b5b5b5" stroke-width="0"/><path d="m17.47,60c8.85,0,16.02-13.04,16.02-29.12S26.32,1.76,17.47,1.76,1.44,14.8,1.44,30.88s7.17,29.12,16.02,29.12Z" fill="#9c9c9c" stroke-width="0"/><path d="m29.2,30.88c0-11.54-4.55-20.9-6.55-20.9s2.65,9.36,2.65,20.9-4.65,20.9-2.65,20.9,6.55-9.36,6.55-20.9Z" fill="#ababab" stroke-width="0"/><path d="m72.7,54.76c.73,0,1.46-1.25,2.17-1.25-.73,0-1.46,1.25-2.17,1.25Z" fill="#242222" stroke-width="0"/><path d="m71.24,61.31c9.79,0,17.73-13.72,17.73-30.66S81.04,0,71.24,0s-17.73,13.72-17.73,30.66,7.94,30.66,17.73,30.66Z" fill="#b5b5b5" stroke-width="0"/><path d="m66.77,140.45c.2-6.14.23-57.2-.69-74.56-.05-.99-.33-3.46-.47-4.64-.05-.42-.23-.82-.52-1.13l-2.3-2.51,1.9-2.68,1.39-2.44h10.37l3.46,4.9s-2.52,2.02-2.95,2.91c-.6,1.26-.53,4.17-.51,5.57.18,17.16.02,66.81,0,72.02,0,.38-.02.75-.07,1.12-.13,1.08-.65,3.1-1.51,4.14-.68.83-2.59,1.31-3.66,1.32-1.13,0-3.52-.54-4.44-4.02" fill="#b5b5b5" stroke-width="0"/><path d="m70.98,60c8.85,0,16.02-13.04,16.02-29.12S79.83,1.76,70.98,1.76s-16.02,13.04-16.02,29.12,7.17,29.12,16.02,29.12Z" fill="#9c9c9c" stroke-width="0"/><path d="m82.7,30.88c0-11.54-4.55-20.9-6.55-20.9s2.65,9.36,2.65,20.9-4.65,20.9-2.65,20.9,6.55-9.36,6.55-20.9Z" fill="#ababab" stroke-width="0"/><path d="m179.71,54.76c.73,0,1.46-1.25,2.17-1.25-.73,0-1.46,1.25-2.17,1.25Z" fill="#242222" stroke-width="0"/><path d="m178.26,61.31c9.79,0,17.73-13.72,17.73-30.66S188.05,0,178.26,0s-17.73,13.72-17.73,30.66,7.94,30.66,17.73,30.66Z" fill="#b5b5b5" stroke-width="0"/><path d="m173.79,140.45c.2-6.14.23-57.2-.69-74.56-.05-.99-.33-3.46-.47-4.64-.05-.42-.23-.82-.52-1.13l-2.3-2.51,1.9-2.68,1.39-2.44h10.37l3.46,4.9s-2.52,2.02-2.95,2.91c-.6,1.26-.53,4.17-.51,5.57.18,17.16.02,66.81,0,72.02,0,.38-.02.75-.07,1.12-.13,1.08-.65,3.1-1.51,4.14-.68.83-2.59,1.31-3.66,1.32-1.13,0-3.52-.54-4.44-4.02" fill="#b5b5b5" stroke-width="0"/><path d="m177.99,60c8.85,0,16.02-13.04,16.02-29.12s-7.17-29.12-16.02-29.12-16.02,13.04-16.02,29.12,7.17,29.12,16.02,29.12Z" fill="#9c9c9c" stroke-width="0"/><path d="m189.72,30.88c0-11.54-4.55-20.9-6.55-20.9s2.65,9.36,2.65,20.9-4.65,20.9-2.65,20.9,6.55-9.36,6.55-20.9Z" fill="#ababab" stroke-width="0"/><path d="m233.22,54.76c.73,0,1.46-1.25,2.17-1.25-.73,0-1.46,1.25-2.17,1.25Z" fill="#242222" stroke-width="0"/><path d="m231.77,61.31c9.79,0,17.73-13.72,17.73-30.66S241.56,0,231.77,0s-17.73,13.72-17.73,30.66,7.94,30.66,17.73,30.66Z" fill="#b5b5b5" stroke-width="0"/><path d="m227.3,140.45c.19-6.14.23-57.2-.69-74.56-.05-.99-.33-3.46-.47-4.64-.05-.42-.23-.82-.52-1.13l-2.3-2.51,1.9-2.68,1.39-2.44h10.37l3.46,4.9s-2.52,2.02-2.95,2.91c-.6,1.26-.53,4.17-.51,5.57.18,17.16.02,66.81,0,72.02,0,.38-.02.75-.07,1.12-.12,1.08-.65,3.1-1.51,4.14-.68.83-2.59,1.31-3.66,1.32-1.13,0-3.52-.54-4.44-4.02" fill="#b5b5b5" stroke-width="0"/><path d="m231.5,60c8.85,0,16.02-13.04,16.02-29.12s-7.17-29.12-16.02-29.12-16.03,13.04-16.03,29.12,7.17,29.12,16.03,29.12Z" fill="#9c9c9c" stroke-width="0"/><path d="m243.23,30.88c0-11.54-4.55-20.9-6.55-20.9s2.65,9.36,2.65,20.9-4.65,20.9-2.65,20.9,6.55-9.36,6.55-20.9Z" fill="#ababab" stroke-width="0"/><path d="m126.2,54.76c.73,0,1.46-1.25,2.17-1.25-.73,0-1.46,1.25-2.17,1.25Z" fill="#242222" stroke-width="0"/><path d="m124.75,61.31c9.79,0,17.73-13.72,17.73-30.66S134.54,0,124.75,0s-17.73,13.72-17.73,30.66,7.94,30.66,17.73,30.66Z" fill="#b5b5b5" stroke-width="0"/><path d="m120.28,140.45c.2-6.14.23-57.2-.69-74.56-.05-.99-.33-3.46-.47-4.64-.05-.42-.23-.82-.52-1.13l-2.3-2.51,1.9-2.68,1.39-2.44h10.37l3.46,4.9s-2.52,2.02-2.95,2.91c-.6,1.26-.53,4.17-.51,5.57.18,17.16.02,66.81,0,72.02,0,.38-.02.75-.07,1.12-.13,1.08-.65,3.1-1.51,4.14-.68.83-2.59,1.31-3.66,1.32-1.13,0-3.52-.54-4.44-4.02" fill="#b5b5b5" stroke-width="0"/><path d="m124.49,60c8.85,0,16.02-13.04,16.02-29.12S133.34,1.76,124.49,1.76s-16.02,13.04-16.02,29.12,7.17,29.12,16.02,29.12Z" fill="#9c9c9c" stroke-width="0"/><path d="m136.21,30.88c0-11.54-4.55-20.9-6.55-20.9s2.65,9.36,2.65,20.9-4.65,20.9-2.65,20.9,6.55-9.36,6.55-20.9Z" fill="#ababab" stroke-width="0"/><path d="m19.19,215.28c.73,0,1.46-1.25,2.17-1.25-.73,0-1.46,1.25-2.17,1.25Z" fill="#242222" stroke-width="0"/><path d="m17.73,221.84c9.79,0,17.73-13.72,17.73-30.66s-7.94-30.66-17.73-30.66S0,174.25,0,191.18s7.94,30.66,17.73,30.66Z" fill="#b5b5b5" stroke-width="0"/><path d="m13.26,300.98c.2-6.14.23-57.2-.69-74.56-.05-.99-.33-3.46-.47-4.64-.05-.42-.23-.82-.52-1.13l-2.3-2.5,1.9-2.68,1.39-2.44h10.37l3.46,4.9s-2.52,2.02-2.95,2.91c-.6,1.26-.53,4.17-.51,5.57.18,17.16.02,66.81,0,72.02,0,.38-.02.75-.07,1.12-.13,1.08-.65,3.1-1.51,4.13-.68.83-2.59,1.31-3.66,1.32-1.13,0-3.52-.54-4.44-4.02" fill="#b5b5b5" stroke-width="0"/><path d="m17.47,220.53c8.85,0,16.02-13.04,16.02-29.12s-7.17-29.12-16.02-29.12S1.44,175.32,1.44,191.41s7.17,29.12,16.02,29.12Z" fill="#9c9c9c" stroke-width="0"/><path d="m29.2,191.41c0-11.54-4.55-20.9-6.55-20.9s2.65,9.36,2.65,20.9-4.65,20.9-2.65,20.9,6.55-9.36,6.55-20.9Z" fill="#ababab" stroke-width="0"/><path d="m72.7,215.28c.73,0,1.46-1.25,2.17-1.25-.73,0-1.46,1.25-2.17,1.25Z" fill="#242222" stroke-width="0"/><path d="m71.24,221.84c9.79,0,17.73-13.72,17.73-30.66s-7.94-30.66-17.73-30.66-17.73,13.72-17.73,30.66,7.94,30.66,17.73,30.66Z" fill="#b5b5b5" stroke-width="0"/><path d="m66.77,300.98c.2-6.14.23-57.2-.69-74.56-.05-.99-.33-3.46-.47-4.64-.05-.42-.23-.82-.52-1.13l-2.3-2.5,1.9-2.68,1.39-2.44h10.37l3.46,4.9s-2.52,2.02-2.95,2.91c-.6,1.26-.53,4.17-.51,5.57.18,17.16.02,66.81,0,72.02,0,.38-.02.75-.07,1.12-.13,1.08-.65,3.1-1.51,4.13-.68.83-2.59,1.31-3.66,1.32-1.13,0-3.52-.54-4.44-4.02" fill="#b5b5b5" stroke-width="0"/><path d="m70.98,220.53c8.85,0,16.02-13.04,16.02-29.12s-7.17-29.12-16.02-29.12-16.02,13.04-16.02,29.12,7.17,29.12,16.02,29.12Z" fill="#9c9c9c" stroke-width="0"/><path d="m82.7,191.41c0-11.54-4.55-20.9-6.55-20.9s2.65,9.36,2.65,20.9-4.65,20.9-2.65,20.9,6.55-9.36,6.55-20.9Z" fill="#ababab" stroke-width="0"/><path d="m179.71,215.28c.73,0,1.46-1.25,2.17-1.25-.73,0-1.46,1.25-2.17,1.25Z" fill="#242222" stroke-width="0"/><path d="m178.26,221.84c9.79,0,17.73-13.72,17.73-30.66s-7.94-30.66-17.73-30.66-17.73,13.72-17.73,30.66,7.94,30.66,17.73,30.66Z" fill="#b5b5b5" stroke-width="0"/><path d="m173.79,300.98c.2-6.14.23-57.2-.69-74.56-.05-.99-.33-3.46-.47-4.64-.05-.42-.23-.82-.52-1.13l-2.3-2.5,1.9-2.68,1.39-2.44h10.37l3.46,4.9s-2.52,2.02-2.95,2.91c-.6,1.26-.53,4.17-.51,5.57.18,17.16.02,66.81,0,72.02,0,.38-.02.75-.07,1.12-.13,1.08-.65,3.1-1.51,4.13-.68.83-2.59,1.31-3.66,1.32-1.13,0-3.52-.54-4.44-4.02" fill="#b5b5b5" stroke-width="0"/><path d="m177.99,220.53c8.85,0,16.02-13.04,16.02-29.12s-7.17-29.12-16.02-29.12-16.02,13.04-16.02,29.12,7.17,29.12,16.02,29.12Z" fill="#9c9c9c" stroke-width="0"/><path d="m189.72,191.41c0-11.54-4.55-20.9-6.55-20.9s2.65,9.36,2.65,20.9-4.65,20.9-2.65,20.9,6.55-9.36,6.55-20.9Z" fill="#ababab" stroke-width="0"/><path d="m233.22,215.28c.73,0,1.46-1.25,2.17-1.25-.73,0-1.46,1.25-2.17,1.25Z" fill="#242222" stroke-width="0"/><path d="m231.77,221.84c9.79,0,17.73-13.72,17.73-30.66s-7.94-30.66-17.73-30.66-17.73,13.72-17.73,30.66,7.94,30.66,17.73,30.66Z" fill="#b5b5b5" stroke-width="0"/><path d="m227.3,300.98c.19-6.14.23-57.2-.69-74.56-.05-.99-.33-3.46-.47-4.64-.05-.42-.23-.82-.52-1.13l-2.3-2.5,1.9-2.68,1.39-2.44h10.37l3.46,4.9s-2.52,2.02-2.95,2.91c-.6,1.26-.53,4.17-.51,5.57.18,17.16.02,66.81,0,72.02,0,.38-.02.75-.07,1.12-.12,1.08-.65,3.1-1.51,4.13-.68.83-2.59,1.31-3.66,1.32-1.13,0-3.52-.54-4.44-4.02" fill="#b5b5b5" stroke-width="0"/><path d="m231.5,220.53c8.85,0,16.02-13.04,16.02-29.12s-7.17-29.12-16.02-29.12-16.03,13.04-16.03,29.12,7.17,29.12,16.03,29.12Z" fill="#9c9c9c" stroke-width="0"/><path d="m243.23,191.41c0-11.54-4.55-20.9-6.55-20.9s2.65,9.36,2.65,20.9-4.65,20.9-2.65,20.9,6.55-9.36,6.55-20.9Z" fill="#ababab" stroke-width="0"/><path d="m126.2,215.28c.73,0,1.46-1.25,2.17-1.25-.73,0-1.46,1.25-2.17,1.25Z" fill="#242222" stroke-width="0"/><path d="m124.75,221.84c9.79,0,17.73-13.72,17.73-30.66s-7.94-30.66-17.73-30.66-17.73,13.72-17.73,30.66,7.94,30.66,17.73,30.66Z" fill="#b5b5b5" stroke-width="0"/><path d="m120.28,300.98c.2-6.14.23-57.2-.69-74.56-.05-.99-.33-3.46-.47-4.64-.05-.42-.23-.82-.52-1.13l-2.3-2.5,1.9-2.68,1.39-2.44h10.37l3.46,4.9s-2.52,2.02-2.95,2.91c-.6,1.26-.53,4.17-.51,5.57.18,17.16.02,66.81,0,72.02,0,.38-.02.75-.07,1.12-.13,1.08-.65,3.1-1.51,4.13-.68.83-2.59,1.31-3.66,1.32-1.13,0-3.52-.54-4.44-4.02" fill="#b5b5b5" stroke-width="0"/><path d="m124.49,220.53c8.85,0,16.02-13.04,16.02-29.12s-7.17-29.12-16.02-29.12-16.02,13.04-16.02,29.12,7.17,29.12,16.02,29.12Z" fill="#9c9c9c" stroke-width="0"/><path d="m136.21,191.41c0-11.54-4.55-20.9-6.55-20.9s2.65,9.36,2.65,20.9-4.65,20.9-2.65,20.9,6.55-9.36,6.55-20.9Z" fill="#ababab" stroke-width="0"/></g></svg>