<?xml version="1.0" encoding="UTF-8"?><svg id="b" xmlns="http://www.w3.org/2000/svg" viewBox="0 0 246.22 165.64"><g id="c"><g id="d"><g id="e"><path d="M115.85,123.27c-.43-.25-.58-.79-.33-1.22l10.37-17.73c.25-.42,.81-.57,1.24-.33,.43,.25,.58,.79,.33,1.22l-10.37,17.73c-.25,.42-.81,.57-1.24,.33Z" fill="#f4e9dc" fill-rule="evenodd"/><path d="M131.6,103.22h-9.88c-.45,0-.82,.36-.82,.81v1.35c0,.45,.37,.81,.82,.81h9.88c.45,0,.82-.36,.82-.81v-1.35c0-.45-.37-.81-.82-.81Z" fill="#29485d"/><path d="M202.75,72.63c9.11,0,17.65,2.37,25.04,6.52l-2.17,1.99c-6.8-3.65-14.59-5.72-22.87-5.72-26.47,0-47.94,21.19-47.94,47.32,0,2,.12,3.98,.37,5.91h-2.84c-.23-1.94-.35-3.91-.35-5.91,0-27.67,22.72-50.1,50.75-50.1h0Z" fill="#c6d325" fill-rule="evenodd"/><path d="M22.28,77.21c-8.24,3.84-14.93,9.59-19.82,16.45l2.82,.88c4.57-6.17,10.72-11.33,18.21-14.82,23.94-11.16,52.51-1.06,63.81,22.58,2.95,6.17,4.43,12.64,4.59,19.05l2.83,.86c-.04-7.08-1.61-14.27-4.87-21.09-11.97-25.02-42.22-35.72-67.56-23.9Z" fill="#c6d325" fill-rule="evenodd"/><path d="M202.75,79.82c24.01,0,43.47,19.21,43.47,42.91s-19.46,42.91-43.47,42.91-43.47-19.21-43.47-42.91,19.46-42.91,43.47-42.91Zm.61,37.99c.82,.1,1.59,.39,2.24,.84l23.38-23.08c-6.69-6.29-15.69-10.2-25.62-10.35v32.6Zm3.15,1.63c.57,.63,.98,1.41,1.16,2.26h33.09c-.27-9.85-4.39-18.75-10.91-25.3l-23.33,23.03h0Zm1.27,3.46c-.03,.98-.35,1.89-.88,2.65l23.38,23.08c6.47-6.7,10.45-15.75,10.49-25.73h-32.99Zm-1.68,3.54c-.75,.66-1.69,1.1-2.73,1.22v32.6c10.15-.16,19.34-4.24,26.07-10.78l-23.33-23.03Zm-3.95,1.22c-1.05-.12-1.99-.56-2.73-1.22l-23.33,23.03c6.73,6.54,15.92,10.63,26.07,10.78v-32.6Zm-3.54-2.12c-.53-.76-.85-1.67-.88-2.65h-33c.04,9.97,4.02,19.03,10.49,25.73l23.38-23.08h0Zm-.77-3.84c.19-.86,.59-1.63,1.16-2.26l-23.33-23.03c-6.53,6.54-10.65,15.45-10.91,25.3h33.08Zm2.07-3.06c.65-.44,1.42-.74,2.24-.84v-32.6c-9.93,.16-18.93,4.06-25.62,10.35l23.38,23.08Z" fill="#403a49" fill-rule="evenodd"/><path d="M163.62,22.94l14.29,34.68c-1.36,.54-2.72,1.08-4.09,1.61l-13.66-33.3c-.37-.9-.75-1.79-1.13-2.69-.16-.37-.67-1.02,.48-2.01,3.41-2.93,6.94-5.74,10.14-8.9,1.79-1.76,3-4.13-.75-5.06-4.83-1.19-9.77-1.88-14.66-2.82-.01,0-.03,0-.05,0-.48-.08-.7-1.15-.49-2.38,.22-1.23,.78-2.16,1.27-2.08,.02,0,.04,0,.06,.01,5.87,1.23,12.12,1.3,17.61,3.69,4.2,1.83,4.34,6.6,.75,10.35-3.04,3.18-6.44,6-9.79,8.86h0Z" fill="#f4e9dc" fill-rule="evenodd"/><path d="M43.47,79.82c24.01,0,43.47,19.21,43.47,42.91s-19.46,42.91-43.47,42.91S0,146.43,0,122.73s19.46-42.91,43.47-42.91Zm.61,37.99c.82,.1,1.59,.39,2.24,.84l23.38-23.08c-6.69-6.29-15.69-10.2-25.62-10.35v32.6Zm3.15,1.63c.57,.63,.98,1.41,1.16,2.26h33.09c-.27-9.85-4.39-18.75-10.91-25.3l-23.33,23.03h0Zm1.27,3.46c-.03,.98-.35,1.89-.88,2.65l23.38,23.08c6.47-6.7,10.45-15.75,10.49-25.73H48.49Zm-1.68,3.54c-.74,.66-1.69,1.1-2.73,1.22v32.6c10.15-.16,19.34-4.24,26.07-10.78l-23.33-23.03Zm-3.95,1.22c-1.05-.12-1.99-.56-2.73-1.22l-23.33,23.03c6.73,6.54,15.92,10.63,26.07,10.78v-32.6Zm-3.54-2.12c-.53-.76-.85-1.67-.88-2.65H5.45c.04,9.97,4.03,19.03,10.49,25.73l23.38-23.08Zm-.77-3.84c.19-.86,.59-1.63,1.16-2.26l-23.33-23.03c-6.53,6.54-10.65,15.45-10.91,25.3H38.55Zm2.07-3.06c.65-.44,1.42-.74,2.24-.84v-32.6c-9.93,.16-18.93,4.06-25.62,10.35l23.38,23.08Z" fill="#51495b" fill-rule="evenodd"/><path d="M43.47,130.82c4.52,0,8.19-3.62,8.19-8.09s-3.67-8.09-8.19-8.09-8.19,3.62-8.19,8.09,3.67,8.09,8.19,8.09Zm0-1.01c-3.96,0-7.17-3.17-7.17-7.08s3.21-7.08,7.17-7.08,7.17,3.17,7.17,7.08-3.21,7.08-7.17,7.08Z" fill="#403a49" fill-rule="evenodd"/><path d="M182.21,64.66c7.94,19.27,15.88,38.54,23.82,57.81-2.19,.86-4.38,1.73-6.57,2.59-7.91-19.27-15.81-38.55-23.72-57.82,2.16-.86,4.31-1.72,6.47-2.58Z" fill="#f4e9dc" fill-rule="evenodd"/><path d="M116.35,110.24c-24.3,1.47-48.59,2.94-72.89,4.41v1.01c25.2-1.55,50.4-3.1,75.59-4.65-.9-.26-1.8-.52-2.71-.78h0Z" fill="#403a49" fill-rule="evenodd"/><path d="M164.27,39.11c1.8,4.35,3.57,8.71,5.39,13.04,.31,.74,.24,1.39-.25,2.02-9.5,12.08-18.97,24.18-28.49,36.24-.99,1.26-2.23,1.76-3.62,1.76-10.25-.03-20.5-.16-30.76-.1-1.33,0-2.36-.52-2.86-1.74l-16.48-40.12c-2.21,.52-4.42,1.03-6.63,1.55l6.34,15.73c.99,2.45,.48,2.91-.32,3.82-15.07,16.64-30.15,33.28-45.22,49.92,.7,.51,1.4,1.02,2.1,1.53,0,.91-.02,1.82-.03,2.72l66.27-.06c1.06,2.59,3.64,4.42,6.65,4.42,3.37,0,6.2-2.3,6.97-5.4,16.3-21,32.47-41.89,48.81-62.89,.47-.61,1.09-.56,1.33,.05l2.89,7.16,6.47-2.55-12.2-29.61-6.36,2.54h0Zm-30.1,59.88l-13.96,17.76c-1.11-.7-2.76-1.1-3.84-1.1s-1.46,.12-2.14,.33c-2.32-5.66-4.71-11.29-6.97-16.97-.41-1.03-.01-1.65,1.45-1.64,8.28,.09,16.55,.14,24.83,.12,1.17,0,1.34,.59,.62,1.5Zm-84.65,21.16c13.14-14.48,26.33-28.92,39.44-43.43,.8-.89,1.35-.84,1.84,.37l17.31,42.93-58.58,.13h0Z" fill="#ef7c00" fill-rule="evenodd"/><path d="M116.35,135.37c-24.3-1.47-48.59-2.94-72.89-4.41v-1.01c25.2,1.55,50.4,3.1,75.59,4.64-.9,.26-1.8,.52-2.71,.78h0Z" fill="#403a49" fill-rule="evenodd"/><path d="M166.48,6.74c-4.05-.87-8.16-1.48-12.22-2.26-.01,0-.03,0-.05,0-.48-.08-.7-1.15-.49-2.38,.22-1.23,.78-2.16,1.27-2.08,.02,0,.04,0,.06,.01,4.07,.85,8.32,1.15,12.37,2.05,.69,.73-.03,4.45-.94,4.67h0Z" fill="#ef7c00" fill-rule="evenodd"/><path d="M116.35,110.24l-37.01,2.24v.98l39.71-2.44c-.9-.26-1.8-.52-2.71-.78Z" fill="#898989" fill-rule="evenodd"/><path d="M116.35,135.23c6.99,0,12.66-5.59,12.66-12.5s-5.67-12.5-12.66-12.5-12.66,5.59-12.66,12.5,5.67,12.5,12.66,12.5Zm-4.47-16.91c-.9,.89-2.36,.89-3.27,0-.9-.89-.9-2.33,0-3.22,.9-.89,2.36-.89,3.27,0,.9,.89,.9,2.33,0,3.22Zm-1.85,4.42c0,1.26-1.03,2.28-2.31,2.28s-2.31-1.02-2.31-2.28,1.03-2.28,2.31-2.28,2.31,1.02,2.31,2.28Zm1.85,4.42c.9,.89,.9,2.33,0,3.22-.9,.89-2.36,.89-3.27,0-.9-.89-.9-2.33,0-3.22,.9-.89,2.36-.89,3.27,0Zm4.47,1.83c1.28,0,2.31,1.02,2.31,2.28s-1.03,2.28-2.31,2.28-2.31-1.02-2.31-2.28,1.03-2.28,2.31-2.28Zm6.32-6.24c0-1.26,1.03-2.28,2.31-2.28s2.31,1.02,2.31,2.28-1.03,2.28-2.31,2.28-2.31-1.02-2.31-2.28Zm-1.85-4.42c-.9-.89-.9-2.33,0-3.22,.9-.89,2.36-.89,3.27,0,.9,.89,.9,2.33,0,3.22-.9,.89-2.36,.89-3.27,0Zm-4.47-1.83c-1.28,0-2.31-1.02-2.31-2.28s1.03-2.28,2.31-2.28,2.31,1.02,2.31,2.28-1.03,2.28-2.31,2.28Zm4.47,10.66c.9-.89,2.36-.89,3.27,0,.9,.89,.9,2.33,0,3.22-.9,.89-2.36,.89-3.27,0-.9-.89-.9-2.33,0-3.22Z" fill="#403a49" fill-rule="evenodd"/><path d="M116.27,124.51c1.09,0,1.97-.87,1.97-1.95s-.88-1.95-1.97-1.95-1.97,.87-1.97,1.95,.88,1.95,1.97,1.95Z" fill="#e8d4bf" fill-rule="evenodd"/><path d="M116.27,107.09c8.66,0,15.67,6.93,15.67,15.47,0,.95-.09,1.88-.25,2.79-.61,3.32-3.13,2.48-4.08-.31-2.84-8.34-17.34-7.74-25.97-8.06,0,0-51.19,.24-56.71,.28,1.63-1.8,3.27-3.61,4.9-5.41l66.43-4.75h0Z" fill="#c6d325" fill-rule="evenodd"/><path d="M43.48,125.45c1.46,0,2.65-1.17,2.65-2.62s-1.19-2.62-2.65-2.62-2.65,1.17-2.65,2.62,1.19,2.62,2.65,2.62Z" fill="#ef7c00"/><path d="M116.68,121.86c.43,.25,.58,.79,.33,1.22l-10.37,17.73c-.25,.42-.81,.57-1.24,.33-.43-.25-.58-.79-.33-1.22l10.37-17.73c.25-.42,.81-.57,1.24-.33Z" fill="#f4e9dc" fill-rule="evenodd"/><path d="M110.81,138.94h-9.88c-.45,0-.82,.36-.82,.81v1.35c0,.45,.37,.81,.82,.81h9.88c.45,0,.82-.36,.82-.81v-1.35c0-.45-.37-.81-.82-.81Z" fill="#29485d"/><path d="M72.46,41.77c-3.48,.05-5.36,1.84-4.97,3.97,.44,2.46,2.59,4.61,6.63,5.89,3.68,1.16,7.99,1.57,11.6,.07,2.89-1.21,2.98-2.17,10.88-3.44,2.87-.46,6.1-.38,8.6-1.39,2.48-1,2.77-3.23-1.86-3.51-10.9-.64-19.92-1.74-30.86-1.59h0Z" fill="#29485d" fill-rule="evenodd"/></g></g></g></svg>