<?xml version="1.0" encoding="UTF-8"?><svg id="b" xmlns="http://www.w3.org/2000/svg" xmlns:xlink="http://www.w3.org/1999/xlink" viewBox="0 0 244 221"><defs><clipPath id="d"><rect width="244" height="221" fill="none" stroke-width="0"/></clipPath></defs><g id="c"><g clip-path="url(#d)"><path d="M43.03,216.53c.03,1.12,1.14,2.7,2.4,3.27" fill="none" stroke="#000" stroke-miterlimit="10" stroke-width="4"/><path d="M14.69,113.57c2.64,13.65,8.11,26.55,11.53,40.02,2.96,11.68,4.37,23.7,5.77,35.68.37,3.17.74,6.37.34,9.54-.34,2.69-1.32,5.44-3.39,7.15-2.44,2.01-6.19,2.45-7.69,5.27-1.36,2.55.03,5.93,2.36,7.6,2.33,1.67,5.3,2.01,8.14,2.13,7.9.32,15.77-.78,23.6-1.88,1.31-.18,2.62-.37,3.93-.55,8.36-1.17,16.72-2.34,25.08-3.51,6.1-.85,12.43-1.79,17.56-5.27,6.12-4.15,9.66-11.38,11.37-18.7,1.71-7.32,1.84-14.91,2.69-22.38,1.48-13.02,5.15-26.14,2.75-39.01-1.45-7.78-5.16-15.1-10.52-20.8-6.43-6.83-14.97-11.18-23.7-14.35-4.85-1.76-9.85-3.21-14.97-3.66-5.73-.5-11.49.24-17.15,1.26-7.46,1.34-14.93,3.16-21.68,6.69-6.75,3.53-12.78,8.91-16.03,15.92" fill="#a49d9b" stroke-width="0"/><path d="M61.78,16.78c-3.63,9.6,2.35,17.37,6.74,25.24,4.35,7.79,9,15.41,13.94,22.83,2.03,3.05,4.19,6.14,7.25,8.16,2.41,1.59,5.24,2.41,7.9,3.54,11.53,4.92,19.52,15.5,26.41,25.97,7.51,11.4,14.45,23.36,18.37,36.43,1.3,4.34,2.26,8.76,3.22,13.18,1.91,8.79,3.82,17.76,2.82,26.7-.65,5.87-2.38,12.47,1.17,17.18,3.72,4.93,13.34,8.37,19.47,9.13,33.04,4.08,40.22.86,63.39,3.72,8.53,1.05,12.27,5.09,12.09,8.8-.2,3.93-8.96,3.28-12.9,3.28-24.25,0-39.48-.62-57.04-1.91-3.4-.25-8.68-.46-14.97-.46-4.64,0-6.41-.16-12.3.46-3.06.32-6.32-.05-9.39.03-4.88.14-8.1.03-14.36.21-6.3.18-10.04.35-15.36.35-5.87,0-5.45-1.05-12.81.02-2.37.35-5.08.12-7.45.47-1.91.28-5.4.36-9.15.49-6.77.22-8.39-.29-11.16-2.94-2.77-2.65-.1-8.28,2.66-10.94,2.76-2.66,6.72-3.59,10.51-4.22,5.38-.89,10.82-1.41,16.27-1.54-1.85-2.32-5.11-3.13-8.05-2.77-2.94.36-5.67,1.7-8.32,3.01,1.6-2.22,3.44-4.26,5.48-6.09-3.9,3.4-8.55,5.93-13.52,7.37,2.26-1.35,4.33-3,6.15-4.9-1.49.89-3.13,1.53-4.83,1.87,1.92-1.53,3.6-3.36,4.95-5.41-1.45-.23-2.95-.09-4.33.43,1.93-2.25,3.91-5.56,5.54-8.04-1.94,1.94-5.03,3.83-7.93,4.34,1.66-1.45,4.09-3.64,5.05-5.63-1.18.85-2.24.26-3.68.05,2.82-2.03,3.66-11.15,5.57-14.74,5.39-10.1,4.84-34.16,4.84-34.16l-2.1,23.98s-.85,3.99-1.53,6.56c-.93,3.52-1.21,2.5-3.08,5.64.54,2.29-.73,4.84-2.7,6.62-.37.34-.79.69-.85,1.19-.06.49.53,1.03.92.71-.8.87-1.62,1.73-2.45,2.57.67-.09,1.15.92.66,1.38-.38.36-1.09.37-1.26.86.62-.06,1.26.1,1.79.42-.74.61-1.57,1.11-2.45,1.49.81.03,1.61.06,2.41.1-1.84,1.09-3.52,2.43-4.98,3.99.82-.12,1.64-.25,2.47-.37-1.04,6.89-2.08,13.79-3.12,20.68-.3,2.01-.65,4.12-1.93,5.71-2.08,2.58-5.84,2.87-9.16,2.95-2.08.05-4.16.11-6.24.16-1.82.05-3.76.07-5.31-.89-1.9-1.16-2.76-3.59-2.49-5.81.27-2.21,1.51-4.19,3.03-5.82.23-.25.47-.49.6-.8.11-.26.12-.54.14-.82.08-1.88-.11-3.77,0-5.65.22-3.53,1.48-7.1.6-10.52.84-5.92,1.44-11.63.88-17.3-.46-4.76-2.13-10.49-3.9-14.94-2.1-5.27-1.13-2.74-3.16-6.09-2.05-3.36-5.07-5.41-7.43-7.76-3.68-3.68-5.43-4.57-9.03-9.86-2.21-3.25-4.53-5.55-6.48-9.01-6.87-12.2-11.18-26.1-8.74-39.89,1.16-6.56,3.6-12.85,4.69-19.42.49-2.94,1.57-6.14.16-8.76-.68-1.26-1.41-2.84-4.86-3.6-1-.6-2.01-1.2-3.01-1.79-1.71-1.02-3.52-2.14-4.35-3.96-.29-.63-.44-1.31-.53-2-.17-1.36-.11-2.74.21-4.07.17-.74.42-1.48.36-2.23-.03-.38-.14-.76-.25-1.13-.48-1.68-.84-3.38-1.2-5.09-.15-.68-.28-1.43.07-2.03.26-.43.72-.7,1.16-.94,2.56-1.42,5.29-3.22,5.97-6.05.22-.93.21-1.9.32-2.85.47-3.91,3.44-7.42,6.12-8.48,8.07-3.25,16.9-4.61,25.58-3.92,1.04.08,2.1.19,3.14.05,2.56-.37,4.63-2.23,6.4-4.12,1.77-1.89,3.52-3.95,5.91-4.93,1.12-.46,2.42-.65,3.52-.16,1.72.77,2.34,2.85,2.78,4.68,1,4.19,1.96,8.78.13,12.68" fill="#c8bebc" stroke-width="0"/><path d="M43.57,11.45c4.42-1.05,4.39-2.25,7.93-5.11.89-.72,3.44-3.42,4.59-3.48,1.54-.07,1.65,1.11,2.37,2.47.72,1.36.51,4.33.46,5.87-.22,6.63-1.65,11.01-8.79,14.01,1.46-2.27,1.28-2.09,1.94-4.75.93-.34-3.71,2.66-4.96,2.91.86-1.28,2.63-3.26,3.49-4.54-2.18,1.43-4.47,2.43-7.04,1.93,1.37-.38,2.22-1.47,3.35-2.34-1.08.15-3.13.54-4-.1.73.25,1.39-.73,1.17-1.47-.22-.74-.93-1.21-1.59-1.62.76-.26,1.71-.98,1.27-1.66-.26-.39-.81-.41-1.26-.52-.46-.11-.95-.58-.7-.97.46-.36,1.09-.49,1.62-.6" fill="#eea398" stroke-width="0"/><path d="M16.57,49.91c-3.59.5-5.37.42-8.23-.32-2.58-.67-5.1-1.3-5.91-3.85-.43-1.35-.05-3.58.21-4.94.06-.35,0-1.16-.06-1.47-.1-.46-.56-1.54-.76-2.26-.16-.56-.44-1.88-.6-2.53" fill="none" stroke="#000" stroke-miterlimit="10" stroke-width="4"/><path d="M20.15,23.37c-1.36-.49-2.73-.03-3.76.98-1.03,1.01-1.42,2.63-.95,3.99.06.17.13.34.27.45.12.1.28.14.44.16,1.41.23,2.82-.46,3.93-1.37,1.1-.91,2.02-2.03,3.14-2.93-1.15-.27-1.97-.77-3.11-1.29" stroke-width="0"/><path d="M5.09,40.39c1.64,3.73,2.59,7.85,2.09,11.9-.53,4.22-2.59,8.23-2.41,12.47,0,.16.04.36.19.41.15.06.28-.24.12-.25" fill="none" stroke="#fff" stroke-linecap="round" stroke-linejoin="bevel" stroke-width="6"/><path d="M8.97,41.3c.93,1.36,1.72,2.18,2.54,3.71.39.74,1,1.54,1.4,2.28,1.73,3.23,2.55,5.21,3.15,9.64" fill="none" stroke="#fff" stroke-linecap="round" stroke-linejoin="bevel" stroke-width="6"/><path d="M9.75,38.28c5.96,3.53,10.5,7.66,11.8,15.45" fill="none" stroke="#fff" stroke-linecap="round" stroke-linejoin="bevel" stroke-width="6"/><path d="M9.52,35.35c2.36.06,4.79.14,6.93,1.12,1.08.49,2.12,1.22,3.31,1.27" fill="none" stroke="#fff" stroke-linecap="round" stroke-linejoin="bevel" stroke-width="6"/><path d="M48.14,167.98c3.49,1.02,7.18,2.05,10.72,1.21" fill="none" stroke="#74706e" stroke-miterlimit="10" stroke-width="3"/><path d="M64.02,171.88c1.83-.25,3.68.17,5.51.4,1.83.23,3.81.25,5.4-.69" fill="none" stroke="#74706e" stroke-miterlimit="10" stroke-width="3"/><path d="M50.21,162.37c1.03.48,2.24.15,3.27-.31,1.04-.46,2.06-1.04,3.18-1.09,1.33-.05,2.56.67,3.81,1.13,1.01.37,2.08.57,3.15.6" fill="none" stroke="#74706e" stroke-miterlimit="10" stroke-width="3"/><path d="M47.27,156.49c1.46.33,2.97.66,4.42.3.55-.14,1.06-.37,1.58-.58,1.45-.58,2.98-.96,4.53-1.14" fill="none" stroke="#74706e" stroke-miterlimit="10" stroke-width="3"/><path d="M46.91,152.1c2.76-.77,5.52-1.54,8.28-2.3" fill="none" stroke="#74706e" stroke-miterlimit="10" stroke-width="3"/><path d="M39.51,126.78c1.89.32,3.88.64,5.68-.01,1.15-.42,2.26-1.23,3.46-1.02" fill="none" stroke="#74706e" stroke-miterlimit="10" stroke-width="3"/><path d="M56.62,130.21c1.7-.18,3.45.11,5.01.81,1.69.76,3.44,2.06,5.22,1.51" fill="none" stroke="#74706e" stroke-miterlimit="10" stroke-width="3"/><path d="M67.82,128.55c2.57,1.46,5.33,2.62,8.18,3.43,1.16.33,2.5.73,2.99,1.83" fill="none" stroke="#74706e" stroke-miterlimit="10" stroke-width="3"/><path d="M49.71,174.38c2.81-.67,5.78-.65,8.59.05" fill="none" stroke="#74706e" stroke-miterlimit="10" stroke-width="3"/><path d="M59.1,180.93c4.22,1.6,9.23.91,12.86-1.78" fill="none" stroke="#74706e" stroke-miterlimit="10" stroke-width="3"/><path d="M49.42,187.72c3.51.05,6.68-2.34,10.19-2.47,1.88-.07,3.78.51,5.62.15" fill="none" stroke="#74706e" stroke-miterlimit="10" stroke-width="3"/><path d="M58.73,189.45c2.42-.12,4.83-.44,7.2-.95" fill="none" stroke="#74706e" stroke-miterlimit="10" stroke-width="3"/><path d="M58.46,195.33c2.56.4,5.23.12,7.66-.81" fill="none" stroke="#74706e" stroke-miterlimit="10" stroke-width="3"/><path d="M47.47,199.55c2.62-1.08,5.56-1.36,8.33-.81" fill="none" stroke="#74706e" stroke-miterlimit="10" stroke-width="3"/><path d="M55.94,202.54c3.27.62,6.91,1.18,9.7-.63" fill="none" stroke="#74706e" stroke-miterlimit="10" stroke-width="3"/><path d="M53.04,132.27c2.21.21,3.62,2.36,5.29,3.82,1.53,1.35,3.49,2.2,5.53,2.4" fill="none" stroke="#74706e" stroke-miterlimit="10" stroke-width="3"/><path d="M70.86,136.93c1.35-.33,2.78-.3,4.11.11" fill="none" stroke="#74706e" stroke-miterlimit="10" stroke-width="3"/><path d="M68.54,158.72c1.28,2.24,3.72,3.78,6.29,3.96" fill="none" stroke="#74706e" stroke-miterlimit="10" stroke-width="3"/><path d="M39.12,143.01c2.64-1.48,5.69-2.23,8.72-2.12" fill="none" stroke="#74706e" stroke-miterlimit="10" stroke-width="3"/><path d="M39.77,117.87c2.76.38,5.53.76,8.29,1.14" fill="none" stroke="#74706e" stroke-miterlimit="10" stroke-width="3"/><path d="M37.01,111.23c1.1.98,2.78.75,4.23,1.04,1.52.31,2.83,1.24,4.09,2.14" fill="none" stroke="#74706e" stroke-miterlimit="10" stroke-width="3"/><path d="M49.39,112.92c1.48.1,2.95.39,4.36.83" fill="none" stroke="#74706e" stroke-miterlimit="10" stroke-width="3"/><path d="M49.06,115.99c1.47.55,3.17.57,4.46,1.48.5.35.91.82,1.31,1.28,1.5,1.73,3,3.45,4.51,5.18" fill="none" stroke="#74706e" stroke-miterlimit="10" stroke-width="3"/><path d="M26.62,104.48c3.42.14,6.8,1.02,9.86,2.56" fill="none" stroke="#74706e" stroke-miterlimit="10" stroke-width="3"/><path d="M43.09,104.61c2.3-.28,4.6-.55,6.9-.82" fill="none" stroke="#74706e" stroke-miterlimit="10" stroke-width="3"/><path d="M52.44,101.39c2.72-1.25,6.02-1.18,8.67.21" fill="none" stroke="#74706e" stroke-miterlimit="10" stroke-width="3"/><path d="M27.71,80.87c1.51-.39,3.09-.79,4.6-.41.67.17,1.31.49,1.99.61,1.2.22,2.42-.2,3.58-.61" fill="none" stroke="#74706e" stroke-miterlimit="10" stroke-width="3"/><path d="M81.91,173.99c-.91,3.67-2.34,7.21-4.25,10.47" fill="none" stroke="#74706e" stroke-miterlimit="10" stroke-width="3"/><path d="M110.08,171.41c2.61-1.9,5.46-3.49,8.44-4.74" fill="none" stroke="#74706e" stroke-miterlimit="10" stroke-width="3"/><path d="M135.29,193.31c-.53,4.02-.45,8.12.25,12.11" fill="none" stroke="#74706e" stroke-miterlimit="10" stroke-width="3"/><path d="M127.17,204.71c2.67,4.44,6.89,7.93,11.75,9.72l-15.77-3.45" fill="none" stroke="#74706e" stroke-miterlimit="10" stroke-width="3"/><path d="M105.83,179.91c1.77-1.32,3.75-2.36,5.84-3.06" fill="none" stroke="#74706e" stroke-miterlimit="10" stroke-width="3"/><path d="M121.87,174.1c3.43-.93,7.15-.8,10.51.39" fill="none" stroke="#74706e" stroke-miterlimit="10" stroke-width="3"/><path d="M105.05,190.53c4.09-4.98,10.72-7.75,17.14-7.14" fill="none" stroke="#74706e" stroke-miterlimit="10" stroke-width="3"/><path d="M118.97,189.18c2.22.12,4.43.23,6.65.35.75.04,1.54.1,2.14.54.6.44.87,1.42.33,1.94" fill="none" stroke="#74706e" stroke-miterlimit="10" stroke-width="3"/><path d="M151.17,205.4c2.4,2.88,5.74,4.96,9.37,5.85" fill="none" stroke="#74706e" stroke-miterlimit="10" stroke-width="3"/><path d="M178.53,210.34c2.72,1.49,5.45,2.97,8.18,4.46" fill="none" stroke="#74706e" stroke-miterlimit="10" stroke-width="3"/><path d="M164.47,205.43c.41,1.61.82,3.25,1.69,4.66.87,1.42,2.28,2.6,3.93,2.77" fill="none" stroke="#74706e" stroke-miterlimit="10" stroke-width="3"/><path d="M173.15,207.19c.35,3.05,2.79,5.76,5.8,6.41" fill="none" stroke="#74706e" stroke-miterlimit="10" stroke-width="3"/><path d="M191.07,212.59c1.54,2.06,3.72,3.63,6.17,4.44" fill="none" stroke="#74706e" stroke-miterlimit="10" stroke-width="3"/><path d="M203.55,209.4c1.47.41,2.87,1.03,4.16,1.83-.26,1.55-.14,3.15.33,4.65" fill="none" stroke="#74706e" stroke-miterlimit="10" stroke-width="3"/><path d="M219.58,209.95c1.36-.48,3.02.22,3.65,1.51.62,1.3.11,3.03-1.11,3.79" fill="none" stroke="#74706e" stroke-miterlimit="10" stroke-width="3"/><path d="M229.13,213.58c.64.43.85,1.3.73,2.07-.12.76-.53,1.44-.92,2.11-.41.69-.81,1.37-1.22,2.06" fill="none" stroke="#74706e" stroke-miterlimit="10" stroke-width="3"/><path d="M234.68,211.02c2.7-.42,5.37,2.39,4.8,5.07-.28,1.33-1.17,2.43-2.04,3.48" fill="none" stroke="#74706e" stroke-miterlimit="10" stroke-width="3"/><path d="M26.35,129.38c-1.06,3.29-.05,7.14,2.47,9.5" fill="none" stroke="#74706e" stroke-miterlimit="10" stroke-width="3"/><path d="M37.45,91.3c5.18-.27,10.36-.55,15.54-.82" fill="none" stroke="#74706e" stroke-miterlimit="10" stroke-width="3"/><path d="M55.64,86.44c2.4-.57,4.71-1.52,6.83-2.79" fill="none" stroke="#74706e" stroke-miterlimit="10" stroke-width="3"/><path d="M62.33,93.65c2.35-1.25,5.22-.37,7.72.54.9.33,1.79.65,2.69.97" fill="none" stroke="#74706e" stroke-miterlimit="10" stroke-width="3"/><path d="M59.08,77.16c1.87-.55,3.75-1.1,5.62-1.65" fill="none" stroke="#74706e" stroke-miterlimit="10" stroke-width="3"/><path d="M69.25,87.3c4.47-1.15,8.97,1.4,12.88,3.85" fill="none" stroke="#74706e" stroke-miterlimit="10" stroke-width="3"/><path d="M87.32,88.75c2.34,2.2,5.05,4.02,7.96,5.38" fill="none" stroke="#74706e" stroke-miterlimit="10" stroke-width="3"/><path d="M98.74,102c1.94,2.56,3.19,5.64,3.59,8.82" fill="none" stroke="#74706e" stroke-miterlimit="10" stroke-width="3"/><path d="M102.32,94.67c1.44,1.28,2.66,2.8,3.6,4.49" fill="none" stroke="#74706e" stroke-miterlimit="10" stroke-width="3"/><path d="M112.04,92.12c.65,0,1.27.52,1.38,1.17.07.43-.06.86-.06,1.29s.19.92.61,1.03" fill="none" stroke="#74706e" stroke-miterlimit="10" stroke-width="3"/><path d="M77.48,127.99c2.71,1.15,5.53,2.03,8.42,2.63" fill="none" stroke="#74706e" stroke-miterlimit="10" stroke-width="3"/><path d="M63.32,124.67c2.1.27,4.2.54,6.3.81.43.06.88.12,1.24.36.37.25.6.66.91.98.32.32.82.55,1.2.32" fill="none" stroke="#74706e" stroke-miterlimit="10" stroke-width="3"/><path d="M40.17,146.28c2.78.42,5.63.81,8.4.31,2.4-.43,4.89-1.51,7.17-.65,2.02.76,3.22,2.83,4.95,4.12" fill="none" stroke="#74706e" stroke-miterlimit="10" stroke-width="3"/><path d="M42.45,78.87c1.72-1.14,3.65-1.96,5.66-2.39" fill="none" stroke="#74706e" stroke-miterlimit="10" stroke-width="3"/><path d="M38.07,72.33c2.86-.52,5.73-1.04,8.59-1.57" fill="none" stroke="#74706e" stroke-miterlimit="10" stroke-width="3"/><path d="M51.85,70.89c2.03.03,4.07-.65,5.67-1.89" fill="none" stroke="#74706e" stroke-miterlimit="10" stroke-width="3"/><path d="M44.68,63.69c2.59-.72,5.03-1.95,7.16-3.59" fill="none" stroke="#74706e" stroke-miterlimit="10" stroke-width="3"/><path d="M53,65.36c2.44-1.97,4.88-3.95,7.32-5.92" fill="none" stroke="#74706e" stroke-miterlimit="10" stroke-width="3"/><path d="M60.54,52.41c2.04-1.11,3.12-3.74,2.43-5.96" fill="none" stroke="#74706e" stroke-miterlimit="10" stroke-width="3"/><path d="M58.46,42.84c.63-2.01.94-4.12.92-6.23" fill="none" stroke="#74706e" stroke-miterlimit="10" stroke-width="3"/><path d="M54.15,34.64c.82-2.62,1.63-5.24,2.45-7.86" fill="none" stroke="#74706e" stroke-miterlimit="10" stroke-width="3"/><path d="M47.72,31.12c1.61-.44,3.12-1.23,4.41-2.29" fill="none" stroke="#74706e" stroke-miterlimit="10" stroke-width="3"/><path d="M14,93.68c2.38-1.17,4.76-2.34,7.14-3.51" fill="none" stroke="#74706e" stroke-miterlimit="10" stroke-width="3"/><path d="M16.57,102.74c1.08-2.49,3.75-4.2,6.47-4.13" fill="none" stroke="#74706e" stroke-miterlimit="10" stroke-width="3"/><path d="M25.16,109.36c-1.2,1.52-2.41,3.03-3.61,4.54.23-.07.49-.03.69.1" fill="none" stroke="#74706e" stroke-miterlimit="10" stroke-width="3"/><path d="M29.44,118.7c-1.87.76-3.55,1.99-4.84,3.55-.31.38-.54,1.04-.1,1.25" fill="none" stroke="#74706e" stroke-miterlimit="10" stroke-width="3"/><path d="M38.17,132.32c-1.01.76-2.02,1.51-3.02,2.27-.2.15-.15.62.02.44" fill="none" stroke="#74706e" stroke-miterlimit="10" stroke-width="3"/><path d="M50.75,122.7c.98-.25,1.96.38,2.67,1.09.72.7,1.36,1.55,2.3,1.92" fill="none" stroke="#74706e" stroke-miterlimit="10" stroke-width="3"/><path d="M68.32,139.97c3.01.09,5.93,1.78,7.51,4.35" fill="none" stroke="#74706e" stroke-miterlimit="10" stroke-width="3"/><path d="M58.86,113.96c2.29.85,4.39,2.19,6.13,3.91" fill="none" stroke="#74706e" stroke-miterlimit="10" stroke-width="3"/><path d="M53.04,108.25c3.68-.46,7.53.53,10.53,2.7" fill="none" stroke="#74706e" stroke-miterlimit="10" stroke-width="3"/><path d="M47.47,82.09c2.35-.19,4.66-.91,6.71-2.08" fill="none" stroke="#74706e" stroke-miterlimit="10" stroke-width="3"/><path d="M64.17,61.25c2.31-1.24,4.42-2.88,6.18-4.82" fill="none" stroke="#74706e" stroke-miterlimit="10" stroke-width="3"/><path d="M67,104.57c2.18.91,4.24,2.15,6.05,3.67" fill="none" stroke="#74706e" stroke-miterlimit="10" stroke-width="3"/><path d="M72.35,102.06c1.98-.21,3.98.41,5.72,1.38,1.74.97,3.26,2.29,4.76,3.59" fill="none" stroke="#74706e" stroke-miterlimit="10" stroke-width="3"/><path d="M66.09,67.95c2.48-1.26,5.26-1.9,8.04-1.86" fill="none" stroke="#74706e" stroke-miterlimit="10" stroke-width="3"/><path d="M72.84,75.88c2.96-.5,6-.52,8.95-.06" fill="none" stroke="#74706e" stroke-miterlimit="10" stroke-width="3"/><path d="M85.54,101.69c1.34,2.07,2.48,4.27,3.43,6.55-1.31.92-1.85,2.8-1.24,4.28" fill="none" stroke="#74706e" stroke-miterlimit="10" stroke-width="3"/><path d="M93.39,109.91c.57,1.19,1.14,2.41,1.38,3.71.23,1.31.09,2.73-.68,3.81-.29.41-.68.77-.87,1.24-.31.73-.06,1.65.58,2.12" fill="none" stroke="#74706e" stroke-miterlimit="10" stroke-width="3"/><path d="M98.01,119.85c-.14,1.79-.34,3.57-.63,5.34" fill="none" stroke="#74706e" stroke-miterlimit="10" stroke-width="3"/><path d="M100.76,124.52c-.41,2.64-.69,5.71,1.16,7.63" fill="none" stroke="#74706e" stroke-miterlimit="10" stroke-width="3"/><path d="M99.65,149.64c1.65-1.63,3.6-2.98,5.71-3.93,1.63-.74,3.34-1.25,5.06-1.76,2.56-.76,5.11-1.52,7.67-2.28" fill="none" stroke="#74706e" stroke-miterlimit="10" stroke-width="3"/><path d="M92.83,156.44c2.25.02,4.5-.73,6.29-2.09.6-.46,1.16-.99,1.76-1.46" fill="none" stroke="#74706e" stroke-miterlimit="10" stroke-width="3"/><path d="M107.76,151.02c3.66-.76,7.45-.86,11.14-.3" fill="none" stroke="#74706e" stroke-miterlimit="10" stroke-width="3"/><path d="M90.13,135.02c1.26,3.07,3.21,5.86,5.66,8.09" fill="none" stroke="#74706e" stroke-miterlimit="10" stroke-width="3"/><path d="M89.57,145.6c.47,1.13.96,2.3,1.86,3.13.9.83,2.34,1.22,3.37.57" fill="none" stroke="#74706e" stroke-miterlimit="10" stroke-width="3"/><path d="M95.44,162.83c1.93-1.63,4.2-2.86,6.62-3.59" fill="none" stroke="#74706e" stroke-miterlimit="10" stroke-width="3"/><path d="M101.62,166.12c3.54-2.39,7.54-4.09,11.72-4.99" fill="none" stroke="#74706e" stroke-miterlimit="10" stroke-width="3"/><path d="M124.26,156.77c3.97-1.57,8.16-2.59,12.4-3.03" fill="none" stroke="#74706e" stroke-miterlimit="10" stroke-width="3"/><path d="M129.62,161.62c2.06,1.41,4.5,2.28,6.99,2.48.61.05,1.25.06,1.8.32.83.39,1.42,1.29,2.34,1.39" fill="none" stroke="#74706e" stroke-miterlimit="10" stroke-width="3"/><path d="M136.91,168.29c.96,1.82,2.51,3.32,4.35,4.23.53.26,1.11.49,1.49.94.29.34.44.77.58,1.19.43,1.35.71,2.76.83,4.18" fill="none" stroke="#74706e" stroke-miterlimit="10" stroke-width="3"/><path d="M140.78,182.44c1.18,3.07.6,6.5,0,9.73-.35,1.9-.71,3.81-1.05,5.72" fill="none" stroke="#74706e" stroke-miterlimit="10" stroke-width="3"/><path d="M144.42,192.27c-.36,2.79.16,5.68,1.45,8.17" fill="none" stroke="#74706e" stroke-miterlimit="10" stroke-width="3"/><path d="M88.17,164.61c.38,3.19-.37,6.51-2.08,9.23" fill="none" stroke="#74706e" stroke-miterlimit="10" stroke-width="3"/><path d="M94.27,168.15c-1.06,2.8-2.48,5.47-4.21,7.92" fill="none" stroke="#74706e" stroke-miterlimit="10" stroke-width="3"/><path d="M96.83,172.84c-.54,4.29-1.81,8.48-3.72,12.35" fill="none" stroke="#74706e" stroke-miterlimit="10" stroke-width="3"/><path d="M95.76,191.63c-2.05.91-4.11,1.81-6.16,2.72" fill="none" stroke="#74706e" stroke-miterlimit="10" stroke-width="3"/><path d="M87.94,76.03c.23,1.95.48,3.94,1.34,5.71.86,1.77,2.47,3.29,4.42,3.52" fill="none" stroke="#74706e" stroke-miterlimit="10" stroke-width="3"/><path d="M98.47,84.5c2.49.57,4.58,2.61,5.2,5.08" fill="none" stroke="#74706e" stroke-miterlimit="10" stroke-width="3"/><path d="M110.23,110.33c-2.1,2.01-3.46,4.78-3.77,7.67" fill="none" stroke="#74706e" stroke-miterlimit="10" stroke-width="3"/><path d="M116.18,101.04c-.44,2.88-.55,5.82-.29,8.72" fill="none" stroke="#74706e" stroke-miterlimit="10" stroke-width="3"/><path d="M122.38,108.66c1.51,3.67,1.16,8.06-.91,11.45" fill="none" stroke="#74706e" stroke-miterlimit="10" stroke-width="3"/><path d="M127.32,116.24c-.41,1.86-.73,3.75-.95,5.64" fill="none" stroke="#74706e" stroke-miterlimit="10" stroke-width="3"/><path d="M131.13,127.42c-.6,3.07-.2,6.32,1.1,9.17" fill="none" stroke="#74706e" stroke-miterlimit="10" stroke-width="3"/><path d="M136.37,132.57c.04,2,.08,4,.11,6,.28.16.57.31.86.47" fill="none" stroke="#74706e" stroke-miterlimit="10" stroke-width="3"/><path d="M128.27,144.9c3.98.24,7.91,1.08,11.64,2.48-.16.25-.07.62.19.77" fill="none" stroke="#74706e" stroke-miterlimit="10" stroke-width="3"/><path d="M113.08,132.21c3.18,1.9,6.62,3.36,10.19,4.32" fill="none" stroke="#74706e" stroke-miterlimit="10" stroke-width="3"/><path d="M33.88,194.15c1.46-.04,3-.05,4.28.65,1.04.58,1.88,1.62,3.06,1.76" fill="none" stroke="#c8bebc" stroke-miterlimit="10" stroke-width="3"/><path d="M37.98,191.72c1.38-.43,2.93-.28,4.21.39.61.32,1.21.77,1.9.73" fill="none" stroke="#c8bebc" stroke-miterlimit="10" stroke-width="3"/><path d="M34.51,186.03c2.4-.43,4.94,0,7.06,1.19" fill="none" stroke="#c8bebc" stroke-miterlimit="10" stroke-width="3"/><path d="M32.3,180.35c2.52-.27,5.08-.11,7.55.46" fill="none" stroke="#c8bebc" stroke-miterlimit="10" stroke-width="3"/><path d="M35.25,173.18c2.78.85,5.69,1.26,8.59,1.21" fill="none" stroke="#c8bebc" stroke-miterlimit="10" stroke-width="3"/><path d="M36.91,161.17c1.46.15,2.9.38,4.33.68" fill="none" stroke="#c8bebc" stroke-miterlimit="10" stroke-width="3"/><path d="M30.41,147.62c-1.09.49-2.17.98-3.25,1.47" fill="none" stroke="#c8bebc" stroke-miterlimit="10" stroke-width="3"/><path d="M31.92,167.69c2.21,1,4.53,2.01,6.95,1.9,1.05-.05,2.09-.32,3.03-.78" fill="none" stroke="#c8bebc" stroke-miterlimit="10" stroke-width="3"/><path d="M31.25,157.47c1.54-.11,3.08-.22,4.62-.32" fill="none" stroke="#c8bebc" stroke-miterlimit="10" stroke-width="3"/><path d="M31.46,152.35c1.43.1,2.87.21,4.3.32" fill="none" stroke="#c8bebc" stroke-miterlimit="10" stroke-width="3"/><path d="M35.5,202c2.62.6,5.42.4,7.92-.57" fill="none" stroke="#c8bebc" stroke-miterlimit="10" stroke-width="3"/><path d="M1.73,30.63c-.6.19-1.54.77-1.69,1.52-.09.45-.05.91.05,1.36.24,1.22.27,1.63.6,2.95.1.4.26,1.03.53,1.72-.18-.87.38-2.19.98-2.68.44-.36.87-.59,1.42-.76.34-.11.71-.17,1.03-.33.26-.12.49-.3.71-.48.25-.2.52-.44.55-.76.05-.47-.42-.81-.83-1.03-1.1-.59-2.61-1.76-3.34-1.52" fill="#eea398" stroke-width="0"/></g></g></svg>