<?xml version="1.0" encoding="UTF-8"?><svg id="b" xmlns="http://www.w3.org/2000/svg" viewBox="0 0 88.68 65.75"><g id="c"><g id="d"><g id="e"><path d="M11.66,29.38c-.22,1.09-.51,2.74-.78,4.75-.4,3.14-.22,3.26-.45,4.47-.83,4.35-3.64,4.46-5.13,9.16-.27,.86-.47,2.48-.87,5.74-.3,2.35-.46,4.31-.57,5.67-.46,.66-.92,1.31-1.38,1.97,.36,.6,.71,1.23,1.07,1.92,.34,.64,.64,1.27,.92,1.87,1.06,.05,2.48-.03,3.05-.91,.52-.79-.03-1.61-.11-3.18-.09-1.84,.56-3.2,1.48-5.11,.66-1.36,1.51-3.15,3.27-4.66,2.86-2.46,6.36-2.64,7.74-2.63-.31,1.53-.56,3.82,0,6.47,.56,2.63,1.65,4.44,2.46,5.74,1.36,2.19,2.91,3.81,4.21,4.96,2.42,.04,4.83,.09,7.25,.13,.08-.55,.08-1.34-.39-1.95-.81-1.04-2.24-.52-3.72-1.16-1.92-.83-3.29-3.38-3.07-5.37,.24-2.11,2.19-2.69,4.8-5.62,2-2.24,3.16-4.47,3.83-6.02,2.14,.78,4.96,1.57,8.33,1.94,2.68,.29,5.04,.26,6.98,.1,.43,2.13,.32,3.8,.14,4.94-.4,2.57-1.28,3.07-1.37,5.63-.03,.74,.04,.75,.26,4.01,.1,1.41,.15,2.56,.2,3.3,1.89-.01,3.79-.03,5.68-.04,.23-.39,.47-.97,.32-1.57-.23-.92-1.19-1.05-1.69-1.68-1.36-1.68,1.31-5.98,2.74-8.27,.89-1.42,2.22-3.38,4.11-5.54,.56,.25,1.45,.56,2.6,.63,1.37,.08,2.44-.25,3.05-.48,.16,2.87,.92,4.93,1.6,6.29,1.67,3.35,7.28,10.16,7.44,10.6,2.22-.06,4.44-.13,6.66-.19,0-.66-.11-1.55-.72-2.2-.79-.84-1.78-.62-2.81-1.22-.99-.6-1.51-1.67-1.96-3.37-1.55-5.86-.1-10.84-.92-18.62-.2-1.91-.48-3.5,.46-5.11,1.09-1.87,3.45-3.09,5.51-3.43,1.58-.27,1.99,.14,3.08-.22,2.03-.67,3.13-2.9,3.73-4.71-2.34-1.42-3.37-2.92-3.87-4.08-.44-1-.7-2.22-1.86-3.11-.69-.53-1.43-.74-1.96-.82,.09-4.6-.35-5.73-.8-5.81-.77-.14-1.15,2.82-3.97,4.84-1.67,1.2-2.51,.87-4.83,2-3.1,1.53-3.45,3.03-5.36,4.27-3.24,2.09-6.09,.22-15-.87-5.28-.65-9.3-.61-12.88-.57-4.78,.04-8.82,.11-14.03,1.15-4.85,.97-4.82,1.62-6.69,1.44-7.8-.75-14.73-12.61-12.08-17.77,.12-.24,1.22-2.37,3.22-2.79,2.14-.45,3.78,1.38,4.47,.79,.71-.62,.02-3.52-1.78-4.57C8.51-1.14,3.02,1.55,1.07,4.69c-3.25,5.22,1.1,15.1,10.58,24.69h.01Z" fill="#cca481"/><path d="M19.9,48.45c-.31,1.53-.56,3.82,0,6.47,.56,2.63,1.65,4.44,2.46,5.74,1.36,2.19,2.91,3.81,4.21,4.96,2.42,.04,4.83,.09,7.25,.13,.08-.55,.08-1.34-.39-1.95-.81-1.04-2.24-.52-3.72-1.16-1.92-.83-3.29-3.38-3.07-5.37,.23-2.11,2.19-2.69,4.8-5.62,2-2.24,3.16-4.48,3.83-6.02-2.46,1.17-6.06,2.49-10.53,2.84-1.77,.14-3.4,.1-4.83-.02Z" fill="#b8846e"/><path d="M80.25,20.19c-.35,.08-.78-.31-.95-.66-.35-.69,.16-1.46,.67-2.72,.27-.69,.62-1.7,.85-3.01,.03,.17,.08,.43,.12,.75,.31,2.24,.2,5.44-.69,5.63h0Z" fill="#f89fa3"/><path d="M82.8,23.68c-.19,.11-.84,.48-1.49,.23-.64-.25-.86-.97-.92-1.18,.19-.11,.84-.48,1.49-.23,.64,.25,.86,.97,.92,1.18Z"/><path d="M57.19,43.46c-.02,.1-.04,.2-.05,.29-.02,.11-.03,.22-.05,.32-.02,.18-.03,.36-.04,.54,0,.19-.02,.38-.02,.57,0,.1,.02,.2,.03,.3,.02,.1,.04,.21,.08,.3,.02,.09,.12,.14,.21,.12,.09-.02,.13-.12,.12-.21-.02-.08-.03-.16-.04-.25,0-.12-.02-.23-.02-.35v-.36c0-.12,0-.25,.02-.37,0-.07,0-.13,.02-.19,0-.05,0-.1,.02-.15,0-.06,.02-.14,.03-.21,0-.04,.02-.09,.02-.12,0-.05,.02-.1,.03-.15,.02-.1-.03-.19-.13-.22h-.04c-.08,0-.15,.05-.17,.13v-.02Z" fill="#b8846e"/><path d="M56.29,43.11c-.05,.26-.12,.51-.14,.78,0,.12-.03,.25-.04,.37,0,.15-.02,.3-.02,.45,0,.1,.08,.17,.17,.17,.04,0,.09-.02,.12-.05,.03-.03,.04-.08,.05-.12,.02-.28,.05-.55,.09-.83,.02-.11,.03-.21,.05-.31,.02-.12,.05-.24,.08-.35,.02-.1-.03-.21-.13-.23h-.05c-.08,0-.16,.05-.19,.14v-.02h.01Z" fill="#b8846e"/><path d="M55.27,42.18c-.08,.12-.15,.25-.23,.37-.08,.13-.14,.27-.21,.41-.03,.05-.04,.12-.02,.17,.02,.07,.05,.11,.11,.14,.11,.07,.25,.02,.32-.09,.15-.25,.32-.51,.47-.76,.08-.12,.03-.28-.09-.35-.04-.02-.09-.03-.13-.03-.09,0-.17,.04-.22,.13Z" fill="#b8846e"/><path d="M54.77,40.25c-.15,.18-.31,.37-.45,.56-.07,.09-.13,.17-.19,.27-.07,.11-.13,.23-.2,.34-.04,.08-.02,.18,.05,.23,.08,.04,.19,.02,.23-.05,.08-.13,.15-.28,.25-.4,.08-.12,.16-.24,.25-.35,0,.01-.02,.02-.02,.03l.02-.04v.02s.03-.04,.04-.05v.02s0-.02,.02-.03c0,0,0-.01,.02-.02,0,0,.02-.02,.03-.04h0s0-.02,0-.01c.05-.08,.12-.14,.19-.22,.03-.04,.04-.08,.04-.12s-.02-.09-.04-.12c-.03-.03-.08-.05-.13-.05-.04,0-.09,.02-.12,.05h-.01Zm-.04,.56s0-.01,.02-.02c0,0,0,.01-.02,.02Zm0,0s0-.01,.02-.02c0,0,0,.01-.02,.02Zm.05-.08s0,.02-.02,.02c0,0,.02-.02,.02-.03h0Z" fill="#b8846e"/><path d="M53.39,37.23c-.12,.08-.25,.14-.37,.22-.13,.09-.26,.18-.38,.29-.13,.13-.25,.27-.36,.4-.15,.18-.31,.37-.45,.56-.04,.05-.02,.14,.02,.17,.03,.03,.07,.04,.11,.04,.03,0,.08-.01,.1-.04,.13-.15,.25-.3,.38-.45,.16-.19,.34-.39,.54-.55,.1-.06,.19-.13,.28-.19,.1-.07,.2-.12,.3-.17,.08-.04,.11-.15,.07-.23-.03-.05-.09-.08-.15-.08-.03,0-.05,0-.09,.02h.01Z" fill="#b8846e"/><path d="M52.94,38.58c-.12,.18-.25,.37-.37,.55-.12,.18-.26,.36-.38,.53-.08,.11-.02,.26,.09,.32,.05,.03,.12,.04,.19,.02,.07-.01,.11-.05,.14-.11,.07-.1,.14-.19,.21-.28l-.04,.05c.1-.13,.21-.27,.31-.4,.1-.14,.2-.29,.3-.43,.08-.11,.02-.27-.09-.34-.04-.02-.08-.03-.12-.03-.09,0-.16,.04-.22,.12h0Z" fill="#b8846e"/><path d="M55.52,33.95c-.3,.05-.6,.1-.9,.16-.3,.07-.58,.16-.85,.3-.09,.04-.12,.17-.07,.25,.02,.04,.07,.08,.11,.09,.05,.01,.1,0,.14-.02,.03-.02,.08-.03,.11-.04,.24-.09,.49-.13,.74-.18,.27-.05,.55-.1,.82-.15,.05,0,.1-.05,.13-.1s.03-.11,.02-.16c-.02-.05-.05-.1-.1-.12-.03-.02-.07-.03-.1-.03h-.07Z" fill="#b8846e"/><path d="M54.81,35.16c-.16,0-.33,.04-.49,.08-.08,.02-.15,.04-.22,.07-.08,.02-.15,.05-.23,.09-.17,.08-.35,.16-.52,.25-.1,.05-.13,.18-.08,.27,.02,.04,.07,.08,.12,.1s.1,0,.15-.02c.14-.07,.28-.13,.43-.19,.12-.04,.25-.1,.38-.13,.13-.03,.25-.05,.38-.09h.26c.12,0,.23,.01,.35,.02,.11,0,.21-.1,.21-.21,0-.05-.02-.11-.05-.14-.04-.04-.09-.05-.14-.05-.14-.01-.28-.02-.44-.02h-.11Z" fill="#b8846e"/><path d="M58.09,37.09c-.07,.19-.13,.4-.21,.58-.04,.13-.09,.27-.12,.4-.02,.11-.03,.21-.04,.32,0,.04,0,.08-.02,.12,0,.02,0,.04,.02,.07,.02,.03,.04,.05,.08,.05s.08,0,.1-.01c.02-.01,.05-.04,.05-.08,.02-.12,.04-.25,.07-.37,.02-.15,.08-.29,.13-.43,.07-.19,.14-.4,.21-.6,.02-.08-.02-.15-.1-.17h-.04c-.07,0-.12,.04-.14,.11h.02Zm-.36,1.33h0s0,0,0,0Z" fill="#b8846e"/><path d="M58.96,38.66c-.03,.13-.07,.25-.08,.38-.02,.13-.04,.25-.04,.38v.36c0,.06,.02,.13,.03,.21,0,.09,.03,.16,.05,.24,.02,.05,.09,.1,.14,.08,.07-.02,.1-.08,.08-.14,0-.07-.03-.12-.04-.18v-.42c0-.11,0-.22,.02-.32,0-.08,.02-.15,.04-.23,.02-.1,.04-.18,.05-.28,.02-.06-.02-.13-.09-.15h-.03s-.11,.04-.12,.1h-.02Z" fill="#b8846e"/><path d="M59.31,41.26s-.05,.05-.08,.09c0,.04,0,.08,.02,.12,.07,.14,.13,.28,.2,.41,.05,.12,.12,.24,.2,.36,.14,.25,.3,.49,.44,.73,.04,.07,.12,.09,.19,.05,.07-.04,.09-.12,.05-.2-.13-.25-.27-.49-.4-.74-.07-.12-.13-.24-.2-.36-.07-.14-.13-.28-.2-.42-.02-.04-.05-.07-.1-.08h-.04s-.05,0-.08,.02h0Z" fill="#b8846e"/><path d="M58.47,41.15v.39c0,.05,.02,.11,.02,.15,0,.06,.02,.13,.03,.19,0,.05,.02,.11,.04,.16,0,.05,.03,.1,.04,.15,.03,.1,.07,.2,.11,.29,.02,.08,.05,.16,.09,.24,.03,.09,.05,.17,.09,.25,.07,.18,.13,.36,.21,.54,0,.02,.02,.04,.04,.06,.02,.01,.05,.02,.08,0,.02,0,.05-.02,.07-.04,.01-.02,.02-.05,.01-.08-.1-.24-.17-.48-.26-.7-.08-.21-.15-.4-.22-.61-.02-.05-.03-.1-.04-.14,0-.03-.02-.08-.03-.11-.02-.08-.03-.16-.05-.24v-.13s0,.01,0,0c0,0,0-.11-.02-.16v-.22s-.04-.1-.1-.1-.1,.04-.1,.1h0Zm.24,.47h0s0,0,0,0Z" fill="#b8846e"/><path d="M78.04,23.89v.39c0,.05,.02,.11,.02,.15,0,.07,.02,.13,.03,.19,0,.05,.02,.11,.04,.16,0,.05,.03,.1,.04,.15,.03,.1,.07,.19,.11,.29,.02,.08,.05,.16,.09,.24,.03,.09,.05,.17,.09,.25,.07,.18,.13,.36,.21,.54,0,.02,.02,.04,.04,.07,.02,.01,.05,.02,.08,0,.02,0,.05-.02,.07-.04,.01-.02,.02-.05,.01-.08-.1-.24-.17-.48-.26-.7-.08-.21-.15-.4-.22-.61-.02-.05-.03-.1-.04-.14,0-.03-.02-.08-.03-.11-.02-.08-.03-.16-.05-.24v-.13s0,.01,0,0c0,0,0-.11-.02-.16v-.22s-.04-.1-.1-.1-.1,.04-.1,.1h0Zm.24,.47h0s0,0,0,0Z" fill="#b8846e"/><path d="M59.75,44.62s-.09,.04-.12,.09c-.02,.04-.02,.1-.02,.14,.03,.15,.05,.3,.1,.45,.02,.06,.03,.14,.05,.21,.02,.09,.05,.17,.09,.25,.01,.04,.04,.08,.08,.11,.04,.02,.09,.03,.13,.02,.1-.02,.15-.12,.12-.22-.09-.3-.14-.62-.21-.92-.02-.09-.1-.14-.19-.14h-.03Z" fill="#b8846e"/><path d="M49.45,38.47c-.03,.13-.07,.25-.08,.38-.02,.13-.04,.25-.04,.38v.36c0,.07,.02,.13,.03,.21,0,.09,.03,.16,.05,.24,.02,.05,.09,.1,.14,.08,.07-.02,.1-.08,.08-.14,0-.06-.03-.12-.04-.18v-.42c0-.11,0-.22,.02-.32,0-.08,.02-.15,.04-.23,.02-.1,.04-.18,.05-.28,.02-.07-.02-.13-.09-.15h-.03s-.11,.04-.12,.1h-.02Z" fill="#b8846e"/><path d="M49.8,41.07s-.05,.05-.08,.09c0,.04,0,.08,.02,.12,.07,.14,.13,.28,.2,.41,.05,.12,.12,.24,.2,.36,.14,.25,.3,.49,.44,.73,.04,.07,.12,.09,.19,.05,.07-.04,.09-.12,.05-.2-.13-.25-.27-.49-.4-.74-.07-.12-.13-.24-.2-.36l-.2-.42s-.05-.07-.1-.08h-.04s-.05,0-.08,.02h0Z" fill="#b8846e"/><path d="M48.96,40.96v.39c0,.05,.02,.11,.02,.15,0,.07,.02,.13,.03,.19,0,.05,.02,.11,.04,.16,0,.05,.03,.1,.04,.15,.03,.1,.07,.19,.11,.29,.02,.08,.05,.16,.09,.24,.03,.09,.05,.17,.09,.25,.07,.18,.13,.36,.21,.54,0,.02,.02,.04,.04,.07,.02,.01,.05,.02,.08,0,.02,0,.05-.02,.07-.04,.01-.02,.02-.05,.01-.08-.1-.24-.17-.48-.26-.7-.08-.21-.15-.4-.22-.61-.02-.05-.03-.1-.04-.14,0-.03-.02-.08-.03-.11-.02-.08-.03-.16-.05-.24v-.13s0,.01,0,0c0,0,0-.11-.02-.16v-.22s-.04-.1-.1-.1-.1,.04-.1,.1h0Zm.24,.47h0s0,0,0,0Z" fill="#b8846e"/><path d="M50.24,44.44s-.09,.04-.12,.09c-.02,.04-.02,.1-.02,.14,.03,.15,.05,.3,.1,.45,.02,.07,.03,.14,.05,.21,.02,.09,.05,.17,.09,.25,.01,.04,.04,.08,.08,.11,.04,.02,.09,.03,.13,.02,.1-.02,.15-.12,.12-.22-.09-.3-.14-.62-.21-.92-.02-.09-.1-.14-.19-.14h-.03Z" fill="#b8846e"/><path d="M35.87,36.37c-.03,.13-.07,.25-.08,.38-.02,.13-.04,.25-.04,.38v.36c0,.07,.02,.13,.03,.21,0,.09,.03,.16,.05,.24,.02,.05,.09,.1,.14,.08,.07-.02,.1-.08,.08-.14,0-.06-.03-.12-.04-.18v-.42c0-.11,0-.22,.02-.32,0-.08,.02-.15,.04-.23,.02-.1,.04-.18,.05-.28,.02-.07-.02-.13-.09-.15h-.03s-.11,.04-.12,.1h-.02Z" fill="#b8846e"/><path d="M36.22,38.97s-.05,.05-.08,.09c0,.04,0,.08,.02,.12,.07,.14,.13,.28,.2,.41,.05,.12,.12,.24,.2,.36,.14,.25,.3,.49,.44,.73,.04,.07,.12,.09,.19,.05,.07-.04,.09-.12,.05-.19-.13-.25-.27-.49-.4-.74-.07-.12-.13-.24-.2-.36l-.2-.42s-.05-.07-.1-.08h-.04s-.05,0-.08,.02h0Z" fill="#b8846e"/><path d="M35.38,38.86v.39c0,.05,.02,.11,.02,.15,0,.07,.02,.13,.03,.19,0,.05,.02,.11,.04,.16,0,.05,.03,.1,.04,.15,.03,.1,.07,.19,.11,.29,.02,.08,.05,.16,.09,.24,.03,.09,.05,.17,.09,.25,.07,.18,.13,.36,.21,.54,0,.02,.02,.04,.04,.07,.02,.01,.05,.02,.08,0,.02,0,.05-.02,.07-.04s.02-.05,.01-.08c-.1-.24-.17-.48-.26-.7-.08-.21-.15-.4-.22-.61-.02-.05-.03-.1-.04-.14,0-.03-.02-.08-.03-.11-.02-.08-.03-.16-.05-.24v-.13s0,.01,0,0c0,0,0-.11-.02-.16v-.22s-.04-.1-.1-.1-.1,.04-.1,.1h0Zm.24,.47h0s0,0,0,0Z" fill="#b8846e"/><path d="M36.65,42.34s-.09,.04-.12,.09c-.02,.04-.02,.1-.02,.14,.03,.15,.05,.3,.1,.45,.02,.07,.03,.14,.05,.21,.02,.09,.05,.17,.09,.25,.01,.04,.04,.08,.08,.11,.04,.02,.09,.03,.13,.02,.1-.02,.15-.12,.12-.22-.09-.3-.14-.62-.21-.92-.02-.09-.1-.14-.19-.14h-.03Z" fill="#b8846e"/><path d="M56.45,38.26s-.02,.02-.02,.03c0,.02-.02,.04-.02,.07-.02,.16-.04,.32-.05,.48,0,.14-.02,.27-.02,.41,0,.13-.02,.25,0,.38v.23c.02,.1,.03,.19,.05,.28,0,.03,.03,.05,.05,.08,.03,.02,.07,.02,.1,0,.03,0,.05-.02,.08-.05,.02-.03,.02-.07,0-.1v-.08c0-.13-.02-.25-.02-.38s0-.27,.02-.4c0-.13,.02-.26,.03-.39l.07-.48s-.02-.08-.04-.1-.05-.04-.1-.04c-.03,0-.07,.01-.1,.04v.02h-.02Z" fill="#b8846e"/><path d="M56.95,40.38c0,.16,.02,.32,.03,.5,0,.09,0,.17,.02,.27,.02,.1,.03,.17,.05,.27,.02,.1,.13,.15,.22,.12,.04-.01,.09-.04,.11-.08,.02-.04,.02-.09,.02-.14v-.08c-.02-.28-.04-.57-.05-.86,0-.05-.02-.1-.05-.14-.04-.03-.09-.05-.13-.05-.1,0-.21,.09-.2,.2h-.02Z" fill="#b8846e"/><path d="M64.78,42.45c-.02,.1-.04,.19-.05,.29-.02,.11-.03,.22-.05,.32-.02,.18-.03,.36-.04,.54,0,.19-.02,.38-.02,.57,0,.1,.02,.19,.03,.3,.02,.1,.04,.21,.08,.3,.02,.09,.12,.14,.21,.12,.09-.02,.13-.12,.12-.21-.02-.08-.03-.16-.04-.25,0-.12-.02-.23-.02-.35v-.36c0-.12,0-.25,.02-.37,0-.06,0-.13,.02-.19,0-.05,0-.1,.02-.15,0-.07,.02-.14,.03-.21,0-.04,.02-.09,.02-.12,0-.05,.02-.1,.03-.15,.02-.1-.03-.19-.13-.22h-.04c-.08,0-.15,.05-.17,.13v-.02Z" fill="#b8846e"/><path d="M63.87,42.09c-.05,.26-.12,.51-.14,.78,0,.12-.03,.25-.04,.37,0,.15-.02,.3-.02,.45,0,.1,.08,.17,.17,.17,.04,0,.09-.02,.12-.05s.04-.08,.05-.12c.02-.28,.05-.55,.09-.83,.02-.11,.03-.21,.05-.31,.02-.12,.05-.24,.08-.35,.02-.1-.03-.21-.13-.23h-.05c-.08,0-.16,.05-.19,.14v-.02h.01Z" fill="#b8846e"/><path d="M62.85,41.16c-.08,.12-.15,.25-.23,.37-.08,.13-.14,.27-.21,.41-.03,.05-.04,.12-.02,.17,.02,.07,.05,.11,.11,.14,.11,.07,.25,.02,.32-.09,.15-.25,.32-.51,.47-.76,.08-.12,.03-.28-.09-.35-.04-.02-.09-.03-.13-.03-.09,0-.17,.04-.22,.13Z" fill="#b8846e"/><path d="M62.35,39.23c-.15,.18-.31,.37-.45,.56-.07,.09-.13,.17-.19,.27-.07,.11-.13,.23-.2,.34-.04,.08-.02,.18,.05,.23,.08,.04,.19,.02,.23-.05,.08-.13,.15-.28,.25-.4,.08-.12,.16-.24,.25-.35,0,.01-.02,.02-.02,.03l.02-.04v.02s.03-.04,.04-.05v.02s0-.02,.02-.03c0,0,0-.01,.02-.02,0,0,.02-.02,.03-.04h0s0-.02,0-.01c.05-.08,.12-.14,.19-.22,.03-.04,.04-.08,.04-.12s-.02-.09-.04-.12c-.03-.03-.08-.05-.13-.05-.04,0-.09,.02-.12,.05h-.01Zm-.04,.56s0-.01,.02-.02c0,0,0,.01-.02,.02Zm0,0s0-.01,.02-.02c0,0,0,.01-.02,.02Zm.05-.08s0,.02-.02,.02c0,0,.02-.02,.02-.03h0Z" fill="#b8846e"/><path d="M64.54,39.36c0,.16,.02,.32,.03,.5,0,.09,0,.17,.02,.27,.02,.1,.03,.17,.05,.27,.02,.1,.13,.15,.22,.12,.04-.01,.09-.04,.11-.08,.02-.04,.02-.09,.02-.14v-.08c-.02-.28-.04-.57-.05-.86,0-.05-.02-.1-.05-.14-.04-.03-.09-.05-.13-.05-.1,0-.21,.09-.2,.19h-.02Z" fill="#b8846e"/><path d="M56.02,50.18c-.02,.1-.04,.2-.05,.29-.02,.11-.03,.22-.05,.32-.02,.18-.03,.36-.04,.54,0,.19-.02,.38-.02,.57,0,.1,.02,.2,.03,.3,.02,.1,.04,.21,.08,.3,.02,.09,.12,.14,.21,.12,.09-.02,.13-.12,.12-.21-.02-.08-.03-.16-.04-.25,0-.12-.02-.23-.02-.35v-.36c0-.12,0-.25,.02-.37,0-.07,0-.13,.02-.19,0-.05,0-.1,.02-.15,0-.07,.02-.14,.03-.21,0-.04,.02-.09,.02-.12,0-.05,.02-.1,.03-.15,.02-.1-.03-.19-.13-.22h-.04c-.08,0-.15,.05-.17,.13v-.02Z" fill="#b8846e"/><path d="M55.78,47.09c0,.16,.02,.32,.03,.5,0,.09,0,.17,.02,.27,.02,.1,.03,.17,.05,.27,.02,.1,.13,.15,.22,.12,.04-.01,.09-.04,.11-.08,.02-.04,.02-.09,.02-.14v-.08c-.02-.28-.04-.57-.05-.86,0-.05-.02-.1-.05-.14-.04-.03-.09-.05-.13-.05-.1,0-.21,.09-.2,.2h-.02Z" fill="#b8846e"/><path d="M47.77,31.84c-.02,.1-.04,.19-.05,.29-.02,.11-.03,.22-.05,.32-.02,.18-.03,.36-.04,.54,0,.19-.02,.38-.02,.57,0,.1,.02,.19,.03,.3,.02,.1,.04,.21,.08,.3,.02,.09,.12,.14,.21,.12,.09-.02,.13-.12,.12-.21-.02-.08-.03-.16-.04-.25,0-.12-.02-.23-.02-.35v-.36c0-.12,0-.25,.02-.37,0-.07,0-.13,.02-.19,0-.05,0-.1,.02-.15,0-.07,.02-.14,.03-.21,0-.04,.02-.09,.02-.12,0-.05,.02-.1,.03-.15,.02-.1-.03-.2-.13-.22h-.04c-.08,0-.15,.05-.17,.13v-.02Z" fill="#b8846e"/><path d="M46.86,31.48c-.05,.26-.12,.51-.14,.78,0,.12-.03,.25-.04,.37,0,.15-.02,.3-.02,.45,0,.1,.08,.17,.17,.17,.04,0,.09-.02,.12-.05,.03-.03,.04-.08,.05-.12,.02-.28,.05-.55,.09-.83,.02-.11,.03-.21,.05-.31,.02-.12,.05-.24,.08-.35,.02-.1-.03-.21-.13-.23h-.05c-.08,0-.16,.05-.19,.14v-.02h.01Z" fill="#b8846e"/><path d="M45.85,30.55c-.08,.12-.15,.25-.23,.37-.08,.13-.14,.27-.21,.41-.03,.05-.04,.12-.02,.17,.02,.07,.05,.11,.11,.14,.11,.07,.25,.02,.32-.09,.15-.25,.32-.51,.47-.76,.08-.12,.03-.28-.09-.35-.04-.02-.09-.03-.13-.03-.09,0-.17,.04-.22,.13Z" fill="#b8846e"/><path d="M49.89,29.63s-.05,.05-.08,.09c0,.04,0,.08,.02,.12,.07,.14,.13,.28,.2,.41,.05,.12,.12,.24,.2,.36,.14,.25,.3,.49,.44,.73,.04,.07,.12,.09,.19,.05,.07-.04,.09-.12,.05-.2-.13-.25-.27-.49-.4-.74l-.2-.36c-.07-.14-.13-.28-.2-.42-.02-.04-.05-.07-.1-.08h-.04s-.05,0-.08,.02h0Z" fill="#b8846e"/><path d="M49.05,29.52v.39c0,.05,.02,.11,.02,.15,0,.07,.02,.13,.03,.19,0,.05,.02,.11,.04,.16,0,.05,.03,.1,.04,.15,.03,.1,.07,.19,.11,.29,.02,.08,.05,.16,.09,.24,.03,.09,.05,.17,.09,.25,.07,.18,.13,.36,.21,.54,0,.02,.02,.04,.04,.07,.02,.01,.05,.02,.08,0,.02,0,.05-.02,.07-.04,.01-.02,.02-.05,.01-.08-.1-.24-.17-.48-.26-.7-.08-.21-.15-.4-.22-.61-.02-.05-.03-.1-.04-.14,0-.03-.02-.08-.03-.11-.02-.08-.03-.16-.05-.24v-.13s0,.01,0,0c0,0,0-.11-.02-.16v-.22s-.04-.1-.1-.1-.1,.04-.1,.1h0Zm.24,.47h0s0,0,0,0Z" fill="#b8846e"/><path d="M50.33,33s-.09,.04-.12,.09c-.02,.04-.02,.1-.02,.14,.03,.15,.05,.3,.1,.45,.02,.07,.03,.14,.05,.21,.02,.09,.05,.17,.09,.25,.01,.04,.04,.08,.08,.11,.04,.02,.09,.03,.13,.02,.1-.02,.15-.12,.12-.22-.09-.3-.14-.62-.21-.92-.02-.09-.1-.14-.19-.14h-.03Z" fill="#b8846e"/><path d="M64.16,32.15s-.05,.05-.08,.09c0,.04,0,.08,.02,.12,.07,.14,.13,.28,.2,.41,.05,.12,.12,.24,.2,.36,.14,.25,.3,.49,.44,.73,.04,.06,.12,.09,.19,.05,.07-.04,.09-.12,.05-.2-.13-.25-.27-.49-.4-.74-.07-.12-.13-.24-.2-.36-.07-.14-.13-.28-.2-.42-.02-.04-.05-.07-.1-.08h-.04s-.05,0-.08,.02h0Z" fill="#b8846e"/><path d="M72.19,30.78s-.05,.05-.08,.09c0,.04,0,.08,.02,.12,.07,.14,.13,.28,.2,.41,.05,.12,.12,.24,.2,.36,.14,.25,.3,.49,.44,.73,.04,.07,.12,.09,.19,.05,.07-.04,.09-.12,.05-.19-.13-.25-.27-.49-.4-.74-.07-.12-.13-.24-.2-.36-.07-.14-.13-.28-.2-.42-.02-.04-.05-.07-.1-.08h-.04s-.05,0-.08,.02h0Z" fill="#b8846e"/><path d="M63.31,32.04v.39c0,.05,.02,.11,.02,.15,0,.07,.02,.13,.03,.2,0,.05,.02,.11,.04,.16,0,.05,.03,.1,.04,.15,.03,.1,.07,.19,.11,.29,.02,.08,.05,.16,.09,.24,.03,.09,.05,.17,.09,.25,.07,.18,.13,.36,.21,.54,0,.02,.02,.04,.04,.07,.02,.01,.05,.02,.08,0,.02,0,.05-.02,.07-.04,.01-.02,.02-.05,.01-.08-.1-.24-.17-.48-.26-.7-.08-.21-.15-.4-.22-.61-.02-.05-.03-.1-.04-.14,0-.03-.02-.08-.03-.11-.02-.08-.03-.16-.05-.24v-.13s0,.01,0,0c0,0,0-.11-.02-.16v-.22s-.04-.1-.1-.1-.1,.04-.1,.1h0Zm.24,.47h0s0,0,0,0Z" fill="#b8846e"/><path d="M64.59,35.52s-.09,.04-.12,.09c-.02,.04-.02,.1-.02,.14,.03,.15,.05,.3,.1,.45,.02,.06,.03,.14,.05,.21,.02,.09,.05,.17,.09,.25,.01,.04,.04,.08,.08,.11,.04,.02,.09,.03,.13,.02,.1-.02,.15-.12,.12-.22-.09-.3-.14-.62-.21-.92-.02-.09-.1-.14-.19-.14h-.03Z" fill="#b8846e"/><path d="M52.44,55.19c-.03,.1-.08,.18-.1,.28-.04,.11-.07,.21-.11,.31-.05,.17-.09,.35-.13,.53-.04,.19-.09,.37-.12,.56-.02,.1-.01,.19-.02,.3,0,.1,0,.21,.02,.31,0,.09,.1,.16,.19,.15,.09,0,.15-.1,.15-.18v-.25c0-.12,.02-.23,.03-.35l.07-.36c.02-.12,.04-.25,.09-.36,.01-.07,.02-.13,.05-.18,0-.05,.02-.1,.04-.14,.01-.07,.04-.13,.07-.2,0-.04,.03-.09,.04-.12,0-.05,.03-.1,.05-.14,.03-.1,0-.19-.09-.24h-.04c-.08-.02-.16,.02-.2,.09v-.02h0Z" fill="#b8846e"/><path d="M51.61,54.68c-.1,.25-.21,.48-.27,.75-.03,.12-.08,.24-.11,.36-.03,.15-.08,.29-.1,.44-.02,.1,.04,.18,.14,.2,.04,0,.09,0,.13-.03,.04-.03,.05-.06,.08-.11,.07-.27,.14-.53,.23-.81,.04-.11,.07-.19,.11-.3,.04-.12,.1-.23,.13-.32,.03-.1,0-.21-.09-.25h-.05c-.08-.02-.17,.02-.21,.1v-.02h.01Z" fill="#b8846e"/><path d="M52.72,52.1c-.02,.16-.03,.32-.05,.5-.01,.09-.02,.17-.02,.27v.27c0,.1,.1,.17,.2,.15,.04,0,.1-.03,.12-.05,.03-.04,.03-.09,.04-.13v-.08c.02-.28,.05-.57,.09-.86,0-.05,0-.1-.03-.15-.03-.04-.08-.07-.12-.08-.1-.02-.22,.05-.23,.16h.01Z" fill="#b8846e"/><path d="M53.56,44.93s-.07,.04-.09,.08c-.02,.04-.01,.08,0,.12,.04,.15,.08,.3,.12,.43,.03,.13,.08,.26,.13,.39,.1,.27,.21,.53,.31,.79,.03,.08,.11,.11,.17,.09,.08-.03,.11-.11,.09-.18-.09-.27-.19-.53-.27-.79-.04-.13-.09-.26-.13-.39-.04-.15-.08-.3-.12-.44-.01-.04-.04-.08-.09-.09h-.04s-.05-.02-.08,0Z" fill="#b8846e"/><path d="M52.76,44.68l-.03,.22s-.02,.12-.02,.17v.15c-.01,.06,0,.13,0,.19,0,.05,0,.11,.01,.16,0,.05,.01,.1,.02,.15,.01,.1,.03,.21,.05,.3,0,.08,.02,.17,.04,.25,.02,.09,.02,.18,.04,.26,.03,.19,.07,.38,.11,.56,0,.02,.01,.04,.03,.08,.02,.01,.05,.03,.08,.01,.02,0,.05-.01,.08-.03s.03-.05,.02-.08c-.05-.25-.09-.5-.14-.74-.04-.22-.09-.42-.11-.64-.01-.05-.01-.1-.02-.14,0-.03,0-.08-.01-.11,0-.08,0-.16-.01-.25v-.03s.01-.05,.01-.05v0s.01-.03,.01-.04v-.16l.02-.1,.02-.12s-.02-.11-.08-.11-.11,.02-.11,.08h-.02Zm.15,.52v-.01h0Zm0-.03v0Z" fill="#b8846e"/><path d="M53.43,48.32s-.1,.03-.13,.06c-.03,.04-.03,.1-.04,.13,0,.15,0,.3,.02,.47,0,.07,0,.14,.02,.22,0,.09,.02,.18,.04,.26,0,.04,.03,.09,.05,.12,.04,.03,.08,.04,.12,.04,.1,0,.17-.1,.15-.19-.03-.31-.03-.63-.05-.94,0-.09-.08-.15-.16-.17h-.02Z" fill="#b8846e"/><path d="M47.53,28.75c0,.16,.02,.32,.03,.5,0,.09,0,.17,.02,.27,.02,.1,.03,.17,.05,.27,.02,.1,.13,.15,.22,.12,.04-.01,.09-.04,.11-.08,.02-.04,.02-.09,.02-.14v-.08c-.02-.28-.04-.57-.05-.86,0-.05-.02-.1-.05-.14-.04-.03-.09-.05-.13-.05-.1,0-.21,.09-.2,.19h-.02Z" fill="#b8846e"/><path d="M29.64,39.31c-.02,.1-.04,.19-.05,.29-.02,.11-.03,.22-.05,.32-.02,.18-.03,.36-.04,.54,0,.2-.02,.38-.02,.57,0,.1,.02,.19,.03,.3,.02,.1,.04,.21,.08,.3,.02,.09,.12,.14,.21,.12,.09-.02,.13-.12,.12-.21-.02-.08-.03-.16-.04-.25,0-.12-.02-.23-.02-.35v-.36c0-.12,0-.25,.02-.37,0-.07,0-.13,.02-.2,0-.05,0-.1,.02-.15,0-.07,.02-.14,.03-.21,0-.04,.02-.09,.02-.12,0-.05,.02-.1,.03-.15,.02-.1-.03-.19-.13-.22h-.04c-.08,0-.15,.05-.17,.13v-.02Z" fill="#b8846e"/><path d="M28.73,38.95c-.05,.26-.12,.51-.14,.78,0,.12-.03,.25-.04,.37,0,.15-.02,.3-.02,.45,0,.1,.08,.17,.17,.17,.04,0,.09-.02,.12-.05,.03-.03,.04-.08,.05-.12,.02-.28,.05-.55,.09-.83,.02-.11,.03-.21,.05-.31,.02-.12,.05-.24,.08-.35,.02-.1-.03-.21-.13-.23h-.05c-.08,0-.16,.05-.19,.14v-.02h.01Z" fill="#b8846e"/><path d="M27.71,38.02c-.08,.12-.15,.25-.23,.37-.08,.13-.14,.27-.21,.41-.03,.05-.04,.12-.02,.17,.02,.06,.05,.11,.11,.14,.11,.06,.25,.02,.32-.09,.15-.25,.32-.51,.47-.76,.08-.12,.03-.28-.09-.35-.04-.02-.09-.03-.13-.03-.09,0-.17,.04-.22,.13Z" fill="#b8846e"/><path d="M31.76,37.1s-.05,.05-.08,.09c0,.04,0,.08,.02,.12,.07,.14,.13,.28,.2,.41,.05,.12,.12,.24,.2,.36,.14,.25,.3,.49,.44,.73,.04,.07,.12,.09,.19,.05,.07-.04,.09-.12,.05-.19-.13-.25-.27-.49-.4-.74l-.2-.36c-.07-.14-.13-.28-.2-.42-.02-.04-.05-.07-.1-.08h-.04s-.05,0-.08,.02h0Z" fill="#b8846e"/><path d="M30.92,36.99v.39c0,.05,.02,.11,.02,.15,0,.07,.02,.13,.03,.19,0,.05,.02,.11,.04,.16,0,.05,.03,.1,.04,.15,.03,.1,.07,.2,.11,.29,.02,.08,.05,.16,.09,.24,.03,.09,.05,.17,.09,.25,.07,.18,.13,.36,.21,.54,0,.02,.02,.04,.04,.07,.02,.01,.05,.02,.08,0,.02,0,.05-.02,.07-.04,.01-.02,.02-.05,.01-.08-.1-.24-.17-.48-.26-.7-.08-.21-.15-.4-.22-.61-.02-.05-.03-.1-.04-.14,0-.03-.02-.08-.03-.11-.02-.08-.03-.16-.05-.24v-.13s0,.01,0,0c0,0,0-.11-.02-.16v-.22s-.04-.1-.1-.1-.1,.04-.1,.1h0Zm.24,.47h0s0,0,0,0Z" fill="#b8846e"/><path d="M32.2,40.47s-.09,.04-.12,.09c-.02,.04-.02,.1-.02,.14,.03,.15,.05,.3,.1,.45,.02,.07,.03,.14,.05,.21,.02,.09,.05,.17,.09,.25,.01,.04,.04,.08,.08,.11,.04,.02,.09,.03,.13,.02,.1-.02,.15-.12,.12-.22-.09-.3-.14-.62-.21-.92-.02-.09-.1-.14-.19-.14h-.03Z" fill="#b8846e"/><path d="M28.05,42.34s-.05,.05-.08,.09c0,.04,0,.08,.02,.12,.07,.14,.13,.28,.2,.41,.05,.12,.12,.24,.2,.36,.14,.25,.3,.49,.44,.73,.04,.07,.12,.09,.19,.05,.07-.04,.09-.12,.05-.19-.13-.25-.27-.49-.4-.74-.07-.12-.13-.24-.2-.36-.07-.14-.13-.28-.2-.42-.02-.04-.05-.06-.1-.08h-.04s-.05,0-.08,.02h0Z" fill="#b8846e"/><path d="M28.49,45.71s-.09,.04-.12,.09c-.02,.04-.02,.1-.02,.14,.03,.15,.05,.3,.1,.45,.02,.07,.03,.14,.05,.21,.02,.09,.05,.17,.09,.25,.01,.04,.04,.08,.08,.11,.04,.02,.09,.03,.13,.02,.1-.02,.15-.12,.12-.22-.09-.3-.14-.62-.21-.92-.02-.09-.1-.14-.19-.14h-.03Z" fill="#b8846e"/><path d="M29.4,36.22c0,.16,.02,.32,.03,.5,0,.09,0,.17,.02,.27,.02,.1,.03,.17,.05,.27,.02,.1,.13,.15,.22,.12,.04-.01,.09-.04,.11-.08,.02-.04,.02-.09,.02-.14v-.08c-.02-.28-.04-.57-.05-.86,0-.05-.02-.1-.05-.14-.04-.03-.09-.05-.13-.05-.1,0-.21,.09-.2,.19h-.02Z" fill="#b8846e"/><path d="M58.47,32.59c-.08,.03-.15,.07-.23,.1-.07,.02-.13,.05-.2,.09-.05,.03-.11,.05-.16,.09-.05,.03-.11,.06-.16,.1-.05,.03-.1,.07-.15,.1-.05,.03-.1,.08-.14,.11-.11,.09-.22,.16-.33,.25-.03,.02-.05,.04-.05,.08v.1c.03,.06,.12,.09,.19,.05,.11-.08,.21-.14,.31-.21,.08-.05,.16-.11,.25-.17,.08-.05,.16-.1,.25-.15,.04-.02,.1-.05,.14-.08,.05-.02,.1-.04,.15-.08,.08-.03,.15-.05,.22-.09,.04-.01,.08-.03,.1-.08,.02-.03,.02-.08,.02-.12s-.04-.08-.08-.1c-.02-.01-.05-.02-.08-.02h-.04v.03Z" fill="#b8846e"/><path d="M59.07,33.6s-.08,.04-.11,.08c-.1,.14-.19,.28-.27,.42-.04,.05-.07,.12-.1,.18-.02,.04-.03,.09-.05,.13-.03,.08-.04,.14-.05,.22,0,.04,0,.09,.02,.13,.02,.03,.05,.07,.1,.08,.09,.02,.2-.02,.21-.12,0-.07,.02-.12,.05-.17,.05-.12,.11-.23,.17-.34,.07-.13,.15-.24,.23-.36,.05-.08,.01-.19-.07-.24-.02-.01-.05-.02-.09-.02h-.04Z" fill="#b8846e"/><path d="M60.72,35.08c-.05,.23-.11,.45-.13,.68-.01,.15-.02,.3,0,.45,0,.07,.02,.14,.04,.21,0,.04,.02,.08,.03,.12,.02,.07,.05,.13,.09,.19,.03,.05,.12,.08,.17,.04,.05-.04,.08-.12,.04-.17-.02-.02-.03-.05-.04-.09-.04-.11-.07-.22-.08-.32-.01-.12,0-.24,0-.36v-.12s.01-.08,.02-.12c.03-.15,.05-.29,.1-.44,.02-.07-.02-.13-.09-.15h-.03c-.05,0-.11,.04-.12,.1v-.02h-.01Z" fill="#b8846e"/><path d="M74.42,22.32c-.05,.23-.11,.45-.13,.68-.01,.15-.02,.3,0,.45,0,.07,.02,.14,.04,.21,0,.04,.02,.08,.03,.12,.02,.06,.05,.13,.09,.19,.03,.05,.12,.08,.17,.04,.05-.04,.08-.12,.04-.17-.02-.02-.03-.05-.04-.09-.04-.11-.07-.22-.08-.32-.01-.12,0-.24,0-.36v-.12s.01-.08,.02-.12c.03-.15,.05-.29,.1-.44,.02-.06-.02-.13-.09-.15h-.03c-.05,0-.11,.04-.12,.1v-.02h-.01Z" fill="#b8846e"/><path d="M66.48,25.87c-.07,.19-.13,.4-.21,.58-.04,.13-.09,.27-.12,.4-.02,.11-.03,.21-.04,.32,0,.04,0,.08-.02,.12,0,.02,0,.04,.02,.07,.02,.03,.04,.05,.08,.05s.08,0,.1-.01c.02-.01,.05-.04,.05-.08,.02-.12,.04-.25,.07-.37,.02-.15,.08-.29,.13-.43,.07-.19,.14-.4,.21-.6,.02-.08-.02-.15-.1-.17h-.04c-.07,0-.12,.04-.14,.11h.02Zm-.36,1.33h0s0,0,0,0Z" fill="#b8846e"/><path d="M67.36,27.44c-.03,.13-.07,.25-.08,.38-.02,.13-.04,.25-.04,.38v.36c0,.06,.02,.13,.03,.21,0,.09,.03,.16,.05,.24,.02,.05,.09,.1,.14,.08,.07-.02,.1-.08,.08-.14,0-.07-.03-.12-.04-.18v-.42c0-.11,0-.22,.02-.32,0-.08,.02-.15,.04-.23,.02-.1,.04-.18,.05-.28,.02-.06-.02-.13-.09-.15h-.03s-.11,.04-.12,.1h-.02Z" fill="#b8846e"/><path d="M67.71,30.04s-.05,.05-.08,.09c0,.04,0,.08,.02,.12,.07,.14,.13,.28,.2,.41,.05,.12,.12,.24,.2,.36,.14,.25,.3,.49,.44,.73,.04,.07,.12,.09,.19,.05,.07-.04,.09-.12,.05-.2-.13-.25-.27-.49-.4-.74-.07-.12-.13-.24-.2-.36-.07-.14-.13-.28-.2-.42-.02-.04-.05-.07-.1-.08h-.04s-.05,0-.08,.02h0Z" fill="#b8846e"/><path d="M66.87,29.93v.39c0,.05,.02,.11,.02,.15,0,.06,.02,.13,.03,.19,0,.05,.02,.11,.04,.16,0,.05,.03,.1,.04,.15,.03,.1,.07,.2,.11,.29,.02,.08,.05,.16,.09,.24,.03,.09,.05,.17,.09,.25,.07,.18,.13,.36,.21,.54,0,.02,.02,.04,.04,.06,.02,.01,.05,.02,.08,0,.02,0,.05-.02,.07-.04,.01-.02,.02-.05,.01-.08-.1-.24-.17-.48-.26-.7-.08-.21-.15-.4-.22-.61-.02-.05-.03-.1-.04-.14,0-.03-.02-.08-.03-.11-.02-.08-.03-.16-.05-.24v-.13s0,.01,0,0c0,0,0-.11-.02-.16v-.22s-.04-.1-.1-.1-.1,.04-.1,.1h0Zm.24,.47h0s0,0,0,0Z" fill="#b8846e"/><path d="M76.89,19.52s-.08-.01-.12,0c-.04,.02-.07,.04-.09,.09-.08,.14-.15,.27-.22,.4-.07,.12-.12,.24-.17,.37-.12,.26-.22,.52-.33,.78-.02,.08,0,.15,.07,.18,.08,.02,.15,0,.19-.08,.12-.25,.23-.51,.36-.76,.05-.12,.12-.25,.17-.37,.08-.14,.15-.27,.23-.41,.02-.04,.02-.09,0-.12l-.02-.03s-.03-.04-.07-.04h0Z" fill="#b8846e"/><path d="M76.47,18.78l-.17,.13s-.1,.08-.13,.11c-.04,.03-.08,.09-.11,.11-.05,.04-.09,.1-.14,.14-.04,.03-.08,.09-.11,.13-.03,.04-.05,.09-.1,.13-.05,.09-.12,.17-.17,.26-.04,.06-.1,.14-.14,.21-.05,.08-.11,.15-.15,.22-.11,.16-.21,.31-.32,.49-.02,.01-.02,.04-.02,.08,0,.02,.01,.05,.04,.06,.01,.02,.05,.03,.08,.02,.02-.01,.05-.01,.07-.03,.13-.22,.28-.42,.42-.63,.12-.18,.24-.36,.36-.53,.03-.05,.05-.09,.09-.12,.02-.03,.04-.06,.07-.09,.04-.07,.11-.12,.16-.18l-.02,.02,.02-.02,.02-.02,.04-.03-.02,.02,.02-.02,.03-.02s.09-.08,.13-.12l.08-.05,.1-.08s.05-.1,.02-.14c-.03-.04-.1-.05-.14-.02h.01Zm-.25,.45h0Zm.04-.02h0Z" fill="#b8846e"/><path d="M69.12,23.87c-.05,.23-.11,.45-.13,.68-.01,.15-.02,.3,0,.45,0,.07,.02,.14,.04,.21,0,.04,.02,.08,.03,.12,.02,.07,.05,.13,.09,.19,.03,.05,.12,.08,.17,.04,.05-.04,.08-.12,.04-.17-.02-.02-.03-.05-.04-.09-.04-.11-.07-.22-.08-.32-.01-.12,0-.24,0-.36v-.12s.01-.08,.02-.12c.03-.15,.05-.29,.1-.44,.02-.07-.02-.13-.09-.15h-.03c-.05,0-.11,.04-.12,.1v-.02h-.01Z" fill="#b8846e"/><path d="M37.9,33.84c-.15,.18-.31,.37-.45,.56-.07,.09-.13,.17-.19,.27-.07,.11-.13,.23-.2,.34-.04,.08-.02,.18,.05,.23,.08,.04,.19,.02,.23-.05,.08-.13,.15-.28,.25-.4,.08-.12,.16-.24,.25-.35,0,.01-.02,.02-.02,.03l.02-.04v.02s.03-.04,.04-.05v.02s0-.02,.02-.03c0,0,0-.01,.02-.02,0,0,.02-.02,.03-.04h0s0-.02,0-.01c.05-.08,.12-.14,.19-.22,.03-.04,.04-.08,.04-.12s-.02-.09-.04-.12c-.03-.03-.08-.05-.13-.05-.04,0-.09,.02-.12,.05h-.01Zm-.04,.56s0-.01,.02-.02c0,0,0,.01-.02,.02Zm0,0s0-.01,.02-.02c0,0,0,.01-.02,.02Zm.05-.08s0,.02-.02,.02c0,0,.02-.02,.02-.03h0Z" fill="#b8846e"/><path d="M37.55,31.66c-.12,.08-.25,.14-.37,.22-.13,.09-.26,.18-.38,.29-.13,.13-.25,.27-.36,.4-.15,.18-.31,.37-.45,.56-.04,.05-.02,.14,.02,.17,.03,.03,.07,.04,.11,.04,.03,0,.08-.01,.1-.04,.13-.15,.25-.3,.38-.45,.16-.2,.34-.39,.54-.55,.1-.07,.19-.13,.28-.19,.1-.07,.2-.12,.3-.17,.08-.04,.11-.15,.07-.23-.03-.05-.09-.08-.15-.08-.03,0-.05,0-.09,.02h.01Z" fill="#b8846e"/><path d="M37.1,33.02c-.12,.18-.25,.37-.37,.55-.12,.18-.26,.36-.38,.53-.08,.11-.02,.26,.09,.32,.05,.03,.12,.04,.19,.02,.07-.01,.11-.05,.14-.11,.07-.1,.14-.19,.21-.28l-.04,.05c.1-.13,.21-.27,.31-.4,.1-.14,.2-.29,.3-.43,.08-.11,.02-.27-.09-.34-.04-.02-.08-.03-.12-.03-.09,0-.16,.04-.22,.12h0Z" fill="#b8846e"/><path d="M38.66,27.54c-.3,.05-.6,.1-.9,.16-.3,.07-.58,.16-.85,.3-.09,.04-.12,.17-.07,.25,.02,.04,.07,.08,.11,.09,.05,.01,.1,0,.14-.02,.03-.02,.08-.03,.11-.04,.24-.09,.49-.13,.74-.18,.27-.05,.55-.1,.82-.15,.05,0,.1-.05,.13-.1,.03-.04,.03-.11,.02-.16-.02-.05-.05-.1-.1-.12-.03-.02-.07-.03-.1-.03h-.07Z" fill="#b8846e"/><path d="M37.94,28.75c-.16,0-.33,.04-.49,.08-.08,.02-.15,.04-.22,.06-.08,.02-.15,.05-.23,.09-.17,.08-.35,.16-.52,.25-.1,.05-.13,.18-.08,.27,.02,.04,.07,.08,.12,.1s.1,0,.15-.02c.14-.06,.28-.13,.43-.19,.12-.04,.25-.1,.38-.13,.13-.03,.25-.05,.38-.09h.26c.12,0,.23,.01,.35,.02,.11,0,.21-.1,.21-.21,0-.05-.02-.11-.05-.14-.04-.04-.09-.05-.14-.05-.14-.01-.28-.02-.44-.02h-.11Z" fill="#b8846e"/><path d="M41.22,30.68c-.07,.19-.13,.4-.21,.58-.04,.13-.09,.27-.12,.4-.02,.11-.03,.21-.04,.32,0,.04,0,.08-.02,.12,0,.02,0,.04,.02,.07,.02,.03,.04,.05,.08,.05s.08,0,.1-.01c.02-.01,.05-.04,.05-.08,.02-.12,.04-.25,.07-.37,.02-.15,.08-.29,.13-.43,.07-.19,.14-.4,.21-.6,.02-.08-.02-.15-.1-.17h-.04c-.07,0-.12,.04-.14,.11h.02Zm-.36,1.33h0s0,0,0,0Z" fill="#b8846e"/><path d="M42.1,32.25c-.03,.13-.07,.25-.08,.38-.02,.13-.04,.25-.04,.38v.36c0,.07,.02,.13,.03,.21,0,.09,.03,.16,.05,.24,.02,.05,.09,.1,.14,.08,.07-.02,.1-.08,.08-.14,0-.06-.03-.12-.04-.18v-.42c0-.11,0-.22,.02-.32,0-.08,.02-.15,.04-.23,.02-.1,.04-.18,.05-.28,.02-.07-.02-.13-.09-.15h-.03s-.11,.04-.12,.1h-.02Z" fill="#b8846e"/><path d="M45.02,23.85c-.07,.19-.13,.4-.21,.58-.04,.13-.09,.27-.12,.4-.02,.11-.03,.21-.04,.32,0,.04,0,.08-.02,.12,0,.02,0,.04,.02,.06,.02,.03,.04,.05,.08,.05s.08,0,.1-.01c.02-.01,.05-.04,.05-.08,.02-.12,.04-.25,.07-.37,.02-.15,.08-.29,.13-.43,.07-.2,.14-.4,.21-.6,.02-.08-.02-.15-.1-.17h-.04c-.07,0-.12,.04-.14,.11h.02Zm-.36,1.33h0s0,0,0,0Z" fill="#b8846e"/><path d="M45.89,25.42c-.03,.13-.07,.25-.08,.38-.02,.13-.04,.25-.04,.38v.36c0,.07,.02,.13,.03,.21,0,.09,.03,.16,.05,.24,.02,.05,.09,.1,.14,.08,.07-.02,.1-.08,.08-.14,0-.06-.03-.12-.04-.18v-.42c0-.11,0-.22,.02-.32,0-.08,.02-.15,.04-.23,.02-.1,.04-.18,.05-.28,.02-.07-.02-.13-.09-.15h-.03s-.11,.04-.12,.1h-.02Z" fill="#b8846e"/><path d="M27.6,24.64c-.07,.2-.13,.4-.21,.58-.04,.13-.09,.27-.12,.4-.02,.11-.03,.21-.04,.32,0,.04,0,.08-.02,.12,0,.02,0,.04,.02,.07,.02,.03,.04,.05,.08,.05s.08,0,.1-.01c.02-.01,.05-.04,.05-.08,.02-.12,.04-.25,.07-.37,.02-.15,.08-.29,.13-.43,.07-.2,.14-.4,.21-.6,.02-.08-.02-.15-.1-.17h-.04c-.07,0-.12,.04-.14,.11h.02Zm-.36,1.33h0s0,0,0,0Z" fill="#b8846e"/><path d="M28.48,26.21c-.03,.13-.07,.25-.08,.38-.02,.13-.04,.25-.04,.38v.36c0,.06,.02,.13,.03,.21,0,.09,.03,.16,.05,.24,.02,.05,.09,.1,.14,.08,.07-.02,.1-.08,.08-.14,0-.07-.03-.12-.04-.18v-.42c0-.11,0-.22,.02-.32,0-.08,.02-.15,.04-.23,.02-.1,.04-.18,.05-.28,.02-.06-.02-.13-.09-.15h-.03s-.11,.04-.12,.1h-.02Z" fill="#b8846e"/><path d="M2.04,6.44c-.07,.19-.13,.4-.21,.58-.04,.13-.09,.27-.12,.4-.02,.11-.03,.21-.04,.32,0,.04,0,.08-.02,.12,0,.02,0,.04,.02,.06,.02,.03,.04,.05,.08,.05s.08,0,.1-.01c.02-.01,.05-.04,.05-.08,.02-.12,.04-.25,.07-.37,.02-.15,.08-.29,.13-.43,.07-.19,.14-.4,.21-.6,.02-.08-.02-.15-.1-.17h-.04c-.07,0-.12,.04-.14,.11h.02Zm-.36,1.33h0s0,0,0,0Z" fill="#b8846e"/><path d="M2.91,8.01c-.03,.13-.07,.25-.08,.38-.02,.13-.04,.25-.04,.38v.36c0,.06,.02,.13,.03,.21,0,.09,.03,.16,.05,.24,.02,.05,.09,.1,.14,.08,.07-.02,.1-.08,.08-.14,0-.06-.03-.12-.04-.18v-.42c0-.11,0-.22,.02-.32,0-.08,.02-.15,.04-.23,.02-.1,.04-.18,.05-.28,.02-.06-.02-.13-.09-.15h-.03s-.11,.04-.12,.1h-.02Z" fill="#b8846e"/><path d="M5.04,3.06c-.15,.14-.32,.28-.48,.4-.11,.09-.22,.19-.31,.28-.08,.09-.13,.16-.21,.26-.02,.03-.04,.06-.08,.09-.01,.02-.02,.03-.01,.06,0,.04,0,.06,.04,.09,.04,.02,.07,.04,.09,.04s.07,0,.09-.04c.08-.09,.16-.19,.24-.28,.1-.12,.22-.22,.34-.3,.15-.14,.33-.27,.48-.41,.05-.05,.05-.14,0-.19l-.03-.02c-.05-.03-.13-.02-.17,.02h.01Zm-.99,1v-.02l.02-.02-.02,.03h0Z" fill="#b8846e"/><path d="M5,4.86c-.1,.1-.19,.18-.26,.29-.09,.1-.16,.19-.23,.3l-.1,.17-.03,.05-.05,.09c-.03,.05-.04,.12-.08,.19-.03,.08-.05,.15-.08,.24,0,.05,.02,.13,.09,.14,.07,.01,.12-.01,.14-.09,.02-.06,.03-.12,.05-.18,.01-.02,.03-.04,.03-.08l.08-.13s.05-.11,.09-.16c.05-.1,.11-.18,.19-.27,.04-.06,.1-.12,.15-.17,.07-.08,.13-.14,.19-.22,.05-.04,.04-.12,0-.17l-.03-.02s-.12-.02-.15,.02h.01Z" fill="#b8846e"/><path d="M39.58,31.85s-.02,.02-.02,.03c0,.02-.02,.04-.02,.07-.02,.16-.04,.32-.05,.48,0,.14-.02,.27-.02,.41,0,.13-.02,.25,0,.38v.23c.02,.1,.03,.19,.05,.28,0,.03,.03,.05,.05,.08,.03,.02,.07,.02,.1,0,.03,0,.05-.02,.08-.05,.02-.03,.02-.07,0-.1v-.08c0-.13-.02-.25-.02-.38s0-.27,.02-.4c0-.13,.02-.26,.03-.39l.07-.48s-.02-.08-.04-.1c-.02-.02-.05-.04-.1-.04-.03,0-.07,.01-.1,.04v.02h-.02Z" fill="#b8846e"/><path d="M40.09,33.97c0,.16,.02,.32,.03,.5,0,.09,0,.17,.02,.27,.02,.1,.03,.17,.05,.27,.02,.1,.13,.15,.22,.12,.04-.01,.09-.04,.11-.08,.02-.04,.02-.09,.02-.14v-.08c-.02-.28-.04-.57-.05-.86,0-.05-.02-.1-.05-.14-.04-.03-.09-.05-.13-.05-.1,0-.21,.09-.2,.19h-.02Z" fill="#b8846e"/><path d="M41.61,26.19c-.08,.03-.15,.07-.23,.1-.07,.02-.13,.05-.2,.09-.05,.03-.11,.05-.16,.09-.05,.03-.11,.07-.16,.1-.05,.03-.1,.06-.15,.1-.05,.03-.1,.08-.14,.11-.11,.09-.22,.16-.33,.25-.03,.02-.05,.04-.05,.08v.1c.03,.07,.12,.09,.19,.05,.11-.08,.21-.14,.31-.21,.08-.05,.16-.11,.25-.17,.08-.05,.16-.1,.25-.15,.04-.02,.1-.05,.14-.08,.05-.02,.1-.04,.15-.08,.08-.03,.15-.05,.22-.09,.04-.01,.08-.03,.1-.08,.02-.03,.02-.08,.02-.12s-.04-.08-.08-.1c-.02-.01-.05-.02-.08-.02h-.04v.03Z" fill="#b8846e"/><path d="M42.21,27.19s-.08,.04-.11,.08c-.1,.14-.19,.28-.27,.42-.04,.05-.07,.12-.1,.18-.02,.04-.03,.09-.05,.13-.03,.08-.04,.14-.05,.22,0,.04,0,.09,.02,.13,.02,.03,.05,.07,.1,.08,.09,.02,.2-.02,.21-.12,0-.07,.02-.12,.05-.17,.05-.12,.11-.23,.17-.34,.07-.13,.15-.24,.23-.36,.05-.08,.01-.19-.07-.24-.02-.01-.05-.02-.09-.02h-.04Z" fill="#b8846e"/><path d="M43.86,28.68c-.05,.23-.11,.45-.13,.68-.01,.15-.02,.3,0,.45,0,.07,.02,.14,.04,.21,0,.04,.02,.08,.03,.12,.02,.06,.05,.13,.09,.19,.03,.05,.12,.08,.17,.04,.05-.04,.08-.12,.04-.17-.02-.02-.03-.05-.04-.09-.04-.11-.07-.22-.08-.32-.01-.12,0-.24,0-.36v-.12s.01-.08,.02-.12c.03-.15,.05-.29,.1-.44,.02-.07-.02-.13-.09-.15h-.03c-.05,0-.11,.04-.12,.1v-.02h-.01Z" fill="#b8846e"/><path d="M60.7,30.66c0,.12-.01,.24-.02,.36v.34c0,.1,.01,.18,.03,.28,.01,.08,.03,.14,.05,.22,.03,.12,.08,.24,.12,.35,.02,.04,.03,.08,.08,.1,.03,.02,.08,.03,.12,.02,.09-.02,.13-.11,.11-.19-.03-.1-.05-.21-.08-.3-.02-.1-.04-.19-.05-.28-.02-.13-.02-.27-.01-.41,0-.15,.01-.3,.02-.44,0-.1-.09-.17-.19-.17s-.17,.08-.17,.17v-.02h-.01Z" fill="#b8846e"/><path d="M57.86,30.25c-.35,.1-.71,.21-1.07,.26-.11,.01-.22,.01-.33,.01s-.19,.08-.19,.18,.09,.18,.19,.18h.22c.11,0,.21,0,.31-.02,.1-.01,.21-.03,.31-.05,.11-.02,.22-.05,.33-.08,.12-.03,.23-.07,.34-.1,.11-.03,.17-.14,.14-.25-.02-.09-.11-.15-.2-.15h-.04Z" fill="#b8846e"/><path d="M57.67,31.4c-.28,.03-.57,.05-.84,.08-.28,.03-.57,.04-.85,.05-.1,0-.19,.08-.19,.18,0,.1,.09,.18,.19,.18,.28-.02,.57-.02,.85-.05,.28-.02,.57-.05,.84-.09,.05,0,.1-.02,.13-.05,.04-.03,.05-.09,.05-.13,0-.05-.02-.1-.05-.13-.03-.03-.08-.05-.12-.05h-.01Z" fill="#b8846e"/><path d="M61.65,27s-.04,.07-.04,.11,.01,.08,.04,.11c.03,.03,.07,.04,.11,.04,.12,.02,.25,.03,.38,.04,.1,0,.21,.01,.31,.02l.7,.02c.09,0,.16-.08,.16-.16s-.08-.15-.16-.16c-.23,0-.47-.02-.7-.02h-.3c-.13,0-.26-.02-.39-.03h-.01s-.08,.02-.1,.04h0Z" fill="#b8846e"/><path d="M61,27.68c-.55,.04-1.09,.08-1.64,.12-.08,0-.13,.02-.19,.08-.04,.05-.08,.12-.08,.18,0,.13,.12,.27,.26,.26,.55-.04,1.09-.07,1.64-.11,.08,0,.13-.02,.19-.08,.05-.05,.08-.12,.08-.18s-.02-.13-.08-.18c-.04-.04-.11-.08-.17-.08h-.01Z" fill="#b8846e"/><path d="M39.29,43c-.3,.05-.6,.1-.9,.16-.3,.07-.58,.16-.85,.3-.09,.04-.12,.17-.07,.25,.02,.04,.07,.08,.11,.09,.05,.01,.1,0,.14-.02,.03-.02,.08-.03,.11-.04,.24-.09,.49-.13,.74-.18,.27-.05,.55-.1,.82-.15,.05,0,.1-.05,.13-.1,.03-.04,.03-.11,.02-.16-.02-.05-.05-.1-.1-.12-.03-.02-.07-.03-.1-.03h-.07Z" fill="#b8846e"/><path d="M38.58,44.21c-.16,0-.33,.04-.49,.08-.08,.02-.15,.04-.22,.06-.08,.02-.15,.05-.23,.09-.17,.08-.35,.16-.52,.25-.1,.05-.13,.18-.08,.27,.02,.04,.07,.08,.12,.1s.1,0,.15-.02c.14-.06,.28-.13,.43-.19,.12-.04,.25-.1,.38-.13,.13-.03,.25-.05,.38-.09h.26c.12,0,.23,.01,.35,.02,.11,0,.21-.1,.21-.21,0-.05-.02-.11-.05-.14-.04-.04-.09-.05-.14-.05-.14-.01-.28-.02-.44-.02h-.11Z" fill="#b8846e"/><path d="M42.24,41.65c-.08,.03-.15,.07-.23,.1-.07,.02-.13,.05-.2,.09-.05,.03-.11,.05-.16,.09-.05,.03-.11,.07-.16,.1-.05,.03-.1,.06-.15,.1-.05,.03-.1,.08-.14,.11-.11,.09-.22,.16-.33,.25-.03,.02-.05,.04-.05,.08v.1c.03,.07,.12,.09,.19,.05,.11-.08,.21-.14,.31-.21,.08-.05,.16-.11,.25-.17,.08-.05,.16-.1,.25-.15,.04-.02,.1-.05,.14-.08,.05-.02,.1-.04,.15-.08,.08-.03,.15-.05,.22-.09,.04-.01,.08-.03,.1-.08,.02-.03,.02-.08,.02-.12s-.04-.08-.08-.1c-.02-.01-.05-.02-.08-.02h-.04v.03Z" fill="#b8846e"/><path d="M42.84,42.65s-.08,.04-.11,.08c-.1,.14-.19,.28-.27,.42-.04,.05-.07,.12-.1,.18-.02,.04-.03,.09-.05,.13-.03,.08-.04,.14-.05,.22,0,.04,0,.09,.02,.13,.02,.03,.05,.07,.1,.08,.09,.02,.2-.02,.21-.12,0-.07,.02-.12,.05-.17,.05-.12,.11-.23,.17-.34,.07-.13,.15-.24,.23-.36,.05-.08,.01-.19-.07-.24-.02-.01-.05-.02-.09-.02h-.04Z" fill="#b8846e"/><path d="M44.49,44.14c-.05,.23-.11,.45-.13,.68-.01,.15-.02,.3,0,.45,0,.07,.02,.14,.04,.21,0,.04,.02,.08,.03,.12,.02,.06,.05,.13,.09,.19,.03,.05,.12,.08,.17,.04,.05-.04,.08-.12,.04-.17-.02-.02-.03-.05-.04-.09-.04-.11-.07-.22-.08-.32-.01-.12,0-.24,0-.36v-.12s.01-.08,.02-.12c.03-.15,.05-.29,.1-.44,.02-.07-.02-.13-.09-.15h-.03c-.05,0-.11,.04-.12,.1v-.02h-.01Z" fill="#b8846e"/><path d="M44.47,39.71c0,.12-.01,.24-.02,.36v.34c0,.1,.01,.18,.03,.28,.01,.08,.03,.14,.05,.22,.03,.12,.08,.24,.12,.35,.02,.04,.03,.08,.08,.1,.03,.02,.08,.03,.12,.02,.09-.02,.13-.11,.11-.19-.03-.1-.05-.21-.08-.3-.02-.1-.04-.19-.05-.28-.02-.13-.02-.27-.01-.41,0-.15,.01-.3,.02-.44,0-.1-.09-.17-.19-.17s-.17,.08-.17,.17v-.02h-.01Z" fill="#b8846e"/><path d="M41.63,39.3c-.35,.1-.71,.21-1.07,.26-.11,.01-.22,.01-.33,.01s-.19,.08-.19,.18,.09,.18,.19,.18h.22c.11,0,.21,0,.31-.02,.1-.01,.21-.03,.31-.05,.11-.02,.22-.05,.33-.08,.12-.03,.23-.07,.34-.1,.11-.03,.17-.14,.14-.25-.02-.09-.11-.15-.2-.15h-.04Z" fill="#b8846e"/><path d="M41.44,40.46c-.28,.03-.57,.05-.84,.08-.28,.03-.57,.04-.85,.05-.1,0-.19,.08-.19,.18,0,.1,.09,.18,.19,.18,.28-.02,.57-.02,.85-.05,.28-.02,.57-.05,.84-.09,.05,0,.1-.02,.13-.05,.04-.03,.05-.09,.05-.13,0-.05-.02-.1-.05-.13-.03-.03-.08-.05-.12-.05h-.01Z" fill="#b8846e"/><path d="M68.59,37.8c-.3,.05-.6,.1-.9,.16-.3,.07-.58,.16-.85,.3-.09,.04-.12,.17-.07,.25,.02,.04,.07,.08,.11,.09,.05,.01,.1,0,.14-.02,.03-.02,.08-.03,.11-.04,.24-.09,.49-.13,.74-.18,.27-.05,.55-.1,.82-.15,.05,0,.1-.05,.13-.1,.03-.04,.03-.11,.02-.16-.02-.05-.05-.1-.1-.12-.03-.02-.07-.03-.1-.03h-.07Z" fill="#b8846e"/><path d="M71.54,36.45c-.08,.03-.15,.07-.23,.1-.07,.02-.13,.05-.2,.09-.05,.03-.11,.05-.16,.09-.05,.03-.11,.07-.16,.1-.05,.03-.1,.07-.15,.1-.05,.03-.1,.08-.14,.11-.11,.09-.22,.16-.33,.25-.03,.02-.05,.04-.05,.08v.1c.03,.07,.12,.09,.19,.05,.11-.08,.21-.14,.31-.21,.08-.05,.16-.11,.25-.17,.08-.05,.16-.1,.25-.15,.04-.02,.1-.05,.14-.08,.05-.02,.1-.04,.15-.08,.08-.03,.15-.05,.22-.09,.04-.01,.08-.03,.1-.08,.02-.03,.02-.08,.02-.12s-.04-.08-.08-.1c-.02-.01-.05-.02-.08-.02h-.04v.03Z" fill="#b8846e"/><path d="M72.15,37.46s-.08,.04-.11,.08c-.1,.14-.19,.28-.27,.42-.04,.05-.07,.12-.1,.18-.02,.04-.03,.09-.05,.13-.03,.08-.04,.14-.05,.22,0,.04,0,.09,.02,.13,.02,.03,.05,.07,.1,.08,.09,.02,.2-.02,.21-.12,0-.06,.02-.12,.05-.17,.05-.12,.11-.23,.17-.34,.07-.13,.15-.24,.23-.36,.05-.08,.01-.19-.07-.24-.02-.01-.05-.02-.09-.02h-.04Z" fill="#b8846e"/><path d="M73.8,38.94c-.05,.23-.11,.45-.13,.68-.01,.15-.02,.3,0,.45,0,.07,.02,.14,.04,.21,0,.04,.02,.08,.03,.12,.02,.07,.05,.13,.09,.19,.03,.05,.12,.08,.17,.04,.05-.04,.08-.12,.04-.17-.02-.02-.03-.05-.04-.09-.04-.11-.07-.22-.08-.32-.01-.12,0-.24,0-.36v-.12s.01-.08,.02-.12c.03-.15,.05-.29,.1-.44,.02-.07-.02-.13-.09-.15h-.03c-.05,0-.11,.04-.12,.1v-.02h-.01Z" fill="#b8846e"/><path d="M73.77,34.51c0,.12-.01,.24-.02,.36v.34c0,.1,.01,.18,.03,.28,.01,.08,.03,.14,.05,.22,.03,.12,.08,.24,.12,.35,.02,.04,.03,.08,.08,.1,.03,.02,.08,.03,.12,.02,.09-.02,.13-.11,.11-.2-.03-.1-.05-.21-.08-.3-.02-.1-.04-.19-.05-.28-.02-.13-.02-.27-.01-.41,0-.15,.01-.3,.02-.44,0-.1-.09-.17-.19-.17s-.17,.08-.17,.17v-.02h-.01Z" fill="#b8846e"/><path d="M70.43,29.25c0,.12-.01,.24-.02,.36v.34c0,.1,.01,.18,.03,.28,.01,.08,.03,.14,.05,.22,.03,.12,.08,.24,.12,.35,.02,.04,.03,.08,.08,.1,.03,.02,.08,.03,.12,.02,.09-.02,.13-.11,.11-.19-.03-.1-.05-.21-.08-.3-.02-.1-.04-.2-.05-.28-.02-.13-.02-.27-.01-.41,0-.15,.01-.3,.02-.44,0-.1-.09-.17-.19-.17s-.17,.08-.17,.17v-.02h-.01Z" fill="#b8846e"/><path d="M56.27,26.92c0,.12-.01,.24-.02,.36v.34c0,.1,.01,.18,.03,.28,.01,.08,.03,.14,.05,.22,.03,.12,.08,.24,.12,.35,.02,.04,.03,.08,.08,.1,.03,.02,.08,.03,.12,.02,.09-.02,.13-.11,.11-.2-.03-.1-.05-.21-.08-.3-.02-.1-.04-.19-.05-.28-.02-.13-.02-.27-.01-.41,0-.15,.01-.3,.02-.44,0-.1-.09-.17-.19-.17s-.17,.08-.17,.17v-.02h-.01Z" fill="#b8846e"/><path d="M48.81,23.93c0,.12-.01,.24-.02,.36v.34c0,.1,.01,.18,.03,.28,.01,.08,.03,.14,.05,.22,.03,.12,.08,.24,.12,.35,.02,.04,.03,.08,.08,.1,.03,.02,.08,.03,.12,.02,.09-.02,.13-.11,.11-.19-.03-.1-.05-.21-.08-.3s-.04-.2-.05-.28c-.02-.13-.02-.27-.01-.41,0-.15,.01-.3,.02-.44,0-.1-.09-.17-.19-.17s-.17,.08-.17,.17v-.02h-.01Z" fill="#b8846e"/><path d="M9.34,21.52c-.02,.1-.04,.2-.05,.29-.02,.11-.03,.22-.05,.32-.02,.18-.03,.36-.04,.54,0,.19-.02,.38-.02,.57,0,.1,.02,.2,.03,.3,.02,.1,.04,.21,.08,.3,.02,.09,.12,.14,.21,.12,.09-.02,.13-.12,.12-.21-.02-.08-.03-.16-.04-.25,0-.12-.02-.23-.02-.35v-.36c0-.12,0-.25,.02-.37,0-.07,0-.13,.02-.19,0-.05,0-.1,.02-.15,0-.06,.02-.14,.03-.21,0-.04,.02-.09,.02-.12,0-.05,.02-.1,.03-.15,.02-.1-.03-.19-.13-.22h-.04c-.08,0-.15,.05-.17,.13v-.02Z" fill="#b8846e"/><path d="M8.43,21.16c-.05,.26-.12,.51-.14,.78,0,.12-.03,.25-.04,.37,0,.15-.02,.3-.02,.45,0,.1,.08,.17,.17,.17,.04,0,.09-.02,.12-.05,.03-.03,.04-.08,.05-.12,.02-.28,.05-.55,.09-.83,.02-.11,.03-.21,.05-.31,.02-.12,.05-.24,.08-.35,.02-.1-.03-.21-.13-.23h-.05c-.08,0-.16,.05-.19,.14v-.02h.01Z" fill="#b8846e"/><path d="M7.42,20.23c-.08,.12-.15,.25-.23,.37-.08,.13-.14,.27-.21,.41-.03,.05-.04,.12-.02,.17,.02,.06,.05,.11,.11,.14,.11,.06,.25,.02,.32-.09,.15-.25,.32-.51,.47-.76,.08-.12,.03-.28-.09-.35-.04-.02-.09-.03-.13-.03-.09,0-.17,.04-.22,.13Z" fill="#b8846e"/><path d="M5.16,16.12s-.05,.05-.08,.09c0,.04,0,.08,.02,.12,.07,.14,.13,.28,.2,.41,.05,.12,.12,.24,.2,.36,.14,.25,.3,.49,.44,.73,.04,.07,.12,.09,.19,.05,.07-.04,.09-.12,.05-.19-.13-.25-.27-.49-.4-.74-.07-.12-.13-.24-.2-.36-.07-.14-.13-.28-.2-.42-.02-.04-.05-.06-.1-.08h-.04s-.05,0-.08,.02h0Z" fill="#b8846e"/><path d="M4.32,16.01v.39c0,.05,.02,.11,.02,.15,0,.07,.02,.13,.03,.19,0,.05,.02,.11,.04,.16,0,.05,.03,.1,.04,.15,.03,.1,.07,.19,.11,.29,.02,.08,.05,.16,.09,.24,.03,.09,.05,.17,.09,.25,.07,.18,.13,.36,.21,.54,0,.02,.02,.04,.04,.07,.02,.01,.05,.02,.08,0,.02,0,.05-.02,.07-.04,.01-.02,.02-.05,.01-.08-.1-.24-.17-.48-.26-.7-.08-.21-.15-.4-.22-.61-.02-.05-.03-.1-.04-.14,0-.03-.02-.08-.03-.11-.02-.08-.03-.16-.05-.24v-.13s0,.01,0,0c0,0,0-.11-.02-.16v-.22s-.04-.1-.1-.1-.1,.04-.1,.1h0Zm.24,.47h0s0,0,0,0Z" fill="#b8846e"/><path d="M2.8,15.24c0,.16,.02,.32,.03,.5,0,.09,0,.17,.02,.27,.02,.1,.03,.17,.05,.27,.02,.1,.13,.15,.22,.12,.04-.01,.09-.04,.11-.08,.02-.04,.02-.09,.02-.14v-.08c-.02-.28-.04-.57-.05-.86,0-.05-.02-.1-.05-.14-.04-.03-.09-.05-.13-.05-.1,0-.21,.09-.2,.19h-.02Z" fill="#b8846e"/><path d="M2.33,11.31c-.03,.13-.07,.25-.08,.38-.02,.13-.04,.25-.04,.38v.36c0,.07,.02,.13,.03,.21,0,.09,.03,.16,.05,.24,.02,.05,.09,.1,.14,.08,.07-.02,.1-.08,.08-.14,0-.06-.03-.12-.04-.18v-.42c0-.11,0-.22,.02-.32,0-.08,.02-.15,.04-.23,.02-.1,.04-.18,.05-.28,.02-.07-.02-.13-.09-.15h-.03s-.11,.04-.12,.1h-.02Z" fill="#b8846e"/><path d="M4.09,10.42c0,.12-.01,.24-.02,.36v.34c0,.1,.01,.18,.03,.28,.01,.08,.03,.14,.05,.22,.03,.12,.08,.24,.12,.35,.02,.04,.03,.08,.08,.1,.03,.02,.08,.03,.12,.02,.09-.02,.13-.11,.11-.2-.03-.1-.05-.21-.08-.3-.02-.1-.04-.2-.05-.28-.02-.13-.02-.27-.01-.41,0-.15,.01-.3,.02-.44,0-.1-.09-.17-.19-.17s-.17,.08-.17,.17v-.02h-.01Z" fill="#b8846e"/><path d="M73.83,53.84c0,.12-.01,.24-.02,.36v.34c0,.1,.01,.18,.03,.28,.01,.08,.03,.14,.05,.22,.03,.12,.08,.24,.12,.35,.02,.04,.03,.08,.08,.1,.03,.02,.08,.03,.12,.02,.09-.02,.13-.11,.11-.19-.03-.1-.05-.21-.08-.3-.02-.1-.04-.19-.05-.28-.02-.13-.02-.27-.01-.41,0-.15,.01-.3,.02-.44,0-.1-.09-.17-.19-.17s-.17,.08-.17,.17v-.02h-.01Z" fill="#b8846e"/><path d="M70.93,34.1c-.35,.1-.71,.21-1.07,.26-.11,.01-.22,.01-.33,.01s-.19,.08-.19,.18,.09,.18,.19,.18h.22c.11,0,.21,0,.31-.02,.1-.01,.21-.03,.31-.05,.11-.02,.22-.05,.33-.08,.12-.03,.23-.07,.34-.1,.11-.03,.17-.14,.14-.25-.02-.09-.11-.15-.2-.15h-.04Z" fill="#b8846e"/><path d="M75.09,27.74c-.07,.05-.12,.11-.19,.16-.05,.04-.11,.1-.15,.14-.04,.04-.09,.09-.13,.13-.04,.04-.08,.1-.12,.14-.04,.04-.08,.1-.11,.14-.03,.04-.07,.11-.1,.15-.08,.12-.15,.23-.23,.35-.02,.03-.03,.05-.02,.09,0,.03,.02,.08,.04,.09,.05,.05,.14,.04,.2,0,.08-.11,.15-.21,.22-.29,.05-.08,.12-.15,.17-.25,.05-.08,.12-.14,.19-.23,.03-.03,.08-.09,.11-.12,.04-.04,.08-.08,.12-.12,.07-.05,.13-.1,.17-.15,.03-.02,.07-.05,.07-.11,0-.03,0-.08-.02-.12s-.07-.05-.11-.07h-.12v.07Z" fill="#b8846e"/><path d="M78.16,29.7c.02,.23,.04,.47,.1,.68,.04,.15,.08,.29,.15,.43,.02,.07,.07,.13,.11,.18,.01,.04,.04,.07,.07,.1,.04,.05,.1,.11,.14,.15,.04,.04,.14,.03,.17-.01,.03-.05,.03-.14-.01-.17-.03-.01-.04-.04-.07-.07-.08-.09-.13-.18-.17-.28-.05-.11-.08-.23-.12-.34l-.04-.11s-.01-.08-.02-.12c-.02-.15-.04-.29-.05-.45,0-.07-.07-.12-.13-.12h-.03s-.09,.09-.08,.14l-.02-.02h.01Z" fill="#b8846e"/><path d="M73.19,26.68c-.3,.21-.6,.42-.93,.6-.1,.04-.21,.09-.31,.12-.1,.03-.15,.13-.11,.24,.04,.11,.14,.14,.24,.11l.21-.08c.1-.03,.2-.07,.28-.12,.09-.04,.19-.1,.27-.15,.1-.05,.19-.12,.28-.17,.1-.07,.2-.14,.28-.21,.09-.07,.12-.19,.05-.28-.05-.08-.15-.11-.24-.08l-.05,.02h.01Z" fill="#b8846e"/><path d="M70.75,35.26c-.28,.03-.57,.05-.84,.08-.28,.03-.57,.04-.85,.05-.1,0-.19,.08-.19,.18,0,.1,.09,.18,.19,.18,.28-.02,.57-.02,.85-.05,.28-.02,.57-.05,.84-.09,.05,0,.1-.02,.13-.05,.04-.03,.05-.09,.05-.13,0-.05-.02-.1-.05-.13-.03-.03-.08-.05-.12-.05h-.01Z" fill="#b8846e"/><path d="M76.18,30.86c-.28,.03-.57,.05-.84,.08-.28,.03-.57,.04-.85,.05-.1,0-.19,.08-.19,.18,0,.1,.09,.18,.19,.18,.28-.02,.57-.02,.85-.05,.28-.02,.57-.05,.84-.09,.05,0,.1-.02,.13-.05,.04-.03,.05-.09,.05-.13,0-.05-.02-.1-.05-.13-.03-.03-.08-.05-.12-.05h-.01Z" fill="#b8846e"/><path d="M71.63,21.37s-.05,.05-.08,.09c0,.04,0,.08,.02,.12,.07,.14,.13,.28,.2,.41,.05,.12,.12,.24,.2,.36,.14,.25,.3,.49,.44,.73,.04,.07,.12,.09,.19,.05,.07-.04,.09-.12,.05-.2-.13-.25-.27-.49-.4-.74-.07-.12-.13-.24-.2-.36-.07-.14-.13-.28-.2-.42-.02-.04-.05-.06-.1-.08h-.04s-.05,0-.08,.02h0Z" fill="#b8846e"/><path d="M70.37,26.61c-.2,.21-.39,.41-.59,.61-.2,.21-.4,.4-.61,.6-.08,.07-.09,.17-.02,.26,.07,.08,.19,.09,.26,.02,.2-.21,.42-.38,.61-.6,.2-.21,.39-.41,.58-.61,.04-.03,.07-.08,.07-.13,.01-.05-.01-.1-.04-.13-.03-.04-.08-.07-.13-.07s-.1,0-.13,.03h0s.01,.01,.01,.01Z" fill="#b8846e"/><path d="M45.42,36.05s-.04,.06-.04,.11,.01,.08,.04,.11c.03,.03,.07,.04,.11,.04,.12,.02,.25,.03,.38,.04,.1,0,.21,.01,.31,.02l.7,.02c.09,0,.16-.08,.16-.16s-.08-.15-.16-.16c-.23,0-.47-.02-.7-.02h-.3c-.13,0-.26-.02-.39-.03h-.01s-.08,.02-.1,.04h0Z" fill="#b8846e"/><path d="M44.76,36.73c-.55,.04-1.09,.08-1.64,.12-.08,0-.13,.02-.19,.08-.04,.05-.08,.12-.08,.18,0,.13,.12,.27,.26,.26,.55-.04,1.09-.06,1.64-.11,.08,0,.13-.02,.19-.08,.05-.05,.08-.12,.08-.18s-.02-.13-.08-.18c-.04-.04-.11-.08-.17-.08h-.01Z" fill="#b8846e"/><path d="M52.74,28.72c0,.12-.01,.24-.02,.36v.34c0,.1,.01,.18,.03,.28,.01,.08,.03,.14,.05,.22,.03,.12,.08,.24,.12,.35,.02,.04,.03,.08,.08,.1,.03,.02,.08,.03,.12,.02,.09-.02,.13-.11,.11-.19-.03-.1-.05-.21-.08-.3-.02-.1-.04-.19-.05-.28-.02-.13-.02-.27-.01-.41,0-.15,.01-.3,.02-.44,0-.1-.09-.17-.19-.17s-.17,.08-.17,.17v-.02h-.01Z" fill="#b8846e"/><path d="M53.7,25.06s-.04,.06-.04,.11,.01,.08,.04,.11c.03,.03,.07,.04,.11,.04,.12,.02,.25,.03,.38,.04,.1,0,.21,.01,.31,.02l.7,.02c.09,0,.16-.08,.16-.16s-.08-.15-.16-.16c-.23,0-.47-.02-.7-.02h-.3c-.13,0-.26-.02-.39-.03h-.01s-.08,.02-.1,.04h0Z" fill="#b8846e"/><path d="M53.04,25.74c-.55,.04-1.09,.08-1.64,.12-.08,0-.13,.02-.19,.08-.04,.05-.08,.12-.08,.18,0,.13,.12,.27,.26,.26,.55-.04,1.09-.07,1.64-.11,.08,0,.13-.02,.19-.08,.05-.05,.08-.12,.08-.18s-.02-.13-.08-.18c-.04-.04-.11-.08-.17-.08h-.01Z" fill="#b8846e"/><path d="M70.82,48.36c-.02,.1-.04,.2-.05,.29-.02,.11-.03,.22-.05,.32-.02,.18-.03,.36-.04,.54,0,.19-.02,.38-.02,.57,0,.1,.02,.2,.03,.3,.02,.1,.04,.21,.08,.3,.02,.09,.12,.14,.21,.12s.13-.12,.12-.21c-.02-.08-.03-.16-.04-.25,0-.12-.02-.23-.02-.35v-.36c0-.12,0-.25,.02-.37,0-.07,0-.13,.02-.19,0-.05,0-.1,.02-.15,0-.06,.02-.14,.03-.21,0-.04,.02-.09,.02-.12,0-.05,.02-.1,.03-.15,.02-.1-.03-.19-.13-.22h-.04c-.08,0-.15,.05-.17,.13v-.02Z" fill="#b8846e"/><path d="M69.92,48c-.05,.26-.12,.51-.14,.78,0,.12-.03,.25-.04,.37,0,.15-.02,.3-.02,.45,0,.1,.08,.17,.17,.17,.04,0,.09-.02,.12-.05,.03-.03,.04-.08,.05-.12,.02-.28,.05-.55,.09-.83,.02-.11,.03-.21,.05-.31,.02-.12,.05-.24,.08-.35,.02-.1-.03-.21-.13-.23h-.05c-.08,0-.16,.05-.19,.14v-.02h.01Z" fill="#b8846e"/><path d="M68.9,47.07c-.08,.12-.15,.25-.23,.37-.08,.13-.14,.27-.21,.41-.03,.05-.04,.12-.02,.17,.02,.07,.05,.11,.11,.14,.11,.07,.25,.02,.32-.09,.15-.25,.32-.51,.47-.76,.08-.12,.03-.28-.09-.35-.04-.02-.09-.03-.13-.03-.09,0-.17,.04-.22,.13Z" fill="#b8846e"/><path d="M72.94,46.15s-.05,.05-.08,.09c0,.04,0,.08,.02,.12,.07,.14,.13,.28,.2,.41,.05,.12,.12,.24,.2,.36,.14,.25,.3,.49,.44,.73,.04,.06,.12,.09,.19,.05,.07-.04,.09-.12,.05-.2-.13-.25-.27-.49-.4-.74-.07-.12-.13-.24-.2-.36-.07-.14-.13-.28-.2-.42-.02-.04-.05-.07-.1-.08h-.04s-.05,0-.08,.02h0Z" fill="#b8846e"/><path d="M72.1,46.04v.39c0,.05,.02,.11,.02,.15,0,.07,.02,.13,.03,.2,0,.05,.02,.11,.04,.16,0,.05,.03,.1,.04,.15,.03,.1,.07,.19,.11,.29,.02,.08,.05,.16,.09,.24,.03,.09,.05,.17,.09,.25,.07,.18,.13,.36,.21,.54,0,.02,.02,.04,.04,.07,.02,.01,.05,.02,.08,0,.02,0,.05-.02,.07-.04,.01-.02,.02-.05,.01-.08-.1-.24-.17-.48-.26-.7-.08-.21-.15-.4-.22-.61-.02-.05-.03-.1-.04-.14,0-.03-.02-.08-.03-.11-.02-.08-.03-.16-.05-.24v-.13s0,.01,0,0c0,0,0-.11-.02-.16v-.22s-.04-.1-.1-.1-.1,.04-.1,.1h0Zm.24,.47h0s0,0,0,0Z" fill="#b8846e"/><path d="M73.38,49.52s-.09,.04-.12,.09c-.02,.04-.02,.1-.02,.14,.03,.15,.05,.3,.1,.45,.02,.06,.03,.14,.05,.21,.02,.09,.05,.17,.09,.25,.01,.04,.04,.08,.08,.11,.04,.02,.09,.03,.13,.02,.1-.02,.15-.12,.12-.22-.09-.3-.14-.62-.21-.92-.02-.09-.1-.14-.19-.14h-.03Z" fill="#b8846e"/><path d="M70.58,45.27c0,.16,.02,.32,.03,.5,0,.09,0,.17,.02,.27,.02,.1,.03,.17,.05,.27,.02,.1,.13,.15,.22,.12,.04-.01,.09-.04,.11-.08,.02-.04,.02-.09,.02-.14v-.08c-.02-.28-.04-.57-.05-.86,0-.05-.02-.1-.05-.14-.04-.03-.09-.05-.13-.05-.1,0-.21,.09-.2,.2h-.02Z" fill="#b8846e"/><path d="M68.06,40.37c-.07,.19-.13,.4-.21,.58-.04,.13-.09,.27-.12,.4-.02,.11-.03,.21-.04,.32,0,.04,0,.08-.02,.12,0,.02,0,.04,.02,.07,.02,.03,.04,.05,.08,.05s.08,0,.1-.01c.02-.01,.05-.04,.05-.08,.02-.12,.04-.25,.07-.37,.02-.15,.08-.29,.13-.43,.07-.19,.14-.4,.21-.6,.02-.08-.02-.15-.1-.17h-.04c-.07,0-.12,.04-.14,.11h.02Zm-.36,1.33h0s0,0,0,0Z" fill="#b8846e"/><path d="M68.93,41.94c-.03,.13-.07,.25-.08,.38-.02,.13-.04,.25-.04,.38v.36c0,.07,.02,.13,.03,.21,0,.09,.03,.16,.05,.24,.02,.05,.09,.1,.14,.08,.07-.02,.1-.08,.08-.14,0-.07-.03-.12-.04-.18v-.42c0-.11,0-.22,.02-.32,0-.08,.02-.15,.04-.23,.02-.1,.04-.18,.05-.28,.02-.07-.02-.13-.09-.15h-.03s-.11,.04-.12,.1h-.02Z" fill="#b8846e"/><path d="M80.07,26.91c-.03,.13-.07,.25-.08,.38-.02,.13-.04,.25-.04,.38v.36c0,.07,.02,.13,.03,.21,0,.09,.03,.16,.05,.24,.02,.05,.09,.1,.14,.08,.07-.02,.1-.08,.08-.14,0-.07-.03-.12-.04-.18v-.42c0-.11,0-.22,.02-.32,0-.08,.02-.15,.04-.23,.02-.1,.04-.18,.05-.28,.02-.07-.02-.13-.09-.15h-.03s-.11,.04-.12,.1h-.02Z" fill="#b8846e"/><path d="M76.75,24.94c-.03,.13-.07,.25-.08,.38-.02,.13-.04,.25-.04,.38v.36c0,.07,.02,.13,.03,.21,0,.09,.03,.16,.05,.24,.02,.05,.09,.1,.14,.08,.07-.02,.1-.08,.08-.14,0-.07-.03-.12-.04-.18v-.42c0-.11,0-.22,.02-.32,0-.08,.02-.15,.04-.23,.02-.1,.04-.18,.05-.28,.02-.07-.02-.13-.09-.15h-.03s-.11,.04-.12,.1h-.02Z" fill="#b8846e"/><path d="M66.91,45.2c-.05,.23-.11,.45-.13,.68-.01,.15-.02,.3,0,.45,0,.07,.02,.14,.04,.21,0,.04,.02,.08,.03,.12,.02,.07,.05,.13,.09,.19,.03,.05,.12,.08,.17,.04,.05-.04,.08-.12,.04-.17-.02-.02-.03-.05-.04-.09-.04-.11-.07-.22-.08-.32-.01-.12,0-.24,0-.36v-.12s.01-.08,.02-.12c.03-.15,.05-.29,.1-.44,.02-.07-.02-.13-.09-.15h-.03c-.05,0-.11,.04-.12,.1v-.02h-.01Z" fill="#b8846e"/><path d="M73.76,42.71c-.55,.04-1.09,.08-1.64,.12-.08,0-.13,.02-.19,.08-.04,.05-.08,.12-.08,.18,0,.13,.12,.27,.26,.26,.55-.04,1.09-.07,1.64-.11,.08,0,.13-.02,.19-.08,.05-.05,.08-.12,.08-.18s-.02-.13-.08-.18c-.04-.04-.11-.08-.17-.08h-.01Z" fill="#b8846e"/><path d="M69.64,50.76c.07,.23,.13,.45,.22,.66,.07,.14,.13,.27,.22,.4,.03,.05,.09,.11,.14,.16,.02,.03,.05,.05,.09,.09,.05,.04,.11,.09,.17,.13,.05,.03,.14,0,.17-.04,.02-.07,0-.14-.04-.17-.03,0-.05-.03-.08-.05-.09-.08-.16-.16-.23-.25-.07-.1-.12-.21-.17-.31l-.05-.11s-.03-.08-.04-.12c-.04-.15-.1-.28-.13-.43-.01-.07-.09-.11-.15-.09h-.03s-.08,.11-.05,.16h-.02v-.02Z" fill="#b8846e"/><path d="M72.43,57.47s-.02,.08-.02,.11c.01,.04,.03,.07,.08,.1,.13,.09,.25,.18,.37,.26,.11,.08,.22,.15,.35,.22,.25,.15,.49,.28,.74,.42,.07,.03,.15,.02,.19-.04,.03-.07,.02-.15-.04-.19-.24-.15-.48-.29-.71-.44-.12-.08-.23-.14-.35-.22-.13-.09-.25-.18-.38-.27-.04-.03-.08-.03-.12-.02l-.03,.02s-.04,.02-.05,.05h-.01Z" fill="#b8846e"/><path d="M71.63,57.79l.11,.18s.05,.11,.1,.14c.02,.04,.08,.09,.1,.12,.03,.05,.09,.11,.12,.15,.02,.04,.08,.09,.12,.12,.03,.04,.08,.07,.11,.11,.08,.07,.15,.14,.24,.21,.05,.05,.13,.12,.2,.16,.08,.06,.13,.13,.2,.17,.15,.13,.3,.25,.45,.37,0,.02,.04,.03,.07,.03s.05,0,.07-.03c.02,0,.03-.04,.03-.07s0-.05-.03-.08c-.21-.16-.38-.34-.58-.49-.16-.14-.33-.28-.49-.42-.04-.03-.08-.07-.11-.1-.02-.02-.05-.05-.08-.08-.05-.05-.11-.13-.16-.18v.03h.01v-.03l-.03-.03-.02-.04v0l-.02-.03s-.07-.09-.11-.13l-.04-.09-.05-.11s-.09-.07-.13-.03c-.04,.03-.07,.09-.03,.13h-.01Zm.46,.31v-.01h0Zm-.02-.02v0Z" fill="#b8846e"/><path d="M74.46,60.2s-.05,.08-.07,.13c0,.04,.03,.1,.05,.13,.1,.12,.2,.24,.31,.35,.05,.04,.1,.11,.15,.15,.07,.06,.13,.13,.2,.17,.03,.03,.08,.04,.12,.05,.04,0,.09-.01,.12-.04,.08-.07,.08-.17,0-.25-.23-.23-.43-.47-.63-.7-.07-.07-.15-.08-.23-.03l-.03,.02h.01v.02Z" fill="#b8846e"/><path d="M71.46,54.08c-.46,.3-.92,.6-1.38,.9-.07,.03-.11,.09-.12,.15s0,.14,.02,.2c.07,.11,.24,.17,.36,.1,.46-.3,.92-.58,1.38-.89,.07-.03,.11-.09,.12-.15,.01-.06,0-.14-.02-.19-.02-.05-.09-.11-.15-.12-.05-.02-.13-.01-.19,.02h-.02Z" fill="#b8846e"/><path d="M27.68,33.97c-.3,.05-.6,.1-.9,.16-.3,.07-.58,.16-.85,.3-.09,.04-.12,.17-.07,.25,.02,.04,.07,.08,.11,.09,.05,.01,.1,0,.14-.02,.03-.02,.08-.03,.11-.04,.24-.09,.49-.13,.74-.18,.27-.05,.55-.1,.82-.15,.05,0,.1-.05,.13-.1,.03-.04,.03-.11,.02-.16-.02-.05-.05-.1-.1-.12-.03-.02-.07-.03-.1-.03h-.07Z" fill="#b8846e"/><path d="M26.97,35.18c-.16,0-.33,.04-.49,.08-.08,.02-.15,.04-.22,.07-.08,.02-.15,.05-.23,.09-.17,.08-.35,.16-.52,.25-.1,.05-.13,.18-.08,.27,.02,.04,.07,.08,.12,.1,.05,.02,.1,0,.15-.02,.14-.07,.28-.13,.43-.19,.12-.04,.25-.1,.38-.13,.13-.03,.25-.05,.38-.09h.26c.12,0,.23,.01,.35,.02,.11,0,.21-.1,.21-.21,0-.05-.02-.11-.05-.14-.04-.04-.09-.05-.14-.05-.14-.01-.28-.02-.44-.02h-.11Z" fill="#b8846e"/><path d="M30.63,32.62c-.08,.03-.15,.06-.23,.1-.07,.02-.13,.05-.2,.09-.05,.03-.11,.05-.16,.09-.05,.03-.11,.07-.16,.1-.05,.03-.1,.07-.15,.1-.05,.03-.1,.08-.14,.11-.11,.09-.22,.16-.33,.25-.03,.02-.05,.04-.05,.08v.1c.03,.07,.12,.09,.19,.05,.11-.08,.21-.14,.31-.21,.08-.05,.16-.11,.25-.17,.08-.05,.16-.1,.25-.15,.04-.02,.1-.05,.14-.08,.05-.02,.1-.04,.15-.08,.08-.03,.15-.05,.22-.09,.04-.01,.08-.03,.1-.08,.02-.03,.02-.08,.02-.12s-.04-.08-.08-.1c-.02-.01-.05-.02-.08-.02h-.04v.03Z" fill="#b8846e"/><path d="M31.23,33.62s-.08,.04-.11,.08c-.1,.14-.19,.28-.27,.42-.04,.05-.07,.12-.1,.18-.02,.04-.03,.09-.05,.13-.03,.08-.04,.14-.05,.22,0,.04,0,.09,.02,.13,.02,.03,.05,.07,.1,.08,.09,.02,.2-.02,.21-.12,0-.07,.02-.12,.05-.17,.05-.12,.11-.23,.17-.34,.07-.13,.15-.24,.23-.36,.05-.08,.01-.2-.07-.24-.02-.01-.05-.02-.09-.02h-.04Z" fill="#b8846e"/><path d="M39.22,23.47c-.08,.03-.15,.07-.23,.1-.07,.02-.13,.05-.2,.09-.05,.03-.11,.05-.16,.09-.05,.03-.11,.07-.16,.1-.05,.03-.1,.07-.15,.1-.05,.03-.1,.08-.14,.11-.11,.09-.22,.16-.33,.25-.03,.02-.05,.04-.05,.08v.1c.03,.07,.12,.09,.19,.05,.11-.08,.21-.14,.31-.21,.08-.05,.16-.11,.25-.17,.08-.05,.16-.1,.25-.15,.04-.02,.1-.05,.14-.08,.05-.02,.1-.04,.15-.08,.08-.03,.15-.05,.22-.09,.04-.01,.08-.03,.1-.08,.02-.03,.02-.08,.02-.12s-.04-.08-.08-.1c-.02-.01-.05-.02-.08-.02h-.04v.03Z" fill="#b8846e"/><path d="M39.82,24.47s-.08,.04-.11,.08c-.1,.14-.19,.28-.27,.42-.04,.05-.07,.12-.1,.18-.02,.04-.03,.09-.05,.13-.03,.08-.04,.14-.05,.22,0,.04,0,.09,.02,.13,.02,.03,.05,.06,.1,.08,.09,.02,.2-.02,.21-.12,0-.07,.02-.12,.05-.17,.05-.12,.11-.23,.17-.34,.07-.13,.15-.24,.23-.36,.05-.08,.01-.2-.07-.24-.02-.01-.05-.02-.09-.02h-.04Z" fill="#b8846e"/><path d="M33.61,35.11c-.05,.23-.11,.45-.13,.68-.01,.15-.02,.3,0,.45,0,.07,.02,.14,.04,.21,0,.04,.02,.08,.03,.12,.02,.07,.05,.13,.09,.2,.03,.05,.12,.08,.17,.04,.05-.04,.08-.12,.04-.17-.02-.02-.03-.05-.04-.09-.04-.11-.07-.22-.08-.32-.01-.12,0-.24,0-.36v-.12s.01-.08,.02-.12c.03-.15,.05-.29,.1-.44,.02-.07-.02-.13-.09-.15h-.03c-.05,0-.11,.04-.12,.1v-.02h-.01Z" fill="#b8846e"/><path d="M33.58,30.68c0,.12-.01,.24-.02,.36v.34c0,.1,.01,.18,.03,.28,.01,.08,.03,.14,.05,.22,.03,.12,.08,.24,.12,.35,.02,.04,.03,.08,.08,.1,.03,.02,.08,.03,.12,.02,.09-.02,.13-.11,.11-.19-.03-.1-.05-.21-.08-.3-.02-.1-.04-.2-.05-.28-.02-.13-.02-.27-.01-.41,0-.15,.01-.3,.02-.44,0-.1-.09-.17-.19-.17s-.17,.08-.17,.17v-.02h-.01Z" fill="#b8846e"/><path d="M30.02,30.27c-.35,.1-.71,.21-1.07,.26-.11,.01-.22,.01-.33,.01s-.19,.08-.19,.18,.09,.18,.19,.18h.22c.11,0,.21,0,.31-.02,.1-.01,.21-.03,.31-.05,.11-.02,.22-.05,.33-.08,.12-.03,.23-.07,.34-.1,.11-.03,.17-.14,.14-.25-.02-.09-.11-.15-.2-.15h-.04Z" fill="#b8846e"/><path d="M29.83,31.43c-.28,.03-.57,.05-.84,.08-.28,.03-.57,.04-.85,.05-.1,0-.19,.08-.19,.18,0,.1,.09,.18,.19,.18,.28-.02,.57-.02,.85-.05,.28-.02,.57-.05,.84-.09,.05,0,.1-.02,.13-.05,.04-.03,.05-.09,.05-.13,0-.05-.02-.1-.05-.13-.03-.03-.08-.05-.12-.05h-.01Z" fill="#b8846e"/><path d="M33.81,27.02s-.04,.07-.04,.11,.01,.08,.04,.11c.03,.03,.07,.04,.11,.04,.12,.02,.25,.03,.38,.04,.1,0,.21,.01,.31,.02l.7,.02c.09,0,.16-.08,.16-.16s-.08-.15-.16-.16c-.23,0-.47-.02-.7-.02h-.3c-.13,0-.26-.02-.39-.03h-.01s-.08,.02-.1,.04h0Z" fill="#b8846e"/><path d="M33.16,27.7c-.55,.04-1.09,.08-1.64,.12-.08,0-.13,.02-.19,.08-.04,.05-.08,.12-.08,.18,0,.13,.12,.27,.26,.26,.55-.04,1.09-.07,1.64-.11,.08,0,.13-.02,.19-.08,.05-.05,.08-.12,.08-.18s-.02-.13-.08-.18c-.04-.04-.11-.08-.17-.08h-.01Z" fill="#b8846e"/><path d="M17.4,41.97c-.03,.13-.07,.25-.08,.38-.02,.13-.04,.25-.04,.38v.36c0,.07,.02,.13,.03,.21,0,.09,.03,.16,.05,.24,.02,.05,.09,.1,.14,.08,.07-.02,.1-.08,.08-.14,0-.06-.03-.12-.04-.18v-.42c0-.11,0-.22,.02-.32,0-.08,.02-.15,.04-.23,.02-.1,.04-.18,.05-.28,.02-.07-.02-.13-.09-.15h-.03s-.11,.04-.12,.1h-.02Z" fill="#b8846e"/><path d="M17.75,44.57s-.05,.05-.08,.09c0,.04,0,.08,.02,.12,.07,.14,.13,.28,.2,.41,.05,.12,.12,.24,.2,.36,.14,.25,.3,.49,.44,.73,.04,.07,.12,.09,.19,.05,.07-.04,.09-.12,.05-.2-.13-.25-.27-.49-.4-.74-.07-.12-.13-.24-.2-.36l-.2-.42s-.05-.07-.1-.08h-.04s-.05,0-.08,.02h0Z" fill="#b8846e"/><path d="M16.9,44.46v.39c0,.05,.02,.11,.02,.15,0,.07,.02,.13,.03,.19,0,.05,.02,.11,.04,.16,0,.05,.03,.1,.04,.15,.03,.1,.07,.19,.11,.29,.02,.08,.05,.16,.09,.24,.03,.09,.05,.17,.09,.25,.07,.18,.13,.36,.21,.54,0,.02,.02,.04,.04,.07,.02,.01,.05,.02,.08,0,.02,0,.05-.02,.07-.04s.02-.05,.01-.08c-.1-.24-.17-.48-.26-.7-.08-.21-.15-.4-.22-.61-.02-.05-.03-.1-.04-.14,0-.03-.02-.08-.03-.11-.02-.08-.03-.16-.05-.24v-.13s0,.01,0,0c0,0,0-.11-.02-.16v-.22s-.04-.1-.1-.1-.1,.04-.1,.1h0Zm.24,.47h0s0,0,0,0Z" fill="#b8846e"/><path d="M11.17,44.9c-.02,.1-.04,.19-.05,.29-.02,.11-.03,.22-.05,.32-.02,.18-.03,.36-.04,.54,0,.2-.02,.38-.02,.57,0,.1,.02,.19,.03,.3,.02,.1,.04,.21,.08,.3,.02,.09,.12,.14,.21,.12,.09-.02,.13-.12,.12-.21-.02-.08-.03-.16-.04-.25,0-.12-.02-.23-.02-.35v-.36c0-.12,0-.25,.02-.37,0-.07,0-.13,.02-.2,0-.05,0-.1,.02-.15,0-.07,.02-.14,.03-.21,0-.04,.02-.09,.02-.12,0-.05,.02-.1,.03-.15,.02-.1-.03-.2-.13-.22h-.04c-.08,0-.15,.05-.17,.13v-.02Z" fill="#b8846e"/><path d="M10.26,44.55c-.05,.26-.12,.51-.14,.78,0,.12-.03,.25-.04,.37,0,.15-.02,.3-.02,.45,0,.1,.08,.17,.17,.17,.04,0,.09-.02,.12-.05,.03-.03,.04-.08,.05-.12,.02-.28,.05-.55,.09-.83,.02-.11,.03-.21,.05-.31,.02-.12,.05-.24,.08-.35,.02-.1-.03-.21-.13-.23h-.05c-.08,0-.16,.05-.19,.14v-.02h.01Z" fill="#b8846e"/><path d="M9.24,43.62c-.08,.12-.15,.25-.23,.37-.08,.13-.14,.27-.21,.41-.03,.05-.04,.12-.02,.17,.02,.07,.05,.11,.11,.14,.11,.07,.25,.02,.32-.09,.15-.25,.32-.51,.47-.76,.08-.12,.03-.28-.09-.35-.04-.02-.09-.03-.13-.03-.09,0-.17,.04-.22,.13Z" fill="#b8846e"/><path d="M13.29,42.7s-.05,.05-.08,.09c0,.04,0,.08,.02,.12,.07,.14,.13,.28,.2,.41,.05,.12,.12,.24,.2,.36,.14,.25,.3,.49,.44,.73,.04,.07,.12,.09,.19,.05,.07-.04,.09-.12,.05-.19-.13-.25-.27-.49-.4-.74-.07-.12-.13-.24-.2-.36-.07-.14-.13-.28-.2-.42-.02-.04-.05-.06-.1-.08h-.04s-.05,0-.08,.02h0Z" fill="#b8846e"/><path d="M14,29.04s-.05,.05-.08,.09c0,.04,0,.08,.02,.12,.07,.14,.13,.28,.2,.41,.05,.12,.12,.24,.2,.36,.14,.25,.3,.49,.44,.73,.04,.07,.12,.09,.19,.05,.07-.04,.09-.12,.05-.2-.13-.25-.27-.49-.4-.74-.07-.12-.13-.24-.2-.36l-.2-.42s-.05-.07-.1-.08h-.04s-.05,0-.08,.02h0Z" fill="#b8846e"/><path d="M12.44,42.59v.39c0,.05,.02,.11,.02,.15,0,.07,.02,.13,.03,.19,0,.05,.02,.11,.04,.16,0,.05,.03,.1,.04,.15,.03,.1,.07,.19,.11,.29,.02,.08,.05,.16,.09,.24,.03,.09,.05,.17,.09,.25,.07,.18,.13,.36,.21,.54,0,.02,.02,.04,.04,.07,.02,.01,.05,.02,.08,0,.02,0,.05-.02,.07-.04s.02-.05,.01-.08c-.1-.24-.17-.48-.26-.7-.08-.21-.15-.4-.22-.61-.02-.05-.03-.1-.04-.14,0-.03-.02-.08-.03-.11-.02-.08-.03-.16-.05-.24v-.13s0,.01,0,0c0,0,0-.11-.02-.16v-.22s-.04-.1-.1-.1-.1,.04-.1,.1h0Zm.24,.47h0s0,0,0,0Z" fill="#b8846e"/><path d="M13.72,46.06s-.09,.04-.12,.09c-.02,.04-.02,.1-.02,.14,.03,.15,.05,.3,.1,.45,.02,.07,.03,.14,.05,.21,.02,.09,.05,.17,.09,.25,.01,.04,.04,.08,.08,.11,.04,.02,.09,.03,.13,.02,.1-.02,.15-.12,.12-.22-.09-.3-.14-.62-.21-.92-.02-.09-.1-.14-.19-.14h-.03Z" fill="#b8846e"/><path d="M10.92,41.82c0,.16,.02,.32,.03,.5,0,.09,0,.17,.02,.27,.02,.1,.03,.17,.05,.27s.13,.15,.22,.12c.04-.01,.09-.04,.11-.08,.02-.04,.02-.09,.02-.14v-.08c-.02-.28-.04-.57-.05-.86,0-.05-.02-.1-.05-.14-.04-.03-.09-.05-.13-.05-.1,0-.21,.09-.2,.19h-.02Z" fill="#b8846e"/><path d="M19.43,39.44c-.15,.18-.31,.37-.45,.56-.07,.09-.13,.17-.19,.27-.07,.11-.13,.23-.2,.34-.04,.08-.02,.18,.05,.23,.08,.04,.19,.02,.23-.05,.08-.13,.15-.28,.25-.4,.08-.12,.16-.24,.25-.35,0,.01-.02,.02-.02,.03l.02-.04v.02s.03-.04,.04-.05v.02s0-.02,.02-.03c0,0,0-.01,.02-.02,0,0,.02-.02,.03-.04h0s0-.02,0-.01c.05-.08,.12-.14,.19-.22,.03-.04,.04-.08,.04-.12s-.02-.09-.04-.12c-.03-.03-.08-.05-.13-.05-.04,0-.09,.02-.12,.05h-.01Zm-.04,.56s0-.01,.02-.02c0,0,0,.01-.02,.02Zm0,0s0-.01,.02-.02c0,0,0,.01-.02,.02Zm.05-.08s0,.02-.02,.02c0,0,.02-.02,.02-.03h0Z" fill="#b8846e"/><path d="M33.68,23.84c-.15,.18-.31,.37-.45,.56-.07,.09-.13,.17-.19,.27-.07,.11-.13,.23-.2,.34-.04,.08-.02,.18,.05,.23,.08,.04,.19,.02,.23-.05,.08-.13,.15-.28,.25-.4,.08-.12,.16-.24,.25-.35,0,.01-.02,.02-.02,.03l.02-.04v.02s.03-.04,.04-.05v.02s0-.02,.02-.03c0,0,0-.01,.02-.02,0,0,.02-.02,.03-.04h0s0-.02,0-.01c.05-.08,.12-.14,.19-.22,.03-.04,.04-.08,.04-.12s-.02-.09-.04-.12c-.03-.03-.08-.05-.13-.05-.04,0-.09,.02-.12,.05h-.01Zm-.04,.56s0-.01,.02-.02c0,0,0,.01-.02,.02Zm0,0s0-.01,.02-.02c0,0,0,.01-.02,.02Zm.05-.08s0,.02-.02,.02c0,0,.02-.02,.02-.03h0Z" fill="#b8846e"/><path d="M19.08,37.26c-.12,.08-.25,.14-.37,.22-.13,.09-.26,.18-.38,.29-.13,.13-.25,.27-.36,.4-.15,.18-.31,.37-.45,.56-.04,.05-.02,.14,.02,.17,.03,.03,.07,.04,.11,.04,.03,0,.08-.01,.1-.04,.13-.15,.25-.3,.38-.45,.16-.19,.34-.39,.54-.55,.1-.07,.19-.13,.28-.2,.1-.06,.2-.12,.3-.17,.08-.04,.11-.15,.07-.23-.03-.05-.09-.08-.15-.08-.03,0-.05,0-.09,.02h.01Z" fill="#b8846e"/><path d="M18.63,38.61c-.12,.18-.25,.37-.37,.55-.12,.18-.26,.36-.38,.53-.08,.11-.02,.26,.09,.32,.05,.03,.12,.04,.19,.02,.07-.01,.11-.05,.14-.11,.07-.1,.14-.2,.21-.28l-.04,.05c.1-.13,.21-.27,.31-.4,.1-.14,.2-.29,.3-.43,.08-.11,.02-.27-.09-.34-.04-.02-.08-.03-.12-.03-.09,0-.16,.04-.22,.12h0Z" fill="#b8846e"/><path d="M12.98,26.77c-.15,.18-.31,.37-.45,.56-.07,.09-.13,.17-.19,.27-.07,.11-.13,.23-.2,.34-.04,.08-.02,.18,.05,.23,.08,.04,.19,.02,.23-.05,.08-.13,.15-.28,.25-.4,.08-.12,.16-.24,.25-.35,0,.01-.02,.02-.02,.03l.02-.04v.02s.03-.04,.04-.05v.02s0-.02,.02-.03c0,0,0-.01,.02-.02,0,0,.02-.02,.03-.04h0s0-.02,0-.01c.05-.08,.12-.14,.19-.22,.03-.04,.04-.08,.04-.12s-.02-.09-.04-.12c-.03-.03-.08-.05-.13-.05-.04,0-.09,.02-.12,.05h-.01Zm-.04,.56s0-.01,.02-.02c0,0,0,.01-.02,.02Zm0,0s0-.01,.02-.02c0,0,0,.01-.02,.02Zm.05-.08s0,.02-.02,.02c0,0,.02-.02,.02-.03h0Z" fill="#b8846e"/><path d="M12.63,24.59c-.12,.08-.25,.14-.37,.22-.13,.09-.26,.18-.38,.29-.13,.13-.25,.27-.36,.4-.15,.18-.31,.37-.45,.56-.04,.05-.02,.14,.02,.17,.03,.03,.07,.04,.11,.04,.03,0,.08-.01,.1-.04,.13-.15,.25-.3,.38-.45,.16-.19,.34-.39,.54-.55,.1-.06,.19-.13,.28-.19s.2-.12,.3-.17c.08-.04,.11-.15,.07-.23-.03-.05-.09-.08-.15-.08-.03,0-.05,0-.09,.02h.01Z" fill="#b8846e"/><path d="M12.18,25.95c-.12,.18-.25,.37-.37,.55-.12,.18-.26,.36-.38,.53-.08,.11-.02,.26,.09,.32,.05,.03,.12,.04,.19,.02,.07-.01,.11-.05,.14-.11,.07-.1,.14-.19,.21-.28l-.04,.05c.1-.13,.21-.27,.31-.4,.1-.14,.2-.29,.3-.43,.08-.11,.02-.27-.09-.34-.04-.02-.08-.03-.12-.03-.09,0-.16,.04-.22,.12h0Z" fill="#b8846e"/><path d="M20.18,33.14c-.3,.05-.6,.1-.9,.16-.3,.07-.58,.16-.85,.3-.09,.04-.12,.17-.07,.25,.02,.04,.07,.08,.11,.09,.05,.01,.1,0,.14-.02,.03-.02,.08-.03,.11-.04,.24-.09,.49-.13,.74-.18,.27-.05,.55-.1,.82-.15,.05,0,.1-.05,.13-.1,.03-.04,.03-.11,.02-.16-.02-.05-.05-.1-.1-.12-.03-.02-.07-.03-.1-.03h-.07Z" fill="#b8846e"/><path d="M19.47,34.35c-.16,0-.33,.04-.49,.08-.08,.02-.15,.04-.22,.07-.08,.02-.15,.05-.23,.09-.17,.08-.35,.16-.52,.25-.1,.05-.13,.18-.08,.27,.02,.04,.07,.08,.12,.1,.05,.02,.1,0,.15-.02,.14-.07,.28-.13,.43-.19,.12-.04,.25-.1,.38-.13,.13-.03,.25-.05,.38-.09h.26c.12,0,.23,.01,.35,.02,.11,0,.21-.1,.21-.21,0-.05-.02-.11-.05-.14-.04-.04-.09-.05-.14-.05-.14-.01-.28-.02-.44-.02h-.11Z" fill="#b8846e"/><path d="M8.22,53.23c-.15,.18-.31,.37-.45,.56-.07,.09-.13,.17-.19,.27-.07,.11-.13,.23-.2,.34-.04,.08-.02,.18,.05,.23,.08,.04,.19,.02,.23-.05,.08-.13,.15-.28,.25-.4,.08-.12,.16-.24,.25-.35,0,.01-.02,.02-.02,.03l.02-.04v.02s.03-.04,.04-.05v.02s0-.02,.02-.03c0,0,0-.01,.02-.02,0,0,.02-.02,.03-.04h0s0-.02,0-.01c.05-.08,.12-.14,.19-.22,.03-.04,.04-.08,.04-.12s-.02-.09-.04-.12c-.03-.03-.08-.05-.13-.05-.04,0-.09,.02-.12,.05h-.01Zm-.04,.56s0-.01,.02-.02c0,0,0,.01-.02,.02Zm0,0s0-.01,.02-.02c0,0,0,.01-.02,.02Zm.05-.08s0,.02-.02,.02c0,0,.02-.02,.02-.03h0Z" fill="#b8846e"/><path d="M7.88,51.05c-.12,.08-.25,.14-.37,.22-.13,.09-.26,.18-.38,.29-.13,.13-.25,.27-.36,.4-.15,.18-.31,.37-.45,.56-.04,.05-.02,.14,.02,.17,.03,.03,.07,.04,.11,.04,.03,0,.08-.01,.1-.04,.13-.15,.25-.3,.38-.45,.16-.19,.34-.39,.54-.55,.1-.07,.19-.13,.28-.19,.1-.07,.2-.12,.3-.17,.08-.04,.11-.15,.07-.23-.03-.05-.09-.08-.15-.08-.03,0-.05,0-.09,.02h.01Z" fill="#b8846e"/><path d="M7.43,52.41c-.12,.18-.25,.37-.37,.55-.12,.18-.26,.36-.38,.53-.08,.11-.02,.26,.09,.32,.05,.03,.12,.04,.19,.02,.07-.01,.11-.05,.14-.11,.07-.1,.14-.19,.21-.28l-.04,.05c.1-.13,.21-.27,.31-.4,.1-.14,.2-.29,.3-.43,.08-.11,.02-.27-.09-.34-.04-.02-.08-.03-.12-.03-.09,0-.16,.04-.22,.12h0Z" fill="#b8846e"/><path d="M8.98,46.93c-.3,.05-.6,.1-.9,.16s-.58,.16-.85,.3c-.09,.04-.12,.17-.07,.25,.02,.04,.07,.08,.11,.09,.05,.01,.1,0,.14-.02,.03-.02,.08-.03,.11-.04,.24-.09,.49-.13,.74-.18,.27-.05,.55-.1,.82-.15,.05,0,.1-.05,.13-.1,.03-.04,.03-.11,.02-.16-.02-.05-.05-.1-.1-.12-.03-.02-.07-.03-.1-.03h-.07Z" fill="#b8846e"/><path d="M8.27,48.14c-.16,0-.33,.04-.49,.08-.08,.02-.15,.04-.22,.07-.08,.02-.15,.05-.23,.09-.17,.08-.35,.16-.52,.25-.1,.05-.13,.18-.08,.27,.02,.04,.07,.08,.12,.1,.05,.02,.1,0,.15-.02,.14-.07,.28-.13,.43-.19,.12-.04,.25-.1,.38-.13,.13-.03,.25-.05,.38-.09h.26c.12,0,.23,.01,.35,.02,.11,0,.21-.1,.21-.21,0-.05-.02-.11-.05-.14-.04-.04-.09-.05-.14-.05-.14-.01-.28-.02-.44-.02h-.11Z" fill="#b8846e"/><path d="M22.75,36.28c-.07,.2-.13,.4-.21,.58-.04,.13-.09,.27-.12,.4-.02,.11-.03,.21-.04,.32,0,.04,0,.08-.02,.12,0,.02,0,.04,.02,.07,.02,.03,.04,.05,.08,.05s.08,0,.1-.01c.02-.01,.05-.04,.05-.08,.02-.12,.04-.25,.07-.37,.02-.15,.08-.29,.13-.43,.07-.19,.14-.4,.21-.6,.02-.08-.02-.15-.1-.17h-.04c-.07,0-.12,.04-.14,.11h.02Zm-.36,1.33h0s0,0,0,0Z" fill="#b8846e"/><path d="M23.63,37.85c-.03,.13-.07,.25-.08,.38-.02,.13-.04,.25-.04,.38v.36c0,.06,.02,.13,.03,.21,0,.09,.03,.16,.05,.24,.02,.05,.09,.1,.14,.08,.07-.02,.1-.08,.08-.14,0-.07-.03-.12-.04-.18v-.42c0-.11,0-.22,.02-.32,0-.08,.02-.15,.04-.23,.02-.1,.04-.18,.05-.28,.02-.06-.02-.13-.09-.15h-.03s-.11,.04-.12,.1h-.02Z" fill="#b8846e"/><path d="M21.11,37.45s-.02,.02-.02,.03c0,.02-.02,.04-.02,.07-.02,.16-.04,.32-.05,.48,0,.14-.02,.27-.02,.41,0,.13-.02,.25,0,.38v.23c.02,.1,.03,.19,.05,.28,0,.03,.03,.05,.05,.08,.03,.02,.07,.02,.1,0,.03,0,.05-.02,.08-.05,.02-.03,.02-.07,0-.1v-.08c0-.13-.02-.25-.02-.38s0-.27,.02-.4c0-.13,.02-.26,.03-.39l.07-.48s-.02-.08-.04-.1-.05-.04-.1-.04c-.03,0-.07,.01-.1,.04v.02h-.02Z" fill="#b8846e"/><path d="M21.61,39.57c0,.16,.02,.32,.03,.5,0,.09,0,.17,.02,.27,.02,.1,.03,.17,.05,.27,.02,.1,.13,.15,.22,.12,.04-.01,.09-.04,.11-.08,.02-.04,.02-.09,.02-.14v-.08c-.02-.28-.04-.57-.05-.86,0-.05-.02-.1-.05-.14-.04-.03-.09-.05-.13-.05-.1,0-.21,.09-.2,.2h-.02Z" fill="#b8846e"/><path d="M23.13,31.78c-.08,.03-.15,.07-.23,.1-.07,.02-.13,.05-.2,.09-.05,.03-.11,.05-.16,.09-.05,.03-.11,.07-.16,.1-.05,.03-.1,.07-.15,.1-.05,.03-.1,.08-.14,.11-.11,.09-.22,.16-.33,.25-.03,.02-.05,.04-.05,.08v.1c.03,.07,.12,.09,.19,.05,.11-.08,.21-.14,.31-.21,.08-.05,.16-.11,.25-.17,.08-.05,.16-.1,.25-.15,.04-.02,.1-.05,.14-.08,.05-.02,.1-.04,.15-.08,.08-.03,.15-.05,.22-.09,.04-.01,.08-.03,.1-.08,.02-.03,.02-.08,.02-.12s-.04-.08-.08-.1c-.02-.01-.05-.02-.08-.02h-.04v.03Z" fill="#b8846e"/><path d="M23.73,32.79s-.08,.04-.11,.08c-.1,.14-.19,.28-.27,.42-.04,.05-.07,.12-.1,.18-.02,.04-.03,.09-.05,.13-.03,.08-.04,.14-.05,.22,0,.04,0,.09,.02,.13,.02,.03,.05,.07,.1,.08,.09,.02,.2-.02,.21-.12,0-.07,.02-.12,.05-.17,.05-.12,.11-.23,.17-.34,.07-.13,.15-.24,.23-.36,.05-.08,.01-.19-.07-.24-.02-.01-.05-.02-.09-.02h-.04Z" fill="#b8846e"/><path d="M23.16,44.9c-.35,.1-.71,.21-1.07,.26-.11,.01-.22,.01-.33,.01s-.19,.08-.19,.18,.09,.18,.19,.18h.22c.11,0,.21,0,.31-.02,.1-.01,.21-.03,.31-.05,.11-.02,.22-.05,.33-.08,.12-.03,.23-.07,.34-.1,.11-.03,.17-.14,.14-.25-.02-.09-.11-.15-.2-.15h-.04Z" fill="#b8846e"/><path d="M22.97,46.06c-.28,.03-.57,.05-.84,.08-.28,.03-.57,.04-.85,.05-.1,0-.19,.08-.19,.18,0,.1,.09,.18,.19,.18,.28-.02,.57-.02,.85-.05,.28-.02,.57-.05,.84-.09,.05,0,.1-.02,.13-.05,.04-.03,.05-.09,.05-.13,0-.05-.02-.1-.05-.13-.03-.03-.08-.05-.12-.05h-.01Z" fill="#b8846e"/><path d="M26.29,42.34c-.55,.04-1.09,.08-1.64,.12-.08,0-.13,.02-.19,.08-.04,.05-.08,.12-.08,.18,0,.13,.12,.27,.26,.26,.55-.04,1.09-.06,1.64-.11,.08,0,.13-.02,.19-.08,.05-.05,.08-.12,.08-.18s-.02-.13-.08-.18c-.04-.04-.11-.08-.17-.08h-.01Z" fill="#b8846e"/><path d="M12.16,38.21c-.08,.03-.15,.07-.23,.1-.07,.02-.13,.05-.2,.09-.05,.03-.11,.05-.16,.09-.05,.03-.11,.07-.16,.1-.05,.03-.1,.06-.15,.1-.05,.03-.1,.08-.14,.11-.11,.09-.22,.16-.33,.25-.03,.02-.05,.04-.05,.08v.1c.03,.07,.12,.09,.19,.05,.11-.08,.21-.14,.31-.21,.08-.05,.16-.11,.25-.17,.08-.05,.16-.1,.25-.15,.04-.02,.1-.05,.14-.08,.05-.02,.1-.04,.15-.08,.08-.03,.15-.05,.22-.09,.04-.01,.08-.03,.1-.08,.02-.03,.02-.08,.02-.12s-.04-.08-.08-.1c-.02-.01-.05-.02-.08-.02h-.04v.03Z" fill="#b8846e"/><path d="M12.76,39.22s-.08,.04-.11,.08c-.1,.14-.19,.28-.27,.42-.04,.05-.07,.12-.1,.18-.02,.04-.03,.09-.05,.13-.03,.08-.04,.14-.05,.22,0,.04,0,.09,.02,.13,.02,.03,.05,.06,.1,.08,.09,.02,.2-.02,.21-.12,0-.07,.02-.12,.05-.17,.05-.12,.11-.23,.17-.34,.07-.13,.15-.24,.23-.36,.05-.08,.01-.2-.07-.24-.02-.01-.05-.02-.09-.02h-.04Z" fill="#b8846e"/><path d="M14.41,40.7c-.05,.23-.11,.45-.13,.68-.01,.15-.02,.3,0,.45,0,.07,.02,.14,.04,.21,0,.04,.02,.08,.03,.12,.02,.06,.05,.13,.09,.19,.03,.05,.12,.08,.17,.04,.05-.04,.08-.12,.04-.17-.02-.02-.03-.05-.04-.09-.04-.11-.07-.22-.08-.32-.01-.12,0-.24,0-.36v-.12s.01-.08,.02-.12c.03-.15,.05-.29,.1-.44,.02-.07-.02-.13-.09-.15h-.03c-.05,0-.11,.04-.12,.1v-.02h-.01Z" fill="#b8846e"/><path d="M14.39,36.28c0,.12-.01,.24-.02,.36v.34c0,.1,.01,.18,.03,.28,.01,.08,.03,.14,.05,.22,.03,.12,.08,.24,.12,.35,.02,.04,.03,.08,.08,.1,.03,.02,.08,.03,.12,.02,.09-.02,.13-.11,.11-.19-.03-.1-.05-.21-.08-.3-.02-.1-.04-.2-.05-.28-.02-.13-.02-.27-.01-.41,0-.15,.01-.3,.02-.44,0-.1-.09-.17-.19-.17s-.17,.08-.17,.17v-.02h-.01Z" fill="#b8846e"/><path d="M5.24,56.63c0,.12-.01,.24-.02,.36v.34c0,.1,.01,.18,.03,.28,.01,.08,.03,.14,.05,.22,.03,.12,.08,.24,.12,.35,.02,.04,.03,.08,.08,.1,.03,.02,.08,.03,.12,.02,.09-.02,.13-.11,.11-.19-.03-.1-.05-.21-.08-.3-.02-.1-.04-.19-.05-.28-.02-.13-.02-.27-.01-.41,0-.15,.01-.3,.02-.44,0-.1-.09-.17-.19-.17s-.17,.08-.17,.17v-.02h-.01Z" fill="#b8846e"/><path d="M16.77,27.84c0,.12-.01,.24-.02,.36v.34c0,.1,.01,.18,.03,.28,.01,.08,.03,.14,.05,.22,.03,.12,.08,.24,.12,.35,.02,.04,.03,.08,.08,.1,.03,.02,.08,.03,.12,.02,.09-.02,.13-.11,.11-.19-.03-.1-.05-.21-.08-.3s-.04-.19-.05-.28c-.02-.13-.02-.27-.01-.41,0-.15,.01-.3,.02-.44,0-.1-.09-.17-.19-.17s-.17,.08-.17,.17v-.02h-.01Z" fill="#b8846e"/><path d="M15.34,32.62s-.04,.06-.04,.11,.01,.08,.04,.11c.03,.03,.07,.04,.11,.04,.12,.02,.25,.03,.38,.04,.1,0,.21,.01,.31,.02l.7,.02c.09,0,.16-.08,.16-.16s-.08-.15-.16-.16c-.23,0-.47-.02-.7-.02h-.3c-.13,0-.26-.02-.39-.03h-.01s-.08,.02-.1,.04h0Z" fill="#b8846e"/><path d="M14.68,33.3c-.55,.04-1.09,.08-1.64,.12-.08,0-.13,.02-.19,.08-.04,.05-.08,.12-.08,.18,0,.13,.12,.27,.26,.26,.55-.04,1.09-.06,1.64-.11,.08,0,.13-.02,.19-.08,.05-.05,.08-.12,.08-.18s-.02-.13-.08-.18c-.04-.04-.11-.08-.17-.08h-.01Z" fill="#b8846e"/><path d="M26.09,27.68c-.3,.05-.6,.1-.9,.16s-.58,.16-.85,.3c-.09,.04-.12,.17-.07,.25,.02,.04,.07,.08,.11,.09,.05,.01,.1,0,.14-.02,.03-.02,.08-.03,.11-.04,.24-.09,.49-.13,.74-.18,.27-.05,.55-.1,.82-.15,.05,0,.1-.05,.13-.1,.03-.04,.03-.11,.02-.16-.02-.05-.05-.1-.1-.12-.03-.02-.07-.03-.1-.03h-.07Z" fill="#b8846e"/><path d="M25.37,28.89c-.16,0-.33,.04-.49,.08-.08,.02-.15,.04-.22,.07-.08,.02-.15,.05-.23,.09-.17,.08-.35,.16-.52,.25-.1,.05-.13,.18-.08,.27,.02,.04,.07,.08,.12,.1s.1,0,.15-.02c.14-.07,.28-.13,.43-.19,.12-.04,.25-.1,.38-.13,.13-.03,.25-.05,.38-.09h.26c.12,0,.23,.01,.35,.02,.11,0,.21-.1,.21-.21,0-.05-.02-.11-.05-.14-.04-.04-.09-.05-.14-.05-.14-.01-.28-.02-.44-.02h-.11Z" fill="#b8846e"/><path d="M9.81,1.28c-.3,.05-.6,.1-.9,.16-.3,.06-.58,.16-.85,.3-.09,.04-.12,.17-.07,.25,.02,.04,.07,.08,.11,.09,.05,.01,.1,0,.14-.02,.03-.02,.08-.03,.11-.04,.24-.09,.49-.13,.74-.18,.27-.05,.55-.1,.82-.15,.05,0,.1-.05,.13-.1,.03-.04,.03-.11,.02-.16-.02-.05-.05-.1-.1-.12-.03-.02-.07-.03-.1-.03h-.07Z" fill="#b8846e"/><path d="M9.1,2.5c-.16,0-.33,.04-.49,.08-.08,.02-.15,.04-.22,.06-.08,.02-.15,.05-.23,.09-.17,.08-.35,.16-.52,.25-.1,.05-.13,.18-.08,.27,.02,.04,.07,.08,.12,.1,.05,.02,.1,0,.15-.02,.14-.06,.28-.13,.43-.19,.12-.04,.25-.1,.38-.13,.13-.03,.25-.05,.38-.09h.26c.12,0,.23,.01,.35,.02,.11,0,.21-.1,.21-.21,0-.05-.02-.11-.05-.14-.04-.04-.09-.05-.14-.05-.14-.01-.28-.02-.44-.02h-.11Z" fill="#b8846e"/><path d="M21.24,27.16s-.04,.07-.04,.11,.01,.08,.04,.11c.03,.03,.07,.04,.11,.04,.12,.02,.25,.03,.38,.04,.1,0,.21,.01,.31,.02l.7,.02c.09,0,.16-.08,.16-.16s-.08-.15-.16-.16c-.23,0-.47-.02-.7-.02h-.3c-.13,0-.26-.02-.39-.03h-.01s-.08,.02-.1,.04h0Z" fill="#b8846e"/><path d="M20.59,27.84c-.55,.04-1.09,.08-1.64,.12-.08,0-.13,.02-.19,.08-.04,.05-.08,.12-.08,.18,0,.13,.12,.27,.26,.26,.55-.04,1.09-.07,1.64-.11,.08,0,.13-.02,.19-.08,.05-.05,.08-.12,.08-.18s-.02-.13-.08-.18c-.04-.04-.11-.08-.17-.08h-.01Z" fill="#b8846e"/><path d="M87.87,28.34c-.09-.27-.25-.67-.58-1.07-.36-.45-.69-.61-.64-.75,.03-.14,.42-.27,2.03-.12-.08,.29-.17,.62-.33,.97-.15,.38-.33,.69-.49,.96h.01Z" fill="#f89fa3"/><path d="M86.83,29.62c-.21,.02-.77,.07-1.36-.25-.52-.27-.8-.68-.91-.86" fill="none" stroke="#000" stroke-linecap="round" stroke-miterlimit="10" stroke-width="1.17"/><path d="M72.95,25.89c1.24-.14,3.09-.27,5.42-.1,1.78,.13,3.29,.4,4.39,.65" fill="none" stroke="#fff" stroke-linecap="round" stroke-miterlimit="10" stroke-width=".88"/><path d="M76.5,32.64c.73-.78,1.64-1.65,2.74-2.51,1.33-1.03,2.6-1.8,3.71-2.36" fill="none" stroke="#fff" stroke-linecap="round" stroke-miterlimit="10" stroke-width=".92"/><path d="M74.28,29.63c1.07-.54,2.4-1.1,3.98-1.58,1.71-.51,3.27-.79,4.58-.95" fill="none" stroke="#fff" stroke-linecap="round" stroke-miterlimit="10" stroke-width=".88"/></g></g></g></svg>