<?xml version="1.0" encoding="UTF-8"?><svg id="b" xmlns="http://www.w3.org/2000/svg" xmlns:xlink="http://www.w3.org/1999/xlink" viewBox="0 0 563 411.92"><defs><clipPath id="d"><rect width="563" height="411.92" fill="none" stroke-width="0"/></clipPath></defs><g id="c"><g clip-path="url(#d)"><path d="M400.09,180.57c9.08,11.81,9.26,28.31,16.73,41.21,2.36,4.08,5.41,7.72,8.44,11.33,1.78,2.12,3.56,4.24,5.34,6.36,8.75,10.43,17.66,21.02,29,28.56,1.64,1.09,3.36,2.15,4.56,3.71.65.85,1.13,1.82,1.58,2.79,4.63,10.02,6.61,21.24,5.7,32.24-.85,10.25-5.14,21.35-14.54,25.53-2.75,1.22-5.78,1.77-8.4,3.23-2.63,1.46-4.88,4.27-4.36,7.23.76,4.31,6.26,5.6,10.63,5.69,3.22.06,6.45-.01,9.67-.23,2.22-.15,4.5-.38,6.47-1.41,1.56-.81,2.83-2.08,4.07-3.32,2.59-2.59,5.18-5.19,7.76-7.78,1.04-1.04,2.09-2.1,2.73-3.43.65-1.36.81-2.9.97-4.41,1.86-17.57,4.72-35.03,8.57-52.27.28-1.27.57-2.61.23-3.87-.28-1.04-.97-1.92-1.64-2.77-6.39-8.07-12.78-16.14-19.17-24.21-1.51-1.9-3.04-3.86-3.79-6.17-.51-1.56-.63-3.22-.74-4.86-.83-11.65-1.66-23.3-2.5-34.95-.49-6.83-1.02-13.85-4.01-20.01-3.25-6.71-9.22-11.86-15.97-15.03s-14.23-4.48-21.68-4.86c-6.95-.35-14.38.23-20.02,4.31-5.64,4.08-8.48,12.64-4.37,18.26" fill="#914013" stroke-width="0"/><path d="M239.2,244.16c3.22,4.2,5.92,8.8,8.03,13.65.72,1.67,1.39,3.38,2.41,4.89.86,1.26,1.95,2.36,2.71,3.69,1.16,2.03,1.45,4.43,2.2,6.65.99,2.93,2.8,5.51,4.4,8.16,2.54,4.17,4.64,8.61,6.42,13.15,2.38,6.07,4.21,12.35,6.03,18.61.95,3.28,1.91,6.57,2.86,9.85.42,1.46.86,2.95,1.77,4.17.55.74,1.27,1.36,1.67,2.19.51,1.05.45,2.28.38,3.44-.42,6.76-.83,13.52-1.25,20.28-.22.49-.43.98-.89,1.2.65,4.34-3.55,7.88-7.65,9.44s-8.76,2.26-11.9,5.33c-2.1,2.05-3.21,4.9-3.97,7.74-.22.83-.42,1.72-.17,2.55.57,1.86,2.96,2.33,4.91,2.43,6.67.34,13.35.29,20.01-.17,1.75-.12,3.52-.27,5.17-.87,3.72-1.36,6.25-4.75,8.55-7.98,1.88-2.63,3.78-5.3,4.95-8.31,2.69-6.96,1.16-14.77,1.92-22.2.86-8.37,4.65-16.96,1.8-24.88-.9-2.5-2.42-4.73-3.73-7.04-9.16-16.19-8.06-36.04-12.66-54.06-1.51-5.89-3.63-11.61-6.06-17.19-1.67-3.85-3.51-7.67-6.07-11.01-4.36-5.68-10.79-9.73-17.8-11.21-6.69-1.41-15.11.47-17.51,6.87-.61,1.62-.76,3.37-.77,5.1-.01,5.87,1.69,11.74,4.84,16.7" fill="#934313" stroke-width="0"/><path d="M124.36,126.81c10.5,7.15,12.58,9.1,20.97,17.48,2.3,2.3,3.64,5.45,6.02,7.67,2.14,2,4.77,3.4,7.1,5.19,8.65,6.68,12.27,18.13,20.23,25.63,2.86,2.7,6.31,4.9,8.38,8.25,3.31,5.33,2.39,12.13,3.04,18.37,1.78,17,15.73,30.83,17.68,47.82.71,6.15-.22,12.36-1.14,18.48-2.45,16.25-4.9,32.5-7.12,49.06-2.87,7.56-5.1,15.34-7.31,23.12-1.63,5.73-3.26,11.49-5.97,16.79-1.46,2.86-3.23,5.56-4.99,8.26-2.59,3.96-5.35,8.08-9.51,10.34-4.52,2.45-10.21,2.41-14.38,5.42-2.19,1.58-3.75,3.86-5.25,6.1-1.33,1.98-2.67,4.04-3.1,6.39-.43,2.35.29,5.07,2.74,6.91.94,1.61,3.41.71,5.24,1.09.94.2,1.76.77,2.66,1.11.92.34,1.92.42,2.9.5,3.58.28,7.16.57,10.74.85,3.92.31,7.94.61,11.71-.5,6.47-1.92,11.08-7.71,14.04-13.77,2.96-6.06,4.73-12.68,7.95-18.61.74-1.35,1.56-2.69,2.68-3.75.8-.76,1.72-1.36,2.62-1.99,1.64-1.15,3.22-2.44,4.41-4.05,3.73-5.08,2.81-12.08,4.31-18.19,1.12-4.58,3.68-9.09,3.09-14.32.95-4.56,2.17-9.05,3.66-13.46,1.19-3.52,2.56-6.99,3.72-10.52,1.08-3.29,1.99-6.64,3.01-9.83,2.81-7.49,5.63-14.99,7.63-22.73,1.31-5.07,2.26-10.24,4.02-15.17,1.75-4.93,6.04-8.95,7.46-13.99.69-2.45.75-5.9.67-8.4-.05-1.66,1.38-2.97,3.02-2.78,7.59.88,26.76,2.68,37.21.05,6.89-1.73,13.5-4.43,18.84-6.76,10.69-3.44,20.99-8.12,30.63-13.9,3.19-1.92,6.32-3.96,9.68-5.57,3.26-1.56,6.7-2.7,9.52-3.7,6.73-3.35,13.36-6.92,19.87-10.69,6.11-3.54,12.12-7.26,18.53-10.22,6.41-2.96,13.27-5.14,20.33-5.38,1.58-.06,3.2-.01,4.01.32,3.6-.08,7.1,1.41,10.02,3.53,2.92,2.12,5.34,4.83,7.73,7.53,2.06,2.31,4.11,4.63,6.17,6.94,1.53,1.72,3.07,3.45,4.52,5.25,2.03,2.52,3.89,5.16,5.75,7.81,3.88,5.53,7.77,11.05,11.07,15.73,14.76,24.56,42.93,38.66,57.89,63.1,4.86,7.94,8.16,16.75,10.8,25.67,3.29,11.11,5.17,24.4-2.38,33.18-3.88,4.52-9.72,7.07-12.57,12.62-1.01,1.98-1.4,4.26-.87,6.43,1.08,4.41,4.95,5.45,8.5,6.3,8.1,1.95,17.7,3.55,23.88-2.03,3.14-2.83,4.7-7.03,5.55-11.17,3.95-19.05-4.57-38.57-3.5-57.99.53-9.54,3.09-20.19-2.6-27.86-1.41-1.9-3.25-3.45-4.97-5.07-15.98-15.01-23.3-36.81-30.04-57.67-2.79-8.62-5.58-17.29-6.87-26.26-1.76-12.25-.71-24.98-4.46-36.77-4.51-14.17-13.37-22.81-16.32-37.39-.26-1.26-.43-2.65.2-3.77.95-1.68,3.07-2.26,4.25-2.7,12.44-4.6,19.14-13.86,28.37-25.88,6.28-8.18,9-20.83,7.41-39.85-.49-5.82-2.13-14.91-6.73-22.25-1.29-2.05-3.93-4.81-4.94-5.49-.2-.14-4.66-3.45-4.81-3.55-4.09-2.79-4.04-3.19-10.04-5.07-3.15-.99-6.41-1.61-9.71-1.85-3.97-.28-8.68-.35-11.43,2.62-1.1,1.18-1.49,2.84-1.43,4.43.08,2.02,1.15,3.83,2.72,5.09,3.03,2.43,6.86,2.88,10.28,4.36,8.14,3.53,12.71,12.35,14.75,20.98,1.86,7.86,2.11,16.34-.97,23.81-3.08,7.47-9.93,13.67-18.7,14.17-10.88.62-21.78,1.24-32.65.55-7.82-.49-15.58-1.66-23.37-2.56-29.85-3.47-60.15-3.09-89.91,1.12-21.33,3.02-42.75,8.01-64.35,5.12-18.53,2.5-37.33.14-55.88-2.21-4.02-.51-8.09-1.03-11.9-2.43-3.12-1.14-6-2.85-8.85-4.55-5.34-3.17-10.67-6.34-16.01-9.5-3.85-2.28-7.7-4.57-11.48-6.97-11.13-7.06-21.63-15.09-31.41-23.92-3.1-2.8-6.17-5.71-9.78-7.81-3.17-1.85-6.69-3.04-10.26-3.94-18.56-4.69-38.98-1.53-55.26,8.55-4.87,3.02-6.96,5.89-10.44,11.84h.03c-5.99,11-14.85,20.05-26.11,25.79-11.27,5.71-31.73,11.05-32.64,15.78-1.95,10.17,13.26,21.85,26.38,23.93,13.72,2.17,28.46-.19,38.13-1.84,30.65-5.25,28.91.14,48.94,12.77" fill="#ab5a23" stroke-width="0"/><path d="M505.26,84.69c1.18-2.66,1.21-2.97,1.82-6.31.34-1.86-.55-4.13-.76-4.46-1.23,1.13-1.86,1.77-2.6,2.37-.77.62-2.53,1.53-5.22,2.46-9.1,3.13-22.35,2.23-28.53,1.97-22.28-.94-55.2-4.75-64.06-5.13-57.77-2.44-121.87,17.18-181.08,5.4-20.74-4.12-40.91-19.39-57.36-30.39-10.87-7.27-16.47-14.3-26.5-20.26,1.47,7.43-1.47,16.33,0,23.76l.25,1.03c-3,11.07-5.52,25.85,2.71,33.84,2.84,2.76,6.71,4.49,8.92,7.78,2.21,3.29,1.2,9.14-2.75,9.42-3.07.22-5.41-3.08-8.48-3.32-3.1-.24-5.62,2.89-5.87,5.99-.25,3.1-7.44,19.54-.76,25.57,16.37,14.77,11.43,15.72,24.34,23.44,2.83,1.69,6.58-13.88,5.44-19.44-1.15-5.56-1.69-12.76,3.29-15.47.88-.48,1.93-.76,2.89-.45,1.11.36,1.84,1.39,2.48,2.37,5.39,8.13,10.98,16.91,10.92,26.66-.07,10.49-.37,20.09,5.39,14.91,12.65-11.37,3.86-23.42,13.25-41.96,2.26-4.46,5.56-8.84,10.35-10.25,4.65-1.37,9.61.36,14.03,2.35,7.23,3.26,14.32,7.49,18.93,13.94,9.22,12.93,6.29,31.24,13.77,45.24,6.01,11.25,18.12,18.21,30.56,20.99s25.37,1.96,38.1,1.12c11.44-.76,22.88-1.52,34.32-2.27,3.42-.23,6.94-.48,10.06-1.91,3.6-1.66,6.31-4.74,9.03-7.63,8.65-9.22,18.42-17.38,29.02-24.27,7.65-4.97,16.22-9.79,19.95-18.12,3.3-7.36,2.12-16.14,5.52-23.45,5.41-11.63,19.86-15.31,32.47-17.64,8.2-1.52,14.33-3.54,22.23-6.08,2.67-1.41,5.39-1.8,7.7-3.75,2.4-2.03,5.1-5.51,6.23-8.05Z" fill="#1e1815" stroke-width="0"/><path d="M125.99,17.27c2.23-3.63,5.02-7.63,9.25-8.13,1.5-.18,3.02.14,4.5.45,13.78,2.91,27.49,6.17,41.11,9.77,1.7.45,3.63,1.1,4.27,2.73.59,1.49-.17,3.18-1.2,4.4-2.52,3.01-6.43,4.37-10.15,5.61-3.56,1.18-7.24,2.38-10.99,2.11-2.35-.17-5.52-.47-6.28,1.77-.34,1.01.05,2.12-.06,3.18-.21,1.84-1.86,3.13-3.38,4.19-1.37.96-2.92,1.97-4.59,1.78-1.05-.12-1.98-.72-2.87-1.29-5.69-3.7-11.38-7.4-17.07-11.1-1.86-1.21-3.79-2.49-4.86-4.43-2.15-3.9.07-8.96,3.5-11.8" fill="#7a3610" stroke-width="0"/><path d="M116.12,27.97c3.02,1.04,5.21,3.79,6.31,6.79,1.1,3,1.28,6.25,1.38,9.44.07,2.26.63,5.17,2.86,5.52,1.86.3,3.31-1.5,4.35-3.07,1.03-1.58,2.54-3.35,4.39-2.97,1.37.28,2.21,1.65,2.76,2.94,1.64,3.82,2.26,8.07,1.78,12.2.37-3.5.65-7.02.85-10.53.27-4.91.36-9.92-1.02-14.65-1.38-4.73-4.45-9.17-8.97-11.11-3.82-1.64-8.44-1.26-11.95.98-1,.64-1.92,1.43-2.53,2.43-.51.83-.79,1.8-.82,2.77" fill="#7a3714" stroke-width="0"/><path d="M104.1,5.65c-2.78.3-5.36,3.07-6.03,6.12-1.53,7.03,2.65,13.91,6.64,19.9.65.97,1.31,1.96,2.24,2.67,2.09,1.61,5.11,1.44,7.55.43,2.44-1.01,4.51-2.72,6.74-4.13,1.91-1.21,3.97-2.2,6.1-2.94,1.45-.5,2.98-.9,4.49-.71,2.41.3,4.46,2.06,5.66,4.17,1.2,2.11,1.67,4.56,1.99,6.97.96,7.28.71,14.67.45,22.01,3.31-7.64,4.26-16.28,2.7-24.46-.74-3.86-2.01-7.59-3.28-11.3-.47-1.36-.94-2.74-1.7-3.96-3.41-5.44-11.06-6-16.37-9.6-1.91-1.29-3.53-3-5.57-4.06-3.5-1.82-7.69-1.5-11.62-1.13" fill="#934314" stroke-width="0"/><path d="M7.67,95.88c-.88-1.94-1.71-2.84-.56-4.63.99-1.54,3-1.96,4.67-2.72.73-.33,1.47-.81,1.74-1.57.29-.83-.1-1.77-.73-2.38s-1.46-.95-2.28-1.27c-1.18-.46-2.38-.91-3.64-1.02s-2.61.17-3.56,1c-.86.76-1.31,1.91-1.42,3.05s.1,2.3.36,3.41c.4,1.68.94,3.34,1.88,4.79.94,1.45,4.65,3.32,4.65,3.32,0,0-1.26-2.29-1.3-2.36" stroke-width="0"/><path d="M7.67,95.88c-.88-1.94-1.71-2.84-.56-4.63.99-1.54,3-1.96,4.67-2.72.73-.33,1.47-.81,1.74-1.57.29-.83-.1-1.77-.73-2.38s-1.46-.95-2.28-1.27c-1.18-.46-2.38-.91-3.64-1.02s-2.61.17-3.56,1c-.86.76-1.31,1.91-1.42,3.05s.1,2.3.36,3.41c.4,1.68.94,3.34,1.88,4.79.94,1.45,4.65,3.32,4.65,3.32,0,0-1.26-2.29-1.3-2.36" fill="none" stroke="#000" stroke-miterlimit="10"/><path d="M60.09,56.38c-.07.38-.07.68.07,1.54s.63,1.71,1.43,2.04c.44.18.92.19,1.4.19,1.66,0,4.51-.05,4.83-.96.29-.81.03-1.92-1.1-2.59-.53-.31-1.9-.58-2.69-.7-1.18-.18-1.93-.3-3.02-.4-.46-.05-.81.35-.92.89" stroke-width="0"/><path d="M60.09,56.38c-.07.38-.07.68.07,1.54s.63,1.71,1.43,2.04c.44.18.92.19,1.4.19,1.66,0,4.51-.05,4.83-.96.29-.81.03-1.92-1.1-2.59-.53-.31-1.9-.58-2.69-.7-1.18-.18-1.93-.3-3.02-.4-.46-.05-.81.35-.92.89" fill="none" stroke="#000" stroke-miterlimit="10"/><path d="M178.93,394.04c-2.63-.57-5.53.34-7.36,2.31-.89.95-1.83,2.16-2.49,3.29-.95,1.62-2.73,4.65-3.14,9.73" fill="none" stroke="#000" stroke-linecap="round" stroke-miterlimit="10" stroke-width="5"/><path d="M275.98,370.2c-1.94.93-3.28,2.81-4.14,4.78-.62,1.43-1.44,2.88-1.12,5.53" fill="none" stroke="#000" stroke-linecap="round" stroke-miterlimit="10" stroke-width="5"/><path d="M536.04,361.63c-3.79,1.57-7.28,8.21-7.28,14.75" fill="none" stroke="#000" stroke-linecap="round" stroke-miterlimit="10" stroke-width="5"/><path d="M169.86,389.13c-6.74-.48-16.76,9.82-15.45,19" fill="none" stroke="#000" stroke-linecap="round" stroke-miterlimit="10" stroke-width="5"/><path d="M268.63,368.07c-6.4,1.74-8.81,7.72-9.1,12.1" fill="none" stroke="#000" stroke-linecap="round" stroke-miterlimit="10" stroke-width="5"/><path d="M545.22,362.39c-2.97,3.12-6.56,9.69-6.25,15.46" fill="none" stroke="#000" stroke-linecap="round" stroke-miterlimit="10" stroke-width="5"/><path d="M551.61,365.13c-.78,1.3-1.58,2.63-1.88,4.12-.3,1.49-.75,4.06,1.12,8.2" fill="none" stroke="#000" stroke-linecap="round" stroke-miterlimit="10" stroke-width="5"/><path d="M457.94,335.44c-1.3.54-3.56,2.27-4.67,3.12-1.19.91-2.87,4.06-2.87,7.92" fill="none" stroke="#000" stroke-linecap="round" stroke-miterlimit="10" stroke-width="5"/><path d="M464.93,337.36c-3.98,2.46-5.01,7.01-4.95,9.87" fill="none" stroke="#000" stroke-linecap="round" stroke-miterlimit="10" stroke-width="5"/><path d="M4.93,93.89c3.71,5.94,10.13,9.72,15.79,11.21,5.53,1.46,4.68,1.22,7,1.57,3.31.5,5.75.63,9.24.39,2.95-.2,5.37-.56,9.31-1.58,3.5-.9,6.64-1.89,8.89-2.79,3.44-1.37,6.34-2.88,11.21-4.82" fill="none" stroke="#000" stroke-linecap="round" stroke-miterlimit="10" stroke-width="3"/></g></g></svg>