<?xml version="1.0" encoding="UTF-8"?><svg id="b" xmlns="http://www.w3.org/2000/svg" viewBox="0 0 555.74 613.45"><g id="c"><path d="m473.27,3.49c-.8-1.83-2.49-3.39-4.48-3.48-3.01-.15-5.13,2.82-6.62,5.45-11.84,20.89-22.08,42.01-30.92,64.34l.05-.3c-4.03,8.47-5.29,11.52-6.29,20.8-1,9.27-.2,18.63.59,27.93.27,3.17.57,6.45,2.06,9.26,1.62,3.06,4.48,5.25,7.25,7.32,2.92,2.18,6.11,4.44,9.75,4.51.48,0,.98-.03,1.39-.28.74-.46.91-1.45,1-2.32,1.66-14.73,4.76-29.26,7.86-43.76,3.68-17.25,7.37-34.52,12.25-51.47,3.04-10.55,6.56-21.13,6.89-32.1.06-1.99,0-4.05-.79-5.87v-.03Z" fill="#8c5f1f" stroke-width="0"/><path d="m343.18,470.95c6.5,31.17,14.74,71.59,21.24,102.75,1.72,8.24,3.72,17,9.78,22.83,6.62,6.36,16.65,7.71,25.8,6.88,8.15-.74,16.68-3.28,21.92-9.56,5.24-6.29,3.68-11.07-2.1-16.86-4.65-4.65-14.51-.82-19.99-4.46-4.85-3.22-8.41-15.34-9.44-22.85-3.73-27.27-11.98-52.02-14.68-79.41-.79-8.07-1.25-16.53-5.41-23.49s-13.52-11.61-20.59-7.64c-5.45,3.07-7.51,9.88-8.08,16.11-.85,9.35.13,6.95,1.6,16.08" fill="#8c5f1f" stroke-width="0"/><path d="m554.9,206.26c-1.79-8.06-9.34-16.77-14.55-23.17-14.33-17.57-30.49-36.22-52.71-40.71-7.77-1.57-15.78-1.26-23.65-2.15s-16.02-3.24-21.47-8.99c-2.92-3.08-4.77-6.78-5.92-10.79,3.98-38.85-6.51-79.93-32.99-108.53-8-8.65-30.02-19.1-32.04-5.04l-.05.03c-3.69,24.03-.88,43.55,1.93,67.7,1.59,13.63,8.98,30.9,22.58,29.01-1.69,4.01-3.38,8.01-5.07,12.02,7.22-.6,13.9,4.7,17.13,11.19,3.22,6.49,3.69,13.95,3.94,21.19.7,20.56-1.79,60.51-11.79,78.48-12.75,22.91-49.59,24.92-111.23,47.88-33.58,12.51-63.4,23.16-94.93,40.19-30.32,16.38-42.7,27.61-69.92,48.73-9.98,7.74-38.36,35.08-43.5,41.89-7.19,9.52-18.32,34.41-22.3,46.33-3.16,9.48-9.07,41.96-8.32,57.56,1.07,22.45,5.61,37.93,12,52.43,2.75,6.23,17.04,22.66,22.25,27.05,7.26,6.12,23.85,9.85,32.95,12.57,4.54,1.36,25.16,6.45,35.7,7.9,9.55,1.31,18.03,1.76,27.58,1.44,1.4.06,2.4.1,2.76.1,35.39.79,84.78,2.04,120.16,2.84,5.15.12,10.53.16,15.14-2.91s8.08-10.34,6.39-16.83c-1.47-5.64-6.03-8.57-10.23-10.62-18.07-8.84-37.19-12.25-56.5-13.05.79-1.02,1.57-2.04,2.33-3.07,16.33-22.3,25.74-48.8,34.49-75.02,21.98-1.5,43.6-8.02,65.61-18.55,7.44,32.48,16.41,64.61,26.9,96.24,3.58,10.79,7.93,22.31,17.47,28.49,7.94,5.15,17.95,5.55,27.41,5.79,8.88.23,21.73.35,29.55-3.87,7.82-4.21,8.32-13.79,5.58-22.23-2.89-8.9-15.27-9.78-25.07-9.78-15.81,0-24.16-53.08-30.27-86.04-1.17-6.34-1.02-13.22,1.92-18.96,2.74-5.35,7.96-8.89,12.85-12.37,26.98-19.17,51.39-44.86,59.29-77.01,4.13-16.79,3.52-34.31,4.57-51.57.77-12.6,2.45-25.14,5.01-37.5.2-.27.36-.6.46-1.01,1.57-6.75,2.67-12.02,3.72-16.18.38-1.37.75-2.75,1.15-4.11.03-.09.05-.19.08-.28,3.38-10.59,7.88-11.72,26.62-15.3,14.45-2.76,15.07-6.7,17.21-9.43,2.14-2.73,4.14-5.4,3.7-11.69,6.84-6.14,8.01-11.72,6.11-20.28h-.03Z" fill="#b37a2b" stroke-width="0"/><path d="m96.94,578.06c-11.93-10.78-27.73-17.18-43.8-17.74-16.07-.57-32.28,4.71-44.94,14.62-5.1,3.99-10.03,10.42-7.52,16.39,1.62,3.86,5.8,5.92,9.75,7.31,21.29,7.48,44.62,5.02,67.04,2.46,4.44-.51,8.96-1.04,13.05-2.84,4.09-1.8,7.76-5.11,8.88-9.44s.3-7.98-2.43-10.72" fill="#dbad6b" stroke-width="0"/><path d="m424.55,146.57c-2.4-20.58-19.42-44.71-28.91-63.13-7.92-15.38-11.34-33.07-11.34-50.36,0-6.94.26-17.2,3.71-19.1,3.38-1.86,9.77,3.76,12.36,6.62,3.29,3.65,8.74,10.22,11.68,17.47,14.24,35.2,14.63,73.28,12.5,108.52" fill="#dbad6b" stroke-width="0"/><path d="m457.28,169.42c2.33-5.07,5.25-9.14,9.71-12.49s10.36-5.07,15.76-3.66c5.96,1.56,10.35,6.48,14.35,11.16,2.49,2.9,5.04,5.94,6.04,9.63s-.06,8.23-3.42,10.06c-2.31,1.26-5.11,1-7.74,1.21-4.15.34-8.11,1.95-12.25,2.38-8,.84-16.31-3.14-20.68-9.89-1.7-2.63-2.03-5.17-1.77-8.38" fill="#dbad6b" stroke-width="0"/><path d="m539.83,212.22c-5.86-1.67-12.69-.92-18.72-.08s-11.94,3.59-15.79,8.31c-4.07,4.99-5.49,12.02-3.68,18.2,1.49,5.09,5.15,15.29,5.15,15.29,0,0,2.94-1.59,10.11-2.57,6.64-.91,16.3-3.54,21.09-6.1,3.49-1.86,6.72-5.54,8.29-7.89,2.1-3.14,3.6-8.16,2.23-14.3-1.08-4.86-5.03-7.49-8.68-10.87" fill="#8c5f1f" stroke-width="0"/><path d="m466.35,170.39c.38-.41.37-.72.62-1.18.13-.24.3-.45.43-.69.12-.22.26-.44.39-.66.21-.36.49-.61.74-.93.4-.51.7-.76,1.24-1.09.62-.37,1.05-.97,1.63-1.37.63-.43,1.26-.69,1.96-.98.21-.09.4-.08.62-.14.31-.09.56-.33.89-.41.58-.13,1.18-.11,1.76-.26.32-.09.56-.06.9-.07s.63-.15.97-.17.71.03,1.06,0c.25,0,.42-.12.65-.17.5-.09,1.26-.06,1.75,0,.43.06.76.15,1.21.16s.57.2.96.36c.27.11.58.14.86.22.39.12.77.27,1.17.35.73.15,1.31.63,1.86,1.12.6.54,1.19,1.04,1.76,1.6.29.29.64.68.82,1.05.09.18.15.39.23.58.16.37.36.63.55.97s.34.71.54,1.06c.22.38.56.72.71,1.13.06.15.03.33.09.5.13.34.4.7.57,1.03.24.48.4,1.01.58,1.52.27.75.48,1.39,1.05,1.98.31.32.52.74.79,1.09.17.22.35.47.53.68.16.19.44.26.55.47-.25.1-.47-.08-.71-.12-.2-.04-.41,0-.61,0-.58,0-1.05,0-1.6.2s-1.09.39-1.66.54c-.67.17-1.43.42-2,.79-.3.2-.64.25-.95.42s-.58.38-.92.52c-.57.24-1.13.46-1.68.72-.32.15-.66.06-1.01.12-.24.05-.49.11-.73.16-.66.14-1.3.12-1.98.12h-3.52c-.55,0-.94-.21-1.48-.3s-.95-.08-1.46-.25c-1.07-.35-2.1-.7-3.13-1.2-1.21-.59-2.32-1.26-3.31-2.19-.62-.57-1.44-1.01-1.96-1.68-.44-.57-.83-1.28-1.11-1.94-.25-.58-.58-1.15-.85-1.71-.12-.25-.13-.58-.1-.86.03-.34.33-.6.32-.93" fill="#c47300" stroke-width="0"/><path d="m467.68,170.77c.56-.74.9-1.59,1.38-2.38.17-.29.35-.51.54-.77.59-.82-.71.44.56-.45.38-.27.73-.56,1.07-.87,0,0,.72-.6.43-.4.7-.46,1.71-.78,2.5-1.01,1.38-.41,2.91-.33,4.33-.45.89-.08,1.51-.25,2.42-.14s1.57.4,2.41.63,1.69.39,2.38.88c.83.58,1.63,1.36,2.33,2.08,1.04,1.07,1.52,2.67,2.32,3.93.83,1.31,1.26,2.88,1.87,4.32s1.8,2.64,2.83,3.8c.95-1.25,1.9-2.49,2.85-3.74-.71,0-1.4-.18-2.13-.11-.8.08-1.52.38-2.28.62-1.34.42-2.57.89-3.83,1.5-.65.31-1.27.65-1.94.94-.61.27-1.41.35-2.09.44-1.5.19-3.16.11-4.67.05-2.79-.11-5.97-1.28-8.21-2.96-1.06-.8-2.39-1.7-3.14-2.81-.49-.71-.8-1.55-1.19-2.32-.15-.29-.39-.62-.42-.95.04.46.21-.55.24-.68.21-.96-.23-1.55-1.25-1.25s-2.27,1.46-2.5,2.5c-.17.78-.54,1.37-.38,2.22.13.74.62,1.45.94,2.13.37.77.74,1.58,1.28,2.24.48.58,1.11.97,1.68,1.44,1.29,1.06,2.55,1.98,4.08,2.69s3.11,1.06,4.77,1.44,3.33.25,5.01.25,3.46-.2,5.01-.87c1.35-.58,2.64-1.41,4.03-1.89.75-.26,1.58-.56,2.35-.73.88-.2,1.61.02,2.47.04,1.21.02,3.96-2.48,2.85-3.74-1.2-1.36-2.25-2.56-2.88-4.31-.62-1.72-1.49-3.25-2.36-4.85-.43-.79-.76-1.69-1.32-2.4-.62-.79-1.46-1.45-2.21-2.1-.8-.69-1.55-1.1-2.56-1.4-.92-.27-1.85-.73-2.79-.85-1.85-.25-3.6-.19-5.43.08-.87.13-1.75.2-2.63.33-.99.15-1.74.48-2.61.81-1.94.72-3.47,2.02-5.07,3.29-.86.69-1.62,1.58-2.25,2.48-.34.48-.65,1.01-.94,1.52-.07.12-.81,1.41-.5,1.01-.44.58-1.14,1.92-.15,2.32s2.31-.92,2.79-1.56h.01Z" stroke-width="0"/><circle cx="481.04" cy="172.09" r="4.5" stroke="#000" stroke-miterlimit="10"/><path d="m518.64,324.45c-11.17-29.33-9.29-63.59,3.84-94.97" fill="none" stroke="#dbad6b" stroke-miterlimit="10"/><path d="m531.3,227.25c-1.99,10.45-1.31,21.4,1.95,31.53" fill="none" stroke="#dbad6b" stroke-miterlimit="10"/><path d="m522.49,221.99c-14.23,22.73-22.59,49.1-24.06,75.88" fill="none" stroke="#dbad6b" stroke-miterlimit="10"/><path d="m523.54,237.4c-2.23,12.66-2.97,24.93-.93,38.4" fill="none" stroke="#dbad6b" stroke-miterlimit="10"/><path d="m515.06,229.48c-17.57,21.65-28.54,48.58-31.1,76.34" fill="none" stroke="#dbad6b" stroke-miterlimit="10"/><path d="m529.14,236.63c-2.76,10.47-2.68,21.67.22,32.09" fill="none" stroke="#dbad6b" stroke-miterlimit="10"/><path d="m536.08,228.87c-.76,14.83,4.72,29.88,14.82,40.76" fill="none" stroke="#dbad6b" stroke-miterlimit="10"/><path d="m534.05,235.8c-.81,10,.31,20.15,3.26,29.74" fill="none" stroke="#dbad6b" stroke-miterlimit="10"/><path d="m539.62,232.02c.55,6.79,2.17,13.49,4.8,19.77" fill="none" stroke="#dbad6b" stroke-miterlimit="10"/><path d="m539.8,212.22c.35,5.31,2.93,10.43,7,13.86.42.35.91.71,1.46.65.48-.05.87-.41,1.21-.77,2.5-2.62,4.8-5.64,5.72-9.14.88-3.32.41-5.35.41-5.35,0,0-3.66,1.15-5.37,1.23-3.98.19-6.57.37-10.39-.49" fill="#4d330f" stroke-width="0"/></g></svg>