<?xml version="1.0" encoding="UTF-8"?><svg id="b" xmlns="http://www.w3.org/2000/svg" viewBox="0 0 58.69 106.66"><g id="c"><g id="d"><g id="e"><g id="f"><path d="m47.79,47.24c-.19.15-.53-.07-1.06-.23-.46-.14-1.26-.3-1.35-.14-.19.36,3.11,2.18,2.82,2.86-.05.13-.21.17-.29.19-.51.14-.92-.5-1.87-1.18-.66-.47-1.3-.76-1.36-.69-.1.13,1.39,1.81,1.89,2.58.06.1.19.3.11.45-.07.13-.26.15-.32.16-.74.09-2.53-2.51-2.8-2.36-.23.13.86,2.27.38,2.61-.1.07-.24.04-.29.02-.79-.21-.86-2.34-1.01-2.33-.14,0,.06,1.87-.44,2.02-.08.02-.16,0-.2-.02-.29-.13-.27-.61-.41-1.76-.25-2.07.02-2.45-.39-3.31-.41-.84-10.85-15.7-10.77-16.17.09-.56,1.54-.88,2.25-1.06.46.31,10.47,15.47,11.36,15.94.33.17.71.38,1.24.61,1.67.76,2.53.86,2.62,1.4.02.13,0,.32-.11.41Z" fill="#844a1e"/><path d="m2.95,98.47h0c.87.71,2.15.59,2.89-.26l15.52-18.18c.17-.2.3-.43.39-.68l5.86-17.17c.4-1.17-.3-2.42-1.5-2.69l-2.83-.65c-1.09-.25-2.19.42-2.47,1.5l-4.55,17.64c-.07.28-.2.54-.38.77l-13.24,16.81c-.7.89-.56,2.18.32,2.89v.02Z" fill="#844a1e"/><path d="m48.23,102.5h0c1.01-.36,1.58-1.44,1.29-2.47l-10.83-39.17c-.24-.89-1.05-1.5-1.97-1.5h-3.76c-1.49,0-2.48,1.54-1.86,2.89l8.64,18.9c.04.09.08.18.1.28l5.74,19.72c.33,1.13,1.53,1.75,2.64,1.36h0Z" fill="#844a1e"/><path d="m45.64,104.97c.2.55.79.84,1.34.68,2.57-.54,11.1-2.4,11.62-3.86.21-.6,0-.95,0-.95-.3-.52-1.2-.5-1.39-.49l-7.07-.8c-.17-.02-.34.06-.42.22-.27.5-.95,1.54-2.3,2.01-.96.33-1.83.23-2.39.09-.25-.06-.46.18-.38.42l.97,2.68h.02Z"/><path d="m30.48,64.02c.5-4.7,2.79-19.03,3.03-21.8-3.46,0-6.92,0-10.37,0-.65,4.84-2.37,15.08-3.08,19.99" fill="#1b1b5b"/><path d="m14.14,52.69c-.24-.04-.3-.45-.52-.95-.19-.44-.6-1.15-.78-1.11-.4.09.4,3.78-.3,4.01-.13.04-.27-.05-.33-.09-.44-.29-.23-1.02-.34-2.19-.08-.81-.28-1.48-.37-1.47-.16,0-.45,2.24-.7,3.12-.03.11-.1.34-.26.38-.14.03-.28-.09-.33-.14-.56-.5.23-3.56-.06-3.66-.25-.09-1.15,2.14-1.72,2-.12-.03-.18-.15-.21-.2-.36-.73,1.2-2.19,1.09-2.3-.1-.1-1.37,1.28-1.81,1-.07-.05-.1-.13-.11-.17-.09-.3.28-.61,1.05-1.47,1.39-1.55,1.86-1.6,2.23-2.47.37-.86-.42-12.68-.03-12.93.12-.07,7.98-9.29,8.26-9.18.53.2,4.53.29,5.12.67.37.24-10.13,9.96-9.96,10.08.07.55-.79,11.67-.56,12.66.09.36.18.78.35,1.34.53,1.76,1.01,2.47.67,2.89-.08.1-.24.21-.38.19h0Z" fill="#844a1e"/><path d="m37.14,8.33c-.04-.08-.07-.16-.11-.23-.14-3.43-2.36-6.15-5.08-6.15s-5.09,2.91-5.09,6.5c0,1.18.25,2.28.68,3.23h-.97v5.83h5.39v-2.56c2.29,0,4.22-1.92,4.87-4.57.65.08.84-.1.9-.18s.15-.28-.58-1.88h0Z" fill="#844a1e"/><rect x="20.99" y="15.69" width="14.46" height="32.77" rx="7.23" ry="7.23" fill="#eaeaea"/><path d="m21.13,41.92h14.4l5.25,18.98-11.87,4.24c-.53-1.74-1.72-5.94-2.57-7.55l-3.44-5.23c-1.25-2.37-1.87-5.01-1.82-7.69.03-1.49.06-2.8.06-2.75h-.01Z" fill="#339"/><path d="m.24,97.27c-.36.45-.31,1.11.13,1.5,1.8,1.9,7.86,8.2,9.38,7.88.62-.13.81-.49.81-.49.29-.53-.2-1.28-.31-1.44l-3.02-6.44c-.07-.16-.23-.26-.4-.24-.57.04-1.81,0-2.92-.91-.79-.64-1.16-1.43-1.33-1.99-.08-.25-.4-.3-.56-.1,0,0-1.78,2.23-1.78,2.23Z"/><polygon points="20.14 31.23 25.75 24.35 22.52 18.49 15.7 26.9 20.14 31.23" fill="#eaeaea"/><path d="m31.02,8.38c.3-.47.67-1.21.59-2.08-.07-.8-.45-1.11-.29-1.4.37-.68,2.87,1.06,4.74.16,1.27-.61,2-2.29,1.58-2.98-.29-.48-.93-.15-2.47-.59-1.54-.44-1.6-.96-3.04-1.31-1.17-.28-2.14-.16-2.67-.12-.35.03-1.97.17-3.28,1.09-2.55,1.79-3.38,6.13-1.93,7.8.6.69,1.6.93,1.73,1.87.11.75-.46,1.23-.17,1.59.32.41,1.34.26,2.01-.08,1.11-.56,1.47-1.76,1.56-2.09-1.09-.35-1.65-1.37-1.42-2.18.15-.55.68-1.04,1.31-1.1.77-.07,1.55.5,1.75,1.4v.02Z" fill="#110905"/><path d="m34.45,7.11h0c-.11.04-.17.16-.19.28,0,.05-.02.11-.02.16v.12c0,.06,0,.11.02.16,0,.03,0,.06.02.08,0,.03.02.06.04.09.02.04.05.07.09.1.03.02.07.04.1.05h.11s.09,0,.13-.03c.03-.01.05-.03.07-.05s.03-.04.05-.06c0-.02.02-.04.03-.07.02-.05.03-.1.03-.16v-.07c0-.13-.02-.26-.06-.39-.03-.11-.09-.24-.21-.26-.03-.02-.07-.02-.11-.02s-.08,0-.12.03h0l.02.04Z"/><path d="m34.51,11.51c-.16.08-.1.56.03.89.19.51.57.81.78.95.15-.17.3-.36.46-.58.14-.2.26-.39.35-.57-.19-.02-.48-.08-.79-.23-.5-.24-.69-.54-.83-.46Z" fill="#fff"/><circle cx="33.13" cy="10.11" r="1.11" fill="#e5618a" isolation="isolate" opacity=".48"/><polygon points="26.68 24.53 21.02 30.19 20.99 30.94 26.68 24.53 26.68 24.53" fill="#bcbbbb"/><polygon points="35.46 29.17 28.66 41.92 28.57 34.29 35.05 20.54 35.21 21.05 35.35 21.66 35.44 22.2 35.46 25.67 35.46 29.17" fill="#f33"/><polygon points="28.66 41.92 28.48 41.92 28.57 25.64 28.57 25.64 28.66 41.92" fill="#bcbbbb"/></g></g></g></g></svg>