<?xml version="1.0" encoding="UTF-8"?><svg id="b" xmlns="http://www.w3.org/2000/svg" viewBox="0 0 22.28 41.08"><g id="c"><g id="d"><path d="m3.32,18.9l.54-4.71.04-.12.08-.12,2.41-3.7,1.51,1.23-3.18,3.05.12-.23-.54,4.71-.97-.12Z" fill="#684135"/><path d="m16.51,18.97c-1.09-1.2-2.09-2.51-3.1-3.78-.39-.93-.74-1.81-1.09-2.74-.35-.89-.66-1.77-.97-2.66l1.44-.54c.74,1.74,1.4,3.51,2.02,5.29l-.08-.19c.89,1.35,1.75,2.7,2.52,4.09-.04.04-.74.54-.74.54Z" fill="#684135"/><path d="m19.22,19.63c-.08.08-.19-.04-.43-.08-.19-.04-.5-.12-.5-.04-.08.15,1.2.85,1.09,1.12-.04.04-.08.08-.12.08-.19.04-.35-.19-.74-.46-.27-.19-.5-.31-.54-.27-.04.04.54.69.74,1,.04.04.08.12.04.15-.04.04-.12.08-.12.08-.27.04-.97-.96-1.09-.93-.08.04.35.89.16,1-.04.04-.08,0-.12,0-.31-.08-.35-.89-.39-.89s.04.73-.16.77h-.08c-.12-.04-.12-.23-.16-.69-.12-.81,0-.96-.16-1.27-.16-.31-.39-.39-.35-.58.04-.23.39-.35.66-.39.19.12.47.31.78.46.12.08.27.15.47.23.66.31.97.35,1.01.54.04.04.04.12,0,.15Z" fill="#684135"/><path d="m14.92,12.88l-1.59-4.63-2.6-.12,2.02,5.79,2.17-1.04Z" fill="#5c6042"/><path d="m3.54,36.34l-1.23-1-1.37,1.68,1.23,1,1.37-1.68Z" fill="#684135"/><path d="m18.08,37.02l-1.5.52.72,2.04,1.5-.52-.72-2.04Z" fill="#684135"/><path d="m17.25,40.58c.08.19.31.31.5.27,1.01-.19,4.31-.93,4.5-1.5.08-.23,0-.39,0-.39-.12-.19-.47-.19-.54-.19l-2.75-.31c-.08,0-.12.04-.16.08-.12.19-.39.58-.89.77-.39.12-.7.08-.93.04-.08-.04-.19.08-.16.15l.43,1.08Z"/><path d="m9.02,16.16h4.03c-.08,1.08-.23,2.58-.43,4.4-.66,6.13-1.01,7.14-1.36,7.99-.74,1.66-1.12,3.09-2.91,5.13-1.67,1.93-2.33,4.21-3.49,5.17-.78-.62-2.99-2.47-3.8-3.09,2.09-2.66,4.19-5.32,6.28-7.99.31-1.97.62-3.97.89-5.98.27-1.89.54-3.78.78-5.63Z" fill="#29485d"/><path d="m4.68,21.02c-.08,0-.12-.15-.19-.39-.08-.15-.23-.42-.31-.42-.16.04.16,1.47-.12,1.54-.04,0-.12,0-.12-.04-.16-.12-.08-.39-.12-.85-.04-.31-.12-.58-.16-.58-.08,0-.19.85-.27,1.2,0,.04-.04.12-.12.15-.04,0-.12-.04-.12-.04-.23-.19.08-1.39-.04-1.43-.08-.04-.47.81-.66.77-.04,0-.08-.08-.08-.08-.16-.27.47-.85.43-.89-.04-.04-.54.5-.7.39-.04,0-.04-.04-.04-.08-.04-.12.12-.23.43-.58.54-.58.74-.62.85-.96.16-.35.04-.54.19-.66.19-.12.5.08.74.23.04.19.08.54.16.89.04.15.08.31.12.5.19.69.39.96.27,1.12-.04.15-.12.19-.16.19Z" fill="#684135"/><path d="m14.41,3.16s-.04-.08-.04-.08c-.04-1.31-.93-2.39-1.98-2.39s-1.98,1.12-1.98,2.51c0,.46.08.89.27,1.23h-.39v2.24h2.09v-1c.89,0,1.63-.73,1.9-1.77.27.04.31-.04.35-.08,0,.04.04-.04-.23-.66Z" fill="#684135"/><path d="m8.17,16.12h5.59l5.35,21.68-4.27,1.77-.89-6.33-.74-4.4c-.19-.66-.47-1.31-.81-1.93l-3.57-6.75c-.47-.93-.74-1.93-.7-2.97.04-.58.04-1.08.04-1.08Z" fill="#295269"/><path d="m.1,37.45c-.16.19-.12.42.04.58.7.73,3.06,3.16,3.65,3.05.23-.04.31-.19.31-.19.12-.19-.08-.5-.12-.54l-1.16-2.47c-.04-.08-.08-.12-.16-.08-.23,0-.7,0-1.12-.35-.31-.23-.47-.54-.5-.77-.04-.08-.16-.12-.23-.04l-.7.81Z"/><path d="m6.89,13.11l3.1-3.78-1.28-2.24-3.88,4.75,2.06,1.27Z" fill="#707752"/><path d="m13.37,2.69s-.08.08-.08.12v.27l.04.04h.19v-.19s0-.12-.04-.15c0-.04-.04-.08-.08-.12h-.04s0,.04,0,.04Z"/><path d="m12.36,1.46c.04-.15,1.36.23,1.55-.04.08-.12-.08-.42-.23-.54-.12-.12-.19-.08-.47-.27-.27-.19-.27-.27-.47-.31-.19-.08-.23,0-.43-.08-.23-.08-.19-.15-.39-.19-.31-.08-.58,0-.78.04-.23.08-.23.12-.5.19-.16.04-.23.04-.31.12-.12,0-.12.04-.35.27q-.19.19-.23.27c-.08.12-.04.15-.12.31-.12.27-.19.23-.31.46-.04.12,0,.15-.04.5-.04.31-.08.31-.08.46,0,.12,0,.35.12.58.08.12.12.15.19.23t.08.08c.12.12.16.23.23.42.12.19.16.19.19.35.04.08,0,.12.04.27.04.23.04.35.12.42.08.08.23.04.5,0,.23-.04.31-.08.35-.12.08-.08.12-.15.16-.19.08-.12.04-.15.12-.27.04-.08.08-.08.12-.12.08-.08.12-.15.16-.35-.39-.04-.66-.35-.66-.62,0-.19.12-.42.35-.5.27-.12.58.04.74.35.27-.27.31-.46.31-.58s-.04-.27,0-.42c0-.04.04-.08,0-.12,0-.12-.12-.12-.12-.19s.08-.08.08-.15c.16-.19.08-.23.08-.27Z" fill="#2d2821"/><path d="m13.4,4.39c-.08.04-.04.23,0,.35.08.19.23.31.31.39.04-.08.12-.15.19-.23.04-.08.12-.15.12-.23-.08,0-.19-.04-.31-.08-.19-.12-.27-.23-.31-.19Z" fill="#fff"/><path d="m10.38,8.71s-.04.12-.08.15c-.04.04-.04.12-.08.15-.04.08-.12.19-.16.27-.04.12-.12.19-.19.31-.08.08-.12.19-.19.27-.04.08-.12.15-.16.23-.08.08-.12.15-.19.23-.08.08-.16.15-.23.23-.04.04-.08.08-.12.12-.04.04-.08.08-.12.12-.08.08-.16.15-.23.23-.04.04-.08.08-.12.12-.04.04-.08.08-.12.08-.04.04-.08.08-.12.12-.04.04-.08.08-.12.12-.04.04-.04.08,0,.12.04.04.08.04.12,0,.04-.04.08-.08.12-.12.04-.04.08-.08.12-.12.04-.04.08-.08.12-.08.04-.04.08-.08.12-.12.08-.08.16-.15.23-.19.04-.04.08-.08.12-.12.04-.04.08-.08.12-.12.08-.08.16-.15.23-.19.04-.04.08-.08.12-.12.04-.04.08-.08.12-.12.16-.15.27-.35.39-.54.08-.15.16-.27.27-.42.04-.08.08-.15.12-.23.04-.08.08-.15.12-.23,0-.04.04-.08,0-.08,0-.04-.04-.08-.04-.08-.04-.04-.12-.04-.16,0Z" fill="#a04a61"/><path d="m17.48,36.14s.04-.08.04-.15,0-.15-.04-.27c-.04-.23-.12-.46-.16-.69-.08-.31-.12-.62-.19-.93s-.12-.62-.19-.93c-.12-.58-.27-1.2-.39-1.81-.08-.27-.12-.5-.19-.77s-.16-.54-.19-.81c-.08-.27-.12-.54-.19-.77-.08-.31-.16-.62-.27-.89-.04-.12-.08-.15-.12-.08v.15c0,.08,0,.12.04.19.08.27.16.58.19.85.08.31.16.58.19.89.08.31.16.62.23.89.04.15.08.27.12.42s.08.31.12.46c.12.42.19.89.27,1.31.12.46.19.93.31,1.39.04.19.08.42.12.66,0,.08.04.19.08.27.04.12.04.23.08.35.04.15.08.23.12.23,0,.04.04.04.04.04Z" fill="#29485d"/><path d="m15.03,20.6l-1.24-5.29h-.04v-6.52c0-1.54-1.28-2.78-2.79-2.78s-2.79,1.27-2.79,2.78v6.6l-.08,5.86,6.94-.66Z" fill="#707752"/></g></g></svg>