<?xml version="1.0" encoding="UTF-8"?><svg id="b" xmlns="http://www.w3.org/2000/svg" viewBox="0 0 129.92 245.26"><g id="c"><g id="d"><g id="e"><path d="M111.85,117.32c-.43,.34-1.2-.16-2.39-.53-1.04-.32-2.85-.69-3.05-.32-.43,.83,7.02,5.01,6.37,6.58-.11,.3-.47,.39-.65,.44-1.15,.32-2.08-1.15-4.22-2.71-1.49-1.08-2.94-1.75-3.07-1.59-.23,.3,3.14,4.16,4.27,5.93,.14,.23,.43,.69,.25,1.03-.16,.3-.59,.34-.72,.37-1.67,.21-5.71-5.77-6.32-5.43-.52,.3,1.94,5.22,.86,6-.23,.16-.54,.09-.65,.05-1.78-.48-1.94-5.38-2.28-5.36-.32,.02,.14,4.3-.99,4.64-.18,.05-.36,0-.45-.05-.65-.3-.61-1.4-.93-4.05-.56-4.76,.05-5.63-.88-7.61-.93-1.93-2.26-2.3-2.08-3.36,.2-1.29,2.28-2,3.86-2.41,1.04,.71,2.62,1.72,4.63,2.81,.74,.39,1.6,.87,2.8,1.4,3.77,1.75,5.71,1.98,5.92,3.22,.05,.3,0,.74-.25,.94Z" fill="#e0ab78"/><path d="M93.49,116.63l11.13-8.99-24.79-28.95-9.24-27.48-15.08-.8,11.74,34.61,26.24,31.62Z" fill="#a04a61"/><path d="M20.68,216.82l-7.13-5.9-7.98,9.99,7.13,5.9,7.98-9.99Z" fill="#e0ab78"/><path d="M105.28,221.04l-8.67,3.1,4.18,12.15,8.67-3.1-4.18-12.15Z" fill="#e0ab78"/><path d="M100.44,242.11c.45,1.26,1.78,1.93,3.03,1.56,5.8-1.24,25.07-5.52,26.24-8.88,.47-1.38,0-2.18,0-2.18-.68-1.2-2.71-1.15-3.14-1.13l-15.97-1.84c-.38-.05-.77,.14-.95,.51-.61,1.15-2.15,3.54-5.19,4.62-2.17,.76-4.13,.53-5.4,.21-.56-.14-1.04,.41-.86,.97l2.19,6.16h.05Z"/><path d="M52.57,96.65c7.81,0,15.63,0,23.42,.02-.56,6.37-1.38,15.38-2.53,26.19-3.84,36.56-5.83,42.59-8.02,47.58-4.34,9.93-9.62,16.17-19.94,28.31-9.73,11.45-18.95,19.91-25.65,25.57-4.58-3.66-9.15-7.29-13.73-10.95,12.19-15.87,24.39-31.71,36.61-47.58,1.78-11.73,3.52-23.57,5.22-35.53,1.6-11.29,3.14-22.51,4.61-33.62h.02Z" fill="#29485d"/><path d="M27.19,125.6c-.54-.09-.68-1.03-1.17-2.18-.43-1.01-1.36-2.64-1.76-2.55-.9,.21,.9,8.69-.68,9.22-.29,.09-.61-.12-.75-.21-.99-.67-.52-2.35-.77-5.04-.18-1.86-.63-3.4-.84-3.38-.36,.02-1.02,5.15-1.58,7.17-.07,.25-.23,.78-.59,.87-.32,.07-.63-.21-.75-.32-1.26-1.15,.52-8.19-.14-8.42-.56-.21-2.6,4.92-3.88,4.6-.27-.07-.41-.35-.47-.46-.81-1.68,2.71-5.04,2.46-5.29-.23-.23-3.09,2.94-4.09,2.3-.16-.12-.23-.3-.25-.39-.2-.69,.63-1.4,2.37-3.38,3.14-3.56,4.2-3.68,5.04-5.68,.84-1.98,.23-3.24,1.13-3.82,1.08-.69,2.98,.41,4.31,1.38,.16,1.26,.43,3.13,.95,5.4,.2,.83,.41,1.79,.79,3.08,1.2,4.05,2.28,5.68,1.51,6.65-.18,.23-.54,.48-.86,.44Z" fill="#e0ab78"/><path d="M83.87,19.18c-.09-.18-.16-.37-.25-.53-.32-7.89-5.33-14.14-11.47-14.14s-11.49,6.69-11.49,14.95c0,2.71,.56,5.24,1.54,7.43h-2.19v13.41h12.17v-5.89c5.17,0,9.53-4.41,11-10.51,1.47,.18,1.9-.23,2.03-.41,.14-.18,.34-.64-1.31-4.32l-.02,.02Z" fill="#e0ab78"/><path d="M80.05,52.7c0-9.18-7.31-16.63-16.33-16.63s-16.33,7.44-16.33,16.63v42.1c0,9.18,7.31,16.63,16.33,16.63s16.33-7.44,16.33-16.63V52.7Z" fill="#a05660"/><path d="M47.53,96.48h32.52l31.16,129.14-16.39,6.02-17.82-59.37c-1.2-4-2.78-7.89-4.7-11.59l-20.82-40.19c-2.82-5.45-4.22-11.52-4.11-17.68,.07-3.43,.14-6.44,.14-6.32h.02Z" fill="#295269"/><path d="M.54,223.67c-.81,1.03-.7,2.55,.29,3.45,4.06,4.37,17.75,18.86,21.18,18.12,1.4-.3,1.83-1.13,1.83-1.13,.65-1.22-.45-2.94-.7-3.31l-6.82-14.81c-.16-.37-.52-.6-.9-.55-1.29,.09-4.09,0-6.59-2.09-1.78-1.47-2.62-3.29-3-4.58-.18-.57-.9-.69-1.26-.23l-4.02,5.13Z"/><path d="M15.69,110.35l13.37,4.87,11.04-36.72,18.04-22.51-7.29-13.45-22.67,28.44-12.49,39.37Z" fill="#a05660"/><path d="M70.05,19.27c.68-1.08,1.51-2.78,1.33-4.78-.16-1.84-1.02-2.55-.65-3.22,.84-1.56,6.48,2.44,10.7,.37,2.87-1.4,4.52-5.27,3.57-6.85-.65-1.1-2.1-.35-5.58-1.36-3.48-1.01-3.61-2.21-6.86-3.01-2.64-.64-4.83-.37-6.03-.28-.79,.07-4.45,.39-7.41,2.51-5.76,4.12-7.63,14.1-4.36,17.94,1.36,1.59,3.61,2.14,3.91,4.3,.25,1.72-1.04,2.83-.38,3.66,.72,.94,3.03,.6,4.54-.18,2.51-1.29,3.32-4.05,3.52-4.81-2.46-.8-3.73-3.15-3.21-5.01,.34-1.26,1.54-2.39,2.96-2.53,1.74-.16,3.5,1.15,3.95,3.22v.05Z" fill="#7b493f"/><path d="M77.79,16.35c-.25,.09-.38,.37-.43,.64-.02,.12-.05,.25-.05,.37v.28c0,.14,.02,.25,.05,.37,0,.07,.02,.14,.05,.18,.02,.07,.05,.14,.09,.21,.05,.09,.11,.16,.2,.23,.07,.05,.16,.09,.23,.11h.25c.11,0,.2,0,.29-.07,.07-.02,.11-.07,.16-.11s.07-.09,.11-.14c.02-.05,.05-.09,.07-.16,.05-.12,.07-.23,.07-.37v-.16c0-.3-.05-.6-.14-.9-.07-.25-.2-.55-.47-.6-.07-.05-.16-.05-.25-.05s-.18,0-.27,.07l.05,.09Z"/><path d="M77.93,26.47c-.36,.18-.23,1.29,.07,2.05,.43,1.17,1.29,1.86,1.76,2.18,.34-.39,.68-.83,1.04-1.33,.32-.46,.59-.9,.79-1.31-.43-.05-1.08-.18-1.78-.53-1.13-.55-1.56-1.24-1.87-1.06Z" fill="#fff"/><path d="M60.38,52.31c-.18,.28-.32,.57-.45,.87-.16,.3-.32,.62-.47,.92-.29,.57-.61,1.13-.93,1.72-.34,.6-.65,1.2-1.02,1.79-.34,.55-.65,1.1-1.02,1.63-.32,.48-.63,.92-.99,1.38-.38,.46-.77,.92-1.22,1.31-.47,.41-.97,.85-1.42,1.29-.25,.23-.47,.46-.72,.67-.23,.23-.45,.44-.65,.67-.43,.44-.86,.85-1.29,1.29-.23,.21-.41,.44-.65,.64-.18,.21-.41,.39-.59,.57-.25,.23-.47,.46-.68,.69-.25,.25-.45,.53-.68,.76-.2,.18-.23,.53-.05,.74,.18,.21,.5,.23,.72,.05,.27-.21,.5-.44,.72-.67,.23-.21,.43-.44,.63-.62,.23-.18,.41-.37,.63-.57,.2-.18,.43-.44,.65-.64,.41-.44,.86-.83,1.31-1.26,.23-.23,.45-.44,.7-.67,.25-.23,.47-.46,.72-.67,.47-.41,.97-.8,1.47-1.2,.23-.21,.47-.41,.68-.64,.25-.25,.47-.51,.7-.78,.86-.99,1.58-2.12,2.24-3.24,.54-.85,.97-1.72,1.47-2.6,.25-.46,.5-.9,.75-1.38,.23-.44,.43-.85,.68-1.29,.09-.16,.14-.34,.09-.53-.05-.16-.16-.35-.32-.44-.29-.21-.77-.14-.97,.21h-.05Z" fill="#a04a61"/><path d="M101.89,215.73c.11-.18,.23-.44,.23-.92,.02-.48-.05-.94-.16-1.49-.32-1.38-.61-2.78-.9-4.18-.36-1.86-.7-3.73-1.08-5.59-.38-1.86-.75-3.63-1.13-5.43-.75-3.56-1.49-7.2-2.3-10.76-.36-1.63-.72-3.08-1.15-4.69-.43-1.61-.79-3.15-1.17-4.78-.38-1.54-.75-3.15-1.15-4.69-.47-1.84-.97-3.68-1.51-5.36-.23-.69-.54-.87-.68-.46-.07,.25-.09,.57-.09,.9,0,.39,.11,.71,.2,1.08,.47,1.68,.86,3.47,1.24,5.17,.41,1.77,.81,3.54,1.2,5.33,.43,1.86,.84,3.63,1.29,5.4,.2,.85,.38,1.61,.59,2.46,.2,.92,.41,1.93,.63,2.85,.56,2.62,1.11,5.27,1.67,7.89,.59,2.78,1.17,5.56,1.72,8.37,.23,1.24,.47,2.55,.72,3.89,.11,.55,.23,1.08,.34,1.63,.16,.69,.29,1.31,.43,2.02,.18,.85,.52,1.36,.79,1.31,.05,0,.09,0,.14-.09l.14,.14h.02Z" fill="#29485d"/></g></g></g></svg>