<?xml version="1.0" encoding="UTF-8"?><svg id="b" xmlns="http://www.w3.org/2000/svg" xmlns:xlink="http://www.w3.org/1999/xlink" viewBox="0 0 63.79 68.11"><defs><mask id="e" x="35.19" y="0" width="20.12" height="19.82" maskUnits="userSpaceOnUse"><g id="f"><path d="m36.01.63c.36,1.68,1.16,3.31,2.64,4.19,1.02.62,2.12.58,3.31.85,1.32.29,2.58,1.31,3.04,2.62.41,1.17.28,2.14,1.12,2.95,1.23,1.27,3.07.77,4.66,1.5,2.67,1.04,4.08,3.97,4.54,6.59l-2.84.42c-.2-1.82-.69-3.63-2.18-4.72-.58-.39-1.12-.58-1.87-.76-.56-.13-1.22-.26-1.89-.55-1.02-.46-1.85-1.26-2.32-2.26-.42-.82-.4-2.01-.58-2.73-.24-.94-1.04-1.69-1.98-2-.5-.18-1.09-.28-1.69-.45-1.22-.31-2.36-1.11-3.05-2.17-.71-1.04-1.05-2.25-1.2-3.43l.31-.05h0Z" fill="#fff"/></g></mask><mask id="g" x="0" y="31.94" width="10.7" height="13.64" maskUnits="userSpaceOnUse"><g id="h"><path d="m9.96,31.94s-3.89.91-4.56,1.97c-.67,1.05-.95,6.81-2.78,7.6-1.83.79-1.83,1.46-1.83,1.46l2.09-.85.96,1.02,1.21-2.1v1.08l.75-1.84,1.23-.03,1.9-3.68,1.02-4.62h0Z" fill="#fff"/></g></mask><mask id="i" x="7.48" y="18.69" width="47.39" height="33.88" maskUnits="userSpaceOnUse"><g id="j"><path d="m16.09,42.41s5.38,3.22,7.31,2.46c1.93-.76,6.31-.24,7.49.12,1.17.35,9.41.41,10.06-1.29.64-1.7,3.28-2.34,5.15-4.12,1.87-1.78,7.66-12.49,7.66-12.49l1.11-3.98-1.58-4.27s-1.93-.47-3.04.23c-1.11.7-4.5,4.44-5.9,6.49-1.4,2.05-3.04,3.63-4.62,3.33-1.58-.29-5.15-2.05-8.33-1.52-3.19.53-2.95,2.4-9.21,2.4s-9.01-.53-10.82.35c-1.81.88-4.12,3.17-3.86,6.37.26,3.2,8.6,5.9,8.6,5.9h0Z" fill="#fff"/></g></mask><mask id="k" x="51" y="18.83" width="12.78" height="9.11" maskUnits="userSpaceOnUse"><g id="l"><path d="m51,24.51s.26,2.96,2.9,3c2.63.04,7.13.59,8.05.37.92-.22.29-1.07.29-1.07,0,0,1.56.53,1.56-.88s-2.32-2.65-3.38-3.62c-1.05-.96-2.85-1.56-3.42-1.95-.57-.4-1.14-1.47-2.21-1.4-1.07.06-2.62-.15-2.69-.13-.06.02-1.09,5.68-1.09,5.68h0Z" fill="#fff"/></g></mask></defs><g id="c"><g id="d"><path d="m13.92,37.73s-.05.19.31,3.11c.36,2.93,2.31,3.07,2.67,4.65.36,1.58,2.09,4.63,2.16,6.99.07,2.36.91,8.45.7,9.84-.22,1.39-.29,1.98-.29,1.98,0,0,.88,1.66,1.15,1.69.28.03,2.3-1.04,2.3-1.04,0,0-1.64-7.64-1.63-9.83.01-2.19,1.02-2.93.59-5.13-.44-2.19-1.2-6.02-.83-7.48.38-1.46,2.13-2.97,1.64-4.76-.49-1.78-1.94-3.9-1.94-3.9" fill="#bf9b6a"/><path d="m20.62,66s.71-1.37,1.24-1.64c.53-.26.57-.2.91-.18.34.02,1.71,1.82,1.71,1.82,0,0-1.04.82-3.87,0Z" fill="#8c7c6c"/><path d="m19.59,63.47s-.34,1.11-.27,1.6c.07.49.12.59.39.47.27-.12-.12-2.07-.12-2.07Z" fill="#8c7c6c"/><path d="m12.07,64.22s-.34,1.11-.27,1.6c.07.49.12.59.39.47.27-.12-.12-2.07-.12-2.07Z" fill="#8c7c6c"/><path d="m52.03,28.7s-.58,4.47-.5,5.93c.09,1.46-.7-.58-.7-.58,0,0,.2,5.58-.44,5.43-.64-.14-.32-1.26-.32-1.26,0,0-1.31,4.88-1.84,4.82-.53-.06,0-1.43,0-1.43,0,0-2.4,3.25-2.95,3.07-.55-.18.67-1.31.67-1.31,0,0-2.08,1.42-2.49,1.32-.41-.09.53-1.21.53-1.21,0,0-1.75,1.54-2.1,1.21s.61-1.3.61-1.3c0,0-2.97.38-2.97.2s6.9-9.21,6.9-9.21l5.61-5.7h0Z" fill="#807362"/><path d="m43.2,3.38c.88,1.63,1.79,3.29,2.38,5.07.07.24.13.51.16.77.04.24.14.4.36.63.49.49,1.12.86,1.6,1.5.27.35.46.79.54,1.23,0,.03.02.12.03.14.27.91,1.42,1.45,2.34,1.79,1.3.51,2.12.28,3.27,1.11,1.38.98,1.66,2.87,1.3,4.4l-3.55-.99c.1-.24.18-.54.22-.8.04-.1-.03-.2-.12-.27l-.02-.02s0,0,0,0c0,0,.03,0,.04,0-.79-.23-1.53-.59-2.28-.99-1.07-.6-2.17-1.43-2.79-2.59-.25-.47-.41-1.05-.41-1.61,0-.09-.01-.17-.04-.26-.33-.83-1.29-1.42-1.62-2.34-.09-.23-.15-.5-.15-.74,0-.1,0-.26,0-.36,0-.11-.02-.23-.03-.34-.28-1.78-.88-3.5-1.47-5.22l.23-.1h0Z" fill="#95836d"/><path d="m36.01.63c.36,1.68,1.16,3.31,2.64,4.19,1.02.62,2.12.58,3.31.85,1.32.29,2.58,1.31,3.04,2.62.41,1.17.28,2.14,1.12,2.95,1.23,1.27,3.07.77,4.66,1.5,2.67,1.04,4.08,3.97,4.54,6.59l-2.84.42c-.2-1.82-.69-3.63-2.18-4.72-.58-.39-1.12-.58-1.87-.76-.56-.13-1.22-.26-1.89-.55-1.02-.46-1.85-1.26-2.32-2.26-.42-.82-.4-2.01-.58-2.73-.24-.94-1.04-1.69-1.98-2-.5-.18-1.09-.28-1.69-.45-1.22-.31-2.36-1.11-3.05-2.17-.71-1.04-1.05-2.25-1.2-3.43l.31-.05h0Z" fill="#c0a87c"/><g fill="none" mask="url(#e)"><path d="m54.91,19.61s-.76-2.46-2.25-3.36c-1.49-.91-3.77-1.29-4.59-1.23l-.82.06s4.74,1.61,5.06,2.84c.32,1.22.56,1.9.56,1.9l2.05-.2h0Z" fill="#95836d"/><path d="m42.1,7.65s1.37.2,1.58,1.9c.2,1.7.34,2.78,3.2,3.39,2.86.61,5.77.71,5.77.71,0,0-.09-3.81-2.24-2.75-3.91,1.95-6.05-2.96-8.31-3.25Z" fill="#95836d"/><path d="m35.71,0s-1.4,3.32.42,4.63c1.81,1.32,5.35.85,5.35.85l-5.77-5.48Z" fill="#95836d"/></g><path d="m54.86,19.82s1.51-1.23,2.67-1.23,1.65.77,1.65,1.23-2.04,2.13-2.04,2.13" fill="#cfac75"/><path d="m55.57,20.27s1.86-1.2,2.81-1.15c.94.04.7.99.4,1.15-.31.16-1.97,1.06-1.97,1.06l-1.23-1.06Z" fill="#e3d3b2"/><path d="m9.96,31.94s-3.89.91-4.56,1.97c-.67,1.05-.95,6.81-2.78,7.6-1.83.79-1.83,1.46-1.83,1.46l2.09-.85.96,1.02,1.21-2.1v1.08l.75-1.84,1.23-.03,1.9-3.68,1.02-4.62h0Z" fill="#cfad77"/><g fill="none" mask="url(#g)"><path d="m0,41.59s3.11.75,3.64-.04c.53-.79,1.3-2.15,1.3-2.15,0,0,.32.79.43.57.11-.22.24-3.55.68-3.25.44.31,1.84,0,1.84,0l2.81.22s-4.47,8.23-4.91,8.24c-.44,0-5,.4-5,.4L0,41.59h0Z" fill="#f7f7f5"/></g><path d="m33.49,37.92s-.05.19.31,3.11c.36,2.93,2.31,3.07,2.67,4.65.36,1.58,2.09,4.63,2.16,6.99.07,2.36.91,8.45.7,9.84-.22,1.39-.29,1.98-.29,1.98,0,0,.88,1.66,1.15,1.69.28.03,2.3-1.04,2.3-1.04,0,0-1.64-7.64-1.63-9.83,0-2.19,1.02-2.93.59-5.13-.44-2.19-1.2-6.02-.83-7.48.38-1.46,2.13-2.97,1.64-4.76-.49-1.78-1.94-3.9-1.94-3.9" fill="#bf9b6a"/><path d="m40.05,66.22s.86-1.4,1.39-1.67c.53-.26.57-.2.91-.18.34.02,1.71,1.82,1.71,1.82,0,0-1.19.85-4.01.02h0Z" fill="#8c7c6c"/><path d="m39.15,63.66s-.34,1.11-.27,1.6c.07.49.12.59.39.47.27-.12-.12-2.07-.12-2.07Z" fill="#8c7c6c"/><path d="m16.09,42.41s5.38,3.22,7.31,2.46c1.93-.76,6.31-.24,7.49.12,1.17.35,9.41.41,10.06-1.29.64-1.7,3.28-2.34,5.15-4.12,1.87-1.78,7.66-12.49,7.66-12.49l1.11-3.98-1.58-4.27s-1.93-.47-3.04.23c-1.11.7-4.5,4.44-5.9,6.49-1.4,2.05-3.04,3.63-4.62,3.33-1.58-.29-5.15-2.05-8.33-1.52-3.19.53-2.95,2.4-9.21,2.4s-9.01-.53-10.82.35c-1.81.88-4.12,3.17-3.86,6.37.26,3.2,8.6,5.9,8.6,5.9h0Z" fill="#cfac75"/><g fill="none" mask="url(#i)"><path d="m24.28,51.51l-11.59,1.05.71-11.2,4.21-1.87s4.53,3.86,8.47,3.86,7.07-4.04,7.07-4.04l4.83-.26s.98,1.34,2.54,1.04" fill="#fef7ed"/><path d="m35.07,49.84s10.84-6.06,14.07-9.73c3.23-3.67,5.01-12.98,5.01-12.98l-.38-2.25s-4.72,12.71-10.55,13.71c-5.83,1-6.44-.32-6.44-.32l-1.72,11.57h0Z" fill="#d8be9b"/></g><path d="m57.85,27.3s-.5,1.31-1.14,1.75c-.64.44-.91,1.2-1.14.64-.23-.55.15-.99.15-.99,0,0-.85,1.84-1.52,1.52s1.29-1.55.67-1.84c-.61-.29-.54.55-.96-.12-.42-.66.41-1.64.41-1.64l3.54.67h0Z" fill="#807362"/><path d="m51,24.51s.26,2.96,2.9,3c2.63.04,7.13.59,8.05.37.92-.22.29-1.07.29-1.07,0,0,1.56.53,1.56-.88s-2.32-2.65-3.38-3.62c-1.05-.96-2.85-1.56-3.42-1.95-.57-.4-1.14-1.47-2.21-1.4-1.07.06-2.62-.15-2.69-.13-.06.02-1.09,5.68-1.09,5.68h0Z" fill="#cfac75"/><g fill="none" mask="url(#k)"><path d="m53.45,20.02s1.27-1.27,1.74-1.13c.47.13,6.89,3.32,6.89,3.32l-.71.69-2.76-.19-2.19-1.3-1.68-.93-1.29-.45Z" fill="#807362"/></g><path d="m52.12,20.87s.22-.99,0-1.12c-.22-.13-2.63-1.47-4.47-1.43-1.84.04-3.81-1.62-4.34-.72-.53.9,1.82,2.79,3,3.57,1.19.79,3.73.77,3.73.77" fill="#cfac75"/><path d="m50.73,21.12s-3.38-2.1-4.63-2.55c-1.25-.45-2.76-.9-2.32.1.43,1,3.33,2.49,4.8,2.71,1.47.22,2.15-.26,2.15-.26Z" fill="#e3d3b2"/><path d="m7.32,34.31s-.88,2.37.44,5.4c1.31,3.03,3.25,3.99,2.28,6.8-.96,2.81-4.04,4.04-3.33,5.53s4.3,9.64,4.56,11.31,1.93,3.93,1.93,3.93l2.16-1.04s-3.12-8.5-3.74-11.48c-.61-2.98.35-4.91,1.31-5.44.96-.53,4.3-1.67,6.05-5,1.75-3.33,3.6-8.07.79-9.21s-12.46-.79-12.46-.79h0Z" fill="#cfac75"/><path d="m31.93,38.35s-.09.18-.31,3.11c-.22,2.94,1.67,3.46,1.71,5.09.04,1.62,1.14,4.96.75,7.28-.4,2.32-.04,8.54-.53,9.86-.48,1.31-.67,1.89-.67,1.89,0,0,.54,1.8.8,1.89s2.46-.57,2.46-.57c0,0-.83-7.88-.4-10.03s1.58-2.67,1.58-4.91,0-6.14.66-7.5c.66-1.36,2.67-2.5,2.54-4.34-.13-1.84-1.14-4.21-1.14-4.21" fill="#cfac75"/><path d="m33.6,67.42s.83-.93,1.31-1.09c.47-.15.86-.23,1.13-.14.27.09.75,1.5.75,1.5,0,0-1.01,1.09-3.19-.27Z" fill="#8c7c6c"/><path d="m33.16,64.77s-.55,1.02-.57,1.51c-.02.49,0,.6.29.54.28-.06.29-2.05.29-2.05h0Z" fill="#8c7c6c"/><path d="m53.19,20.28s.12-.29.43-.51c.18-.13.43-.24.76-.25.4-.01.94.42,1.43.9.83.83,1.87,1.41,3.02,1.66l1.69.36,1.6,1.21s-3.69.11-4.72-.65c-1.03-.76-1.35-1.63-1.35-1.63l-2.32-.19-.54-.9Z" fill="#e3d3b2"/><path d="m56.03,21.44s-.08-.12-.36-.04c-.28.07-.85.2-1.18.16-.33-.04-.75-.22-.77-.37-.02-.15.74-.72,1.29-.7.55.01,1.1.57,1.1.73s.01.28-.08.23Z" fill="#1d1d1b"/><path d="m62.35,27.29c-.02-.58-.77-.76-1.24-.9-.56-.15-1.14-.29-1.72-.35-1.17-.14-2.33-.26-3.5-.37,1.61.14,3.24.15,4.82.48.65.17,1.76.29,1.83,1.14h-.19Z" fill="#807362"/><path d="m12.84,66.86s.33.93.4.97c.07.04,4.37-.15,4.37-.15,0,0-2.08-2.42-2.93-2.55-.84-.13-2.5,1.18-1.85,1.72h0Z" fill="#8c7c6c"/></g></g></svg>