<svg width="142" height="51" viewBox="0 0 142 51" fill="none" xmlns="http://www.w3.org/2000/svg">
<path d="M138.862 35.2106H135.435C134.452 35.2106 133.655 36.0085 133.655 36.9929V42.9715C133.655 43.9558 134.452 44.7538 135.435 44.7538H138.862C139.845 44.7538 140.642 43.9558 140.642 42.9715V36.9929C140.642 36.0085 139.845 35.2106 138.862 35.2106Z" fill="black"/>
<path d="M140.623 46.0955H138.955C138.477 46.0955 138.09 46.4835 138.09 46.9621V49.8658C138.09 50.3444 138.477 50.7324 138.955 50.7324H140.623C141.101 50.7324 141.488 50.3444 141.488 49.8658V46.9621C141.488 46.4835 141.101 46.0955 140.623 46.0955Z" fill="black"/>
<path d="M138.471 43.7794V47.0307" stroke="black" stroke-width="1.57" stroke-miterlimit="10"/>
<path d="M57.7961 26.2745L68.5437 22.0342H114.878C116.287 22.3769 118.169 23.0282 120.086 24.3453C124.77 27.5721 126.237 32.4539 126.648 34.0697C117.377 35.5876 104.287 36.6845 88.8897 34.5937C76.1227 32.8652 65.5952 29.4621 57.7961 26.2794V26.2745Z" fill="#00B1EA"/>
<path d="M119 6.32141H73.4774V10.0232H119V6.32141Z" fill="#00B1EA"/>
<path d="M68.5437 22.0341L78.1079 10.0231H114.878V22.0341H68.5437Z" fill="#00B1EA"/>
<path d="M0.00488281 22.0342L16.8499 49.9098H122.942C127.919 49.9098 132.364 46.7761 134.036 42.0804L137.092 33.5115C125.01 34.4223 114.722 34.2656 106.874 33.8396C98.2682 33.3744 87.5158 32.7379 73.8491 29.5356C63.9474 27.2147 55.9088 24.3404 50.2074 22.0342H0.00488281Z" fill="#29485D"/>
<path d="M99.0554 12.8435H87.5206V22.0587H99.0554V12.8435Z" fill="#29485D"/>
<path d="M112.14 12.8435H102.356V22.0587H112.14V12.8435Z" fill="#29485D"/>
<path d="M84.4059 22.0587H71.903L78.9686 12.8435H84.4059V22.0587Z" fill="#29485D"/>
<path d="M108.771 6.32137L115.573 0H118.565L116.663 6.32137H108.771Z" fill="#EF7C00"/>
<path d="M20.6296 31.5774C21.5585 31.5774 22.3116 30.8233 22.3116 29.893C22.3116 28.9627 21.5585 28.2086 20.6296 28.2086C19.7006 28.2086 18.9475 28.9627 18.9475 29.893C18.9475 30.8233 19.7006 31.5774 20.6296 31.5774Z" fill="#EF7C00"/>
<path d="M27.6659 31.5774C28.5949 31.5774 29.348 30.8233 29.348 29.893C29.348 28.9627 28.5949 28.2086 27.6659 28.2086C26.737 28.2086 25.9839 28.9627 25.9839 29.893C25.9839 30.8233 26.737 31.5774 27.6659 31.5774Z" fill="#EF7C00"/>
<path d="M34.7071 31.5774C35.6361 31.5774 36.3891 30.8233 36.3891 29.893C36.3891 28.9627 35.6361 28.2086 34.7071 28.2086C33.7781 28.2086 33.025 28.9627 33.025 29.893C33.025 30.8233 33.7781 31.5774 34.7071 31.5774Z" fill="#EF7C00"/>
<path d="M135.836 37.0272C130.887 37.1986 123.758 37.3455 115.167 37.1545C101.72 36.8558 90.4153 36.6012 76.6851 33.8739C69.9226 32.5273 60.466 30.1672 49.4348 25.7359H2.23458L0 22.0342H50.2025C61.1554 26.5292 70.6414 28.9725 77.5848 30.3925C91.3591 33.1982 102.581 33.4626 114.976 33.7515C124.042 33.962 131.635 33.7613 137.087 33.5164C136.672 34.6867 136.251 35.8569 135.836 37.0272Z" fill="#EF7C00"/>
<path d="M97.256 23.7087C95.1388 23.7087 93.4274 25.4274 93.4274 27.5427H97.256V23.7087Z" fill="#EF7C00"/>
<path d="M93.4274 27.5427C93.4274 29.6629 95.1437 31.3767 97.256 31.3767V27.5427H93.4274Z" fill="white"/>
<path d="M97.256 23.7087C99.3732 23.7087 101.085 25.4274 101.085 27.5427H97.256V23.7087Z" fill="white"/>
<path d="M101.089 27.5427C101.089 29.6629 99.3732 31.3767 97.2609 31.3767V27.5427H101.089Z" fill="#EF7C00"/>
<path d="M97.256 29.9176C98.5658 29.9176 99.6275 28.8543 99.6275 27.5428C99.6275 26.2312 98.5658 25.168 97.256 25.168C95.9463 25.168 94.8845 26.2312 94.8845 27.5428C94.8845 28.8543 95.9463 29.9176 97.256 29.9176Z" fill="#00B1EA"/>
</svg>
