<svg xmlns="http://www.w3.org/2000/svg" viewBox="0 0 1920 1080"><g><rect width="1920" height="1080" fill="rgba(207,185,182,0.54)"/></g><g transform="translate(-800,-481.3) scale(5,1.9)"><g transform="translate(960,540) translate(-800,-861.1)"><path fill="#7fc6ea" d="M0 634.9c0 0 73.5-20.4 220.8 7.8c153.8 29.5 235.1-56.4 366-58c134.7-1.6 301.5 65.5 402.3 48.6c75.2-12.6 148.6-55.5 255-53.9c101.8 1.6 172.4 61.9 249.4 70c45.1 4.7 106.5-20.8 106.5-20.8v514.3h-1600v-508Z"/></g><g transform="translate(-255.8,575) translate(-800,-896.1)"><path fill="#0c7fcb" d="M1600 713.2v429.7h-1600v-412.4c0 0 35.4-22.5 114.2-24.3c66.7-1.6 119.9 28.7 210.1 4.3c127.9-34.6 166.1-61.6 285.6-61.1c98.2 .4 194.3 43.5 350.6 57.6c141.7 12.7 155.8-25.5 252.5-37.7c79.3-10 126.5 39.1 229.8 48.2c99.8 8.9 78.2 6.8 157.2-4.3Z"/></g><g transform="translate(960,619.8) translate(-800,-940.9)"><path fill="#0a65aa" d="M0 806.6c0 0 34.7 7.3 153.2-1.6c103.9-7.7 124.6-40.1 231-61.6c92.9-18.8 176.4 28.2 305.1 45.1c64.7 8.4 128.5-13.1 202.8-26.3c125.7-22.3 149.1 54 332.5 8.1c67.6-16.9 165.9-28.4 253.5 1.8c102.9 35.6 121.9 27.4 121.9 27.4v343.4h-1600v-336.3Z"/></g><g transform="translate(279.6,468.9) scale(.34,.894737) translate(-129,-122.4)"><g transform="translate(23.9,64.1) translate(-129,-122.4)"><g><path d="M86.5 183.6v-9.7l74.9-3.5l-1 13.2h-74Z" fill="#c6d325"/><path d="M65.3 183.7l-1.1-150.9c.4-0.3 1-0.7 1.9-0.9c.9-0.2 1.7-0.2 2.2-0.2c1.8 31.5 3 64 3.6 97.3c.4 18.6 .5 36.8 .4 54.7h-7Z" fill="#ef7c00"/><path d="M160.4 183.6l-2.6-183.2c.8-0.1 2.1-0.1 3.5 .2c1.6 .4 2.9 1.1 3.6 1.6c1.3 60.5 2.6 120.9 3.8 181.4h-8.3Z" fill="#ef7c00"/><path d="M105.6 187.1c2.8 0 5-2.3 5-5c0-2.8-2.2-5-5-5c-2.7 0-4.9 2.2-4.9 5c0 2.7 2.2 5 4.9 5Z" fill="#29485d"/><path d="M128.4 187.1c2.7 0 4.9-2.3 4.9-5c0-2.8-2.2-5-4.9-5c-2.8 0-5 2.2-5 5c0 2.7 2.2 5 5 5Z" fill="#29485d"/><path d="M151.1 187.1c2.7 0 4.9-2.3 4.9-5c0-2.8-2.2-5-4.9-5c-2.7 0-4.9 2.2-4.9 5c0 2.7 2.2 5 4.9 5Z" fill="#29485d"/><path d="M15.2 183.6h216.5c-7 11.6-22.2 33-49.5 47.3c-55 28.9-109.6 2.7-114.9 0c-28.2-14.1-44.4-35.5-52-47.3Z" fill="#7b493f"/><path d="M0 180l20.3 5.6c1.4-0.6 2.9-1.1 4.3-1.6c-8.2-1.4-16.4-2.7-24.6-4Z" fill="#7b493f"/><path d="M258 171.7c-9.7 4.6-19.4 9.1-29.1 13.7c-2.7-0.6-5.3-1.2-7.9-1.8l37-11.9Z" fill="#7b493f"/><path d="M15.2 183.6h216.5c-1.8 3-3.8 6.2-6.3 9.6c-2.3 3.1-4.7 5.9-6.9 8.3c-62.8 .5-125.5 .9-188.3 1.4c-3-3.2-6.1-6.9-9.2-11c-2.1-2.8-4-5.6-5.7-8.3Z" fill="#a16053"/><path d="M27.7 186c.6 1.8 1.4 3.9 2.6 6.1c1.4 2.8 3 5 4.4 6.7" fill="none" stroke="#c6d325" stroke-linecap="round" stroke-miterlimit="10" stroke-width="2.6"/><path d="M37.3 186c.3 1.5 .7 3.1 1.4 4.9c1.1 3.3 2.5 5.9 3.8 7.9" fill="none" stroke="#c6d325" stroke-linecap="round" stroke-miterlimit="10" stroke-width="2.6"/><path d="M46.4 186c.1 1.6 .5 3.5 1.1 5.5c.8 3.1 2 5.6 3 7.4" fill="none" stroke="#c6d325" stroke-linecap="round" stroke-miterlimit="10" stroke-width="2.6"/><path d="M56 186c.2 1.7 .6 3.5 1.1 5.5c.7 2.9 1.6 5.4 2.5 7.6" fill="none" stroke="#c6d325" stroke-linecap="round" stroke-miterlimit="10" stroke-width="2.6"/><path d="M65.8 186c.2 1.7 .6 3.5 1.1 5.5c.7 2.9 1.6 5.4 2.5 7.6" fill="none" stroke="#c6d325" stroke-linecap="round" stroke-miterlimit="10" stroke-width="2.6"/><path d="M75.6 186c.3 2 .6 4.2 1 6.4c.4 2.6 .9 5 1.5 7.2" fill="none" stroke="#c6d325" stroke-linecap="round" stroke-miterlimit="10" stroke-width="2.6"/><path d="M87.4 186c.2 2.3 .4 4.6 .6 7c.2 2.4 .4 4.6 .7 6.9" fill="none" stroke="#c6d325" stroke-linecap="round" stroke-miterlimit="10" stroke-width="2.6"/><path d="M221.1 185.4c-0.7 1.8-1.5 3.8-2.6 5.9c-1.5 2.8-3 5.1-4.4 7" fill="none" stroke="#c6d325" stroke-linecap="round" stroke-miterlimit="10" stroke-width="2.6"/><path d="M212.8 185.4c-0.3 1.5-0.8 3.2-1.4 5c-1.1 3.2-2.5 5.9-3.8 7.9" fill="none" stroke="#c6d325" stroke-linecap="round" stroke-miterlimit="10" stroke-width="2.6"/><path d="M204.1 185.4c-0.2 1.7-0.5 3.5-1.1 5.6c-0.9 3-2 5.5-3.1 7.4" fill="none" stroke="#c6d325" stroke-linecap="round" stroke-miterlimit="10" stroke-width="2.6"/><path d="M196.4 185.4c-0.3 1.7-0.8 3.6-1.6 5.6c-1 2.9-2.2 5.3-3.3 7.4" fill="none" stroke="#c6d325" stroke-linecap="round" stroke-miterlimit="10" stroke-width="2.6"/><path d="M178.2 185.4c-0.2 1.7-0.5 3.6-1 5.6c-0.8 2.9-1.7 5.4-2.6 7.5" fill="none" stroke="#c6d325" stroke-linecap="round" stroke-miterlimit="10" stroke-width="2.6"/><path d="M187.9 185.5c-0.4 1.7-1 3.5-1.8 5.5c-1.1 2.9-2.3 5.3-3.5 7.3" fill="none" stroke="#c6d325" stroke-linecap="round" stroke-miterlimit="10" stroke-width="2.6"/><path d="M169.4 185.4c-0.3 2.1-0.6 4.2-0.9 6.5c-0.5 2.5-1 4.9-1.6 7.2" fill="none" stroke="#c6d325" stroke-linecap="round" stroke-miterlimit="10" stroke-width="2.6"/><path d="M160.8 185.4c-0.2 2.3-0.4 4.7-0.6 7.1c-0.2 2.3-0.4 4.6-0.7 6.8" fill="none" stroke="#c6d325" stroke-linecap="round" stroke-miterlimit="10" stroke-width="2.6"/><path d="M97 186c.2 2.3 .4 4.6 .6 7c.2 2.4 .4 4.6 .7 6.9" fill="none" stroke="#c6d325" stroke-linecap="round" stroke-miterlimit="10" stroke-width="2.6"/><path d="M106.3 186c.1 2.3 .2 4.7 .3 7c.1 2.3 .2 4.6 .3 6.9" fill="none" stroke="#c6d325" stroke-linecap="round" stroke-miterlimit="10" stroke-width="2.6"/><path d="M113.4 186c.1 2.3 .2 4.7 .3 7c.1 2.3 .2 4.6 .2 6.9" fill="none" stroke="#c6d325" stroke-linecap="round" stroke-miterlimit="10" stroke-width="2.6"/><path d="M121.1 186c.2 2.2 .3 4.6 .4 7c0 2.4 0 4.7-0.1 6.8" fill="none" stroke="#c6d325" stroke-linecap="round" stroke-miterlimit="10" stroke-width="2.6"/><path d="M128.6 186c.2 2.2 .3 4.6 .3 7c.1 2.4 0 4.7-0.1 6.8" fill="none" stroke="#c6d325" stroke-linecap="round" stroke-miterlimit="10" stroke-width="2.6"/><path d="M137 186c.1 2.2 .2 4.6 .3 7c0 2.4 0 4.7-0.1 6.8" fill="none" stroke="#c6d325" stroke-linecap="round" stroke-miterlimit="10" stroke-width="2.6"/><path d="M144.6 186c.2 2.1 .4 4.4 .3 7c0 2.5-0.2 4.7-0.5 6.6" fill="none" stroke="#c6d325" stroke-linecap="round" stroke-miterlimit="10" stroke-width="2.6"/><path d="M152.2 186c.2 2.1 .4 4.4 .3 7c0 2.5-0.3 4.7-0.5 6.6" fill="none" stroke="#c6d325" stroke-linecap="round" stroke-miterlimit="10" stroke-width="2.6"/><path d="M59.7 45.6c.8-2 1.8-4.2 3-6.5c.8-1.6 1.7-3.1 2.5-4.5" fill="none" stroke="#ef7c00" stroke-miterlimit="10" stroke-width="2.6"/><path d="M66.2 40.9c.7 1.5 1.8 3.5 3.6 5.6c1.4 1.8 2.9 3 4.1 3.9" fill="none" stroke="#ef7c00" stroke-miterlimit="10" stroke-width="2.6"/><path d="M67.2 176.3c-0.9-1.4-2.3-3.2-4.3-5.1c-1.7-1.5-3.3-2.5-4.6-3.2" fill="none" stroke="#ef7c00" stroke-miterlimit="10" stroke-width="2.6"/><path d="M69.8 175.6c.9-1.4 2.3-3.2 4.3-5c1.7-1.5 3.3-2.6 4.6-3.3" fill="none" stroke="#ef7c00" stroke-miterlimit="10" stroke-width="2.6"/><path d="M164.2 158.5c1-1.4 2.4-3.3 4.4-5.1c1.7-1.5 3.3-2.5 4.6-3.3" fill="none" stroke="#ef7c00" stroke-miterlimit="10" stroke-width="2.6"/><path d="M233.9 147.1c1.7-0.1 4 0 6.6 .6c2.1 .5 3.9 1.3 5.3 1.9" fill="none" stroke="#ef7c00" stroke-miterlimit="10" stroke-width="2.6"/><path d="M163.9 10.1l5.3 10.5" fill="none" stroke="#ef7c00" stroke-miterlimit="10" stroke-width="2.6"/><path d="M111.4 19.8c10.9-1.6 24.7-5.1 38.7-13.4c2.9-1.7 5.6-3.5 8.2-5.4" fill="none" stroke="#ef7c00" stroke-miterlimit="10" stroke-width="2.6"/><path d="M164.5 2.7c31.1 56.3 62.3 112.6 93.5 169" fill="none" stroke="#ef7c00" stroke-miterlimit="10" stroke-width="2.6"/><path d="M168.7 19.2l2.9 131.9c1.8 .5 4.5 1.2 7.9 1.5c11.4 1.1 14.3-4.1 25.8-4.7c8.8-0.5 9.7 2.3 20.9 1.7c5.5-0.2 10-1.2 13-1.9c-23.5-42.9-47-85.7-70.5-128.5Z" fill="#29485d"/><path d="M0 180l60.1-136.3v125.8c-7.8 0-16.8 .5-26.7 2c-13.1 2-24.3 5.2-33.4 8.5Z" fill="#29485d"/><path d="M71.3 48.3l6.2 119.7l64.3-2.1c-8-27.3-15.4-57.3-21.5-89.8c-3.7-19.8-6.6-38.8-8.8-56.9c-13.4 9.7-26.8 19.4-40.2 29.1Z" fill="#29485d"/></g></g></g><g transform="translate(498.6,468.9) scale(.34,.894737) translate(-129,-122.4)"><g transform="translate(23.9,107.3) rotate(4) translate(-129,-122.4)"><g><path d="M86.5 183.6v-9.7l74.9-3.5l-1 13.2h-74Z" fill="#c6d325"/><path d="M65.3 183.7l-1.1-150.9c.4-0.3 1-0.7 1.9-0.9c.9-0.2 1.7-0.2 2.2-0.2c1.8 31.5 3 64 3.6 97.3c.4 18.6 .5 36.8 .4 54.7h-7Z" fill="#ef7c00"/><path d="M160.4 183.6l-2.6-183.2c.8-0.1 2.1-0.1 3.5 .2c1.6 .4 2.9 1.1 3.6 1.6c1.3 60.5 2.6 120.9 3.8 181.4h-8.3Z" fill="#ef7c00"/><path d="M105.6 187.1c2.8 0 5-2.3 5-5c0-2.8-2.2-5-5-5c-2.7 0-4.9 2.2-4.9 5c0 2.7 2.2 5 4.9 5Z" fill="#29485d"/><path d="M128.4 187.1c2.7 0 4.9-2.3 4.9-5c0-2.8-2.2-5-4.9-5c-2.8 0-5 2.2-5 5c0 2.7 2.2 5 5 5Z" fill="#29485d"/><path d="M151.1 187.1c2.7 0 4.9-2.3 4.9-5c0-2.8-2.2-5-4.9-5c-2.7 0-4.9 2.2-4.9 5c0 2.7 2.2 5 4.9 5Z" fill="#29485d"/><path d="M15.2 183.6h216.5c-7 11.6-22.2 33-49.5 47.3c-55 28.9-109.6 2.7-114.9 0c-28.2-14.1-44.4-35.5-52-47.3Z" fill="#7b493f"/><path d="M0 180l20.3 5.6c1.4-0.6 2.9-1.1 4.3-1.6c-8.2-1.4-16.4-2.7-24.6-4Z" fill="#7b493f"/><path d="M258 171.7c-9.7 4.6-19.4 9.1-29.1 13.7c-2.7-0.6-5.3-1.2-7.9-1.8l37-11.9Z" fill="#7b493f"/><path d="M15.2 183.6h216.5c-1.8 3-3.8 6.2-6.3 9.6c-2.3 3.1-4.7 5.9-6.9 8.3c-62.8 .5-125.5 .9-188.3 1.4c-3-3.2-6.1-6.9-9.2-11c-2.1-2.8-4-5.6-5.7-8.3Z" fill="#a16053"/><path d="M27.7 186c.6 1.8 1.4 3.9 2.6 6.1c1.4 2.8 3 5 4.4 6.7" fill="none" stroke="#c6d325" stroke-linecap="round" stroke-miterlimit="10" stroke-width="2.6"/><path d="M37.3 186c.3 1.5 .7 3.1 1.4 4.9c1.1 3.3 2.5 5.9 3.8 7.9" fill="none" stroke="#c6d325" stroke-linecap="round" stroke-miterlimit="10" stroke-width="2.6"/><path d="M46.4 186c.1 1.6 .5 3.5 1.1 5.5c.8 3.1 2 5.6 3 7.4" fill="none" stroke="#c6d325" stroke-linecap="round" stroke-miterlimit="10" stroke-width="2.6"/><path d="M56 186c.2 1.7 .6 3.5 1.1 5.5c.7 2.9 1.6 5.4 2.5 7.6" fill="none" stroke="#c6d325" stroke-linecap="round" stroke-miterlimit="10" stroke-width="2.6"/><path d="M65.8 186c.2 1.7 .6 3.5 1.1 5.5c.7 2.9 1.6 5.4 2.5 7.6" fill="none" stroke="#c6d325" stroke-linecap="round" stroke-miterlimit="10" stroke-width="2.6"/><path d="M75.6 186c.3 2 .6 4.2 1 6.4c.4 2.6 .9 5 1.5 7.2" fill="none" stroke="#c6d325" stroke-linecap="round" stroke-miterlimit="10" stroke-width="2.6"/><path d="M87.4 186c.2 2.3 .4 4.6 .6 7c.2 2.4 .4 4.6 .7 6.9" fill="none" stroke="#c6d325" stroke-linecap="round" stroke-miterlimit="10" stroke-width="2.6"/><path d="M221.1 185.4c-0.7 1.8-1.5 3.8-2.6 5.9c-1.5 2.8-3 5.1-4.4 7" fill="none" stroke="#c6d325" stroke-linecap="round" stroke-miterlimit="10" stroke-width="2.6"/><path d="M212.8 185.4c-0.3 1.5-0.8 3.2-1.4 5c-1.1 3.2-2.5 5.9-3.8 7.9" fill="none" stroke="#c6d325" stroke-linecap="round" stroke-miterlimit="10" stroke-width="2.6"/><path d="M204.1 185.4c-0.2 1.7-0.5 3.5-1.1 5.6c-0.9 3-2 5.5-3.1 7.4" fill="none" stroke="#c6d325" stroke-linecap="round" stroke-miterlimit="10" stroke-width="2.6"/><path d="M196.4 185.4c-0.3 1.7-0.8 3.6-1.6 5.6c-1 2.9-2.2 5.3-3.3 7.4" fill="none" stroke="#c6d325" stroke-linecap="round" stroke-miterlimit="10" stroke-width="2.6"/><path d="M178.2 185.4c-0.2 1.7-0.5 3.6-1 5.6c-0.8 2.9-1.7 5.4-2.6 7.5" fill="none" stroke="#c6d325" stroke-linecap="round" stroke-miterlimit="10" stroke-width="2.6"/><path d="M187.9 185.5c-0.4 1.7-1 3.5-1.8 5.5c-1.1 2.9-2.3 5.3-3.5 7.3" fill="none" stroke="#c6d325" stroke-linecap="round" stroke-miterlimit="10" stroke-width="2.6"/><path d="M169.4 185.4c-0.3 2.1-0.6 4.2-0.9 6.5c-0.5 2.5-1 4.9-1.6 7.2" fill="none" stroke="#c6d325" stroke-linecap="round" stroke-miterlimit="10" stroke-width="2.6"/><path d="M160.8 185.4c-0.2 2.3-0.4 4.7-0.6 7.1c-0.2 2.3-0.4 4.6-0.7 6.8" fill="none" stroke="#c6d325" stroke-linecap="round" stroke-miterlimit="10" stroke-width="2.6"/><path d="M97 186c.2 2.3 .4 4.6 .6 7c.2 2.4 .4 4.6 .7 6.9" fill="none" stroke="#c6d325" stroke-linecap="round" stroke-miterlimit="10" stroke-width="2.6"/><path d="M106.3 186c.1 2.3 .2 4.7 .3 7c.1 2.3 .2 4.6 .3 6.9" fill="none" stroke="#c6d325" stroke-linecap="round" stroke-miterlimit="10" stroke-width="2.6"/><path d="M113.4 186c.1 2.3 .2 4.7 .3 7c.1 2.3 .2 4.6 .2 6.9" fill="none" stroke="#c6d325" stroke-linecap="round" stroke-miterlimit="10" stroke-width="2.6"/><path d="M121.1 186c.2 2.2 .3 4.6 .4 7c0 2.4 0 4.7-0.1 6.8" fill="none" stroke="#c6d325" stroke-linecap="round" stroke-miterlimit="10" stroke-width="2.6"/><path d="M128.6 186c.2 2.2 .3 4.6 .3 7c.1 2.4 0 4.7-0.1 6.8" fill="none" stroke="#c6d325" stroke-linecap="round" stroke-miterlimit="10" stroke-width="2.6"/><path d="M137 186c.1 2.2 .2 4.6 .3 7c0 2.4 0 4.7-0.1 6.8" fill="none" stroke="#c6d325" stroke-linecap="round" stroke-miterlimit="10" stroke-width="2.6"/><path d="M144.6 186c.2 2.1 .4 4.4 .3 7c0 2.5-0.2 4.7-0.5 6.6" fill="none" stroke="#c6d325" stroke-linecap="round" stroke-miterlimit="10" stroke-width="2.6"/><path d="M152.2 186c.2 2.1 .4 4.4 .3 7c0 2.5-0.3 4.7-0.5 6.6" fill="none" stroke="#c6d325" stroke-linecap="round" stroke-miterlimit="10" stroke-width="2.6"/><path d="M59.7 45.6c.8-2 1.8-4.2 3-6.5c.8-1.6 1.7-3.1 2.5-4.5" fill="none" stroke="#ef7c00" stroke-miterlimit="10" stroke-width="2.6"/><path d="M66.2 40.9c.7 1.5 1.8 3.5 3.6 5.6c1.4 1.8 2.9 3 4.1 3.9" fill="none" stroke="#ef7c00" stroke-miterlimit="10" stroke-width="2.6"/><path d="M67.2 176.3c-0.9-1.4-2.3-3.2-4.3-5.1c-1.7-1.5-3.3-2.5-4.6-3.2" fill="none" stroke="#ef7c00" stroke-miterlimit="10" stroke-width="2.6"/><path d="M69.8 175.6c.9-1.4 2.3-3.2 4.3-5c1.7-1.5 3.3-2.6 4.6-3.3" fill="none" stroke="#ef7c00" stroke-miterlimit="10" stroke-width="2.6"/><path d="M164.2 158.5c1-1.4 2.4-3.3 4.4-5.1c1.7-1.5 3.3-2.5 4.6-3.3" fill="none" stroke="#ef7c00" stroke-miterlimit="10" stroke-width="2.6"/><path d="M233.9 147.1c1.7-0.1 4 0 6.6 .6c2.1 .5 3.9 1.3 5.3 1.9" fill="none" stroke="#ef7c00" stroke-miterlimit="10" stroke-width="2.6"/><path d="M163.9 10.1l5.3 10.5" fill="none" stroke="#ef7c00" stroke-miterlimit="10" stroke-width="2.6"/><path d="M111.4 19.8c10.9-1.6 24.7-5.1 38.7-13.4c2.9-1.7 5.6-3.5 8.2-5.4" fill="none" stroke="#ef7c00" stroke-miterlimit="10" stroke-width="2.6"/><path d="M164.5 2.7c31.1 56.3 62.3 112.6 93.5 169" fill="none" stroke="#ef7c00" stroke-miterlimit="10" stroke-width="2.6"/><path d="M168.7 19.2l2.9 131.9c1.8 .5 4.5 1.2 7.9 1.5c11.4 1.1 14.3-4.1 25.8-4.7c8.8-0.5 9.7 2.3 20.9 1.7c5.5-0.2 10-1.2 13-1.9c-23.5-42.9-47-85.7-70.5-128.5Z" fill="#29485d"/><path d="M0 180l60.1-136.3v125.8c-7.8 0-16.8 .5-26.7 2c-13.1 2-24.3 5.2-33.4 8.5Z" fill="#29485d"/><path d="M71.3 48.3l6.2 119.7l64.3-2.1c-8-27.3-15.4-57.3-21.5-89.8c-3.7-19.8-6.6-38.8-8.8-56.9c-13.4 9.7-26.8 19.4-40.2 29.1Z" fill="#29485d"/></g></g></g><g transform="translate(-255.8,659.8) translate(-800,-980.9)"><path fill="#094593" d="M0 892.7c0 0 116.6-52.7 242-31.6c169.3 28.6 279.8-81.3 547.8 5.7c135.5 44 177.5 29.3 252.5 .4c171.6-66.2 312.7-57.2 429.3-15.7c69.3 24.7 128.4 14.2 128.4 14.2v277.1h-1600v-250.1Z"/></g><g transform="translate(960,695.7) translate(-800,-1016.8)"><path fill="#08367f" d="M0 960.9c0 0 104.8 15.3 198.9 5.9c140.7-14.1 309-124.5 558-17.7c0 0 125.8 56.5 362-26c199.6-69.7 316.3-7.7 359.8 10.2c72.8 29.9 121.3 33.5 121.3 33.5v176.1h-1600v-182Z"/></g><g transform="translate(960,744.3) translate(-800,-1065.4)"><path fill="#062869" d="M0 1065.5c0 0 272.6-90.7 465.3-37.7c192.8 53 236.8 41.8 334.7 32.1c97.9-9.7 306.8-71.9 377.7-72c165.4-0.1 232 85 422.3 52.9v102h-1600v-77.3Z"/></g></g><g transform="translate(1920,1039) scale(2.5,2.5)"><path d="M138.9 35.2h-3.5c-0.9 0-1.7 .8-1.7 1.8v6c0 1 .8 1.8 1.7 1.8h3.5c.9 0 1.7-0.8 1.7-1.8v-6c0-1-0.8-1.8-1.7-1.8Z" fill="#000"/><path d="M140.6 46.1h-1.6c-0.5 0-0.9 .4-0.9 .9v2.9c0 .4 .4 .8 .9 .8h1.6c.5 0 .9-0.4 .9-0.8v-2.9c0-0.5-0.4-0.9-0.9-0.9Z" fill="#000"/><path d="M138.5 43.8v3.2" stroke="#000" stroke-width="1.6" stroke-miterlimit="10" fill="none"/><path d="M57.8 26.3l10.7-4.3h46.4c1.4 .4 3.3 1 5.2 2.3c4.7 3.3 6.1 8.2 6.5 9.8c-9.2 1.5-22.3 2.6-37.7 .5c-12.8-1.7-23.3-5.1-31.1-8.3Z" fill="#00b1ea"/><path d="M119 6.3h-45.5v3.7h45.5v-3.7Z" fill="#00b1ea"/><path d="M68.5 22l9.6-12h36.8v12h-46.4Z" fill="#00b1ea"/><path d="M0 22l16.8 27.9h106.1c5 0 9.5-3.1 11.1-7.8l3.1-8.6c-12.1 .9-22.4 .8-30.2 .3c-8.6-0.4-19.4-1.1-33.1-4.3c-9.9-2.3-17.9-5.2-23.6-7.5h-50.2Z" fill="#29485d"/><path d="M99.1 12.8h-11.6v9.3h11.6v-9.3Z" fill="#29485d"/><path d="M112.1 12.8h-9.7v9.3h9.7v-9.3Z" fill="#29485d"/><path d="M84.4 22.1h-12.5l7.1-9.3h5.4v9.3Z" fill="#29485d"/><path d="M108.8 6.3l6.8-6.3h3l-1.9 6.3h-7.9Z" fill="#ef7c00"/><path d="M20.6 31.6c1 0 1.7-0.8 1.7-1.7c0-0.9-0.7-1.7-1.7-1.7c-0.9 0-1.7 .8-1.7 1.7c0 .9 .8 1.7 1.7 1.7Z" fill="#ef7c00"/><path d="M27.7 31.6c.9 0 1.6-0.8 1.6-1.7c0-0.9-0.7-1.7-1.6-1.7c-1 0-1.7 .8-1.7 1.7c0 .9 .7 1.7 1.7 1.7Z" fill="#ef7c00"/><path d="M34.7 31.6c.9 0 1.7-0.8 1.7-1.7c0-0.9-0.8-1.7-1.7-1.7c-0.9 0-1.7 .8-1.7 1.7c0 .9 .8 1.7 1.7 1.7Z" fill="#ef7c00"/><path d="M135.8 37c-4.9 .2-12 .3-20.6 .2c-13.5-0.3-24.8-0.6-38.5-3.3c-6.8-1.4-16.2-3.7-27.3-8.2h-47.2l-2.2-3.7h50.2c11 4.5 20.4 7 27.4 8.4c13.8 2.8 25 3.1 37.4 3.4c9 .2 16.6 0 22.1-0.3c-0.4 1.2-0.8 2.4-1.3 3.5Z" fill="#ef7c00"/><path d="M97.3 23.7c-2.2 0-3.9 1.7-3.9 3.8h3.9v-3.8Z" fill="#ef7c00"/><path d="M93.4 27.5c0 2.2 1.7 3.9 3.9 3.9v-3.9h-3.9Z" fill="#fff"/><path d="M97.3 23.7c2.1 0 3.8 1.7 3.8 3.8h-3.8v-3.8Z" fill="#fff"/><path d="M101.1 27.5c0 2.2-1.7 3.9-3.8 3.9v-3.9h3.8Z" fill="#ef7c00"/><path d="M97.3 29.9c1.3 0 2.3-1 2.3-2.4c0-1.3-1-2.3-2.3-2.3c-1.4 0-2.4 1-2.4 2.3c0 1.4 1 2.4 2.4 2.4Z" fill="#00b1ea"/></g></svg>