<?xml version="1.0" encoding="utf-8"?>
<!-- Generator: Adobe Illustrator 27.2.0, SVG Export Plug-In . SVG Version: 6.00 Build 0)  -->
<svg version="1.1" id="waves" xmlns="http://www.w3.org/2000/svg" xmlns:xlink="http://www.w3.org/1999/xlink" x="0px" y="0px"
	 viewBox="0 0 1600 1142.86" enable-background="new 0 0 1600 1142.86" xml:space="preserve">
<g id="Layer_8">
	<path fill="#7FC6EA" d="M0,634.87c0,0,73.5-20.38,220.83,7.84c153.78,29.45,235.1-56.42,365.98-57.99
		c134.68-1.61,301.46,65.44,402.26,48.59c75.23-12.58,148.66-55.5,255.04-53.88c101.75,1.55,172.35,61.89,249.4,69.94
		c45.06,4.71,106.48-20.76,106.48-20.76v514.25H0V634.87z"/>
</g>
<g id="Layer_5">
	<path fill="#0C7FCB" d="M1600,713.24v429.62H0V730.48c0,0,35.43-22.44,114.25-24.29c66.61-1.57,119.82,28.7,210.02,4.31
		c127.92-34.59,166.14-61.62,285.65-61.13c98.21,0.41,194.24,43.49,350.59,57.6c141.68,12.78,155.8-25.44,252.45-37.62
		c79.35-10,126.5,39.05,229.81,48.2C1542.56,726.39,1521.04,724.32,1600,713.24z"/>
</g>
<g id="Layer_4">
	<path fill="#0A65AA" d="M0,806.65c0,0,34.72,7.22,153.21-1.62c103.9-7.75,124.62-40.13,231.02-61.65
		c92.87-18.78,176.4,28.24,305.12,45.1c64.65,8.47,128.41-13.06,202.7-26.25c125.78-22.33,149.18,53.93,332.56,8.09
		c67.58-16.9,165.91-28.46,253.48,1.8c102.94,35.56,121.9,27.34,121.9,27.34v343.41H0V806.65z"/>
</g>
<g id="Layer_3">
	<path fill="#094593" d="M0,892.68c0,0,116.6-52.72,241.99-31.56c169.29,28.57,279.77-81.27,547.79,5.72
		c135.47,43.97,177.5,29.27,252.47,0.36c171.65-66.19,312.71-57.15,429.33-15.65c69.36,24.69,128.42,14.11,128.42,14.11v277.19H0
		V892.68z"/>
</g>
<g id="Layer_2">
	<path fill="#08367F" d="M0,960.88c0,0,104.85,15.31,198.89,5.88c140.67-14.11,309.03-124.48,557.98-17.63
		c0,0,125.78,56.42,362.06-26.04c199.62-69.67,316.3-7.69,359.81,10.21c72.78,29.93,121.27,33.46,121.27,33.46v176.1H0V960.88z"/>
</g>
<g id="Layer_1">
	<path fill="#062869" d="M0,1065.5c0,0,272.56-90.72,465.34-37.72c192.78,53,236.73,41.87,334.66,32.15
		c97.93-9.72,306.81-71.96,377.7-72.02c165.36-0.15,231.97,85.03,422.3,52.9v102.04H0V1065.5z"/>
</g>
</svg>
