<?xml version="1.0" encoding="UTF-8"?><svg id="b" xmlns="http://www.w3.org/2000/svg" viewBox="0 0 140.79 140.77"><g id="c"><g id="d"><g id="e"><path d="M108.01,37.37c-.18,1.71-.35,3.42-.52,5.14,.17,1.14,.35,2.28,.51,3.42,.41,.04,.82,.07,1.23,.12,4.86,6.89,11.3,18.11,14.03,33.1,2.85,15.66,.61,29.73-3.04,40.96,12.7-12.73,20.56-30.3,20.56-49.72,0-3.73-.3-7.38-.85-10.95-4.83-4.51-10.57-9.2-17.32-13.67-5.08-3.36-9.99-6.11-14.6-8.39h0Z" fill="#29485d"/><path d="M99.94,29.57c-.5-.04-.99-.07-1.49-.1,.33,1.36,.7,2.73,1.17,4.11,2.64,1.08,5.44,2.34,8.38,3.79,.14-1.4,.29-2.79,.43-4.2,2.22,.47,17.13,3.83,28.72,14.93-5.97-17.9-18.93-32.59-35.64-40.85,1.51,8.99,0,16.99-1.58,22.32h0Z" fill="#00b1ea"/><path d="M108.43,33.17c-.14,1.4-.29,2.79-.43,4.2,4.61,2.27,9.53,5.03,14.6,8.39,6.75,4.47,12.5,9.16,17.32,13.67-.61-3.9-1.55-7.68-2.77-11.34-11.6-11.09-26.51-14.46-28.72-14.93h0Z" fill="#00b1ea"/><path d="M84.55,26.28c-.28,.67-.56,1.35-.84,2.02,2.01,.2,4.03,.38,6.04,.58,2.91,.2,5.8,.39,8.71,.6-2.17-9.09-1.13-17.4,2.13-22.68C91.43,2.44,81.2,0,70.39,0,51.48,0,34.3,7.48,21.66,19.63c6.01-2.02,13.11-3.59,21.2-3.91,20.73-.8,35.87,7.11,41.7,10.55h0Z" fill="#c6d325"/><path d="M98.45,29.47c.5,.04,.99,.07,1.49,.1,1.57-5.33,3.08-13.33,1.58-22.32-.31-.15-.62-.31-.93-.46-3.26,5.28-4.31,13.59-2.13,22.68h0Z" fill="#c6d325"/><path d="M31,47.9c20.38-12.48,40.19-14.24,50.49-14.28,.74-1.78,1.48-3.54,2.22-5.32-21.5-2.07-43-4.14-64.5-6.21C7.31,34.7,0,51.68,0,70.38c0,2.46,.13,4.89,.37,7.28,5.76-8.79,15.41-20.47,30.62-29.77h0Z" fill="#ffeb3c"/><path d="M84.55,26.28c-5.81-3.44-20.96-11.36-41.7-10.55-8.08,.31-15.19,1.89-21.2,3.91-.83,.8-1.65,1.63-2.45,2.47,21.5,2.07,43,4.14,64.5,6.21,.28-.67,.56-1.35,.84-2.02h0Z" fill="#ffeb3c"/><path d="M68.52,97.12c15.06-17.31,21.46-35.35,24.29-46.62,.03-.24,.06-.49,.08-.71-2.65-5.37-5.28-10.75-7.93-16.12-.99-.03-2.16-.06-3.47-.05-1.25,3-2.5,6-3.75,8.99C52.13,55.56,26.51,68.52,.89,81.48c2.92,18.4,12.95,34.42,27.19,45.15,10.91-4.71,26.5-13.51,40.44-29.51h0Z" fill="#ff9700"/><path d="M81.49,33.61c-10.3,.05-30.11,1.8-50.49,14.28C15.79,57.21,6.13,68.88,.37,77.67c.13,1.28,.31,2.55,.5,3.81,25.62-12.96,51.24-25.92,76.86-38.88,1.25-3,2.5-6,3.75-8.99h0Z" fill="#ff9700"/><path d="M94.12,44.6c-.32,1.65-.75,3.64-1.31,5.89-1.21,10.15-5.36,32.63-22.47,54.46-10.5,13.39-22.44,22.14-32.55,27.81,9.75,5.1,20.83,8.01,32.6,8.01,19.01,0,36.25-7.55,48.91-19.8-3.77-25.01-7.54-50.04-11.31-75.05-4.63-.44-9.25-.88-13.88-1.32h0Z" fill="#a04a61"/><path d="M123.26,79.14c-2.73-14.99-9.17-26.21-14.03-33.1-.41-.04-.82-.07-1.23-.12,3.77,25.01,7.54,50.04,11.31,75.05,.3-.29,.62-.58,.92-.88,3.65-11.23,5.89-25.3,3.04-40.96h0Z" fill="#a04a61"/><path d="M70.34,104.95c17.11-21.83,21.26-44.31,22.47-54.46-2.83,11.27-9.23,29.31-24.29,46.62-13.93,16.01-29.53,24.8-40.44,29.51,3.05,2.3,6.3,4.35,9.71,6.13,10.1-5.66,22.05-14.42,32.55-27.81Z" fill="#a04a61"/><path d="M113.12,47.76c4.04-6.51,.22-16.19-8.53-21.61-8.75-5.43-19.11-4.55-23.15,1.96-4.04,6.51-.22,16.19,8.53,21.61,8.75,5.43,19.11,4.55,23.15-1.96Z" fill="#f8f8f8"/></g></g></g></svg>