<?xml version="1.0" encoding="UTF-8"?><svg id="b" xmlns="http://www.w3.org/2000/svg" xmlns:xlink="http://www.w3.org/1999/xlink" viewBox="0 0 622.32 262.14"><g id="c"><g id="d"><path d="m170.14,108.22c60.99,13.05,102.61,8.92,164.98,8.09,35.39-.47,70.79.3,105.5.19,22.43-2.25,37.83-2.46,62.52-7.63,2.27-.48,10.47-1.42,12.58-.46s-1.89,4.52-2.3,6.8c-.53,2.96-3.98,4.26-6.89,5.01-37.27,9.61-74.75,19.26-113.1,22.59-20.36,1.77-40.84,1.74-61.2,3.44-16.19,1.36-32.43,3.81-48.6,2.21-9.73-.96-19.29-3.38-29.06-3.81-6.83-.3-13.67.37-20.47,1.04-3.27.32-6.53.65-9.81,1.35-11.98-8.28-27.35-9.18-41.54-12.48-15.35-3.57-29.8-10.18-44.12-16.77-2.59-1.19-5.2-2.39-7.98-2.99-2.17-.47-4.42-.57-6.54-1.24s-14.87-3.22-15.56-5.34c9.55-3.62,48.06-2.22,61.59-.01" fill="#794a1b" stroke-width="0"/><image width="2590" height="1091" transform="scale(.24)" xlink:href="../../../../../../../var/folders/0m/pzkmrpp924ld2l0dwy9wp5nw0000gp/T/TemporaryItems/NSIRD_Illustrator_AKbr9j/AI_28_0/Adobe/AISVG/3/Asset 5/Asset 51.png" isolation="isolate"/><path d="m152.37,111.91c11.29,2.04,17.78,3.94,40.43,8.02,5.2.94,16.9,3.63,18.88,3.56,2.13-.07,26.3,3.06,26.3,3.06,0,0,30.63,1.5,47.36.12,8.57-.71,16.8-.74,25.78-.73,44.58.04,88.09-1.35,121.99-2.59,21.64-.79,43.56-1.83,64.25-8.24-20.5,12.52-44.75,17.33-68.62,20.03-30.43,3.44-61.11,3.82-91.73,4.19-43.36.53-86.74,1.05-130.07-.68-6.04-.24-12.17-.54-17.91-2.46s-11.12-5.69-13.63-11.19c2.47.16-10.84-7.1-8.79-8.48" fill="#c18235" stroke-width="0"/><path d="m116.91,107.44c5.83.46,28.09-3.26,58.44,1.57-32.25-5.5-29.35-2.54-64.26-5.53-5.35-.46-11.07-2.48-15.75.16s-7.12,9.34-4.42,14.13c2.45,4.36,10.36,1.52,15.34,2.04,4.62.48,8.81,2.82,12.85,5.12,6.25,3.55,12.5,7.1,18.74,10.65,16.92,9.61,33.84,19.22,50.75,28.83,7.9,4.49,15.86,9,24.45,11.96,11.89,4.09,24.61,5.08,37.18,5.5,28.58.96,57.17-.82,85.7-2.6,26.76-1.67,53.51-3.33,80.27-5,13.72-.85,27.94-1.85,40.01-8.42,20.99-11.42,32.36-37.98,55.42-44.26,3.48-.95,7.69-1.85,8.94-5.23,1.33-3.57-2.06-7.47-5.8-8.2s-7.53.69-11.1,2.01c-27.63,10.13-57.13,12.97-86.62,13.97,6.83,1.29,27.33-.84,23.38,1.15-5.97,3-46.27,4.81-53.65,1.51-2.26-1.01,12.29-1.62,18.07-2.41-24.22.76-53.34,3.61-79.62,2.56-3.31-.13-7.28.43-10.4.53-4.97.16-17.41-.14-22.33,0-6.34.18-13.64,1.3-19.9,1.43-8.83.18-19.54.28-28.23.24-12.47-.05-6.34-1.37-18.53-2.13-33.29-2.08-49.41-13.09-109.56-21.15" fill="#8f5622" stroke-width="0"/><polygon points="168.82 107.89 179.28 110.38 204.68 116.04 225.3 118.05 247.3 119.93 247.3 119.93 247.3 119.93 300.2 117.08 252.54 116.6 230.88 115.26 222.69 114.67 198.93 112.87 168.82 107.89" fill="#9a5d26" stroke-width="0"/><path d="m473.04,126.2c-1.06.58-2,1.4-3.22,1.63-1.37.44-2.83.41-4.15,1.02-1.86.5-3.64,1.24-5.45,1.87-.96.19-1.9.47-2.82.79-1.38.57-2.78,1.14-4.09,1.86-.88.48-1.65,1.22-2.66,1.44-4.1.39-8.08,1.39-12.13,2.11-4.94.12-9.63,1.65-14.41,2.7-2.37.57-4.77.89-7.2.78-3.57.46-7.13,1.02-10.65,1.79,3.49-.33,7-.52,10.51-.59,2.14.4,4.28.16,6.41-.21,3.54-.53,6.95-1.62,10.47-2.23,5.07-.94,10.15-1.81,15.28-2.38,1.29-.1,2.41-.7,3.39-1.52,1-.66,2.1-1.14,3.18-1.64,1.4-.68,2.88-1.18,4.38-1.57,1.32-.48,2.57-1.13,3.88-1.63,1.01-.42,2.03-.81,3.03-1.23,1-.23,2.02-.44,2.98-.84,1.28-.32,2.19-1.33,3.32-1.95,1.14-.64,2.37-1.21,3.7-1.27-1.33-.04-2.59.47-3.75,1.07h0Z" fill="#5c3810" stroke-width="0"/><path d="m188.79,125.35c-1.42-.4-2.96-.17-4.34-.71-2.27-1.12-4.47-2.54-7.01-3-1.62-.37-3.33-.29-4.92-.8-1.87-.67-3.67-1.52-5.7-1.58-2.38-.13-4.64-.87-6.88-1.61-1.2-.17-2.4-.17-3.6-.41-1.63-.2-3.28-.13-4.89-.44-3.24-.33-6.51.05-9.72.54,2.76-.35,5.55-.51,8.33-.36,1.49.14,2.95.52,4.45.55,1.75.15,3.48.49,5.21.78,1.11.34,2.11.98,3.25,1.25,2.78.89,5.48.79,8.12,2.2,2.76,1.12,5.84.96,8.6,2.11,2.3.51,4.32,2.13,6.76,1.8.91-.09,1.82.06,2.73.08.82.01,1.69-.13,2.47.21-.86-.54-1.92-.39-2.87-.59v-.02Z" fill="#5c3810" stroke-width="0"/><path d="m454.36,154.15c-2.79,1.95-5.65,3.82-8.44,5.79-2.45,2.24-5.39,3.84-8.06,5.8,2.69-1.17,5.48-2.27,7.69-4.25,3.27-2.11,6.12-4.75,9-7.35.16-.13.33-.25.51-.37-.25.1-.49.22-.71.38h0Z" fill="#5c3810" stroke-width="0"/><path d="m111.51,110.86c-.83,0-1.67-.03-2.46-.32-.53-.16-1.04-.48-1.62-.4-1.39.12-2.54.86-3.64,1.67-1.55.97-2.81,2.27-4.06,3.59,1.14-.86,2.23-1.78,3.56-2.35,1.15-.62,2.32-1.15,3.6-1.42,1.17-.15,2.37.26,3.53-.16.44-.24,2.58-.71,1.09-.62h0Z" fill="#5c3810" stroke-width="0"/><path d="m257.68,161.99c-2.49-.69-4.98-1.45-7.6-1.32-2.85.12-5.66.82-8.48,1.19-1.42-.1-2.82-.35-4.25-.4-.9-.06-1.74-.47-2.66-.36-5.52.05-11.09.37-16.54-.73,5.32,1.66,10.95,2.03,16.48,2.43,1.95.57,3.97.67,5.99.88,2.82-.17,5.59-.97,8.41-1.14,3.2-.23,6.37.09,9.56.27.75-.01,1.5-.09,2.23-.28-1.07.02-2.15-.14-3.15-.53h0Z" fill="#5c3810" stroke-width="0"/><path d="m432.84,144.92c-3.57.59-7.39.25-10.77,1.59-4.91,2.13-10.29,3.03-15.39,4.63-3.3.28-3.59,1.91-6.81,2.63-3.39.98-11.26,2.84-14.8,3.27-3.24.3-8.78,1.19-11.83,2.15-9.47,2.31-15.29,4.47-25.82,4.47-3.02.48-7.65.19-10.59,1.04-3.98.89-5.59-.49-9.63.07-5.9,1.32-11.83,2.48-17.86,3.24,5.98-.26,11.85-1.21,17.78-1.83,4.24-.09,8.49.19,12.7-.39,2.5-.1,5.02.09,7.51-.19,4.01-.57,8-1.22,12.01-1.76,3.5-.23,6.98-.55,10.42-1.21,3.6-.44,7.12-1.22,10.56-2.28,2.89-.47,5.8-.8,8.69-1.3,2.3-.38,4.42-1.3,6.59-2.07,3.37-1.12,6.88-1.89,10.21-3.09,4.87-2.86,10.65-3.85,15.91-5.98,3.36-1.26,7.12-.82,10.64-1.47,4.18-.6,7.97-2.37,11.87-3.75,2.28-1.13,5.22-1.52,6.94-3.35-1.58,1.46-4.12,1.52-6.09,2.4-4.05,1.13-7.97,2.74-12.22,3.17h-.02Z" fill="#5c3810" stroke-width="0"/><path d="m451.46,139.03c-.09.12-.21.22-.31.32.01,0,.02-.02.03-.02.1-.1.19-.2.28-.3h0Z" fill="#5c3810" stroke-width="0"/><path d="m287.73,153.36c-3.41.46-6.84.16-10.27.23-1.6-.15-3.2-.06-4.8-.12-1.41-.07-2.77-.46-4.18-.45-2.81-.2-5.61-.61-8.41-.91-2.36-.23-4.72-.48-7.02-1.09-4.11-.44-8.29.01-12.4-.61-3.11-.77-6.19.29-9.29.39-2.24.12-4.49.11-6.71.37-2.32.49-4.66.87-7.03.78-2.08,0-4.12-.26-6.13-.77-1.57,0-3.12-.14-4.66-.43-1.11-.11-2.23,0-3.35-.08-1.49-.04-2.86-.7-4.29-1.04-2.55-.5-5.17-.58-7.71-1.13,2.38.7,4.85,1,7.25,1.59,1.32.37,2.54,1.08,3.89,1.34,1.25.23,2.54.18,3.8.37,1.35.29,2.68.67,4.07.65,2.11.3,4.16.98,6.3,1.14,2.92.46,5.59-.13,8.47-.16,2.34.05,4.69.28,7.03.25,1.84-.15,3.71-.36,5.55-.06,4.63,1.21,9.44.56,14.15.96,2.97.75,6.04.62,9.08.76,3.71.05,7.43.37,11.15.15,5.91-.88,11.96-.67,17.77-2.16,1.5-.39,3.01-.76,4.5-1.19-2.24.47-4.48,1-6.76,1.22h0Z" fill="#c18235" stroke-width="0"/><path d="m96.2,106.68s-.02.05-.04.12v-.02s-.01.04-.02.05c-.02.18-.06.38-.1.56-.06.1-.12.2-.2.28-.49.5-1.01.97-1.42,1.53-.57.97-1.36,1.56-2.35.68-.02-.02-.04-.04-.06-.07.49-.7,1.02-1.39,1.62-2-.79.55-1.66,1.22-1.88,2.2-.09.31-.29.67-.06.96,1.24,1.55,1.88.2,2.66-.88.67-.91,1.56-1.7,1.78-2.86.06-.17.1-.52.08-.58.14-.37.06-.2-.02,0v.03Z" fill="#5c3810" stroke-width="0"/><path d="m511.26,117.72c-1.65.32-2.36.82-3.79,1.26-1.63.22-3.03,1.08-4.59,1.53-.93.26-1.82.58-2.56,1.23-.85.54-1.8.9-2.65,1.45-.76.69-1.3,1.62-1.85,2.47-.67.72-1.55,1.21-2.23,1.92-.77.83-1.22,1.9-2,2.71-1.5,1.41-3.05,2.78-4.45,4.29,1.37-1.41,2.9-2.66,4.41-3.92.66-.66,1.07-1.53,1.75-2.18.62-.58,1.42-.95,2.05-1.53.65-.79,1.13-1.82,2-2.4,1.09-.61,2.32-.85,3.37-1.53,1.52-.61,3-1.26,4.29-2.29.78-.49,1.71-.64,2.55-1,1.12-.61,2.23-1.19,3.45-1.58.86-.29,1.52-.91,2.29-1.35-.7.28-1.31.76-2.06.93h.02Z" fill="#5c3810" stroke-width="0"/></g><g id="e"><path d="m208.67,133.76c-4.93-.94-10.06-.87-14.87-2.38-3.66-.98-7.26-2.18-11.01-2.79-1.26-.2-2.29-1.07-3.58-1.16-2.34-.35-4.66-.75-6.92-1.45-2.06-.35-4.13-.68-6.15-1.21-1.99-.23-3.91-.67-5.76-1.45-1.54-.35-3.18-.5-4.58-1.3-2.51-1.35-5.38-1.86-8.15-2.38-2.14-.27-4.32-.3-6.4-.88-1.42-.34-2.76-.97-4.21-1.24-1.26-.27-2.63-.16-3.81-.73-1.41-.78-3.02-.92-4.58-1.22-2.93-1.05-5.91-1.96-8.95-2.66,3.01.85,5.93,1.9,8.81,3.1,1.57.38,3.21.61,4.58,1.53,1.3.69,2.84.64,4.2,1.17,1.78.7,3.52,1.53,5.41,1.93,4.23.73,8.63,1.42,12.37,3.65,1.37.88,3.02,1.13,4.54,1.63,1.02.44,1.99,1.03,3.09,1.28,2.77.68,5.55,1.27,8.4,1.5,2.29.51,4.57.89,6.92,1,1.09.03,2.1.36,3.1.74.95.25,1.95.28,2.93.41,4.11.48,8.11,1.62,12.19,2.32,4.11.38,8.26.41,12.37.87,1.64.12,3.28.06,4.92.03-1.63-.04-3.26-.08-4.87-.3h0Z" fill="#c18235" stroke-width="0"/><path d="m362.02,172.06c-3.99.62-8.08,1.14-12.21,1.06-4.12-.08-8.26-.05-12.37.15-3.9.13-7.87.71-11.75.18-1.4-.09-2.75-.34-4.14-.45-1.13,0-2.17-.24-3.25-.42-2.33-.13-4.68-.19-7.02-.29-2.31-.14-3.08.84-5.39.76-2.63-.14-8.3.55-10.91.37-4.09-.02-8.01-.21-12.02.37-3.57.22-5.65-.76-9.26-.75-3.43.01-6.87-.05-10.3-.02-1.41.14-2.75.49-4.18.62-2.93.18-5.86.4-8.75.76-3.33.48-6.53,1.3-9.77,1.97,3.26-.54,6.47-1.32,9.82-1.59,2.97-.08,5.95-.02,8.92-.1,1.35-.05,2.66-.36,4.02-.24,3.73.37,7.45.79,11.21,1.01,3.75.19,7.53-.09,11.27.2,2.73.15,5.39.6,8.14.66,1.57-.13,3.14-.16,4.73-.19,3.18-.05,6.15-.76,9.22-1.21,3.9-.25,7.83-.31,11.73-.5,2.19-.03,4.37.2,6.56.27,4.14.14,8.27-.34,12.38-.6,2.51-.11,5-.23,7.5-.39,2.18-.09,4.38-.02,6.54-.25,1.82-.2,3.63-.41,5.44-.64,1.56-.27,3.05-.68,4.66-.83-.27.03-.54.06-.81.09h-.01Z" fill="#c18235" stroke-width="0"/><path d="m505.53,116.58c-1.17.24-2.12.99-3.26,1.29-1.34.32-2.71.11-4.06.32-2.42.2-4.73,1.37-6.4,3.12-1.81.88-3.32,2.23-5.12,3.12-.94.42-1.73,1.04-2.34,1.87-.87.93-1.76,1.85-2.45,2.93-1.29,2.58-2.11,5.38-3.55,7.88-.81,1.68-2.52,2.57-3.91,3.69-1.44,1.14-2.34,2.74-3.5,4.14-2.62,2.53-5.25,5.11-8.29,7.15-2.57,1.86-4.89,4.05-7.52,5.84,2.15-1.34,4.12-2.96,6.18-4.44,1.9-1.29,3.87-2.49,5.58-4.02,1.14-1.15,2.51-2.05,3.63-3.22,1.13-1.3,2-2.8,3.4-3.84,1.07-.82,2.29-1.47,3.2-2.48,1.64-2.2,2.3-4.89,3.52-7.31.39-1,.92-2.05,1.9-2.57.64-.23,1.11-.85,1.79-.93,1.53-.69,3.01-1.46,4.33-2.51,2.63-1.6,4-4.06,7-5.26,2.19-1.22,4.88-1.19,6.98-2.59.97-.71,1.89-1.47,2.93-2.09.07-.04.15-.09.22-.13-.09.02-.18.04-.27.07v-.03Z" fill="#c18235" stroke-width="0"/><path d="m160.03,138.24c-1.9-.45-3.82-.92-5.78-1.06-1.23-.09-2.42.32-3.65.3-.82-.07-1.62-.24-2.43-.39-1.78-.29-3.21-1.37-4.64-2.37-1.72-.95-3.6-1.56-5.31-2.54-1.01-.58-1.68-1.58-2.64-2.22-.68-.52-1.55-.7-2.3-1.11-2.65-1.54-5.16-3.32-7.89-4.76,2.72,1.68,5.2,3.72,7.89,5.43.82.45,1.73.76,2.4,1.44.79.67,1.36,1.57,2.24,2.13,1.71,1.13,3.63,1.91,5.35,3.02,1.48,1.18,2.96,2.47,4.89,2.83,1.84.73,3.67-.02,5.54-.11,2.64.02,5.27.38,7.91.41,1.02,0,2.03-.14,3.04-.22-1.56-.18-3.11-.38-4.64-.78h.02Z" fill="#c18235" stroke-width="0"/><path d="m499.2,114.52c-.86.27-1.75.47-2.65.52-1.14.26-2.3.53-3.43.86-1.31.27-2.65.37-3.93.78-1.43.52-2.86,1.06-4.38,1.22-1.06.12-2.11.22-3.1.63-1.34.58-2.78.85-4.23,1.01-2.73.42-5.32.51-8.04,1.07-1.78.23-3.64.46-5.24,1.34-2.06,1.22-4.4,1.84-6.6,2.76-1.08.6-2.28.9-3.38,1.45-.89.43-1.76.94-2.74,1.1-5.83.98-11.65,2.05-17.5,2.98-2.19.29-4.4.26-6.59.55-3.02.04-6,.6-9.01.81,4.83-.19,9.62-.83,14.45-.78,4.63-.43,9.22-1.31,13.77-2.21,1.71-.2,3.43-.27,5.11-.71,1.24-.4,2.42-.97,3.72-1.18,1.24-.26,2.42-.75,3.7-.88,1.11-.28,2.24-.49,3.35-.78.59-.19,1.16-.45,1.78-.54,1.6-.25,3.21-.43,4.83-.57.89-.16,1.74-.54,2.65-.67,3.41-.59,6.88-1.25,9.99-2.84,1.03-.45,2.18-.52,3.25-.86,1.3-.36,2.48-.99,3.69-1.58,1.35-.62,2.81-.92,4.21-1.36,1.39-.53,2.79-1.11,4.25-1.41.89-.19,1.72-.57,2.57-.88-.16.05-.33.1-.49.15v.02Z" fill="#c18235" stroke-width="0"/><path d="m278.53,138.48c-5.58-.28-11.18-.61-16.76-.32-4.17-.1-8.36.55-12.51-.02-1.89-.23-3.75-.69-5.65-.81-2.14-.11-3.74-.31-5.74-1.13-3.82-.74-7.74-.67-11.58-1.23,3.57.83,7.26.94,10.8,1.9,1.39.38,2.57,1.35,4.03,1.5,2.65.28,5.22.96,7.83,1.43,4.7.69,9.49.12,14.21-.11,5.64-.38,11.31-.22,16.94-.75.93-.13,1.84-.38,2.74-.67-1.42.28-2.87.34-4.31.21h0Z" fill="#c18235" stroke-width="0"/><path d="m410.44,132.63c-2.53.04-4.78-.91-7.26-1.09-3.96-.32-8-.25-11.85-1.06-2.48-.5-5.09-.41-7.61-.74-4.41-.91-9.15-1.53-13.77-1.16-3.4.43-6.86.38-10.28.59-4.36.2-8.71.52-13.07.44-3.12.16-6.23.46-9.35.62-2.38.25-4.73.71-7.14.81-3.43.22-6.83.14-10.25.05-5.98.44-11.98.94-17.9,1.79,5.72-.8,11.54-1.29,17.34-1.48,1.58-.03,3.13.23,4.69.35,1.93.13,3.88.04,5.82.04,2.38-.02,4.72-.43,7.08-.6,2.75-.07,5.5-.23,8.25-.34,7.72.2,15.52.44,23.25.07,2.44-.25,4.86-.03,7.28.13,2.33,0,4.55.49,6.81.85,2.46.31,4.99.13,7.45.42,5.84.8,11.87-.51,17.66.59,2.58.2,5.2-.1,7.76-.38-1.64.1-3.27.24-4.92.13v-.03Z" fill="#c18235" stroke-width="0"/><path d="m458.9,146.06c-.74,1.13-1.8,2.05-2.98,2.72-1.5.7-3.12,1.1-4.42,2.18-3.1,1.92-6.42,3.37-9.7,4.91-1.51.88-2.67,2.27-4.32,2.92-1.28.56-2.58,1.11-3.61,2.07-1.28,1.14-2.65,2.49-4.48,2.54-1.49.03-2.92.48-4.41.57-1.45.22-2.84.69-4.3.87-2.06.4-4.17.13-6.23.46-3.66.87-7.33,1.63-11.07,2.14-2.09.64-4.23.96-6.4,1.19-2.92.44-5.82,1-8.75,1.3,4.2-.16,8.38-.72,12.58-.92,2.1-.53,4.27-.52,6.42-.66,3.12-.15,6.19-.83,9.32-.75,4.37.16,8.48-1.72,12.81-1.95,1.88-.44,3.06-2.05,4.58-3.11,1.98-1.24,4.32-1.82,5.98-3.56,1.75-1.37,3.91-2.02,5.84-3.07,2.4-1.59,4.8-3.19,7.08-4.95,2.49-1.16,4.96-2.61,6.26-5.13.44-.59-.07.05-.19.24h0Z" fill="#c18235" stroke-width="0"/><path d="m236.83,170.8c-2.56.13-5.14.52-7.7.17-2.48-.55-4.96-1.12-7.39-1.88-1.07-.37-2.01-1-3.12-1.26-2.01-.52-4.1-.64-6.05-1.38-1.45-.43-2.69-1.35-4.14-1.78-2.05-.83-4.23-1.17-6.33-1.87-1.62-.67-3.12-1.59-4.75-2.22-2.09-.76-4.12-1.75-5.97-2.98-.68-.63-1.15-1.46-1.87-2.06-.9-.67-1.97-1.08-2.96-1.6-2-1.02-4.11-1.77-6.09-2.85-1.97-.83-4.06-1.21-6.15-1.61-1.4-.18-2.64-.85-3.98-1.24-2.88-.63-5.85-.79-8.77-1.17,2.84.65,5.74,1.06,8.52,1.92,1.32.51,2.53,1.27,3.93,1.58,2.03.56,4.06,1.13,5.94,2.1,1.92,1.25,4,2.17,5.95,3.35.93.58,1.94,1.06,2.79,1.75.67.63,1.15,1.44,1.72,2.15,1.58,1.22,3.43,2.15,5.27,2.93,1.93.68,3.68,1.77,5.57,2.53,2.12.67,4.3,1.04,6.38,1.83,1.55.45,2.91,1.41,4.49,1.76,1.92.65,3.97.61,5.93,1.08,1.07.19,1.99.77,3.04,1.04,2.64.63,5.33,1.1,8.04,1.24,3.01,0,5.92-.92,8.91-1.1,1.72-.02,3.39-.48,5.04-.92-2.07.53-4.14.62-6.26.47v.02Z" fill="#c18235" stroke-width="0"/><path d="m514.98,110.05c-1.07.2-2.12.53-3.2.68-1.11.18-2.06.77-3.1,1.14-1.91.36-3.6,1.43-5.34,2.24,1.6-.31,3.15-.99,4.79-.99,1.07-.13,2.04-.72,3.08-.99,1.27-.3,2.41-.95,3.55-1.57.29-.16.56-.37.83-.57.05-.05.09-.12.12-.18-.05.06-.16.09-.23.1-.16.05-.32.12-.48.15h-.02Z" fill="#c18235" isolation="isolate" opacity=".71" stroke-width="0"/><path d="m515.71,109.72s0,.06-.02.09c.02-.02.03-.05.02-.09Z" fill="#c18235" isolation="isolate" opacity=".71" stroke-width="0"/><path d="m97.83,107.73c.56-1.15,1-2.33.92-3.56-.18-.46-.75-.79-1.31-.72-.46.13-.8.49-1.3.58.34.13.69-.01,1.02.03.34.11.54.39.7.65.33.51.34,1.1.24,1.67-.23.34-.43.7-.55,1.09-.14.35-.26.7-.39,1.04-.17.45-.35.9-.52,1.35-.39.71-.73,1.44-.99,2.2.08-.2.51-1.29.31-.82-.62,1.42-2.24,5.03-4.27,2.62-.63-.84-.92-1.82-1.3-2.76-.16-.44-.04-.89.06-1.34.54-.92,1.31-1.73,1.86-2.65,1-1.15,2.54-1.88,4.02-2.48-1.62.42-3.42,1.02-4.22,2.4-.67.61-1.15,1.32-1.51,2.08v.02c-.53,1.11-.81,2.32-1.08,3.49-.01,1.71.55,3.47,1.31,5.04,1.09,1.52,2.01,1.33,2.67-.27.28-.43.89-1.88,1.16-2.55-.03.06-.05.13-.08.21.95-1.75,1.69-3.6,2.3-5.47.29-.56.6-1.12.88-1.7-.01.05-.03.11-.04.16.03-.1.07-.2.11-.31h0Z" fill="#c18235" stroke-width="0"/><path d="m133.75,111.64c-2.33-1.02-13.22-3.63-15.72-4.06-1.68-.31-3.33-.7-4.99-1.05-1.88-.56-3.2-.99-5.21-1.09-1.59-.13-3.26-.11-4.76.51-.91.59-1.82,1.22-2.58,1.98-1,1.13-1.74,2.47-2.45,3.8.68-1.2,1.35-2.44,2.31-3.44.76-.65,1.68-1.19,2.6-1.57,2.35-.4,4.74.14,7.04.6,3.06,1.63,6.56,1.54,9.92,1.95,1.32.03,2.56.43,3.87.61,1.18.21,16.51,3.86,17.72,3.8,1.09.08-7.38-1.84-7.74-2.02v-.02Z" fill="#c18235" stroke-width="0"/><path d="m136.9,123.7c-1.63-.55-3.22-1.2-4.8-1.91-.71-.25-1.29-.68-1.83-1.19-.52-.41-1.19-.53-1.8-.73-.88-.25-1.72-.63-2.58-.94-.69-.2-1.43-.15-2.1-.41-.77-.4-1.52-.87-2.24-1.36-.51-.32-1.14-.42-1.64-.77-.75-.48-1.47-.99-2.19-1.51-.85-.4-1.8-.57-2.61-1.07-1.22-.39-2.56-.35-3.82-.55-1.27,0-2.51.46-3.67.93-.96.61-1.86,1.13-2.95,1.49-1.23.56-2.39,1.29-3.65,1.79-1.74.34-3.57.07-5.33.35,1.82-.21,3.72.28,5.5-.12,1.05-.35,2.06-.83,3.11-1.17,1.03-.23,2.01-.58,2.99-.96,1.78-.46,3.6-.39,5.36.1.48.15.98.2,1.46.34.44.19.8.52,1.26.68.5.26,1.09.28,1.59.54.56.27.99.78,1.59.97.72.29,1.46.52,2.2.77.78.41,1.57.8,2.37,1.17.71.25,1.47.16,2.2.29.91.24,1.79.57,2.72.75.71.17,1.48.25,2.07.72.62.56,1.42.79,2.2,1.02,1.56.48,3.14.86,4.71,1.28,1.5.7,3.11,1.05,4.68,1.54-1.64-.6-3.27-1.18-4.8-2.04h0Z" fill="#c18235" stroke-width="0"/><path d="m480.04,126.09c-2.08,1.71-2.91,1.86-5.14,3.08-1.59.89-2.83,2.36-4.47,3.18-.94.62-1.95,1.17-2.75,2.01-.87.97-1.77,1.99-2.94,2.54-1.44.72-3.08.88-4.48,1.7-2.22,1.82-4.84,2.91-7.35,4.16-3.5,1.6-9.28,5.02-11.9,5.11-3.34,1.35-8.48,2.35-12.63,3.97,2.93-1.15,4.36-1.33,7.49-1.71,1.64-.2,4.85-1.41,6.5-1.53,1.81-.18,4.89-2.45,6.68-2.8,2.37-.49,1.84-.6,3.98-1.88,2.43-1.12,4.88-2.26,7.02-3.94,1.54-.76,3.3-.94,4.78-1.87,1.06-.66,1.85-1.69,2.72-2.6.96-.88,2.07-1.55,3.16-2.24,1.65-1.08,2.94-2.7,4.74-3.53,1.31-.74,2.69-1.37,3.97-2.17.98-.71,1.68-1.78,2.65-2.49.86-.67,5.4-3.42,7.83-5.46-3.23,2.39-8.72,5.55-9.83,6.46h-.03Z" fill="#c18235" stroke-width="0"/><polygon points="298.45 117.09 322.2 117.79 332.79 117.31 344.61 116.99 368.15 119.02 400.32 118.32 425.86 117.31 428.94 117.11 451.38 116.97 474.01 114.58 489.91 111.85 503.13 108.88 510.34 108.11 501.47 108.77 484.82 111.67 464.17 114.08 435.89 115.89 402.53 115.3 384.44 115.67 342.94 115.39 335.78 115.48 304.12 116.95 298.45 117.09" fill="#9a5d26" stroke-width="0"/><path d="m422.15,126.61c0,.3-8.9,1.5-20.9,1.5s-9.83-1.65-9.25-1.77c7.34-1.44,15.28-1.52,21.41-1.16,11.97.7,8.75,1.13,8.75,1.43h-.01Z" fill="#8f5622" stroke-width="0"/><polygon points="403.12 126.12 401.11 126.49 400.31 126.76 399.99 126.99 399.86 127.2 400.23 127.41 401.87 127.68 404.04 127.77 408.51 127.53 412.69 126.99 414.33 126.47 414.36 126.11 414.02 125.9 413.08 125.81 410.68 125.57 409.94 125.72 403.12 126.12" fill="#c18235" stroke-width="0"/><path d="m207.2,144.18c-2.27-.49-4.59-.7-6.84-1.3-1.94-.55-3.55-1.85-5.42-2.55-2.51-.48-5.13,0-7.63-.61-1.42-.49-2.83-1.03-4.27-1.46-.74-.18-1.51-.25-2.22-.57-.84-.33-1.68-.69-2.45-1.16-.51-.43-.98-.93-1.61-1.2-2.28-.89-4.73-1.33-6.99-2.29-.67-.23-1.24-.64-1.83-1.03-.97-.46-1.96-.86-2.89-1.39-1.32-.68-2.81-.9-4.25-1.23-3.73-1.4-18.51-6.39-22.95-7.4,3.86,1.98,8.72,3.25,11.33,4.08,1.27.49,3.92,1.55,5.25,1.89,1.73.78,2.81.39,4.22,1.38,1.29.58,4.46,1.71,5.73,2.33,2.28,1.08,6.88,3.37,9.19,4.35.56.28,1.37.23,1.85.62.58.37,3.6,2.32,4.23,2.6.96.44,2,.55,3.03.76,1.46.37,2.89.88,4.34,1.25,2.51.42,5.07-.17,7.58.17,1.86.58,3.51,1.75,5.43,2.19,2.58.56,5.26.52,7.84,1.07,1.25.34,2.53.52,3.81.65-1.53-.25-3-.71-4.47-1.15h0Z" fill="#c18235" stroke-width="0"/></g></g></svg>