<?xml version="1.0" encoding="UTF-8"?><svg id="b" xmlns="http://www.w3.org/2000/svg" viewBox="0 0 259.09 244.36"><g id="c"><g id="d"><g id="e"><path d="M86.45,183.6v-9.71l74.94-3.47-.96,13.18H86.45Z" fill="#c6d325"/><path d="M65.3,183.7l-1.11-150.93c.4-.28,1.03-.64,1.88-.87,.93-.25,1.72-.22,2.21-.16,1.8,31.46,3.03,63.91,3.66,97.29,.35,18.54,.48,36.77,.4,54.67h-7.04Z" fill="#ef7c00"/><path d="M160.43,183.6L157.82,.43c.82-.1,2.03-.14,3.44,.18,1.67,.37,2.92,1.09,3.65,1.6,1.28,60.47,2.55,120.93,3.83,181.4h-8.31Z" fill="#ef7c00"/><path d="M105.63,187.09c2.72,0,4.92-2.25,4.92-5.02s-2.2-5.02-4.92-5.02-4.92,2.25-4.92,5.02,2.2,5.02,4.92,5.02Z" fill="#29485d"/><path d="M128.36,187.09c2.72,0,4.92-2.25,4.92-5.02s-2.2-5.02-4.92-5.02-4.92,2.25-4.92,5.02,2.2,5.02,4.92,5.02Z" fill="#29485d"/><path d="M151.08,187.09c2.72,0,4.92-2.25,4.92-5.02s-2.2-5.02-4.92-5.02-4.92,2.25-4.92,5.02,2.2,5.02,4.92,5.02Z" fill="#29485d"/><path d="M15.25,183.6H231.71c-6.98,11.57-22.23,33.03-49.51,47.32-55.02,28.85-109.61,2.67-114.95,0-28.2-14.11-44.4-35.52-52-47.32Z" fill="#7b493f"/><path d="M0,180.02l20.31,5.57c1.43-.55,2.85-1.09,4.28-1.64-8.2-1.31-16.39-2.62-24.59-3.93Z" fill="#7b493f"/><path d="M257.96,171.66c-9.7,4.59-19.41,9.17-29.11,13.76-2.63-.61-5.27-1.22-7.9-1.82l37.01-11.93h0Z" fill="#7b493f"/><path d="M15.25,183.6H231.71c-1.77,3-3.86,6.23-6.34,9.57-2.32,3.13-4.63,5.9-6.83,8.34-62.8,.46-125.58,.92-188.38,1.38-2.97-3.22-6.06-6.88-9.15-11-2.13-2.84-4.05-5.62-5.76-8.28Z" fill="#a16053"/><path d="M27.72,185.96c.57,1.79,1.37,3.89,2.53,6.12,1.46,2.81,3.08,5.03,4.48,6.72" fill="none" stroke="#c6d325" stroke-linecap="round" stroke-miterlimit="10" stroke-width="2.57"/><path d="M37.3,185.96c.3,1.51,.73,3.18,1.35,4.97,1.14,3.24,2.57,5.87,3.87,7.87" fill="none" stroke="#c6d325" stroke-linecap="round" stroke-miterlimit="10" stroke-width="2.57"/><path d="M46.37,185.96c.18,1.63,.5,3.52,1.09,5.57,.86,3.03,2.01,5.52,3.06,7.4" fill="none" stroke="#c6d325" stroke-linecap="round" stroke-miterlimit="10" stroke-width="2.57"/><path d="M55.98,185.96c.24,1.71,.59,3.58,1.09,5.57,.72,2.87,1.61,5.39,2.51,7.54" fill="none" stroke="#c6d325" stroke-linecap="round" stroke-miterlimit="10" stroke-width="2.57"/><path d="M65.79,185.96c.24,1.71,.59,3.58,1.09,5.57,.72,2.87,1.61,5.39,2.51,7.54" fill="none" stroke="#c6d325" stroke-linecap="round" stroke-miterlimit="10" stroke-width="2.57"/><path d="M75.64,185.96c.22,2.04,.52,4.2,.91,6.45,.45,2.56,.97,4.97,1.53,7.2" fill="none" stroke="#c6d325" stroke-linecap="round" stroke-miterlimit="10" stroke-width="2.57"/><path d="M87.43,185.96c.17,2.32,.35,4.68,.57,7.08,.21,2.32,.43,4.6,.68,6.84" fill="none" stroke="#c6d325" stroke-linecap="round" stroke-miterlimit="10" stroke-width="2.57"/><path d="M221.1,185.42c-.67,1.8-1.52,3.79-2.62,5.88-1.44,2.75-2.97,5.06-4.39,6.96" fill="none" stroke="#c6d325" stroke-linecap="round" stroke-miterlimit="10" stroke-width="2.57"/><path d="M212.77,185.42c-.3,1.51-.73,3.18-1.35,4.97-1.14,3.24-2.57,5.87-3.87,7.87" fill="none" stroke="#c6d325" stroke-linecap="round" stroke-miterlimit="10" stroke-width="2.57"/><path d="M204.06,185.42c-.18,1.63-.5,3.52-1.08,5.57-.86,3.03-2.01,5.52-3.06,7.4" fill="none" stroke="#c6d325" stroke-linecap="round" stroke-miterlimit="10" stroke-width="2.57"/><path d="M196.43,185.42c-.37,1.7-.88,3.58-1.59,5.58-1.02,2.89-2.21,5.34-3.36,7.35" fill="none" stroke="#c6d325" stroke-linecap="round" stroke-miterlimit="10" stroke-width="2.57"/><path d="M178.24,185.42c-.24,1.71-.59,3.58-1.09,5.57-.72,2.87-1.61,5.39-2.51,7.54" fill="none" stroke="#c6d325" stroke-linecap="round" stroke-miterlimit="10" stroke-width="2.57"/><path d="M187.9,185.51c-.43,1.68-1,3.53-1.76,5.49-1.11,2.86-2.37,5.28-3.57,7.27" fill="none" stroke="#c6d325" stroke-linecap="round" stroke-miterlimit="10" stroke-width="2.57"/><path d="M169.36,185.42c-.22,2.04-.52,4.2-.91,6.45-.45,2.56-.97,4.97-1.53,7.2" fill="none" stroke="#c6d325" stroke-linecap="round" stroke-miterlimit="10" stroke-width="2.57"/><path d="M160.77,185.42c-.17,2.32-.35,4.68-.57,7.08-.21,2.32-.43,4.6-.68,6.84" fill="none" stroke="#c6d325" stroke-linecap="round" stroke-miterlimit="10" stroke-width="2.57"/><path d="M97.04,185.96c.17,2.32,.35,4.68,.57,7.08,.21,2.32,.43,4.6,.68,6.84" fill="none" stroke="#c6d325" stroke-linecap="round" stroke-miterlimit="10" stroke-width="2.57"/><path d="M106.32,186.02c.11,2.31,.22,4.66,.32,7.02,.09,2.29,.17,4.57,.23,6.83" fill="none" stroke="#c6d325" stroke-linecap="round" stroke-miterlimit="10" stroke-width="2.57"/><path d="M113.39,186.02c.12,2.31,.22,4.66,.32,7.02,.09,2.29,.17,4.57,.23,6.83" fill="none" stroke="#c6d325" stroke-linecap="round" stroke-miterlimit="10" stroke-width="2.57"/><path d="M121.13,186.02c.17,2.21,.28,4.56,.32,7.02,.04,2.36,0,4.61-.09,6.74" fill="none" stroke="#c6d325" stroke-linecap="round" stroke-miterlimit="10" stroke-width="2.57"/><path d="M128.61,186.02c.17,2.21,.28,4.56,.32,7.02,.04,2.36,0,4.61-.09,6.74" fill="none" stroke="#c6d325" stroke-linecap="round" stroke-miterlimit="10" stroke-width="2.57"/><path d="M136.95,186.02c.17,2.21,.28,4.56,.32,7.02,.04,2.36,0,4.61-.09,6.74" fill="none" stroke="#c6d325" stroke-linecap="round" stroke-miterlimit="10" stroke-width="2.57"/><path d="M144.61,186.02c.23,2.06,.37,4.42,.32,7.02-.05,2.42-.27,4.61-.55,6.53" fill="none" stroke="#c6d325" stroke-linecap="round" stroke-miterlimit="10" stroke-width="2.57"/><path d="M152.18,186.02c.23,2.06,.37,4.42,.32,7.02-.05,2.42-.27,4.61-.55,6.53" fill="none" stroke="#c6d325" stroke-linecap="round" stroke-miterlimit="10" stroke-width="2.57"/><path d="M59.69,45.65c.85-2.07,1.84-4.25,3-6.51,.83-1.62,1.67-3.14,2.51-4.55" fill="none" stroke="#ef7c00" stroke-miterlimit="10" stroke-width="2.57"/><path d="M66.19,40.86c.72,1.57,1.84,3.59,3.58,5.65,1.45,1.74,2.92,3.01,4.15,3.93" fill="none" stroke="#ef7c00" stroke-miterlimit="10" stroke-width="2.57"/><path d="M67.25,176.33c-.93-1.44-2.33-3.28-4.33-5.08-1.68-1.5-3.32-2.56-4.66-3.28" fill="none" stroke="#ef7c00" stroke-miterlimit="10" stroke-width="2.57"/><path d="M69.75,175.64c.93-1.44,2.33-3.28,4.33-5.08,1.68-1.5,3.32-2.56,4.66-3.28" fill="none" stroke="#ef7c00" stroke-miterlimit="10" stroke-width="2.57"/><path d="M164.24,158.49c.93-1.44,2.33-3.28,4.33-5.08,1.68-1.5,3.32-2.56,4.66-3.28" fill="none" stroke="#ef7c00" stroke-miterlimit="10" stroke-width="2.57"/><path d="M233.88,147.08c1.7-.07,3.97,0,6.57,.62,2.18,.51,3.97,1.25,5.33,1.94" fill="none" stroke="#ef7c00" stroke-miterlimit="10" stroke-width="2.57"/><path d="M163.89,10.06l5.27,10.58" fill="none" stroke="#ef7c00" stroke-miterlimit="10" stroke-width="2.57"/><path d="M111.41,19.75c10.92-1.52,24.68-5.05,38.64-13.3,2.96-1.74,5.69-3.57,8.22-5.41" fill="none" stroke="#ef7c00" stroke-miterlimit="10" stroke-width="2.57"/><path d="M164.47,2.67c31.16,56.33,62.33,112.66,93.49,168.99" fill="none" stroke="#ef7c00" stroke-miterlimit="10" stroke-width="2.57"/><path d="M168.74,19.17l2.9,131.89c1.79,.56,4.49,1.26,7.82,1.56,11.43,1.04,14.38-4.08,25.86-4.72,8.73-.48,9.72,2.32,20.9,1.74,5.51-.29,10.02-1.22,13.02-1.98-23.5-42.84-47-85.67-70.5-128.51h0Z" fill="#29485d"/><path d="M0,180.02L60.13,43.67v125.85c-7.82-.03-16.81,.47-26.69,1.96-13.09,1.99-24.34,5.22-33.44,8.52H0Z" fill="#29485d"/><path d="M71.28,48.34l6.22,119.64,64.27-2.12c-7.95-27.25-15.36-57.22-21.43-89.73-3.7-19.78-6.6-38.8-8.84-56.96-13.41,9.72-26.82,19.45-40.22,29.17h0Z" fill="#29485d"/></g></g></g></svg>