<?xml version="1.0" encoding="UTF-8"?><svg id="b" xmlns="http://www.w3.org/2000/svg" xmlns:xlink="http://www.w3.org/1999/xlink" viewBox="0 0 259.62 104.31"><defs><clipPath id="e"><rect width="259.62" height="104.31" fill="none"/></clipPath><mask id="f" x="-4.65" y="35.09" width="62.14" height="47.22" maskUnits="userSpaceOnUse"><g id="g"><path d="m55.47,43.47s-12.24-3.13-21.39-5.29c-9.15-2.16-28.52-4.09-30.9-2.52-2.38,1.56-4.28,11.66-.95,17.31,3.33,5.65-3.8,16.11-1.9,21.04,1.9,4.93,11.05,9.02,30.78.72,19.73-8.3,26.38-13.34,26.38-13.34l-1.54-15.51-.48-2.4Z" fill="#fff"/></g></mask><mask id="h" x="57.22" y="61.03" width="62.77" height="35.77" maskUnits="userSpaceOnUse"><g id="i"><path d="m119.99,74.61s-3.56-2.16-7.61,2.64-16.4,18.39-28.4,15.63c-12-2.77-25.79-7.45-24-18.39,1.78-10.94,2.85-10.1,6.54-9.74,3.68.36,6.52,1.89,7.3-.14.78-2.03.78-1.42.78-1.42l45.39,11.42Z" fill="#fff"/></g></mask><mask id="j" x="107.54" y="72.69" width="38.96" height="24.76" maskUnits="userSpaceOnUse"><g id="k"><path d="m145.9,76.41s-12.24,12.98-14.97,15.27c-2.73,2.28-12,6.01-14.97.96-2.97-5.05-3.68-15.51,4.4-15.51s12.24.84,15.09-.72c2.85-1.56,10.46,0,10.46,0Z" fill="#fff"/></g></mask><mask id="l" x="132.82" y="-3.65" width="45.39" height="38.11" maskUnits="userSpaceOnUse"><g id="m"><path d="m178.22,29.29s-3.68,1.32-7.37-4.57c-3.68-5.89-7.96-18.63-15.92-22.84-7.96-4.21-15.45-1.08-16.64,6.85-1.19,7.93.71,15.51,4.16,16.59,3.45,1.08,10.58,3.73,11.53,6.01.95,2.28,24.24-2.04,24.24-2.04Z" fill="#fff"/></g></mask><mask id="n" x="27.91" y="27.97" width="226.36" height="81.03" maskUnits="userSpaceOnUse"><g id="o"><path d="m204.42,34.15s1.07-.36,15.92,2.77c14.85,3.13,27.92,6.13,28.52,9.38.59,3.25-6.77,6.85-8.79,8.3-2.02,1.44,5.47-3.73,7.84-3.25,2.38.48,3.09,3.49.83,5.77-2.26,2.28-25.55,13.71-27.33,13.47-1.78-.24-2.73-.24-2.73-.24,0,0-7.31,3.55-8.97,3.43-1.66-.12-15.09,6.25-24.6,6.73-9.51.48-64.64-4.81-69.63-5.89-4.99-1.08-28.28-4.09-34.7-7.45-6.42-3.37-19.96-4.93-23.77-4.45-3.8.48-12.71,8.18-17.11,7.57-4.4-.6-15.8-7.57-10.69-19.24,5.11-11.66,8.2-11.06,19.49-9.38,11.29,1.68,7.72,4.57,25.91-.48,18.18-5.05,34.34-7.45,63.69-9.38,28.11-1.84,32.32-4.69,39.81-3.61,7.49,1.08,26.32,5.95,26.32,5.95Z" fill="#fff"/></g></mask><mask id="p" x="160.16" y="53.89" width="34.46" height="15.43" maskUnits="userSpaceOnUse"><g id="q"><path d="m184.4,64.87c-2.02-.12-8.44,3.73-11.29,3.85-2.85.12-8.44-2.16-8.91-5.17-.48-3.01-4.04-7.81-4.04-7.81,0,0,8.79-2.89,15.69-1.44,6.89,1.44,16.52,7.69,16.52,7.69l-7.96,2.89Z" fill="#fff"/></g></mask></defs><g id="c"><g id="d"><g clip-path="url(#e)" fill="none"><path d="m230.03,61.6c-2.84,3.7-5.28,7.85-6.28,12.48-.13.66-.22,1.34-.29,2-.24,2.08-.5,4.17-.78,6.24-.28,2.08-.59,4.15-.95,6.21-.38,2.04-.72,4.13-1.59,6.02-.43.96-1.36,1.51-2.23,2.02-.91.5-1.85.94-2.81,1.34-2.86,1.21-5.93,2.16-8.84,3.04,2-.56,3.99-1.18,5.96-1.86,2.17-.78,6.15-2.12,7.72-3.74.83-1.05,1.22-2.38,1.63-3.63,1.6-5.31,2.29-10.82,3.07-16.29.59-3.81,2.53-7.27,4.7-10.4.59-.83,1.22-1.66,1.88-2.43.65-.8-.47-1.81-1.18-1.01h0Z" fill="#fbf9e8"/><path d="m239.99,44.05c1.38-3.33,2.62-6.72,3.31-10.27.52-2.67.23-5.46-.62-8.03-.28-.85-.61-1.68-1.01-2.48,1.32,3.25,1.79,6.92.87,10.34-.67,2.55-1.69,5-2.79,7.39-.37.8-.76,1.6-1.16,2.37-.45.97.93,1.64,1.4.67h0Z" fill="#4d4239"/><path d="m236.84,42.45c.7-3.75,1.37-7.48,1.65-11.29.05-.68.06-1.36.03-2.05-.16-1.85-1.03-3.49-2.05-4.98-.51-.73-1.07-1.42-1.68-2.06,1.57,1.97,3.09,4.49,3.15,7.07-.02.87-.13,1.74-.26,2.6-.57,3.48-1.43,6.94-2.34,10.35-.24,1.04,1.25,1.41,1.5.36h0Z" fill="#4d4239"/><path d="m55.47,43.47s-12.24-3.13-21.39-5.29c-9.15-2.16-28.52-4.09-30.9-2.52-2.38,1.56-4.28,11.66-.95,17.31,3.33,5.65-3.8,16.11-1.9,21.04,1.9,4.93,11.05,9.02,30.78.72,19.73-8.3,26.38-13.34,26.38-13.34l-1.54-15.51-.48-2.4Z" fill="#735448"/><g fill="none" mask="url(#f)"><path d="m36.52,68.59c-3.43,1.15-6.89,2.32-10.07,4.07-.39.23-.78.48-1.15.78-.08.07-.16.13-.25.18-1.07.6-2.26.94-3.43,1.32-8.43,2.5-17.07,4.34-25.67,6.16l-.33.06-.16.03h-.08s-.03.02-.03.02c0,0,0,0,0,0,.03,0,.06,0,.09,0l-.08,1.08c.1,0,.21-.02.31-.04.1-.02.4-.09.51-.11,8.58-2.02,17.19-4.06,25.59-6.76,1.18-.42,2.4-.8,3.49-1.44.1-.06.21-.15.29-.22.33-.29.7-.54,1.07-.78,3.11-1.84,6.53-3.11,9.9-4.36h0Z" fill="#b4a6ac"/><path d="m35.97,66.12c-4.96,1.33-9.91,2.75-14.78,4.42-8.14,2.27-16.58,4.04-24.84,5.86l-.08,1.08c.15-.02.32-.04.46-.08.18-.04.75-.18.94-.22,7.9-1.96,15.84-3.86,23.63-6.26,4.82-1.8,9.72-3.35,14.66-4.81h0Z" fill="#b4a6ac"/><path d="m35.41,63.64c-5.57,1.22-11.15,2.4-16.78,3.35-.81.14-1.61.3-2.41.45-6.21,1.24-12.72,2.75-18.91,4.11-.02,0-.03.01-.05.03l-.08,1.08c.15-.01.31-.04.46-.08.18-.04.71-.18.89-.22,5.8-1.46,11.98-3.05,17.8-4.39.79-.18,1.59-.36,2.38-.52,5.6-1.1,11.15-2.44,16.69-3.81h0Z" fill="#b4a6ac"/><path d="m34.85,61.17c-6.11,1.07-12.26,1.99-18.45,2.39-5.45.36-10.81,1.48-16.12,2.69-.5.12-1.49.35-1.98.47l-.14.03s.02,0,.02.02l-.08,1.08c.23,0,.51-.11.73-.16l.56-.15c4.11-1.1,8.26-2.11,12.45-2.83,3.06-.55,6.16-.69,9.23-1.13,4.62-.63,9.21-1.45,13.77-2.4h0Z" fill="#b4a6ac"/><path d="m34.3,58.69c-6.95.97-13.97,1.61-20.99,1.55-3.53-.03-7.09.2-10.57.82-1.2.22-2.4.48-3.57.82l-.13.04-.06.02s.08-.01.12,0l-.08,1.08c.15,0,.32-.06.46-.11.26-.08.52-.17.78-.24,4.23-1.21,8.66-1.68,13.05-1.79,7.04-.15,14.05-1.01,20.99-2.19h0Z" fill="#b4a6ac"/><path d="m33.74,56.22c-7.01.76-14.1,1.08-21.15.85-2.76-.12-5.73-.35-8.49-.37-1.08,0-2.16,0-3.24.12-.37.05-.77.09-1.11.3-.25.16-.4.45-.28.77l.98-.43c.05.13.03.13.04.19,0,.04,0,.06,0,.09-.02.09-.05.16-.11.23-.03.03-.04.04-.06.05,0,0,0,0,0,0,.2-.09.44-.13.67-.17,3.64-.45,7.89-.19,11.57-.15,7.06.03,14.17-.5,21.16-1.47h0Z" fill="#b4a6ac"/><path d="m34.88,53.23c-.72-.12-1.45-.07-2.17-.08-4.96.06-10.25.24-15.19.19-5.07,0-10.13-.45-15.2-.45-.74.01-1.5,0-2.24.11h-.03s-.03.01-.03.01H-.02s.37,1.03.37,1.03c1.19-.15,2.81-.16,4.15-.18,4.34-.03,8.69.16,13.03.02,4.95-.1,10.23-.44,15.19-.66.72-.01,1.45-.08,2.17.02Z" fill="#b4a6ac"/><path d="m36.01,50.25c-.72-.17-1.47-.22-2.21-.28-2.23-.15-4.46-.2-6.69-.25-8.63-.14-18.15-.27-26.71-.86l-.08,1.08c1.29.07,3.17.1,4.48.12,8.57.22,18.17-.09,26.77-.08,1.48.04,2.98,0,4.44.26h0Z" fill="#b4a6ac"/><path d="m37.15,47.27c-1.49-.36-3.02-.5-4.54-.66-6.1-.54-12.22-.74-18.33-.92-4.55-.12-9.13-.16-13.63-.94l-.2,1.06c.41.07.78.11,1.17.16,2.68.3,5.37.39,8.06.41,7.64,0,15.29-.08,22.92.37,1.52.11,3.05.21,4.55.52h0Z" fill="#b4a6ac"/><path d="m38.29,44.29c-2.28-.58-4.65-.86-6.98-1.15-5.47-.62-10.97-1.03-16.48-1.23-1.34-.04-2.79-.05-4.13-.07-2.92-.08-5.84-.37-8.7-.96-.38-.08-.76-.16-1.12-.25l-.26,1.05c.79.18,1.57.31,2.37.42,2.55.37,5.13.54,7.71.53,1.34-.02,2.78-.05,4.12-.05,5.49.04,10.99.29,16.47.75,2.33.23,4.71.44,7,.95Z" fill="#b4a6ac"/><path d="m39.42,41.31c-1.57-.41-3.16-.71-4.75-.98-6.39-1.05-12.83-1.79-19.3-2.1-1.21-.06-2.44-.05-3.65-.03-2.8-.02-5.59-.46-8.32-1.08-.78-.18-1.56-.38-2.31-.6l-.29,1.04c.81.2,1.6.37,2.41.52,2.81.51,5.67.83,8.53.72,1.2-.07,2.42-.09,3.62-.06,6.45.18,12.91.78,19.3,1.7,1.6.24,3.19.51,4.77.88h0Z" fill="#b4a6ac"/></g><path d="m119.99,74.61s-3.56-2.16-7.61,2.64-16.4,18.39-28.4,15.63c-12-2.77-25.79-7.45-24-18.39,1.78-10.94,2.85-10.1,6.54-9.74,3.68.36,6.52,1.89,7.3-.14.78-2.03.78-1.42.78-1.42l45.39,11.42Z" fill="#735448"/><g fill="none" mask="url(#h)"><path d="m115.48,69.2c-1.93,2.24-3.81,4.52-5.49,6.96-.64.97-1.3,1.96-1.7,3.07-.03.06-.08.18-.1.24-.43.85-1.05,1.58-1.65,2.33-2.37,2.82-4.97,5.43-7.57,8.02-1.83,1.81-3.68,3.61-5.56,5.36-.13.12-.57.53-.72.66,0,0-.02.02-.01,0,.01,0,.03-.02.04-.02l.48.97c.18-.11.37-.32.53-.47,1.97-1.94,3.91-3.94,5.82-5.94,2.54-2.69,5.07-5.39,7.36-8.3.59-.78,1.21-1.57,1.63-2.47l.05-.14.05-.14c.36-1.08.97-2.07,1.57-3.03,1.59-2.48,3.4-4.83,5.26-7.11h0Z" fill="#b4a6ac"/><path d="m111.27,69.22c-2.87,3.33-5.75,6.66-8.74,9.89-4.98,5.14-10.59,10.1-15.86,14.97l.48.97c.11-.08.22-.17.32-.26.12-.11.48-.46.6-.57,4.41-4.29,9-8.77,13.26-13.19,3.49-3.78,6.68-7.82,9.93-11.79h0Z" fill="#b4a6ac"/><path d="m107.06,69.25c-3.12,3.63-6.38,7.16-10.08,10.19-.51.4-1.23.94-1.76,1.29-4.91,3.26-9.39,7.16-13.87,10.98l-.42.36-.21.18-.05.04-.03.02h0s-.01.02-.02.04l.48.97c.17-.12.37-.3.52-.44,4.48-4.06,8.95-8.23,13.88-11.72.53-.37,1.26-.95,1.76-1.37,3.62-3.15,6.79-6.8,9.8-10.53h0Z" fill="#b4a6ac"/><path d="m102.86,69.27c-1.92,2.29-3.99,4.44-6.18,6.47-2.19,2-4.51,3.89-7.09,5.34-.54.31-1.41.72-1.98,1-4.35,2.17-8.4,4.92-12.26,7.89-.16.13-.6.47-.77.61-.03.02-.02.01-.02.02,0,0,0,0,0,0l.48.97c.06-.04.16-.11.2-.15.18-.15.56-.47.75-.63,3.72-3.05,7.65-5.89,11.88-8.17.57-.3,1.42-.75,1.97-1.08,2.57-1.55,4.85-3.52,7-5.61,2.13-2.09,4.14-4.32,6-6.66h0Z" fill="#b4a6ac"/><path d="m98.65,69.3c-4.28,5.02-9.29,9.64-15.23,12.54-.79.37-1.79.76-2.61,1.07-3.9,1.53-7.75,3.22-11.36,5.36-.3.18-.64.38-.92.58l.48.97c.15-.1.36-.25.52-.35,3.63-2.37,7.56-4.23,11.54-5.93.82-.35,1.82-.77,2.61-1.17,5.91-3.11,10.81-7.88,14.98-13.07h0Z" fill="#b4a6ac"/><path d="m94.44,69.32c-4.95,5.86-11.27,11.13-18.48,13.79-3.65,1.21-7.42,2.39-11.12,3.42-.72.19-1.44.39-2.17.52l.09,1.08c.41-.06.82-.19,1.22-.29,4.08-1.2,8.21-2.64,12.21-4.09,7.21-2.9,13.42-8.37,18.25-14.43Z" fill="#b4a6ac"/><path d="m91.33,67.66c-.4.6-.88,1.15-1.36,1.69-.96,1.08-1.98,2.11-3.04,3.08-2.65,2.42-5.6,4.54-8.83,6.1-1.92.95-3.98,1.6-6.04,2.15-2.76.75-5.53,1.47-8.36,1.91-.64.09-1.28.18-1.93.18h-.08s-.11,1.07-.11,1.07c.39.02.8-.03,1.19-.08,2.52-.36,4.98-1.05,7.42-1.75,2.77-.82,5.59-1.63,8.15-3.01,3.21-1.69,6.12-3.91,8.72-6.44,1.04-1.01,2.03-2.07,2.96-3.18.46-.56.92-1.12,1.31-1.74h0Z" fill="#b4a6ac"/><path d="m88.22,66c-1.08,1.69-2.51,3.12-3.96,4.47-2.45,2.21-5.23,4.09-8.27,5.36-1.81.78-3.74,1.25-5.66,1.66-1.92.42-3.89.76-5.83.96-.95.1-1.96.15-2.91.13-.3-.01-.61-.03-.9-.08l-.19,1.06c.19.03.37.04.56.05,1.01.04,2.05-.05,3.06-.16,2.15-.26,4.29-.71,6.39-1.24,1.95-.48,3.89-1.03,5.71-1.89,3.04-1.4,5.79-3.38,8.2-5.71,1.42-1.41,2.8-2.89,3.82-4.62h0Z" fill="#b4a6ac"/><path d="m85.1,64.34c-2.7,4.33-7.3,7.64-12.14,9.02-1.13.33-2.37.54-3.54.72-2.07.32-4.19.51-6.29.47-1.17-.02-2.36-.09-3.51-.33l-.24,1.05c.94.17,1.88.22,2.82.23,3.38.02,6.75-.5,10.02-1.33,5.23-1.45,10.14-5.09,12.87-9.84h0Z" fill="#b4a6ac"/><path d="m81.99,62.68c-2.65,4.56-6.84,7.25-12,7.88-3.8.43-7.7.3-11.42-.61l-.27,1.05c2.22.47,4.48.62,6.74.6,2.1-.03,4.22-.24,6.27-.68,4.67-1.07,8.43-3.96,10.67-8.24h0Z" fill="#b4a6ac"/><path d="m78.88,61.03c-1.02,1.74-2.22,3.46-3.88,4.61-3.28,2.27-7.86,1.84-11.62,1.33-1.97-.3-3.95-.73-5.86-1.28l-.29,1.04c1.01.25,2,.45,3.01.62,3.87.62,8.38,1.1,12.18-.07,3.09-.95,5.03-3.45,6.46-6.24h0Z" fill="#b4a6ac"/></g><path d="m145.9,76.41s-12.24,12.98-14.97,15.27c-2.73,2.28-12,6.01-14.97.96-2.97-5.05-3.68-15.51,4.4-15.51s12.24.84,15.09-.72c2.85-1.56,10.46,0,10.46,0Z" fill="#735448"/><g fill="none" mask="url(#j)"><path d="m146.49,74.49c-2.59,2.78-5.23,5.5-7.96,8.14-2.98,2.82-5.97,5.78-9.49,7.88-1.25.65-2.89,1.19-4.23,1.63-3.59,1.12-7.26,2.03-10.92,2.88-1.84.42-3.68.83-5.52,1.21l.54.72c.68-1.25,1.52-2.84,2.27-3.85h-.03s-.04.03-.09.04c-.03,0-.05,0-.08,0-.02,0,0,0,0,0h0c.18.03.53.06.71.09,3.78.38,7.64-.34,11.11-1.89l1.28-.63c.81-.45,1.65-.95,2.42-1.47,1.54-1.01,3.09-2.15,4.57-3.26,4.83-3.65,9.48-7.55,14.03-11.55l-.69-.94c-2.65,1.67-5.31,3.34-7.98,4.99-2.66,1.64-5.32,3.32-8.03,4.88-.34.2-.78.44-1.12.61-.14.06-.31.11-.47.15-.88.21-1.77.32-2.68.44-4.65.53-9.33.8-14,1.04l.37.65,3.05-5.08-.33.18c2.39.07,4.75-.03,7.13-.21,1.63-.15,3.27-.26,4.87-.6,4.2-1.06,7.95-3.39,11.52-5.78.98-.67,1.94-1.36,2.88-2.09-2.91,2.05-5.94,3.91-9.14,5.45-1.73.81-3.5,1.54-5.37,1.93-.42.09-.87.15-1.29.19-2.34.24-4.7.37-7.05.4-1.25.01-2.5,0-3.73-.07l-.12.19-3.13,5.02-.42.68c3.4-.12,6.79-.27,10.19-.49,2.51-.19,5.03-.32,7.51-.84.21-.06.44-.12.65-.21.38-.18.85-.43,1.21-.64,5.46-3.13,10.77-6.48,16.11-9.8l-.69-.94c-2.79,2.44-5.64,4.83-8.51,7.18-2.86,2.32-5.8,4.65-8.81,6.76-1.12.79-2.28,1.54-3.47,2.2l-1.21.61-1.25.53c-.42.15-.85.3-1.28.45-.2.06-.78.22-.98.28-.24.08-.75.18-.99.24-.16.04-.5.11-.66.13-2.03.38-4.11.43-6.15.18-.1-.01-.22.01-.31.05-.13.06-.28.21-.34.29-.39.49-.69,1.03-.99,1.55-.64,1.11-1.25,2.3-1.84,3.43,5.89-1.31,11.76-2.7,17.5-4.59,1.25-.43,2.82-.99,4-1.59.42-.22.86-.49,1.25-.75,1.59-1.09,3.02-2.35,4.43-3.63,4.18-3.88,8.05-8.08,11.79-12.39h0Z" fill="#b4a6ac"/></g><path d="m178.22,29.29s-3.68,1.32-7.37-4.57c-3.68-5.89-7.96-18.63-15.92-22.84-7.96-4.21-15.45-1.08-16.64,6.85-1.19,7.93.71,15.51,4.16,16.59,3.45,1.08,10.58,3.73,11.53,6.01.95,2.28,24.24-2.04,24.24-2.04Z" fill="#4d4339"/><g fill="none" mask="url(#l)"><path d="m176.67,31.93c-3.08,2.48-5.78-2.81-6.88-5.14-.42-.91-.82-1.85-1.18-2.77-3.17-8-6.94-15.8-11.66-22.99,2.94,7.03,6.81,15.42,9.86,22.42.3.67.7,1.6,1.02,2.25,1.19,2.43,2.91,5.58,5.37,6.86,1.17.63,2.67.48,3.48-.64h0Z" fill="#b4a6ac"/><path d="m170.73,34.34c-2.58-5.57-5.78-11.26-8.48-16.76-.25-.54-.53-1.24-.78-1.78-3.03-6.26-6.45-12.3-10.23-18.13,1.35,3.21,2.81,6.35,4.31,9.47,1.46,3.06,3.08,6.25,4.52,9.31.15.32.37.83.52,1.16.13.31.42.92.58,1.22,2.82,5.39,6.06,10.54,9.56,15.5h0Z" fill="#b4a6ac"/><path d="m166.45,34.46c-4.85-11.66-10.67-22.9-17.26-33.64-.98-1.51-1.93-3.06-3.06-4.47.22.39.42.8.62,1.2,6.11,12.54,12.41,25.02,19.7,36.91Z" fill="#b4a6ac"/><path d="m163.25,33.61c-1.02-3.42-2.31-6.75-3.85-9.97-.68-1.42-1.44-2.82-2.3-4.14-.36-.51-.81-1.14-1.18-1.63-.51-.71-1.01-1.43-1.51-2.15-4.26-6.19-8.43-12.45-13.02-18.41,3.51,6.69,7.47,13.11,11.77,19.31.63.91,1.3,1.83,1.99,2.7,1.2,1.51,2.22,3.17,3.19,4.89,1.73,3.07,3.31,6.25,4.92,9.4h0Z" fill="#b4a6ac"/><path d="m160.87,32.65c-2.34-4.17-5.07-8.14-8.13-11.81-1.26-1.51-2.71-3.01-4.26-4.28-.26-.22-.61-.53-.86-.76-3.4-3.22-6.43-6.93-9.54-10.45-.38-.44-1.18-1.35-1.57-1.79.19.35.4.69.6,1.03,2.51,4.08,5.32,8.01,8.61,11.48.55.58,1.16,1.16,1.77,1.68.5.44,1.27,1.08,1.73,1.55,4.19,4.17,7.76,8.88,11.64,13.36h0Z" fill="#b4a6ac"/><path d="m157.42,33.13c-1.27-2.39-2.84-4.61-4.63-6.64-.91-1.02-1.9-1.98-2.97-2.82-5.31-4.09-11.01-7.63-17-10.61,4.9,4.03,10.15,7.55,15.31,11.21,3.53,2.44,6.42,5.68,9.28,8.87h0Z" fill="#b4a6ac"/></g><path d="m107.04,36.38s-21.51-2.52-27.45-2.77c-5.94-.24-11.29,2.52-10.93,4.81.36,2.28,4.63.24,8.08,1.68,3.45,1.44,3.45,2.16,3.45,2.16l26.86-5.89Z" fill="#3f3931" stroke="#735448" stroke-miterlimit="10"/><path d="m204.42,34.15s1.07-.36,15.92,2.77c14.85,3.13,27.92,6.13,28.52,9.38.59,3.25-6.77,6.85-8.79,8.3-2.02,1.44,5.47-3.73,7.84-3.25,2.38.48,3.09,3.49.83,5.77-2.26,2.28-25.55,13.71-27.33,13.47-1.78-.24-2.73-.24-2.73-.24,0,0-7.31,3.55-8.97,3.43-1.66-.12-15.09,6.25-24.6,6.73-9.51.48-64.64-4.81-69.63-5.89-4.99-1.08-28.28-4.09-34.7-7.45-6.42-3.37-19.96-4.93-23.77-4.45-3.8.48-12.71,8.18-17.11,7.57-4.4-.6-15.8-7.57-10.69-19.24,5.11-11.66,8.2-11.06,19.49-9.38,11.29,1.68,7.72,4.57,25.91-.48,18.18-5.05,34.34-7.45,63.69-9.38,28.11-1.84,32.32-4.69,39.81-3.61,7.49,1.08,26.32,5.95,26.32,5.95Z" fill="#4d4339"/><g fill="none" mask="url(#n)"><path d="m254.27,46s-18.42,13.1-35.77,17.31c-8.07,1.96-20.08-10.1-29.35-4.81-9.27,5.29-13.55,15.39-25.67,13.95-12.12-1.44-52.05-1.2-65.59-5.77-13.55-4.57-27.45-9.86-43.85-7.09-16.4,2.77-17.11,21.52-17.11,21.52l120.02,27.89,73.68-10.34,23.65-52.66Z" fill="#fbf9e8"/></g><path d="m184.4,64.87c-2.02-.12-8.44,3.73-11.29,3.85-2.85.12-8.44-2.16-8.91-5.17-.48-3.01-4.04-7.81-4.04-7.81,0,0,8.79-2.89,15.69-1.44,6.89,1.44,16.52,7.69,16.52,7.69l-7.96,2.89Z" fill="#706665"/><g fill="none" mask="url(#p)"><path d="m194.62,64.03c-3.78-2.45-7.81-4.56-12.06-6.05-1.76-.62-3.62-1.11-5.46-1.36-5.57-.74-11.25-.51-16.82.08,1.49-.12,2.99-.21,4.48-.26,2.99-.12,5.98-.13,8.97.07,2.22.14,4.47.45,6.63,1.02.19.06,1.17.34,1.34.39.38.13.94.32,1.33.45,4.04,1.48,7.91,3.44,11.59,5.67h0Z" fill="#fff"/><path d="m192.36,62.47c-2.47-.97-4.99-1.8-7.53-2.53-2.55-.71-5.13-1.41-7.78-1.65-3.97-.29-7.95,0-11.9.47-1.31.17-2.62.35-3.93.58,1.31-.18,2.62-.34,3.94-.47,3.94-.38,7.91-.66,11.86-.35,2.63.21,5.2.93,7.75,1.59,2.55.69,5.08,1.48,7.58,2.35h0Z" fill="#fff"/><path d="m191.17,62.83c-4.55-1.96-9.5-3.22-14.46-3.12-4.66.2-9.26,1.22-13.7,2.64,1.16-.33,2.32-.63,3.49-.89,3.36-.78,6.77-1.38,10.21-1.5,4.95-.12,9.85,1.11,14.46,2.88Z" fill="#fff"/><path d="m189.03,64.15c-3.48-.82-7.01-1.49-10.57-1.88-.79-.08-1.69-.16-2.48-.19-2.22-.15-4.44.44-6.42,1.43-2,.96-3.87,2.16-5.61,3.52,1.79-1.28,3.68-2.44,5.68-3.36,2.06-.95,4.05-1.51,6.34-1.36.78.02,1.68.1,2.46.17,3.55.38,7.08.99,10.59,1.66h0Z" fill="#fff"/><path d="m188.21,65.18c-1.76-.39-3.54-.7-5.33-.95-2.68-.32-5.44-.7-8.12-.19-2.67.63-4.94,2.45-6.63,4.56.6-.69,1.25-1.32,1.95-1.89,1.39-1.14,2.98-2.07,4.73-2.46,1.75-.35,3.59-.22,5.36-.11,2.7.22,5.38.6,8.04,1.04h0Z" fill="#fff"/><path d="m185.59,66.91c-2.18-1.1-5.82-2.6-8.24-1.84-1.35.53-2.59,1.22-3.83,1.94-1.23.72-2.44,1.49-3.61,2.3.61-.36,1.23-.73,1.85-1.08,1.85-1.05,3.7-2.15,5.68-2.93,2.26-.74,6.02.7,8.16,1.61h0Z" fill="#fff"/></g><path d="m192.42,61.93s-.71.24-2.79.18c-3.93-.11-8.2-.36-7.49,1.2.71,1.56,2.26,1.32,4.75,1.2,2.5-.12,3.68,1.32,4.99.36,1.31-.96,1.43-.84,1.43-.84l-.89-2.1Z" fill="#fbf9e8"/><path d="m240.62,51.37c-1.62,2.33-2.45,5.14-2.9,7.92-.72,5.68-1.27,11.48-3.19,16.9-1.33,3.93-3.25,5.96-6.07,8.84-2.93,2.97-5.94,6.26-6.8,10.5-.33,1.79-.63,3.58-1.06,5.34-.3,1.17-.58,2.38-1.15,3.43.26-.37.4-.82.56-1.24.25-.71.46-1.44.64-2.18.45-1.76.75-3.55,1.1-5.33.89-4.21,3.89-7.47,6.78-10.46,1.65-1.75,3.4-3.46,4.62-5.55,1.79-3.17,2.67-6.76,3.49-10.29.53-2.36.97-4.75,1.4-7.14.18-1,.44-2.55.72-3.53.45-1.71,1.12-3.36,2.05-4.85.3-.47.61-.93.98-1.34.32-.29.35-.78.07-1.11-.33-.39-.96-.34-1.24.09h0Z" fill="#4d4239"/><path d="m239.55,46.93c-1.61,2.33-2.45,5.14-2.89,7.92-.72,5.68-1.27,11.48-3.19,16.9-1.33,3.93-3.25,5.96-6.07,8.84-2.93,2.97-5.94,6.26-6.8,10.5-.33,1.79-.63,3.58-1.06,5.34-.3,1.17-.58,2.38-1.15,3.43.26-.37.4-.82.56-1.24.25-.71.46-1.44.64-2.18.45-1.76.75-3.55,1.1-5.33.89-4.21,3.89-7.47,6.78-10.46,1.65-1.75,3.4-3.46,4.62-5.55,1.79-3.17,2.67-6.76,3.49-10.29.53-2.36.97-4.75,1.4-7.14.18-1,.44-2.55.72-3.53.45-1.71,1.12-3.36,2.04-4.85.3-.47.61-.93.99-1.34.32-.29.35-.78.07-1.11-.33-.39-.96-.34-1.24.09h0Z" fill="#4d4239"/><path d="m243.13,58.85c-.18.36-.2.79-.19,1.18.11,1.44.87,2.68,1.69,3.8,1.96,2.54,4.09,5.03,6.73,6.87.81.53,1.69,1.01,2.67,1.11,1.88.15,3.78-.12,5.57-.68-1.8.43-3.7.56-5.52.29-3.03-.54-6.98-6.01-8.63-8.6-.52-.85-1.2-2.18-.99-3.18v-.04s.02-.02.03-.03t0,0h0s0,.01,0,.01v.02c.45-.92-.84-1.64-1.37-.75h0Z" fill="#fbf9e8"/><path d="m240.72,58.08c1.69,3.71,3.44,7.37,5.38,10.96,1,1.79,1.96,3.59,3.3,5.16,1.02,1.13,2.12,2.2,3.34,3.1.41.29.84.59,1.29.8-.86-.51-1.62-1.2-2.32-1.91-1.42-1.42-2.65-2.99-3.56-4.81-1.4-2.68-2.6-5.47-3.76-8.27-.77-1.87-1.52-3.76-2.24-5.64-.15-.4-.6-.6-1-.45-.41.16-.61.65-.43,1.06h0Z" fill="#fbf9e8"/><path d="m240.75,59.81c.9,1.77,1.57,3.69,1.98,5.64.46,2.2.51,4.51-.15,6.68l-.21.73c-.15.41-.36,1.04-.53,1.43-1.16,2.85-2.75,5.52-4.56,8.01,1.32-1.58,2.52-3.27,3.6-5.03,1.34-2.23,2.55-4.64,3-7.23.41-2.64.04-5.35-.67-7.9-.29-1.03-.64-2.04-1.08-3.03-.48-.95-1.85-.26-1.38.7h0Z" fill="#fbf9e8"/><path d="m243.41,57.5c-.76,4.13-1.54,8.29-2.63,12.34-.29.99-.56,1.99-1.1,2.87-1.03,1.77-2.66,3.28-3.85,4.96-.31.44-.54.94-.57,1.49-.06.53-.13,1.05-.13,1.58.04-.53.13-1.05.23-1.57.06-.53.3-.98.63-1.39,1.31-1.62,3-3,4.18-4.76.62-.89.98-1.94,1.34-2.95,1.35-4.03,2.39-8.13,3.41-12.26.21-1.04-1.28-1.37-1.51-.32Z" fill="#fbf9e8"/><path d="m218.68,70.34c-3.48-1.02-6.91-2.27-10.12-3.98-.46-.24-1.11-.62-1.56-.9-1.27-.79-2.39-1.8-3.45-2.86-2.77-2.82-5.12-6.01-7.39-9.27,2.33,4.39,6.25,10.11,10.48,12.73,1.57.95,3.27,1.74,4.98,2.38,2.29.85,4.65,1.51,7.06,1.9Z" fill="#4d4239"/><path d="m207.93,68.24c-2.49-1.95-4.87-4.07-7-6.41-1.36-1.51-2.63-3.15-3.62-4.93-.23-.39-.49-.88-.73-1.26-1.01-1.65-2.24-3.25-3.81-4.38-.49-.37-1.07-.71-1.54-1.09-1.44-1.13-1.17-3.63-.89-5.25-.45,1.5-.77,3.33-.05,4.8.4.75,1.13,1.21,1.78,1.7,1.12.84,2.08,1.87,2.9,3.02.39.56.93,1.39,1.27,1.98.21.37.49.88.71,1.25.15.24.35.6.51.83l.55.8c.15.23.41.55.58.78.77,1,1.68,1.99,2.57,2.87,2.06,2.01,4.33,3.81,6.77,5.29h0Z" fill="#4d4239"/><path d="m209.83,73.17c-4.01-.78-9.95-2.32-12.48-5.74-.44-.61-.74-1.31-.88-2.04-.17-.78-.33-1.56-.51-2.34-.18-.78-.38-1.57-.7-2.34-.31-.77-.74-1.49-1.22-2.14-1.1-1.5-2.57-3.2-3.71-4.67-1.28-1.62-3.85-5.1-3.83-7.16l-.02.04c.34-.4,1.02-1.22,1.36-1.62l-.75.75-.74.75-.02.02c-.03.12-.03.23-.03.35,0,.51.15,1.01.3,1.49.32.96.78,1.86,1.28,2.73,1.56,2.73,3.76,5.19,5.6,7.72.45.63.84,1.29,1.12,2,.28.73.48,1.48.66,2.24.21.87.39,1.75.59,2.63.17.72.52,1.4.95,1.99,2.67,3.54,8.82,4.94,13.01,5.35h0Z" fill="#4d4239"/><path d="m227.53,49c-1.31,0-2.38-1.08-2.38-2.4s1.06-2.4,2.38-2.4,2.38,1.08,2.38,2.4-1.06,2.4-2.38,2.4Z" fill="#847431"/><path d="m227.53,47.68c-.59,0-1.07-.48-1.07-1.08s.48-1.08,1.07-1.08,1.07.48,1.07,1.08-.48,1.08-1.07,1.08Z" fill="#2c303e"/></g></g></g></svg>