<?xml version="1.0" encoding="UTF-8"?><svg id="b" xmlns="http://www.w3.org/2000/svg" xmlns:xlink="http://www.w3.org/1999/xlink" viewBox="0 0 112 45"><defs><clipPath id="e"><rect width="112" height="45" fill="none"/></clipPath><mask id="f" x="-2.01" y="15.14" width="26.81" height="20.37" maskUnits="userSpaceOnUse"><g id="g"><path d="m23.93,18.75s-5.28-1.35-9.23-2.28c-3.95-.93-12.3-1.76-13.33-1.09-1.03.67-1.85,5.03-.41,7.47,1.44,2.44-1.64,6.95-.82,9.08.82,2.13,4.77,3.89,13.28.31,8.51-3.58,11.38-5.76,11.38-5.76l-.67-6.69-.2-1.04Z" fill="#fff"/></g></mask><mask id="h" x="24.69" y="26.33" width="27.08" height="15.43" maskUnits="userSpaceOnUse"><g id="i"><path d="m51.76,32.19s-1.54-.93-3.28,1.14-7.07,7.94-12.25,6.74c-5.18-1.19-11.12-3.22-10.36-7.94.77-4.72,1.23-4.36,2.82-4.2,1.59.16,2.81.81,3.15-.06.34-.87.34-.61.34-.61l19.58,4.93Z" fill="#fff"/></g></mask><mask id="j" x="46.39" y="31.36" width="16.81" height="10.68" maskUnits="userSpaceOnUse"><g id="k"><path d="m62.94,32.97s-5.28,5.6-6.46,6.59c-1.18.99-5.18,2.59-6.46.41-1.28-2.18-1.59-6.69,1.9-6.69s5.28.36,6.51-.31c1.23-.67,4.51,0,4.51,0Z" fill="#fff"/></g></mask><mask id="l" x="57.3" y="-1.58" width="19.58" height="16.44" maskUnits="userSpaceOnUse"><g id="m"><path d="m76.88,12.63s-1.59.57-3.18-1.97c-1.59-2.54-3.43-8.04-6.87-9.85-3.43-1.82-6.66-.47-7.18,2.96-.51,3.42.31,6.69,1.79,7.16,1.49.47,4.56,1.61,4.97,2.59.41.99,10.46-.88,10.46-.88Z" fill="#fff"/></g></mask><mask id="n" x="12.04" y="12.06" width="97.65" height="34.96" maskUnits="userSpaceOnUse"><g id="o"><path d="m88.19,14.73s.46-.16,6.87,1.19c6.41,1.35,12.05,2.65,12.3,4.05.26,1.4-2.92,2.96-3.79,3.58-.87.62,2.36-1.61,3.38-1.4,1.03.21,1.33,1.5.36,2.49-.97.99-11.02,5.91-11.79,5.81-.77-.1-1.18-.1-1.18-.1,0,0-3.15,1.53-3.87,1.48-.72-.05-6.51,2.7-10.61,2.9-4.1.21-27.89-2.07-30.04-2.54-2.15-.47-12.2-1.76-14.97-3.22-2.77-1.45-8.61-2.13-10.25-1.92-1.64.21-5.49,3.53-7.38,3.27-1.9-.26-6.82-3.27-4.61-8.3,2.2-5.03,3.54-4.77,8.41-4.05,4.87.73,3.33,1.97,11.18-.21,7.84-2.18,14.82-3.22,27.48-4.05,12.13-.79,13.94-2.02,17.17-1.56,3.23.47,11.36,2.57,11.36,2.57Z" fill="#fff"/></g></mask><mask id="p" x="69.09" y="23.25" width="14.87" height="6.66" maskUnits="userSpaceOnUse"><g id="q"><path d="m79.55,27.99c-.87-.05-3.64,1.61-4.87,1.66-1.23.05-3.64-.93-3.84-2.23-.21-1.3-1.74-3.37-1.74-3.37,0,0,3.79-1.24,6.77-.62,2.97.62,7.13,3.32,7.13,3.32l-3.43,1.24Z" fill="#fff"/></g></mask></defs><g id="c"><g id="d"><g clip-path="url(#e)" fill="none"><path d="m99.24,26.57c-1.23,1.6-2.28,3.39-2.71,5.38-.06.28-.09.58-.12.86-.1.9-.21,1.8-.34,2.69-.12.9-.25,1.79-.41,2.68-.16.88-.31,1.78-.69,2.6-.19.41-.59.65-.96.87-.39.22-.8.4-1.21.58-1.23.52-2.56.93-3.81,1.31.86-.24,1.72-.51,2.57-.8.94-.34,2.65-.91,3.33-1.61.36-.45.53-1.03.7-1.57.69-2.29.99-4.67,1.32-7.03.26-1.64,1.09-3.13,2.03-4.48.25-.36.52-.72.81-1.05.28-.35-.2-.78-.51-.44h0Z" fill="#fbf9e8"/><path d="m103.53,19c.6-1.44,1.13-2.9,1.43-4.43.22-1.15.1-2.36-.27-3.46-.12-.37-.26-.73-.44-1.07.57,1.4.77,2.99.38,4.46-.29,1.1-.73,2.16-1.2,3.19-.16.34-.33.69-.5,1.02-.19.42.4.71.6.29h0Z" fill="#4d4239"/><path d="m102.17,18.31c.3-1.62.59-3.23.71-4.87.02-.29.03-.59.01-.88-.07-.8-.45-1.51-.89-2.15-.22-.31-.46-.61-.73-.89.68.85,1.33,1.94,1.36,3.05,0,.38-.06.75-.11,1.12-.25,1.5-.62,2.99-1.01,4.46-.11.45.54.61.65.16h0Z" fill="#4d4239"/><path d="m23.93,18.75s-5.28-1.35-9.23-2.28c-3.95-.93-12.3-1.76-13.33-1.09-1.03.67-1.85,5.03-.41,7.47,1.44,2.44-1.64,6.95-.82,9.08.82,2.13,4.77,3.89,13.28.31,8.51-3.58,11.38-5.76,11.38-5.76l-.67-6.69-.2-1.04Z" fill="#735448"/><g fill="none" mask="url(#f)"><path d="m15.76,29.59c-1.48.5-2.97,1-4.35,1.76-.17.1-.34.21-.5.34-.04.03-.07.05-.11.08-.46.26-.98.4-1.48.57-3.64,1.08-7.36,1.87-11.07,2.66l-.14.03h-.07s-.03.02-.03.02h-.01s0,0,0,0c.01,0,.03,0,.04,0l-.03.47s.09,0,.13-.02c.04,0,.17-.04.22-.05,3.7-.87,7.42-1.75,11.04-2.91.51-.18,1.04-.34,1.51-.62.04-.03.09-.06.13-.1.14-.12.3-.23.46-.34,1.34-.79,2.82-1.34,4.27-1.88h0Z" fill="#b4a6ac"/><path d="m15.52,28.52c-2.14.57-4.28,1.19-6.37,1.91-3.51.98-7.15,1.74-10.72,2.53l-.03.47c.06,0,.14-.02.2-.03.08-.02.32-.08.41-.1,3.41-.84,6.84-1.67,10.19-2.7,2.08-.78,4.19-1.45,6.32-2.08h0Z" fill="#b4a6ac"/><path d="m15.28,27.46c-2.4.53-4.81,1.03-7.24,1.44-.35.06-.69.13-1.04.2-2.68.53-5.49,1.19-8.16,1.77,0,0-.01,0-.02.01l-.03.47c.06,0,.13-.02.2-.03.08-.02.31-.08.39-.1,2.5-.63,5.17-1.32,7.68-1.89.34-.08.68-.15,1.03-.22,2.41-.48,4.81-1.05,7.2-1.64h0Z" fill="#b4a6ac"/><path d="m15.04,26.39c-2.64.46-5.29.86-7.96,1.03-2.35.15-4.66.64-6.96,1.16-.22.05-.64.15-.86.2h-.06s0,.02.01.02l-.03.47c.1,0,.22-.05.32-.07l.24-.07c1.77-.48,3.56-.91,5.37-1.22,1.32-.24,2.66-.3,3.98-.49,1.99-.27,3.97-.63,5.94-1.04h0Z" fill="#b4a6ac"/><path d="m14.8,25.32c-3,.42-6.03.7-9.05.67-1.52-.01-3.06.09-4.56.35-.52.1-1.04.21-1.54.35l-.06.02h-.03s.04,0,.05,0l-.03.47c.07,0,.14-.03.2-.05.11-.04.23-.07.34-.1,1.83-.52,3.74-.72,5.63-.77,3.04-.06,6.06-.44,9.05-.95h0Z" fill="#b4a6ac"/><path d="m14.56,24.25c-3.02.33-6.08.47-9.12.37-1.19-.05-2.47-.15-3.66-.16-.46,0-.93,0-1.4.05-.16.02-.33.04-.48.13-.11.07-.17.19-.12.33l.42-.18c.02.06.01.06.02.08,0,.02,0,.03,0,.04,0,.04-.02.07-.05.1-.01.01-.02.02-.02.02,0,0,0,0,0,0,.09-.04.19-.05.29-.07,1.57-.19,3.4-.08,4.99-.07,3.05.01,6.11-.22,9.13-.63h0Z" fill="#b4a6ac"/><path d="m15.05,22.96c-.31-.05-.62-.03-.94-.04-2.14.03-4.42.1-6.55.08-2.19,0-4.37-.19-6.56-.2-.32,0-.65,0-.97.05h-.01s-.01,0-.01,0H0s.16.44.16.44c.51-.07,1.21-.07,1.79-.08,1.87-.01,3.75.07,5.62,0,2.13-.04,4.41-.19,6.55-.29.31,0,.63-.03.93,0Z" fill="#b4a6ac"/><path d="m15.54,21.68c-.31-.07-.64-.09-.95-.12-.96-.07-1.92-.08-2.89-.11-3.72-.06-7.83-.12-11.52-.37l-.04.47c.56.03,1.37.04,1.93.05,3.7.09,7.84-.04,11.55-.04.64.02,1.29,0,1.92.11h0Z" fill="#b4a6ac"/><path d="m16.03,20.39c-.64-.15-1.3-.22-1.96-.28-2.63-.23-5.27-.32-7.91-.4-1.96-.05-3.94-.07-5.88-.41l-.09.46c.18.03.34.05.5.07,1.15.13,2.32.17,3.48.18,3.3,0,6.59-.03,9.89.16.66.05,1.32.09,1.96.23h0Z" fill="#b4a6ac"/><path d="m16.52,19.11c-.98-.25-2.01-.37-3.01-.5-2.36-.27-4.73-.44-7.11-.53-.58-.02-1.2-.02-1.78-.03-1.26-.03-2.52-.16-3.75-.41-.16-.03-.33-.07-.48-.11l-.11.45c.34.08.68.13,1.02.18,1.1.16,2.21.23,3.32.23.58,0,1.2-.02,1.78-.02,2.37.02,4.74.12,7.1.32,1.01.1,2.03.19,3.02.41Z" fill="#b4a6ac"/><path d="m17.01,17.82c-.68-.18-1.36-.31-2.05-.42-2.76-.45-5.54-.77-8.33-.91-.52-.03-1.05-.02-1.57-.01-1.21,0-2.41-.2-3.59-.47-.34-.08-.67-.16-1-.26l-.12.45c.35.09.69.16,1.04.22,1.21.22,2.44.36,3.68.31.52-.03,1.04-.04,1.56-.03,2.78.08,5.57.34,8.33.73.69.1,1.38.22,2.06.38h0Z" fill="#b4a6ac"/></g><path d="m51.76,32.19s-1.54-.93-3.28,1.14-7.07,7.94-12.25,6.74c-5.18-1.19-11.12-3.22-10.36-7.94.77-4.72,1.23-4.36,2.82-4.2,1.59.16,2.81.81,3.15-.06.34-.87.34-.61.34-.61l19.58,4.93Z" fill="#735448"/><g fill="none" mask="url(#h)"><path d="m49.82,29.85c-.83.96-1.64,1.95-2.37,3-.28.42-.56.84-.73,1.32-.01.03-.03.08-.04.1-.19.37-.45.68-.71,1-1.02,1.22-2.14,2.34-3.27,3.46-.79.78-1.59,1.56-2.4,2.31-.06.05-.25.23-.31.28,0,0,0,0,0,0,0,0,.01,0,.02,0l.21.42c.08-.05.16-.14.23-.2.85-.84,1.69-1.7,2.51-2.56,1.09-1.16,2.19-2.33,3.18-3.58.25-.34.52-.68.7-1.06l.02-.06.02-.06c.15-.47.42-.89.68-1.31.69-1.07,1.47-2.08,2.27-3.07h0Z" fill="#b4a6ac"/><path d="m48,29.86c-1.24,1.44-2.48,2.87-3.77,4.27-2.15,2.22-4.57,4.36-6.84,6.46l.21.42s.1-.07.14-.11c.05-.05.21-.2.26-.25,1.9-1.85,3.88-3.78,5.72-5.69,1.5-1.63,2.88-3.37,4.29-5.09h0Z" fill="#b4a6ac"/><path d="m46.19,29.87c-1.34,1.56-2.75,3.09-4.35,4.39-.22.17-.53.41-.76.56-2.12,1.41-4.05,3.09-5.99,4.74l-.18.16-.09.08-.02.02h-.01s0,.01,0,.01c0,0,0,0,0,.01l.21.42c.08-.05.16-.13.23-.19,1.93-1.75,3.86-3.55,5.99-5.06.23-.16.54-.41.76-.59,1.56-1.36,2.93-2.93,4.23-4.54h0Z" fill="#b4a6ac"/><path d="m44.37,29.88c-.83.99-1.72,1.92-2.67,2.79-.94.86-1.95,1.68-3.06,2.3-.23.13-.61.31-.85.43-1.88.94-3.62,2.12-5.29,3.4-.07.06-.26.2-.33.26-.01,0,0,0,0,0,0,0,0,0,0,0l.21.42s.07-.05.09-.06c.08-.07.24-.2.32-.27,1.61-1.32,3.3-2.54,5.13-3.52.24-.13.61-.32.85-.46,1.11-.67,2.09-1.52,3.02-2.42.92-.9,1.79-1.86,2.59-2.87h0Z" fill="#b4a6ac"/><path d="m42.56,29.9c-1.85,2.17-4.01,4.16-6.57,5.41-.34.16-.77.33-1.12.46-1.68.66-3.34,1.39-4.9,2.31-.13.08-.28.17-.4.25l.21.42c.07-.04.16-.11.22-.15,1.57-1.02,3.26-1.83,4.98-2.56.35-.15.79-.33,1.13-.5,2.55-1.34,4.66-3.4,6.46-5.64h0Z" fill="#b4a6ac"/><path d="m40.74,29.91c-2.13,2.53-4.86,4.8-7.97,5.95-1.57.52-3.2,1.03-4.8,1.48-.31.08-.62.17-.93.23l.04.47c.18-.03.35-.08.53-.13,1.76-.52,3.54-1.14,5.27-1.77,3.11-1.25,5.79-3.61,7.87-6.22Z" fill="#b4a6ac"/><path d="m39.4,29.19c-.17.26-.38.49-.58.73-.41.47-.85.91-1.31,1.33-1.14,1.04-2.42,1.96-3.81,2.63-.83.41-1.72.69-2.61.93-1.19.32-2.39.63-3.6.82-.28.04-.55.08-.83.08h-.04s-.05.46-.05.46c.17,0,.35-.01.51-.03,1.09-.15,2.15-.45,3.2-.75,1.19-.35,2.41-.7,3.51-1.3,1.39-.73,2.64-1.69,3.76-2.78.45-.44.88-.89,1.28-1.37.2-.24.4-.48.56-.75h0Z" fill="#b4a6ac"/><path d="m38.06,28.47c-.47.73-1.08,1.34-1.71,1.93-1.06.96-2.26,1.76-3.57,2.31-.78.34-1.61.54-2.44.72-.83.18-1.68.33-2.52.41-.41.04-.84.07-1.26.05-.13,0-.26-.01-.39-.03l-.08.46c.08.01.16.02.24.02.44.02.89-.02,1.32-.07.93-.11,1.85-.3,2.76-.53.84-.21,1.68-.44,2.46-.81,1.31-.6,2.5-1.46,3.54-2.46.61-.61,1.21-1.25,1.65-1.99h0Z" fill="#b4a6ac"/><path d="m36.71,27.76c-1.16,1.87-3.15,3.3-5.24,3.89-.49.14-1.02.23-1.53.31-.89.14-1.81.22-2.71.2-.5-.01-1.02-.04-1.51-.14l-.1.45c.41.07.81.09,1.22.1,1.46,0,2.91-.22,4.32-.57,2.25-.62,4.37-2.2,5.55-4.25h0Z" fill="#b4a6ac"/><path d="m35.37,27.04c-1.14,1.97-2.95,3.13-5.18,3.4-1.64.19-3.32.13-4.93-.26l-.12.45c.96.2,1.93.27,2.91.26.9-.01,1.82-.1,2.71-.29,2.02-.46,3.63-1.71,4.6-3.55h0Z" fill="#b4a6ac"/><path d="m34.03,26.33c-.44.75-.96,1.49-1.67,1.99-1.42.98-3.39.79-5.01.57-.85-.13-1.7-.31-2.53-.55l-.12.45c.44.11.86.19,1.3.27,1.67.27,3.62.47,5.25-.03,1.33-.41,2.17-1.49,2.79-2.69h0Z" fill="#b4a6ac"/></g><path d="m62.94,32.97s-5.28,5.6-6.46,6.59c-1.18.99-5.18,2.59-6.46.41-1.28-2.18-1.59-6.69,1.9-6.69s5.28.36,6.51-.31c1.23-.67,4.51,0,4.51,0Z" fill="#735448"/><g fill="none" mask="url(#j)"><path d="m63.2,32.14c-1.12,1.2-2.26,2.37-3.43,3.51-1.29,1.22-2.57,2.49-4.09,3.4-.54.28-1.24.51-1.83.7-1.55.48-3.13.88-4.71,1.24-.79.18-1.59.36-2.38.52l.23.31c.29-.54.66-1.23.98-1.66h-.01s-.02.01-.04.02c-.01,0-.02,0-.03,0,0,0,0,0,0,0h0c.08.01.23.03.31.04,1.63.17,3.3-.15,4.79-.82l.55-.27c.35-.2.71-.41,1.05-.64.67-.44,1.33-.93,1.97-1.41,2.08-1.58,4.09-3.26,6.05-4.98l-.3-.41c-1.14.72-2.29,1.44-3.44,2.15-1.15.71-2.3,1.43-3.46,2.1-.15.08-.34.19-.48.26-.06.02-.13.05-.2.07-.38.09-.76.14-1.16.19-2,.23-4.03.34-6.04.45l.16.28,1.31-2.19-.14.08c1.03.03,2.05-.01,3.07-.09.7-.06,1.41-.11,2.1-.26,1.81-.46,3.43-1.46,4.97-2.49.42-.29.84-.59,1.24-.9-1.25.88-2.56,1.69-3.94,2.35-.74.35-1.51.66-2.31.83-.18.04-.37.06-.56.08-1.01.1-2.03.16-3.04.17-.54,0-1.08,0-1.61-.03l-.05.08-1.35,2.17-.18.29c1.47-.05,2.93-.12,4.39-.21,1.08-.08,2.17-.14,3.24-.36.09-.02.19-.05.28-.09.16-.08.36-.19.52-.28,2.36-1.35,4.65-2.8,6.95-4.23l-.3-.41c-1.2,1.05-2.43,2.08-3.67,3.1-1.23,1-2.5,2.01-3.8,2.91-.48.34-.98.66-1.5.95l-.52.26-.54.23c-.18.07-.37.13-.55.19-.09.02-.34.1-.42.12-.1.03-.32.08-.43.1-.07.02-.22.05-.29.06-.87.16-1.77.19-2.65.08-.04,0-.1,0-.13.02-.06.02-.12.09-.15.13-.17.21-.3.44-.43.67-.28.48-.54.99-.79,1.48,2.54-.57,5.07-1.16,7.55-1.98.54-.19,1.21-.43,1.72-.69.18-.09.37-.21.54-.33.69-.47,1.3-1.01,1.91-1.57,1.8-1.67,3.47-3.49,5.08-5.34h0Z" fill="#b4a6ac"/></g><path d="m76.88,12.63s-1.59.57-3.18-1.97c-1.59-2.54-3.43-8.04-6.87-9.85-3.43-1.82-6.66-.47-7.18,2.96-.51,3.42.31,6.69,1.79,7.16,1.49.47,4.56,1.61,4.97,2.59.41.99,10.46-.88,10.46-.88Z" fill="#4d4339"/><g fill="none" mask="url(#l)"><path d="m76.22,13.78c-1.33,1.07-2.49-1.21-2.97-2.22-.18-.39-.35-.8-.51-1.2-1.37-3.45-2.99-6.82-5.03-9.92,1.27,3.03,2.94,6.65,4.25,9.67.13.29.3.69.44.97.51,1.05,1.26,2.41,2.32,2.96.5.27,1.15.21,1.5-.28h0Z" fill="#b4a6ac"/><path d="m73.65,14.81c-1.11-2.4-2.49-4.86-3.66-7.23-.11-.23-.23-.53-.34-.77-1.31-2.7-2.78-5.31-4.41-7.82.58,1.38,1.21,2.74,1.86,4.09.63,1.32,1.33,2.69,1.95,4.02.07.14.16.36.22.5.06.13.18.4.25.53,1.22,2.32,2.61,4.55,4.13,6.69h0Z" fill="#b4a6ac"/><path d="m71.81,14.86c-2.09-5.03-4.6-9.88-7.45-14.51-.42-.65-.83-1.32-1.32-1.93.09.17.18.34.27.52,2.64,5.41,5.35,10.79,8.5,15.92Z" fill="#b4a6ac"/><path d="m70.42,14.5c-.44-1.48-1-2.91-1.66-4.3-.29-.61-.62-1.22-.99-1.78-.16-.22-.35-.49-.51-.7-.22-.3-.44-.62-.65-.93-1.84-2.67-3.63-5.37-5.62-7.94,1.52,2.89,3.22,5.65,5.08,8.33.27.39.56.79.86,1.17.52.65.96,1.37,1.38,2.11.75,1.33,1.43,2.69,2.12,4.06h0Z" fill="#b4a6ac"/><path d="m69.4,14.09c-1.01-1.8-2.19-3.51-3.51-5.1-.55-.65-1.17-1.3-1.84-1.85-.11-.09-.26-.23-.37-.33-1.47-1.39-2.77-2.99-4.12-4.51-.17-.19-.51-.58-.68-.77.08.15.17.3.26.45,1.08,1.76,2.3,3.45,3.72,4.95.24.25.5.5.76.73.21.19.55.47.75.67,1.81,1.8,3.35,3.83,5.02,5.76h0Z" fill="#b4a6ac"/><path d="m67.91,14.29c-.55-1.03-1.22-1.99-2-2.87-.39-.44-.82-.85-1.28-1.22-2.29-1.77-4.75-3.29-7.33-4.58,2.11,1.74,4.38,3.26,6.61,4.83,1.52,1.05,2.77,2.45,4,3.83h0Z" fill="#b4a6ac"/></g><path d="m46.18,15.69s-9.28-1.09-11.84-1.19c-2.56-.1-4.87,1.09-4.72,2.07.15.99,2,.1,3.49.73,1.49.62,1.49.93,1.49.93l11.59-2.54Z" fill="#3f3931" stroke="#735448" stroke-miterlimit="10"/><path d="m88.19,14.73s.46-.16,6.87,1.19c6.41,1.35,12.05,2.65,12.3,4.05.26,1.4-2.92,2.96-3.79,3.58-.87.62,2.36-1.61,3.38-1.4,1.03.21,1.33,1.5.36,2.49-.97.99-11.02,5.91-11.79,5.81-.77-.1-1.18-.1-1.18-.1,0,0-3.15,1.53-3.87,1.48-.72-.05-6.51,2.7-10.61,2.9-4.1.21-27.89-2.07-30.04-2.54-2.15-.47-12.2-1.76-14.97-3.22-2.77-1.45-8.61-2.13-10.25-1.92-1.64.21-5.49,3.53-7.38,3.27-1.9-.26-6.82-3.27-4.61-8.3,2.2-5.03,3.54-4.77,8.41-4.05,4.87.73,3.33,1.97,11.18-.21,7.84-2.18,14.82-3.22,27.48-4.05,12.13-.79,13.94-2.02,17.17-1.56,3.23.47,11.36,2.57,11.36,2.57Z" fill="#4d4339"/><g fill="none" mask="url(#n)"><path d="m109.69,19.84s-7.95,5.65-15.43,7.47c-3.48.84-8.66-4.36-12.66-2.07-4,2.28-5.84,6.64-11.07,6.02-5.23-.62-22.45-.52-28.3-2.49s-11.84-4.25-18.92-3.06c-7.07,1.19-7.38,9.28-7.38,9.28l51.78,12.03,31.78-4.46,10.2-22.72Z" fill="#fbf9e8"/></g><path d="m79.55,27.99c-.87-.05-3.64,1.61-4.87,1.66-1.23.05-3.64-.93-3.84-2.23-.21-1.3-1.74-3.37-1.74-3.37,0,0,3.79-1.24,6.77-.62,2.97.62,7.13,3.32,7.13,3.32l-3.43,1.24Z" fill="#706665"/><g fill="none" mask="url(#p)"><path d="m83.96,27.62c-1.63-1.05-3.37-1.97-5.2-2.61-.76-.27-1.56-.48-2.36-.59-2.4-.32-4.85-.22-7.26.03.64-.05,1.29-.09,1.93-.11,1.29-.05,2.58-.06,3.87.03.96.06,1.93.19,2.86.44.08.02.51.15.58.17.17.06.41.14.57.19,1.74.64,3.41,1.48,5,2.44h0Z" fill="#fff"/><path d="m82.98,26.95c-1.06-.42-2.15-.78-3.25-1.09-1.1-.31-2.21-.61-3.35-.71-1.71-.13-3.43,0-5.13.2-.57.07-1.13.15-1.69.25.57-.08,1.13-.15,1.7-.2,1.7-.17,3.41-.29,5.12-.15,1.14.09,2.24.4,3.34.69,1.1.3,2.19.64,3.27,1.02h0Z" fill="#fff"/><path d="m82.47,27.1c-1.96-.84-4.1-1.39-6.24-1.34-2.01.09-4,.53-5.91,1.14.5-.14,1-.27,1.51-.39,1.45-.33,2.92-.6,4.41-.65,2.13-.05,4.25.48,6.24,1.24Z" fill="#fff"/><path d="m81.55,27.67c-1.5-.35-3.03-.64-4.56-.81-.34-.03-.73-.07-1.07-.08-.96-.07-1.91.19-2.77.62-.86.41-1.67.93-2.42,1.52.77-.55,1.59-1.05,2.45-1.45.89-.41,1.75-.65,2.73-.59.34,0,.72.04,1.06.07,1.53.16,3.06.43,4.57.72h0Z" fill="#fff"/><path d="m81.19,28.12c-.76-.17-1.53-.3-2.3-.41-1.16-.14-2.35-.3-3.5-.08-1.15.27-2.13,1.06-2.86,1.97.26-.3.54-.57.84-.81.6-.49,1.28-.89,2.04-1.06.75-.15,1.55-.09,2.31-.05,1.16.1,2.32.26,3.47.45h0Z" fill="#fff"/><path d="m80.06,28.87c-.94-.47-2.51-1.12-3.55-.79-.58.23-1.12.53-1.65.84-.53.31-1.05.64-1.56.99.26-.16.53-.31.8-.47.8-.45,1.6-.93,2.45-1.26.97-.32,2.6.3,3.52.69h0Z" fill="#fff"/></g><path d="m83.01,26.72s-.31.1-1.2.08c-1.69-.05-3.54-.16-3.23.52.31.67.97.57,2.05.52,1.08-.05,1.59.57,2.15.16.56-.41.62-.36.62-.36l-.38-.91Z" fill="#fbf9e8"/><path d="m103.8,22.16c-.7,1.01-1.06,2.22-1.25,3.42-.31,2.45-.55,4.95-1.38,7.29-.57,1.7-1.4,2.57-2.62,3.81-1.27,1.28-2.56,2.7-2.93,4.53-.14.77-.27,1.54-.46,2.3-.13.5-.25,1.02-.5,1.48.11-.16.17-.35.24-.54.11-.31.2-.62.28-.94.19-.76.33-1.53.47-2.3.38-1.82,1.68-3.22,2.92-4.51.71-.75,1.47-1.49,1.99-2.4.77-1.37,1.15-2.92,1.51-4.44.23-1.02.42-2.05.6-3.08.08-.43.19-1.1.31-1.52.2-.74.48-1.45.88-2.09.13-.2.26-.4.42-.58.14-.12.15-.34.03-.48-.14-.17-.41-.15-.53.04h0Z" fill="#4d4239"/><path d="m103.34,20.24c-.7,1.01-1.06,2.22-1.25,3.42-.31,2.45-.55,4.95-1.38,7.29-.57,1.7-1.4,2.57-2.62,3.81-1.27,1.28-2.56,2.7-2.93,4.53-.14.77-.27,1.54-.46,2.3-.13.5-.25,1.02-.5,1.48.11-.16.17-.35.24-.54.11-.31.2-.62.28-.94.19-.76.33-1.53.47-2.3.38-1.82,1.68-3.22,2.92-4.51.71-.75,1.47-1.49,1.99-2.4.77-1.37,1.15-2.92,1.51-4.44.23-1.02.42-2.05.6-3.08.08-.43.19-1.1.31-1.52.2-.74.48-1.45.88-2.09.13-.2.26-.4.43-.58.14-.12.15-.34.03-.48-.14-.17-.41-.15-.53.04h0Z" fill="#4d4239"/><path d="m104.89,25.39c-.08.16-.09.34-.08.51.05.62.38,1.16.73,1.64.85,1.09,1.76,2.17,2.9,2.96.35.23.73.44,1.15.48.81.06,1.63-.05,2.4-.29-.78.19-1.6.24-2.38.13-1.31-.23-3.01-2.59-3.72-3.71-.22-.37-.52-.94-.43-1.37v-.02s0,0,.01-.01t0,0h0s0,0,0,0h0c.2-.39-.36-.7-.58-.31h0Z" fill="#fbf9e8"/><path d="m103.85,25.06c.73,1.6,1.48,3.18,2.32,4.73.43.77.85,1.55,1.42,2.23.44.49.92.95,1.44,1.34.17.12.36.25.56.35-.37-.22-.7-.52-1-.82-.61-.61-1.14-1.29-1.54-2.07-.61-1.16-1.12-2.36-1.62-3.57-.33-.81-.66-1.62-.97-2.43-.07-.17-.26-.26-.43-.19-.18.07-.26.28-.18.46h0Z" fill="#fbf9e8"/><path d="m103.86,25.8c.39.77.68,1.59.85,2.43.2.95.22,1.95-.06,2.88l-.09.31c-.06.18-.15.45-.23.62-.5,1.23-1.19,2.38-1.97,3.46.57-.68,1.09-1.41,1.55-2.17.58-.96,1.1-2,1.29-3.12.18-1.14.02-2.31-.29-3.41-.13-.44-.28-.88-.46-1.31-.21-.41-.8-.11-.59.3h0Z" fill="#fbf9e8"/><path d="m105.01,24.8c-.33,1.78-.67,3.58-1.14,5.32-.13.43-.24.86-.47,1.24-.45.77-1.15,1.42-1.66,2.14-.13.19-.23.41-.24.64-.03.23-.06.45-.06.68.02-.23.06-.45.1-.68.02-.23.13-.42.27-.6.57-.7,1.3-1.3,1.8-2.05.27-.38.42-.84.58-1.27.58-1.74,1.03-3.51,1.47-5.29.09-.45-.55-.59-.65-.14Z" fill="#fbf9e8"/><path d="m94.34,30.35c-1.5-.44-2.98-.98-4.36-1.72-.2-.1-.48-.27-.67-.39-.55-.34-1.03-.78-1.49-1.23-1.2-1.22-2.21-2.59-3.19-4,1,1.89,2.7,4.36,4.52,5.49.68.41,1.41.75,2.15,1.03.99.37,2.01.65,3.05.82Z" fill="#4d4239"/><path d="m89.7,29.44c-1.07-.84-2.1-1.75-3.02-2.77-.59-.65-1.13-1.36-1.56-2.13-.1-.17-.21-.38-.31-.54-.44-.71-.97-1.4-1.65-1.89-.21-.16-.46-.31-.66-.47-.62-.49-.5-1.56-.38-2.26-.19.65-.33,1.44-.02,2.07.17.32.49.52.77.73.48.36.9.81,1.25,1.3.17.24.4.6.55.86.09.16.21.38.31.54.06.1.15.26.22.36l.24.35c.07.1.18.24.25.33.33.43.72.86,1.11,1.24.89.87,1.87,1.64,2.92,2.28h0Z" fill="#4d4239"/><path d="m90.52,31.56c-1.73-.33-4.29-1-5.38-2.48-.19-.26-.32-.56-.38-.88-.07-.34-.14-.67-.22-1.01-.08-.34-.17-.68-.3-1.01-.13-.33-.32-.64-.52-.92-.47-.65-1.11-1.38-1.6-2.01-.55-.7-1.66-2.2-1.65-3.09v.02c.14-.17.43-.53.58-.7l-.32.32-.32.33h0c-.01.06-.01.11-.01.16,0,.22.07.44.13.64.14.41.34.8.55,1.18.67,1.18,1.62,2.24,2.41,3.33.2.27.36.56.48.86.12.31.21.64.29.97.09.37.17.76.26,1.13.07.31.22.6.41.86,1.15,1.53,3.8,2.13,5.61,2.31h0Z" fill="#4d4239"/><path d="m98.16,21.14c-.57,0-1.03-.46-1.03-1.04s.46-1.04,1.03-1.04,1.03.46,1.03,1.04-.46,1.04-1.03,1.04Z" fill="#847431"/><path d="m98.16,20.57c-.25,0-.46-.21-.46-.47s.21-.47.46-.47.46.21.46.47-.21.47-.46.47Z" fill="#2c303e"/></g></g></g></svg>