<?xml version="1.0" encoding="UTF-8"?><svg id="b" xmlns="http://www.w3.org/2000/svg" viewBox="0 0 61.35 71.19"><g id="c"><g id="d"><g id="e"><path d="M16.3,25.97c-1.26-4.53-4.27-9.42-5.4-9.05-.37,.13-.51,.78-.55,1.39-1.07-1.61-2.73-2.25-3.64-1.77-1.09,.55-1.7,2.88-.32,5.06-.66-.78-1.81-.82-2.51-.11-.69,.68-.7,1.87,0,2.56-.95-.08-1.85,.35-2.27,1.09-.57,1.03-.14,2.58,1.15,3.31-1.36,.02-2.5,.73-2.71,1.6-.28,1.12,.87,2.88,3,3.1-.03,.03-.66,.62-.52,1.39,.12,.7,.83,1.23,1.65,1.17-.05,.08-.44,.63-.28,1.35,.2,.82,.95,1.11,1,1.12-.05,.09-.32,.78,.03,1.47,.28,.55,.83,.9,1.45,.92,.21,.63,.67,1.73,1.68,2.67,1.12,1.06,2.86,1.91,4.09,1.69,3.51-.63,6.46-10.59,4.13-18.98h.02Z" fill="#ffedb7"/><path d="M32.9,57.25c.9,.78-.35,2.48,.47,5.29,.21,.71,.6,1.61,.7,1.88,.47,1.12,.72,1.68,1.04,2.14,.67,.92,1.94,1.91,3.45,2.22,.75,.16,1.58,.13,2.16,.79,.05,.05,.37,.43,.28,.59-.15,.24-1.13-.14-1.96-.51,.52,.52,.74,.84,.66,.97-.15,.24-1.44-.28-3.89-1.58,1.52,1.25,1.58,1.66,1.5,1.82-.15,.3-1.09,.11-1.68-.13-1.29-.51-2.01-1.61-2.33-2.23-.25,.6-.41,1.08-.54,1.38-.21,.59-.32,.9-.64,1.12-.03,.03-.44,.3-.6,.16-.34-.28,1.19-1.93,.95-3.99-.05-.43-.17-.78-.26-1-1.06,1.87-1.44,2.18-1.59,2.12-.34-.14,.6-2.12,.51-5.27-.05-1.77-.08-2.66-.24-3.48-.21-1-.46-1.57-.15-2.01,.38-.57,1.58-.78,2.17-.27Z" fill="#f8c9b8"/><path d="M20.19,57.25c.9,.78-.35,2.48,.47,5.29,.21,.71,.6,1.61,.7,1.88,.47,1.12,.72,1.68,1.04,2.14,.67,.92,1.94,1.91,3.45,2.22,.75,.16,1.58,.13,2.16,.79,.05,.05,.37,.43,.28,.59-.15,.24-1.13-.14-1.96-.51,.52,.52,.73,.84,.66,.97-.15,.24-1.44-.28-3.89-1.58,1.52,1.25,1.58,1.66,1.5,1.82-.15,.3-1.09,.11-1.68-.13-1.29-.51-2.01-1.61-2.33-2.23-.25,.6-.41,1.08-.54,1.38-.21,.59-.32,.9-.64,1.12-.03,.03-.44,.3-.6,.16-.34-.28,1.19-1.93,.95-3.99-.05-.43-.17-.78-.26-1-1.06,1.87-1.44,2.18-1.59,2.12-.34-.14,.6-2.12,.51-5.27-.05-1.77-.08-2.66-.24-3.48-.21-1-.46-1.57-.15-2.01,.38-.57,1.58-.78,2.17-.27Z" fill="#f8c9b8"/><path d="M38.96,51.02c.17,.44-.47,1.27-1.76,2.9-2.66,3.39-4.13,5.27-5.79,5.05-1.15-.14-1.13-1.16-3.58-3.09-2.2-1.74-3.28-1.74-3.26-2.29,.05-2.26,13.57-4.75,14.39-2.56Z" fill="#d46f17"/><path d="M54.35,1.58c-1.3-.35-2.86,.19-4.98,2.12-5.6,5.1-4.81,10.49-9.22,15.81-3.97,4.78-11.64,8.85-17.88,7.25-3.8-.98-7.21-4.08-8.82-2.66-.52,.46-.98,1.54-.77,2.6,.23,1.11,1.1,1.71,1.33,1.85-.51-.06-1,.14-1.21,.52-.31,.54-.06,1.39,.66,1.76-.83-.85-1.47-1.19-1.94-1.01-.95,.36-1.13,2.83-.58,7.42-.06,.05-.61,.44-.64,1.19-.03,.79,.57,1.27,.61,1.3-.11,.08-.41,.33-.58,.78-.15,.41-.09,.78-.06,.92-.55,.38-.77,.79-.86,1.03-.47,1.22,.31,2.98,2.04,4.23,.06,.33,.26,1.28,1.07,2.01,1.33,1.22,3.09,.76,3.25,.71-.4,1.49-.28,2.6-.11,3.36,.38,1.6,1.1,1.69,1.88,3.92,.47,1.35,.57,2.33,1.06,2.39,.31,.05,.46-.32,1.21-.85,.55-.4,.72-.38,1.53-.81,.78-.41,1.3-.78,2.33-1.49,1.27-.89,1.38-1.06,1.87-1.17,.84-.21,1.45,.11,2.13,.28,1.03,.28,2.17,.05,4.47-.43,.86-.17,3.43-.71,5.73-1.65,3.34-1.36,9.8-5.13,13.63-12.65,2.16-4.24,2.71-8.17,2.94-10.02,.17-1.27,.11-1.35,.26-6.24,.26-8.17,.4-12.27,.92-13.74,.89-2.5,2.01-3.99,1.38-5.98-.38-1.22-1.38-2.42-2.66-2.77l.03,.02Z" fill="#ff851b"/><path d="M53.59,4.97c.27-.59,.2-1.21-.15-1.39-.36-.18-.87,.16-1.14,.75s-.2,1.21,.15,1.39c.36,.18,.87-.16,1.14-.75Z" fill="#342047"/><path d="M57.77,4.66c.49-.28,0-2.88-1.58-4.19-.29-.24-.7-.57-1.09-.44-.6,.19-.95,1.36-.67,2.23,.2,.62,1,1.11,2.6,2.1,.54,.33,.64,.36,.73,.32v-.02Z" fill="#ff3400"/><path d="M58.67,8.75c.03,.62-.06,.84-.2,.95-.25,.22-.64,.13-.72,.11-1.03-.27-1.58-2.23-1.15-2.61,.11-.09,.2-.02,.55-.14,.51-.17,.57-.43,.78-.41,.49,.05,.69,1.47,.72,2.1h.02Z" fill="#d42c00"/><path d="M57.06,6.75c.43,.25,0,2.52-1.38,3.66-.25,.21-.61,.49-.95,.4-.52-.16-.83-1.19-.58-1.95,.17-.54,.87-.97,2.27-1.82,.46-.28,.55-.32,.64-.27v-.02Z" fill="#ff3400"/><path d="M59.74,5.87c1,.87,1.73,1.47,1.59,1.87-.03,.08-.12,.22-.26,.27-.23,.08-.47-.08-.55-.14-.61-.4-1.55-.46-1.87-.46-1.01,.02-1.33,.87-1.9,.62-.15-.06-.34-.32-.7-.82-.23-.32-.41-.59-.52-.76,.15-.41,.43-1.03,.89-1.71,.31-.44,.46-.66,.66-.73,.49-.17,.9,.32,2.66,1.87Z" fill="#f8c9b8"/><path d="M58.58,5.95c-.29-.17-.57-.36-.86-.54l.86,.54Z" fill="#d46f17"/><path d="M58.58,5.95c-.29-.17-.57-.36-.86-.54" fill="none" stroke="#d46f17" stroke-linecap="round" stroke-miterlimit="10" stroke-width=".69"/><path d="M60.74,7.66c-1.55-.71-3.15-1.31-4.88-1.36,.86-.03,1.71,.03,2.57,.19,.86,.16,1.65,.51,2.5,.74,.12,.03,.18,.16,.15,.28-.05,.16-.21,.21-.35,.14h.02Z" fill="#d46f17"/><path d="M30.27,31.47c-2.24,.19-3.37,.52-3.41,.97-.03,.22,.21,.47,.7,.74-1.29,.66-2.02,1.44-1.88,1.91,.03,.08,.15,.4,1.03,.52-.96,.7-1.26,1.82-.87,2.52,.31,.54,.93,.68,1.1,.71-1.35,.73-1.9,1.87-1.64,2.36,.23,.44,1.23,.59,2.34,.21-1.93,1.01-2.47,2.94-1.93,3.8,.44,.7,1.78,.92,3.12,.41-1.52,1.38-1.73,1.96-1.61,2.23,.54,1.08,7.12-1.39,12.11-4.3,4.3-2.5,5.16-4.02,5.39-5.37,.28-1.61-.37-3.07-.89-3.96" fill="none" stroke="#d46f17" stroke-linecap="round" stroke-miterlimit="10" stroke-width="1.45"/><path d="M24.58,33.64c-.73,.25-1.93,.78-3.09,1.87-1.38,1.28-2.04,2.71-2.33,3.48" fill="none" stroke="#d46f17" stroke-linecap="round" stroke-miterlimit="10" stroke-width="1.45"/><path d="M24.58,36.32c-.73,.25-1.93,.78-3.09,1.87-1.38,1.28-2.04,2.71-2.33,3.48" fill="none" stroke="#d46f17" stroke-linecap="round" stroke-miterlimit="10" stroke-width="1.45"/><path d="M24.58,38.64c-.83,.3-2.19,.9-3.51,2.17-1.56,1.49-2.3,3.13-2.63,4.04" fill="none" stroke="#d46f17" stroke-linecap="round" stroke-miterlimit="10" stroke-width="1.45"/><path d="M24.58,41.35c-.83,.3-2.19,.9-3.51,2.17-1.56,1.49-2.3,3.13-2.63,4.04" fill="none" stroke="#d46f17" stroke-linecap="round" stroke-miterlimit="10" stroke-width="1.45"/><path d="M24.58,43.26c-.83,.3-2.19,.9-3.51,2.17-1.56,1.49-2.3,3.13-2.63,4.04" fill="none" stroke="#d46f17" stroke-linecap="round" stroke-miterlimit="10" stroke-width="1.45"/><path d="M27.4,46.29c-1.27,.47-2.57,.93-3.86,1.39-1.71,.62-3.41,1.2-5.1,1.79" fill="none" stroke="#d46f17" stroke-linecap="round" stroke-miterlimit="10" stroke-width="1.45"/></g></g></g></svg>