<?xml version="1.0" encoding="UTF-8"?><svg id="b" xmlns="http://www.w3.org/2000/svg" viewBox="0 0 46.93 91.07"><g id="c"><g id="d"><g id="e"><path d="M9.98,77.84l-3.34-2.75-3.74,4.65,3.34,2.75,3.74-4.65Z" fill="#a57044"/><path d="M5.53,52.3c-.2-.09-.16-.46-.25-.96-.07-.43-.27-1.16-.44-1.16-.37,0-.48,3.45-1.15,3.5-.12,0-.23-.11-.27-.16-.32-.36,.03-.96,.19-2.02,.11-.74,.08-1.38,0-1.39-.15-.03-.89,1.89-1.31,2.62-.05,.09-.16,.28-.32,.27-.13,0-.23-.15-.25-.19-.37-.57,.99-3.1,.76-3.27-.2-.13-1.48,1.65-1.95,1.39-.09-.05-.12-.18-.13-.23-.16-.73,1.53-1.67,1.47-1.79-.07-.11-1.49,.82-1.81,.49-.05-.05-.05-.14-.07-.18-.01-.3,.37-.47,1.25-1.07,1.56-1.07,1.99-1,2.51-1.7,.51-.67,.4-1.23,.8-1.36,.49-.16,1.12,.46,1.55,.97-.07,.5-.13,1.26-.15,2.19v1.27c.07,1.67,.35,2.42-.05,2.73-.09,.07-.25,.14-.37,.08h0Z" fill="#a57044"/><path d="M46.01,46.21c-.13,.18-.48,.07-.99,.04-.43-.03-1.17,.01-1.21,.19-.09,.36,3.23,1.23,3.12,1.89-.01,.12-.15,.2-.21,.23-.41,.23-.92-.23-1.91-.62-.69-.27-1.32-.38-1.35-.3-.05,.13,1.63,1.3,2.24,1.86,.08,.07,.23,.23,.2,.36-.03,.13-.19,.19-.24,.22-.63,.24-2.79-1.65-2.99-1.46-.17,.16,1.27,1.82,.92,2.23-.07,.08-.2,.08-.25,.08-.73,0-1.28-1.89-1.41-1.84-.12,.04,.48,1.65,.07,1.89-.07,.04-.15,.03-.19,.03-.28-.05-.37-.47-.76-1.46-.68-1.78-.53-2.17-1.09-2.85-.55-.65-1.09-.66-1.13-1.09-.05-.51,.68-1,1.27-1.32,.47,.18,1.19,.4,2.07,.62,.33,.08,.71,.18,1.23,.27,1.64,.3,2.41,.19,2.61,.63,.05,.11,.08,.28,0,.39h.01Z" fill="#a57044"/><path d="M1.84,46.59l5.55,2.01,2.75-8.65,7.48-9.27-3.03-5.55-9.39,11.71-3.36,9.74Z" fill="#fadc58"/><path d="M39.34,48.4l3.53-4.76-7.35-5.22-6.53-9.99-6.13,1.28,8.28,12.56,8.2,6.13Z" fill="#facc50"/><path d="M35.09,80.37l-4.06,1.44,1.96,5.65,4.06-1.44-1.96-5.65Z" fill="#a57044"/><path d="M32.82,90.18c.21,.58,.83,.9,1.41,.73,2.72-.58,11.75-2.58,12.3-4.14,.23-.65,0-1.01,0-1.01-.32-.55-1.27-.53-1.47-.53l-7.48-.86c-.19-.03-.36,.07-.44,.23-.28,.54-1.01,1.65-2.44,2.16-1.01,.36-1.93,.26-2.53,.09-.27-.07-.49,.19-.4,.45l1.03,2.87h.03Z"/><path d="M14.86,31.88h10.98c-.27,2.97-.65,7.17-1.19,12.2-1.8,17.02-2.73,19.83-3.75,22.15-2.03,4.63-8.28,12.79-11.43,15.44-2.15-1.7-4.28-3.4-6.43-5.09,1.29-1.55,2.72-3.5,4.09-5.86,1.41-2.43,2.41-4.71,3.12-6.65,.84-5.47,1.65-10.99,2.44-16.55,.75-5.26,1.47-10.47,2.16-15.65h0Z" fill="#29485d"/><path d="M31.46,10.61c-.75,.03-.44-3.59-2.87-5.41-1.35-1.01-2.8-.93-2.77-1.4,.03-.46,1.41-1.05,2.43-.7,.29,.11,.47,.26,1.24,.57,.64,.26,.63,.19,.87,.32,.88,.47,1.24,1.42,1.31,1.57,.19,.5,.05,.55,.31,1.55,.16,.65,.24,.72,.31,1.03,.21,1.08-.33,2.47-.79,2.5h-.03Z" fill="#7e4a2f"/><path d="M32.59,12.73c-.05-.11-.09-.22-.15-.31-.19-4.63-3.15-8.3-6.77-8.3s-6.79,3.93-6.79,8.77c0,1.59,.33,3.08,.91,4.36l-1.29,7.87h7.19v-3.45c3.05,0,5.63-2.59,6.49-6.17,.87,.11,1.12-.13,1.2-.24,.08-.11,.2-.38-.77-2.54h-.01Z" fill="#a57044"/><path d="M12.23,36.71h15.23l10.59,46.16-7.68,2.81-4.32-13.67c-.56-1.86-1.29-3.67-2.2-5.4l-11.1-18.56c-.92-1.61-.92-10.74-.52-11.34Z" fill="#295269"/><path d="M11.98,49.18V31.37c0-4.79,3.69-8.72,8.2-8.72h1.97c4.51,0,8.2,3.93,8.2,8.72,.17,5.95,.35,11.9,.52,17.85-1,1.23-2.61,2.77-4.77,3.04-1.85,.23-2.17-.69-4.95-.99-3.31-.36-4.45,.88-6.69-.08-1.2-.51-2.01-1.36-2.51-2h.03Z" fill="#fadc58"/><path d="M.53,81.02c-.39,.49-.32,1.19,.13,1.61,1.91,2.04,8.32,8.79,9.92,8.43,.65-.14,.87-.53,.87-.53,.31-.57-.21-1.36-.33-1.54l-3.19-6.9c-.08-.16-.24-.27-.43-.26-.6,.04-1.92,0-3.09-.97-.83-.69-1.23-1.54-1.4-2.13-.08-.27-.41-.32-.59-.11l-1.88,2.39h-.01Z"/><path d="M29.47,11.07c-.15,.05-.23,.22-.25,.38-.01,.07-.03,.15-.03,.22v.16c0,.08,.01,.15,.03,.22,0,.04,.01,.08,.03,.11,.01,.04,.03,.08,.05,.12,.03,.05,.07,.09,.12,.13,.04,.03,.09,.05,.13,.07h.15c.07,0,.12,0,.17-.04,.04-.01,.07-.04,.09-.07,.03-.03,.04-.05,.07-.08,.01-.03,.03-.05,.04-.09,.03-.07,.04-.13,.04-.22v-.09c0-.18-.03-.35-.08-.53-.04-.15-.12-.32-.28-.35-.04-.03-.09-.03-.15-.03s-.11,0-.16,.04l.03,.05Z"/><path d="M29.07,17.01c-.21,.11-.13,.76,.04,1.2,.25,.69,.76,1.09,1.04,1.28,.2-.23,.4-.49,.61-.78,.19-.27,.35-.53,.47-.77-.25-.03-.64-.11-1.05-.31-.67-.32-.92-.73-1.11-.62Z" fill="#fff"/><path d="M18.15,29.84c-.08,.14-.15,.28-.21,.42-.08,.15-.15,.3-.23,.43-.15,.27-.29,.54-.44,.81-.16,.28-.31,.57-.49,.85-.16,.26-.31,.53-.49,.77-.15,.23-.31,.43-.48,.65-.19,.22-.36,.43-.59,.62-.23,.2-.45,.4-.68,.61-.12,.11-.23,.22-.35,.32-.11,.11-.21,.22-.32,.31-.2,.2-.41,.4-.61,.61-.11,.11-.2,.2-.31,.31-.09,.09-.2,.19-.28,.27-.12,.11-.23,.22-.32,.34-.12,.12-.21,.26-.32,.36-.09,.09-.11,.26-.01,.35,.09,.09,.24,.11,.35,.01,.12-.09,.24-.22,.35-.32,.11-.11,.2-.2,.31-.3,.11-.08,.2-.18,.29-.27,.09-.09,.2-.2,.31-.31,.2-.2,.4-.39,.61-.59,.11-.11,.23-.2,.33-.31,.11-.11,.23-.22,.35-.32,.23-.19,.47-.39,.69-.57,.11-.09,.23-.19,.32-.31,.12-.12,.23-.24,.33-.36,.41-.47,.75-1,1.07-1.54,.25-.4,.47-.81,.71-1.23,.12-.22,.24-.43,.35-.65,.11-.2,.21-.4,.32-.61,.04-.07,.07-.16,.04-.26-.03-.08-.08-.16-.15-.22-.15-.09-.37-.05-.47,.11h.03Z" fill="#facc50"/><path d="M35.11,80.94c.05-.08,.11-.2,.11-.43s-.03-.45-.07-.7c-.15-.65-.29-1.3-.43-1.94-.16-.86-.33-1.74-.51-2.6-.17-.86-.35-1.7-.53-2.52-.36-1.66-.71-3.35-1.08-5.01-.17-.76-.35-1.43-.53-2.19-.19-.76-.37-1.47-.56-2.23-.17-.72-.35-1.47-.53-2.19-.23-.86-.45-1.71-.71-2.5-.11-.32-.25-.4-.32-.22-.03,.12-.04,.27-.04,.42,0,.19,.05,.32,.09,.5,.23,.78,.4,1.61,.59,2.4,.2,.82,.37,1.66,.56,2.48,.2,.86,.39,1.69,.6,2.51,.09,.39,.19,.76,.28,1.15,.09,.43,.2,.9,.29,1.34,.27,1.23,.52,2.46,.79,3.67,.28,1.3,.55,2.59,.81,3.9,.11,.58,.23,1.19,.35,1.81,.05,.26,.11,.5,.16,.76,.07,.32,.13,.61,.2,.93,.08,.39,.24,.63,.37,.61,.03,0,.04,0,.07-.04l.07,.07-.03,.03Z" fill="#29485d"/><path d="M17.83,3.96c.4-.32,.76-.58,1.23-.85,.28-.16,.61-.34,1.07-.5,.53-.18,.93-.23,1.52-.28,.71-.08,1.07-.12,1.45-.04,.6,.11,.69,.31,1.37,.51,.72,.22,.81,.04,1.55,.19,.33,.07,1.6,.34,2.39,1.36,.17,.23,.57,.76,.44,1.27-.07,.24-.19,.26-.25,.51-.13,.5,.27,.7,.25,1.23,0,.66-.61,1.19-.76,1.32-.35,.31-.52,.26-.76,.58-.25,.34-.28,.66-.35,.97-.09,.43-.29,1.04-.84,1.74-.16-.57-.67-.96-1.23-.99-.64-.03-1.19,.43-1.33,.96-.2,.72,.31,1.61,1.25,1.84-.16,.32-.43,.76-.89,.97-.44,.2-.64,.04-.99,.26-.51,.31-.35,.82-.83,1.35-.11,.12-.17,.13-1.57,.63-.61,.22-.61,.31-.93,.3-.41,0-.72-.22-.88-.32-.83-.58-.53-1.21-1.39-1.97-.31-.28-.56-.38-.73-.76-.11-.23-.07-.28-.25-.78-.09-.26-.15-.34-.27-.66-.11-.27-.13-.39-.19-.54-.32-.94-.79-1.12-.85-1.89-.05-.55,.11-.73,.36-1.7,.53-2.04,.13-2.24,.63-3.06,.24-.38,.75-.8,1.77-1.62v-.03Z" fill="#7e4a2f"/><path d="M18,2.96c-.12-.42-.33-1.26-1.04-1.77-.32-.23-.48-.22-1.77-.65C13.82,.08,13.9,.02,13.58,0c-.88-.04-1.85,.39-2.39,1.09-.19,.24-.17,.34-.55,.86-.4,.58-.53,.62-.67,.96-.15,.35-.05,.4-.19,1.15-.16,.9-.32,.96-.27,1.32,.08,.5,.39,.53,.75,1.17,.48,.86,.13,1.15,.55,1.7,.47,.63,1.37,.86,2.05,.77,.43-.05,.45-.2,1.03-.38,.96-.28,1.43-.04,1.95-.13,1.51-.28,2.77-3.29,2.16-5.57h0Z" fill="#7e4a2f"/><path d="M19.06,3.11c.09,.24-1.4,.59-2.49,2.09-1.51,2.09-.89,4.58-1.19,4.6-.35,.03-1.79-3.17-.29-5.22,1.23-1.69,3.85-1.78,3.97-1.47Z" fill="#295269"/></g></g></g></svg>