<?xml version="1.0" encoding="UTF-8"?><svg id="b" xmlns="http://www.w3.org/2000/svg" viewBox="0 0 98.02 77.6"><g id="c"><g id="d"><g id="e"><path d="M51.52,19.29c-.44,.02-1.17,.04-1.61,.04h-7.58l-6.27,.11c-.44,0-1.17,.04-1.61,.08l-4.53,.32c-.44,.03-1.15,.12-1.59,.21l-3.67,.7c-.43,.09-1.12,.3-1.52,.47,0,0-3.64,1.56-4.07,1.7-.44,.14-3,1.99-3,1.99-.36,.25-.97,.64-1.37,.83l-1.34,.7c-.39,.21-1.02,.55-1.41,.77l-3.57,2.08c-.38,.22-1.01,.57-1.41,.77l-1.64,.85c-.39,.21-1.08,.37-1.52,.37h-.43c-.44,0-1.14-.11-1.57-.25l-.22-.08c-.42-.13-.97-.22-1.2-.18-.24,.04-.4,.36-.37,.72,.04,.35,.39,.81,.79,1.02l.77,.41c.39,.21,1.07,.37,1.51,.37h.29c.44,0,1.14-.13,1.55-.29l2.73-1.02c.41-.15,1.07-.46,1.44-.68l2.84-1.65c.38-.22,1.04-.47,1.49-.56l.61-.12c.43-.09,.76,.2,.71,.64l-.13,1.44c-.04,.44-.09,1.15-.11,1.58l-.09,2.31c-.01,.44,0,1.15,.06,1.58l.27,2.6c.04,.44,.12,1.14,.17,1.58l.28,2.75c.04,.44,.06,1.15,.03,1.58l-.04,.58c-.03,.44-.26,1.09-.5,1.46l-1.44,2.14c-.24,.36-.6,.99-.79,1.38l-2.39,5.05c-.19,.4-.49,1.04-.68,1.44l-1.08,2.31c-.19,.4-.52,1.03-.74,1.41l-.8,1.36c-.22,.38-.38,1.04-.34,1.48l.17,2.16c.03,.44,.04,1.15,.03,1.59l-.1,3.17c-.01,.44-.07,1.15-.11,1.58l-.12,1.16c-.04,.44-.11,1.14-.13,1.58l-.04,.58c-.03,.44,.11,1.09,.31,1.44,.2,.36,.72,.65,1.17,.65h4.07c.44,0,1.03-.23,1.31-.51,.28-.27,.38-.74,.22-1.01-.16-.27-.59-.7-.94-.93-.37-.24-.94-.66-1.29-.93l-.21-.16c-.34-.27-.76-.72-.92-1-.16-.27-.29-.86-.29-1.3v-1.72c0-.44,.04-1.15,.1-1.58l.23-1.75c.06-.43,.29-1.1,.5-1.48l.95-1.65c.22-.38,.4-.33,.4,.11v3.03c0,.44-.02,1.15-.04,1.59l-.07,1.31c-.02,.44-.04,1.15-.04,1.59v1.14c0,.44,.34,.91,.75,1.07l.52,.19c.42,.14,1.12,.26,1.57,.26h1.17c.44,0,1.15-.07,1.6-.14l.75-.14c.43-.08,.99-.41,1.23-.72,.24-.32,.31-.74,.14-.93-.16-.2-.62-.51-1.02-.69l-.73-.34c-.4-.19-1.07-.46-1.49-.6l-.09-.03c-.41-.15-.76-.63-.76-1.07v-5.78c0-.44,.18-1.11,.4-1.48l2.4-4.11c.22-.38,.61-.98,.88-1.33l2.42-3.33c.26-.35,.75-.87,1.1-1.13l2.09-1.61c.34-.27,.82-.79,1.07-1.16l1.18-1.83c.23-.37,.54-1.01,.69-1.43l.37-1.09c.13-.42,.33-1.11,.43-1.53l.53-2.34c.89-.3,2.11-.66,3.58-.99,0,0,2.11-.48,3.83-.69,1.99-.23,6.33,.62,12.92,3.3,1.08,.44,.94,.42,1.49,.62,4.03,1.5,7.66,1.56,10.11,1.36,.44-.02,.85,.32,.91,.75l.08,.59c.06,.44,.18,1.14,.27,1.57l.99,4.79c.09,.43,.21,1.13,.28,1.56l.79,5.21c.07,.43,.13,1.14,.16,1.58l.21,4.19c.02,.44,.04,1.12,.04,1.52s-.1,1.01-.22,1.37-.19,.85-.14,1.09c.04,.24,.33,.36,.66,.29,.32-.08,.7,.2,.84,.6l1.23,3.55c.14,.42,.2,.98,.11,1.26-.09,.29-.14,.77-.14,1.09s.17,.8,.37,1.08c.2,.27,.72,.47,1.17,.43l2.92-.27c.44-.04,1.15-.12,1.6-.16l.89-.1c.44-.05,.8-.29,.8-.53s-.3-.59-.66-.79c-.36-.2-.32-.52,.08-.69l.43-.2c.4-.19,.6-.49,.43-.69-.17-.2-.54-.62-.87-.92l-.02-.02c-.31-.31-.88-.75-1.25-.97l-.08-.04c-.38-.22-1.04-.47-1.48-.55h-.02c-.43-.09-.97-.46-1.17-.85l-.41-.76c-.21-.38-.38-1.05-.38-1.49v-20.06c0-.44,.13-1.13,.31-1.53l1.87-4.45c.17-.41,.49-1.04,.7-1.43,1.57-1.91,2.32-3.61,2.72-4.81,.07-.21,.16-.47,.89-3.16,.37-1.33,.66-2.43,.85-3.17l1.08-2.31c.19-.4,.49-1.04,.68-1.44l2.09-4.34c.19-.4,.52-1.03,.73-1.42l1.85-3.36c.21-.38,.64-.96,.95-1.26l1.34-1.33c.31-.31,.89-.72,1.29-.93l1.92-1c.39-.2,1.07-.47,1.49-.59l2.4-.7c.42-.12,1.1-.38,1.49-.58l1.19-.59c.4-.2,.97-.62,1.27-.94l.66-.7c.3-.32,.64-.92,.78-1.35l.28-.93c.12-.42,.17-1.05,.08-1.42-.08-.36-.28-.88-.44-1.15-.16-.27-.62-.47-1.02-.44-.4,.04-1.09,.08-1.53,.08h-.73c-.44,0-1.17-.02-1.61-.04l-1.17-.07c-.44-.02-1.1-.04-1.47-.04s-.92-.24-1.25-.53l-.11-.1c-.33-.3-.91-.71-1.29-.94l-.53-.32c-.38-.23-1.04-.45-1.49-.49l-1.32-.13c-.44-.04-1.17-.08-1.61-.08h-.43c-.44,0-1.17,.04-1.6,.1l-.73,.09c-.44,.05-1.13,.23-1.54,.41l-.27,.11c-.41,.16-.99,.57-1.28,.89l-.38,.41c-.3,.33-.77,.87-1.04,1.21l-.74,.92c-.28,.34-.69,.93-.91,1.31l-.8,1.36c-.22,.38-.63,.97-.92,1.3l-2.03,2.39c-.28,.34-.73,.9-1,1.24l-1.22,1.61c-.27,.35-.76,.87-1.1,1.15l-1.7,1.43c-.33,.29-.94,.65-1.35,.82l-2.31,.97c-.4,.18-1.09,.4-1.52,.49l-2.81,.65c-.43,.1-1.14,.2-1.59,.22l-3.64,.2h.04Z" fill="#a16053"/><path d="M23.76,46.1c-2.72,3.22-2.89,4.32-5.93,7.74-1.74,1.96-2.28,2.25-3.38,3.82-1.53,2.17-2.38,4.23-2.85,5.67,.08,1.07,.11,2.2,.11,3.39,0,.44-.02,1.15-.04,1.59l-.07,1.31c-.02,.44-.04,1.15-.04,1.59v1.14c0,.44,.34,.91,.76,1.07l.52,.19c.42,.14,1.12,.26,1.57,.26h1.17c.44,0,1.15-.07,1.6-.14l.75-.14c.43-.08,.99-.41,1.23-.73,.24-.32,.31-.74,.14-.93-.16-.2-.62-.51-1.02-.69l-.73-.34c-.4-.19-1.07-.46-1.49-.6l-.09-.03c-.41-.15-.75-.63-.75-1.07v-5.78c0-.44,.18-1.11,.4-1.48l2.4-4.11c.22-.38,.61-.98,.88-1.33l2.42-3.33c.26-.35,.76-.87,1.1-1.13l2.09-1.61c.34-.27,.82-.79,1.07-1.16l1.18-1.83c.23-.37,.54-1.01,.69-1.43l.37-1.09c.13-.42,.33-1.11,.43-1.53l.53-2.34c-2.29,2-3.93,3.81-4.98,5.06h-.01Z" fill="#7b493f"/><path d="M66.67,43.51c.34,7.17,.52,12.68,.63,16.16,.19,6.14,.23,10.61,3.46,13.52,1.02,.92,2.09,1.43,2.81,1.71,.06-.09,.16-.21,.32-.32,.19-.12,.29-.12,.43-.2,.24-.13,.6-.49,.43-.69-.17-.2-.54-.62-.87-.92l-.02-.02c-.31-.31-.88-.75-1.25-.97l-.08-.04c-.38-.22-1.04-.47-1.48-.55h-.02c-.43-.09-.97-.46-1.17-.85l-.41-.76c-.21-.38-.38-1.05-.38-1.49v-20.06c0-.44,.13-1.13,.31-1.53l1.87-4.45c.23-.47,.47-.96,.7-1.43-.56,.57-1.44,1.34-2.7,1.98-.99,.49-1.9,.76-2.59,.89h-.01Z" fill="#7b493f"/><path d="M72.73,72.88c.18,.05,.48,.18,.78,.43,.29,.24,.44,.49,.53,.66" fill="none" stroke="#000" stroke-linecap="round" stroke-miterlimit="10" stroke-width=".71"/><path d="M72.49,73.51c.14,.08,.33,.2,.52,.4,.18,.19,.29,.37,.37,.51" fill="none" stroke="#000" stroke-linecap="round" stroke-miterlimit="10" stroke-width=".71"/><path d="M33.03,31.37c.02,.08,.02,.19-.02,.27-.03,.09-.07,.16-.1,.23l-.08,.24c-.06,.18-.11,.36-.16,.54-.09,.34-.18,.68-.27,1.02-.09,.35-.19,.7-.3,1.04-.11,.35-.23,.71-.36,1.08l-.08,.24-.12,.35c-.04,.13-.12,.26-.18,.4-.06,.12-.12,.24-.19,.34-.13,.24-.28,.48-.42,.72-.19,.34-.38,.67-.58,1.01-.23,.42-.48,.83-.72,1.25-.17,.29-.33,.56-.49,.85-.08,.12-.16,.26-.22,.38-.1,.18-.21,.34-.31,.51-.06,.09-.11,.18-.17,.24-.11,.16-.21,.31-.33,.45-.1,.13-.21,.24-.32,.37-.23,.27-.46,.55-.69,.81-.22,.25-.46,.49-.69,.74-.17,.16-.33,.32-.5,.47-.17,.16-.34,.33-.52,.48-.16,.13-.31,.26-.48,.4-.08,.07-.16,.13-.23,.2-.07,.04-.12,.1-.19,.15-.02,.08-.08,.12-.12,.16-.11,.09-.24,.06-.28-.09-.01-.08-.02-.15,0-.25,.01-.04,.02-.08,.04-.11,.03-.04,.07-.1,.1-.13,.06-.05,.11-.1,.17-.14,.08-.07,.16-.13,.23-.2,.18-.14,.36-.29,.52-.44,.34-.29,.68-.6,1.01-.92,.3-.3,.59-.62,.87-.96,.14-.16,.28-.34,.41-.51,.16-.19,.32-.38,.47-.59,.11-.16,.21-.34,.31-.51,.1-.16,.19-.33,.29-.49l.62-1.09c.39-.7,.79-1.4,1.19-2.1,.08-.13,.16-.29,.23-.42,.22-.38,.44-.77,.63-1.18l.11-.33,.08-.24,.18-.53c.12-.35,.24-.7,.36-1.07,.1-.35,.19-.7,.29-1.05,.04-.16,.09-.32,.13-.48,.04-.19,.1-.36,.16-.54l.08-.22c.03-.1,.08-.18,.11-.26,0-.03,.02-.07,.04-.09,.03-.06,.07-.11,.11-.13,.07-.04,.13-.07,.2-.04,.07,.02,.11,.09,.13,.15h.03Z" fill="#7b493f"/><path d="M59.9,38.19c-.07,.02-.13,.06-.17,.12-.04,.07-.04,.13-.03,.21,.04,.2,.09,.4,.12,.59,.03,.26,.07,.53,.11,.79,.04,.26,.09,.52,.14,.77,.1,.51,.19,1.02,.31,1.53,.06,.23,.12,.44,.2,.67,.08,.23,.14,.45,.21,.68,.07,.22,.12,.45,.2,.67,.09,.26,.19,.53,.32,.77,.06,.1,.19,.13,.28,.08,.04-.03,.08-.08,.1-.12,.02-.06,0-.1-.02-.15-.1-.24-.16-.49-.21-.74-.07-.25-.12-.51-.18-.76-.07-.26-.13-.52-.21-.77-.03-.12-.07-.23-.1-.35-.03-.13-.06-.27-.09-.41-.08-.37-.14-.75-.22-1.12-.08-.4-.16-.79-.21-1.19-.02-.18-.04-.36-.07-.55,0-.08-.03-.15-.04-.23-.02-.1-.04-.19-.06-.29-.02-.12-.14-.2-.27-.2h-.07l-.06-.02h0Z" fill="#7b493f"/><path d="M66.53,37.08c.07,0,.14,.02,.19,.08,.06,.05,.08,.12,.09,.2,0,.2,.02,.41,.04,.6,.03,.26,.08,.53,.1,.79,.03,.26,.06,.52,.07,.78,.04,.52,.09,1.03,.11,1.55,0,.24,0,.45-.01,.7-.01,.25-.02,.47-.02,.71s0,.46-.01,.7c-.01,.27-.04,.56-.1,.82-.02,.11-.14,.18-.24,.14-.06-.02-.1-.05-.13-.09-.03-.04-.02-.1-.02-.15,.03-.26,.02-.52,0-.77,0-.26-.02-.52-.03-.78v-1.16c0-.13-.02-.27-.02-.42-.02-.38-.07-.76-.09-1.14-.03-.41-.07-.8-.11-1.2-.02-.18-.06-.36-.08-.55,0-.08,0-.15-.02-.23,0-.1,0-.19-.02-.29,0-.12,.09-.23,.2-.26,.02,0,.04-.01,.07,0l.04-.03h.01Z" fill="#7b493f"/><path d="M75.8,6.55c-.1,.58,.17,.62,2.05,4.32,.77,1.51,1.02,2.09,1.78,2.47,.98,.51,2.42,.48,2.92-.2,.52-.71-.47-1.48-.24-3.25,.14-1.21,.64-1.29,.89-2.53,.2-1.03,.23-2.97-.74-3.76-1.68-1.36-6.27,.6-6.65,2.95h0Z" fill="#7b493f"/><path d="M85.31,5.28c.1,.1,.33,0,.8-.19,.36-.14,.52-.22,.58-.36,.08-.23-.13-.51-.27-.68-.13-.18-.24-.31-.39-.3-.21,0-.36,.32-.52,.67-.17,.35-.33,.74-.2,.86Z"/><path d="M97.94,4.1c-.02-.21-.12-.75-.51-1.11-.13-.12-.26-.19-.29-.2-.3-.14-.58-.12-.72-.1-.29,.72-.13,.97-.06,1.04,.11,.11,.27,.11,.66,.16,.39,.05,.7,.13,.91,.2h.01Z"/><path d="M97.61,6.76c-.66,.81-1.68,1.18-2.69,1.23-1.63,.3-3.25,.92-4.91,.67,1.5-.82,3.24-.68,4.87-.85,.89-.31,1.84-.97,2.73-1.05h-.01Z"/><path d="M11.24,75.52c.17,.08,.46,.23,.72,.52,.26,.27,.38,.55,.44,.72" fill="none" stroke="#000" stroke-linecap="round" stroke-miterlimit="10" stroke-width=".71"/><path d="M9.8,76.04c.14,.07,.38,.19,.6,.41,.27,.27,.39,.56,.44,.72" fill="none" stroke="#000" stroke-linecap="round" stroke-miterlimit="10" stroke-width=".71"/><path d="M17.14,71.48c.17,.08,.46,.23,.72,.52,.26,.27,.38,.55,.44,.72" fill="none" stroke="#000" stroke-linecap="round" stroke-miterlimit="10" stroke-width=".71"/><path d="M15.69,72.01c.14,.07,.38,.19,.6,.41,.27,.27,.39,.56,.44,.73" fill="none" stroke="#000" stroke-linecap="round" stroke-miterlimit="10" stroke-width=".71"/><path d="M71.38,74.59c.17,.08,.46,.23,.72,.52,.26,.27,.38,.55,.44,.72" fill="none" stroke="#000" stroke-linecap="round" stroke-miterlimit="10" stroke-width=".71"/><path d="M69.94,75.11c.14,.07,.38,.19,.6,.41,.27,.27,.39,.56,.44,.72" fill="none" stroke="#000" stroke-linecap="round" stroke-miterlimit="10" stroke-width=".71"/></g></g></g></svg>