<?xml version="1.0" encoding="UTF-8"?><svg id="b" xmlns="http://www.w3.org/2000/svg" xmlns:xlink="http://www.w3.org/1999/xlink" viewBox="0 0 44.87 48.41"><defs><mask id="e" x="5.44" y="5.6" width="33.14" height="22.87" maskUnits="userSpaceOnUse"><g id="f"><path d="m37.41,10.33s-1.11,12.7-5.5,14.57c-4.39,1.87-8.95-.23-11.7-.23s-10.82,2.31-12.52-1.97c-1.7-4.28-3.1-6.8-1.64-8.15,1.46-1.35,3.98-3.16,5.5-3.1,1.52.06,11.94,2.17,14.22,2.17s5.67.29,6.08-.47c.41-.76.82-7.08,2.05-7.49,1.23-.41,4.68,2.11,4.68,2.11l-1.17,2.57h0Z" fill="#fff"/></g></mask><mask id="g" x="33.4" y="4.05" width="11.47" height="9.54" maskUnits="userSpaceOnUse"><g id="h"><path d="m33.4,6.2s1.15-2.78,4.22-2.01c3.07.76,3.28,1.9,3.45,3.25.17,1.35,3.04,4.33,2.92,5-.12.67-2.14.9-3.3.58-1.17-.32-3.63-1.55-4.62-2.57-.99-1.02-2.67-4.24-2.67-4.24h0Z" fill="#fff"/></g></mask><mask id="i" x="37.66" y="0" width="4.3" height="5.4" maskUnits="userSpaceOnUse"><g id="j"><path d="m38.09,5.26s-1.08-.88.18-2.28c1.26-1.4,2.31-1.43,2.4-2.17.09-.73.79-.56.79-.56,0,0-.14,2.28-.35,2.63-.71,1.16-2.87,2.4-2.87,2.4" fill="#fff"/></g></mask></defs><g id="c"><g id="d"><path d="m33.09,21.56s-4.1,20.36-4.16,21.24c-.06.88.99,3.86.99,3.86h-1.64s-.64-1.23-.93-1.81c-.29-.58,2.22-24.46,2.22-24.46" fill="#b27446"/><path d="m16.71,21s-.53,4.96-2.34,8.12c-1.81,3.16-4.39,3.98-4.39,5.27s1.05,9.07,1.29,9.71c.23.64.82,1.17.82,1.17l-1.05.88s-1.4-1.23-1.64-2.17c-.23-.93-.18-5.21-1.17-7.2-.99-1.99-1.46-2.52-.88-4.04.58-1.52,1.58-1.87,2.17-4.91.58-3.04-2.5-6.14-2.42-8.6.08-2.46.55-6.41,3.92-7.13,3.37-.72,7.1,2.83,5.7,8.9h0Z" fill="#b27446"/><path d="m37.41,10.33s-1.11,12.7-5.5,14.57c-4.39,1.87-8.95-.23-11.7-.23s-10.82,2.31-12.52-1.97c-1.7-4.28-3.1-6.8-1.64-8.15,1.46-1.35,3.98-3.16,5.5-3.1,1.52.06,11.94,2.17,14.22,2.17s5.67.29,6.08-.47c.41-.76.82-7.08,2.05-7.49,1.23-.41,4.68,2.11,4.68,2.11l-1.17,2.57h0Z" fill="#c78249"/><g fill="none" mask="url(#e)"><path d="m36.77,17.6s-2.9,6.32-6.32,6.5c-3.42.18-8.86-.7-12.42-.48-3.55.22-6.89.22-6.89.22l.7,3.47,21.55,1.18,4.25-9.3-.88-1.58Z" fill="#d39b70"/></g><path d="m31.56,22.38s-1.7,3.63-1.7,4.56,1.76,7.26,1.7,7.84c-.06.58-.58,1.29-.41,2.17.17.88.99,9.36,1.05,9.6.06.23.64.88.64.88l-1.49.29s-.67-1.23-.85-1.52c-.17-.29-.82-1.11-.64-2.11.17-.99-.82-7.43-.82-7.43,0,0-4.04-9.68-4.04-12.36s.29-3.5.29-3.5" fill="#c78249"/><path d="m13.66,22.69s-.53,4.96-2.34,8.12c-1.81,3.16-4.39,3.98-4.39,5.27s1.05,9.07,1.29,9.71c.23.64.82,1.17.82,1.17l-1.05.88s-1.4-1.23-1.64-2.17c-.23-.94-.18-5.21-1.17-7.2-.99-1.99-1.46-2.52-.88-4.04.58-1.52,1.58-1.87,2.17-4.91.58-3.04-2.5-6.14-2.42-8.6.08-2.46.42-7.1,3.79-7.82,3.37-.72,7.23,3.52,5.83,9.59h0Z" fill="#c78249"/><path d="m33.4,6.2s1.15-2.78,4.22-2.01c3.07.76,3.28,1.9,3.45,3.25.17,1.35,3.04,4.33,2.92,5-.12.67-2.14.9-3.3.58-1.17-.32-3.63-1.55-4.62-2.57-.99-1.02-2.67-4.24-2.67-4.24h0Z" fill="#c78249"/><g fill="none" mask="url(#g)"><path d="m39.25,7.48s-2.18-.3-2.47.46c-.29.76.15,1.14,1.81,1.53,1.65.39,4.53,3.01,4.53,3.01l1.76-1.23-2.72-4.8-1.93,1.32-.96-.29h0Z" fill="#e2a375"/><path d="m42.89,11.91s-.65-1.3-1.44-2.26c-.79-.96-2.55-2.17-2.55-2.17v-1.29l1.45.44s.49,1.1.94,1.96c.45.86,2.71,3.45,2.71,3.45l-.47.48" fill="#805437"/><path d="m44.22,11.82s-.81-.19-1.33.09c-.51.27.55,1.25.55,1.25l1.25-.38-.47-.95Z" fill="#353435"/><path d="m42.77,13.27s-.87-.55-1.22-.78c-.35-.23-.6-.41-.6-.41" fill="none" stroke="#544e55" stroke-miterlimit="10" stroke-width=".75"/><path d="m38.83,9.03s-.2-1.09-.64-1.24c-.44-.15-1.63-.16-1.45.46.18.61,1.04.94,2.1.78Z" fill="#544e55"/></g><path d="m36.04,5s-1.7-2.81-2.08-3.19c-.38-.38-1.46-.23-2.08-.44-.61-.2-1.05.12-.58,1.17.47,1.05.41,2.21,1.7,2.63,1.29.43,1.96,1.46,1.96,1.46l1.08-1.64h0Z" fill="#c78249"/><path d="m38.09,5.26s-1.08-.88.18-2.28c1.26-1.4,2.31-1.43,2.4-2.17.09-.73.79-.56.79-.56,0,0-.14,2.28-.35,2.63-.71,1.16-2.87,2.4-2.87,2.4" fill="#c78249"/><g fill="none" mask="url(#i)"><path d="m41.45,0s-.64,2.43-1.26,2.92l-1.3,2.48,1.92-.81.63-1.67.51-2.67-.51-.24h0Z" fill="#aa6836"/></g><path d="m36.71.36v4.84c.02.73,1.1.64,1.01-.08l-.76-4.78c-.02-.15-.25-.13-.25.02Z" fill="#2b2c34"/><path d="m38.91.87l-.52,4.07c-.06.5.69.6.77.1,0-.08,0-4.07,0-4.15,0-.15-.23-.17-.25-.01h0Z" fill="#2b2c34"/><path d="m32.32,46.57s1.02.86,1.02,1.14-2.09.34-2.28.12c-.19-.22-.06-.75-.06-.75l1.32-.5Z" fill="#544e55"/><path d="m29.63,45.96s1.02.86,1.02,1.14-2.09.34-2.28.12c-.19-.22-.06-.75-.06-.75l1.32-.5Z" fill="#544e55"/><path d="m9,46.94s1.3.94,1.3,1.22-2.09.34-2.28.12c-.19-.22-.2-.52-.2-.52l1.18-.81h0Z" fill="#544e55"/><path d="m12.05,45.25s1.3.94,1.3,1.22-2.09.34-2.28.12c-.19-.22-.2-.52-.2-.52l1.18-.81h0Z" fill="#544e55"/><path d="m6.01,14.31s-1.23.92-2.24,3.36c-1.01,2.43-.4,2.81-1.01,4.19-.61,1.38,1.28-.11,1.28-.11l2.47-6.25-.5-1.18Z" fill="#c78249"/><path d="m34.79,4.9s-.51-.4-.56-1.21c-.05-.81-.23-.79-.65-1.11-.42-.32-1.17-.23-1.17-.23,0,0,1.13.42,1.17,1.2s1.21,1.35,1.21,1.35Z" fill="#aa6836"/><path d="m4.21,21.32s.15,1.61-.17,2.33c-.31.72-1.09,1.43-1.09,1.43l.28-1.01s-.79.76-1.02.73c-.23-.03-.57,0-.57,0,0,0,.43-.41,1-1.04.58-.63.5-.69.5-.69,0,0-1.3,1.29-1.9,1.14-.6-.15-.79-.12-.79-.12,0,0,2.07-.56,2.19-1.01.12-.45.11-.37.11-.37,0,0-1.51.57-2.06.58-.55.01-.69.03-.69.03,0,0,2.97-1.72,3.04-2.39.07-.67.35-1,.35-1l.16.92.63-1.35.02,1.8Z" fill="#d39b70"/></g></g></svg>