<?xml version="1.0" encoding="UTF-8"?><svg id="b" xmlns="http://www.w3.org/2000/svg" xmlns:xlink="http://www.w3.org/1999/xlink" viewBox="0 0 276.55 301.53"><defs><mask id="e" x="33.54" y="34.91" width="204.29" height="142.47" maskUnits="userSpaceOnUse"><g id="f"><path d="m230.61,64.33s-6.85,79.09-33.9,90.75c-27.05,11.66-55.18-1.46-72.13-1.46s-66.72,14.39-77.17-12.3c-10.45-26.69-19.11-42.36-10.1-50.74,9.01-8.38,24.52-19.69,33.9-19.31,9.38.37,73.57,13.49,87.64,13.49s34.98,1.83,37.51-2.91c2.53-4.74,5.04-44.1,12.63-46.65,7.59-2.56,28.85,13.12,28.85,13.12l-7.22,16.03v-.02Z" fill="#fff"/></g></mask><mask id="g" x="205.87" y="25.23" width="70.67" height="57.76" maskUnits="userSpaceOnUse"><g id="h"><path d="m205.87,38.6s7.07-17.29,26.01-12.55c18.93,4.74,20.2,11.85,21.27,20.23,1.07,8.38,18.76,26.97,18.02,31.16-.74,4.2-13.17,5.62-20.37,3.64-7.22-2-22.36-9.65-28.49-16.03-6.13-6.38-16.45-26.44-16.45-26.44v-.02Z" fill="#fff"/></g></mask><mask id="i" x="232.1" y="0" width="26.51" height="33.63" maskUnits="userSpaceOnUse"><g id="j"><path d="m234.76,32.79s-6.67-5.47,1.09-14.22c7.76-8.75,14.24-8.92,14.79-13.49.55-4.57,4.87-3.47,4.87-3.47,0,0-.84,14.22-2.16,16.4-4.37,7.2-17.67,14.95-17.67,14.95" fill="#fff"/></g></mask></defs><g id="c"><g id="d"><path d="m203.93,134.29s-25.24,126.82-25.61,132.29c-.37,5.47,6.13,24.05,6.13,24.05h-10.1s-3.97-7.65-5.76-11.29c-1.79-3.64,13.7-152.33,13.7-152.33" fill="#b27446"/><path d="m103,130.79s-3.25,30.88-14.42,50.57c-11.17,19.69-27.05,24.78-27.05,32.8s6.5,56.49,7.94,60.5c1.44,4.01,5.04,7.3,5.04,7.3l-6.5,5.47s-8.66-7.65-10.1-13.49c-1.44-5.82-1.09-32.43-7.22-44.82-6.13-12.39-9.01-15.67-5.41-25.15,3.6-9.48,9.73-11.66,13.35-30.61,3.6-18.96-15.42-38.27-14.93-53.58.49-15.3,3.39-39.91,24.17-44.42,20.78-4.49,43.77,17.63,35.11,55.43h.02Z" fill="#b27446"/><path d="m230.61,64.33s-6.85,79.09-33.9,90.75c-27.05,11.66-55.18-1.46-72.13-1.46s-66.72,14.39-77.17-12.3c-10.45-26.69-19.11-42.36-10.1-50.74,9.01-8.38,24.52-19.69,33.9-19.31,9.38.37,73.57,13.49,87.64,13.49s34.98,1.83,37.51-2.91c2.53-4.74,5.04-44.1,12.63-46.65,7.59-2.56,28.85,13.12,28.85,13.12l-7.22,16.03v-.02Z" fill="#c78249"/><g fill="none" mask="url(#e)"><path d="m226.64,109.6s-17.86,39.36-38.95,40.46c-21.09,1.1-54.64-4.37-76.54-3-21.9,1.36-42.47,1.36-42.47,1.36l4.32,21.59,132.86,7.37,26.22-57.94-5.44-9.84Z" fill="#d39b70"/></g><path d="m194.55,139.4s-10.45,22.6-10.45,28.42,10.82,45.2,10.45,48.84c-.37,3.64-3.6,8.02-2.53,13.49,1.07,5.47,6.13,58.31,6.5,59.77.37,1.46,3.97,5.47,3.97,5.47l-9.2,1.83s-4.15-7.65-5.23-9.48c-1.07-1.83-5.04-6.92-3.97-13.12,1.07-6.2-5.04-46.28-5.04-46.28,0,0-24.89-60.31-24.89-76.99s1.81-21.78,1.81-21.78" fill="#c78249"/><path d="m84.19,141.31s-3.25,30.88-14.42,50.57c-11.17,19.69-27.05,24.78-27.05,32.81s6.5,56.49,7.94,60.5c1.44,4.01,5.04,7.3,5.04,7.3l-6.5,5.47s-8.66-7.65-10.1-13.49c-1.44-5.82-1.09-32.43-7.22-44.82-6.13-12.39-9.01-15.67-5.41-25.15,3.6-9.48,9.73-11.66,13.35-30.61,3.6-18.96-15.42-38.27-14.93-53.58.49-15.3,2.56-44.22,23.34-48.71,20.78-4.49,44.59,21.92,35.93,59.74l.03-.02Z" fill="#c78249"/><path d="m205.87,38.6s7.07-17.29,26.01-12.55c18.93,4.74,20.2,11.85,21.27,20.23,1.07,8.38,18.76,26.97,18.02,31.16-.74,4.2-13.17,5.62-20.37,3.64-7.22-2-22.36-9.65-28.49-16.03-6.13-6.38-16.45-26.44-16.45-26.44v-.02Z" fill="#c78249"/><g fill="none" mask="url(#g)"><path d="m241.92,46.59s-13.46-1.86-15.23,2.88c-1.76,4.74.94,7.09,11.13,9.54,10.19,2.45,27.91,18.73,27.91,18.73l10.82-7.65-16.77-29.92-11.89,8.19-5.95-1.78-.02.02Z" fill="#e2a375"/><path d="m264.38,74.21s-4.02-8.07-8.87-14.08c-4.86-6.01-15.74-13.49-15.74-13.49v-8.04l8.94,2.76s3.05,6.86,5.81,12.24c2.77,5.37,16.71,21.47,16.71,21.47l-2.91,3.02" fill="#805437"/><path d="m272.56,73.65s-5-1.16-8.18.54c-3.17,1.7,3.39,7.76,3.39,7.76l7.71-2.35-2.91-5.95Z" fill="#353435"/><path d="m263.62,82.68s-5.35-3.42-7.51-4.85c-2.16-1.44-3.72-2.52-3.72-2.52" fill="none" stroke="#544e55" stroke-miterlimit="10" stroke-width=".75"/><path d="m239.36,56.23s-1.24-6.78-3.97-7.71c-2.73-.93-10.05-.99-8.97,2.83,1.09,3.83,6.44,5.89,12.94,4.88Z" fill="#544e55"/></g><path d="m222.14,31.15s-10.45-17.49-12.8-19.86c-2.34-2.37-9.01-1.46-12.8-2.73-3.79-1.27-6.5.73-3.6,7.3,2.9,6.57,2.53,13.75,10.45,16.4,7.92,2.65,12.08,9.11,12.08,9.11l6.67-10.21v-.02Z" fill="#c78249"/><path d="m234.76,32.79s-6.67-5.47,1.09-14.22c7.76-8.75,14.24-8.92,14.79-13.49.55-4.57,4.87-3.47,4.87-3.47,0,0-.84,14.22-2.16,16.4-4.37,7.2-17.67,14.95-17.67,14.95" fill="#c78249"/><g fill="none" mask="url(#i)"><path d="m255.5,0s-3.97,15.12-7.76,18.18l-7.99,15.44,11.83-5.05,3.89-10.38,3.13-16.65-3.13-1.52v-.03Z" fill="#aa6836"/></g><path d="m226.26,2.25v30.16c.14,4.52,6.79,4.01,6.24-.5l-4.71-29.78c-.14-.91-1.53-.82-1.53.12Z" fill="#2b2c34"/><path d="m239.81,5.41l-3.23,25.32c-.35,3.14,4.28,3.76,4.74.62.06-.51,0-25.37.03-25.84,0-.94-1.41-1.05-1.53-.09v-.02Z" fill="#2b2c34"/><path d="m199.24,290.09s6.31,5.37,6.31,7.11-12.89,2.09-14.07.73c-1.18-1.36-.35-4.69-.35-4.69l8.11-3.14Z" fill="#544e55"/><path d="m182.64,286.3s6.31,5.37,6.31,7.11-12.89,2.09-14.07.73c-1.18-1.36-.35-4.69-.35-4.69l8.11-3.14Z" fill="#544e55"/><path d="m55.45,292.4s8.02,5.85,8.02,7.57-12.89,2.09-14.07.73c-1.18-1.36-1.26-3.25-1.26-3.25l7.3-5.05h.02Z" fill="#544e55"/><path d="m74.26,281.87s8.02,5.85,8.02,7.57-12.89,2.09-14.07.73c-1.18-1.36-1.26-3.25-1.26-3.25l7.3-5.05h.02Z" fill="#544e55"/><path d="m37.05,89.11s-7.57,5.75-13.79,20.91c-6.22,15.16-2.44,17.49-6.22,26.1-3.79,8.61,7.88-.68,7.88-.68l15.25-38.95-3.11-7.37Z" fill="#c78249"/><path d="m214.41,30.55s-3.14-2.48-3.48-7.51c-.34-5.03-1.39-4.93-4-6.91-2.59-1.98-7.19-1.44-7.19-1.44,0,0,6.94,2.6,7.19,7.45s7.48,8.41,7.48,8.41Z" fill="#aa6836"/><path d="m25.93,132.8s.9,10.05-1.03,14.51c-1.93,4.46-6.7,8.92-6.7,8.92l1.72-6.29s-4.87,4.74-6.31,4.55c-1.44-.19-3.51,0-3.51,0,0,0,2.64-2.56,6.19-6.47,3.56-3.92,3.1-4.27,3.1-4.27,0,0-8.03,8.02-11.73,7.11-3.69-.91-4.87-.73-4.87-.73,0,0,12.74-3.47,13.49-6.29.75-2.82.66-2.28.66-2.28,0,0-9.29,3.55-12.71,3.64-3.42.09-4.23.19-4.23.19,0,0,18.3-10.72,18.73-14.88.43-4.17,2.18-6.26,2.18-6.26l1,5.75,3.88-8.38.15,11.18Z" fill="#d39b70"/></g></g></svg>