<?xml version="1.0" encoding="UTF-8"?><svg id="b" xmlns="http://www.w3.org/2000/svg" viewBox="0 0 54.14 117.99"><g id="c"><g id="d"><g id="e"><path d="M.38,113.69c0,.66,.51,1.2,1.18,1.24,2.95,.4,12.79,1.68,13.91,.31,.45-.56,.38-1.01,.38-1.01-.13-.68-1.09-.99-1.3-1.05l-7.25-3.56c-.09-.04-.19-.06-.28-.05-.14,.01-.24,.1-.25,.11-.3,.24-2.03-.34-3.31-.34-.69,0-1.35,.18-2.41,.46-.26,.08-.49,.14-.64,.19,0,1.23-.01,2.46-.03,3.68H.38Z"/><path d="M39.54,115.1c.25,.6,.94,.9,1.57,.69,2.88-.76,12.45-3.37,12.96-5.06,.2-.69-.05-1.08-.05-1.08-.38-.58-1.38-.49-1.61-.46l-8.06-.49c-.1,0-.19,.01-.28,.06-.13,.08-.18,.19-.19,.2-.18,.33-2.01,.46-3.17,.96-.64,.28-1.18,.69-2.04,1.35-.21,.16-.4,.31-.53,.41,.46,1.14,.94,2.28,1.4,3.41Z"/><path d="M16.66,45.34c3.93,0,7.85,0,11.78,.01-.19,3.13-.54,7.59-1.27,12.93-1.17,8.56-2.08,15.16-5.02,22.92-1.58,4.17-2.21,4.64-7.94,15.79-3.56,6.94-4.73,9.95-6.48,13.62-2.57-.08-5.15-.16-7.73-.24,4.44-11.2,7.29-19.71,11.73-30.9,.89-5.79,1.77-11.63,2.62-17.53,.8-5.58,1.58-11.1,2.32-16.59h-.01Z" fill="#7b493f"/><path d="M46.54,10.31v-.31c1.53-4.02,.31-8.26-2.82-9.6-3.14-1.34-7.31,.84-9.08,4.99-.58,1.35-.84,2.74-.82,4.06l-4,6.24,6.22,2.66,1.27-2.94c2.63,1.13,5.82-.14,7.86-2.87,.71,.41,1.02,.3,1.13,.24,.1-.06,.31-.25,.25-2.44h-.01Z" fill="#e0ab78"/><path d="M44.05,7.57c-.15,0-.28,.1-.36,.23-.04,.05-.08,.11-.11,.18-.03,.05-.04,.1-.05,.15-.03,.06-.04,.14-.05,.2,0,.04-.01,.08,0,.1v.13c0,.05,.03,.11,.06,.16,.03,.04,.06,.08,.09,.11,.03,0,.04,.03,.06,.04,.03,.01,.04,.03,.06,.03,.06,.03,.1,.04,.16,.03,.04,0,.08-.01,.11-.03,.03-.01,.05-.03,.09-.04,.03-.01,.05-.04,.08-.06,.05-.05,.09-.1,.11-.16l.04-.08c.06-.15,.1-.31,.13-.48,.03-.14,.03-.33-.11-.4-.03-.04-.06-.06-.11-.08-.05-.03-.1-.03-.15-.03h-.04Z"/><path d="M14.12,45.26H30.46l15.68,63.72-8.24,2.97-8.95-29.28c-.6-1.98-1.39-3.9-2.36-5.71l-10.47-19.84c-1.42-2.68-2.13-5.69-2.07-8.72,.04-1.69,.06-3.18,.06-3.12h.01Z" fill="#a16053"/><path d="M41.94,12.67c-.23,.01-.39,.6-.41,1.04-.04,.69,.25,1.22,.43,1.48,.25-.11,.53-.26,.82-.44,.26-.16,.49-.33,.69-.49-.21-.13-.51-.33-.79-.65-.45-.51-.53-.95-.73-.94Z" fill="#fff"/><path d="M45.36,56.72c-2.56-.34-5.07,2.66-4.79,4.11,.01,.1,.08,.4,.26,.48,.54,.23,1.18-1.65,2.92-2.33,.95-.36,1.73-.19,1.89-.14,.3,.08,.84,.23,1.27,.75,.39,.48,.48,1.03,.49,1.4v56.19c0,.44,.35,.81,.76,.81s.76-.36,.76-.81V60.43c.03-1.19-1.58-3.45-3.6-3.71h.03Z" fill="#777"/><path d="M7.41,55.48c-.21-.14-.1-.55-.1-1.14,0-.5-.09-1.35-.29-1.39-.43-.08-1.2,3.81-1.98,3.73-.14-.01-.24-.16-.28-.23-.3-.46,.21-1.08,.59-2.26,.26-.81,.35-1.55,.26-1.58-.16-.05-1.38,1.97-1.99,2.71-.08,.09-.24,.28-.41,.25-.15-.03-.23-.21-.26-.26-.33-.71,1.72-3.33,1.49-3.55-.2-.2-2.01,1.58-2.5,1.2-.1-.08-.11-.23-.11-.29-.04-.85,2.08-1.6,2.02-1.75-.06-.14-1.86,.65-2.17,.2-.05-.08-.04-.16-.04-.21,.04-.34,.53-.46,1.63-.96,1.99-.9,2.47-.75,3.2-1.44,.71-.68,.69-1.32,1.18-1.39,.59-.09,1.19,.73,1.59,1.39-.16,.55-.39,1.39-.58,2.44-.08,.39-.15,.83-.23,1.43-.24,1.92-.06,2.81-.58,3.07-.13,.06-.31,.1-.45,.03Z" fill="#e0ab78"/><path d="M5.99,47.37c1.07,1.69,2.13,3.38,3.2,5.09,8.1-14.33,13.04-19.01,16.14-20.46,.31-.15,2.21-1.01,4-2.88,1.71-1.78,4.2-5.39,2.97-7.64-.94-1.74-3.72-1.92-4.29-1.95-7.29-.46-13.43,8.4-15.48,11.35-2.06,2.96-5.22,8.43-6.53,16.5h-.01Z" fill="#29485d"/><path d="M31.28,10.72c-2.76,2.79-5.63,6.19-8.32,10.27-8.89,13.48-10.97,27.18-11.46,35.41,8.28,1.18,16.55,2.36,24.83,3.53-.82-7.91-1.12-16.99-.33-26.98,.26-3.27,.63-6.42,1.05-9.41,.13-.89,.56-1.69,1.2-2.32,.45-.45,.82-1,.88-1.67,.1-1.29-1.07-2.22-3.31-4.34-1.08-1.02-2.66-2.54-4.54-4.52h-.01Z" fill="#295269"/><path d="M48.74,59.27c-.24,.1-.53-.21-1.02-.53-.43-.26-1.19-.65-1.33-.51-.29,.31,2.56,3.07,2.08,3.68-.09,.11-.26,.11-.34,.11-.55,0-.8-.76-1.58-1.72-.54-.66-1.12-1.13-1.19-1.06-.14,.11,.92,2.22,1.2,3.13,.04,.11,.1,.35,0,.49-.1,.11-.3,.08-.36,.08-.78-.11-1.87-3.25-2.18-3.17-.28,.06,.24,2.54-.34,2.74-.13,.04-.25-.03-.3-.06-.74-.43-.23-2.62-.39-2.64-.15-.03-.46,1.92-1,1.93-.09,0-.16-.05-.2-.08-.26-.21-.11-.69,.06-1.89,.31-2.17,.7-2.48,.51-3.46-.18-.96-.74-1.29-.53-1.74,.25-.54,1.27-.6,2.03-.59,.38,.44,.97,1.08,1.74,1.8,.29,.26,.61,.58,1.09,.96,1.49,1.23,2.33,1.57,2.27,2.14-.01,.14-.09,.33-.23,.39h-.01Z" fill="#e0ab78"/><path d="M36.35,20.42c-.1-.06-.23-.13-.34-.19-.11-.06-.24-.13-.35-.19-.21-.13-.43-.25-.65-.38-.23-.14-.45-.26-.68-.41-.2-.14-.41-.26-.61-.41-.19-.13-.35-.25-.51-.4-.18-.16-.34-.3-.49-.49-.16-.19-.31-.39-.48-.56-.09-.1-.18-.19-.25-.29-.09-.09-.16-.18-.25-.26-.16-.18-.31-.34-.48-.51-.08-.09-.16-.16-.24-.26-.08-.08-.15-.16-.21-.24-.09-.1-.18-.19-.26-.28-.1-.1-.2-.18-.29-.26-.08-.08-.2-.09-.29-.03-.09,.06-.09,.2-.03,.29,.08,.1,.16,.2,.25,.29,.08,.09,.16,.18,.24,.25,.06,.09,.14,.16,.21,.25,.08,.08,.16,.18,.24,.26,.16,.16,.31,.34,.46,.51,.09,.09,.16,.19,.24,.28,.08,.09,.18,.19,.25,.29,.15,.19,.3,.39,.45,.58,.08,.09,.15,.19,.24,.28,.1,.1,.19,.19,.29,.28,.38,.35,.79,.63,1.22,.9,.33,.21,.64,.39,.98,.6,.18,.1,.34,.2,.51,.3,.16,.09,.33,.18,.49,.28,.06,.04,.13,.06,.2,.04,.06-.03,.14-.06,.18-.11,.08-.11,.05-.3-.08-.38h.04Z" fill="#29485d"/><path d="M41.45,56.62c1.99-.16,3.99-.33,5.98-.49-8.99-13.8-10.87-20.34-10.74-23.74,.01-.35,.13-2.42-.71-4.87-.79-2.33-2.85-6.2-5.41-6.16-1.98,.04-3.42,2.41-3.72,2.89-3.78,6.24,1.27,15.78,2.95,18.96,1.68,3.18,5.08,8.52,11.65,13.41h0Z" fill="#29485d"/><path d="M40,7.62s.09-.04,.15-.05c.29-.11,1.14-.43,1.77-.88,.54-.39,1.13-.81,1.13-1.34,0-.83-1.44-.9-2.9-2.51-.95-1.05-.87-1.63-1.59-1.88-1.19-.43-2.53,.59-2.85,.83-2.36,1.78-2.85,5.44-1.99,6,.33,.21,.66-.14,1.43,.14,.63,.23,.73,.61,1.27,.83,.39,.16,.98,.24,1.86-.08-.98-.33-1.42-1.37-1.09-2.11,.28-.61,1.04-.96,1.73-.78,.73,.2,1.23,.99,1.08,1.83h.01Z" fill="#dbdbdb"/><path d="M43.51,107.54c.06-.1,.13-.24,.11-.5,0-.26-.04-.51-.11-.81-.2-.75-.39-1.5-.58-2.26-.23-1-.46-2.02-.7-3.02-.24-1-.48-1.97-.73-2.93-.48-1.93-.95-3.9-1.47-5.81-.23-.88-.46-1.67-.71-2.54-.25-.88-.5-1.7-.74-2.58-.24-.83-.46-1.7-.71-2.54-.3-1-.6-1.99-.94-2.89-.14-.36-.33-.46-.39-.24-.03,.14-.04,.31-.04,.49,.01,.21,.08,.38,.14,.59,.29,.91,.54,1.87,.78,2.79,.26,.96,.51,1.92,.75,2.88,.26,1,.53,1.95,.8,2.92,.13,.46,.25,.88,.38,1.33,.14,.5,.26,1.04,.4,1.54,.36,1.42,.71,2.84,1.07,4.27,.38,1.5,.75,3.01,1.1,4.52,.15,.68,.31,1.39,.48,2.11,.06,.29,.15,.59,.21,.88,.1,.38,.19,.71,.28,1.09,.11,.46,.31,.73,.46,.7,.03,0,.05,0,.08-.06l.09,.08h0Z" fill="#7b493f"/></g></g></g></svg>