<?xml version="1.0" encoding="utf-8"?>
<!-- Generator: Adobe Illustrator 27.0.0, SVG Export Plug-In . SVG Version: 6.00 Build 0)  -->
<svg version="1.1" xmlns="http://www.w3.org/2000/svg" xmlns:xlink="http://www.w3.org/1999/xlink" x="0px" y="0px"
	 viewBox="0 0 1920 1080" enable-background="new 0 0 1920 1080" xml:space="preserve">
<g id="svg">
	<g id="slide-moral-circle">
		<g id="moral-circle_00000137091437092649096380000005741055463244870802_">
			<path id="outer" fill="#C6D325" stroke="#000000" d="M725.5,396.63c0,176.73-143.27,320-320,320c-176.73,0-320-143.27-320-320
				c0-176.73,143.27-320,320-320C582.23,76.63,725.5,219.9,725.5,396.63z"/>
			<circle id="betweeen" fill="#00B1EA" stroke="#000000" cx="406.3" cy="395.84" r="216.24"/>
			<circle id="inner" fill="#006C66" stroke="#000000" cx="405.5" cy="396.63" r="109.79"/>
		</g>
		<rect x="1240.64" y="92.41" fill="#A8A8A8" stroke="#000000" width="543.73" height="919.11"/>
		<g id="mc-child">
			<path fill="#E0AB78" d="M1279.16,273.09l-6.06-4.99l-6.77,8.43l6.06,4.99L1279.16,273.09z"/>
			<path fill="#E0AB78" d="M1271.11,226.78c-0.36-0.17-0.29-0.83-0.46-1.74c-0.12-0.78-0.48-2.1-0.8-2.1
				c-0.68,0-0.87,6.26-2.08,6.34c-0.22,0-0.41-0.2-0.48-0.29c-0.58-0.66,0.05-1.74,0.34-3.67c0.19-1.35,0.14-2.49,0-2.52
				c-0.27-0.05-1.62,3.42-2.37,4.75c-0.1,0.17-0.29,0.51-0.58,0.49c-0.24,0-0.41-0.27-0.46-0.34c-0.68-1.03,1.79-5.63,1.38-5.92
				c-0.36-0.24-2.68,2.98-3.53,2.52c-0.17-0.1-0.22-0.32-0.24-0.42c-0.29-1.32,2.78-3.03,2.66-3.25c-0.12-0.2-2.71,1.49-3.29,0.88
				c-0.1-0.1-0.1-0.24-0.12-0.32c-0.02-0.54,0.68-0.86,2.27-1.93c2.83-1.93,3.6-1.81,4.54-3.08c0.92-1.22,0.73-2.23,1.45-2.47
				c0.89-0.29,2.03,0.83,2.8,1.76c-0.12,0.91-0.24,2.28-0.27,3.96c0,0.61,0,1.35,0,2.3c0.12,3.03,0.63,4.38-0.1,4.94
				c-0.17,0.12-0.46,0.24-0.68,0.15V226.78z"/>
			<path fill="#E0AB78" d="M1344.47,215.75c-0.24,0.32-0.87,0.12-1.79,0.07c-0.77-0.05-2.13,0.02-2.2,0.34
				c-0.17,0.66,5.85,2.23,5.66,3.42c-0.02,0.22-0.27,0.37-0.39,0.42c-0.75,0.42-1.67-0.42-3.46-1.13c-1.26-0.49-2.39-0.68-2.44-0.54
				c-0.1,0.24,2.95,2.35,4.06,3.38c0.15,0.12,0.41,0.42,0.36,0.66c-0.05,0.24-0.34,0.34-0.44,0.39c-1.14,0.44-5.05-2.98-5.41-2.64
				c-0.31,0.29,2.3,3.3,1.67,4.04c-0.12,0.15-0.36,0.15-0.46,0.15c-1.33,0-2.32-3.42-2.56-3.33c-0.22,0.07,0.87,2.98,0.12,3.42
				c-0.12,0.07-0.27,0.05-0.34,0.05c-0.51-0.1-0.68-0.86-1.38-2.64c-1.23-3.23-0.97-3.94-1.98-5.16c-0.99-1.17-1.98-1.2-2.05-1.98
				c-0.1-0.93,1.23-1.81,2.3-2.4c0.85,0.32,2.15,0.73,3.75,1.13c0.6,0.15,1.28,0.32,2.22,0.49c2.97,0.54,4.38,0.34,4.74,1.15
				c0.1,0.2,0.14,0.51,0,0.71H1344.47z"/>
			<path fill="#FADC58" d="M1264.41,216.44l10.06,3.64l4.98-15.68l13.56-16.81l-5.49-10.05l-17.02,21.23L1264.41,216.44z"/>
			<path fill="#FACC50" d="M1332.38,219.71l6.41-8.63l-13.32-9.47l-11.84-18.1l-11.12,2.32l15.01,22.77L1332.38,219.71z"/>
			<path fill="#E0AB78" d="M1324.68,277.66l-7.37,2.61l3.55,10.25l7.37-2.61L1324.68,277.66z"/>
			<path d="M1320.56,295.45c0.39,1.05,1.5,1.64,2.56,1.32c4.93-1.05,21.3-4.67,22.29-7.51c0.41-1.17,0-1.83,0-1.83
				c-0.58-1-2.3-0.95-2.66-0.95l-13.56-1.57c-0.34-0.05-0.65,0.12-0.8,0.42c-0.51,0.98-1.84,2.98-4.42,3.91
				c-1.84,0.66-3.5,0.46-4.59,0.17c-0.48-0.12-0.89,0.34-0.73,0.81l1.86,5.21L1320.56,295.45z"/>
			<path fill="#29485D" d="M1288,189.77c6.62,0,13.27,0,19.89,0c-0.48,5.38-1.18,12.99-2.15,22.11
				c-3.26,30.85-4.96,35.93-6.79,40.14c-3.67,8.39-15.01,23.19-20.71,27.98c-3.89-3.08-7.76-6.16-11.65-9.22
				c2.34-2.81,4.93-6.34,7.42-10.62c2.56-4.4,4.38-8.54,5.66-12.06c1.52-9.91,3-19.91,4.42-29.99c1.35-9.54,2.66-18.98,3.92-28.38
				V189.77z"/>
			<path fill="#7E4A2F" d="M1318.1,151.22c-1.35,0.05-0.8-6.51-5.2-9.81c-2.44-1.83-5.08-1.69-5.03-2.54
				c0.05-0.83,2.56-1.91,4.4-1.27c0.53,0.2,0.85,0.46,2.25,1.03c1.16,0.46,1.14,0.34,1.57,0.59c1.6,0.86,2.25,2.57,2.37,2.84
				c0.34,0.91,0.1,1,0.56,2.81c0.29,1.17,0.44,1.3,0.56,1.86c0.39,1.96-0.6,4.48-1.43,4.53L1318.1,151.22z"/>
			<path fill="#E0AB78" d="M1320.15,155.06c-0.1-0.2-0.17-0.39-0.27-0.56c-0.34-8.39-5.7-15.04-12.28-15.04
				c-6.57,0-12.3,7.12-12.3,15.9c0,2.89,0.6,5.58,1.64,7.9l-2.34,14.26h13.03v-6.26c5.54,0,10.2-4.7,11.77-11.18
				c1.57,0.2,2.03-0.24,2.18-0.44c0.14-0.2,0.36-0.68-1.4-4.6L1320.15,155.06z"/>
			<path fill="#295269" d="M1283.24,198.53h27.6l19.19,83.66l-13.92,5.09l-7.83-24.78c-1.02-3.38-2.34-6.65-3.99-9.78l-20.11-33.63
				C1282.52,216.17,1282.52,199.61,1283.24,198.53z"/>
			<path fill="#FADC58" d="M1282.78,221.13v-32.29c0-8.68,6.7-15.8,14.87-15.8h3.58c8.17,0,14.87,7.12,14.87,15.8
				c0.31,10.79,0.63,21.58,0.94,32.36c-1.81,2.23-4.74,5.01-8.65,5.5c-3.36,0.42-3.94-1.25-8.97-1.79
				c-5.99-0.66-8.07,1.59-12.13-0.15c-2.18-0.93-3.65-2.47-4.54-3.62L1282.78,221.13z"/>
			<path d="M1262.04,278.84c-0.7,0.88-0.58,2.15,0.24,2.91c3.46,3.69,15.08,15.92,17.98,15.29c1.18-0.24,1.57-0.95,1.57-0.95
				c0.56-1.03-0.39-2.47-0.6-2.79l-5.78-12.5c-0.15-0.29-0.44-0.49-0.77-0.46c-1.09,0.07-3.48,0-5.61-1.76
				c-1.5-1.25-2.22-2.79-2.54-3.86c-0.15-0.49-0.75-0.59-1.06-0.2l-3.41,4.33H1262.04z"/>
			<path d="M1314.5,152.05c-0.27,0.1-0.41,0.39-0.46,0.68c-0.02,0.12-0.05,0.27-0.05,0.39c0,0.1,0,0.2,0,0.29
				c0,0.15,0.02,0.27,0.05,0.39c0,0.07,0.02,0.15,0.05,0.2c0.02,0.07,0.05,0.15,0.1,0.22c0.05,0.1,0.12,0.17,0.22,0.24
				c0.07,0.05,0.17,0.1,0.24,0.12c0.05,0,0.1,0,0.14,0c0.05,0,0.1,0,0.12,0c0.12,0,0.22,0,0.31-0.07c0.07-0.02,0.12-0.07,0.17-0.12
				s0.07-0.1,0.12-0.15c0.02-0.05,0.05-0.1,0.07-0.17c0.05-0.12,0.07-0.24,0.07-0.39v-0.17c0-0.32-0.05-0.64-0.15-0.95
				c-0.07-0.27-0.22-0.59-0.51-0.64c-0.07-0.05-0.17-0.05-0.27-0.05c-0.1,0-0.19,0-0.29,0.07L1314.5,152.05z"/>
			<path fill="#FFFFFF" d="M1313.77,162.82c-0.39,0.2-0.24,1.37,0.07,2.18c0.46,1.25,1.38,1.98,1.89,2.32
				c0.36-0.42,0.73-0.88,1.11-1.42c0.34-0.49,0.63-0.95,0.85-1.39c-0.46-0.05-1.16-0.2-1.91-0.56
				C1314.57,163.35,1314.11,162.62,1313.77,162.82z"/>
			<path fill="#FACC50" d="M1293.97,186.08c-0.14,0.24-0.27,0.51-0.39,0.76c-0.14,0.27-0.27,0.54-0.41,0.78
				c-0.27,0.49-0.53,0.98-0.8,1.47c-0.29,0.51-0.56,1.03-0.89,1.54c-0.29,0.46-0.56,0.95-0.89,1.39c-0.27,0.42-0.56,0.78-0.87,1.17
				c-0.34,0.39-0.65,0.78-1.06,1.13c-0.41,0.37-0.82,0.73-1.23,1.1c-0.22,0.2-0.41,0.39-0.63,0.59c-0.19,0.2-0.39,0.39-0.58,0.56
				c-0.36,0.37-0.75,0.73-1.11,1.1c-0.19,0.2-0.36,0.37-0.56,0.56c-0.17,0.17-0.36,0.34-0.51,0.49c-0.22,0.2-0.41,0.39-0.58,0.61
				c-0.22,0.22-0.39,0.46-0.58,0.66c-0.17,0.17-0.19,0.46-0.02,0.64c0.17,0.17,0.44,0.2,0.63,0.02c0.22-0.17,0.44-0.39,0.63-0.59
				c0.19-0.2,0.36-0.37,0.56-0.54c0.19-0.15,0.36-0.32,0.53-0.49c0.17-0.17,0.36-0.37,0.56-0.56c0.36-0.37,0.73-0.71,1.11-1.08
				c0.19-0.2,0.41-0.37,0.6-0.56c0.19-0.2,0.41-0.39,0.63-0.59c0.41-0.34,0.85-0.71,1.26-1.03c0.19-0.17,0.41-0.34,0.58-0.56
				c0.22-0.22,0.41-0.44,0.6-0.66c0.75-0.86,1.35-1.81,1.93-2.79c0.46-0.73,0.85-1.47,1.28-2.23c0.22-0.39,0.44-0.78,0.63-1.17
				c0.19-0.37,0.39-0.73,0.58-1.1c0.07-0.12,0.12-0.29,0.07-0.47c-0.05-0.15-0.14-0.29-0.27-0.39c-0.27-0.17-0.68-0.1-0.85,0.2
				L1293.97,186.08z"/>
			<path fill="#29485D" d="M1324.72,278.69c0.1-0.15,0.19-0.37,0.19-0.78c0-0.42-0.05-0.81-0.12-1.27
				c-0.27-1.17-0.53-2.35-0.77-3.52c-0.29-1.57-0.6-3.16-0.92-4.72c-0.31-1.57-0.63-3.08-0.97-4.57c-0.65-3.01-1.28-6.07-1.96-9.08
				c-0.31-1.37-0.63-2.59-0.97-3.96c-0.34-1.37-0.68-2.67-1.01-4.04c-0.31-1.3-0.63-2.67-0.97-3.96c-0.41-1.57-0.82-3.11-1.28-4.53
				c-0.19-0.59-0.46-0.73-0.58-0.39c-0.05,0.22-0.07,0.49-0.07,0.76c0,0.34,0.1,0.59,0.17,0.91c0.41,1.42,0.73,2.91,1.06,4.35
				c0.36,1.49,0.68,3.01,1.02,4.5c0.36,1.57,0.7,3.06,1.09,4.55c0.17,0.71,0.34,1.37,0.51,2.08c0.17,0.78,0.36,1.64,0.53,2.42
				c0.48,2.23,0.94,4.45,1.43,6.65c0.51,2.35,0.99,4.7,1.47,7.07c0.19,1.05,0.41,2.15,0.63,3.28c0.1,0.47,0.19,0.91,0.29,1.37
				c0.12,0.59,0.24,1.1,0.36,1.69c0.15,0.71,0.44,1.15,0.68,1.1c0.05,0,0.07,0,0.12-0.07l0.12,0.12L1324.72,278.69z"/>
			<path fill="#7E4A2F" d="M1293.39,139.16c0.73-0.59,1.38-1.05,2.22-1.54c0.51-0.29,1.11-0.61,1.93-0.91
				c0.97-0.32,1.69-0.42,2.76-0.51c1.28-0.15,1.93-0.22,2.63-0.07c1.09,0.2,1.26,0.56,2.49,0.93c1.31,0.39,1.47,0.07,2.8,0.34
				c0.6,0.12,2.9,0.61,4.33,2.47c0.31,0.42,1.04,1.37,0.8,2.3c-0.12,0.44-0.34,0.46-0.46,0.93c-0.24,0.91,0.48,1.27,0.46,2.23
				c0,1.2-1.11,2.15-1.38,2.4c-0.63,0.56-0.94,0.46-1.38,1.05c-0.46,0.61-0.51,1.2-0.63,1.76c-0.17,0.78-0.53,1.88-1.52,3.16
				c-0.29-1.03-1.21-1.74-2.22-1.79c-1.16-0.05-2.15,0.78-2.42,1.74c-0.36,1.3,0.56,2.91,2.27,3.33c-0.29,0.59-0.77,1.37-1.62,1.76
				c-0.8,0.37-1.16,0.07-1.79,0.46c-0.92,0.56-0.63,1.49-1.5,2.45c-0.19,0.22-0.31,0.24-2.85,1.15c-1.11,0.39-1.11,0.56-1.69,0.54
				c-0.75,0-1.31-0.39-1.6-0.59c-1.5-1.05-0.97-2.2-2.51-3.57c-0.56-0.51-1.02-0.68-1.33-1.37c-0.19-0.42-0.12-0.51-0.46-1.42
				c-0.17-0.46-0.27-0.61-0.48-1.2c-0.19-0.49-0.24-0.71-0.34-0.98c-0.58-1.71-1.43-2.03-1.55-3.42c-0.1-1,0.19-1.32,0.65-3.08
				c0.97-3.69,0.24-4.06,1.14-5.55c0.43-0.68,1.35-1.44,3.21-2.94L1293.39,139.16z"/>
			<path fill="#7E4A2F" d="M1293.71,137.35c-0.22-0.76-0.6-2.27-1.89-3.2c-0.58-0.42-0.87-0.39-3.21-1.17
				c-2.49-0.83-2.34-0.95-2.92-0.98c-1.6-0.07-3.36,0.71-4.33,1.98c-0.34,0.44-0.31,0.61-0.99,1.57c-0.73,1.05-0.97,1.13-1.21,1.74
				c-0.27,0.64-0.1,0.73-0.34,2.08c-0.29,1.64-0.58,1.74-0.48,2.4c0.14,0.91,0.7,0.95,1.35,2.13c0.87,1.57,0.24,2.08,0.99,3.08
				c0.85,1.15,2.49,1.57,3.72,1.39c0.77-0.1,0.82-0.37,1.86-0.68c1.74-0.51,2.59-0.07,3.53-0.24c2.73-0.51,5.03-5.97,3.92-10.1
				V137.35z"/>
			<path fill="#295269" d="M1295.62,137.62c0.17,0.44-2.54,1.08-4.52,3.79c-2.73,3.79-1.62,8.29-2.15,8.34
				c-0.63,0.05-3.24-5.75-0.53-9.47C1290.64,137.23,1295.4,137.06,1295.62,137.62z"/>
		</g>
	</g>
	<g id="slide-introduction">
		<g id="ccp-logo">
			<path fill="#006C66" d="M280.59,89.7l-3.23,13.85c-0.1,0.66-0.65,1.16-1.32,1.2h-0.45c-0.67-0.04-1.22-0.54-1.31-1.2l-3.23-13.85
				c0-0.05,0-0.12,0-0.16c0.02-0.33,0.27-0.6,0.59-0.66l0.31-0.1c0.36-0.11,0.74,0.09,0.85,0.45c0.01,0.02,0.01,0.05,0.02,0.07
				l2.4,10.7c0.24,1.06,0.59,3.15,0.59,3.15h0.07c0,0,0.36-2.09,0.59-3.15l2.4-10.7c0.08-0.37,0.44-0.61,0.81-0.54
				c0.02,0,0.04,0.01,0.07,0.02l0.3,0.1c0.33,0.06,0.57,0.33,0.59,0.66C280.64,89.54,280.59,89.65,280.59,89.7z M287.5,99.88h-4.36
				v1.86c-0.06,0.74,0.48,1.39,1.22,1.45c0.1,0.01,0.21,0.01,0.31-0.01h2.42c0.36-0.03,0.67,0.23,0.71,0.59c0,0.02,0,0.05,0,0.07
				v0.23c0,0.36-0.29,0.65-0.65,0.65c-0.02,0-0.04,0-0.06,0h-3.13c-1.45-0.03-2.61-1.2-2.62-2.65v-5.89
				c0.04-1.46,1.25-2.61,2.71-2.59h2.05c1.46-0.02,2.66,1.13,2.71,2.59v2.28c0.08,0.7-0.41,1.33-1.11,1.41
				C287.63,99.88,287.57,99.88,287.5,99.88z M287.12,96.44c0-0.7-0.57-1.27-1.27-1.27h-1.44c-0.7,0-1.27,0.57-1.27,1.27v2h4
				L287.12,96.44z M297.04,95.17h-2.57c-0.77-0.01-1.41,0.61-1.41,1.39c0,0.04,0,0.08,0,0.11v7.4c0,0.39-0.31,0.7-0.7,0.7
				c0,0-0.01,0-0.01,0h-0.33c-0.38,0.01-0.69-0.28-0.7-0.66c0-0.01,0-0.03,0-0.04v-9.89c-0.02-0.31,0.22-0.57,0.52-0.59
				c0.04,0,0.07,0,0.11,0h0.31c0.19,0.03,0.36,0.15,0.44,0.33l0.22,0.42c0.06,0.17,0.23,0.29,0.42,0.28c0.59,0,1.13-1,2.45-1h1.25
				c0.36-0.03,0.68,0.24,0.71,0.61c0,0.02,0,0.03,0,0.05v0.26c-0.01,0.36-0.32,0.65-0.68,0.64c-0.03,0-0.05,0-0.08-0.01
				L297.04,95.17z M303.94,109.94h-2.87c-0.36,0.03-0.68-0.24-0.71-0.61c0-0.02,0-0.03,0-0.05v-0.21c0-0.36,0.29-0.66,0.66-0.66
				c0.02,0,0.03,0,0.05,0h2.19c0.74,0.11,1.43-0.4,1.54-1.15c0.02-0.11,0.02-0.23,0.01-0.34v-2.69c0-0.21-0.07-0.44-0.28-0.44
				c-0.54,0-1.06,1-2.47,1h-0.36c-1.45-0.03-2.61-1.21-2.61-2.66v-6c-0.04-1.44,1.1-2.64,2.54-2.68c0.02,0,0.05,0,0.07,0h0.36
				c1.32,0,1.88,1.1,2.47,1.1c0.15-0.01,0.29-0.09,0.36-0.23l0.3-0.54c0.11-0.16,0.3-0.26,0.5-0.26h0.33
				c0.3,0.01,0.55,0.26,0.54,0.56c0,0,0,0,0,0v13.22c-0.01,1.46-1.2,2.65-2.66,2.64c0,0-0.01,0-0.01,0H303.94z M304.81,96.65
				c0.01-0.81-0.65-1.47-1.46-1.48c-0.01,0-0.01,0-0.02,0h-1c-0.81,0.01-1.47,0.67-1.46,1.48c0,0,0,0,0,0v5.06
				c0,0.81,0.65,1.46,1.46,1.47h1c0.81,0.01,1.47-0.65,1.48-1.46c0,0,0-0.01,0-0.01V96.65z M311.08,104.75h-0.33
				c-0.38,0.01-0.69-0.28-0.7-0.66c0-0.01,0-0.03,0-0.04V89.54c-0.01-0.38,0.29-0.7,0.67-0.71c0.01,0,0.02,0,0.03,0h0.33
				c0.39,0,0.71,0.32,0.71,0.71v14.53C311.78,104.46,311.46,104.76,311.08,104.75c-0.02,0-0.04,0-0.05,0H311.08z M321.38,99.88
				h-4.36v1.86c-0.06,0.74,0.49,1.38,1.23,1.44c0.08,0.01,0.17,0.01,0.25,0h2.43c0.36-0.03,0.67,0.24,0.7,0.6c0,0.02,0,0.04,0,0.06
				v0.23c0,0.36-0.29,0.65-0.65,0.65c-0.02,0-0.03,0-0.05,0h-3.14c-1.42-0.06-2.55-1.23-2.56-2.65v-5.89
				c0.04-1.46,1.25-2.61,2.71-2.59h2.05c1.45-0.01,2.65,1.14,2.7,2.59v2.28c0.08,0.7-0.41,1.33-1.11,1.41
				c-0.08,0.01-0.17,0.01-0.25,0.01H321.38z M321,96.44c0-0.7-0.57-1.27-1.27-1.27h-1.44c-0.7,0-1.27,0.57-1.27,1.27v2h4L321,96.44z
				 M326.85,91.54h-0.35c-0.39,0.01-0.7-0.3-0.71-0.69c0-0.01,0-0.01,0-0.02v-1.29c-0.01-0.39,0.3-0.7,0.69-0.71
				c0.01,0,0.01,0,0.02,0h0.33c0.39,0.01,0.7,0.32,0.7,0.71v1.29c0,0.39-0.32,0.71-0.71,0.71c-0.01,0-0.01,0-0.02,0H326.85z
				 M326.85,104.75h-0.35c-0.38,0.01-0.7-0.29-0.71-0.67c0-0.01,0-0.02,0-0.03v-9.76c-0.01-0.38,0.3-0.69,0.68-0.7
				c0.01,0,0.02,0,0.03,0h0.33c0.39,0,0.7,0.31,0.7,0.7v0v9.78c-0.01,0.39-0.33,0.69-0.72,0.68c0,0-0.01,0-0.01,0H326.85z
				 M336.85,104.75h-3.23c-1.46-0.01-2.64-1.19-2.63-2.65c0-0.01,0-0.02,0-0.03V96.2c0.03-1.46,1.22-2.62,2.68-2.61h2.88
				c0.36-0.03,0.68,0.24,0.71,0.61c0,0.02,0,0.03,0,0.05v0.26c0,0.36-0.29,0.66-0.66,0.66c-0.02,0-0.03,0-0.05,0h-2.26
				c-0.76-0.1-1.46,0.44-1.56,1.2c-0.01,0.11-0.02,0.22,0,0.33v5c0,1.11,0.71,1.47,1.58,1.47h2.5c0.36-0.03,0.67,0.24,0.7,0.6
				c0,0.02,0,0.04,0,0.06v0.24c0.02,0.36-0.26,0.66-0.62,0.68c-0.03,0-0.06,0-0.08,0H336.85z M346.23,104.75h-0.33
				c-0.38,0.01-0.7-0.29-0.71-0.67c0-0.01,0-0.02,0-0.03v-7.4c0-0.82-0.66-1.48-1.48-1.48l0,0h-1c-0.82,0-1.48,0.66-1.48,1.48v0
				v7.42c0,0.39-0.31,0.7-0.7,0.7c0,0-0.01,0-0.01,0h-0.33c-0.38,0.01-0.69-0.28-0.7-0.66c0-0.01,0-0.03,0-0.04V89.54
				c-0.01-0.38,0.29-0.7,0.67-0.71c0.01,0,0.02,0,0.03,0h0.31c0.39,0,0.71,0.32,0.71,0.71v4.68c0,0.24,0.07,0.4,0.28,0.4
				c0.59,0,1.15-1.1,2.47-1.1h0.36c1.44,0,2.61,1.17,2.61,2.61c0,0.02,0,0.05,0,0.07v7.87c-0.01,0.39-0.33,0.69-0.72,0.68
				c-0.01,0-0.01,0-0.02,0H346.23z M355.91,99.88h-4.41v1.86c-0.06,0.74,0.5,1.39,1.24,1.45c0.1,0.01,0.19,0,0.29-0.01h2.47
				c0.36-0.03,0.67,0.23,0.71,0.59c0,0.02,0,0.05,0,0.07v0.23c0,0.36-0.3,0.66-0.67,0.65c-0.01,0-0.03,0-0.04,0h-3.13
				c-1.44-0.04-2.59-1.21-2.6-2.65v-5.89c0.04-1.47,1.26-2.62,2.73-2.59h2c1.46-0.01,2.66,1.14,2.71,2.59v2.28
				c0.08,0.7-0.43,1.34-1.13,1.41c-0.07,0.01-0.14,0.01-0.21,0.01H355.91z M355.5,96.44c0-0.7-0.57-1.27-1.27-1.27h-1.44
				c-0.7-0.01-1.28,0.55-1.29,1.25c0,0.01,0,0.01,0,0.02v2h4V96.44z M366.5,104.75h-0.33c-0.38,0.01-0.7-0.29-0.71-0.67
				c0-0.01,0-0.02,0-0.03v-7.38c0.02-0.81-0.61-1.48-1.42-1.5c-0.02,0-0.04,0-0.06,0h-1c-0.81-0.02-1.47,0.62-1.49,1.43
				c0,0.02,0,0.05,0,0.07v7.4c0,0.39-0.31,0.7-0.7,0.7l0,0h-0.33c-0.38,0.01-0.7-0.29-0.71-0.67c0-0.01,0-0.02,0-0.03v-9.89
				c-0.01-0.31,0.23-0.58,0.55-0.59c0.03,0,0.06,0,0.08,0h0.31c0.2,0.02,0.37,0.15,0.45,0.33l0.21,0.42
				c0.06,0.17,0.23,0.29,0.42,0.28c0.59,0,1.16-1.1,2.48-1.1h0.25c1.45,0,2.62,1.17,2.62,2.62c0,0.01,0,0.01,0,0.02v7.91
				C367.11,104.42,366.85,104.71,366.5,104.75z M377.01,104.75h-0.35c-0.22-0.01-0.42-0.13-0.52-0.33l-0.22-0.4
				c-0.06-0.15-0.21-0.24-0.37-0.23c-0.59,0-1.09,1-2.5,1h-0.35c-1.45-0.02-2.62-1.21-2.62-2.66v-6c-0.04-1.44,1.1-2.64,2.54-2.68
				c0.03,0,0.05,0,0.08,0h0.35c1.32,0,1.89,1.1,2.48,1.1c0.21,0,0.28-0.16,0.28-0.4v-4.61c0-0.39,0.31-0.7,0.7-0.71h0.33
				c0.39-0.01,0.7,0.3,0.71,0.69c0,0.01,0,0.01,0,0.02v14.62C377.56,104.48,377.31,104.74,377.01,104.75c-0.02,0-0.04,0-0.05,0
				H377.01z M375.81,96.65c0-0.82-0.66-1.48-1.48-1.48c0,0-0.01,0-0.01,0h-1c-0.82,0-1.48,0.66-1.48,1.48v0v5
				c-0.01,0.82,0.65,1.48,1.47,1.49c0,0,0.01,0,0.01,0h1c0.82,0.01,1.48-0.65,1.49-1.47c0-0.01,0-0.01,0-0.02V96.65z M386.5,99.88
				h-4.36v1.86c-0.06,0.74,0.48,1.39,1.22,1.45c0.1,0.01,0.21,0.01,0.31-0.01h2.43c0.36-0.03,0.67,0.24,0.7,0.6
				c0,0.02,0,0.04,0,0.06v0.23c0,0.36-0.29,0.65-0.65,0.65c-0.02,0-0.03,0-0.05,0h-3.14c-1.43-0.05-2.57-1.22-2.58-2.65v-5.89
				c0.04-1.46,1.25-2.61,2.71-2.59h2.05c1.45-0.01,2.65,1.14,2.7,2.59v2.28c0.08,0.7-0.41,1.33-1.11,1.41
				C386.65,99.88,386.58,99.89,386.5,99.88z M386.12,96.44c0-0.7-0.57-1.27-1.27-1.27h-1.44c-0.7,0-1.27,0.57-1.27,1.27v2h4
				L386.12,96.44z M280.16,128.55l-0.35,0.3c-0.31,0.24-0.76,0.18-1-0.13c0,0,0,0,0-0.01l-5.48-6.73v6.24c0,0.39-0.31,0.7-0.7,0.7
				c0,0-0.01,0-0.01,0h-0.33c-0.38,0.01-0.7-0.29-0.71-0.67c0-0.01,0-0.02,0-0.03v-14.51c-0.01-0.39,0.3-0.7,0.69-0.71
				c0.01,0,0.01,0,0.02,0h0.33c0.39,0,0.71,0.32,0.71,0.71v0v6.19l5-6.71c0.2-0.3,0.61-0.39,0.91-0.19
				c0.03,0.02,0.06,0.04,0.09,0.07l0.26,0.21c0.31,0.2,0.4,0.62,0.19,0.93c-0.02,0.03-0.03,0.05-0.05,0.07l-5.06,6.66l5.55,6.74
				c0.1,0.12,0.15,0.27,0.15,0.42C280.36,128.27,280.29,128.44,280.16,128.55z M288.91,128.92h-0.36c-0.22-0.01-0.41-0.13-0.52-0.32
				l-0.21-0.41c-0.07-0.14-0.21-0.24-0.37-0.23c-0.59,0-1.09,1-2.5,1h-0.35c-1.45-0.02-2.62-1.21-2.62-2.66v-7.84
				c0-0.39,0.31-0.7,0.7-0.7c0,0,0.01,0,0.01,0h0.33c0.38,0.01,0.69,0.32,0.7,0.7v7.4c-0.01,0.82,0.65,1.48,1.47,1.49
				c0.01,0,0.01,0,0.02,0h1c0.81,0.01,1.47-0.65,1.48-1.46c0-0.01,0-0.02,0-0.03v-7.4c0-0.39,0.31-0.7,0.7-0.7c0,0,0.01,0,0.01,0
				h0.33c0.39,0,0.7,0.31,0.71,0.7v9.88C289.44,128.65,289.21,128.9,288.91,128.92z M293.97,128.92h-0.33
				c-0.38,0.01-0.69-0.28-0.7-0.66c0-0.01,0-0.03,0-0.04v-14.51c-0.01-0.38,0.29-0.7,0.67-0.71c0.01,0,0.02,0,0.03,0h0.33
				c0.39,0,0.71,0.32,0.71,0.71v14.51c0,0.39-0.31,0.7-0.7,0.7C293.98,128.92,293.97,128.92,293.97,128.92z M303.56,119.34h-2.45
				v8.88c0,0.39-0.31,0.7-0.7,0.7c0,0-0.01,0-0.01,0h-0.32c-0.38,0.01-0.7-0.29-0.71-0.67c0-0.01,0-0.02,0-0.03v-8.88h-1.34
				c-0.36,0.03-0.68-0.24-0.71-0.61c0-0.02,0-0.03,0-0.05v-0.26c0-0.36,0.29-0.66,0.66-0.66c0.02,0,0.03,0,0.05,0h1.34v-4
				c-0.01-0.39,0.3-0.7,0.69-0.71c0.01,0,0.01,0,0.02,0h0.32c0.39,0,0.71,0.32,0.71,0.71v4h2.45c0.36-0.03,0.68,0.24,0.71,0.61
				c0,0.02,0,0.03,0,0.05v0.26c0,0.36-0.29,0.66-0.66,0.66C303.59,119.34,303.58,119.34,303.56,119.34z M312.63,128.92h-0.35
				c-0.22-0.01-0.41-0.13-0.52-0.32l-0.21-0.41c-0.07-0.15-0.22-0.24-0.38-0.23c-0.59,0-1.08,1-2.49,1h-0.36
				c-1.45-0.03-2.61-1.21-2.61-2.66v-7.84c-0.01-0.38,0.3-0.69,0.68-0.7c0.01,0,0.02,0,0.03,0h0.32c0.39,0,0.7,0.31,0.71,0.7v7.4
				c-0.01,0.82,0.65,1.48,1.47,1.49c0.01,0,0.01,0,0.02,0h1c0.82,0,1.48-0.66,1.48-1.48c0,0,0-0.01,0-0.01v-7.4
				c0-0.39,0.31-0.7,0.7-0.7c0,0,0.01,0,0.01,0h0.37c0.39,0,0.7,0.31,0.7,0.7v0v9.88c0.01,0.31-0.25,0.57-0.56,0.58
				C312.64,128.92,312.63,128.92,312.63,128.92z M321.78,119.34h-2.57c-0.77-0.01-1.41,0.61-1.41,1.39c0,0.04,0,0.08,0,0.12v7.37
				c-0.01,0.39-0.32,0.7-0.71,0.7h-0.33c-0.38,0.01-0.7-0.29-0.71-0.67c0-0.01,0-0.02,0-0.03v-9.87c-0.01-0.31,0.23-0.58,0.55-0.59
				c0.03,0,0.06,0,0.09,0h0.3c0.2,0.02,0.37,0.15,0.45,0.33l0.21,0.42c0.07,0.18,0.24,0.29,0.43,0.28c0.59,0,1.13-1,2.45-1h1.25
				c0.36-0.03,0.67,0.24,0.7,0.6c0,0.02,0,0.04,0,0.06v0.26c-0.01,0.36-0.31,0.64-0.67,0.63
				C321.8,119.34,321.79,119.34,321.78,119.34z M328.68,128.99h-0.35c-1.42,0-1.94-1-2.48-1c-0.21,0-0.28,0.23-0.28,0.45v5
				c0,0.39-0.32,0.71-0.71,0.71h-0.36c-0.38,0.01-0.69-0.3-0.7-0.68c0-0.01,0-0.02,0-0.03v-15.12c-0.01-0.3,0.22-0.55,0.52-0.56
				c0.01,0,0.01,0,0.02,0h0.33c0.2,0,0.38,0.1,0.49,0.26l0.31,0.54c0.07,0.13,0.2,0.22,0.35,0.23c0.59,0,1.16-1.1,2.48-1.1h0.35
				c1.44-0.01,2.61,1.15,2.61,2.59c0,0.03,0,0.06,0,0.09v6C331.24,127.79,330.1,128.95,328.68,128.99z M329.55,120.82
				c0.01-0.81-0.65-1.47-1.46-1.48c0,0,0,0,0,0h-1c-0.82,0-1.48,0.66-1.48,1.48c0,0,0,0,0,0v5.07c0.01,0.81,0.67,1.47,1.48,1.46
				c0,0,0,0,0,0h1c0.8-0.01,1.45-0.66,1.46-1.46V120.82z M338.48,128.92h-4c-0.36,0.03-0.67-0.23-0.71-0.59c0-0.02,0-0.04,0-0.06
				v-0.26c-0.01-0.36,0.28-0.66,0.64-0.66c0.02,0,0.05,0,0.07,0h3.63c0.8,0,1-0.83,1-1.35v-0.93c0-0.55-0.45-1-1-1h-2
				c-1.27,0.01-2.3-1.02-2.31-2.29c0-0.01,0-0.01,0-0.02v-1.55c0.12-1.4,1.3-2.47,2.7-2.45h3c0.36-0.03,0.67,0.24,0.7,0.6
				c0,0.02,0,0.04,0,0.06v0.26c0.01,0.36-0.28,0.66-0.64,0.66c-0.02,0-0.04,0-0.06,0h-2.6c-0.65-0.09-1.24,0.36-1.33,1.01
				c-0.01,0.06-0.01,0.13-0.01,0.19v0.87c0.03,0.68,0.6,1.21,1.28,1.18c0.01,0,0.02,0,0.02,0h1.93c1.1-0.07,2.05,0.77,2.12,1.87
				c0.01,0.08,0.01,0.17,0,0.25v1.58c0.14,1.3-0.79,2.47-2.1,2.62c-0.1,0.01-0.21,0.02-0.31,0.01H338.48z M351.94,118.75
				l-5.44,14.89c-0.06,0.33-0.38,0.55-0.71,0.49c-0.11-0.02-0.21-0.07-0.29-0.14l-0.26-0.14c-0.17-0.1-0.29-0.27-0.31-0.47
				c-0.01-0.11,0.01-0.23,0.05-0.33l1.52-4.13c-0.14,0-0.26-0.25-0.31-0.42l-3.56-9.75c-0.01-0.08-0.01-0.16,0-0.24
				c0-0.28,0.18-0.52,0.44-0.61l0.38-0.14c0.32-0.14,0.7,0,0.84,0.33c0.01,0.02,0.02,0.05,0.03,0.07l3,8.48l3-8.48
				c0.11-0.35,0.48-0.54,0.82-0.44c0.01,0,0.02,0.01,0.03,0.01l0.35,0.17c0.26,0.1,0.44,0.34,0.45,0.61
				C351.97,118.59,351.96,118.67,351.94,118.75L351.94,118.75z M359.38,128.92h-3.23c-1.45-0.03-2.61-1.23-2.59-2.68v-5.87
				c0.03-1.46,1.23-2.62,2.69-2.61h2.87c0.36-0.03,0.68,0.24,0.71,0.61c0,0.02,0,0.03,0,0.05v0.26c0,0.36-0.29,0.66-0.66,0.66
				c-0.02,0-0.03,0-0.05,0h-2.26c-0.76-0.1-1.45,0.43-1.55,1.19c-0.01,0.11-0.02,0.23,0,0.34v5c0,1.1,0.7,1.46,1.57,1.46h2.5
				c0.36-0.03,0.67,0.23,0.71,0.59c0,0.02,0,0.05,0,0.07v0.26c0.01,0.36-0.27,0.66-0.63,0.67
				C359.43,128.92,359.41,128.92,359.38,128.92L359.38,128.92z M368.76,128.92h-0.33c-0.38,0.01-0.7-0.29-0.71-0.67
				c0-0.01,0-0.02,0-0.03v-7.4c0-0.82-0.66-1.48-1.48-1.48l0,0h-1c-0.82-0.01-1.48,0.65-1.49,1.47c0,0,0,0.01,0,0.01v7.4
				c0,0.39-0.31,0.7-0.7,0.7l0,0h-0.33c-0.38,0.01-0.7-0.29-0.71-0.67c0-0.01,0-0.02,0-0.03v-14.51c-0.01-0.39,0.3-0.7,0.69-0.71
				c0.01,0,0.01,0,0.02,0h0.33c0.39,0.01,0.7,0.32,0.7,0.71v4.68c0,0.24,0.07,0.4,0.28,0.4c0.59,0,1.16-1.1,2.48-1.1h0.35
				c1.44-0.02,2.62,1.14,2.64,2.58c0,0.03,0,0.07,0,0.1v7.85c0,0.39-0.31,0.7-0.7,0.7C368.79,128.92,368.77,128.92,368.76,128.92
				L368.76,128.92z M377.2,128.92h-2.24c-1.45-0.01-2.62-1.18-2.62-2.63v-5.94c0.04-1.46,1.25-2.61,2.71-2.59h2.05
				c1.46-0.02,2.67,1.13,2.71,2.59v5.94C379.81,127.74,378.65,128.92,377.2,128.92L377.2,128.92z M378.07,120.63
				c0-0.71-0.57-1.28-1.28-1.29h-1.41c-0.71,0-1.29,0.58-1.29,1.29v0v5.44c-0.02,0.7,0.54,1.28,1.24,1.3c0.01,0,0.02,0,0.03,0h1.41
				c0.71,0.01,1.29-0.55,1.3-1.26c0-0.01,0-0.03,0-0.04L378.07,120.63z M384.34,128.92h-0.33c-0.38,0.01-0.7-0.29-0.71-0.67
				c0-0.01,0-0.02,0-0.03v-14.51c-0.01-0.39,0.3-0.7,0.69-0.71c0.01,0,0.01,0,0.02,0h0.33c0.39,0.01,0.7,0.32,0.7,0.71v14.51
				C385.04,128.61,384.73,128.92,384.34,128.92L384.34,128.92z M393.34,128.92h-2.24c-1.44-0.01-2.61-1.19-2.6-2.63v-5.94
				c0.04-1.46,1.25-2.61,2.71-2.59h2.05c1.46-0.02,2.67,1.13,2.71,2.59v5.94c0,1.44-1.15,2.61-2.59,2.63H393.34z M394.21,120.63
				c0.01-0.71-0.56-1.28-1.27-1.29c0,0,0,0,0,0h-1.41c-0.71,0-1.29,0.58-1.3,1.29v5.44c-0.01,0.71,0.55,1.29,1.26,1.3
				c0.01,0,0.01,0,0.02,0h1.41c0.71,0.01,1.28-0.56,1.29-1.27c0-0.01,0-0.02,0-0.03L394.21,120.63z M403.73,134.07h-2.88
				c-0.36,0.03-0.67-0.24-0.7-0.6c0-0.02,0-0.04,0-0.06v-0.26c-0.01-0.36,0.28-0.66,0.64-0.66c0.02,0,0.04,0,0.06,0h2.19
				c0.75,0.11,1.44-0.42,1.55-1.17c0.01-0.08,0.02-0.17,0.01-0.25v-2.66c0-0.22-0.07-0.45-0.28-0.45c-0.55,0-1.06,1-2.48,1h-0.34
				c-1.45-0.02-2.62-1.21-2.62-2.66v-6c0-1.44,1.17-2.61,2.61-2.61c0,0,0.01,0,0.01,0h0.35c1.32,0,1.89,1.1,2.48,1.1
				c0.15-0.01,0.28-0.1,0.35-0.23l0.3-0.54c0.11-0.16,0.3-0.26,0.5-0.26h0.33c0.3,0,0.54,0.24,0.54,0.54c0,0.01,0,0.01,0,0.02v13.15
				C406.33,132.91,405.16,134.06,403.73,134.07z M404.6,120.78c0-0.82-0.66-1.48-1.48-1.48c0,0-0.01,0-0.01,0h-1
				c-0.81,0.01-1.47,0.67-1.46,1.48c0,0,0,0,0,0v5.07c0.01,0.8,0.66,1.45,1.46,1.46h1c0.81,0.01,1.48-0.64,1.49-1.45
				c0,0,0-0.01,0-0.01V120.78z M410.87,115.67h-0.37c-0.39,0.01-0.7-0.3-0.71-0.69c0-0.01,0-0.01,0-0.02v-1.25
				c-0.01-0.39,0.3-0.7,0.69-0.71c0.01,0,0.01,0,0.02,0h0.33c0.39,0.01,0.7,0.32,0.7,0.71V115c0,0.37-0.29,0.68-0.66,0.71V115.67z
				 M410.87,128.88h-0.37c-0.38,0.01-0.7-0.29-0.71-0.67c0-0.01,0-0.02,0-0.03v-9.72c0-0.39,0.31-0.7,0.7-0.7c0,0,0.01,0,0.01,0
				h0.33c0.38,0.01,0.69,0.32,0.7,0.7v9.76c0,0.37-0.29,0.68-0.66,0.7V128.88z M421.16,124.07h-4.35v1.86
				c-0.06,0.74,0.48,1.39,1.22,1.45c0.1,0.01,0.21,0.01,0.31-0.01h2.42c0.36-0.03,0.67,0.23,0.71,0.59c0,0.02,0,0.05,0,0.07v0.26
				c0,0.36-0.29,0.65-0.65,0.65c-0.02,0-0.04,0-0.06,0h-3.13c-1.44-0.05-2.58-1.24-2.57-2.68v-5.91c0.04-1.46,1.25-2.61,2.71-2.59
				h2.05c1.45,0,2.63,1.15,2.68,2.59v2.28c0.09,0.7-0.41,1.34-1.11,1.43C421.31,124.07,421.24,124.08,421.16,124.07z M420.79,120.63
				c0.01-0.7-0.55-1.28-1.25-1.29c-0.01,0-0.03,0-0.04,0h-1.43c-0.7-0.01-1.26,0.55-1.27,1.25c0,0.01,0,0.01,0,0.02v2h4
				L420.79,120.63z"/>
			<g>
				<path fill="#006C66" d="M184.72,105.34c0.17-1.28,1.34-2.18,2.61-2.01c0.02,0,0.04,0.01,0.06,0.01c0.98,0.09,1.7,0.96,1.61,1.94
					c-0.01,0.13-0.04,0.26-0.08,0.38c-0.27,1.1-1.24,1.88-2.37,1.91C184.44,107.69,184.5,106.42,184.72,105.34z M171.56,96.79
					c1,0.63,2.49,1,2.9-0.07s0.76-2.12-1.42-3.92c-0.9-0.75-2.32,0.15-2.73,1.25S169.98,95.78,171.56,96.79z M239.5,112.07
					c-1.73-1.92-2.3-2.16-3-1.22s-0.49,3.92,0.45,4.62c0.93,0.71,2.26,0.54,2.97-0.38c0.01-0.01,0.02-0.02,0.03-0.04
					C240.55,114.08,240.36,112.82,239.5,112.07z M239.55,121.96c-2.76,7.35-7.99,13.51-14.8,17.43c-1.6,0.92-3.27,1.71-5,2.36
					c0,0-3,1.06-3.35,5.75c-0.29,4.1,2.25,3.53,2.25,3.53c-22.71,6.03-46.01-7.5-52.04-30.21c-1.91-7.2-1.9-14.78,0.04-21.98
					c0,0,0.77-2.48,4.18-0.18c3.9,2.63,3.3,5.77,3.3,5.77c-0.3,1.82-0.45,3.66-0.45,5.51c-0.01,7.85,2.72,15.46,7.7,21.53
					c1,1,2.3,1.42,5.63,0.18c4.17-1.55,1.44-5,1.44-5c-2.61-3-4.48-6.56-5.47-10.41c-0.61-2.27-0.49-6.33,2.12-7
					c2.27-0.59,5.24,1.6,6.16,5c0.39,1.49,0.99,2.92,1.77,4.24c1.19,1.93,3.3,2.6,6.24,1.52s2.31-3.78,1.12-5.78
					c-1.22-2.02-0.58-4.65,1.44-5.88c0.03-0.02,0.06-0.03,0.09-0.05c2.03-1.16,4.61-0.45,5.77,1.57c0,0.01,0.01,0.01,0.01,0.02l0,0
					c-1.19,2-0.53,4.58,1.47,5.77c0.01,0.01,0.02,0.01,0.04,0.02c2.04,1.19,4.65,0.5,5.84-1.53c0.02-0.03,0.04-0.07,0.06-0.11
					c1.14-2,3.27-3.84,5.57-1.92s2.88,4.17,1.8,6.16c-0.76,1.34-1.7,2.57-2.79,3.66c-2.52,2.52-2.93,6.18-1.29,7.86
					c1.89,1.92,5.47,0,7.13-1.67c2.84-2.78,4.99-6.18,6.28-9.94c0,0,1.61-4.08,5-1.25C239.64,119.26,239.92,120.59,239.55,121.96
					L239.55,121.96z M192.55,134.38c-0.46-1.08-3.14-2.39-4.22-1.93c-1.08,0.46-1.59,1.71-1.13,2.79c0.52,1.01,1.71,1.49,2.79,1.12
					c2.57-0.53,3.06-0.9,2.6-1.98H192.55z M214.5,147.86c0.05-1.18-0.35-2.68-1.51-2.48s-2.21,0.4-2.69,3.19
					c-0.19,1.15,1.3,1.93,2.46,1.74S214.39,149.73,214.5,147.86z M216.32,129.49c-0.59-0.95-1.74-1.4-2.82-1.09
					c-0.96,0.2-1.58,1.13-1.38,2.09c0.03,0.13,0.07,0.27,0.13,0.39c0.48,1.21,1.85,1.8,3.07,1.32c0.01,0,0.02-0.01,0.02-0.01
					c1.02-0.33,2.16-0.94,0.95-2.7H216.32z M219.18,119.15c0.89-0.82,1.91-2.13,1.66-3.25s-1.59-2.51-2.66-1.8
					c-1.14,0.81-1.78,2.15-1.68,3.55c0.26,1.12,1.59,2.47,2.65,1.5H219.18z M196.1,118.25c1.09,0.34,3-0.11,2.89-1.4
					c-0.15-1.38-1.01-2.59-2.26-3.2c-1.09-0.34-2.93,0.15-2.62,1.54c0.23,1.19,0.86,2.72,1.96,3.06H196.1z"/>
				<path fill="#00B1EA" d="M237.88,79.94c0,0,1.77,1.91-1.92,3.71c-4.23,2.06-6.65,0-6.66,0c-1.42-1.17-2.94-2.22-4.54-3.14
					c-6.79-3.93-14.74-5.38-22.49-4.1c-1.37,0.37-2.38,1.28-3,4.79c-0.75,4.38,3.59,3.73,3.59,3.73c3.9-0.76,7.92-0.6,11.75,0.47
					c2.27,0.61,5.72,2.74,5,5.34c-0.63,2.26-4,3.73-7.45,2.81c-1.49-0.4-3.02-0.6-4.56-0.59c-2.27,0.07-3.9,1.56-4.44,4.65
					c-0.54,3.09,2.12,3.89,4.45,3.85c2.37-0.04,4.33,1.84,4.37,4.21c0,0.03,0,0.06,0,0.09c-0.01,2.34-1.91,4.22-4.25,4.21
					c0,0-0.01,0-0.01,0l0,0c-1.18,2.01-0.52,4.59,1.49,5.78c0.01,0,0.01,0.01,0.02,0.01c2.04,1.19,4.65,0.5,5.84-1.53
					c0.02-0.03,0.04-0.07,0.06-0.11c1.14-2,3.27-3.84,5.57-1.92s2.88,4.17,1.8,6.16c-0.76,1.34-1.7,2.57-2.79,3.66
					c-2.52,2.52-2.93,6.18-1.29,7.86c1.89,1.92,5.47,0,7.13-1.67c2.84-2.78,4.99-6.18,6.28-9.94c0,0,1.61-4.08,5-1.25
					c2.74,2.27,3,3.6,2.66,5c-2.76,7.35-7.99,13.51-14.8,17.43c-1.6,0.92-3.27,1.72-5,2.37c0,0-3,1-3.35,5.74
					c-0.29,4.1,2.25,3.53,2.25,3.53c22.69-6.02,36.2-29.3,30.18-51.99c-1.92-7.22-5.7-13.81-10.97-19.1L237.88,79.94z M210.06,98.51
					c-1.15,0.77-2.62,0.9-3.89,0.35c-1.16-0.58-0.61-2.43,0.23-3.21s2.49-0.55,3.64-0.19C211.41,95.89,210.91,97.73,210.06,98.51z
					 M223.66,95.61c-0.56,0.8-1.65,0.99-2.45,0.44c-0.11-0.08-0.22-0.17-0.31-0.28c-0.81-0.78-1.01-2.01-0.48-3
					c0.94-1.9,2-1.24,2.83-0.49c1.03,0.77,1.24,2.23,0.46,3.26C223.69,95.57,223.68,95.59,223.66,95.61z M237.24,85.16
					c1.66-0.86,2.25-0.62,3,0.29c0.75,0.91,0.82,2.58-0.28,3c-2.64,1-3.36,0.18-4.1-0.73C235.12,86.81,236.2,85.71,237.24,85.16z
					 M239.93,115.07c-0.7,0.94-2.02,1.14-2.96,0.45c-0.01-0.01-0.02-0.02-0.04-0.03c-0.94-0.7-1.15-3.68-0.45-4.62s1.28-0.7,3,1.22
					C240.34,112.84,240.53,114.1,239.93,115.07z M210.28,148.59c0.47-2.79,1.52-3,2.68-3.19s1.56,1.3,1.51,2.48
					c-0.08,1.87-0.59,2.25-1.74,2.45s-2.65-0.61-2.45-1.76L210.28,148.59z M215.28,132.21c1.06-0.33,2.17-0.94,1-2.7
					c-0.58-0.95-1.71-1.4-2.78-1.11c-0.96,0.2-1.58,1.13-1.38,2.09c0.03,0.13,0.07,0.27,0.13,0.39c0.49,1.2,1.85,1.78,3.05,1.31
					L215.28,132.21z M219.13,119.21c0.89-0.82,1.91-2.13,1.66-3.25s-1.59-2.51-2.66-1.8c-1.1,0.81-1.72,2.12-1.63,3.49
					c0.26,1.12,1.59,2.47,2.65,1.5L219.13,119.21z M193.73,81.37c-0.8,2.46-0.72,3.07,0.44,3.21s3.64-1.53,3.78-2.69
					c0.15-1.16-0.66-2.21-1.82-2.37c-0.01,0-0.02,0-0.03,0C194.96,79.47,193.96,80.26,193.73,81.37z"/>
				<path fill="#C6D325" d="M223.25,92.28c1.03,0.77,1.24,2.23,0.46,3.26c-0.02,0.02-0.03,0.05-0.05,0.07
					c-0.56,0.8-1.65,0.99-2.45,0.44c-0.11-0.08-0.22-0.17-0.31-0.28c-0.81-0.78-1.01-2.01-0.48-3
					C221.36,90.87,222.44,91.53,223.25,92.28z M188.37,132.45c-1.08,0.46-1.59,1.71-1.13,2.79c0.52,1.01,1.71,1.49,2.79,1.12
					c2.53-0.53,3-0.9,2.56-2C192.15,133.26,189.5,131.99,188.37,132.45z M240.23,85.45c-0.74-0.91-1.33-1.15-3-0.29
					c-1,0.55-2.14,1.64-1.39,2.55c0.75,0.91,1.46,1.71,4.1,0.73C241.05,88.07,240.98,86.35,240.23,85.45z M235.96,83.65
					c-4.23,2.06-6.65,0-6.66,0c-1.42-1.17-2.94-2.22-4.54-3.14c-6.79-3.93-14.74-5.38-22.49-4.1c-1.37,0.37-2.38,1.28-3,4.79
					c-0.75,4.38,3.59,3.73,3.59,3.73c3.9-0.76,7.92-0.6,11.75,0.47c2.27,0.61,5.72,2.74,5,5.34c-0.63,2.26-4,3.73-7.45,2.81
					c-1.49-0.4-3.02-0.6-4.56-0.59c-2.27,0.07-3.9,1.56-4.44,4.65c-0.54,3.09,2.12,3.89,4.45,3.85c2.37-0.04,4.33,1.84,4.37,4.21
					c0,0.03,0,0.06,0,0.09c-0.01,2.34-1.91,4.22-4.25,4.21c0,0-0.01,0-0.01,0l0,0c-1.15-2.03-3.73-2.75-5.76-1.6
					c-0.01,0-0.01,0.01-0.02,0.01c-2.02,1.22-2.68,3.85-1.45,5.88c0,0.01,0.01,0.02,0.01,0.02c1.19,2,1.69,4.75-1.12,5.78
					s-5.05,0.41-6.24-1.52c-0.78-1.32-1.38-2.75-1.77-4.24c-0.92-3.45-3.89-5.64-6.16-5c-2.61,0.68-2.73,4.74-2.12,7
					c0.98,3.83,2.83,7.38,5.41,10.37c0,0,2.73,3.43-1.44,5c-3.33,1.24-4.62,0.82-5.63-0.18c-4.98-6.07-7.71-13.68-7.7-21.53
					c0-1.85,0.15-3.69,0.45-5.51c0,0,0.6-3.14-3.3-5.77c-3.41-2.3-4.18,0.18-4.18,0.18c6.12-22.67,29.46-36.08,52.13-29.95
					c7.21,1.95,13.78,5.76,19.04,11.05l0,0C237.87,79.96,239.65,81.85,235.96,83.65L235.96,83.65z M173.04,92.8
					c-0.9-0.75-2.32,0.15-2.73,1.25s-0.33,1.73,1.25,2.74c1,0.63,2.49,1,2.9-0.07S175.22,94.6,173.04,92.8z M187.39,103.32
					c-1.27-0.2-2.46,0.67-2.66,1.94c0,0.02-0.01,0.04-0.01,0.06c-0.25,1.08-0.28,2.35,1.83,2.21c1.13-0.03,2.1-0.81,2.37-1.91
					c0.29-0.94-0.23-1.94-1.17-2.23C187.63,103.36,187.51,103.33,187.39,103.32z M194.17,84.58c1.17,0.15,3.64-1.53,3.78-2.69
					c0.15-1.16-0.66-2.21-1.82-2.37c-0.01,0-0.02,0-0.03,0c-1.14-0.05-2.14,0.73-2.37,1.85C192.93,83.83,193.01,84.44,194.17,84.58z
					 M198.96,116.85c-0.15-1.38-1.01-2.59-2.26-3.2c-1.09-0.34-2.93,0.15-2.62,1.54c0.26,1.19,0.89,2.72,2,3.06
					S199.04,118.14,198.96,116.85L198.96,116.85z M206.4,95.65c-0.84,0.78-1.39,2.63-0.23,3.21c1.27,0.55,2.74,0.42,3.89-0.35
					c0.85-0.78,1.35-2.62,0-3C208.89,95.07,207.24,94.87,206.4,95.65z"/>
			</g>
			<rect x="150.68" y="67.41" fill="#006C66" width="0.77" height="85.04"/>
			<path fill="#006C66" d="M94.37,67.42c-23.48,0-42.52,19.04-42.52,42.52s19.04,42.52,42.52,42.52s42.52-19.04,42.52-42.52
				c0,0,0-0.01,0-0.01C136.86,86.46,117.84,67.45,94.37,67.42z M94.37,151.27c-22.83,0.01-41.34-18.5-41.35-41.33
				c-0.01-22.83,18.5-41.34,41.33-41.35c22.83-0.01,41.34,18.5,41.35,41.33c0,0,0,0.01,0,0.01
				C135.68,132.75,117.19,151.24,94.37,151.27z M119.31,106.69c-0.58-1.24-0.18-2-0.36-2.94c-0.5-1.49-1.08-2.94-1.74-4.37
				c-0.3-0.71,1.52-0.53,0.18-3.11c0-0.07,1.87-0.78,0-2.23c-0.95-0.75-1.77-1.67-2.41-2.7c-0.12-0.15-0.12-0.37,0-0.52
				c1.08-1,1.11-2.34-0.07-3c-0.84-0.51-1.81,0-2.71,0.59c-0.29,0.19-0.44,0.3-0.74,0.18c-0.27-0.15-0.52-0.33-0.76-0.52
				c0.71-0.56,1.15-1.39,1.23-2.29c-1.37-0.37-2.83-0.23-4.11,0.4l-0.16-0.11c0.59-0.81,0.72-1.87,0.34-2.8l0,0
				c1.46-1.98,3.14-3.79,5-5.4l0,0c0.11-0.11,0.15-0.23-0.06-0.36c-0.21-0.13-0.22-0.13-0.43-0.25c-18.08-10-40.84-3.45-50.84,14.62
				c-3.06,5.52-4.66,11.73-4.68,18.05c0.15,12.17,6.09,23.54,16,30.61c0.35,0.26,0.72,0.48,1.12,0.66c0.15,0.08,0.33,0.05,0.44-0.08
				l0.14-0.19c0.08-0.09,0.13-0.21,0.13-0.34c0-0.28-0.39-0.52-0.85-1.21c-1.23-1.81-1.9-3.94-1.93-6.13
				c-0.02-1.99,0.62-3.94,1.84-5.52c1.49,1.55,4.74,4.41,4.67,7c-0.08,2.92-2.81,2.78-2.22,5c0.37,1.37,1.4,0.81,1.57,1.85
				c0.31,1.8,2.74,3,3.8,2.8c0.25,0,0.47,0.17,1,0.69c0.72,0.73,2.5,0.63,3.29,0.49s1.69,0.55,3.26,0.37c2-0.21,2.46-0.36,3.29-0.38
				c4.88-0.11,9.76,0.13,14.61,0.73c1,0.14,1.25-0.28,0.82-1c-1.91-3.01-2.32-6.74-1.11-10.1c2,0.14,4.93,0.69,8.77-1.62
				c1.3-0.85,2.07-2.3,2.05-3.85c-0.19-0.9-0.26-1.82-0.19-2.73c0.29-1.1,0.5-1.08,0.82-1.3c1.47-1,0.41-1.85,0.18-1.93
				c0.63-0.38,0.82-1.2,0.44-1.83c-0.01-0.01-0.01-0.02-0.02-0.03c-0.26-0.28-1.06-2.52-0.14-3s2.12-0.72,3.26-1.22
				c0.95-0.38,1.4-1.46,1.02-2.41c-0.01-0.02-0.01-0.03-0.02-0.05C122.4,113.74,119.41,106.88,119.31,106.69z M78.06,139.96
				c-0.29,0-1.21,0.09-1-1.12c0.12-0.74,0.93-1,1.34-0.63C78.31,138.79,78.12,139.35,78.06,139.96z M113.29,88.96
				c0.48-0.3,1-0.43,1.31-0.13c1.06,1-1.16,1.64-0.7,2.44c0.78,1.31,1.8,2.47,3,3.41c0.5,0.39,0.57,1.25-1.34,1.65
				s-9.57,2.41-13.61,6.69c-5,5.35-8.26,12.28-8.7,11.33s-1.45-1.12-1.29-1.39C99.24,100.45,110.61,90.63,113.29,88.96L113.29,88.96
				z M116.61,97.74c-0.41,1.19-3.71,2.25-3.55,1.42c0.07-0.38,0-0.88,0.26-0.92c0.26-0.04,1.4-0.43,3-0.84
				C116.5,97.34,116.72,97.44,116.61,97.74L116.61,97.74z M108.26,99.91c-0.09-0.49,3.45-1.68,3.58-1.33
				c0.22,0.65-0.73,2.4-1.92,2.83c-1.35,0.5-1.91,0.35-1.86,0.16C108.22,101.03,108.28,100.47,108.26,99.91L108.26,99.91z
				 M100.04,118.37c-1.63,1-2.52-0.91-2.75-1.25c-0.25-0.38-0.33-0.84-0.21-1.28c0.17-1.26,0.12-2.53-0.17-3.77
				c-0.16-1.07,2-3.73,2.55-4.19s1.27,0.24,1.32,1c0.05,1.19-0.56,2.32-1.6,2.91c-1.05,0.78-1.25,1.8-1.05,2.07
				c0.08,0.1,0.55,0.11,0.76-0.33c0.63-1.35,2.43-2,2.72-2.73c0.27-0.72,0.3-1.52,0.08-2.26c0-0.41,0.35-0.51,0.65-0.46
				s0.55,0.57,0.75,1.08c1.16,3-1.77,4.88-2.24,5.6C100.63,115.12,101.3,117.59,100.04,118.37z M102.5,106.58
				c-0.87,0.59-2.13-0.21-1.88-0.57c1.26-1.76,2.84-3.27,4.65-4.46c1.39-0.87,1.54-0.93,1.61-0.44c0.06,1.1-0.33,2.18-1.06,3
				c-0.62,0.63-1.46,0.99-2.34,1C103.15,105.26,103.16,106.12,102.5,106.58z M94.7,116.96c-0.4-0.09-0.55-0.88-0.47-1.18
				c0.42-0.94,0.97-1.82,1.62-2.61c0.1-0.13,0.29,0,0.31,0.14C96.38,114.96,96.15,117.28,94.7,116.96L94.7,116.96z M107.7,86.96
				c0.94-0.42,1.97-0.64,3-0.65c0.33,0-0.74,1.95-2.65,2.77c-1.12,0.57-2.35,0.88-3.61,0.91c-0.2-0.15,1.72-2.35,3.28-3.06
				L107.7,86.96z M73.99,118.62c-0.31-0.42-0.71-0.77-1.18-1c-0.73,1.09-1.23,2.32-1.44,3.62c-1.85-3.49-2.88-7.36-3-11.31
				C67.78,95.6,79.79,84.07,94.44,84.07c3.12,0.01,6.2,0.65,9.06,1.88c-0.62,0.82-1.13,1.73-1.49,2.69c0-0.77-0.22-1.38-0.16-1.86
				c0-0.3-2.08,0.35-3.95,3.34c-0.41,0.67-0.71,1.4-0.88,2.16c0.03-0.69-0.1-1.37-0.38-2c-1.57,0.69-2.8,1.96-3.44,3.55
				c-0.19,0.45-0.34,0.91-0.45,1.39c-0.01-0.46-0.13-0.92-0.36-1.32c-1.61,0.68-2.86,1.98-3.49,3.61c-0.22,0.61-0.36,1.24-0.4,1.89
				c-0.2-0.94-0.56-1.51-0.68-1.36c-0.77,1-2.28,1.41-3.09,3.89c-0.17,0.55-0.27,1.12-0.27,1.7c-0.33-0.84-0.8-1.32-0.91-1.3
				c-1.4,1.12-2.4,2.67-2.84,4.41c-0.13,0.77-0.11,1.56,0.04,2.33c-0.49-0.6-0.9-1.24-1.25-1.93c-1.35,1.06-2.21,2.63-2.35,4.34
				c-0.02,0.83,0.08,1.67,0.3,2.47c-0.65-1.17-1.56-1.72-1.66-1.65c-1.15,1.22-1.86,2.8-2,4.47
				C73.73,117.4,73.8,118.02,73.99,118.62z M103.99,86.36c1.15-1.37,3.11-2.47,3.33-2.33c0.22,0.14-0.33,2.25-1.59,3.49
				c-1.01,1.01-2.19,1.84-3.48,2.46C102.02,89.97,102.95,87.59,103.99,86.36z M100.25,91.64c-0.92,0.7-1.7,1.57-2.28,2.57
				c-0.22,0.36-0.76-2,0.69-4.3c0.67-1.02,1.57-1.87,2.63-2.48C101.16,87.99,102.15,90.07,100.25,91.64z M96.15,94.64
				c-1.37,2-1.45,1.34-3,3.34c-0.11-1.28,0.04-2.57,0.43-3.8c0.52-1.23,1.4-2.27,2.52-3c0.27-0.04,0.8,2.37,0.05,3.5L96.15,94.64z
				 M91.66,98.72c-0.7,1.23-1.34,1-2.51,2.69c-0.13,0.2-0.44-1.44,0.26-3.65c0.44-1.19,1.29-2.19,2.4-2.8
				c0.26-0.03,0.69,2.34-0.15,3.8L91.66,98.72z M87.5,103.07c-0.72,1.56-1.18,1.61-2,2.59c-0.15,0.16-0.77-1.49-0.17-3.57
				c0.42-1.14,1.18-2.12,2.17-2.82C87.66,99.07,88.25,101.43,87.5,103.07z M84.1,105.75c0,0.41-0.06,0.82-0.19,1.21
				c-0.45,1.24-1.17,2.36-2.11,3.29c-0.4-0.73-0.62-1.54-0.65-2.37c0.02-1.73,0.79-3.38,2.1-4.51c0.3,0.01,0.84,1.3,0.84,2.4
				L84.1,105.75z M80.64,110.93c-0.06,1.68-0.8,3.26-2.05,4.38c-0.53-0.94-0.83-1.99-0.89-3.07c-0.19-1.48,0.35-2.97,1.43-4
				c0.21,0.83,1.52,1.38,1.5,2.71L80.64,110.93z M75.75,113.47c1.1,0.73,1.73,1.99,1.65,3.31c0.03,1.49-0.66,2.91-1.84,3.82
				c-0.39-1.45-1.06-1.76-1.06-3.22c0.05-1.39,0.48-2.73,1.24-3.89L75.75,113.47z M78.7,118.55c1.26-0.55,2.64-0.76,4-0.6
				c-0.3,1.39-1.17,2.59-2.39,3.32c-1.81,1-3.84,1.06-4,0.83c0.21-1.48,1.09-2.78,2.38-3.53L78.7,118.55z M78.56,117.18
				c0.49-1.45,1.51-2.67,2.86-3.39l0,0c1.2-0.52,2.5-0.72,3.8-0.59c0.22,0.09-0.69,2.26-2.36,3.06c-1.88,0.91-2.62,0.39-4.31,0.94
				L78.56,117.18z M81.34,112.4c0.07-0.18,1.42-2.61,3-3.35c1.13-0.48,2.37-0.67,3.6-0.54c-0.39,1.33-1.3,2.44-2.52,3.08
				c-1.78,0.9-4.17,1.02-4.09,0.83L81.34,112.4z M84.95,107.56c0.82-1.38,1.99-2.53,3.38-3.34c1.07-0.46,2.25-0.6,3.4-0.41
				c-0.37,1.34-1.33,2.44-2.6,3c-1.32,0.57-2.75,0.84-4.19,0.77L84.95,107.56z M89.28,102.78c0.62-1.36,1.68-2.48,3-3.18
				c1.18-0.33,2.42-0.33,3.6,0c0.38,0-0.54,1.84-2.69,2.63c-1.24,0.49-2.59,0.69-3.92,0.57L89.28,102.78z M94.14,98.16
				c0.8-1.28,1.94-2.32,3.29-3c1.21-0.35,2.49-0.38,3.71-0.09c0.21,0.09-1.12,2.06-3.14,2.67c-1.24,0.42-2.56,0.57-3.87,0.44
				L94.14,98.16z M99.05,94.16c-0.21-0.15,1.73-2.32,3.3-2.92c1.07-0.4,2.22-0.54,3.35-0.41c-0.57,1.24-1.6,2.21-2.87,2.72
				c-1.19,0.54-2.49,0.77-3.79,0.65L99.05,94.16z M72.18,138.42c-8.75-6.88-13.9-17.36-14-28.49c0.02-19.98,16.23-36.17,36.21-36.15
				c5.85,0.01,11.61,1.43,16.79,4.15c0.07,0.05,0.1,0.15,0.05,0.22c-0.01,0.02-0.03,0.04-0.05,0.05c-1.49,1.43-2.87,2.97-4.12,4.62
				c-3.97-1.87-8.3-2.83-12.69-2.82c-16.57,0-30,13.43-30,30c-0.07,7.17,2.5,14.12,7.22,19.52c-0.5,1.21-0.76,2.51-0.75,3.82
				C70.84,135.12,71.3,136.87,72.18,138.42z M72.24,128.36L72.24,128.36c-4.37-5.14-6.73-11.69-6.66-18.44
				c0.03-15.89,12.9-28.76,28.79-28.78c4.14-0.02,8.24,0.87,12,2.6c-0.59,0.26-1.14,0.6-1.65,1c-3.26-1.39-6.78-2.09-10.33-2.06
				c-15.02,0.01-27.2,12.18-27.22,27.2c-0.09,6.2,2.04,12.23,6,17L72.24,128.36z M73.67,126.07c-0.98-0.88-1.61-2.08-1.78-3.38
				v-0.24c0.02-1.28,0.36-2.54,1-3.65c0.2-0.19,2.16,1.34,2.19,3.53C75.07,123.71,74.57,125.03,73.67,126.07z M76.92,123.15
				c1.19-0.51,2.5-0.67,3.77-0.46c-0.13,0.1-0.75,2.37-2.51,3.25c-1.08,0.61-2.35,0.8-3.56,0.53c0.95-1.01,0.75-2.55,2.3-3.29
				V123.15z M79.03,141.96c-0.28-0.97-0.2-2.01,0.21-2.93c0.7-0.34,2-0.48,2-0.07c-0.22,1.38-0.17,2.78,0.12,4.14
				c-0.12,0.34-1.86,0.2-2.33-1.11V141.96z M79.15,137.49c-0.14-0.81,0.63-1.58,0.62-3.33c0-2.15-2.67-5.1-4.47-7
				c1.11-0.02,2.2-0.27,3.2-0.74c1.64-0.86,2.84-2.39,3.27-4.2c-0.49-0.15-1.01-0.2-1.52-0.15l0.3-0.15
				c1.69-0.94,2.86-2.59,3.17-4.5c-0.53-0.1-1.07-0.14-1.61-0.11c0.26-0.08,0.52-0.18,0.79-0.29c1.79-0.77,3.08-2.37,3.44-4.28
				c-0.46-0.12-0.93-0.18-1.4-0.17c0.25-0.1,0.5-0.21,0.75-0.33c1.66-0.83,2.86-2.36,3.27-4.17c-0.43-0.11-0.87-0.16-1.31-0.15
				c0.64-0.15,1.26-0.37,1.85-0.64c1.7-0.69,2.98-2.13,3.47-3.89c-0.39-0.13-0.79-0.21-1.2-0.23c0.6-0.13,1.18-0.3,1.76-0.5
				c1.68-0.54,3.01-1.83,3.6-3.49c-0.36,0-0.86-0.21-1.51-0.32c0.9-0.06,1.79-0.24,2.65-0.54c2.89-1,3.91-2.72,4-3.48
				c-0.28-0.17-0.59-0.28-0.91-0.32c0.64-0.1,1.27-0.27,1.87-0.51c1.76-0.79,3.16-2.22,3.92-4c0.54-0.17,1.06-0.37,1.57-0.61
				c0.27-0.12,0.53-0.25,0.78-0.4c0.13,0.1,0.34,0.25,0.66,0.45c0.32,0.2,0.55,0.33,0.35,0.5c-7.44,6.56-13.89,14.16-19.15,22.56
				c-0.08,0.13-0.24,0.11-0.5,0.09c-3.22-0.21-5,3.62-3.6,7.22c-0.46,0.86-1.08,1.63-1.83,2.26c-0.11,0.1-0.42,0.55,0.1,0.5
				c0.75-0.06,1.72-1.27,2.17-1.81c0.2,0.24,0.9,0.83,0.56,1.16c-1.68,1.67-3.58,3.09-5.65,4.23c-1,0.5,1.7,0.85,6.36-3.36
				c0.28-0.25,0.6,1,1,1.49c-0.8,2.64,1.17,7.74,0.86,9.34c-0.04,0.61-0.54,1.08-1.15,1.09c-4.61,0.09-5.07-0.12-7.42,0.57
				c-1.09,0.33-0.8,1,0,0.83c0.8-0.17,1.85-0.61,6.85-0.29c1.22,0.07,2.61-0.25,2.62-2.31c0-1.87-1.48-7.45-1-8.21
				c0.4,0.32,0.88,0.51,1.39,0.56c-0.06,1.82,2.86,7.7,1.56,10.94c-0.48,1.2-2.61,1.11-6.25,0.75c-6.15-0.63-8.15,0.71-8.28-0.03
				L79.15,137.49z M93.37,141.49c-1.18,0.43-2.48-0.18-2.91-1.36c-0.14-0.39-0.17-0.81-0.09-1.22c0.24-0.37,1.76,0.41,2.95-0.35
				c0.94-0.57,1.44,2.51,0.05,2.95L93.37,141.49z M82.44,143.27c-0.34-1.49-0.47-4.07,0.14-4.65c0.13-0.11,2-0.38,2,0
				c-0.15,1.78-0.86,3.76,0.49,5.74C85.5,145.15,82.89,145.27,82.44,143.27z M87.03,144.97c-0.65-0.16-2.43-3-1-6.39
				c0.15-0.35,2.38-0.13,2.75,0c0.37,0.13-0.3,2.78,2.76,4C91.87,142.64,91.5,146.07,87.03,144.97z M106.16,135.51
				c-1,3.58-1.55,5,0,8.89c0.21,0.52,0.36,0.91-0.09,0.83c-3.13-0.54-3.8-1-13.63-0.22c-0.7,0.06,0.23-1.37,0.12-2.34
				c1.22-0.02,2.28-0.83,2.63-2c0.37-1.77-0.86-3.07-0.73-3.32c1.39-2.72-0.09-5.73-1.27-10.77c-0.11-0.48,0.16-0.68,0.37-0.46
				c6.31,6.83,10.33,8.19,12.51,8.83C106.28,135.07,106.24,135.27,106.16,135.51z M122.3,116.85c-1.32,1.17-3.34,1.26-4.16,2
				c-0.43,0.39-0.62,1-0.16,2.09c0.26,0.63,0.45,0.71-0.46,1c-1.47,0.39-1.67,2.32-3.54,2c-0.75-0.14-0.21,0.34,0.06,0.36
				c0.68,0.14,1.38-0.06,1.87-0.55c0.41-0.48,0.9-0.89,1.45-1.2c0.59-0.23,1.19-0.21,1.2,0.23s-0.74,0.88-1,1
				c0.38,0.2,1.55,0.79,0.55,1.47c-0.78,0.53-1.85-0.2-2-0.29s-0.68-0.07-0.53,0.11c0.58,0.7,2.13,0.52,1.85,0.89
				c-1.43,1.93-0.26,3.05-0.7,5s-3.13,3-5.19,3.41c-7.04,1.22-13.92-4.76-17.93-9.3c0.36-0.86,0.32-2,0-1.58s-0.29,1-1.12,1.21
				c-1.62,0.41-2.31-2.39-2.81-2.88c-2.01-1.73-2.65-4.58-1.56-7c0.51-1.34,2.01-2.01,3.34-1.5c0.52,0.2,0.97,0.56,1.27,1.04
				c1.22,1.8,0.66,2.82,1.35,3.36c0.67,0.44,1.54,0.44,2.21,0c0.74-0.2,0.68,1.75,3.21,1.66c2.72-0.09,2.41-4.32,2.79-4.7
				c3.49-3.4,1.71-6.43,1.08-7.14c-0.17-0.18,0.38-1.43,0.59-1.48c1.71-0.35,3.15-1.53,3.83-3.14c0,0,3.4-0.06,4.61-2.51
				c0.32-0.65,1.32,0.63,3.59-1.15c0.14-0.14,0.37-0.15,0.51-0.01c0.04,0.04,0.07,0.09,0.09,0.14c1.46,3.58,2.07,4.56,2,6.39
				c-0.08,1.33,3.54,8.69,3.8,9.33S122.64,116.55,122.3,116.85z M114.12,103.85c-2,0.07-4.28,2.5-5,2.83s-0.51,0.58,0,0.41
				c1-0.36,2.39-1.86,4.33-2.56c1.53-0.56,1.43,0.7,2,0.63c0.2,0-0.19-1.32-1.33-1.28V103.85z M114.57,105.79
				c-0.17,0,0.17,0.88-0.69,0.94c-1.86,0.11-3.34,1.87-4.47,2.4c-0.48,0.26-1,0.45-1.54,0.57c-0.15,0-0.09,0.23,0,0.25
				c4.75,0.63,6.57,0.46,6.61,0.29c0.08-0.33-0.27-0.49-0.19-0.7c0.21-0.72,0.23-1.49,0.06-2.22c-0.09-0.32,0.7-0.11,0.7-0.55
				c0.03-0.2-0.21-1.02-0.48-0.95V105.79z M113.84,109.54c-0.09,0.37-2.21,0.2-3.37,0.1c-0.27,0-0.73-0.07,0.15-0.59
				c0.87-0.62,1.85-1.07,2.88-1.32c0.16-0.03,0.31,0.06,0.35,0.22c0,0.01,0,0.01,0,0.02c0.11,0.53,0.11,1.07-0.01,1.6V109.54z
				 M120.03,116.29c-0.83,0.22-1.63,0.55-2.37,1c-0.32,0.2-1.8,1.11-1.7-0.33c0-0.51,0.37-1.77,0.36-2.12c0-0.52-0.43-0.31-0.44,0
				c-0.04,0.75-0.15,1.5-0.31,2.23c-0.14,0.53,0.17,1.08,0.71,1.22c0.27,0.07,0.55,0.03,0.78-0.11c0.9-0.59,1.89-1.06,2.92-1.38
				c0.26-0.09,0.3-0.47,0.05-0.48V116.29z M92.55,121.51c-0.28-0.11-0.21,0.47-0.59,0.41s-0.08-0.53-0.72-1.22
				c-0.33-0.34-1.13-0.48-1.73-1.44c-1-1.51-0.14-4.88,1.25-4.4c0.76,0.27,0.63,2.06,0.4,3.27c-0.14,0.74,1,1.11,1.12,0.85
				c0.18-0.44-0.42-0.39-0.56-0.79c-0.22-0.62,1.42-3.12-0.72-3.79c-1.55-0.52-2.58,1.44-2.39,3.61c0.06,1.28,0.87,2.4,2.07,2.85
				c0.94,0.34,0.23,1.63,1.49,1.64C92.73,122.5,92.85,121.62,92.55,121.51z M105.01,80.94c0.06,0.05,0.13,0.05,0.19,0l2.64-3.33
				c0.05-0.08,0.03-0.19-0.05-0.25c-0.01,0-0.01-0.01-0.02-0.01l-0.45-0.18c-0.07-0.02-0.14,0-0.19,0.05l-2.63,3.3
				c-0.06,0.07-0.05,0.17,0.01,0.23c0.02,0.02,0.04,0.03,0.06,0.03L105.01,80.94z M100.12,79.58l0.46,0.09
				c0.08,0.02,0.16-0.02,0.18-0.1l1.55-3.81c0.04-0.09-0.01-0.19-0.09-0.22c-0.01,0-0.02-0.01-0.03-0.01l-0.51-0.11
				c-0.05-0.01-0.1,0.01-0.11,0.06c-0.2,0.49-1.27,3.15-1.57,3.88c-0.03,0.08,0,0.18,0.08,0.21
				C100.09,79.58,100.11,79.58,100.12,79.58z M94.69,79.07h0.46c0.09,0.01,0.16-0.06,0.17-0.15c0,0,0,0,0,0l0.38-4.05
				c0.01-0.09-0.05-0.17-0.14-0.18c-0.01,0-0.01,0-0.02,0h-0.47c-0.08,0-0.15,0.07-0.16,0.15l-0.41,4.03
				c-0.02,0.08,0.02,0.17,0.11,0.2C94.63,79.08,94.66,79.08,94.69,79.07z M89.41,79.47l0.45-0.07c0.09-0.01,0.16-0.1,0.14-0.19
				c0,0,0,0,0-0.01l-0.77-4c-0.01-0.09-0.1-0.15-0.18-0.13c0,0,0,0-0.01,0l-0.46,0.07c-0.09,0.01-0.15,0.1-0.13,0.18c0,0,0,0,0,0.01
				l0.77,4c0.03,0.08,0.11,0.13,0.19,0.12V79.47z M84.02,80.7c0.04,0.07,0.12,0.11,0.2,0.08l0.43-0.15
				c0.09-0.03,0.14-0.13,0.11-0.22c0,0,0-0.01-0.01-0.01l-1.83-3.67c-0.04-0.07-0.12-0.11-0.2-0.08l-0.44,0.16
				c-0.08,0.03-0.13,0.12-0.1,0.2c0,0.01,0.01,0.02,0.01,0.03L84.02,80.7z M79.02,83.03c0.06,0.05,0.14,0.05,0.2,0l0.41-0.22
				c0.07-0.06,0.08-0.17,0.02-0.24c-0.01-0.01-0.01-0.01-0.02-0.02l-2.73-3.11c-0.06-0.05-0.15-0.05-0.21,0l-0.4,0.24
				c-0.07,0.06-0.08,0.17-0.02,0.24c0.01,0.01,0.01,0.01,0.02,0.02L79.02,83.03z M74.3,86.32c0.06,0.04,0.13,0.04,0.19,0l0.37-0.31
				c0.07-0.05,0.09-0.15,0.04-0.22c-0.01-0.01-0.02-0.03-0.04-0.04l-3.45-2.4c-0.06-0.05-0.15-0.05-0.21,0l-0.36,0.32
				c-0.07,0.06-0.08,0.16-0.03,0.22c0.01,0.01,0.02,0.02,0.03,0.03L74.3,86.32z M70.21,90.52c0.07,0.03,0.15,0.01,0.19-0.05
				c0.1-0.12,0.2-0.25,0.31-0.37c0.06-0.07,0.05-0.17-0.01-0.23c-0.02-0.02-0.04-0.03-0.06-0.03l-4-1.55
				c-0.07-0.02-0.14,0-0.19,0.05l-0.3,0.39c-0.05,0.07-0.04,0.17,0.03,0.22c0.01,0.01,0.03,0.02,0.05,0.03L70.21,90.52z M62.7,94.87
				l4.26,0.59c0.07,0.01,0.14-0.02,0.17-0.08l0.24-0.44c0.04-0.09,0-0.19-0.08-0.23c-0.02-0.01-0.03-0.01-0.05-0.01l-4.28-0.63
				c-0.07-0.02-0.14,0.02-0.17,0.09l-0.21,0.43c-0.06,0.07-0.05,0.18,0.02,0.24C62.63,94.86,62.66,94.87,62.7,94.87z M60.37,101.32
				l4.35-0.41c0.07-0.01,0.12-0.06,0.14-0.12l0.15-0.47c0.03-0.09-0.02-0.18-0.11-0.21c-0.02-0.01-0.04-0.01-0.06-0.01l-4.34,0.42
				c-0.07,0.01-0.13,0.05-0.15,0.12l-0.12,0.48c-0.02,0.09,0.03,0.17,0.11,0.2C60.35,101.32,60.36,101.32,60.37,101.32z
				 M63.67,106.49l0.06-0.51c0.01-0.09-0.06-0.18-0.15-0.19c-0.02,0-0.05,0-0.07,0.01l-4.23,1.48c-0.06,0.02-0.11,0.07-0.11,0.14
				v0.5c-0.01,0.09,0.06,0.16,0.15,0.17c0.02,0,0.05,0,0.07-0.01l4.2-1.46C63.64,106.59,63.67,106.55,63.67,106.49z M63.56,112.27
				v-0.53c-0.01-0.09-0.09-0.16-0.18-0.16c-0.03,0-0.05,0.01-0.08,0.03l-3.83,2.52c-0.05,0.04-0.08,0.1-0.07,0.16
				c0,0.17,0,0.34,0.07,0.51c0.01,0.09,0.09,0.15,0.18,0.14c0.03,0,0.05-0.01,0.07-0.03l3.8-2.5
				C63.56,112.38,63.58,112.32,63.56,112.27z M64.5,118.07c0-0.17-0.09-0.35-0.13-0.53c-0.02-0.09-0.1-0.14-0.19-0.12
				c-0.04,0.01-0.07,0.03-0.09,0.05l-3.1,3.4c-0.03,0.05-0.03,0.12,0,0.17l0.18,0.49c0.03,0.09,0.13,0.13,0.22,0.1
				c0.02-0.01,0.04-0.02,0.06-0.04l3.05-3.39C64.51,118.16,64.51,118.11,64.5,118.07z M66.1,123.2l-2.2,4.19
				c-0.03,0.05-0.03,0.11,0,0.16c0.09,0.15,0.18,0.31,0.28,0.46c0.05,0.08,0.15,0.11,0.23,0.06c0.02-0.01,0.04-0.03,0.06-0.06
				l2.17-4.14c0.03-0.05,0.03-0.1,0-0.15l-0.25-0.51c-0.03-0.08-0.13-0.12-0.21-0.08c-0.02,0.01-0.04,0.03-0.06,0.04L66.1,123.2z
				 M69.19,127.9c-0.06-0.07-0.17-0.08-0.24-0.02c-0.02,0.02-0.04,0.05-0.05,0.08l-1.18,4.86c-0.02,0.05-0.02,0.1,0,0.15l0.37,0.42
				c0.06,0.07,0.16,0.08,0.23,0.02c0.03-0.02,0.05-0.06,0.05-0.09l1.16-4.8c0.02-0.04,0.02-0.1,0-0.14L69.19,127.9z"/>
		</g>
		<text transform="matrix(1 0 0 1 565.0505 539.9999)"><tspan x="0" y="0" font-family="'ChollaSansOT-Bold'" font-size="72px">Willkommen und schön, dass  </tspan><tspan x="208.51" y="86.4" font-family="'ChollaSansOT-Bold'" font-size="72px">Du dabei bist!</tspan></text>
		<circle id="si-next" fill="#FF0000" cx="960" cy="820" r="40.08"/>
	</g>
</g>
<g id="guides" display="none">
</g>
</svg>
