<?xml version="1.0" encoding="utf-8"?>
<!-- Generator: Adobe Illustrator 28.2.0, SVG Export Plug-In . SVG Version: 6.00 Build 0)  -->
<svg version="1.1" id="Ebene_8" xmlns="http://www.w3.org/2000/svg" xmlns:xlink="http://www.w3.org/1999/xlink" x="0px" y="0px"
	 viewBox="0 0 275.8 424.1" style="enable-background:new 0 0 275.8 424.1;" xml:space="preserve">
<style type="text/css">
	.st0{fill:none;stroke:#F1B239;stroke-width:6;stroke-miterlimit:10;}
	.st1{fill:#E2A133;}
	.st2{clip-path:url(#SVGID_00000023990660661700918410000015440617718779381903_);}
	.st3{fill:#D19240;}
	.st4{fill:#C78A42;}
	.st5{clip-path:url(#SVGID_00000045586731849785493890000000534747249946580663_);}
	.st6{fill:#F1B239;}
	.st7{clip-path:url(#SVGID_00000031189229472154076990000004661092519843559050_);}
	.st8{fill:#8F6143;}
	.st9{clip-path:url(#SVGID_00000038404356981578520580000014324654692119720065_);}
	.st10{clip-path:url(#SVGID_00000026846007562466062060000007582670913260951713_);}
	.st11{clip-path:url(#SVGID_00000086678229131153975760000004890005897276810629_);}
	.st12{fill:#6C422D;}
	.st13{fill:#392618;}
	.st14{clip-path:url(#SVGID_00000042713201688200747990000015037929259660077745_);}
	.st15{fill:#1D1D1B;}
</style>
<g>
	<path class="st0" d="M18.6,285.6v-58.2c0-14.6,18.9-32.8,18.9-32.8"/>
	<g>
		<path class="st1" d="M155,206.6l-16.2,7.8L127.1,316c0,0,2.5,20.1,2.5,32.8s-8.1,22.6-3.9,28.9s5.3,18,5.3,18l7.8-2.5
			c0,0-3.5-10.9-3.5-18.4s0.7-44.8,4.2-51.9s2.5-9.5,2.5-17.6s14.5-30.4,19.4-50.5S155,206.6,155,206.6L155,206.6z"/>
		<g>
			<defs>
				<path id="SVGID_1_" d="M155,206.6l-16.2,7.8L127.1,316c0,0,2.5,20.1,2.5,32.8s-8.1,22.6-3.9,28.9s5.3,18,5.3,18l7.8-2.5
					c0,0-3.5-10.9-3.5-18.4s0.7-44.8,4.2-51.9s2.5-9.5,2.5-17.6s14.5-30.4,19.4-50.5S155,206.6,155,206.6L155,206.6z"/>
			</defs>
			<clipPath id="SVGID_00000072967013312266253570000008265502148480859825_">
				<use xlink:href="#SVGID_1_"  style="overflow:visible;"/>
			</clipPath>
			<g style="clip-path:url(#SVGID_00000072967013312266253570000008265502148480859825_);">
				<ellipse class="st3" cx="165.7" cy="307" rx="14.6" ry="28.6"/>
				<ellipse class="st3" cx="105.9" cy="302.3" rx="14.6" ry="28.6"/>
				<path class="st3" d="M105.1,338.5c-3.2,0.7-5.2,5.1-3.5,7.8c1.4,2.3,5.4,3,7.8,0.9c1.8-1.6,2.3-4.5,0.9-6.6
					C109.1,338.9,106.9,338.1,105.1,338.5L105.1,338.5z"/>
				<path class="st4" d="M125.6,299c0.7-0.2,1.2,2.4,3.3,2.8c2.9,0.7,5.1-3.8,7.3-3.1c1.6,0.5,2.3,3.3,1.9,5.4
					c-0.9,4.1-7.1,7.5-10.8,5.2C123.2,306.9,124.3,299.3,125.6,299L125.6,299z"/>
				<path class="st3" d="M128.8,288.5c1.8,0.7,4.1-1.4,5.1-3.3c1.2-2.5,0.6-6.1-1.2-6.8"/>
				<path class="st3" d="M191.2,266.3c4.5,5.2-5.2,20.2-8.1,19.4c-1.7-0.5,0.3-6-3.8-12.2c-2.2-3.4-4.8-4.9-4.2-6.6
					c0.5-1.6,3.3-2,5.4-2.2C183,264.3,188.8,263.5,191.2,266.3L191.2,266.3z"/>
				<path class="st4" d="M148.6,253.1c-4.3,0.1-8.1,5.6-7.9,10.6c0.3,5.9,6.2,10.5,8,9.6c1.1-0.5,0-3.1,1.8-5.2c2-2.3,4.9-1.1,6-2.7
					C158.4,262.7,154.3,253.1,148.6,253.1L148.6,253.1z"/>
				<path class="st4" d="M137.1,323.9c-3.1-1.4-11.3-4.9-13.8-1.9c-1.8,2.2,0,7.4,2.8,10.2c5.4,5.3,14.1,2.3,15.2,1.9
					c1.8-0.6,4.3-1.5,4.6-3.2C146.3,327.9,139,324.7,137.1,323.9L137.1,323.9z"/>
			</g>
		</g>
	</g>
	<g>
		<path class="st1" d="M84.7,253.5l-27.5-6.7L29.7,316c0,0,14.3,16.2,14.6,36s3.7,41.6,4.8,41.6s12.4-2.5,12.4-2.5
			s-10.2-32.1-9.9-54.7s2.8-30,11.6-40.2S84.7,253.5,84.7,253.5L84.7,253.5z"/>
		<g>
			<defs>
				<path id="SVGID_00000177479161051770372720000011424710260608552075_" d="M84.7,253.5l-27.5-6.7L29.7,316c0,0,14.3,16.2,14.6,36
					s3.7,41.6,4.8,41.6s12.4-2.5,12.4-2.5s-10.2-32.1-9.9-54.7s2.8-30,11.6-40.2S84.7,253.5,84.7,253.5L84.7,253.5z"/>
			</defs>
			<clipPath id="SVGID_00000155131228977083723390000005932718993414452658_">
				<use xlink:href="#SVGID_00000177479161051770372720000011424710260608552075_"  style="overflow:visible;"/>
			</clipPath>
			<g style="clip-path:url(#SVGID_00000155131228977083723390000005932718993414452658_);">
				<path class="st4" d="M79.7,275.6l-2.8,17.9c0,0-14.4-2.8-10.2-12.8S79.7,275.6,79.7,275.6L79.7,275.6z"/>
				<path class="st4" d="M56.7,323.4c0,0-14.4,2.4-14.4-9.5s17.9-8.1,17.9-8.1L56.7,323.4z"/>
				<path class="st4" d="M38.3,357.1c0,0,8.9-3.5,8.6-12.9s-9.5-6.6-9.5-6.6L38.3,357.1z"/>
			</g>
		</g>
	</g>
	<g>
		<path class="st6" d="M196.8,77.3c11,2.6,26.4-4.8,32.6-5.7s20.8,1.6,24-1.1c3.2-2.6,4.1-7.1,0-14.3s-17.1-3.3-26.5-13.4
			s-30.1-15.7-30.1-15.7C196.8,27.1,185.9,74.7,196.8,77.3z"/>
		<g>
			<defs>
				<path id="SVGID_00000114069306610725670160000007783558202179054489_" d="M196.8,77.3c11,2.6,26.4-4.8,32.6-5.7s20.8,1.6,24-1.1
					c3.2-2.6,4.1-7.1,0-14.3s-17.1-3.3-26.5-13.4s-30.1-15.7-30.1-15.7C196.8,27.1,185.9,74.7,196.8,77.3z"/>
			</defs>
			<clipPath id="SVGID_00000030468220030178419400000011501938134215942295_">
				<use xlink:href="#SVGID_00000114069306610725670160000007783558202179054489_"  style="overflow:visible;"/>
			</clipPath>
			<g style="clip-path:url(#SVGID_00000030468220030178419400000011501938134215942295_);">
				<path class="st3" d="M265.6,69.1l-29.2,19.3c0,0-10.4-19.5-7.3-31.5s8.5-12.9,8.5-12.9C262.3,35.9,265.6,69.1,265.6,69.1z"/>
				<path class="st8" d="M258.7,62.4L258.7,62.4c-6.5,9.5-12.2,6.2-21.6,4.8c-3.1-0.3-6.2,0.5-9.3,1l-4.7,0.8c3-1,6.1-1.8,9.3-2.4
					C243.1,64.3,249.4,73.5,258.7,62.4L258.7,62.4z"/>
				<ellipse class="st8" cx="249.7" cy="58.3" rx="0.9" ry="1.8"/>
			</g>
		</g>
	</g>
	<path class="st6" d="M200.6,31.9l-7.6,1.8c0,0-2.4-13.9-2.4-16.4s5.3-2,6.2-1.2S200.6,31.9,200.6,31.9L200.6,31.9z"/>
	<polygon class="st8" points="183,58.9 176.4,83.7 125.1,165.5 111.7,159.6 176.4,56.8 	"/>
	<path class="st8" d="M189.1,15.8c0.2-0.4-1.6-2.5-1.2-2.8c0.3-0.3,2.3,1.6,2.8,1.4c0.4-0.2-0.2-2.9,0.3-3.1
		c0.5-0.1,1.6,2.4,2.1,2.3c0.5-0.1,0.8-2.8,1.3-2.8c0.5,0,0.8,2.7,1.3,2.8c0.5,0.1,1.6-2.5,2.1-2.3c0.5,0.2-0.1,2.8,0.3,3.1
		c0.5,0.2,2.4-1.7,2.8-1.4c0.4,0.4-1.4,2.4-1.2,2.8c0.2,0.4,2.9,0.3,2.9,0.8s-2.7,0.3-2.9,0.8c-0.2,0.4,1.6,2.5,1.2,2.8
		c-0.3,0.3-2.3-1.6-2.8-1.4c-0.4,0.2,0.2,2.9-0.3,3.1c-0.5,0.1-1.6-2.4-2.1-2.3c-0.5,0.1-0.8,2.8-1.3,2.8c-0.5,0-0.8-2.7-1.3-2.8
		c-0.5-0.1-1.6,2.5-2.1,2.3c-0.5-0.2,0.1-2.9-0.3-3.1c-0.5-0.2-2.4,1.7-2.8,1.4c-0.4-0.4,1.4-2.4,1.2-2.8c-0.2-0.4-2.9-0.3-2.9-0.8
		C186.2,16.1,188.9,16.2,189.1,15.8z"/>
	<path class="st6" d="M196.9,44.8c0,0-4.6-3.9-11.1-2.9s-18-2.2-18-2.2c-7.2-2.5-8.7-15.1-8.7-15.1s8.7-5.6,23.1-0.7
		c14.3,4.9,15.5,15.8,15.5,15.8"/>
	<g>
		<path class="st6" d="M209.3,66L183,58.9c0,0-73.4,118.6-87,122.4s-56.5-14.6-70.6,27.5s39.5,62.9,65.9,63.4s65.9-23.5,70.6-38.1
			s0-38.1,0-46.1C161.8,179.9,209.3,66,209.3,66L209.3,66z"/>
		<g>
			<defs>
				<path id="SVGID_00000160893448478365670140000002747574473068789395_" d="M209.3,66L183,58.9c0,0-73.4,118.6-87,122.4
					s-56.5-14.6-70.6,27.5s39.5,62.9,65.9,63.4s65.9-23.5,70.6-38.1s0-38.1,0-46.1C161.8,179.9,209.3,66,209.3,66L209.3,66z"/>
			</defs>
			<clipPath id="SVGID_00000094579477663852842570000004073986304026953873_">
				<use xlink:href="#SVGID_00000160893448478365670140000002747574473068789395_"  style="overflow:visible;"/>
			</clipPath>
			<g style="clip-path:url(#SVGID_00000094579477663852842570000004073986304026953873_);">
				<ellipse class="st3" cx="167.9" cy="85.4" rx="14.6" ry="28.6"/>
				<ellipse class="st3" cx="163.8" cy="165.5" rx="14.6" ry="28.6"/>
				<ellipse class="st3" cx="104" cy="160.8" rx="14.6" ry="28.6"/>
				<ellipse class="st3" cx="101.6" cy="285.3" rx="14.6" ry="28.6"/>
				
					<ellipse transform="matrix(0.2294 -0.9733 0.9733 0.2294 -134.6687 177.9117)" class="st3" cx="45" cy="174" rx="28.6" ry="30.7"/>
				<path class="st3" d="M191.3,91.9c2.4,0.9,3.6,5.5,1.8,8.5c-1.6,2.7-5.5,4-7.4,2.7c-2.3-1.6-1.7-6.7,0.9-9.3
					C186.7,93.5,189.2,91.1,191.3,91.9L191.3,91.9z"/>
				<path class="st3" d="M103.2,197.1c-3.2,0.7-5.2,5.1-3.5,7.8c1.4,2.3,5.4,3,7.8,0.9c1.8-1.6,2.3-4.5,0.9-6.6
					C107.2,197.4,105,196.6,103.2,197.1L103.2,197.1z"/>
				<path class="st3" d="M167.2,219.9c-2.7,0.9-10.7-7.3-8.5-15.5c1-3.6,4.1-7.8,6.3-7.3C169.7,198.1,170.9,218.7,167.2,219.9z"/>
				<path class="st3" d="M123.7,157.5c0.7-0.2,1.2,2.4,3.3,2.8c2.9,0.7,5.1-3.8,7.3-3.1c1.6,0.5,2.3,3.3,1.9,5.4
					c-0.9,4.1-7.1,7.5-10.8,5.2C121.4,165.4,122.5,157.9,123.7,157.5L123.7,157.5z"/>
				<path class="st3" d="M130.9,136.9c-1.9-0.7-4.9,1.6-5.6,4.5c-0.5,2,0,5,1.8,5.6c1.8,0.7,4.1-1.4,5.1-3.3
					C133.2,141.3,132.6,137.7,130.9,136.9L130.9,136.9z"/>
				<path class="st3" d="M189.3,124.8c4.5,5.2-5.2,20.2-8.1,19.4c-1.7-0.5,0.3-6-3.8-12.2c-2.2-3.4-4.8-4.9-4.2-6.6
					c0.5-1.6,3.3-2,5.4-2.2C181.1,122.8,186.9,122.1,189.3,124.8L189.3,124.8z"/>
				<path class="st3" d="M138.9,122.2c0.3,5.9,6.2,10.5,8,9.7c1.1-0.5-0.1-3.1,1.8-5.2c2-2.3,4.9-1.1,6-2.7c2-2.8-2.1-12.4-7.9-12.3
					C142.4,111.7,138.6,117.3,138.9,122.2z"/>
				<path class="st3" d="M135.2,182.4c-3.1-1.4-11.3-4.9-13.8-1.9c-1.8,2.2,0,7.4,2.8,10.2c5.3,5.3,14.1,2.3,15.2,1.9
					c1.8-0.6,4.3-1.5,4.6-3.2C144.5,186.5,137.1,183.3,135.2,182.4L135.2,182.4z"/>
				<path class="st3" d="M81.6,197.2c-3.5-1.8-8.2,2.1-10.2,5.2c-2.7,4-3.6,10.8,0,13.8c2.9,2.4,8.1,1.8,8.9,0
					c0.9-2-3.9-4.9-2.9-7.2c0.9-2.1,5.2-0.8,6.8-3.3C85.7,203.3,84.4,198.6,81.6,197.2L81.6,197.2z"/>
				<path class="st3" d="M102.6,228.4c1.8-0.1,3.6,5.1,4.2,8.1c1,4.7,0.8,11.1-1.1,11.5c-1.8,0.4-5.1-4.3-5.9-9.1
					C99.1,234,100.8,228.5,102.6,228.4L102.6,228.4z"/>
			</g>
		</g>
	</g>
	<g>
		<path class="st6" d="M145.1,220.4c-2.2-5.1-6.4-6-20.6,0s-11.5,14.1-4.1,85.1c-4.9,12.4-3.5,19.1-2.5,27.2s0.7,32.5-1.8,43.4
			s-3.9,9.2,0,14.5c3.9,5.3,3.5,13.1,3.5,13.1l8.8-1.8c0,0-3.5-9.2-2.5-19.1s-0.3-38.8,0-43.4s0.7-6,4.9-12s0.7-8.8,0-15.2
			s15.2-33.5,20.5-50.8S145.1,220.4,145.1,220.4L145.1,220.4z"/>
		<g>
			<defs>
				<path id="SVGID_00000123421661745302933630000008405197184840647595_" d="M145.1,220.4c-2.2-5.1-6.4-6-20.6,0
					s-11.5,14.1-4.1,85.1c-4.9,12.4-3.5,19.1-2.5,27.2s0.7,32.5-1.8,43.4s-3.9,9.2,0,14.5c3.9,5.3,3.5,13.1,3.5,13.1l8.8-1.8
					c0,0-3.5-9.2-2.5-19.1s-0.3-38.8,0-43.4s0.7-6,4.9-12s0.7-8.8,0-15.2s15.2-33.5,20.5-50.8S145.1,220.4,145.1,220.4L145.1,220.4z
					"/>
			</defs>
			<clipPath id="SVGID_00000057871020102505413850000002364118851795882660_">
				<use xlink:href="#SVGID_00000123421661745302933630000008405197184840647595_"  style="overflow:visible;"/>
			</clipPath>
			<g style="clip-path:url(#SVGID_00000057871020102505413850000002364118851795882660_);">
				
					<ellipse transform="matrix(0.9899 -0.1416 0.1416 0.9899 -34.6477 17.7828)" class="st3" cx="107.6" cy="252.4" rx="14.7" ry="28.6"/>
				
					<ellipse transform="matrix(0.9899 -0.1416 0.1416 0.9899 -33.4924 26.2734)" class="st3" cx="167.9" cy="248.5" rx="14.7" ry="28.6"/>
				<path class="st3" d="M163.6,212.5c3.1-1.2,4.5-5.8,2.4-8.2c-1.8-2.1-5.8-2.2-7.9,0.2c-1.6,1.8-1.7,4.8,0,6.7
					C159.5,212.7,161.8,213.2,163.6,212.5L163.6,212.5z"/>
				<path class="st3" d="M148.8,254.6c-0.7,0.3-1.6-2.2-3.7-2.3c-3-0.2-4.5,4.5-6.8,4.1c-1.6-0.3-2.8-3-2.6-5.1
					c0.3-4.2,6-8.4,10.1-6.7C150,246.4,149.9,254,148.8,254.6L148.8,254.6z"/>
				<path class="st3" d="M147,265.4c-1.9-0.4-3.9,1.9-4.6,4c-0.8,2.6,0.2,6.1,2.1,6.6"/>
				<path class="st3" d="M88,296.3c-5.2-4.5,2.3-20.7,5.3-20.4c1.8,0.2,0.6,5.9,5.5,11.6c2.7,3.1,5.5,4.2,5.1,5.9
					c-0.3,1.6-3,2.4-5.1,3C96.4,297.1,90.7,298.7,88,296.3L88,296.3z"/>
				<path class="st3" d="M132.3,303.3c4.3-0.7,7.3-6.8,6.4-11.6c-1.1-5.8-7.7-9.5-9.3-8.4c-1.1,0.7,0.5,3-1,5.4
					c-1.6,2.5-4.7,1.8-5.6,3.5C121.1,295.2,126.6,304.1,132.3,303.3L132.3,303.3z"/>
				<path class="st3" d="M133.7,231.6c3.3,0.9,11.9,3.3,14,0c1.5-2.5-1-7.3-4.3-9.7c-6.1-4.5-14.3-0.3-15.4,0.2
					c-1.7,0.9-4.1,2.1-4.1,3.8C123.9,228.9,131.7,231,133.7,231.6L133.7,231.6z"/>
			</g>
		</g>
	</g>
	<g>
		<path class="st6" d="M36.4,202.7c-30.3,8.5-9.3,86.6-10,94.7s-9.7,16.9-11.1,21.8s-1.4,7.1,3.5,12s10.9,37.6,11,48
			c0.1,20.8,2.1,21.5,2.1,21.5l11.6-2.5c0,0-15.9-59.3-13.4-72S62.8,280,66.4,244S36.4,202.7,36.4,202.7L36.4,202.7z"/>
		<g>
			<defs>
				<path id="SVGID_00000010295276831351182150000010730457701727440298_" d="M36.4,202.7c-30.3,8.5-9.3,86.6-10,94.7
					s-9.7,16.9-11.1,21.8s-1.4,7.1,3.5,12s10.9,37.6,11,48c0.1,20.8,2.1,21.5,2.1,21.5l11.6-2.5c0,0-15.9-59.3-13.4-72
					S62.8,280,66.4,244S36.4,202.7,36.4,202.7L36.4,202.7z"/>
			</defs>
			<clipPath id="SVGID_00000088854444839247394990000013115159723999298971_">
				<use xlink:href="#SVGID_00000010295276831351182150000010730457701727440298_"  style="overflow:visible;"/>
			</clipPath>
			<g style="clip-path:url(#SVGID_00000088854444839247394990000013115159723999298971_);">
				<ellipse class="st3" cx="68.3" cy="235.5" rx="28.6" ry="14.6"/>
				<ellipse class="st3" cx="63.6" cy="295.3" rx="28.6" ry="14.6"/>
				<path class="st3" d="M99.8,296.1c0.7,3.2,5.1,5.2,7.8,3.5c2.3-1.4,3-5.4,0.9-7.8c-1.6-1.8-4.5-2.3-6.6-0.9
					C100.2,292.1,99.4,294.3,99.8,296.1L99.8,296.1z"/>
				<path class="st3" d="M60.3,275.6c-0.2-0.7,2.4-1.2,2.8-3.3c0.7-2.9-3.8-5.1-3.1-7.3c0.5-1.6,3.3-2.3,5.4-1.9
					c4.1,0.9,7.5,7.1,5.2,10.8C68.2,278,60.6,276.9,60.3,275.6L60.3,275.6z"/>
				<path class="st3" d="M49.8,272.4c-1.9,3.3-6.3,3.2-8.8,0.6s-1.4-4.5-1.4-4.5c0.7-1.8,4.3-2.4,6.8-1.2
					C48.4,268.2,51.7,269.1,49.8,272.4L49.8,272.4z"/>
				<path class="st3" d="M24.2,317.7c-1.9,3.3-6.3,3.2-8.7,0.6s-1.4-4.5-1.4-4.5c0.7-1.8,4.3-2.4,6.8-1.2
					C22.8,313.6,26.1,314.4,24.2,317.7L24.2,317.7z"/>
				<path class="st3" d="M27.6,210c5.2-4.5,20.2,5.1,19.4,8.1c-0.5,1.7-6-0.3-12.2,3.8c-3.4,2.2-4.9,4.8-6.6,4.2
					c-1.6-0.5-2-3.3-2.2-5.4C25.6,218.2,24.8,212.4,27.6,210L27.6,210z"/>
				<path class="st3" d="M22.6,345.5c5.2-4.5,20.2,5.1,19.4,8.1c-0.5,1.7-6-0.3-12.2,3.8c-3.4,2.2-4.9,4.8-6.6,4.2
					c-1.6-0.5-2-3.3-2.2-5.4C20.6,353.8,19.9,348,22.6,345.5L22.6,345.5z"/>
				<path class="st3" d="M14.4,252.6c0.1,4.3,5.6,8.1,10.6,7.9c5.9-0.3,10.5-6.2,9.6-8c-0.5-1.1-3.1,0.1-5.2-1.8
					c-2.3-2-1.1-4.9-2.7-6C24,242.7,14.3,246.8,14.4,252.6L14.4,252.6z"/>
				<path class="st3" d="M85.2,264.1c-1.4,3.1-4.9,11.3-1.9,13.8c2.2,1.9,7.4,0,10.2-2.8c5.3-5.4,2.3-14.1,1.9-15.2
					c-0.6-1.8-1.5-4.3-3.2-4.6C89.2,254.8,86,262.2,85.2,264.1L85.2,264.1z"/>
			</g>
		</g>
	</g>
	<path class="st12" d="M21.1,291.3c0,0-2.3,9.8-2.4,12.6s1.7,5.2,0.1,4.9s-1.9-3.9-2.6-2.7c-0.7,1.2,1.4,7.8,1.4,7.8
		s-3.7-1.8-5.6-4.1s-0.8-12-0.8-12s-1.8,1.5-2.8,0.8s2.2-2,3.9-6.3s2-12.3,3.9-13.1s5.5,0.5,7,5.3s-0.7,9.3-0.9,10.3
		s-0.8-0.4-0.8-1.7S21.1,291.3,21.1,291.3L21.1,291.3z"/>
	<path class="st13" d="M129.3,396.6c0.9,4.4,14.2,3.5,14.2,3.5s-2.9-7.4-3.6-8.7C139.2,390.1,128.4,392.2,129.3,396.6z"/>
	<path class="st13" d="M119.1,403.4c0.9,4.4,14.2,3.5,14.2,3.5s-2.9-7.4-3.6-8.7C129,396.9,118.1,399,119.1,403.4z"/>
	<path class="st13" d="M48.1,394.6c1.1,4.4,17.2,3.5,17.2,3.5s-3.5-7.4-4.4-8.7C60.1,388.2,47,390.3,48.1,394.6z"/>
	<path class="st13" d="M29.7,399.5c1.1,5.7,17.2,4.6,17.2,4.6s-3.5-9.7-4.4-11.4C41.7,391,28.6,393.8,29.7,399.5z"/>
	<g>
		<path class="st6" d="M196.8,27.9c13.6,0,24.7,11.1,24.7,24.7s-11.1,24.7-24.7,24.7s-21.9-13.6-21.9-27.2
			C174.9,36.4,183.2,27.9,196.8,27.9z"/>
		<g>
			<defs>
				<path id="SVGID_00000156588547418087172840000001365088979830172302_" d="M196.8,27.9c13.6,0,24.7,11.1,24.7,24.7
					s-11.1,24.7-24.7,24.7s-21.9-13.6-21.9-27.2C174.9,36.4,183.2,27.9,196.8,27.9z"/>
			</defs>
			<clipPath id="SVGID_00000003810830100827251190000005323427494020383373_">
				<use xlink:href="#SVGID_00000156588547418087172840000001365088979830172302_"  style="overflow:visible;"/>
			</clipPath>
			<g style="clip-path:url(#SVGID_00000003810830100827251190000005323427494020383373_);">
				<path class="st3" d="M204.2,74.2c-0.5,0.2-1-1.2-3.1-2c-2.4-0.9-3.9,0.3-6.1,0.1c-3.7-0.3-7.6-4.3-7.1-6.9
					c0.5-3,6.8-5.4,11.3-3.4C205.2,64.6,205.3,73.7,204.2,74.2L204.2,74.2z"/>
				<path class="st3" d="M167.7,60.1c-0.5-0.8,1.9-2,2.8-5.5c1.1-4.2-1.3-6.5-1.4-10.3c-0.2-6.2,5.7-13.6,10.2-13.3
					c5.1,0.3,10.5,10.3,8,18.3C184.1,59.9,168.8,61.9,167.7,60.1L167.7,60.1z"/>
				<path class="st3" d="M204.7,28c3,2.5,1.6,9.8-2.5,11.4c-1.9,0.7-4.2,0.2-5.7-1.2c-2.6-2.5-2-7.8,1.2-10.1
					C199.8,26.7,202.9,26.5,204.7,28z"/>
			</g>
		</g>
	</g>
	<path class="st8" d="M182.4,40.3c-6.8,0-24.9-2.9-19.7-14.8c6.6-8.1,20.8,4.8,25.4,10s6,5.6,6,5.6S189.2,40.3,182.4,40.3z"/>
	<circle class="st15" cx="209" cy="43.9" r="5.1"/>
	<path class="st6" d="M201.9,45.2c0,1.6,7.1-6.1,13.6-3c-0.9-4.3-6.6-5.4-6.6-5.4C200.9,37.9,201.9,43.6,201.9,45.2z"/>
</g>
</svg>
