<?xml version="1.0" encoding="UTF-8"?><svg id="b" xmlns="http://www.w3.org/2000/svg" xmlns:xlink="http://www.w3.org/1999/xlink" viewBox="0 0 74.64 114.92"><defs><mask id="e" x="33.16" y="56.8" width="16.73" height="54.86" maskUnits="userSpaceOnUse"><g id="f"><path d="m42.56,56.8s3.27,8.19,1.84,14.02c-1.43,5.83-5.63,12.28-5.63,14.64s.31,3.07-.72,5.12-1.23,12.9-1.23,15.05,1.02,5.32,1.02,5.32l-2.25.72s-.31-3.38-1.53-5.22c-1.23-1.84,1.13-4.71,1.13-8.39s-.72-9.52-.72-9.52l3.38-29.48,4.71-2.25h0Z" fill="#fff"/></g></mask><mask id="g" x="6.23" y="68.47" width="15.97" height="42.58" maskUnits="userSpaceOnUse"><g id="h"><path d="m22.19,70.41s-3.69,9.42-6.24,12.39-3.27,5.12-3.38,11.67c-.1,6.55,2.87,15.87,2.87,15.87,0,0-3.27.72-3.58.72s-1.28-6.35-1.38-12.08c-.1-5.73-4.25-10.44-4.25-10.44l7.98-20.06,7.98,1.95h0Z" fill="#fff"/></g></mask><mask id="i" x="53.29" y="4.75" width="21.34" height="17.76" maskUnits="userSpaceOnUse"><g id="j"><path d="m54.71,4.75s6.02,1.64,8.74,4.56c2.71,2.92,6.5,1.79,7.68,3.89,1.18,2.1.92,3.38,0,4.14-.92.77-5.17.05-6.96.31-1.79.26-6.27,2.4-9.45,1.66-3.18-.75,0-14.55,0-14.55Z" fill="#fff"/></g></mask><mask id="k" x="1.79" y="13.36" width="56.54" height="74.56" maskUnits="userSpaceOnUse"><g id="l"><path d="m58.33,16.02s-13.79,33.03-13.79,35.35c0,2.32,1.36,9.14,0,13.38-1.36,4.23-12.82,11.19-20.47,11.06-7.64-.14-23.2-6.18-19.11-18.37,4.1-12.2,16.51-6.87,20.47-7.97,3.96-1.09,25.24-35.49,25.24-35.49l7.64,2.05h0Z" fill="#fff"/></g></mask><mask id="m" x="24.46" y="59.58" width="26.22" height="54.34" maskUnits="userSpaceOnUse"><g id="n"><path d="m39.7,60.79s3.38,6.86,1.84,11.87c-1.54,5.01-6.14,12.9-5.94,14.74.21,1.84,1.22,2.66,0,4.4-1.22,1.74-1.33,2.15-1.43,3.48-.1,1.33.31,9.72,0,12.59-.31,2.87.72,5.53.72,5.53l-2.56.51s.11-2.25-1.02-3.79c-1.13-1.54-.71-1.02,0-4.2.71-3.17.81-10.24.51-12.59-.31-2.36-.72-4.3.72-7.88-2.15-20.57-2.96-22.93,1.18-24.67,4.14-1.74,5.35-1.48,5.99,0h0Z" fill="#fff"/></g></mask><mask id="o" x="1.64" y="55.67" width="24.07" height="57.43" maskUnits="userSpaceOnUse"><g id="p"><path d="m8.17,55.67s9.72,1.53,8.7,11.98c-1.02,10.44-9.83,20.17-10.54,23.85-.72,3.69,3.89,20.87,3.89,20.87l-3.38.73s-.58-.2-.6-6.24c0-3.02-1.75-12.49-3.18-13.92-1.44-1.43-1.43-2.05-1.02-3.48.41-1.43,3.03-3.97,3.23-6.32.2-2.35-5.9-25,2.91-27.46h0Z" fill="#fff"/></g></mask><mask id="q" x="46.25" y="4.7" width="15.63" height="14.6" maskUnits="userSpaceOnUse"><g id="r"><path d="m48.35,11.4c0,3.96,2.41,7.9,6.36,7.9s7.17-3.21,7.17-7.17-3.21-7.17-7.17-7.17-6.36,2.47-6.36,6.43Z" fill="#fff"/></g></mask></defs><g id="c"><g id="d"><g><path d="m8.48,53.32s-5.48,5.27-5.48,9.52v16.89" fill="none" stroke="#f1b239" stroke-miterlimit="10" stroke-width="6"/><path d="m42.56,56.8s3.27,8.19,1.84,14.02c-1.43,5.83-5.63,12.28-5.63,14.64s.31,3.07-.72,5.12-1.23,12.9-1.23,15.05,1.02,5.32,1.02,5.32l-2.25.72s-.31-3.38-1.53-5.22c-1.23-1.84,1.13-4.71,1.13-8.39s-.72-9.52-.72-9.52l3.38-29.48,4.71-2.25h0Z" fill="#e2a133"/><g mask="url(#e)"><g><path d="m45.67,94.2c-2.34,0-4.23-3.71-4.23-8.29s1.89-8.29,4.23-8.29,4.23,3.71,4.23,8.29-1.89,8.29-4.23,8.29Z" fill="#d19240"/><path d="m34.03,83.59c-.35.1-.67,2.29.48,3,1.08.67,2.88-.3,3.14-1.5.13-.6-.1-1.42-.55-1.57-.64-.21-1.27,1.08-2.11.89-.6-.14-.74-.88-.95-.82h0Z" fill="#c78a42"/><path d="m36.11,77.63c.52.21.68,1.26.34,1.98-.26.56-.94,1.15-1.47.95" fill="#d19240"/><path d="m40.72,70.29c1.66-.02,2.85,2.78,2.29,3.58-.33.47-1.17.12-1.74.79-.53.61-.18,1.35-.51,1.5-.51.24-2.24-1.08-2.32-2.8-.06-1.43,1.03-3.06,2.29-3.07Z" fill="#c78a42"/><path d="m37.37,90.81c.56.25,2.69,1.17,2.56,2.05-.07.49-.82.75-1.33.92-.32.11-2.85.98-4.4-.56-.83-.83-1.35-2.33-.82-2.97.72-.87,3.09.17,3.99.56h0Z" fill="#c78a42"/></g></g><path d="m22.19,70.41s-3.69,9.42-6.24,12.39-3.27,5.12-3.38,11.67c-.1,6.55,2.87,15.87,2.87,15.87,0,0-3.27.72-3.58.72s-1.28-6.35-1.38-12.08c-.1-5.73-4.25-10.44-4.25-10.44l7.98-20.06,7.98,1.95h0Z" fill="#e2a133"/><g mask="url(#g)"><g><path d="m20.73,76.83s-2.58-1.39-3.78,1.49c-1.2,2.88,2.96,3.7,2.96,3.7l.82-5.19Z" fill="#c78a42"/><path d="m15.06,85.56s-5.19-1.09-5.19,2.36,4.17,2.76,4.17,2.76l1.01-5.12Z" fill="#c78a42"/><path d="m8.48,94.77s2.67-.82,2.75,1.91c.08,2.73-2.5,3.75-2.5,3.75l-.25-5.66Z" fill="#c78a42"/></g></g><path d="m54.71,4.75s6.02,1.64,8.74,4.56c2.71,2.92,6.5,1.79,7.68,3.89,1.18,2.1.92,3.38,0,4.14-.92.77-5.17.05-6.96.31-1.79.26-6.27,2.4-9.45,1.66-3.18-.75,0-14.55,0-14.55Z" fill="#f1b239"/><g mask="url(#i)"><g><path d="m66.52,9.61s-1.57.27-2.46,3.75c-.89,3.48,2.11,9.14,2.11,9.14l8.46-5.59s-.95-9.62-8.12-7.3Z" fill="#d19240"/><path d="m72.66,14.98c-2.71,3.22-4.54.56-7.65,1.25-.91.19-1.8.41-2.69.7l1.36-.25c.9-.14,1.8-.39,2.71-.3,2.72.4,4.38,1.34,6.27-1.4h0Z" fill="#8f6143"/><path d="m70.04,14.3c-.15,0-.26-.23-.26-.51s.12-.51.26-.51.26.23.26.51-.12.51-.26.51Z" fill="#8f6143"/></g></g><path d="m55.8,6.13s-.82-4.33-1.09-4.57c-.27-.24-1.81-.37-1.81.34s.68,4.74.68,4.74l2.22-.51h0Z" fill="#f1b239"/><path d="m48.77,13.36l-18.76,29.82,3.89,1.71,14.88-23.75,1.91-7.17-1.91-.61Z" fill="#8f6143"/><path d="m51.62,1.68c0,.15.78.1.85.23.06.12-.46.71-.34.81.1.09.67-.47.8-.4.12.06-.04.84.1.89.13.04.45-.69.59-.67.14.02.23.81.38.81s.24-.79.38-.81c.15-.02.46.71.6.67.15-.04-.02-.82.1-.89.13-.07.7.49.8.4.11-.1-.41-.69-.34-.81.07-.13.85-.09.85-.23s-.78-.1-.85-.23c-.06-.12.46-.71.34-.81-.1-.09-.67.47-.8.4-.12-.06.04-.84-.1-.89-.13-.04-.45.69-.59.67-.14-.02-.23-.81-.38-.81s-.24.79-.38.81c-.15.02-.46-.71-.6-.67-.14.04.02.82-.1.89-.13.07-.7-.49-.8-.4-.11.1.41.69.34.81-.07.13-.85.09-.85.23Z" fill="#8f6143"/><path d="m54.95,8.38s-.34-3.14-4.5-4.57c-4.16-1.43-6.69.19-6.69.19,0,0,.44,3.66,2.53,4.38,0,0,3.34.93,5.22.65,1.89-.28,3.21.85,3.21.85" fill="#f1b239"/><path d="m58.33,16.02s-13.79,33.03-13.79,35.35c0,2.32,1.36,9.14,0,13.38-1.36,4.23-12.82,11.19-20.47,11.06-7.64-.14-23.2-6.18-19.11-18.37,4.1-12.2,16.51-6.87,20.47-7.97,3.96-1.09,25.24-35.49,25.24-35.49l7.64,2.05h0Z" fill="#f1b239"/><g mask="url(#k)"><g><path d="m46.31,29.93c-2.34,0-4.23-3.71-4.23-8.29s1.89-8.29,4.23-8.29,4.23,3.71,4.23,8.29-1.89,8.29-4.23,8.29Z" fill="#d19240"/><path d="m45.13,53.18c-2.34,0-4.23-3.71-4.23-8.29s1.89-8.29,4.23-8.29,4.23,3.71,4.23,8.29-1.89,8.29-4.23,8.29Z" fill="#d19240"/><path d="m27.79,51.81c-2.34,0-4.23-3.71-4.23-8.29s1.89-8.29,4.23-8.29,4.23,3.71,4.23,8.29-1.89,8.29-4.23,8.29Z" fill="#d19240"/><path d="m27.08,87.92c-2.34,0-4.23-3.71-4.23-8.29s1.89-8.29,4.23-8.29,4.23,3.71,4.23,8.29-1.89,8.29-4.23,8.29Z" fill="#d19240"/><path d="m8.77,55.41c-4.79-1.13-7.83-5.66-6.78-10.11,1.05-4.45,5.79-7.15,10.58-6.02,4.79,1.13,7.83,5.66,6.78,10.11-1.05,4.45-5.79,7.15-10.58,6.02Z" fill="#d19240"/><path d="m53.11,23.53c-.63-.23-1.34.47-1.38.51-.76.76-.91,2.26-.26,2.71.56.39,1.68,0,2.15-.77.53-.87.2-2.2-.51-2.46h0Z" fill="#d19240"/><path d="m27.55,54.03c.53-.12,1.17.1,1.5.61.4.61.24,1.45-.27,1.91-.68.6-1.83.4-2.25-.27-.48-.78.1-2.04,1.02-2.25h0Z" fill="#d19240"/><path d="m45.5,54.03c-.66-.15-1.56,1.07-1.84,2.11-.64,2.38,1.68,4.75,2.46,4.5,1.08-.35.72-6.31-.61-6.62Z" fill="#d19240"/><path d="m33.49,42.57c-.35.1-.67,2.29.48,3,1.08.67,2.88-.3,3.14-1.5.13-.6-.1-1.42-.55-1.57-.64-.21-1.27,1.08-2.11.89-.6-.14-.74-.88-.95-.82h0Z" fill="#d19240"/><path d="m35.57,36.6c.52.21.68,1.26.34,1.98-.26.56-.94,1.15-1.47.95-.52-.19-.66-1.05-.51-1.64.21-.82,1.1-1.51,1.64-1.3h0Z" fill="#d19240"/><path d="m52.53,33.08c-.7-.8-2.39-.57-3.11-.48-.61.08-1.42.19-1.57.65-.17.5.59.93,1.23,1.91,1.18,1.82.59,3.42,1.09,3.55.86.23,3.66-4.13,2.35-5.63h0Z" fill="#d19240"/><path d="m40.18,29.26c1.66-.02,2.85,2.78,2.29,3.58-.33.47-1.17.12-1.74.79-.52.61-.18,1.35-.51,1.5-.51.24-2.24-1.08-2.32-2.8-.06-1.43,1.03-3.06,2.29-3.07Z" fill="#d19240"/><path d="m36.83,49.78c.56.25,2.69,1.17,2.56,2.05-.07.49-.82.75-1.33.92-.32.11-2.85.98-4.4-.56-.83-.83-1.35-2.33-.82-2.97.72-.87,3.09.17,3.99.56h0Z" fill="#d19240"/><path d="m21.27,54.07c.82.41,1.2,1.78.75,2.46-.48.73-1.73.35-1.98.95-.28.67,1.11,1.5.85,2.08-.23.53-1.75.69-2.59,0-1.04-.86-.78-2.82,0-3.99.59-.89,1.95-2.01,2.97-1.5h0Z" fill="#d19240"/><path d="m27.38,63.11c-.52.04-1.02,1.65-.79,3.07.23,1.39,1.19,2.76,1.71,2.63.55-.14.6-1.99.31-3.34-.19-.88-.71-2.39-1.23-2.36h0Z" fill="#d19240"/></g></g><path d="m39.7,60.79s3.38,6.86,1.84,11.87c-1.54,5.01-6.14,12.9-5.94,14.74.21,1.84,1.22,2.66,0,4.4-1.22,1.74-1.33,2.15-1.43,3.48-.1,1.33.31,9.72,0,12.59-.31,2.87.72,5.53.72,5.53l-2.56.51s.11-2.25-1.02-3.79c-1.13-1.54-.71-1.02,0-4.2.71-3.17.81-10.24.51-12.59-.31-2.36-.72-4.3.72-7.88-2.15-20.57-2.96-22.93,1.18-24.67,4.14-1.74,5.35-1.48,5.99,0h0Z" fill="#f1b239"/><g mask="url(#m)"><g><path d="m24.62,70.67c-.65-4.53.71-8.47,3.04-8.81,2.33-.33,4.74,3.07,5.39,7.6.65,4.53-.71,8.47-3.04,8.81-2.33.33-4.74-3.07-5.39-7.6Z" fill="#d19240"/><path d="m42.09,69.55c-.65-4.53.71-8.47,3.04-8.81,2.33-.33,4.74,3.07,5.39,7.6.65,4.53-.71,8.47-3.04,8.81-2.33.33-4.74-3.07-5.39-7.6Z" fill="#d19240"/><path d="m40.76,70.71c.34-.15.35-2.36-.9-2.9-1.17-.51-2.83.71-2.92,1.93-.04.62.3,1.4.77,1.48.67.12,1.11-1.25,1.98-1.18.61.05.86.77,1.07.68h0Z" fill="#d19240"/><path d="m39.53,76.91c-.55-.13-.86-1.15-.62-1.91.18-.59.77-1.27,1.33-1.15" fill="#d19240"/><path d="m35.98,84.83c-1.66.26-3.24-2.35-2.79-3.22.26-.51,1.15-.29,1.62-1.02.44-.68,0-1.36.3-1.56.47-.31,2.39.75,2.71,2.44.27,1.41-.59,3.17-1.84,3.37h0Z" fill="#d19240"/><path d="m36.41,64.04c-.59-.16-2.85-.78-2.84-1.66,0-.49.71-.86,1.19-1.1.31-.16,2.7-1.38,4.47-.07.95.7,1.68,2.11,1.24,2.82-.6.96-3.1.28-4.06.01h0Z" fill="#d19240"/></g></g><path d="m8.17,55.67s9.72,1.53,8.7,11.98c-1.02,10.44-9.83,20.17-10.54,23.85-.72,3.69,3.89,20.87,3.89,20.87l-3.38.73s-.58-.2-.6-6.24c0-3.02-1.75-12.49-3.18-13.92-1.44-1.43-1.43-2.05-1.02-3.48.41-1.43,3.03-3.97,3.23-6.32.2-2.35-5.9-25,2.91-27.46h0Z" fill="#f1b239"/><g mask="url(#o)"><g><path d="m17.42,69.41c-4.58,0-8.29-1.89-8.29-4.23s3.71-4.23,8.29-4.23,8.29,1.89,8.29,4.23-3.71,4.23-8.29,4.23Z" fill="#d19240"/><path d="m16.06,86.75c-4.58,0-8.29-1.89-8.29-4.23s3.71-4.23,8.29-4.23,8.29,1.89,8.29,4.23-3.71,4.23-8.29,4.23Z" fill="#d19240"/><path d="m15.1,76.82c.1.35,2.29.67,3-.48.67-1.08-.3-2.88-1.5-3.14-.6-.13-1.42.1-1.57.55-.21.64,1.08,1.27.89,2.11-.14.6-.88.74-.82.95h0Z" fill="#d19240"/><path d="m12.06,75.87c.56-.95-.4-1.2-.95-1.47-.72-.34-1.77-.18-1.98.34,0,0-.32.56.4,1.3.72.74,1.98.78,2.54-.17h0Z" fill="#d19240"/><path d="m4.64,89.03c.56-.95-.4-1.2-.95-1.47-.72-.34-1.77-.18-1.98.34,0,0-.32.56.4,1.3.72.74,1.98.78,2.54-.17h0Z" fill="#d19240"/><path d="m5.61,57.78c-.8.7-.57,2.39-.48,3.11.08.61.19,1.42.65,1.57.5.17.93-.59,1.91-1.23,1.82-1.18,3.42-.59,3.55-1.09.23-.86-4.13-3.66-5.63-2.35h0Z" fill="#d19240"/><path d="m4.18,97.1c-.8.7-.57,2.39-.48,3.11.08.61.19,1.42.65,1.57.5.17.93-.59,1.91-1.23,1.82-1.18,3.42-.59,3.55-1.09.23-.86-4.13-3.66-5.63-2.35h0Z" fill="#d19240"/><path d="m1.79,70.13c-.02-1.66,2.78-2.85,3.58-2.29.47.33.12,1.17.79,1.74.61.53,1.35.18,1.5.51.24.51-1.08,2.24-2.8,2.32-1.43.06-3.06-1.03-3.07-2.29Z" fill="#d19240"/></g></g><path d="m3.73,81.36s.13.18.13.56.18.77.23.49c.05-.28.68-1.6.26-2.98-.42-1.38-1.47-1.75-2.02-1.53-.55.22-.63,2.56-1.13,3.79-.5,1.23-1.4,1.61-1.13,1.82.27.2.81-.23.81-.23,0,0-.32,2.8.23,3.47.55.67,1.61,1.18,1.61,1.18,0,0-.61-1.89-.4-2.25.22-.36.29.68.75.78.46.1-.05-.61-.04-1.42.01-.81.69-3.66.69-3.66h0Z" fill="#6c422d"/><path d="m38.19,110.4c.21.37,1.04,2.53,1.04,2.53,0,0-3.84.24-4.12-1.02-.27-1.26,2.87-1.88,3.07-1.5Z" fill="#392618"/><path d="m35.23,112.37c.21.38,1.04,2.53,1.04,2.53,0,0-3.84.24-4.12-1.02-.27-1.26,2.87-1.88,3.07-1.5Z" fill="#392618"/><path d="m15.29,109.83c.25.38,1.26,2.53,1.26,2.53,0,0-4.65.24-4.98-1.02-.33-1.26,3.47-1.88,3.72-1.5Z" fill="#392618"/><path d="m9.96,110.78c.25.49,1.26,3.3,1.26,3.3,0,0-4.65.31-4.98-1.34-.33-1.65,3.47-2.45,3.72-1.96Z" fill="#392618"/><path d="m48.35,11.4c0,3.96,2.41,7.9,6.36,7.9s7.17-3.21,7.17-7.17-3.21-7.17-7.17-7.17-6.36,2.47-6.36,6.43Z" fill="#f1b239"/><g mask="url(#q)"><g><path d="m56.85,18.4c.32-.15.29-2.78-1.43-3.55-1.31-.59-3.12.12-3.27.99-.14.77.98,1.92,2.05,2.01.65.06,1.07-.3,1.77-.03.59.22.75.65.89.58h0Z" fill="#d19240"/><path d="m46.27,14.32c.32.5,4.73-.07,5.68-3.13.72-2.33-.84-5.22-2.33-5.31-1.33-.08-3.03,2.04-2.97,3.85.04,1.1.72,1.75.41,2.98-.26,1.04-.93,1.39-.8,1.61h0Z" fill="#d19240"/><path d="m54.98,5.04c-.93.65-1.1,2.19-.35,2.92.42.41,1.1.55,1.64.34,1.17-.46,1.58-2.57.72-3.31-.51-.44-1.42-.36-2,.05Z" fill="#d19240"/></g></g><path d="m53.93,8.81s-.41-.12-1.74-1.63c-1.33-1.5-5.46-5.26-7.37-2.9-1.53,3.45,3.72,4.3,5.7,4.3s3.41.23,3.41.23Z" fill="#8f6143"/><path d="m58.23,11.09c-.82,0-1.48-.66-1.48-1.48s.66-1.49,1.48-1.49,1.48.66,1.48,1.49-.66,1.48-1.48,1.48Z" fill="#1d1d1b"/><path d="m58.21,7.56s1.65.32,1.91,1.56c-1.88-.9-3.93,1.35-3.94.87-.01-.48-.28-2.13,2.04-2.43Z" fill="#f1b239"/></g></g></g></svg>