<?xml version="1.0" encoding="UTF-8"?><svg id="b" xmlns="http://www.w3.org/2000/svg" xmlns:xlink="http://www.w3.org/1999/xlink" viewBox="0 0 49.85 42.08"><defs><mask id="e" x="37.78" y="0" width="7.34" height="9.72" maskUnits="userSpaceOnUse"><g id="f"><path d="m37.98.02c3.16,1.89,5.67,4.86,7.06,8.31.48,1.25-1.32,1.99-1.86.77-.41-1.69-1.02-3.35-1.96-4.88-.89-1.48-2.05-2.83-3.4-3.98-.12-.1.02-.3.15-.22h0Z" fill="#fff"/></g></mask><mask id="g" x="33" y="2.27" width="10.05" height="7.3" maskUnits="userSpaceOnUse"><g id="h"><path d="m33.15,2.28c1.87.28,3.7.91,5.35,1.88,1.67.97,3.16,2.3,4.35,3.88.33.42.24,1.03-.18,1.35-.46.35-1.14.2-1.42-.31-.83-1.53-1.97-2.91-3.37-4.03-1.41-1.14-3.05-1.98-4.79-2.51-.15-.04-.1-.29.06-.26Z" fill="#fff"/></g></mask><mask id="i" x="2.8" y="7.41" width="6.43" height="8.43" maskUnits="userSpaceOnUse"><g id="j"><path d="m8.7,12.96s-1.35.25-1.55-1.19c-.2-1.44,2.09-4.35,2.09-4.35,0,0-4.6,1.71-4.65,2.91-.05,1.19.05,1.46.05,1.46l-.69-.83-.57,1.52s2.23,3,2.44,3.35c.21.34,2.89-2.86,2.89-2.86Z" fill="#fff"/></g></mask><mask id="k" x="43.64" y="10.63" width="1.76" height="1.06" maskUnits="userSpaceOnUse"><g id="l"><path d="m43.64,11.07s.38-.44.84-.44c.46,0,.92.6.92.6,0,0-.5.49-.81.46-.32-.03-.95-.62-.95-.62Z" fill="#fff"/></g></mask></defs><g id="c"><g id="d"><path d="m37.98.02c3.16,1.89,5.67,4.86,7.06,8.31.48,1.25-1.32,1.99-1.86.77-.41-1.69-1.02-3.35-1.96-4.88-.89-1.48-2.05-2.83-3.4-3.98-.12-.1.02-.3.15-.22h0Z" fill="#807865"/><g fill="none" mask="url(#e)"><path d="m43.16,7.13c.26-.11.53-.14.81-.17.28-.05.55-.05.81.09v.03c-.39.21-.8.07-1.21.07-.13,0-.27-.02-.4,0v-.02Z" fill="#51471c"/><path d="m42.61,6.04c.24-.11.5-.13.76-.17.26-.05.52-.05.76.1v.03c-.25.13-.49.13-.76.09-.25-.01-.5-.05-.75-.02v-.02h-.01Z" fill="#51471c"/><path d="m42.07,4.95c.22-.1.46-.13.7-.17.25-.05.48-.05.7.1v.03c-.34.2-.69.06-1.05.06-.11,0-.23-.02-.35,0v-.02s0,0,0,0Z" fill="#51471c"/><path d="m41.52,3.85c.21-.1.43-.13.65-.16.23-.05.45-.04.65.11v.03c-.31.2-.63.06-.97.05-.11,0-.21-.02-.32,0v-.02s-.01,0-.01,0Z" fill="#51471c"/><path d="m40.58,2.81c.22-.1.46-.13.7-.17.25-.05.48-.05.7.1v.03c-.34.2-.69.06-1.05.06-.11,0-.23-.02-.35,0v-.02s0,0,0,0Z" fill="#51471c"/><path d="m39.64,1.77c.24-.11.5-.13.76-.17.26-.05.52-.05.76.1v.03c-.25.13-.49.13-.76.09-.25-.01-.5-.05-.75-.02v-.02h-.01Z" fill="#51471c"/><path d="m38.7.72c.26-.11.53-.14.81-.17.28-.05.55-.05.81.09v.03c-.39.21-.8.07-1.21.07-.13,0-.27-.02-.4,0v-.02Z" fill="#51471c"/></g><path d="m33.15,2.28c1.87.28,3.7.91,5.35,1.88,1.67.97,3.16,2.3,4.35,3.88.33.42.24,1.03-.18,1.35-.46.35-1.14.2-1.42-.31-.83-1.53-1.97-2.91-3.37-4.03-1.41-1.14-3.05-1.98-4.79-2.51-.15-.04-.1-.29.06-.26Z" fill="#807865"/><g fill="none" mask="url(#g)"><path d="m40.72,7.23c.26-.11.53-.14.81-.17.28-.05.55-.05.81.09v.03c-.39.21-.8.07-1.21.07-.13,0-.27-.02-.4,0v-.02Z" fill="#51471c"/><path d="m39.71,6.24c.26-.11.53-.15.81-.19.28-.06.55-.07.82.06v.03c-.38.22-.8.1-1.21.11-.13,0-.27,0-.4.02v-.02s-.01,0-.01,0Z" fill="#51471c"/><path d="m38.7,5.26c.26-.11.53-.16.8-.21.28-.07.55-.09.83.03v.03c-.26.16-.52.17-.81.15-.27,0-.54-.01-.81.03v-.02Z" fill="#51471c"/><path d="m37.68,4.28c.39-.16.8-.26,1.21-.31.14,0,.28.02.42.08v.03c-.25.17-.52.19-.8.18-.27.01-.55,0-.82.05v-.02s0,0,0,0Z" fill="#51471c"/><path d="m36.77,3.82c.26-.11.53-.16.8-.21.28-.07.55-.09.83.03v.03c-.26.16-.52.17-.81.15-.27,0-.54-.01-.81.03v-.02Z" fill="#51471c"/><path d="m35.86,3.36c.26-.11.53-.15.81-.19.28-.06.55-.07.82.06v.03c-.38.22-.8.1-1.21.11-.13,0-.27,0-.4.02v-.02s-.01,0-.01,0Z" fill="#51471c"/><path d="m34.94,2.91c.26-.11.53-.14.81-.17.28-.05.55-.05.81.09v.03c-.39.21-.8.07-1.21.07-.13,0-.27-.02-.4,0v-.02Z" fill="#51471c"/></g><path d="m43.54,7.77s1.6-.02,2.99-1.2c1.39-1.18,1.84-2,2.21-1.06.38.94-1.91,3.09-2.76,3.18" fill="#c2c1bd"/><path d="m45,8.33s1.27-.82,1.89-1.22c.62-.4.94-1.11,1.07-1.11.13,0-.68,1.75-1.76,2.27-1.08.52-.91.49-1.02.38-.11-.11-.02-.32-.17-.32h0Z" fill="#a9a9a9"/><path d="m30.32,38.31s-.28,1.65.41,2.12c.69.47,2.2.24,2.65.22.45-.02-.97-2.58-1.41-2.64-.44-.06-1.65.3-1.65.3Z" fill="#505050"/><path d="m28.84,39.24s-.28,1.65.41,2.12c.69.47,2.2.24,2.65.22.45-.02-.97-2.58-1.41-2.64-.44-.06-1.65.3-1.65.3Z" fill="#3f3f3f"/><path d="m1.37,36.89s-.28,1.65.41,2.12c.69.47,2.2.24,2.65.22.45-.02-.97-2.58-1.41-2.64s-1.65.3-1.65.3Z" fill="#3f3f3f"/><path d="m11.03,36.25s-.28,1.65.41,2.12c.69.47,2.2.23,2.65.22.45-.02-.97-2.58-1.41-2.64-.44-.06-1.65.3-1.65.3Z" fill="#3f3f3f"/><path d="m10.17,36.61s-.28,1.65.41,2.12c.69.47,2.2.24,2.65.22.45-.02-.97-2.58-1.41-2.64-.44-.06-1.65.3-1.65.3Z" fill="#505050"/><path d="m35.42,23c-.09.13-2.33,4.71-2.8,7.38-.47,2.67,0,7.98,0,7.98,0,0-1.82.53-2.45.16-.63-.38.47-14.26.47-14.26" fill="#a9a9a9"/><path d="m10.27,22.43s-.75,8.67-.61,11.68c.14,3.01.52,2.97.52,2.97,0,0,2.5.14,2.45-1.08-.85-.85-.52-3.72.24-7.49s4.9-5.28,4.9-5.28" fill="#a9a9a9"/><path d="m8.7,12.96s-1.35.25-1.55-1.19c-.2-1.44,2.09-4.35,2.09-4.35,0,0-4.6,1.71-4.65,2.91-.05,1.19.05,1.46.05,1.46l-.69-.83-.57,1.52s2.23,3,2.44,3.35c.21.34,2.89-2.86,2.89-2.86Z" fill="#a8a197"/><g fill="none" mask="url(#i)"><path d="m7.75,7.42s-1.54,2.28-1.45,3.16l.09.88-.32-1.23.68-2.15-1.19.44-.02,1.81.38,1.31-.82-.57-.23-2.21-.99,1.19,1.42,3.17-2.49-1.58,1.04-3.6,3.91-.61h0Z" fill="#c2c1bd"/></g><path d="m45.9,17.1s-.12,2.14-.05,2.61c.07.47.33.59.33.8s.12-1.25.23-1.25.19,2,.17,2.66c-.02.66.31-3.09.68-2.76.38.33.42,1.46.89,1.23.47-.23.17-2.33.17-2.33l-2.43-.97h0Z" fill="#aea9a1"/><path d="m.51,37.25s-.28,1.65.41,2.12c.69.47,2.2.24,2.65.22.45-.02-.97-2.58-1.41-2.64-.44-.06-1.65.3-1.65.3Z" fill="#505050"/><path d="m28.42,38.94s-.76,1.49-.23,2.15c.52.65,2.03.87,2.47.99s-.17-2.75-.57-2.94c-.4-.19-1.66-.2-1.66-.2h0Z" fill="#505050"/><path d="m5.06,15.79s-.93,6.51,4.58,8.62c5.51,2.11,8.8,4.76,13.99,4.58s8.13-1.39,10.44-4.04,6.43-8.44,6.79-9.41c.36-.97,1.13-2.83,1.13-2.83l-2.93-2.71s-3.96,2.83-4.12,3.26c-.15.42-5.51-1.33-7.72.06-2.21,1.39-3.55,1.45-7.46.24-3.91-1.21-6.28-2.77-10.65-1.15-4.37,1.63-4.06,3.38-4.06,3.38h0Z" fill="#c2c1bd"/><path d="m26,25.64s1.26,2.01,2.14,2.83c.32,1.73,1.1,7.04,1.1,8.26s-.6,2.14-.6,2.14c0,0,.57,1.21,1.73,1.12,1.16-.09,1.26-.2,1.26-.2,0,0-.91-2.01-.47-5.4.44-3.39.19-3.99,1.26-6,1.07-2.01,1.89-5.03,1.89-5.03" fill="#c2c1bd"/><path d="m41.89,14s.09,3.58-.09,3.58-.64-1.2-.64-1.2c0,0-.24,1.95-.33,1.95s-.59-1.08-.59-1.08c0,0,.02,1.37-.31,1.72-.33.35-1.93-1.72-1.93-1.72l3.18-3.18" fill="#aea9a1"/><path d="m40.5,14.21s1.46,2.25,4.02,3.03c2.56.79,4.17,1.46,4.59,1.01.42-.45.45-.64.45-.64,0,0,.24.07.28-.2.05-.27-.07-1.62-.1-2.02-.03-.4-.87-.48-2.07-2.49-1.2-2.01-1.37-2.47-1.22-3.04.15-.57-.8-1.79-1.7-2.14-.9-.35-4.03,1.07-4.73,1.25-.7.18-1.81,2.02-1.81,2.02l2.29,3.21h0Z" fill="#c2c1bd"/><path d="m49.09,15.6s.24.99.56.88c.33-.11.01-.61-.17-.61s-.4-.27-.4-.27Z" fill="#807865"/><path d="m47.28,16.31s.74.49,1.2.74c.45.26,1.08.56,1.08.56" fill="none" stroke="#807865" stroke-miterlimit="10" stroke-width=".29"/><path d="m43.74,11.04s.21-.1.56-.2c.35-.1.56-.02.72.1.16.12.27.4.27.4,0,0-.38.14-.78.11-.39-.02-.78-.41-.78-.41Z" fill="#807865"/><path d="m43.64,11.07s.38-.44.84-.44c.46,0,.92.6.92.6,0,0-.5.49-.81.46-.32-.03-.95-.62-.95-.62Z" fill="#fff"/><g fill="none" mask="url(#k)"><path d="m44.63,11.61c.25,0,.45-.2.45-.45s-.2-.45-.45-.45-.45.2-.45.45.2.45.45.45Z" fill="#807865"/></g><path d="m8.62,25.4s.85,3.2,2.03,3.91c1.18.71,5.84-3.49,5.84-3.49l-4.24-2.97-3.63,2.54Z" fill="#cfccbf"/><path d="m43.03,9.1s-3.04-1.34-3.86-2.31c-.83-.97-1.39.14-1.39,1.01s4.05,3.46,4.05,3.46" fill="#c2c1bd"/><path d="m41.47,9.61s-2.18-.98-2.38-1.55c-.2-.58-.32-1.2-.67-1.08-.35.12-.41.66-.26,1.01.15.35,1.85,1.98,3.31,1.63h0Z" fill="#a9a9a9"/><path d="m15.73,24.4s-1.19-.32-2.83.13c-1.63.44-8.23,4.65-8.86,7.16-.63,2.51-.69,5.66-.69,5.66,0,0-1.95.69-3.14.19-.75-1.57.69-1.89,1.13-4.71.44-2.83-.19-3.9-.19-3.9,0,0,1.76-.94,3.71-3.27,1.95-2.33-.06-5.21-.06-7.35s.57-3.46,2.01-4.21" fill="#c2c1bd"/></g></g></svg>