<?xml version="1.0" encoding="UTF-8"?><svg id="b" xmlns="http://www.w3.org/2000/svg" xmlns:xlink="http://www.w3.org/1999/xlink" viewBox="0 0 99.52 84"><defs><mask id="e" x="75.41" y="0" width="14.66" height="19.4" maskUnits="userSpaceOnUse"><g id="f"><path d="m75.82.04c6.31,3.77,11.32,9.7,14.09,16.59.95,2.49-2.63,3.97-3.71,1.53-.82-3.38-2.04-6.69-3.91-9.74-1.78-2.96-4.08-5.65-6.79-7.94-.25-.2.04-.61.31-.43h0Z" fill="#fff"/></g></mask><mask id="g" x="65.87" y="4.54" width="20.06" height="14.58" maskUnits="userSpaceOnUse"><g id="h"><path d="m66.17,4.54c3.74.56,7.39,1.82,10.68,3.75,3.33,1.95,6.31,4.59,8.68,7.75.65.84.48,2.05-.36,2.69-.92.7-2.28.41-2.82-.61-1.66-3.05-3.94-5.8-6.72-8.04-2.81-2.27-6.09-3.95-9.57-5.02-.3-.09-.21-.57.12-.52Z" fill="#fff"/></g></mask><mask id="i" x="5.6" y="14.8" width="12.83" height="16.84" maskUnits="userSpaceOnUse"><g id="j"><path d="m17.36,25.88s-2.7.5-3.1-2.38c-.41-2.88,4.17-8.68,4.17-8.68,0,0-9.19,3.42-9.28,5.8-.09,2.38.1,2.92.1,2.92l-1.38-1.66-1.13,3.04s4.45,5.99,4.86,6.68,5.77-5.71,5.77-5.71Z" fill="#fff"/></g></mask><mask id="k" x="87.11" y="21.23" width="3.51" height="2.12" maskUnits="userSpaceOnUse"><g id="l"><path d="m87.11,22.09s.75-.87,1.67-.87c.92,0,1.84,1.2,1.84,1.2,0,0-1,.98-1.63.91-.63-.07-1.89-1.25-1.89-1.25Z" fill="#fff"/></g></mask></defs><g id="c"><g id="d"><path d="m75.82.04c6.31,3.77,11.32,9.7,14.09,16.59.95,2.49-2.63,3.97-3.71,1.53-.82-3.38-2.04-6.69-3.91-9.74-1.78-2.96-4.08-5.65-6.79-7.94-.25-.2.04-.61.31-.43h0Z" fill="#807865"/><g fill="none" mask="url(#e)"><path d="m86.15,14.23c.51-.22,1.07-.27,1.61-.34.56-.11,1.1-.11,1.63.19v.05c-.78.42-1.59.13-2.42.14-.27-.01-.54-.03-.8.01l-.02-.05Z" fill="#51471c"/><path d="m85.07,12.05c.49-.21,1-.27,1.51-.34.53-.1,1.03-.1,1.52.2v.05c-.5.27-.99.26-1.51.18-.5-.03-1-.1-1.49-.04l-.02-.05h0Z" fill="#51471c"/><path d="m83.97,9.87c.45-.21.93-.27,1.4-.33.49-.1.96-.1,1.41.21v.05c-.67.41-1.38.12-2.09.11-.23-.02-.46-.03-.69,0l-.02-.05h0Z" fill="#51471c"/><path d="m82.89,7.69c.41-.21.86-.26,1.29-.32.46-.1.9-.09,1.3.22v.05c-.62.4-1.26.11-1.93.1-.21-.02-.43-.03-.64,0l-.02-.05h0Z" fill="#51471c"/><path d="m81,5.61c.45-.21.93-.27,1.4-.33.49-.1.96-.1,1.41.21v.05c-.67.41-1.38.12-2.09.11-.23-.02-.46-.03-.69,0l-.02-.05h0Z" fill="#51471c"/><path d="m79.13,3.52c.49-.21,1-.27,1.51-.34.53-.1,1.03-.1,1.52.2v.05c-.5.27-.99.26-1.51.18-.5-.03-1-.1-1.49-.04l-.02-.05h0Z" fill="#51471c"/><path d="m77.25,1.44c.51-.22,1.07-.27,1.61-.34.56-.11,1.1-.11,1.63.19v.05c-.78.42-1.59.13-2.42.14-.27-.01-.54-.03-.8.01l-.02-.05Z" fill="#51471c"/></g><path d="m66.17,4.54c3.74.56,7.39,1.82,10.68,3.75,3.33,1.95,6.31,4.59,8.68,7.75.65.84.48,2.05-.36,2.69-.92.7-2.28.41-2.82-.61-1.66-3.05-3.94-5.8-6.72-8.04-2.81-2.27-6.09-3.95-9.57-5.02-.3-.09-.21-.57.12-.52Z" fill="#807865"/><g fill="none" mask="url(#g)"><path d="m81.29,14.42c.51-.22,1.07-.27,1.62-.34.56-.11,1.1-.11,1.63.19v.05c-.78.42-1.59.13-2.42.14-.27-.01-.54-.03-.8.01l-.02-.05Z" fill="#51471c"/><path d="m79.27,12.46c.52-.22,1.07-.3,1.61-.38.56-.12,1.1-.14,1.64.13v.05c-.77.45-1.59.19-2.42.22-.27,0-.54-.02-.8.03l-.02-.05h0Z" fill="#51471c"/><path d="m77.25,10.5c.52-.23,1.07-.33,1.6-.43.55-.14,1.1-.19,1.65.07v.05c-.51.31-1.04.34-1.61.3-.54.01-1.09-.03-1.62.05l-.02-.05Z" fill="#51471c"/><path d="m75.23,8.54c.77-.31,1.59-.52,2.41-.62.28,0,.55.04.84.16v.05c-.5.33-1.03.38-1.6.36-.54.03-1.1.01-1.63.1l-.02-.05h0Z" fill="#51471c"/><path d="m73.4,7.63c.52-.23,1.07-.33,1.6-.43.55-.14,1.1-.19,1.65.07v.05c-.51.31-1.04.34-1.61.3-.54.01-1.09-.03-1.62.05l-.02-.05Z" fill="#51471c"/><path d="m71.57,6.72c.52-.22,1.07-.3,1.61-.38.56-.12,1.1-.14,1.64.13v.05c-.77.45-1.59.19-2.42.22-.27,0-.54-.02-.8.03l-.02-.05h0Z" fill="#51471c"/><path d="m69.75,5.8c.51-.22,1.07-.27,1.61-.34.56-.11,1.1-.11,1.63.19v.05c-.78.42-1.59.13-2.42.14-.27-.01-.54-.03-.8.01l-.02-.05Z" fill="#51471c"/></g><path d="m86.91,15.5s3.2-.05,5.98-2.4c2.78-2.35,3.67-4,4.42-2.12.75,1.88-3.81,6.16-5.5,6.35" fill="#c2c1bd"/><path d="m89.83,16.62s2.53-1.63,3.76-2.43c1.24-.8,1.87-2.22,2.13-2.21.26,0-1.36,3.5-3.51,4.53-2.15,1.03-1.82.97-2.04.75-.22-.22-.03-.63-.35-.64h0Z" fill="#a9a9a9"/><path d="m60.51,76.47s-.56,3.29.82,4.23c1.38.94,4.39.47,5.3.44.91-.03-1.95-5.14-2.82-5.27-.87-.12-3.29.6-3.29.6Z" fill="#505050"/><path d="m57.56,78.34s-.56,3.29.82,4.23c1.38.94,4.39.47,5.3.44.91-.03-1.95-5.14-2.82-5.27-.87-.12-3.29.6-3.29.6Z" fill="#3f3f3f"/><path d="m2.73,73.64s-.57,3.29.82,4.23c1.38.94,4.39.47,5.3.44.91-.03-1.95-5.14-2.82-5.27-.87-.12-3.29.6-3.29.6Z" fill="#3f3f3f"/><path d="m22.01,72.37s-.56,3.29.82,4.23c1.38.94,4.39.47,5.3.44.91-.03-1.95-5.14-2.82-5.27-.87-.12-3.29.6-3.29.6Z" fill="#3f3f3f"/><path d="m20.31,73.08s-.56,3.29.82,4.23c1.38.94,4.39.47,5.3.44.91-.03-1.95-5.14-2.82-5.27-.87-.12-3.29.6-3.29.6Z" fill="#505050"/><path d="m70.71,45.91c-.19.25-4.64,9.41-5.58,14.74-.94,5.33,0,15.93,0,15.93,0,0-3.64,1.07-4.89.31-1.26-.75.94-28.47.94-28.47" fill="#a9a9a9"/><path d="m20.49,44.78s-1.5,17.31-1.22,23.32c.28,6.02,1.03,5.93,1.03,5.93,0,0,4.98.28,4.89-2.16-1.69-1.69-1.03-7.43.47-14.96,1.5-7.53,9.78-10.53,9.78-10.53" fill="#a9a9a9"/><path d="m17.36,25.88s-2.7.5-3.1-2.38c-.41-2.88,4.17-8.68,4.17-8.68,0,0-9.19,3.42-9.28,5.8-.09,2.38.1,2.92.1,2.92l-1.38-1.66-1.13,3.04s4.45,5.99,4.86,6.68,5.77-5.71,5.77-5.71Z" fill="#a8a197"/><g fill="none" mask="url(#i)"><path d="m15.48,14.8s-3.07,4.55-2.9,6.3l.17,1.75-.63-2.45,1.35-4.3-2.38.88-.03,3.6.75,2.61-1.63-1.14-.47-4.42-1.98,2.38,2.84,6.33-4.97-3.16,2.07-7.19,7.81-1.22h0Z" fill="#c2c1bd"/></g><path d="m91.62,34.14s-.23,4.28-.1,5.22c.14.94.66,1.18.66,1.6s.23-2.49.47-2.49.38,4,.33,5.31c-.05,1.32.61-6.16,1.36-5.5.75.66.85,2.92,1.79,2.45.94-.47.33-4.66.33-4.66l-4.85-1.93h0Z" fill="#aea9a1"/><path d="m1.02,74.35s-.57,3.29.82,4.23c1.38.94,4.39.47,5.3.44.91-.03-1.95-5.14-2.82-5.27-.87-.12-3.29.6-3.29.6Z" fill="#505050"/><path d="m56.73,77.73s-1.51,2.98-.46,4.29c1.04,1.31,4.06,1.74,4.94,1.98.88.23-.35-5.48-1.15-5.86-.8-.38-3.32-.4-3.32-.4h0Z" fill="#505050"/><path d="m10.1,31.52s-1.85,13,9.14,17.21c10.99,4.21,17.56,9.51,27.94,9.15,10.37-.36,16.23-2.77,20.85-8.06,4.62-5.29,12.84-16.85,13.56-18.78s2.26-5.66,2.26-5.66l-5.85-5.42s-7.91,5.66-8.21,6.5c-.31.84-10.99-2.65-15.4.12-4.41,2.77-7.09,2.89-14.89.48-7.8-2.41-12.53-5.53-21.26-2.29-8.73,3.25-8.11,6.74-8.11,6.74h0Z" fill="#c2c1bd"/><path d="m51.9,51.18s2.51,4.01,4.26,5.64c.63,3.45,2.2,14.05,2.2,16.49s-1.19,4.26-1.19,4.26c0,0,1.13,2.41,3.45,2.23,2.32-.19,2.51-.41,2.51-.41,0,0-1.82-4.01-.94-10.79.88-6.77.38-7.96,2.51-11.98,2.13-4.01,3.76-10.03,3.76-10.03" fill="#c2c1bd"/><path d="m83.62,27.95s.19,7.15-.19,7.15-1.27-2.4-1.27-2.4c0,0-.47,3.9-.66,3.9s-1.18-2.16-1.18-2.16c0,0,.05,2.73-.61,3.43-.66.7-3.86-3.43-3.86-3.43l6.35-6.35" fill="#aea9a1"/><path d="m80.85,28.36s2.92,4.49,8.02,6.06c5.1,1.57,8.32,2.92,9.16,2.01.84-.9.9-1.27.9-1.27,0,0,.47.13.56-.4.1-.53-.13-3.24-.2-4.03s-1.73-.96-4.14-4.97c-2.4-4-2.73-4.94-2.44-6.07.3-1.14-1.6-3.57-3.4-4.27-1.8-.7-8.04,2.13-9.43,2.5-1.4.37-3.6,4.03-3.6,4.03l4.57,6.4h0Z" fill="#c2c1bd"/><path d="m97.99,31.13s.47,1.98,1.12,1.75c.65-.23.02-1.22-.34-1.22s-.79-.54-.79-.54Z" fill="#807865"/><path d="m94.39,32.55s1.49.97,2.39,1.49c.9.52,2.15,1.12,2.15,1.12" fill="none" stroke="#807865" stroke-miterlimit="10" stroke-width=".29"/><path d="m87.32,22.04s.43-.2,1.12-.4c.7-.2,1.12-.04,1.44.2s.54.79.54.79c0,0-.77.27-1.55.22-.78-.05-1.55-.81-1.55-.81Z" fill="#807865"/><path d="m87.11,22.09s.75-.87,1.67-.87c.92,0,1.84,1.2,1.84,1.2,0,0-1,.98-1.63.91-.63-.07-1.89-1.25-1.89-1.25Z" fill="#fff"/><g fill="none" mask="url(#k)"><path d="m89.08,23.17c.49,0,.89-.4.89-.89s-.4-.89-.89-.89-.89.4-.89.89.4.89.89.89Z" fill="#807865"/></g><path d="m17.21,50.71s1.69,6.4,4.05,7.81c2.35,1.41,11.66-6.96,11.66-6.96l-8.46-5.93-7.24,5.08Z" fill="#cfccbf"/><path d="m85.9,18.16s-6.07-2.68-7.71-4.61c-1.65-1.93-2.78.28-2.78,2.02s8.09,6.91,8.09,6.91" fill="#c2c1bd"/><path d="m82.77,19.17s-4.35-1.95-4.75-3.1c-.4-1.15-.63-2.4-1.34-2.16-.7.23-.82,1.32-.52,2.02.3.7,3.69,3.95,6.61,3.25h0Z" fill="#a9a9a9"/><path d="m31.41,48.7s-2.38-.63-5.64.25c-3.26.88-16.43,9.28-17.69,14.3-1.26,5.02-1.38,11.29-1.38,11.29,0,0-3.89,1.38-6.27.38-1.5-3.13,1.38-3.76,2.26-9.41.88-5.64-.38-7.78-.38-7.78,0,0,3.51-1.88,7.4-6.52,3.89-4.64-.13-10.41-.13-14.67s1.13-6.9,4.01-8.4" fill="#c2c1bd"/></g></g></svg>