<?xml version="1.0" encoding="UTF-8"?><svg id="b" xmlns="http://www.w3.org/2000/svg" viewBox="0 0 79.84 55.3"><g id="c"><g id="d"><g id="e"><path d="M42.45,20.31c.68-.95,1.83-2.35,3.6-3.48,7.31-4.63,15.77,1.1,18.25-2.18,1.85-2.45-1.43-7.63-4.2-11.99-.68-1.08-1.9-2.83-3.08-2.65-.8,.13-.8,1.08-2.4,2.43-1.2,1.03-1.53,.78-2.65,1.88-.8,.78-.8,1.08-1.7,1.83-.85,.73-1.03,.63-1.75,1.28-.8,.7-.7,.93-1.68,2.05-.93,1.05-1.1,.98-2.23,2.23-.68,.75-1.08,1.2-1.5,1.9-.68,1.18-.9,2.25-.98,2.63-.33,1.78,.05,3.25,.3,4.03l.03,.05Z" fill="#ef7c00"/><path d="M48.28,10.25v.08l.1,.05s.1,.1,.13,.15c.1,.1,.2,.23,.33,.33,.08,.08,.18,.18,.25,.25l.28,.3c.2,.23,.4,.4,.58,.63,.05,.03,.1,.1,.15,.18,.08,.05,.1,.1,.18,.15l.08,.05,.08,.05,.18,.13h.05s.13,.05,.15,0l.05-.08s-.03-.05-.05-.08c-.1-.05-.18-.1-.25-.18l-.13-.08-.15-.1c-.2-.2-.4-.38-.6-.6-.2-.2-.38-.38-.58-.58-.1-.1-.23-.2-.35-.33h-.05s-.1-.1-.13-.15c0,0-.13-.08-.15-.13l-.1-.05v-.03l-.03,.03Z" fill="#7b493f"/><path d="M45,13.08v.03l.08,.05s.08,.08,.1,.1c.08,.08,.18,.18,.25,.25,.05,.05,.15,.13,.2,.2l.2,.23c.15,.15,.3,.3,.45,.45,.03,0,.08,.08,.13,.13,.05,.03,.08,.08,.13,.1h.05s.03,.05,.05,.08l.15,.1h.03s.1,.03,.1,0v-.1c-.08-.05-.13-.08-.18-.13l-.1-.05-.1-.08c-.15-.15-.3-.28-.45-.45-.15-.15-.3-.28-.45-.43-.08-.08-.18-.15-.28-.23h-.03s-.08-.08-.1-.1c0,0-.1-.05-.13-.1l-.08-.05h-.03Z" fill="#7b493f"/><path d="M50.96,7.75s-.03,.1,.05,.15l.15,.08,.13,.08s.1,.05,.1,.1c0,0,.05,.03,.08,.08l.08,.05s.15,.23,.23,.3c.15,.18,.28,.35,.43,.5,.33,.35,.65,.73,.95,1.08,.08,.05,.13,.13,.18,.2v.05s.03,.05,.05,.08l.08,.05,.1,.05s.08,0,.13-.03v-.05s.05,0,.05-.05l-.05-.1s-.05-.05-.08-.05c-.05-.03-.08-.08-.13-.13-.08-.08-.15-.15-.23-.28l-.48-.55c-.15-.15-.28-.33-.45-.5l-.23-.3s-.15-.18-.23-.28c-.1-.13-.18-.23-.28-.33-.05-.03-.08-.05-.1-.1-.03-.05-.08-.05-.13-.08l-.08-.05-.13-.08s-.1-.03-.13,0h-.05l-.03,.1Z" fill="#7b493f"/><path d="M58.06,8.32s-.08,.13,0,.18c.08,.1,.15,.23,.23,.33,.2,.3,.43,.63,.63,.93,0,0,.18,.23,.25,.38,0,0,.1,.15,.15,.2,.05,.08,.1,.15,.15,.23,.1,.15,.23,.28,.3,.43,.05,.03,.05,.1,.1,.13,.03,.05,.13,.08,.15,.05l.05-.08s.03-.05,0-.1c0-.08-.08-.15-.1-.2-.03-.05-.1-.13-.13-.18-.08-.1-.15-.23-.23-.33l-.25-.33s-.15-.23-.23-.33c0,0-.1-.13-.13-.2l-.4-.63s-.1-.1-.13-.15c0,0-.15-.23-.25-.33,0,0-.1-.05-.13,0h-.05Z" fill="#7b493f"/><path d="M45.95,10.95s-.08,.15,0,.2c.1,.15,.23,.25,.35,.4,.05,.05,.1,.1,.13,.15,.05,.08,.13,.1,.18,.18,0,0,.03,0,.05,.05h.03s.08,.05,.1,.08c0,0,.03,0,.05,.05,0,0,0,.03,.05,.05,.05,.05,.13,.1,.15,.15l.15,.13s.23,.2,.33,.28c.13,.08,.23,.2,.38,.3,.05,.05,.13,.08,.18,.13,.08,.05,.15,.1,.23,.13,.38,.25,.73,.5,1.08,.73,.05,0,.13,.03,.18-.05,.05-.08,.03-.13-.05-.18-.28-.18-.5-.35-.78-.55-.13-.08-.25-.18-.38-.25-.05,0-.1-.08-.18-.13s-.15-.13-.23-.18c-.18-.13-.3-.25-.45-.35-.08-.08-.18-.13-.23-.2l-.28-.23h-.05s-.05,0-.08-.05c0,0-.13-.1-.15-.15,0,0-.1-.1-.13-.15-.05-.05-.1-.08-.13-.15-.1-.15-.25-.25-.35-.4,0,0-.05-.05-.08-.05-.05,0-.08,0-.13,.03l.08,.08-.03-.03Zm1.08,.93l-.18,.23,.18-.23Zm0,0h0Zm-.08-.08h0Z" fill="#7b493f"/><path d="M49.58,8.6s-.05,.13-.05,.18c.05,.08,.1,.15,.18,.2,0,0,0,.03,.05,.05,.05,.05,.08,.08,.1,.15,.1,.1,.2,.23,.3,.33h.03s.08,.08,.13,.13c.08,.08,.13,.1,.18,.18,.1,.08,.18,.18,.3,.28s.2,.2,.33,.28c.08,.08,.15,.13,.2,.2,.05,.05,.1,.08,.15,.13,.13,.08,.23,.2,.35,.28,.05,0,.1,.08,.15,.13,.08,.05,.13,.1,.2,.15,.05,0,.1,.08,.15,.13,.08,.05,.15,.1,.23,.18,.05,0,.13,.08,.18,.13,.05,0,.1,.08,.15,.1,.13,.08,.28,.18,.4,.23,.13,.08,.28,.15,.4,.23,.2,.1,.4,.23,.63,.35h.1s.05,0,.1-.03v-.1s0-.05-.03-.1c-.25-.15-.5-.28-.75-.43-.13-.05-.25-.15-.35-.2-.13-.08-.25-.15-.38-.23-.13-.08-.25-.18-.38-.25-.13-.08-.25-.18-.38-.25-.23-.18-.45-.35-.68-.53-.3-.28-.6-.5-.9-.78-.1-.08-.18-.18-.28-.28,0,0-.03,0-.05-.05-.05-.05-.08-.08-.13-.1-.05-.03-.1-.08-.1-.15,0-.03-.08-.08-.13-.1,0,0-.05-.05-.05-.08-.08-.08-.1-.15-.18-.2h-.08s-.08-.05-.13,0v-.08l.03-.05Z" fill="#7b493f"/><path d="M52.91,7.85s-.05,0-.08,.05v.15h.03s.1,.08,.13,.13c.05,.05,.1,.1,.13,.15,.1,.08,.15,.18,.23,.25,.18,.18,.35,.4,.55,.58,.15,.18,.35,.33,.53,.53,.15,.15,.33,.33,.5,.48,.08,.08,.15,.15,.23,.23,0,0,.08,.08,.13,.08h-.03s.03,0,.05,.03c0,0,.08,.05,.1,.08h0s.18,.18,.3,.28c.15,.15,.33,.3,.45,.45,.08,.08,.15,.15,.23,.23,.1,.1,.18,.18,.28,.3h.08s.05,.03,.1,0c.05-.03,.05-.13,.05-.15-.08-.08-.13-.15-.18-.2-.08-.08-.13-.15-.2-.23-.1-.15-.25-.25-.38-.38h.03s-.05-.03-.08-.08h.03s-.03,0-.05-.03h.03s-.03,0-.05-.03h-.05v-.05s-.03,0-.05-.05c-.18-.18-.4-.35-.6-.55-.35-.33-.73-.68-1.05-1.05-.18-.18-.38-.38-.53-.55-.15-.18-.33-.35-.5-.55-.08-.08-.15-.15-.23-.23h-.08l-.08,.15h.05Zm2.53,2.75h0Z" fill="#7b493f"/><path d="M54.49,6.62s-.05,.05-.05,.1,0,.08,.03,.13c.05,.1,.13,.18,.2,.28,.05,.08,.1,.1,.13,.18,.08,.08,.13,.15,.2,.23,.05,.08,.12,.1,.17,.18,.23,.25,.48,.5,.7,.75s.45,.5,.68,.75c.1,.15,.23,.25,.33,.4,.1,.1,.17,.2,.28,.33,.3,.35,.6,.73,.9,1.08,.05,.08,.15,.08,.23,0,.08-.05,.08-.15,0-.23-.45-.53-.88-1.05-1.3-1.6-.05-.08-.1-.15-.15-.18-.05-.08-.12-.1-.15-.18-.1-.15-.23-.25-.33-.4-.23-.25-.45-.5-.7-.73-.13-.15-.28-.3-.43-.48-.05-.08-.1-.1-.15-.18-.03,0-.05-.05-.07-.08-.1-.1-.18-.23-.25-.35,0,0-.05-.05-.08-.05-.05,0-.08,0-.13,.03h-.03l-.03,.03Z" fill="#7b493f"/><path d="M56.94,4.77s-.05,.13-.03,.15c.2,.2,.38,.45,.6,.65s.38,.45,.58,.65l.58,.65c.15,.2,.35,.38,.5,.58,.08,.13,.2,.25,.3,.35l.3,.4s.15,.2,.23,.3c.08,.1,.13,.2,.2,.3,.08,.13,.18,.23,.25,.35,.05,.08,.1,.15,.15,.23,.15,.23,.28,.43,.43,.65,.18,.28,.38,.55,.53,.83,0,0,.05,.08,.08,.08h.08s.08-.03,.08-.05v-.08c-.08-.15-.2-.3-.28-.43-.08-.13-.18-.28-.28-.43-.08-.13-.18-.25-.23-.38-.08-.1-.13-.23-.23-.33-.1-.13-.2-.3-.3-.43-.08-.1-.13-.18-.2-.28-.1-.13-.2-.28-.3-.4,0-.03-.08-.08-.1-.1-.08-.08-.13-.18-.2-.25-.15-.2-.3-.4-.48-.58-.1-.13-.2-.25-.33-.38-.1-.1-.2-.25-.3-.35-.18-.2-.38-.4-.55-.65-.15-.18-.33-.35-.48-.53-.15-.18-.33-.35-.48-.53h-.08s-.08-.03-.13,0l.1-.1-.03,.08Z" fill="#7b493f"/><path d="M60.19,7.2s-.08,.13-.05,.2c.08,.15,.15,.28,.23,.43,.05,.08,.08,.13,.13,.23,.05,.08,.1,.15,.15,.23,.18,.25,.35,.5,.53,.73,.18,.23,.38,.5,.55,.75,.18,.23,.33,.45,.5,.7,.08,.1,.13,.23,.18,.33,.08,.1,.13,.23,.18,.33,.13,.2,.23,.4,.35,.6,.05,.08,.13,.1,.2,.08,.08-.05,.1-.13,.08-.2-.18-.28-.33-.58-.5-.85-.08-.13-.15-.25-.23-.38-.05-.08-.08-.13-.15-.2-.05-.05-.08-.1-.1-.13-.08-.13-.2-.28-.28-.4-.1-.13-.2-.28-.3-.4-.08-.13-.2-.28-.3-.38-.1-.1-.15-.2-.25-.33-.08-.1-.15-.2-.23-.3-.05-.08-.08-.13-.15-.23-.05-.08-.08-.13-.13-.2-.08-.15-.15-.33-.25-.48,0-.03-.05-.08-.1-.08h-.08l.03-.05Z" fill="#7b493f"/><path d="M68.63,28.39c1.2,4.76,3.55,6.88,3.08,7.28-.83,.68-9.49-4.46-9.16-11.34,.23-4.58,4.38-8.46,5.61-7.93,1.23,.53-1.23,5.23,.48,11.99Z" fill="#ff851b"/><path d="M48.3,14.35c-1.05,.2-2,.88-2.68,1.38,0,0-1.93,1.4-3.1,3.68-2.05,3.98-.98,12.04,4.63,16.17,3.48,2.58,7.36,2.63,9.04,2.55,.5-1.4,1.1-3.4,1.45-5.88,.43-3.08,.9-6.46-.48-10.04-1.6-4.1-5.61-8.43-8.86-7.83v-.03Z" fill="#ff851b"/><path d="M31.84,20.11c-7.46-3.25-12.86-5.98-16.67-8.01-2.1-1.13-6.46-3.5-11.69-2.88C.65,9.55,.17,10.37,.07,10.67c-.33,.88,.48,1.8,1.3,3.18,1.9,3.18,1.28,4.43,2.38,6.36,2.03,3.63,5.96,2.03,11.54,5.93,2.85,1.98,5.93,4.15,6.58,7.58,.98,5.26-3.03,11.59-7.48,13.14-1.38,.48-2.13,.38-3.8,1.3-2.85,1.55-5.61,4.61-4.91,6.08,.7,1.48,4.58,1.03,6.33,.83,3.95-.45,6.83-1.95,8.01-2.6,3.85-2.15,4.93-3.98,11.09-9.59,2-1.83,3.68-3.23,4.73-4.05-1.33-6.23-2.63-12.49-3.95-18.72h-.05Z" fill="#ef7c00"/><path d="M58.94,13.18h-.68c-.18,0-.38,0-.5,.05h-.88c-.23,0-.48,.05-.68,.08h-2.1c-.23,0-.35,.05-.5,.05-.25,0-.48,.05-.68,.08-.25,0-.48,.08-.7,.1-.15,0-.3,.05-.43,.08,0,0-.15,0-.23,.05l-.68,.15-.3,.08h-.03s-.28,.05-.4,.1c-.28,.08-.53,.13-.73,.18h-.1s-.18,.05-.28,.05c-.13,0-.23,.05-.35,.05h-.13s-.2,0-.3,.05c0,0-.1,0-.18,.05,0,0,.03,.08,.05,.1,0,0,.08,.08,.1,.13,0,0,.05,.1,.08,.13,.15,.2,.3,.43,.43,.63,0,0,.13,.2,.2,.3,.2,.3,.43,.63,.63,.9l.05,.08s.08,.13,.13,.18v.05s.13,.13,.18,.18c0,0,.05,.05,.05,.08,0,0,.05,.1,.08,.13,.03,.05,.08,.1,.1,.15l.05,.08s.13,.18,.18,.25c0,0,.08,.13,.13,.2,0,0,.1,.18,.15,.23l.08,.15s.2,.2,.3,.3c.1,.13,.2,.23,.3,.35v.05s.1,.08,.13,.13c0,0,.05,.08,.08,.1,.05,.08,.1,.13,.15,.2h.03v.08h.03s.13,.2,.18,.28c.05,.08,.13,.18,.18,.23,.25,.3,.48,.63,.65,.85,.05,.08,.1,.13,.13,.18,0,0,.1,.18,.15,.2l.28,.38,.05,.05s.08,.13,.1,.18v.1s.15,.18,.2,.23c.05,.1,.1,.18,.13,.25v.05s.03,.1,.05,.13v.18s.08,.05,.15,.1c.18,.1,.38,.18,.53,.25h.05s.2,.15,.35,.2h.03s.13,.1,.18,.13h.05s.23,.15,.33,.2c.08,.05,.15,.1,.23,.15h.05s.08,.08,.1,.1c.05,.05,.1,.08,.15,.13l.13,.08,.08,.05s.23,.15,.35,.2c.15,.1,.3,.2,.48,.38,.05,.05,.13,.13,.23,.2,.08,.08,.18,.13,.25,.18,.03,0,.05,.05,.05,.08v.1s-.05,.05-.1,.05h-.08c-.15-.1-.3-.2-.45-.33h-.05s-.15-.05-.23-.08c.15,.13,.33,.23,.5,.35,0,0-.2-.1-.3-.13-.25-.13-.48-.2-.7-.25-.15-.05-.3-.1-.45-.13h-.2c-.2,0-.4-.05-.6-.05h-.15s-.25,0-.35,.05c-.05,0-.1,0-.15,.05-.08,0-.15,.05-.23,.1-.1,.05-.2,.1-.3,.18-.05,0-.1,.08-.13,.1,0,0-.13,.1-.18,.15-.15,.18-.3,.33-.45,.6-.08,.13-.15,.28-.2,.45,0,0-.03,.18-.05,.23v.1c-.05,.2-.08,.4-.1,.63v1.03s0,.13,.03,.18v.1h.03v.13c.03,.2,.1,.4,.18,.63,.03,.1,.08,.2,.13,.35,0,0,.08,.2,.1,.28,.1,.2,.2,.43,.28,.6,0,0,.13,.25,.2,.4,.05,.08,.08,.18,.13,.23,0,.05,.05,.08,.08,.13,0,0,.05,.1,.1,.15,0,0,.08,.18,.13,.23,0,0,.03,.05,.05,.1,.1,.18,.23,.38,.35,.55,0,0,.05,.08,.08,.13l.05,.08s.13,.15,.18,.2c0,0,.05,.08,.08,.1,.15,.2,.33,.4,.5,.6,0,0,0,.05,.03,.05,.1,.1,.18,.18,.28,.25l.13,.13c.2,.18,.4,.28,.6,.38h.05c.05,0,.13,.05,.2,.08h-.1s.05,.05,.08,.08v.08s0,.05-.03,.08h-.1s-.18,.08-.23,.08h-.13s-.1,.05-.15,.05h-.53s-.13,0-.18,.05h-.03v.13s-.03,.15-.05,.2v.75s0,.18,.03,.23v.4s.05,.25,.1,.43c.03,.15,.1,.28,.15,.4,.03,.05,.05,.13,.1,.2l.1,.15s.05,.08,.1,.13c0,0,.05,.05,.08,.08,.05,.05,.1,.1,.15,.13h.03v.05h.03s.05,.05,.05,.08h.03c.05,0,.08,.05,.08,.1v.05h1.45c.15,0,.28-.05,.43-.08,.18,0,.33-.05,.5-.08h1.93c.08,0,.15,0,.23-.05,.2-.05,.38-.08,.58-.13l.18-.05s.15,0,.23-.05h.15c.05,0,.13,0,.18-.05,.05,0,.13,0,.2-.05h.1s.18-.05,.28-.08h.5c.08,0,.15,0,.23-.05h.05s.2-.05,.33-.08h.18l.18-.05h.13s.15,0,.25-.05c.25-.05,.5-.08,.73-.1h.48s.18-.05,.25-.05h.38c.1,0,.23,0,.35-.05h.18l.18-.05s.2,0,.3-.05h.1s.2,0,.3-.05h1.28s.18-.08,.25-.13c.05,0,.1-.05,.15-.08h.05l.08-.05s.28-.13,.4-.2c.18-.1,.33-.2,.48-.28h.05l.08-.1s.08-.05,.13-.08c0,0,.08-.05,.13-.08,.1-.05,.2-.13,.3-.18l.05-.05s.15-.1,.23-.15c0,0,.05,0,.08-.05h-.03s0-.13-.08-.18c-.03,0-.08-.05-.13-.08-.03,0-.08-.05-.13-.05h-.05s-.05-.05-.08-.05l-.1-.05s-.05,0-.08,.05c-.03,0-.08,.05-.1,.05,0,0-.05-.05-.08-.08,0,0-.05,0-.05-.05h-.05c-.08-.05-.15-.1-.2-.13-.03,0-.05-.05-.1-.08,0,0-.05-.05-.08-.05h-.05s-.05-.05-.08-.08h-.03s-.1-.1-.13-.15c-.08-.05-.13-.13-.18-.18-.08-.08-.13-.13-.2-.2l-.05-.05-.05-.05-.05-.05h-.03s-.08-.13-.13-.15c-.03,0-.08-.08-.1-.1-.1-.13-.2-.23-.3-.35-.03,0-.05-.05-.08-.1-.05-.08-.1-.13-.15-.2,0,0-.13-.2-.18-.25-.05-.05-.1-.13-.15-.18,0,0-.13-.18-.2-.25-.05-.08-.13-.15-.18-.2-.08-.1-.15-.18-.2-.25-.13-.18-.28-.3-.4-.45-.05-.05-.08-.1-.13-.15,0,0-.03-.05-.05-.08-.05-.05-.1-.13-.18-.2-.13-.15-.25-.3-.4-.45l-.1-.1s-.08-.08-.1-.13c-.05-.05-.1-.1-.13-.18l-.05-.08-.05-.05s-.23-.25-.33-.4c-.1-.15-.25-.3-.35-.48l-.23-.33-.15-.2-.3-.43s-.15-.2-.23-.3-.13-.2-.2-.3v-.05s-.05-.13-.08-.18c-.03-.08-.08-.15-.1-.2-.05-.15-.1-.28-.13-.38-.03-.13-.05-.25-.1-.4-.05-.2-.08-.35-.08-.5v-.9c0-.18,0-.35,.03-.55,0-.18,.05-.33,.08-.48v-.13c.08-.38,.13-.78,.23-1.15,0-.05,.03-.13,.05-.18v-.08l.05-.08s0-.08,.03-.13c.05-.18,.1-.35,.18-.53,.05-.15,.13-.3,.2-.53,.15-.33,.33-.63,.5-.95,.1-.15,.23-.35,.38-.53,.15-.2,.33-.35,.48-.5,.13-.13,.28-.23,.4-.35l.05-.05s.08-.08,.1-.1c.05,0,.08-.08,.13-.1,.08-.08,.15-.13,.23-.2,.15-.13,.33-.25,.48-.35,.15-.13,.3-.2,.5-.35,.13-.1,.25-.18,.38-.25,.05,0,.1-.08,.15-.1,0,0,.15-.1,.23-.15,.1-.05,.18-.13,.28-.18l.1-.08s.08-.05,.1-.08c.08-.05,.15-.1,.23-.15,.05,0,.1-.05,.13-.08,0,0,.03,0,.05-.05,0,0,.1,.13,.15,.18h.05s.2-.1,.28-.2c.03,0,.08-.08,.08-.13v-.05l-.05-.05s-.15-.15-.2-.2c0,0-.1-.13-.18-.18v-.05h-.05s-.05-.1-.08-.13c-.08-.08-.15-.13-.2-.18-.1-.08-.18-.13-.25-.18-.1-.05-.2-.08-.33-.1-.1-.05-.2-.1-.28-.13-.05,0-.1-.05-.13-.05,0,0-.08-.05-.13-.05-.08,0-.15-.08-.25-.13,0,0-.23-.13-.35-.18-.13-.05-.2-.1-.3-.13-.05,0-.08,0-.13-.05-.05,0-.13-.05-.18-.08-.08,0-.15-.05-.23-.08h-.03s-.23-.1-.35-.15c-.13-.05-.28-.1-.45-.18h-.1l-.08-.05c-.23-.08-.43-.15-.63-.2h-.05s-.18-.08-.28-.1c-.1-.05-.23-.08-.33-.13-.1-.05-.2-.1-.3-.13h-.05s-.13-.08-.18-.1c-.18-.08-.38-.15-.55-.2,0,0-.13-.05-.2-.05h-.1l-.2-.1h-.08c-.2-.1-.43-.15-.63-.2s-.43-.1-.7-.15c-.2,0-.43-.05-.63-.08h-.1c-.15,0-.3,0-.45-.05h-1.25v.23Z" fill="#ff851b"/><path d="M72.51,17.58h-.23s-.08,0-.1,.03c-.05,0-.08,.03-.13,.05h-.03s-.05,.03-.08,.05c-.05,.03-.08,.05-.13,.1h-.03s.13,.13,.2,.15c0,0-.03,.08-.05,.1,0,0,0,.05-.03,.08-.05,.05-.08,.1-.13,.18v.05s-.05,.05-.08,.05c-.05,.05-.08,.13-.13,.2-.05,.1-.1,.18-.15,.25-.08,.1-.13,.2-.23,.3-.03,.05-.08,.08-.1,.13,0,0-.08,.13-.13,.18,0,0-.15,.23-.23,.33,0,0-.15,.23-.2,.33-.05,.05-.08,.13-.13,.18-.1,.13-.18,.3-.28,.45-.1,.18-.18,.3-.23,.45-.08,.18-.15,.33-.23,.5-.08,.18-.15,.38-.23,.58-.05,.15-.15,.4-.2,.65-.03,.13-.05,.25-.08,.38v.05l-.08,.3s0,.1-.03,.15v.15l-.05,.2v.18l-.05,.1v.05c-.03,.18-.08,.38-.13,.55-.05,.23-.08,.45-.1,.7v.4c0,.13,0,.25,.03,.3v.05s0,.13,.03,.2v.1c0,.13,.05,.25,.1,.4v.05s.08,.2,.1,.3c.05,.13,.08,.23,.13,.33,.05,.13,.08,.23,.13,.3,0,.05,.03,.08,.05,.13,0,0,.05,.13,.08,.2,.05,.1,.13,.23,.18,.35,.03,.05,.05,.1,.1,.15,0,0,.05,.1,.08,.15,.05,.08,.1,.15,.13,.2l.05,.1s.08,.13,.13,.2c0,0,0,.08,.03,.08,.05,.1,.13,.2,.18,.28v.05s.1,.18,.18,.25c.05,.05,.08,.13,.13,.18l.05,.08s.1,.15,.15,.2v.05l.15,.15s.05,.08,.1,.13c.05,.05,.1,.13,.13,.18h.03l.05,.1s.13,.18,.18,.25c0,0,.15,.23,.25,.33,.08,.1,.15,.18,.23,.28,.08,.1,.18,.2,.25,.3,0,0,.1,.1,.15,.15,.03,.03,.08,.08,.1,.13,.1,.13,.23,.25,.35,.4,.1,.1,.2,.2,.33,.3l.08,.08,.05,.05s.13,.1,.18,.15c.03,.03,.08,.05,.13,.08,0,0,.1,.05,.18,.08h.28s.13-.03,.18-.05c.03,0,.08-.03,.1-.05,0,0,.05,0,.08-.03,.05,0,.1-.05,.15-.08h.05s.1-.08,.15-.13c.1-.08,.23-.15,.3-.25,.1-.08,.18-.18,.28-.25l.05-.05s.05-.05,.1-.08l.08-.05s.05-.05,.08-.08c.05-.05,.1-.1,.15-.13l.08-.05s.05-.05,.1-.1c0,0,.05-.05,.08-.08h.03s.15-.18,.23-.25c.03-.03,.05-.08,.1-.1,.03-.03,.08-.08,.1-.1,.08-.08,.13-.15,.2-.23,.05-.05,.1-.13,.15-.2,0,0,.08-.13,.13-.18,0,0,.15-.18,.2-.28,.05-.05,.08-.13,.13-.18,.1-.15,.18-.25,.25-.38,0-.03,.05-.05,.08-.1,0,0,.05-.05,.05-.08v-.05l.05-.05s.05-.05,.05-.08c.05-.05,.1-.13,.13-.18,0,0,.08-.1,.13-.15,.03-.05,.05-.08,.1-.13v-.05s.1-.1,.15-.15h.03s.1-.15,.15-.2c.03-.03,.05-.05,.08-.08,0,0,.05-.05,.08-.08,.13-.1,.25-.2,.35-.25,.05,0,.08-.05,.13-.05h.08v-.05s.13-.05,.18-.1c.08-.05,.13-.08,.18-.1,.08-.05,.15-.13,.23-.23,.05-.05,.08-.13,.13-.2,.03-.05,.05-.1,.08-.18,.03-.08,.05-.15,.05-.23v-.18c0-.13,0-.25-.03-.33,0-.1-.05-.23-.1-.35v-.05s-.1-.23-.18-.33c-.13-.23-.28-.4-.45-.53-.08-.05-.15-.1-.25-.15,.1-.08,.2-.15,.3-.25,.05-.05,.1-.1,.15-.15l.05-.08h.03s.1-.15,.15-.23c.03-.05,.08-.1,.1-.18,.03-.05,.05-.1,.08-.15,.03-.08,.05-.13,.05-.2v-.2c0-.13,0-.23-.03-.33v-.05c-.03-.15-.05-.28-.1-.4-.05-.15-.13-.28-.2-.38-.1-.1-.2-.23-.33-.33-.03-.03-.05-.05-.08-.08-.05-.05-.13-.1-.18-.18l-.05-.05s-.13-.13-.2-.2c-.15-.18-.3-.35-.43-.55-.05-.08-.13-.15-.18-.23-.13-.18-.23-.3-.23-.33-.1-.15-.98-1.35-3.23-2.6-.28-.15-2.03-1.25-2.03-1.25Z" fill="#ff851b"/><path d="M32.04,34l.1,.2c.05,.08,.08,.15,.1,.2,.08,.18,.18,.35,.25,.58,.08,.18,.13,.38,.18,.58,0,0,.03,.13,.05,.18,0,0,.03,.13,.05,.18,.03,.13,.05,.23,.08,.3v.08s0,.1,.03,.13c.05,.15,.08,.28,.13,.4v.05s.05,.1,.08,.15c0,.03,.03,.08,.05,.1,0,.03,.03,.05,.05,.08,0,.05,.05,.1,.08,.15,0,0,.05,.15,.1,.2,0,.05,.03,.08,.05,.1,.03,.08,.08,.18,.13,.25,.05,.05,.08,.1,.13,.18,.03,.03,.05,.08,.08,.1,.03,.05,.08,.08,.1,.13,0,0,.08,.13,.13,.18,0,.03,.03,.05,.03,.08,.1-.03,.18-.05,.25-.05,.1,0,.2-.03,.3-.03h.23s.13,.08,.15,.13c.03,.08,.03,.18,0,.23v.05h.9c.25,0,4.66-4.71,5.18-5.03,.53-.3,1.35-.63,2.63-.55,.45,.5,1.1,1.13,2.05,1.65,.55,.3,1.05,.5,1.5,.65,0-.08-.03-.2-.1-.3,0-.05-.05-.1-.08-.13-.05-.1-.1-.2-.18-.3,0,0-.03-.05-.03-.08-.08-.18-.15-.33-.23-.5l-.08-.18v-.08l-.1-.23c-.1-.28-.2-.55-.3-.88v-.05h-.05v-.05s-.13-.23-.18-.33c-.03-.08-.08-.18-.1-.25v-.05s-.15-.33-.28-.6c-.1-.23-.18-.4-.23-.6-.05-.13-.08-.23-.13-.38,0,0-.05-.18-.08-.25v-.05h-.03c-.05-.18-.13-.38-.18-.55v-.15h-.05v-.05c-.03-.15-.08-.28-.1-.4-.03-.1-.05-.23-.08-.3,0,0-.05-.23-.05-.3v-.13s-.08-.18-.1-.25l-.05-.15s-.05-.18-.1-.25v-.05c-.05-.13-.08-.23-.13-.35-.1-.25-.18-.5-.23-.7-.05-.18-.1-.38-.15-.53v-.2c-.15-.45-.23-.88-.3-1.3,0-.1-.05-.18-.08-.28,0-.08-.05-.18-.08-.25-.03-.13-.08-.28-.1-.4-.05-.18-.1-.38-.13-.53v-.1l-.08-.3v-.08s-.05-.18-.08-.28c-.05-.25-.1-.48-.15-.68-.05-.25-.13-.53-.18-.8-.05-.23-.08-.45-.1-.65v-.25c0-.13-.05-.28-.05-.43v-.33c-.33,.58-1.15,1.9-2.78,2.58-1.35,.58-2.55,.45-3.3,.38-2.33-.28-3.95-1.55-4.66-2.2,.05,.28,.08,.73-.05,1.2-.05,.3-.13,.38-.15,.63-.08,.5-.8,1-.7,1.58,.18,.88-.08,1,.1,1.78,.1,.5,.3,.9,.43,1.13v.15c0,.05,0,.08,.03,.13,0,.08,.05,.13,.08,.2,0,0,.03,.1,.03,.15v.1c-.18,.18-.38,.45-.43,.8-.05,.35,.13,.45,.13,.83,0,.48,.6,.25,.4,.9-.05,.2-.18,.63-.08,1.13,.08,.43,.23,.43,.3,.8,.1,.53-.18,.55-.15,1.25,0,0,.03,.58,.25,1.1l.08,.08Z" fill="#ff851b"/><path d="M63.32,28.14c-.18-.4-.53-.6-.65-.68-1.78-1.03-3.18-3.98-6.11-4.35-.58-.08-1.75-.23-2.68,.43-2.45,1.75-2.25,8.68,1.3,10.24,3.55,1.58,7.76-3.5,8.11-4.56,.23-.65,.03-1.1,.03-1.1v.03Z" fill="#ef7c00"/><path d="M63.32,27.34s-.08,.13-.1,.18c-.05,.08-.08,.15-.1,.23-.05,.15-.08,.3-.1,.48,0,.15-.05,.3-.05,.45v1.5s0,.2,.05,.3c.03,.15,.08,.33,.1,.48,.05,.18,.1,.35,.15,.5,.03,.1,.08,.18,.1,.28,.05,.08,.08,.15,.13,.23s.1,.15,.15,.2c.05,.08,.1,.15,.18,.23,.05,.08,.13,.15,.18,.23,.05,.08,.1,.13,.18,.2,.05,.08,.13,.13,.18,.18,.08,.05,.13,.13,.2,.18,.15,.13,.3,.23,.45,.33,.1,.08,.18,.13,.28,.2,.05,.03,.08,.08,.13,.1,.05,.05,.13,.13,.23,.08,.05,0,.08-.03,.1-.08,0-.03,.03-.08,0-.13,0-.03,0-.05-.05-.08l-.05-.05s-.05-.03-.05-.05c-.03,0-.08-.05-.1-.08-.08-.05-.15-.13-.23-.18-.15-.1-.3-.23-.45-.33-.08-.05-.13-.1-.2-.18-.08-.08-.13-.13-.2-.2-.13-.13-.25-.28-.35-.43-.08-.1-.15-.2-.23-.33-.08-.13-.15-.25-.2-.38-.08-.2-.15-.4-.2-.63,0-.1-.05-.23-.08-.33,0-.1-.05-.2-.05-.3v-.48c0-.15,0-.28,.03-.43v-.4c0-.13,0-.28,.03-.4,0-.1,0-.2,.03-.3,0-.1,0-.2,.03-.3,0-.08,.03-.15,.05-.23,.03-.08,.08-.13,.1-.2,.05-.08,0-.18-.05-.25h-.1s-.13,.03-.15,.08l.08,.1Z" fill="#ff851b"/><path d="M63.9,28.92s-.03,.05-.03,.08v.1s0,.1-.03,.15v.18s0,.23-.03,.33v.5s0,.13,.03,.18c0,.13,.05,.23,.08,.33,.03,.13,.08,.25,.13,.35,.05,.1,.1,.2,.15,.3s.13,.18,.18,.28c.05,.05,.07,.1,.12,.15,.05,.05,.13,.05,.18,0,0,0,.03-.05,.05-.1,0-.03,0-.05-.03-.08,0,0-.03-.05-.05-.05-.08-.1-.15-.2-.2-.33-.03-.05-.08-.13-.1-.18-.03-.05-.05-.13-.1-.2,0-.05-.05-.13-.05-.18,0-.08-.03-.15-.05-.2,0-.08-.03-.13-.05-.2,0-.05-.03-.13-.03-.2v-.88s.03-.18,.05-.28c0,0,0-.05-.03-.08,0,0-.05-.03-.08-.03,0,0-.05,0-.08,.03h-.05v.03Z" fill="#ff851b"/><path d="M55.41,23.31s-.13,.05-.13,.1c0,.08,.05,.1,.1,.13,0,0,.18,.05,.28,.08,.1,.03,.23,.05,.33,.08,.1,.03,.2,.05,.3,.1,.1,.03,.2,.08,.3,.1h.03s.18,.08,.25,.13c.1,.05,.18,.08,.25,.13,.18,.1,.35,.2,.5,.33,.08,.05,.18,.13,.25,.18,.08,.05,.18,.13,.25,.18,.18,.13,.33,.23,.5,.35,.08,.05,.15,.13,.23,.2,0,0-.05-.03-.05-.05,.1,.08,.2,.18,.3,.25,0,0-.05-.03-.05-.05,.08,.08,.18,.13,.25,.2,.08,.08,.18,.15,.25,.23,.1,.08,.23,.18,.33,.25,.2,.15,.4,.3,.58,.45,.03,.03,.08,.05,.1,.08,.15,.13,.33,.25,.48,.4l-.18-.1c-.2-.1-.38-.2-.58-.33-.18-.1-.38-.2-.55-.3l-.6-.3c-.18-.1-.38-.18-.58-.28s-.38-.18-.58-.28c-.18-.08-.38-.18-.55-.25-.2-.1-.38-.18-.58-.28s-.4-.2-.6-.28c-.1-.05-.18-.08-.28-.13l-.3-.15c-.2-.1-.38-.18-.58-.25s-.38-.18-.58-.25c-.1-.03-.2-.08-.28-.1-.1-.03-.18-.08-.28-.08h-.25s-.1,.05-.13,.1v.05s.05,.08,.13,.08h.13c.15,.03,.3,.1,.45,.15h.03c.18,.08,.35,.18,.53,.25,.2,.1,.38,.18,.58,.28,.18,.1,.38,.2,.58,.28,.2,.1,.4,.18,.6,.28s.38,.2,.58,.28c.18,.1,.38,.18,.55,.28,.38,.18,.75,.38,1.13,.58,.2,.1,.38,.2,.58,.3,.2,.1,.38,.2,.58,.3,.1,.05,.18,.1,.28,.15l.3,.15s.18,.1,.25,.15l.3,.15c.15,.08,.3,.18,.45,.25l.45,.23,.45,.23s.1,.05,.13,.05c0,0,.05,.03,.08,.05,.05,.03,.08,.05,.13,.05h.1s.1-.05,.15-.1c.03-.05,.05-.13,.03-.18,0-.03,0-.05-.03-.08,0,0-.03-.05-.05-.08s-.08-.05-.1-.1c-.05-.03-.08-.08-.13-.1-.13-.1-.28-.23-.4-.33-.15-.13-.3-.25-.45-.38-.3-.25-.6-.5-.9-.75-.2-.15-.4-.3-.58-.48-.13-.1-.25-.2-.38-.28-.15-.13-.28-.25-.43-.38-.15-.13-.3-.25-.45-.4-.08-.08-.15-.13-.23-.2-.1-.08-.2-.15-.3-.23-.08-.05-.15-.1-.23-.18-.08-.05-.18-.13-.25-.18-.13-.1-.28-.2-.43-.28v.05s-.05,.05-.1,.05h-.08c-.15-.1-.3-.23-.45-.35h-.05s-.15-.05-.25-.08c-.13-.03-.23-.05-.3-.08-.08,0-.18,0-.25-.03h-.13s-.18-.03-.28-.03h-.48Z" fill="#7b493f"/><path d="M62.8,29.15s-.1,.05-.12,.08c-.05,.05-.13,.08-.18,.13-.05,.03-.08,.08-.1,.1-.05,.05-.07,.08-.12,.1-.1,.08-.2,.15-.28,.23-.08,.08-.15,.13-.23,.2-.15,.15-.33,.28-.48,.4-.18,.15-.35,.28-.55,.4-.2,.15-.4,.3-.6,.45-.23,.15-.45,.3-.65,.45-.2,.15-.43,.28-.63,.43-.1,.08-.2,.15-.3,.2-.1,.08-.23,.13-.33,.2-.2,.13-.4,.28-.63,.4-.1,.05-.18,.1-.28,.13-.1,.03-.17,.05-.28,.08h-.13s-.13,0-.18,.08c-.03,.03-.05,.08-.07,.13,.03,0,.05,0,.07,.05,0,0,.03,.05,.03,.08h.05s.05,.05,.08,.08v.08h.28s.15-.03,.23-.05c.13-.05,.28-.1,.4-.15,.23-.1,.45-.23,.65-.35,.2-.13,.43-.25,.63-.38,.23-.15,.45-.28,.65-.43,.3-.2,.6-.4,.88-.6,.15-.1,.28-.2,.4-.3,.1-.08,.2-.15,.3-.2,.1-.08,.18-.13,.28-.2,.08-.08,.18-.13,.25-.2,.15-.13,.3-.25,.45-.38,.08-.05,.13-.13,.2-.2,.08-.08,.15-.15,.25-.23,.08-.08,.13-.15,.2-.23,.03-.03,.05-.08,.1-.1,.05-.05,.1-.1,.13-.18,.05-.1,.05-.23-.03-.3-.05-.05-.1-.08-.18-.08-.05,0-.07,0-.12,.03l-.05,.08Z" fill="#7b493f"/><path d="M62.72,28.97h-.05s-.05,0-.1,.03c0,0-.03,0-.05,.03l-.15,.08-.3,.15c-.23,.13-.43,.25-.65,.38-.1,.05-.2,.13-.3,.18-.13,.05-.23,.13-.35,.2-.23,.13-.43,.25-.65,.38-.2,.1-.4,.23-.6,.35-.23,.13-.45,.23-.68,.35-.2,.1-.4,.23-.63,.33s-.43,.23-.65,.33c-.38,.2-.75,.4-1.15,.55-.13,.05-.25,.1-.38,.13-.13,.05-.25,.08-.4,.1h-.05s-.1,.13-.1,.18c0,.08,.1,.13,.18,.13h.05s.1,0,.13-.03h.03c.18-.05,.35-.1,.53-.15,.25-.08,.48-.18,.7-.28s.45-.18,.68-.28c.23-.1,.45-.2,.7-.3l.3-.15s.23-.1,.35-.18c.23-.1,.45-.2,.65-.3,.45-.23,.88-.48,1.33-.7,.15-.08,.3-.15,.45-.25,.15-.08,.28-.18,.43-.25,.13-.08,.28-.18,.4-.25,.13-.1,.28-.18,.4-.28h-.03s.08-.05,.1-.08c.03,0,.05-.05,.08-.08,.03-.05,.05-.1,.05-.15s0-.08-.03-.13c-.03-.05-.1-.1-.15-.13h-.08v.1Z" fill="#7b493f"/><path d="M62.67,28.52s-.13,.03-.18,.05c-.08,.03-.18,.05-.25,.1-.13,.05-.25,.1-.38,.15-.23,.08-.43,.18-.65,.25-.23,.1-.43,.18-.65,.28-.2,.1-.43,.18-.63,.28-.23,.08-.45,.18-.65,.28-.2,.08-.38,.18-.58,.25h-.05s-.13,.05-.18,.08c-.15,.05-.28,.13-.43,.18-.13,.05-.25,.1-.35,.15-.15,.05-.33,.13-.48,.18-.08,.03-.18,.05-.25,.1-.1,.03-.2,.08-.3,.13-.05,0-.13,.05-.18,.08h.05l-.43,.15c-.15,.05-.3,.1-.45,.15-.15,.05-.3,.1-.45,.13-.08,0-.15,.03-.23,.05-.08,0-.18,.03-.25,.05,0,0-.05,0-.08,.05,0,.03-.03,.08,0,.1,0,.05,.05,.1,.13,.1h.15c.18-.03,.38-.08,.55-.1l.35-.1s.23-.05,.33-.08c.23-.05,.43-.08,.65-.13l.63-.18c.15-.05,.28-.08,.43-.13,.15-.05,.28-.1,.43-.15,.18-.08,.35-.13,.53-.2l.1-.05h.03c.35-.15,.73-.28,1.08-.43,.13-.05,.23-.08,.33-.13,.13-.05,.28-.1,.4-.18,.25-.1,.48-.2,.73-.3,.18-.08,.38-.13,.55-.2,.18-.08,.35-.15,.55-.23,.08-.03,.18-.05,.25-.1,.05-.03,.1-.08,.13-.1,.05-.08,.05-.15,.03-.23-.03-.15-.15-.23-.3-.23h-.08l.05-.08Z" fill="#7b493f"/><path d="M62.75,28.72h-.18s-.1,0-.15,.03c-.1,0-.2,.03-.3,.05h-.1c-.15,.03-.3,.05-.45,.05h-.6c-.25,0-.5,.05-.75,.1-.13,0-.23,.03-.35,.05-.13,.03-.23,.03-.35,.05-.13,.03-.23,.05-.35,.08-.13,0-.25,.05-.38,.05-.25,.03-.48,.08-.73,.13-.13,0-.25,.05-.38,.08-.13,0-.23,.05-.35,.05-.25,.05-.48,.08-.73,.13-.13,0-.25,.05-.38,.08-.13,0-.25,.05-.38,.05-.28,.05-.53,.08-.8,.1-.2,0-.4,.03-.63,.05h-.75s-.15,.1-.15,.2c0,.05,0,.1,.05,.15,.03,.03,.08,.05,.13,.05h1.33c.15,0,.28-.03,.43-.05,.25-.03,.5-.05,.73-.1,.13,0,.23-.03,.35-.05,.13,0,.23-.03,.35-.05,.25-.03,.5-.08,.78-.13,.25-.03,.48-.08,.73-.1l.55-.08c.18,0,.38-.05,.55-.1,.2-.03,.38-.05,.58-.08,.18,0,.35-.05,.53-.08,.15,0,.33-.05,.48-.05h.25s.18,0,.28-.03c.1,0,.18,0,.28-.03,.18,0,.35-.05,.5-.08,.1,0,.18-.03,.28-.08,.05,0,.08-.05,.13-.08,.03-.03,.08-.08,.08-.13v-.13s-.03-.08-.05-.1c-.05-.05-.1-.08-.15-.08l.1,.05Z" fill="#7b493f"/><path d="M63.02,28.14h-.13c-.2,0-.38,0-.58,.03h-.63c-.2,0-.43,0-.63,.03h-2.6c-.2,0-.43,.03-.63,.05-.23,0-.45,.03-.68,.05-.23,0-.45,.03-.65,.05-.2,.03-.43,.03-.65,.05-.23,0-.45,0-.68,.03-.2,0-.38,.03-.58,.03h-1.7s-.05,0-.08,.05c0,.03-.03,.08,0,.1,0,.05,.05,.1,.13,.1h2.73c.45,0,.88-.05,1.33-.08h6.08s.18,0,.25-.05c0,0,.08-.05,.1-.1,.08-.13,.05-.3-.1-.38-.05-.03-.1-.05-.15-.05h-.08l-.1,.1Z" fill="#7b493f"/><path d="M52.78,26.89s-.1,.1-.1,.18c0,.1,.08,.18,.18,.18,.23,0,.43,.05,.63,.08h.1c.48,.08,.95,.13,1.43,.2,.45,.08,.9,.1,1.38,.15,.28,.03,.55,.08,.85,.13h-.03s.23,.03,.35,.05c.1,0,.23,.03,.33,.03,.25,0,.48,.03,.73,.05,.48,.03,.95,.08,1.43,.1,.45,.05,.9,.08,1.38,.13,.23,.03,.45,.05,.68,.1,.2,.03,.4,.05,.63,.08h.08s.23-.08,.25-.18c.03-.13-.05-.28-.18-.3h-.35s-.23,0-.33-.03c-.1,0-.2,0-.33-.03-.13,0-.23-.03-.35-.05-.48-.05-.95-.08-1.43-.1-.48-.03-.95-.08-1.43-.1-.23,0-.45,0-.68-.03-.25,0-.48-.05-.73-.08-.23-.03-.45-.05-.68-.08-.23,0-.48-.05-.7-.05s-.45-.03-.68-.05-.48-.05-.7-.08c-.28-.03-.55-.08-.83-.1-.28-.03-.53-.08-.8-.1h-.05l-.05-.1Z" fill="#7b493f"/><path d="M52.83,24.99s-.08,.03-.1,.08c0,.03-.03,.08,0,.13,0,.03,.03,.08,.08,.1h.03l.05,.05s.05,0,.08,.03h.05s.05,0,.08,.03c.18,.08,.35,.13,.53,.18,.2,.05,.4,.13,.6,.18,.38,.1,.75,.2,1.1,.33,.18,.05,.35,.1,.55,.15,.2,.05,.43,.1,.63,.18,.38,.1,.75,.2,1.13,.3,.2,.05,.38,.1,.58,.15,.2,.05,.38,.1,.58,.15,.38,.1,.75,.2,1.1,.3,.48,.13,.93,.25,1.38,.38,.1,.03,.23-.03,.25-.15,.03-.1-.03-.23-.13-.25-.38-.1-.75-.23-1.13-.33-.4-.1-.8-.23-1.2-.33-.1,0-.2-.05-.28-.08-.08-.03-.2-.05-.28-.08-.2-.05-.4-.1-.58-.15-.2-.05-.38-.1-.58-.15l-.55-.13c-.18-.05-.38-.1-.55-.13-.2-.05-.38-.1-.58-.15-.4-.1-.78-.23-1.18-.33-.25-.05-.48-.13-.73-.2-.13-.03-.25-.08-.38-.1-.1-.03-.2-.08-.3-.13-.05,0-.1-.05-.18-.08h-.1v.05h.03Z" fill="#7b493f"/><path d="M69.15,23.21s-.08,.05-.05,.08c.05,.13,.1,.28,.15,.4,.05,.13,.1,.23,.15,.35,.05,.13,.13,.25,.18,.35,.08,.13,.13,.23,.2,.33,.15,.23,.3,.45,.48,.68l.53,.6s.2,.2,.28,.3c.1,.1,.18,.2,.28,.28,.1,.08,.2,.18,.3,.28,.1,.1,.23,.18,.33,.25,.2,.18,.4,.3,.63,.45,.05,.03,.1,.08,.18,.1,.05,.03,.13,.08,.18,.1,.13,.05,.25,.13,.38,.18,.13,.05,.23,.1,.35,.15,.13,.05,.25,.08,.38,.13,.05,0,.13,.03,.18,.05,.05,0,.13,.03,.18,.05,.05,0,.13,.03,.18,.05,.08,0,.13,.03,.2,.05,.15,.03,.3,.05,.45,.08,.13,0,.25,.03,.4,.05,.1,0,.18,.03,.28,.05s.18,.05,.25,.08c.13,.05,.25,.13,.35,.23,.05,.05,.1,.1,.15,.15,.05,.05,.08,.1,.13,.15,.05,.08,.1,.15,.15,.23,.05,.1,.13,.18,.2,.25,.03,.03,.05,.08,.1,.1,.03,.03,.08,.05,.1,.1,.05,.03,.08,.08,.13,.1,.03,0,.08,.05,.1,.05h.08s.08,0,.13-.05c.03-.03,.05-.08,.05-.13s0-.08-.05-.13c-.05-.05-.1-.08-.18-.13-.1-.1-.2-.2-.28-.3-.03-.05-.05-.1-.1-.13-.03-.05-.08-.1-.1-.15-.05-.08-.1-.13-.13-.18-.05-.05-.08-.1-.13-.15-.05-.05-.13-.1-.18-.15-.05-.03-.1-.08-.15-.1-.13-.08-.25-.13-.38-.15-.05,0-.1-.03-.18-.05-.05,0-.13,0-.2-.03-.25-.05-.53-.05-.78-.08-.13,0-.25-.05-.38-.08-.13-.03-.25-.05-.38-.1-.25-.08-.5-.15-.73-.23-.08-.03-.13-.05-.2-.08-.05,0-.1-.05-.15-.08s-.13-.05-.18-.1c-.05-.03-.13-.08-.18-.1-.05-.03-.1-.08-.18-.1-.1-.08-.2-.13-.33-.2-.1-.08-.2-.15-.3-.23-.03-.03-.08-.05-.1-.1-.1-.08-.2-.18-.3-.25-.1-.1-.2-.18-.3-.28-.18-.2-.38-.38-.55-.58-.13-.13-.25-.25-.35-.38-.05-.08-.13-.15-.18-.2-.05-.08-.1-.13-.15-.2-.03-.05-.05-.08-.1-.13-.05-.05-.08-.1-.1-.15-.08-.1-.15-.23-.2-.33-.13-.23-.23-.43-.3-.65-.03-.1-.08-.2-.1-.3,0-.03-.03-.05-.05-.05l-.08-.05Z" fill="#ff851b"/><path d="M77.24,26.84h-.28s-.2,0-.28,.03c-.03,0-.05,.03-.08,.05v.08s.03,.05,.05,.08c.03,.03,.05,0,.08,0h.9s.08,0,.13,.03c.08,0,.15,.05,.23,.08,.1,.05,.18,.08,.25,.13l.15,.1s.08,.05,.13,.08c.08,.08,.18,.13,.28,.2,.05,.03,.1,.05,.13,.08,.05,.03,.13,.05,.2,.1h.08s.08-.03,.1-.08c.05-.08,0-.15-.05-.2-.05-.05-.13-.08-.18-.1s-.13-.08-.18-.13c-.1-.08-.2-.15-.33-.23-.05-.05-.13-.08-.18-.1-.08-.03-.13-.08-.2-.1-.13-.05-.25-.1-.4-.13-.1,0-.2,0-.28-.03h-.25v.08h-.03Z" fill="#ef7c00"/><path d="M79.04,25.72s-.1,.13-.15,.18c-.05,.05-.13,.08-.18,.1,0,0-.18,.08-.28,.1-.05,0-.1,.03-.15,.05-.08,0-.13,.05-.2,.08-.08,.05-.1,.15-.08,.23,0,.05,.05,.08,.1,.08h.13s.18-.08,.28-.13c.1-.05,.18-.1,.25-.13,.08-.05,.18-.08,.25-.15,.08-.05,.15-.13,.2-.2,0-.03,.03-.05,.03-.08s0-.05-.03-.08c0-.03-.05-.05-.08-.05,0,0-.05,0-.08,.03h-.03v-.03Z" fill="#ef7c00"/><path d="M78.41,24.44s0,.05-.03,.08c-.05,.1-.13,.23-.2,.3-.03,.05-.08,.1-.13,.13-.05,.05-.1,.1-.15,.13-.1,.08-.18,.18-.28,.23-.05,.03-.1,.08-.15,.1s-.13,.08-.18,.1c-.13,.08-.25,.15-.35,.23-.05,.05-.1,.08-.15,.13-.05,.05-.1,.1-.15,.15-.05,.05-.1,.13-.13,.18-.03,.05-.05,.13-.08,.18-.03,.05-.05,.13-.08,.18v.08s.05,.05,.08,.05h.08s.05-.05,.05-.08c0-.05,.05-.1,.05-.13,0-.05,.05-.1,.08-.15,.03-.05,.05-.1,.1-.13,.03-.05,.08-.08,.1-.13,.05-.05,.08-.08,.13-.1,.1-.08,.2-.13,.33-.2,.05-.03,.13-.05,.18-.1,.05-.03,.13-.05,.18-.08,.13-.08,.25-.15,.35-.25,.1-.08,.2-.18,.3-.28,.08-.08,.15-.18,.23-.28s.13-.2,.15-.3c0-.08,0-.18-.1-.2h-.05s-.13,.05-.15,.13v.05h-.03Z" fill="#ef7c00"/><path d="M72.91,21.56c-.2,0-.38,.08-.53,.18-.05,.05-.13,.1-.18,.18-.03,.03-.05,.05-.08,.1-.08,.13-.18,.25-.23,.38,0,.08-.05,.15-.05,.2,0,.08-.05,.15-.08,.23,0,.03,.05,.05,.05,0,.03-.1,.05-.18,.08-.28,0-.08,.05-.15,.08-.23,.03-.05,.05-.13,.1-.18,.05-.05,.08-.1,.13-.15,0,0,.05-.05,.05-.08,.05-.05,.1-.1,.15-.13,.08-.05,.13-.08,.2-.1,.05,0,.13-.03,.18-.05h.25s.25,.08,.35,.13c.1,.05,.18,.08,.25,.13,.08,.05,.18,.1,.25,.18,.1,.08,.2,.18,.3,.28,.1,.1,.18,.18,.28,.28,.13,.18,.23,.38,.3,.58,.05,.15,.1,.3,.1,.48v.48c-.03,.18-.08,.35-.15,.5,0,.05-.05,.08-.05,.13s-.05,.08-.08,.13c-.08,.08-.15,.15-.23,.23l-.15,.08h-.35s-.25-.05-.38-.08h-.05s-.08,0-.13,.03-.1,.08-.13,.15c-.03,.08,0,.13,0,.18,.03,.05,.08,.1,.15,.13,.15,.03,.3,.08,.48,.1s.35,.03,.53,0c.08-.03,.18-.05,.25-.1,.08-.05,.15-.1,.2-.18,.08-.05,.13-.13,.18-.2,0-.03,.05-.05,.05-.08,.03-.05,.05-.1,.08-.15,.03-.05,.05-.13,.08-.2,.03-.08,.03-.13,.05-.2,.03-.15,.05-.33,.05-.48v-.48s-.03-.15-.05-.23c0-.08-.05-.15-.08-.23-.05-.13-.13-.28-.2-.4-.03-.05-.08-.13-.13-.18-.05-.08-.1-.13-.15-.18-.1-.1-.23-.2-.35-.3-.13-.1-.25-.2-.38-.28-.05-.03-.13-.08-.18-.1-.08-.03-.15-.08-.23-.1-.08-.03-.15-.05-.23-.08h-.1s-.18-.03-.25-.03h-.05Z" fill="#ef7c00"/><path d="M64,15.4c-.15,0-.3,.05-.48,.1-.08,0-.15,.05-.23,.08-.08,.03-.18,.1-.25,.15-.08,.05-.15,.13-.2,.23-.05,.1-.1,.15-.13,.25-.03,.08-.03,.15-.03,.25,0,.08,.03,.18,.05,.25,0,.05,.05,.13,.08,.18,.05,.08,.1,.15,.15,.23,0,.03,.05,.05,.08,.08,.05,.05,.08,.08,.13,.1,.03,0,.08,.03,.1,.05,.05,0,.1,0,.15-.05,.05-.03,.08-.08,.08-.15,0-.05,0-.13-.05-.15-.05-.05-.08-.1-.13-.13-.03-.05-.08-.08-.1-.13-.05-.08-.08-.15-.1-.23v-.13s0-.05,.03-.08c.03-.05,.08-.1,.1-.15,.03-.03,.08-.05,.1-.08,.08-.05,.15-.08,.23-.1,.05,0,.13-.03,.18-.05,.1,0,.18-.03,.25-.05,.1,0,.18-.13,.18-.23s-.1-.18-.2-.18h-.03l.05-.08Z" fill="#ef7c00"/><path d="M60.22,17.76s-.2,.08-.3,.18c-.05,0-.08,.05-.18,.08l-.13,.08s-.13,.08-.18,.18c-.2,.2-.25,.53-.18,.78,.05,.2,.13,.43,.25,.58,.13,.18,.25,.38,.38,.5,.08,.08,.18,.18,.3,.25,.08,.08,.2,.13,.3,.13h.2s.18-.05,.2-.13c.13-.08,.18-.25,.08-.38-.05-.13-.2-.2-.33-.2-.05,0-.13-.08-.18-.13-.08-.08-.13-.13-.18-.2-.05-.08-.08-.13-.13-.2-.08-.13-.13-.25-.2-.43v-.13s.08-.08,.13-.08c.13-.05,.2-.13,.33-.18,.08-.05,.18-.13,.2-.2v-.3s-.2-.2-.33-.2h-.08Z" fill="#ef7c00"/><path d="M59.17,14.18s-.2,.08-.33,.15c-.03,.03-.08,.08-.1,.15s-.08,.15-.08,.2v.35s.03,.15,.08,.18c.03,.1,.1,.18,.15,.28,0,.03,.08,.1,.15,.1h.18s.18-.18,.1-.28c0-.08-.08-.15-.1-.2,0-.08-.03-.1-.08-.18v-.25h.15c.15,0,.25,.08,.35,.15h.18s.1-.08,.1-.15v-.18s-.08-.1-.15-.1c-.18-.1-.43-.18-.63-.18h.03v-.05Z" fill="#ef7c00"/><path d="M56.49,17.73s-.18,.1-.23,.13c-.1,.1-.13,.18-.23,.28-.1,.1-.13,.23-.18,.35v.45s0,.13,.05,.18c0,.05,0,.13,.05,.18,0,.05,.05,.1,.1,.13,.1,.13,.13,.28,.23,.4,.1,.13,.28,.18,.4,.1,.1,0,.13-.1,.18-.18v-.28c-.1-.18-.23-.4-.3-.58v-.23c.1-.13,.18-.23,.28-.3,.05-.05,.1-.18,.05-.28,0-.1-.05-.18-.13-.23-.05,0-.13-.05-.18-.05h-.05v-.1l-.05,.03Z" fill="#ef7c00"/><path d="M53.64,14.48s-.23,.1-.38,.15c-.1,.05-.23,.1-.33,.2-.2,.15-.28,.38-.23,.63,0,.2,.1,.38,.15,.58,.1,.23,.28,.48,.48,.63,.2,.1,.38,.1,.53-.1,.05-.1,.1-.2,.05-.28v-.1s-.05-.1-.1-.15c0,0-.05-.1-.1-.1-.05-.1-.1-.2-.15-.33,0-.05,0-.15-.05-.2,0,0,.28-.15,.43-.2,.2-.1,.28-.33,.23-.53-.05-.1-.15-.2-.23-.23h-.33l.05,.05-.03-.03Z" fill="#ef7c00"/><path d="M55.56,20.44s-.3,0-.45,.1c-.1,0-.18,.1-.28,.13-.1,.1-.18,.18-.18,.3v.3s0,.1,.05,.18c0,0,0,.1,.05,.1,0,0,0,.05,.05,.1,.05,.05,.1,.1,.13,.13,.05,.05,.13,.13,.18,.18,.05,.05,.13,.05,.23,.05s.13-.05,.18-.13c0-.05,.05-.13,.05-.23s-.05-.13-.13-.18c0,0-.13-.13-.23-.23v-.13h.1s.23,0,.3-.05c.13,0,.28-.18,.23-.3,0-.13-.13-.23-.28-.23h-.05l.05-.1Z" fill="#ef7c00"/><path d="M51.63,16.93s-.08,0-.13,.05c-.05,0-.08,.05-.13,.08-.08,.05-.15,.13-.2,.15-.15,.15-.23,.35-.23,.58,0,.13,0,.23,.05,.35,.05,.13,.08,.23,.15,.35,.13,.2,.3,.35,.55,.35,.08,0,.13,0,.15-.05,.05,0,.08-.08,.08-.15s0-.13-.05-.15c-.05-.05-.08-.08-.15-.08h-.05s-.08-.13-.13-.15c-.05-.08-.08-.15-.13-.2v-.2s0-.08,.05-.13c0,0,0-.05,.05-.08,.08-.08,.15-.15,.28-.2,.05,0,.08-.13,.08-.15,0-.08,0-.15-.05-.2-.05-.05-.13-.08-.15-.08h-.08v-.13l.03,.03Z" fill="#ef7c00"/><path d="M48.2,15.35s-.15,0-.23,.08c-.13,.05-.23,.15-.3,.23-.08,.13-.15,.23-.2,.35v.38s0,.13,.05,.2c0,.08,.08,.15,.13,.23,0,.08,.08,.13,.13,.15,.05,.05,.08,.13,.15,.15,.05,.08,.13,.13,.2,.13s.15,0,.23-.08c.13-.13,.15-.3,.05-.43-.08-.08-.15-.15-.2-.28,0-.05-.05-.08-.08-.15v-.28s0-.05,.05-.08h.38s.15,0,.23-.08c.08-.05,.13-.13,.13-.2,0-.15-.13-.35-.28-.35h-.38l-.05,.03Z" fill="#ef7c00"/><path d="M47.5,19.81s-.33,.15-.48,.3c-.1,.15-.18,.33-.23,.48,0,.18,.03,.4,.15,.6,.03,.1,.1,.18,.18,.25,.08,.08,.15,.15,.18,.18,.08,.08,.15,.1,.25,.15h.15s.15-.03,.18-.1c.03-.08,.08-.15,.03-.23,0-.08-.03-.15-.1-.18-.1-.08-.18-.15-.3-.23-.08-.08-.1-.1-.15-.18,0-.08-.08-.1-.08-.18v-.25s0-.08,.03-.08c0,0,.08-.03,.1-.08,.03,0,.08-.03,.15-.08h.48s.23-.08,.23-.18-.08-.23-.18-.23h-.4s-.18,0-.3,.03h.08l.05-.03Z" fill="#ef7c00"/><path d="M51.23,21.24s-.13,.05-.2,.08c-.08,0-.13,.08-.15,.13,0,.05-.08,.13-.08,.15,0,.08-.05,.13-.05,.2,0,.13,0,.28,.05,.4,.05,.2,.2,.35,.3,.5,.05,.05,.08,.08,.15,.08,.05,0,.13,0,.15-.05,.08-.08,.13-.2,0-.28-.08-.08-.13-.15-.2-.28,0-.05-.05-.13-.08-.15v-.3s0-.05,.05-.05l.08-.08s.08,0,.08-.05h.5s.15-.08,.2-.15c0-.08-.08-.15-.15-.2h-.4s-.2,0-.28,.05h.03Z" fill="#ef7c00"/><path d="M45.25,18.06s-.18,.08-.28,.1c-.08,.03-.18,.08-.25,.13-.13,.1-.2,.28-.18,.45,0,.13,.08,.28,.1,.4,.08,.18,.2,.35,.35,.45,.13,.08,.28,.08,.38-.08,.03-.08,.08-.13,.03-.2v-.08s-.03-.08-.08-.1c0,0-.03-.08-.08-.08-.03-.08-.08-.13-.1-.25,0-.03,0-.1-.03-.13,0,0,.2-.1,.3-.13,.13-.08,.2-.25,.18-.38-.03-.08-.1-.13-.18-.18h-.2l.03,.05Zm-.1,.68s0,.03,0,0h0Z" fill="#ef7c00"/><path d="M47.53,24.62s-.45,.1-.63,.2c-.2,.05-.35,.15-.5,.3-.05,.05-.1,.15-.15,.2v.2c0,.15,0,.3,.1,.45,0,.05,.05,.15,.1,.2,.05,.05,.1,.15,.1,.2,.05,.1,.1,.15,.2,.25,.2,.2,.35,.35,.58,.55,.15,.1,.4,.1,.5-.1,.05-.1,.1-.2,.05-.25,0-.1-.05-.2-.15-.25-.05-.05-.1-.1-.2-.15-.1-.05-.1-.1-.15-.15-.05-.05-.1-.15-.15-.2-.1-.15-.15-.25-.2-.45q-.02-.08,0,0c.05,.2,0,0,0,0l.3-.15s.25-.05,.4-.1c.1,0,.2-.05,.25-.15,.05-.1,.1-.15,.05-.25,0-.1-.05-.2-.15-.25-.05,0-.15-.05-.2-.05h-.05l-.1-.05Z" fill="#ef7c00"/><path d="M52.06,23.91s-.33,0-.48,.1c-.1,0-.2,.1-.28,.15-.1,.1-.2,.2-.2,.33v.33s0,.1,.05,.2c0,0,0,.1,.05,.1,0,0,0,.05,.05,.1,.05,.05,.1,.1,.15,.15,.05,.05,.15,.15,.2,.2,.05,.05,.15,.05,.25,.05s.15-.05,.2-.15c0-.05,.05-.15,.05-.25s-.05-.15-.15-.2c0,0-.15-.15-.25-.25v-.15h.1s.25,0,.33-.05c.15,0,.28-.2,.25-.33,0-.15-.15-.25-.28-.25h-.05l.05-.1-.05,.03Z" fill="#ff851b"/><path d="M51.86,28.64s-.05,0-.08,.03c-.03,0-.05,.03-.08,.05-.05,.03-.1,.08-.13,.1-.1,.1-.15,.23-.15,.38,0,.08,0,.15,.03,.23s.05,.15,.1,.23c.08,.13,.2,.23,.35,.23,.05,0,.08,0,.1-.03,.03,0,.05-.05,.05-.1s0-.08-.03-.1-.05-.05-.1-.05h-.03s-.05-.08-.08-.1c-.03-.05-.05-.1-.08-.13v-.13s0-.05,.03-.08c0,0,0-.03,.03-.05,.05-.05,.1-.1,.18-.13,.03,0,.05-.08,.05-.1,0-.05,0-.1-.03-.13-.03-.03-.08-.05-.1-.05h-.05v-.08Z" fill="#ff851b"/><path d="M51.33,26.22s-.23,.08-.33,.15c-.03,.03-.08,.08-.1,.15s-.08,.15-.08,.23v.35s.03,.15,.08,.18c.03,.1,.1,.18,.15,.28,0,.03,.08,.1,.15,.1h.18s.18-.18,.1-.28c0-.08-.08-.15-.1-.23,0-.08-.03-.1-.08-.18v-.25h.15c.15,0,.25,.08,.35,.15h.18s.1-.08,.1-.15v-.18s-.08-.1-.15-.1c-.18-.1-.43-.18-.65-.18h.03l.03-.05Z" fill="#ff851b"/><path d="M49.93,29.02s-.38,.18-.55,.35c-.13,.18-.23,.38-.25,.55,0,.23,.05,.48,.18,.68,.05,.13,.13,.23,.23,.3,.08,.08,.18,.18,.23,.23,.08,.08,.18,.13,.3,.18h.18s.18-.05,.23-.13c.05-.08,.08-.18,.05-.25,0-.08-.05-.18-.13-.23-.13-.08-.23-.18-.35-.25-.08-.08-.13-.13-.18-.23,0-.08-.08-.13-.08-.23v-.3s0-.08,.05-.08c0,0,.08-.05,.13-.08,.05,0,.08-.05,.18-.08h.55c.13,0,.25-.08,.25-.23s-.08-.25-.23-.25h-.48s-.23,0-.35,.05h.08l-.03-.03Z" fill="#ef7c00"/><path d="M50.73,30.65s-.1,.03-.15,.08c-.08,0-.1,.08-.13,.1,0,.03-.08,.1-.08,.13,0,.08-.03,.1-.03,.15,0,.1,0,.23,.03,.33,.03,.15,.15,.3,.25,.43,.03,.03,.08,.08,.13,.08,.03,0,.1,0,.13-.03,.08-.08,.1-.15,0-.23-.08-.08-.1-.13-.15-.23,0-.03-.03-.1-.08-.13v-.25s0-.03,.03-.03l.08-.08s.08,0,.08-.03h.43s.13-.08,.15-.13c0-.08-.08-.13-.13-.15h-.33s-.15,0-.23,.03v-.05Z" fill="#ff851b"/><path d="M52.21,32.42s-.23,.1-.33,.2c-.08,.1-.13,.23-.15,.33,0,.13,.03,.28,.1,.4,.03,.08,.08,.13,.13,.18,.05,.05,.1,.1,.13,.13,.05,.05,.1,.08,.18,.1h.1s.1-.03,.13-.08c.03-.05,.05-.1,.03-.15,0-.05-.03-.1-.08-.13-.08-.05-.13-.1-.2-.15-.05-.05-.08-.08-.1-.13,0-.05-.05-.08-.05-.13v-.18s0-.05,.03-.05c0,0,.05-.03,.08-.05,.03,0,.05-.03,.1-.05h.33s.15-.05,.15-.13-.05-.15-.13-.15h-.28s-.13,0-.2,.03h.05Z" fill="#ff851b"/><path d="M44.83,29.22s-.13,.05-.2,.08c-.05,.03-.13,.05-.18,.1-.1,.08-.15,.2-.13,.33,0,.1,.05,.2,.08,.3,.05,.13,.15,.25,.25,.33,.1,.05,.2,.05,.28-.05,.03-.05,.05-.1,.03-.15v-.05s-.03-.05-.05-.08c0,0-.03-.05-.05-.05-.03-.05-.05-.1-.08-.18,0-.03,0-.08-.03-.1,0,0,.15-.08,.23-.1,.1-.05,.15-.18,.13-.28-.03-.05-.08-.1-.13-.13h-.15v.03Zm-.08,.5s0,.03,0,0h0Z" fill="#ef7c00"/><path d="M50.46,25.59s-.13,.05-.2,.08c-.05,.03-.13,.05-.18,.1-.1,.08-.15,.2-.13,.33,0,.1,.05,.2,.08,.3,.05,.13,.15,.25,.25,.33,.1,.05,.2,.05,.28-.05,.03-.05,.05-.1,.03-.15v-.05s-.03-.05-.05-.08c0,0-.03-.05-.05-.05-.03-.05-.05-.1-.08-.18,0-.03,0-.08-.03-.1,0,0,.15-.08,.23-.1,.1-.05,.15-.18,.13-.28-.03-.05-.08-.1-.13-.13h-.15v.03Zm-.08,.5s0,.03,0,0h0Z" fill="#ef7c00"/><path d="M47.03,31.47s-.38,.08-.53,.18c-.18,.05-.28,.13-.4,.25-.05,.05-.08,.13-.13,.18v.18s0,.25,.08,.38c0,.05,.05,.13,.08,.18,.03,.05,.08,.13,.08,.18,.05,.08,.08,.13,.18,.2,.18,.18,.28,.28,.5,.45,.13,.08,.33,.08,.4-.08,.05-.08,.08-.18,.05-.2,0-.08-.05-.18-.13-.2-.05-.05-.08-.08-.18-.13-.1-.05-.08-.08-.13-.13-.05-.05-.08-.13-.13-.18-.08-.13-.13-.2-.18-.38,.05,.18,0,0,0,0l.25-.13s.2-.05,.33-.08c.08,0,.18-.05,.2-.13,.05-.08,.08-.13,.05-.2,0-.08-.05-.18-.13-.2-.05,0-.13-.05-.18-.05h-.05l-.08-.05,.03-.05Z" fill="#ef7c00"/><path d="M50.86,34.08s-.3,0-.43,.08c-.08,0-.18,.08-.25,.13-.08,.08-.18,.18-.18,.3v.3s0,.08,.05,.18c0,0,0,.08,.05,.08,0,0,0,.05,.05,.08s.08,.08,.13,.13c.05,.05,.13,.13,.18,.18,.05,.05,.13,.05,.23,.05s.13-.05,.18-.13c0-.05,.05-.13,.05-.23s-.05-.13-.13-.18c0,0-.13-.13-.23-.23v-.13h.08s.23,0,.3-.05c.13,0,.25-.18,.23-.3,0-.13-.13-.23-.25-.23h-.05l.05-.08-.05,.05Z" fill="#ef7c00"/><path d="M61.12,13.65s-.25,.08-.3,.18c-.05,.05-.05,.13-.08,.2v.13s0,.08,.03,.13c0,.05,.03,.08,.05,.13,0,.05,.05,.1,.08,.15,.08,.13,.18,.23,.28,.33h.03s.05,.05,.08,.05c.05,0,.1,0,.13-.03,.03-.03,.05-.08,.05-.13s0-.1-.03-.13c-.08-.08-.15-.18-.23-.28l-.08-.15s-.03-.08-.05-.13v-.13h.03c.15,.05,.3,.13,.43,.18,.08,.03,.15,0,.18-.08v-.1s-.05-.05-.08-.08c-.1-.05-.23-.1-.33-.15-.1-.03-.18-.08-.28-.08h.1v-.03Z" fill="#ff851b"/><path d="M63.7,14.95h-.05s-.05,0-.05,.03c-.03,0-.05,.05-.08,.08v.05s-.03,.05-.03,.08v.23s.03,.1,.05,.13c0,.05,.05,.1,.08,.15s.05,.1,.1,.15c.08,.13,.15,.25,.23,.38,0,.03,.05,.05,.08,.05h.15s.08-.05,.1-.1v-.15s-.13-.2-.18-.3c-.03-.05-.05-.1-.08-.13,0,0-.03-.05-.05-.08,0-.03-.05-.08-.05-.13,0-.03-.03-.05-.03-.1v-.05h.05s.25,.08,.35,.13c.08,.03,.18,0,.2-.1,.03-.08,0-.18-.1-.2-.1-.05-.23-.1-.33-.13-.08-.03-.15-.05-.25-.05h-.1v.08h-.03Z" fill="#ff851b"/><path d="M65.62,14.95s-.13,.05-.15,.08c-.03,.03-.08,.08-.08,.13s-.03,.1-.03,.13c0,.1,0,.18,.05,.28,.03,.08,.08,.13,.1,.18s.05,.08,.08,.13c.03,.03,.05,.05,.08,.05h.15s.1-.05,.1-.13v-.15s-.1-.15-.13-.23h.03s.05,.03,.1,.05c.05,.03,.1,.05,.15,.03,.05,0,.1-.05,.13-.08,.03-.05,.05-.1,.05-.15s-.05-.1-.08-.13c-.08-.05-.15-.08-.23-.13-.03,0-.05-.03-.08-.03s-.08-.03-.13-.03h-.13Z" fill="#ff851b"/><path d="M61.49,22.54s-.1,.05-.13,.08c-.03,.03-.05,.08-.08,.1,0,.03-.03,.08-.05,.13v.18s.05,.13,.08,.18l.08,.13s.13,.2,.18,.3c.03,.05,.08,.08,.13,.08s.1,0,.15-.05c.05-.03,.08-.08,.08-.13v-.05s0-.08-.05-.1c-.05-.08-.08-.13-.13-.2-.05-.08-.1-.18-.13-.25,0,0,0-.03,.03-.03,.1,0,.23,.03,.33,.05,.05,0,.1,0,.13-.05,.05-.03,.05-.08,.08-.13,0-.05,0-.1-.05-.13-.03-.05-.08-.05-.13-.08-.08,0-.18-.03-.28-.05h-.1s-.13,0-.18,.03h.05Zm.15,.3s0,.03,0,0h0Z" fill="#ef7c00"/><path d="M61.22,23.39s-.28,.08-.4,.08c-.1,0-.18,.03-.28,.08-.13,.03-.3,.13-.4,.25-.08,.08-.1,.13-.13,.25v.28s0,.1,.03,.18c0,.03,0,.08,.03,.1,0,.08,.08,.13,.1,.2,.08,.1,.18,.25,.25,.35,.08,.1,.28,.13,.38,.03,.08-.03,.1-.1,.1-.18s0-.13-.08-.2c-.08-.1-.13-.2-.2-.3,0-.08-.08-.1-.08-.18v-.1s.08-.08,.1-.1c.08,0,.1-.03,.18-.08,.18-.03,.35-.08,.53-.1,.13,0,.2-.13,.2-.28,0-.1-.1-.2-.25-.2h-.08v-.08Z" fill="#ff851b"/><path d="M60.72,33.93s-.08,.2-.13,.3v.18s0,.15,.03,.2c.03,.13,.13,.2,.2,.25,.05,.05,.13,.08,.18,.15,.13,.08,.25,.15,.4,.18,.18,0,.33-.08,.35-.23,0-.08,0-.15-.05-.23-.05-.05-.13-.13-.2-.13,0,0-.05-.03-.13-.05-.08-.03-.13-.08-.18-.15v-.05l.05-.13c.05-.15,0-.33-.15-.4h-.13s-.23,.05-.3,.18v-.05l.05-.03Z" fill="#ef7c00"/><path d="M63.9,32.4c-.15,0-.33,0-.43,.13-.08,.08-.13,.2-.08,.3,0,.05,.03,.15,.08,.2,.03,.03,.05,.08,.13,.13,.03,.03,.05,.05,.13,.08,0,0,.03,0,.05,.03,.03,0,.05,.03,.13,.05,.05,0,.08,.03,.15,.05h.2s.08,0,.13-.03,.08-.08,.08-.15,0-.13-.03-.15c-.03-.05-.08-.08-.15-.08h-.05s-.15-.05-.2-.08c.13,0,.2-.13,.2-.23s-.13-.2-.2-.2h-.08l-.05-.05Z" fill="#ef7c00"/><path d="M58.42,35.93l-.15,.05s-.18,.05-.2,.13c-.03,.03-.05,.08-.08,.13v.25s0,.05,.03,.08c0,.03,.05,.08,.08,.13,.05,.05,.15,.13,.2,.18,.08,.05,.18,.13,.25,.15,.13,.05,.25,0,.33-.13,0-.05,.03-.13,0-.18,0-.05-.05-.13-.13-.15,0,0-.05,0-.05-.03-.08-.05-.18-.13-.23-.18,.03,0,.05,0,.08-.03,.13-.03,.18-.18,.15-.3-.03-.08-.13-.15-.23-.15h-.05v.05Z" fill="#ef7c00"/><path d="M65.5,34.7s-.08,.05-.15,.05h.03s-.08,.03-.13,.05c-.08,.05-.13,.13-.18,.2,0,.05,0,.08-.03,.15v.13s.08,.13,.13,.18c.03,.03,.08,.05,.15,.08,.03,0,.05,.05,.13,.05,.05,.03,.13,.08,.18,.13h.13s.13-.03,.15-.08c.03-.05,.05-.13,.05-.18s-.03-.13-.08-.15c-.05-.03-.13-.08-.18-.13-.03,0-.08-.05-.13-.08h.03s.08-.05,.13-.13c0-.05,.03-.13,0-.18,0-.05-.05-.13-.13-.13h-.08l-.03,.03Z" fill="#ef7c00"/><path d="M63.35,36.08h-.2s-.08,0-.15,.03c-.05,0-.15,.05-.2,.08-.03,0-.05,.05-.08,.08,0,0-.03,.05-.05,.08v.2s.05,.13,.13,.15c.03,.05,.08,.08,.15,.13,.03,.03,.08,.05,.13,.08,.08,.08,.23,.05,.33,0,.03-.05,.05-.13,.05-.18s-.03-.13-.08-.15c-.05-.05-.15-.13-.2-.15h.2s.18-.08,.18-.2c0-.08-.08-.18-.18-.18h.03l-.05,.05Z" fill="#ef7c00"/><path d="M35.66,24.14s-.2,.05-.3,.08c-.05,0-.13,.05-.15,.08-.08,.05-.15,.08-.2,.15-.05,.05-.08,.13-.08,.15,0,.08-.05,.13-.05,.2,0,.13,0,.23,.05,.35,.05,.13,.13,.23,.23,.3,.05,0,.08,.05,.15,.08,.05,0,.13,.05,.15,.05h.2s.13-.05,.15-.08c.08-.08,.13-.15,.08-.28,0-.05-.08-.13-.13-.13h-.2s-.05,0,0,0c0,0-.13-.08-.15-.13v-.15h.05s.23-.08,.35-.13c.08,0,.13-.08,.15-.13v-.2s-.08-.13-.13-.15h-.2v-.13l.03,.05Z" fill="#ef7c00"/><path d="M39.54,30.7s-.2,.13-.28,.23c-.03,.03-.05,.08-.08,.13-.03,.05-.05,.13-.05,.18,0,.1,.05,.18,.08,.25,0,.05,.05,.08,.1,.1,.05,.05,.1,.08,.13,.1,.05,.03,.13,.05,.2,.08,.1,.03,.2,.08,.3,.1,.08,0,.18-.03,.2-.1v-.15s-.05-.1-.1-.1c-.08,0-.13-.05-.2-.08s-.15-.05-.23-.1l-.05-.05v-.08s0-.03,.03-.05c.05-.05,.13-.08,.18-.13,.08-.08,.1-.18,.05-.28-.05-.05-.1-.08-.18-.08-.05,0-.08,0-.1,.03Z" fill="#ef7c00"/><path d="M37.34,26.67s-.3,.18-.4,.33c-.03,.03-.08,.1-.1,.18s-.08,.18-.08,.25c0,.15,.08,.25,.1,.38,0,.08,.08,.1,.15,.15,.08,.08,.15,.1,.18,.15,.08,.03,.18,.08,.3,.1,.15,.03,.3,.1,.45,.15,.1,0,.25-.03,.3-.15v-.23s-.08-.15-.15-.15c-.1,0-.18-.08-.3-.1-.1-.03-.23-.08-.33-.15l-.08-.08v-.1s0-.03,.03-.08c.08-.08,.18-.1,.25-.18,.1-.1,.15-.25,.08-.4-.08-.08-.15-.1-.25-.1-.08,0-.1,0-.15,.03Z" fill="#ef7c00"/><path d="M41.6,28.17s-.13,.05-.18,.1c-.1,.05-.13,.13-.18,.18-.1,.13-.13,.33-.1,.45,0,.1,0,.18,.1,.23,.05,.1,.1,.13,.18,.18,.1,.1,.18,.13,.28,.23,.13,.1,.23,.18,.35,.23h.18s.1-.1,.13-.13v-.18s-.1-.1-.13-.13c-.18-.13-.35-.23-.5-.35,0,0,0-.05-.05-.05v-.23h.05s.1-.05,.13-.1h.4s.1,0,.13-.1c0,0,.05-.1,.05-.13s0-.1-.1-.13c0,0-.1-.05-.13-.05h-.18s-.28,0-.4,.05l-.05-.05,.03-.03Z" fill="#ef7c00"/><path d="M43.62,29.47s-.33,.18-.43,.33c-.05,.1-.1,.18-.1,.28v.33s.05,.1,.1,.15c0,.05,.1,.1,.15,.15,.05,0,.1,.1,.15,.1s.1,.05,.15,.1c.1,0,.15,.1,.23,.15,.15,.1,.28,.15,.43,.23,.15,.08,.38,0,.43-.15,.1-.15,0-.33-.15-.43-.23-.15-.5-.28-.75-.43,0,0-.05,0-.1-.1v-.15h.43c.15,0,.28-.05,.33-.23,0-.15-.1-.28-.23-.33h-.63Z" fill="#ff851b"/><path d="M35.11,28.67s-.13,0-.15,.05c-.03,.05-.13,.05-.15,.08-.08,0-.13,.08-.2,.15,0,.05-.05,.08-.08,.13v.5s0,.13,.08,.15c.05,.13,.13,.23,.23,.3,.13,.08,.23,.13,.35,.2,.13,.05,.2,.08,.3,.13h.23s.13-.08,.15-.15c.03-.08,.05-.15,0-.23,0-.08-.08-.15-.15-.15-.2-.08-.38-.15-.53-.23v-.05s-.05-.13-.08-.15c0,0,.13-.05,.2-.08,.08,0,.15-.08,.2-.15,0-.08,.05-.15,0-.23,0-.08-.08-.15-.15-.2h-.23v-.05l-.03-.03Z" fill="#ef7c00"/><path d="M40.37,24.29c-.2,.08-.43,.18-.55,.43-.05,.13-.05,.3,0,.43,0,.18,.13,.3,.2,.43s.2,.2,.33,.33c.08,.08,.3,.08,.38,0,.08-.08,.08-.3,0-.38l-.25-.25s-.05-.08-.08-.13v-.18s.05,0,.08-.05c.08,0,.13-.05,.2-.08h.13s.18,0,.25,.05c.13,0,.2-.08,.25-.18,0-.13-.05-.2-.18-.25h-.33s-.25,0-.38,.08l-.08-.25h.03Z" fill="#ef7c00"/><path d="M44.45,22.34s-.23,0-.33,.05c-.1,0-.23,0-.33,.1-.05,0-.18,.1-.23,.18-.05,.05-.1,.18-.1,.23v.23s0,.23,.1,.28l.33,.33s.23,.23,.38,.33c.1,.1,.33,.1,.45,0,.1-.1,.1-.33,0-.45-.23-.18-.38-.33-.55-.5h.1s.23,0,.33-.05c.05,0,.18,0,.23-.1,0-.05,.05-.18,.05-.23s0-.18-.1-.23c0,0-.1-.05-.23-.05l-.1-.1Z" fill="#ef7c00"/><path d="M39.74,26.77s-.28,.15-.43,.23c-.1,.05-.18,.18-.18,.28v.38s.1,.15,.15,.18c0,0,.1,.05,.15,.1,.1,.05,.18,.1,.23,.15,.1,.05,.23,.1,.33,.15,.18,.1,.38,0,.45-.15,.08-.15,0-.38-.18-.45-.15-.05-.28-.15-.43-.18,0,0,.1,0,.15-.05,.1,0,.15-.1,.18-.18,0-.1,.05-.18,0-.23,0-.1-.1-.15-.18-.18h-.23l-.03-.05Z" fill="#ff851b"/><path d="M69.05,15.83s-.13,.1-.2,.13h-.08c-.05,0-.13,.05-.15,.08-.03,.03-.1,.08-.13,.1-.05,0-.1,.08-.13,.1l-.2,.18s-.15,.13-.23,.2c-.08,.05-.15,.1-.25,.15-.15,.1-.33,.2-.48,.33-.08,.08-.15,.13-.23,.2-.08,.08-.15,.13-.23,.2-.1,.1-.18,.18-.28,.28-.08,.05-.13,.13-.18,.2-.13,.15-.25,.28-.38,.43-.08,.08-.13,.15-.2,.23-.08,.08-.13,.13-.18,.2-.13,.1-.23,.23-.33,.35-.13,.15-.23,.3-.33,.48-.13,.23-.23,.4-.35,.58-.05,.1-.1,.18-.13,.28-.05,.1-.1,.2-.13,.3-.1,.23-.2,.45-.28,.68,0,.05,0,.1-.05,.18,0,.05,0,.13-.05,.18,0,.13-.08,.23-.1,.35s-.05,.23-.08,.35c-.03,.13-.05,.23-.08,.35-.03,.13-.05,.23-.08,.35,0,.13,0,.23-.05,.35-.05,.23-.05,.48-.08,.68,0,.25-.05,.53-.05,.75v.68c0,.25,.05,.5,.13,.73,.05,.23,.13,.45,.2,.65,.08,.2,.15,.43,.25,.63,.05,.13,.1,.23,.15,.35,.05,.1,.1,.18,.13,.28,.05,.1,.13,.2,.18,.3s.13,.2,.18,.3c.13,.2,.23,.4,.38,.55,.1,.13,.15,.23,.25,.33,.08,.1,.13,.18,.2,.25,0,0,.05,.08,.1,.1,.05,.05,.1,.13,.13,.18,.05,.08,.13,.15,.15,.23,.08,.1,.13,.2,.2,.3,.1,.1,.15,.23,.25,.33,.08,.08,.13,.15,.2,.23,.13,.18,.25,.35,.38,.53,.13,.2,.28,.4,.43,.55,.13,.2,.25,.4,.38,.55,.13,.2,.25,.4,.38,.58,.13,.18,.28,.38,.4,.55,.08,.1,.13,.18,.2,.28,.08,.1,.15,.2,.25,.3,.13,.18,.28,.33,.43,.48,.13,.13,.28,.25,.38,.4,.13,.1,.2,.2,.33,.3,.05,.05,.13,.1,.15,.13,.03,.03,.1,.05,.13,.08h.2s.1,0,.13-.05c0,0,.05,0,.05-.05,.08-.1,.1-.23,0-.35,0-.05-.05-.05-.08-.08,0,0-.08-.05-.1-.08,0,0-.15-.13-.25-.2-.13-.1-.23-.23-.35-.33-.13-.13-.28-.28-.4-.43-.13-.13-.25-.28-.38-.43l-.18-.28s-.13-.18-.2-.28c-.08-.1-.13-.18-.2-.28-.08-.1-.13-.2-.2-.3-.08-.1-.13-.2-.2-.3-.08-.1-.13-.2-.18-.3s-.13-.2-.18-.3-.13-.2-.23-.3c-.15-.2-.3-.43-.45-.6-.1-.13-.18-.25-.28-.38-.08-.1-.15-.2-.23-.3-.13-.13-.2-.28-.3-.43,0,0-.05-.05-.05-.08,0,0-.18-.25-.3-.4-.1-.1-.15-.2-.25-.33-.05-.05-.1-.1-.13-.15,0,0-.05-.05-.08-.08,0,0-.05-.05-.08-.1-.05-.08-.1-.15-.13-.23-.1-.15-.18-.3-.28-.43-.05-.08-.1-.15-.13-.23-.05-.08-.1-.15-.13-.23-.1-.13-.13-.25-.2-.4-.08-.13-.13-.28-.18-.4-.08-.15-.13-.3-.15-.45-.03-.15-.13-.33-.15-.48-.05-.15-.08-.28-.1-.43-.05-.23-.05-.48-.05-.68v-.95c0-.13,0-.28,.05-.43,0-.13,0-.25,.05-.38v-.35c0-.15,.08-.33,.1-.48,0,0,0-.13,.05-.18v-.05c.05-.23,.13-.45,.18-.68,0-.1,.05-.18,.08-.28,.05-.13,.13-.28,.15-.4,.08-.15,.13-.3,.18-.45,.05-.15,.13-.28,.2-.4,.08-.13,.15-.28,.23-.4,0,0,.05-.05,.05-.1,.13-.18,.25-.35,.4-.5l.08-.08,.05-.05,.05-.05s.05-.05,.08-.08c0,0,.08-.08,.1-.1,.1-.1,.2-.2,.28-.3v-.05s.08-.08,.1-.1l.15-.2s.13-.15,.18-.2c0,0,.08-.08,.1-.1,.08-.05,.13-.13,.18-.18l.08-.05s.13-.08,.15-.13c.08-.05,.13-.13,.2-.18,0,0,.15-.13,.23-.18,0,0,.08,0,.1-.05,0,0,.1-.05,.13-.08,.1-.05,.15-.13,.25-.18,.13-.1,.2-.18,.33-.28,0,0,.05-.05,.08-.05,.05,0,.08-.08,.13-.1,0,0,.08-.05,.13-.08,.05,0,.13-.05,.15-.08,.08-.05,.13-.1,.2-.15,.13-.08-.25-.53-.3-.48h.15l.08,.33Z" fill="#ef7c00"/><path d="M72.28,17.58s-.08,0-.1,.03c-.05,0-.08,.03-.13,.05-.03,0-.05,.03-.1,.05,0,0-.08,.08-.13,.1h-.03s-.03,.08-.05,.08l-.05,.05s-.05,.08-.08,.13c0,0,0,.05-.03,.08v.1s-.03,.05-.05,.08c-.05,.05-.1,.13-.15,.18-.05,.05-.13,.13-.18,.2-.1,.15-.2,.3-.3,.48,0,0,0,.03-.03,.05-.05,.08-.1,.13-.15,.18-.08,.1-.13,.18-.2,.28-.1,.15-.2,.33-.28,.5-.08,.18-.18,.35-.25,.53-.03,.05-.05,.13-.1,.18-.05,.08-.1,.13-.18,.2-.05,.05-.08,.08-.13,.13-.08,.08-.1,.2-.05,.3-.03,.05-.05,.08-.08,.13-.05,.08-.1,.15-.15,.23-.05,.08-.1,.15-.13,.23-.08,.15-.15,.3-.23,.48-.03,.08-.08,.18-.1,.25,0,.03,0,.05-.03,.08,0,0-.05,.1-.05,.13-.08,.18-.13,.35-.18,.5-.05,.18-.1,.33-.1,.45,0,.15-.03,.33-.03,.55,0,.15,0,.28,.03,.43v.05s.03,.18,.05,.25c0,.08,0,.13,.05,.23v.05s.03,.1,.05,.18v.1s.03,.15,.05,.2v.05s.03,.15,.05,.2v.38c0,.13,.05,.25,.08,.38v.05c.05,.2,.1,.35,.15,.5,0,.05,.05,.13,.08,.2v.05s.08,.18,.1,.25c.05,.15,.13,.33,.2,.5,.05,.13,.13,.25,.18,.38,0,0,.05,.13,.08,.18,.08,.15,.15,.3,.25,.45,.05,.13,.1,.23,.15,.35,0,.03,.03,.08,.05,.1,0,0,.03,.1,.05,.13v.05s.05,.13,.08,.2c.08,.18,.18,.33,.28,.5,.1,.18,.23,.33,.35,.45,.08,.1,.18,.18,.28,.28,0,0,.05,.05,.08,.08,0,0,.1,.13,.15,.18,.05,.05,.1,.13,.18,.18l.05,.05s.08,.05,.1,.1c0,0,.05,.05,.08,.08l.08,.08s.05,.05,.08,.08l.08,.08s.08,.08,.13,.15c.05,.08,.13,.13,.18,.2,.05,.05,.13,.1,.18,.15,0,0,.05,.05,.08,.05,0,0,.08,.08,.1,.1,.05,.05,.1,.1,.18,.15,.03,.03,.08,.08,.1,.1l.05,.05,.05,.05s0,.08,.03,.1c.03,.03,.05,.05,.1,.08,.05,0,.1,.05,.18,.1,.05,.05,.08,.1,.1,.13,.03,0,.08,0,.1,.05,.03,0,.08,.05,.1,.08,.05,0,.08,0,.13,.03,.05,0,.08,0,.1-.03,.08-.03,.1-.08,.18-.1h.08c.05,0,.1,0,.15-.03,.05,0,.08,0,.13-.05,.08,0,.15-.05,.2-.1,.1-.1,.08-.3-.03-.38-.08-.05-.15-.1-.25-.15-.08-.03-.13-.08-.2-.1-.13-.08-.25-.15-.38-.23-.08-.05-.18-.1-.25-.15-.08-.05-.15-.1-.25-.15-.08-.05-.18-.1-.25-.15-.08-.05-.13-.1-.2-.15-.05-.03-.1-.08-.15-.1-.13-.08-.23-.18-.35-.25-.13-.1-.25-.2-.38-.3-.03,0-.05-.05-.08-.05,0,0-.05-.03-.05-.05-.05-.05-.13-.13-.18-.18-.05-.05-.13-.1-.18-.15v-.05s-.15-.13-.2-.18c0,0-.08-.08-.1-.13-.05-.08-.1-.13-.13-.2-.08-.13-.18-.28-.23-.4-.05-.1-.08-.18-.13-.25-.05-.08-.08-.15-.13-.23-.05-.13-.1-.25-.18-.35-.08-.15-.15-.33-.23-.48-.08-.18-.15-.33-.23-.5-.08-.15-.13-.33-.2-.48-.08-.18-.13-.33-.2-.5-.05-.13-.1-.25-.13-.38-.03-.1-.08-.23-.1-.33v-1.75c0-.15,.03-.28,.05-.43,0-.15,.03-.3,.05-.45,0-.15,.05-.3,.1-.45,.03-.13,.08-.28,.13-.4,0-.05,.05-.13,.08-.18,.03-.08,.08-.15,.1-.25,.08-.15,.18-.3,.25-.45,.03-.08,.08-.15,.1-.23,.05-.08,.08-.15,.13-.23s.08-.18,.13-.25c.05-.08,.1-.15,.15-.23,.08-.1,.13-.2,.2-.3,.08-.13,.15-.23,.23-.35,.13-.23,.25-.43,.4-.65,.08-.1,.13-.18,.2-.28,.1-.1,.18-.23,.28-.33,.1-.1,.2-.2,.28-.28,.08-.1,.18-.18,.25-.25,.08-.05,.15-.13,.23-.18,.1-.05,.18-.1,.28-.15,.08-.05,.15-.1,.23-.15,0,0,.05-.03,.05-.05,0,0,.05-.05,.08-.05,0,0,.05-.05,.05-.08,0,0,.03-.05,.03-.08v-.13s0-.05-.03-.05l-.05-.05s-.03,0-.05-.03h-.05s-.15-.08-.23-.13h-.03s-.05-.05-.08-.05c-.05-.05-.1-.1-.18-.13-.03,0-.08-.03-.1-.05h-.23l.05-.1-.03-.03Zm-1.08,1.23s0,.03-.03,.03h.03v-.03Z" fill="#ef7c00"/><path d="M72.06,17.66h-.03s-.05,.03-.08,.05v.05s-.13,.13-.18,.18c-.05,.08-.13,.13-.18,.18,0,0-.03,.03-.05,.05v.05h-.03s-.05,.08-.1,.1c-.05,.05-.13,.13-.18,.2-.05,.05-.08,.1-.13,.15,0,0-.03,.05-.05,.08-.05,.05-.1,.13-.15,.18,0,0-.15,.2-.23,.3,0,0-.08,.1-.1,.15l-.05,.05c-.1,.13-.2,.28-.3,.43-.08,.13-.13,.23-.2,.35,0,0-.05,.13-.08,.18-.08,.13-.13,.25-.18,.38,0,0-.05,.1-.08,.13-.05,.08-.08,.18-.13,.25v.05s-.1,.15-.13,.23c-.08,.15-.15,.3-.23,.48-.05,.13-.1,.25-.15,.4l-.05,.13s-.1,.25-.13,.38c0,.05-.03,.1-.05,.15,0,0-.03,.13-.05,.18-.08,.23-.13,.48-.2,.73-.03,.13,.05,.23,.18,.25,.05,0,.13,0,.18-.03s.08-.08,.1-.13c.1-.33,.2-.65,.3-.95,.05-.13,.1-.23,.13-.35,.05-.13,.1-.25,.15-.38,.05-.18,.13-.33,.2-.5s.18-.35,.25-.53c.05-.08,.08-.18,.13-.25,.05-.08,.08-.18,.13-.25,.08-.18,.18-.35,.25-.53,.05-.08,.08-.18,.13-.25s.1-.18,.15-.25c.05-.08,.1-.18,.18-.25,.05-.08,.1-.18,.15-.25,.1-.15,.2-.33,.3-.48,.05-.08,.1-.15,.15-.23,.05-.08,.13-.15,.2-.23,.05-.08,.13-.13,.18-.2,.08-.08,.13-.18,.2-.25,.03-.05,0-.13-.05-.15h-.13Z" fill="#ef7c00"/><path d="M68.7,15.68s-.08,.05-.1,.08c-.08,.05-.13,.1-.2,.13-.08,.05-.13,.08-.2,.13-.08,.05-.13,.08-.2,.13-.1,.05-.15,.1-.23,.15-.08,.05-.13,.1-.23,.15-.13,.1-.28,.2-.4,.3-.15,.13-.3,.28-.45,.38-.08,.05-.1,.13-.18,.18-.08,.08-.1,.15-.18,.23-.1,.15-.23,.28-.33,.45-.05,.08-.1,.15-.18,.23-.05,.08-.1,.15-.15,.23-.1,.15-.23,.28-.33,.43-.1,.15-.2,.28-.3,.43-.1,.18-.23,.33-.3,.5-.1,.18-.15,.33-.23,.48,0,.08-.08,.15-.1,.23-.03,.08-.08,.18-.1,.25,0,.05-.05,.13-.08,.2s-.05,.15-.1,.23c-.08,.18-.13,.3-.2,.48,0,.08-.05,.13-.1,.2,0,.08-.08,.15-.1,.23-.08,.15-.15,.28-.23,.43-.05,.13-.1,.25-.13,.35v.08c-.05,.15-.1,.28-.1,.43,0,.08,0,.18-.05,.25,0,.1,0,.18-.05,.28,0,.13-.05,.25-.05,.35v.8c0,.08,0,.18,.05,.25,0,.1,0,.18,.05,.28,0,.13,0,.23,.08,.33,0,.1,.05,.18,.08,.25l.15,.5c.05,.15,.1,.28,.15,.43,0,0,0,.18,.05,.25,0,0,0,.05,.05,.05s.08,.05,.1,.08h.18s.1-.05,.1-.08c.05-.05,.08-.1,.08-.15v-.28c0-.08-.05-.13-.08-.2-.05-.13-.1-.28-.13-.38-.05-.13-.1-.28-.13-.38-.05-.13-.08-.25-.1-.35,0-.1,0-.23-.05-.3,0-.13-.05-.25-.05-.33,0-.23-.05-.43-.05-.65,0-.1,0-.2,.05-.28,0-.1,0-.23,.05-.3,0-.18,.1-.33,.13-.5,0-.08,.05-.15,.1-.23,0-.08,.08-.15,.1-.23,0-.05,.05-.08,.08-.13v-.05s.1-.18,.1-.25c0-.05,.05-.13,.1-.2,0,0,.05-.15,.1-.23,.08-.18,.13-.33,.2-.5,0-.05,.05-.1,.08-.18v-.05s.1-.18,.1-.25v-.05s.1-.23,.15-.33c0-.05,.05-.1,.08-.15,.05-.1,.1-.18,.1-.28,.05-.08,.1-.18,.13-.25,.1-.18,.28-.38,.4-.58,0,0,.1-.18,.18-.25,.1-.15,.23-.28,.33-.43,.08-.08,.1-.15,.18-.25,.05-.08,.1-.15,.15-.23,.1-.13,.18-.25,.3-.35,.1-.1,.18-.2,.3-.28,.1-.13,.25-.23,.38-.33,.08-.05,.13-.1,.2-.18,.08-.05,.13-.1,.2-.18,.05,0,.08-.05,.1-.08,.05,0,.08-.05,.1-.1,.08-.05,.13-.13,.2-.18,.05,0,.08-.05,.1-.08v.08c0,.05-.05,.1-.05,.15,0,.08,.05,.13,.1,.18h.23s.1,0,.13-.05c.08,0,.15-.08,.23-.1h.05s.18-.1,.25-.2c0,0,.08-.08,.08-.13v-.05s0-.08-.05-.1l-.05-.05c-.05-.05-.08-.08-.1-.13,0,0-.08-.05-.1-.1-.05,0-.08-.08-.1-.1-.05,0-.1-.08-.13-.1,0,0-.05,0-.08-.05h-.05s-.1,0-.1,.05v-.05l.03-.03Zm.13,.6s0-.23,.05-.3c0,0,0-.05,.05-.05v-.05s.08,.05,.1,.08c.05,.05,.1,.13,.15,.18,0,0,.05,.05,.08,.1,0,0-.05,0-.1,.05-.1,.05-.15,.08-.25,.1-.05,0-.1,.05-.15,.05,0-.05,.05-.1,.05-.15h.03Z" fill="#ef7c00"/><path d="M65.77,18.53s-.13,.05-.1,.13v.18s-.03,.08-.05,.1c-.08,.1-.18,.2-.28,.28-.08,.08-.18,.15-.25,.23-.08,.08-.18,.15-.23,.23-.08,.08-.15,.18-.23,.25s-.15,.18-.2,.25c-.08,.08-.15,.18-.2,.25-.08,.08-.15,.18-.23,.25-.08,.1-.15,.2-.2,.3-.05,.08-.1,.15-.15,.25-.05,.1-.1,.18-.13,.28-.08,.18-.15,.38-.2,.58-.03,.1-.05,.2-.05,.3s-.03,.2-.05,.3c0,.13,0,.25-.03,.38v.3c0,.23,0,.45,.03,.68,0,.23,0,.45,.03,.68,0,.1,0,.23,.03,.33,0,.1,0,.23,.03,.33,.03,.23,.05,.45,.13,.68,.05,.18,.13,.38,.2,.55,.05,.13,.13,.25,.2,.38,.05,.1,.1,.2,.15,.28,.03,.05,.05,.13,.08,.18,.05,.1,.1,.23,.15,.33,.05,.1,.2,.15,.3,.1,.08,0,.13-.08,.15-.13,.03-.08,.05-.13,0-.2,0-.05-.03-.1-.05-.15,0-.05-.03-.1-.05-.13-.03-.1-.08-.18-.1-.25-.1-.18-.2-.38-.3-.55-.05-.1-.1-.23-.13-.35-.03-.1-.08-.23-.08-.33l-.08-.6v-.33c0-.13,0-.23-.03-.33,0-.23,0-.45-.03-.68v-1.03s0-.18,.03-.25c0-.1,.03-.2,.05-.28,.03-.15,.08-.3,.13-.45,.03-.08,.08-.18,.1-.25,.03-.08,.05-.15,.1-.23,.05-.1,.1-.18,.15-.28,.1-.18,.23-.35,.33-.5,.13-.15,.23-.33,.33-.5,.08-.1,.13-.18,.2-.25,.08-.1,.15-.18,.25-.25,.08-.08,.15-.15,.23-.25,.08-.08,.13-.18,.18-.28s.05-.2,.03-.33c0-.05-.05-.1-.13-.1v-.08h-.03Z" fill="#ef7c00"/><path d="M63.77,23.96s-.05,.03-.05,.05v.08s.03,.23,.05,.33c0,.1,0,.23,.03,.33,.03,.2,.05,.4,.08,.63,.03,.2,.05,.43,.1,.63,0,.1,.03,.2,.05,.3,0,.1,.05,.23,.08,.33,.05,.2,.1,.4,.15,.6,.03,.1,.08,.2,.1,.3,.05,.1,.08,.2,.13,.3,.1,.2,.2,.4,.3,.63,.1,.18,.18,.38,.28,.55,.1,.18,.2,.38,.33,.55,.1,.18,.25,.33,.38,.48,.08,.1,.15,.18,.23,.28,.08,.08,.15,.13,.23,.2,.08,.05,.15,.13,.23,.2,.08,.05,.15,.13,.23,.18,.18,.13,.33,.28,.5,.4,.08,.08,.18,.15,.25,.25,.08,.08,.15,.15,.2,.23,.05,.08,.1,.13,.15,.18,.05,.08,.13,.13,.18,.2,.13,.15,.23,.3,.33,.45,.05,.08,.13,.18,.18,.25,.05,.08,.13,.15,.18,.25,.13,.15,.25,.3,.38,.48,.05,.08,.13,.18,.18,.25s.1,.15,.18,.23,.13,.18,.2,.25c.05,.08,.13,.15,.18,.23,.08,.1,.15,.18,.23,.25,.05,.08,.13,.13,.2,.18,.08,.08,.13,.13,.2,.2,.08,.08,.15,.13,.23,.2,.13,.13,.28,.25,.45,.33,.1,.05,.23,.1,.33,.15h.05l.1,.05c.1,0,.2-.03,.23-.1v-.08s0-.13-.08-.18c-.03-.03-.08-.05-.13-.08-.03,0-.08-.05-.13-.05,0,0-.03,0-.05-.03,0,0-.05-.05-.08-.05l-.1-.05h-.03s-.13-.1-.2-.18l-.05-.05s-.03-.05-.05-.05c-.03-.03-.05-.05-.1-.1h-.03s-.08-.13-.13-.18c-.03-.05-.08-.08-.1-.13l-.05-.05s-.1-.1-.15-.18c-.05-.05-.1-.13-.15-.18-.05-.08-.13-.15-.18-.25-.05-.08-.1-.15-.18-.25-.05-.08-.1-.15-.15-.23-.1-.13-.18-.25-.28-.38,0,0-.05-.08-.08-.1-.13-.18-.25-.35-.38-.5-.08-.1-.13-.2-.2-.3-.03-.05-.05-.1-.1-.15-.05-.1-.13-.18-.18-.23-.05-.08-.1-.13-.15-.2l-.08-.1v-.05s-.05-.08-.08-.1c-.08-.1-.18-.2-.25-.28,0,0-.15-.15-.23-.23-.08-.08-.15-.13-.23-.2-.15-.13-.33-.25-.45-.35-.08-.05-.15-.13-.25-.2-.03-.03-.05-.05-.08-.08v-.05h-.03s-.05-.05-.1-.08c-.08-.05-.13-.13-.2-.2-.13-.13-.23-.28-.33-.4-.05-.08-.13-.15-.18-.23,0,0-.1-.18-.18-.28-.1-.18-.23-.38-.3-.55-.05-.1-.1-.18-.15-.28,0,0-.1-.18-.13-.28-.05-.1-.13-.25-.2-.38-.1-.2-.18-.38-.23-.55-.05-.18-.13-.35-.18-.58-.05-.13-.08-.28-.1-.4,0-.08-.03-.13-.05-.2-.05-.2-.1-.4-.15-.6v-.23s-.03-.18-.05-.25c0-.13-.03-.28-.05-.4,0-.05-.05-.08-.1-.08h-.03l-.18-.08Z" fill="#ef7c00"/><path d="M69.45,16.28h-.2s-.23,.18-.35,.28c-.08,.05-.18,.13-.28,.18-.05,.03-.1,.05-.15,.08-.03,0-.08,.03-.1,.05-.08,.05-.18,.1-.25,.18,0,0-.15,.13-.23,.2-.05,.05-.13,.1-.18,.13l-.08,.05s-.15,.13-.2,.18c-.03,.03-.08,.08-.1,.1l-.2,.2s-.13,.13-.18,.2c-.03,.03-.08,.08-.1,.1v.05l-.3,.3s-.08,.08-.1,.1l-.08,.08-.05,.05-.05,.05c-.15,.2-.33,.43-.45,.6-.05,.08-.1,.18-.15,.25-.05,.08-.08,.18-.13,.28,0,.05-.05,.1-.08,.15-.05,.13-.1,.23-.15,.35v.05s-.08,.18-.1,.25v.05s-.08,.1-.1,.18c-.08,.18-.15,.35-.23,.5,0,0-.05,.15-.1,.23,0,0-.05,.15-.1,.23s-.1,.18-.13,.25v.05s-.05,.1-.05,.15c-.03,.18-.08,.33-.1,.5,0,.05,0,.13-.03,.18,0,.05,0,.1-.03,.18,0,.13-.05,.25-.05,.38,0,.15-.03,.28-.05,.43,0,.08,0,.18-.03,.25v.55s0,.1,.03,.15c.05,.2,.1,.38,.15,.58,0,0,.03,.15,.05,.23,.03,.13,.05,.25,.1,.4,.08,.23,.13,.4,.18,.58s.13,.35,.23,.55c.05,.13,.13,.25,.2,.38,.05,.08,.1,.15,.13,.25,0,0,.1,.2,.15,.3,.1,.18,.2,.38,.3,.55,.05,.1,.13,.2,.18,.28,0,.03,.05,.05,.08,.08,.05,.05,.1,.1,.13,.15,.1,.1,.18,.23,.28,.33,.13,.13,.23,.25,.33,.38h.03v.05l.08,.08c.1,.08,.18,.13,.25,.2,.15,.1,.3,.23,.45,.35,.08,.08,.15,.13,.23,.2,.08,.08,.15,.15,.23,.23,.08,.1,.18,.18,.25,.28,0,.03,.05,.05,.08,.1v.05l.08,.08s.1,.13,.15,.2c.05,.08,.1,.15,.18,.23,.03,.05,.05,.1,.1,.15,.08,.1,.13,.2,.2,.3,.1,.15,.23,.33,.38,.5,0,.03,.05,.05,.08,.08,.1,.15,.2,.28,.28,.4,.05,.1,.1,.15,.15,.23,.08,.1,.13,.2,.18,.25,.05,.1,.13,.18,.18,.25,.05,.05,.1,.13,.15,.18,.05,.05,.1,.13,.15,.18l.05,.05s.08,.08,.1,.13c.05,.05,.08,.1,.13,.13h.03s.05,.1,.1,.13l.05,.05s.03,.05,.05,.05c.05,.08,.13,.13,.2,.18h.03l.1,.05s.05,.03,.08,.05l.05,.05s.1,.05,.13,.05c.05,0,.1,.05,.13,.08,.05,.05,.08,.13,.08,.18,.05-.03,.1-.08,.18-.13l.1-.08,.05-.05s.15-.1,.23-.15c.1-.08,.18-.15,.28-.23l.05-.08h.03s.05-.08,.08-.1c.13-.1,.23-.2,.33-.28,.1-.1,.23-.2,.3-.25l.08-.05h.03s.13-.13,.18-.18c.05-.03,.08-.08,.13-.13h-.13s-.13-.03-.18-.08c0,0-.08-.05-.13-.1-.05-.05-.13-.1-.18-.15l-.05-.05-.08-.08h-.05v-.05s-.05-.03-.05-.05c0,0-.08-.08-.1-.1-.05-.05-.1-.1-.18-.15-.03-.03-.08-.05-.1-.08,0,0-.05-.05-.08-.08-.05-.05-.1-.1-.18-.15-.08-.08-.13-.15-.18-.2s-.1-.1-.13-.15l-.08-.05s-.05-.08-.08-.1c-.03,0-.05-.05-.08-.08l-.08-.08s-.08-.05-.1-.1l-.05-.05s-.13-.1-.18-.18c-.05-.05-.1-.1-.15-.15,0,0-.05-.05-.08-.08-.1-.08-.18-.18-.28-.28-.1-.13-.25-.3-.35-.45-.1-.18-.2-.35-.28-.5,0-.05-.05-.1-.08-.15v-.08s-.03-.08-.05-.13c0,0-.03-.1-.05-.13-.05-.13-.1-.23-.15-.35-.1-.15-.18-.3-.25-.45,0-.05-.05-.1-.08-.15-.05-.15-.13-.28-.18-.38-.08-.18-.15-.35-.2-.5,0,0-.05-.18-.1-.25v-.05s-.08-.13-.1-.2c-.05-.15-.1-.33-.13-.5v-.05s-.08-.25-.08-.38c0-.08,0-.15-.03-.2v-.05s-.03-.2-.03-.3v-.1s-.03-.13-.05-.2v-.1s0-.1-.03-.18v-.05s-.05-.15-.05-.23,0-.18-.03-.25v-.05c0-.13-.03-.28-.03-.43,0-.23,0-.4,.03-.55,0-.15,.05-.3,.1-.45,.05-.18,.13-.35,.18-.5,0-.05,.05-.1,.05-.13,0,0,.03-.1,.05-.15,.05-.13,.1-.25,.13-.38l.05-.1c.05-.13,.1-.28,.15-.4,.08-.18,.15-.33,.23-.48,.03-.08,.08-.15,.1-.23v-.05s.1-.18,.15-.25c0-.05,.05-.1,.08-.13,0,0,.13-.25,.18-.38l.08-.13c.05-.15,.13-.28,.2-.38,.08-.15,.2-.3,.3-.43l.05-.05s.08-.1,.1-.15c.08-.1,.15-.2,.23-.3,.05-.05,.1-.13,.15-.18,0,0,.03-.05,.05-.05,0,0,.08-.1,.13-.15,.08-.08,.13-.15,.18-.2,.03-.03,.05-.08,.1-.1v-.05s.03-.08,.05-.08c0-.03,.05-.08,.08-.1v-.05s.03-.05,.05-.05l.05-.05v-.05s.1-.08,.15-.1c0,0,.03-.05,.08-.05h.03s.08-.03,.13-.05c.03,0,.08,0,.1-.03h.23l-.08-.05c-.28-.15-3.03-1.38-3.08-1.35Z" fill="#ff851b"/><path d="M47.63,37.3c-.43,.35-1.05,.88-1.68,1.63-.98,1.18-1.48,2.3-2.38,4.88-1.13,3.28-1.7,4.93-1.33,5.28,.88,.8,3.85-1.23,6.71-3.13,3.2-2.15,4.81-3.25,5.48-5.18,.35-1.05,.88-2.08,1.2-3.18,.28-.93,.28-1.08,.2-1.2-.65-1.23-5.28,0-6.13,.23-.9,.23-1.6,.5-2.08,.68Z" fill="#ef7c00"/><path d="M52.68,41.28s.18,0,.2-.08c.1-.18,.15-.33,.25-.53,0-.08,.08-.13,.1-.2,.05-.08,.08-.15,.1-.25v-.08s0-.13,.05-.15v-.15c0-.08,.08-.15,.08-.23l.05-.2c.03-.15,.1-.33,.15-.45,.03-.15,.1-.33,.13-.5,0-.08,.03-.15,.05-.23,0-.1,.03-.18,.05-.28,.1-.48,.2-.95,.28-1.38,0-.05,0-.15-.13-.15s-.15,0-.15,.13c-.08,.35-.13,.65-.23,1-.03,.15-.08,.33-.1,.48,0,.05-.05,.13-.05,.23s-.05,.2-.08,.28c-.05,.23-.13,.4-.18,.6-.05,.1-.05,.23-.1,.33l-.13,.38v.15s-.08,.15-.08,.23c0,0-.08,.13-.1,.2,0,.08-.05,.13-.1,.2-.1,.18-.15,.35-.25,.53v.1c0,.05,0,.1,.08,.1l.05-.1,.05,.03Zm.48-1.48l.28,.08-.28-.08Zm-.05,.1s0,.03,0,0h0Z" fill="#7b493f"/><path d="M44.75,41.68s.13,.08,.2,.08c.08-.03,.18-.1,.25-.15,0,0,.05,0,.05-.05,.05-.05,.1-.05,.18-.1,.13-.08,.28-.18,.4-.25,0,0,.1-.08,.15-.13,.1-.05,.15-.1,.23-.15,.1-.08,.23-.15,.35-.28,.13-.13,.25-.2,.35-.3,.1-.05,.15-.13,.25-.2,.05-.05,.1-.08,.15-.13,.1-.13,.25-.23,.38-.33,0-.05,.1-.08,.15-.13,.05-.08,.15-.1,.2-.18,0-.05,.1-.08,.15-.13,.05-.08,.13-.15,.23-.2,0-.05,.1-.13,.18-.15,0-.05,.1-.08,.13-.15,.1-.13,.23-.25,.33-.38,.1-.13,.2-.28,.33-.38,.15-.2,.33-.38,.48-.6l.05-.1s0-.08-.05-.13l-.1-.05s-.08,0-.13,.05c-.2,.25-.4,.48-.6,.73-.08,.13-.2,.25-.28,.35-.1,.13-.2,.25-.3,.35s-.23,.23-.33,.35c-.1,.13-.23,.23-.33,.35-.23,.2-.48,.43-.68,.63-.35,.28-.65,.58-.98,.8-.1,.08-.23,.15-.33,.25,0,0,0,.03-.05,.05-.05,.05-.1,.05-.15,.1-.05,.05-.1,.08-.18,.1-.05,0-.1,.05-.15,.1,0,0-.05,.05-.08,.03-.1,.05-.18,.1-.25,.15v.08s-.08,.08-.03,.13h-.1l-.08-.05Z" fill="#7b493f"/><path d="M46.63,43.99s.15,.05,.2,.03c.08-.05,.15-.13,.2-.2l.05-.05c.05-.05,.08-.08,.15-.13,.1-.1,.23-.25,.33-.35,0,0,.08-.1,.1-.18,.08-.08,.1-.13,.18-.23,.08-.1,.18-.23,.28-.35,.1-.13,.18-.25,.28-.38,.08-.08,.13-.18,.18-.25,.05-.05,.08-.1,.13-.18,.08-.15,.2-.28,.28-.4,0-.05,.08-.1,.13-.18,.05-.08,.1-.13,.15-.23,0-.05,.08-.1,.13-.18,.05-.08,.08-.18,.15-.25,0-.05,.08-.15,.13-.2,0-.05,.08-.1,.08-.18,.08-.15,.18-.3,.23-.45,.08-.15,.13-.3,.23-.45,.1-.23,.23-.45,.33-.7v-.13s0-.08-.05-.1h-.13s-.08,0-.1,.05c-.13,.28-.28,.55-.4,.85-.05,.15-.13,.28-.18,.4-.08,.15-.13,.28-.23,.43-.1,.15-.15,.28-.25,.43-.1,.15-.15,.28-.25,.43-.15,.25-.35,.53-.5,.78-.28,.35-.5,.7-.75,1.03-.08,.1-.18,.23-.25,.33,0,0,0,.03-.05,.05-.05,.05-.08,.08-.1,.13-.03,.05-.08,.1-.15,.13-.03,.03-.08,.08-.1,.13,0,0-.05,.05-.08,.05-.08,.08-.15,.13-.2,.2v.1s-.03,.1,.03,.13h-.1l-.03,.08Z" fill="#7b493f"/><path d="M49.58,43.21h.2c.05-.05,.13-.15,.18-.25,0,0,.03-.03,.03-.05,.03-.05,.05-.1,.13-.15,.08-.13,.18-.28,.25-.4,0,0,.05-.13,.08-.18,.05-.1,.08-.15,.15-.25,.05-.13,.15-.25,.2-.4,.05-.15,.15-.28,.2-.43,.05-.1,.08-.18,.15-.28,.03-.05,.05-.13,.08-.18,.05-.15,.13-.3,.2-.45,0-.05,.05-.13,.08-.18,.03-.1,.08-.15,.1-.25,0-.05,.05-.13,.08-.18,.03-.1,.05-.18,.1-.28,0-.05,.05-.15,.08-.2,0-.05,.05-.13,.05-.18,.05-.15,.1-.33,.13-.48,.05-.15,.08-.33,.13-.48,.05-.25,.13-.48,.18-.75v-.13s-.03-.05-.1-.08h-.13s-.05,.03-.08,.1c-.08,.3-.15,.6-.23,.9,0,.15-.08,.3-.1,.43-.05,.15-.08,.3-.13,.45-.05,.15-.1,.3-.15,.45-.05,.15-.1,.3-.15,.45-.1,.28-.25,.58-.35,.85-.2,.4-.35,.8-.55,1.15-.05,.13-.15,.25-.2,.38,0,0,0,.03-.03,.05-.03,.05-.05,.1-.08,.15-.03,.05-.05,.13-.13,.15-.03,.03-.05,.1-.08,.15,0,0-.03,.05-.05,.05-.05,.1-.13,.15-.18,.25v.1s0,.1,.08,.13h-.1l-.03-.03Z" fill="#7b493f"/><path d="M29.41,31.7c-.53,.08-1.08,.2-1.6,.3-.25,.05-.53,.1-.78,.13-.18,.03-.38,.08-.55,.1-.1,0-.2,0-.28,.05-.43,.08-.8,.2-1.23,.28-.1,0-.18,.05-.28,.1-.1,0-.2,.05-.3,.05-.25,.05-.48,.08-.73,.13-.08,0-.15,.05-.15,.13s-.05,.13,0,.18c0,.08,.08,.1,.13,.15h.2c.3-.05,.6-.1,.9-.15,.25-.05,.48-.13,.73-.18,.28-.1,.6-.15,.88-.23,.1,0,.18-.03,.28-.05,.18-.03,.38-.08,.55-.1,.38-.08,.73-.13,1.1-.23,.43-.08,.83-.18,1.25-.25,.13,0,.18-.18,.15-.3,0-.08-.08-.1-.13-.15h-.18l.03,.05Z" fill="#7b493f"/><path d="M28.48,30.1h-3.25c-.43,0-.83,.05-1.25,.05-.1,0-.18,.03-.3,.03h-1.08c-.08,0-.15,.03-.18,.1s-.08,.13-.05,.18c0,.08,.05,.13,.1,.18l.2,.05h.93c.25,0,.5,0,.75-.03,.3-.03,.6-.03,.9-.08h3.25c.13,.03,.2-.13,.2-.28,0-.08-.05-.13-.1-.18h-.1l-.08-.05,.05,.03Z" fill="#7b493f"/><path d="M30.38,33.1c-.28,.1-.53,.2-.8,.3-.25,.1-.53,.2-.75,.3-.1,.03-.25,.1-.35,.13l-.28,.1s-.08,0-.1,.03c-.18,.08-.3,.1-.48,.18-.1,.03-.2,.08-.3,.1-.28,.1-.55,.18-.85,.28-.1,.03-.25,.08-.35,.1-.1,.03-.2,.08-.35,.1-.28,.1-.55,.2-.83,.3-.28,.1-.53,.2-.75,.3-.25,.1-.45,.18-.68,.28-.1,.03-.25,.1-.35,.13-.13,.08-.25,.1-.38,.18,0,0-.08,0-.08,.08v.1s.08,.1,.13,.08c.13-.03,.28-.1,.4-.13s.25-.1,.38-.13l.8-.3c.53-.2,1.03-.4,1.55-.58l.38-.13s.2-.08,.3-.1c.28-.1,.58-.18,.85-.28,.1-.03,.2-.08,.3-.1l.28-.1s.08,0,.1-.03c.13-.08,.3-.13,.45-.18,.13-.08,.25-.1,.38-.18,.25-.1,.45-.18,.68-.28s.48-.18,.73-.28c.08,0,.1-.1,.08-.18,0-.03-.08-.08-.13-.08l.03-.03Z" fill="#7b493f"/><path d="M27.58,27.54c-.28-.05-.55-.1-.83-.15-.25-.05-.55-.1-.8-.15-.1-.03-.25-.05-.38-.08l-.28-.05s-.05-.03-.1-.03c-.18-.03-.33-.08-.5-.1-.1-.03-.2-.05-.33-.08-.28-.05-.55-.15-.88-.23-.1-.03-.25-.08-.35-.1-.1-.03-.2-.05-.35-.1-.28-.05-.58-.13-.85-.18-.28-.05-.55-.1-.8-.15-.25-.05-.48-.1-.73-.13-.1-.03-.25-.05-.38-.08-.15,0-.25-.05-.4-.05,0,0-.05-.03-.1,0l-.05,.08s0,.13,.08,.13c.13,.05,.28,.05,.43,.1,.15,.05,.25,.05,.4,.08l.83,.15c.55,.1,1.1,.2,1.63,.33l.4,.08s.2,.05,.33,.08c.28,.05,.58,.18,.88,.23,.1,.03,.2,.05,.33,.08l.28,.05s.05,.03,.1,.03c.15,0,.33,.05,.48,.1,.15,0,.25,.05,.4,.05,.25,.05,.48,.1,.73,.13s.5,.1,.75,.15c.05,.03,.15-.03,.15-.1,0-.03,0-.1-.08-.13h-.03l.05-.03-.03,.08Z" fill="#7b493f"/><path d="M30.71,35.28s-.25,.13-.4,.15c-.08,.05-.2,.05-.28,.1-.15,.08-.35,.13-.5,.18-.38,.13-.78,.25-1.15,.35-.38,.1-.78,.25-1.15,.35-.2,.05-.38,.13-.58,.15l-.58,.15c-.4,.08-.8,.2-1.2,.33-.38,.13-.75,.2-1.13,.33-.15,.03-.3,.1-.45,.15-.08,0-.15,.03-.23,.05-.08,.03-.15,.08-.28,.08-.08,0-.13,.1-.13,.18s.1,.18,.18,.15c.23,0,.4-.08,.6-.15,.2-.08,.38-.13,.58-.18,.38-.13,.78-.25,1.13-.33,.2-.05,.38-.08,.58-.15,.2-.05,.38-.08,.6-.15,.13-.05,.23-.05,.38-.08,.08,0,.15-.03,.23-.05,.13-.05,.23-.05,.35-.1,.08,0,.15-.03,.28-.08,.2-.05,.38-.13,.58-.18,.2-.05,.38-.13,.58-.18,.38-.13,.78-.25,1.15-.4,.15-.08,.3-.1,.48-.18,.18-.08,.33-.13,.48-.2,.03,0,.08-.05,.1-.08v-.13s-.05-.1-.13-.1h-.08Z" fill="#7b493f"/><path d="M27.28,25.24s-.28-.05-.4-.13c-.1,0-.2-.08-.28-.08-.18-.05-.35-.1-.5-.18-.38-.13-.75-.28-1.13-.4-.38-.13-.75-.28-1.13-.4-.2-.08-.38-.13-.55-.23l-.55-.23c-.38-.18-.75-.33-1.15-.48-.38-.13-.73-.3-1.1-.43-.15-.08-.3-.1-.45-.18-.08-.03-.15-.08-.2-.1-.05-.03-.18-.05-.25-.1-.08-.03-.18,0-.2,.08-.05,.05,0,.2,.05,.23,.18,.13,.38,.18,.55,.25s.38,.13,.58,.2c.38,.13,.75,.28,1.1,.43,.2,.08,.35,.15,.55,.23,.2,.08,.35,.15,.55,.25,.13,.03,.2,.1,.35,.15,.08,.03,.15,.08,.2,.1,.13,.03,.2,.1,.33,.13,.08,.03,.15,.08,.25,.1,.2,.08,.38,.13,.58,.2s.38,.13,.58,.2c.38,.13,.75,.28,1.15,.38,.18,.05,.3,.1,.48,.15,.18,.05,.33,.08,.5,.13,0,.03,.1,0,.13,0l.1-.08s0-.13-.05-.18l-.08-.08v.05Z" fill="#7b493f"/><path d="M31.58,36.7l-.38,.3s-.28,.18-.38,.28c-.1,.05-.23,.15-.33,.2-.15,.08-.28,.18-.43,.25-.23,.15-.45,.3-.68,.43-.1,.05-.25,.15-.38,.23-.15,.08-.3,.18-.45,.25-.25,.15-.48,.28-.75,.43,0,0-.08,.03-.1,.05-.08,.05-.18,.08-.25,.15-.1,.05-.23,.1-.33,.18-.15,.05-.25,.15-.4,.2-.15,.08-.33,.13-.48,.23-.23,.1-.48,.23-.7,.33-.25,.1-.55,.25-.8,.35-.43,.15-.85,.35-1.28,.5l-.08,.05v.1s0,.05,.05,.08h.13s.08,0,.08-.03c.3-.1,.55-.2,.83-.3,.1-.05,.25-.1,.35-.13,.15-.05,.25-.1,.4-.15,.15-.05,.3-.1,.45-.18,.15-.08,.33-.13,.48-.23,.1-.05,.23-.1,.33-.13,.1-.05,.25-.1,.38-.15,.15-.08,.3-.13,.45-.23,.03,0,.08-.03,.1-.05,.08-.05,.18-.08,.25-.15,.1-.05,.18-.13,.3-.13,.15-.08,.33-.18,.48-.28,.1-.05,.23-.1,.33-.18,.1-.08,.23-.15,.33-.2,.25-.15,.53-.33,.8-.5,.23-.15,.45-.3,.7-.43,.15-.08,.28-.18,.38-.28,.13-.1,.23-.18,.35-.23l.35-.28s.05-.13,0-.18h-.18l.05-.2h.03Z" fill="#7b493f"/><path d="M32.39,37.73c-.35,.43-.73,.8-1.05,1.23-.18,.18-.35,.38-.48,.55s-.33,.35-.5,.53c-.05,.08-.13,.13-.2,.23-.05,.08-.15,.13-.2,.23-.13,.13-.23,.23-.35,.35-.05,.05-.13,.13-.18,.18-.2,.18-.43,.35-.63,.55l-.23,.23s-.2,.18-.3,.23c-.13,.1-.28,.2-.4,.33-.28,.2-.55,.4-.83,.58-.15,.1-.28,.15-.45,.25-.08,0-.15,.1-.23,.15l-.75,.43c-.38,.23-.8,.43-1.2,.65-.25,.13-.5,.28-.73,.38-.1,0-.13,.2-.08,.3,.05,.1,.2,.13,.3,.08,.25-.13,.48-.23,.73-.38,.23-.13,.45-.23,.65-.38,.45-.23,.85-.48,1.3-.7,.2-.1,.38-.23,.55-.35,.3-.2,.6-.35,.88-.6,.38-.28,.73-.55,1.05-.83,.2-.18,.45-.4,.65-.58,.05-.05,.1-.08,.15-.13,.13-.13,.28-.23,.38-.35,.1-.08,.15-.18,.23-.23,.05-.05,.13-.13,.18-.18,.18-.18,.33-.35,.5-.53s.35-.38,.48-.55c.18-.2,.35-.38,.53-.6,.2-.23,.38-.43,.58-.68,.03-.05,.05-.08,.08-.15,.03-.08,0-.1-.03-.18,0-.03-.08-.05-.15-.08h-.03s-.08,0-.1,.03h-.13Z" fill="#7b493f"/><path d="M25.2,22.54h.18s0-.15-.05-.18l-.38-.23s-.25-.13-.38-.2-.25-.15-.4-.23c-.28-.1-.53-.23-.75-.35-.28-.15-.58-.28-.85-.4-.13-.05-.25-.13-.35-.15s-.23-.08-.35-.13c-.18-.1-.35-.15-.53-.23-.1,0-.2-.05-.3-.1-.08-.05-.2-.05-.28-.1-.05,0-.08-.05-.13-.05-.15-.08-.3-.1-.48-.18-.13-.05-.28-.08-.38-.13-.1,0-.23-.05-.35-.1-.15-.08-.35-.1-.5-.15-.15-.08-.3-.1-.45-.13-.15-.03-.28-.08-.43-.1-.1,0-.25-.05-.38-.08-.3-.08-.58-.15-.88-.2h-.1l-.1,.03c0,.05-.05,.05-.05,.08v.1l.1,.05c.45,.1,.88,.25,1.33,.35,.28,.08,.58,.18,.85,.25,.23,.08,.5,.15,.73,.25,.15,.08,.35,.1,.5,.15,.15,.03,.28,.1,.43,.15,.13,.05,.23,.08,.35,.13,.08,.05,.2,.05,.28,.1,.05,0,.13,.05,.13,.05,.28,.1,.53,.23,.8,.33,.15,.08,.33,.13,.48,.2,.13,.08,.28,.15,.4,.18,.25,.13,.48,.23,.73,.35,.15,.08,.28,.15,.45,.2,.13,.05,.25,.13,.35,.15,.13,.08,.28,.15,.4,.23l.43,.25-.08-.2v.03Z" fill="#7b493f"/><path d="M26.05,21.64h.13c.08-.03,.15-.05,.15-.1,0-.08,.05-.1,0-.18-.05-.08-.05-.1-.1-.15-.23-.23-.43-.4-.65-.6-.2-.18-.4-.33-.58-.53-.15-.15-.35-.33-.55-.48-.2-.15-.35-.3-.55-.45-.08-.05-.13-.1-.2-.15-.1-.05-.18-.13-.25-.2-.13-.1-.3-.2-.43-.3-.08-.05-.1-.08-.18-.13-.23-.15-.5-.35-.73-.5-.35-.23-.75-.48-1.15-.7-.3-.2-.6-.33-.93-.48-.2-.13-.4-.2-.6-.28-.48-.18-.9-.38-1.38-.55-.23-.13-.48-.2-.7-.3-.28-.13-.5-.2-.78-.3-.1-.05-.25,0-.28,.13-.03,.13,0,.28,.13,.28,.23,.08,.5,.2,.78,.3,.43,.18,.88,.33,1.28,.5l.8,.33s.18,.13,.23,.13c.18,.08,.3,.13,.48,.2,.3,.15,.6,.33,.9,.48,.13,.1,.3,.2,.43,.28,.1,.05,.33,.2,.33,.2l.25,.2c.23,.15,.45,.3,.7,.45,.08,.05,.13,.1,.2,.15,.13,.1,.25,.2,.4,.3,.08,.08,.18,.13,.23,.2,.1,.08,.18,.13,.23,.2,.2,.15,.4,.3,.55,.45,.15,.15,.35,.33,.55,.48,.38,.38,.8,.7,1.2,1.08h.1v.05Z" fill="#7b493f"/><path d="M73.93,23.56s.18,.6-.15,.85c-.2,.15-.53,.13-.73-.03-.18-.13-.25-.33-.28-.45-.1-.4,0-.98,.3-1.08,.3-.1,.73,.3,.85,.73v-.03Z"/></g></g></g></svg>