<?xml version="1.0" encoding="UTF-8"?><svg id="b" xmlns="http://www.w3.org/2000/svg" xmlns:xlink="http://www.w3.org/1999/xlink" viewBox="0 0 209.32 375.04"><defs><clipPath id="e"><rect width="209.32" height="375.04" fill="none"/></clipPath></defs><g id="c"><g id="d"><g clip-path="url(#e)" fill="none"><path d="m170.45,165.9c-.71.7-1.78-.35-3.92-.7-1.78-.35-4.64-1.05-4.64-.35-.71,1.41,11.05,7.73,9.98,10.19,0,.35-.71.7-1.07.7-1.78.35-3.21-1.76-6.78-4.22-2.5-1.76-4.64-2.81-4.99-2.46s4.99,6.33,6.78,9.14c.36.35.71,1.05.36,1.76-.36.35-1.07.7-1.07.7-2.5.35-8.92-8.79-9.98-8.44-.71.35,3.21,8.08,1.43,9.14-.36.35-.71,0-1.07,0-2.85-.7-3.21-8.08-3.57-8.08s.36,6.68-1.43,7.03h-.71c-1.07-.35-1.07-2.11-1.43-6.33-.71-7.38,0-8.79-1.43-11.6-1.43-2.81-38.87-55.18-38.51-56.94.36-2.11,5.35-3.16,7.85-3.87,1.78,1.05,37.44,54.48,40.65,55.89,1.07.7,2.5,1.41,4.28,2.11,6.06,2.81,8.92,3.16,9.27,4.92.36.7.36,1.41,0,1.41Z" fill="#9b7045"/><path d="m10.7,346.21c3.21,2.46,7.85,2.11,10.34-1.05l55.27-63.97c.71-.7,1.07-1.41,1.43-2.46l21.04-60.46c1.43-4.22-1.07-8.44-5.35-9.49l-9.98-2.46c-3.92-.7-7.85,1.41-8.91,5.27l-16.4,62.56c-.36,1.05-.71,1.76-1.43,2.81l-47.43,59.05c-2.5,2.81-1.78,7.38,1.43,10.19Z" fill="#9b7045"/><path d="m171.88,360.28c3.57-1.41,5.7-4.92,4.64-8.79l-38.51-137.43c-.71-3.16-3.57-5.27-7.13-5.27h-13.19c-5.35,0-8.91,5.27-6.78,10.19l30.67,66.43c0,.35.36.7.36,1.05l20.33,69.24c1.43,3.87,5.71,5.98,9.63,4.57Z" fill="#9b7045"/><path d="m162.61,369.06c.71,2.11,2.85,2.81,4.64,2.46,9.27-1.76,39.58-8.44,41.36-13.71.71-2.11,0-3.16,0-3.16-1.07-1.76-4.28-1.76-4.99-1.76l-25.32-2.81c-.71,0-1.07.35-1.43.7-1.07,1.76-3.57,5.27-8.2,7.03-3.57,1.05-6.42.7-8.56.35-.71-.35-1.78.7-1.43,1.41l3.92,9.49Z"/><path d="m108.76,224.95c1.78-16.52,9.98-66.78,10.7-76.62h-37.09c-2.14,16.87-8.56,53.07-11.05,70.3" fill="#1b1b5b"/><path d="m50.28,185.24c-.71,0-1.07-1.76-1.78-3.51-.71-1.41-2.14-4.22-2.85-3.87-1.43.35,1.43,13.36-1.07,14.06-.36,0-1.07,0-1.07-.35-1.43-1.05-.71-3.51-1.07-7.73-.36-2.81-1.07-5.27-1.43-5.27-.71,0-1.43,7.73-2.5,10.9,0,.35-.36,1.05-1.07,1.41-.36,0-1.07-.35-1.07-.35-2.14-1.76.71-12.65-.36-13.01-.71-.35-3.92,7.38-6.06,7.03-.36,0-.71-.7-.71-.7-1.43-2.46,4.28-7.73,3.92-8.08-.36-.35-4.99,4.57-6.42,3.51-.36,0-.36-.35-.36-.7-.36-1.05,1.07-2.11,3.92-5.27,4.99-5.27,6.78-5.62,7.85-8.79,1.43-3.16-1.43-44.64,0-45.34.36-.35,28.53-32.69,29.6-32.34,1.78.7,16.05,1.05,18.19,2.46,1.43.7-36.02,35.15-35.66,35.5.36,1.76-2.85,41.12-2.14,44.64.36,1.41.71,2.81,1.43,4.57,1.78,6.33,3.57,8.79,2.5,10.19-.71.7-1.07,1.05-1.78,1.05Z" fill="#9b7045"/><path d="m132.3,29.17c0-.35-.36-.7-.36-.7-.36-11.95-8.2-21.44-18.19-21.44s-18.19,10.19-18.19,22.85c0,4.22.71,8.08,2.5,11.25h-3.57v20.39h19.61v-8.79c8.2,0,14.98-6.68,17.47-16.17,2.5.35,2.85-.35,3.21-.7s.36-1.05-2.5-6.68Z" fill="#9b7045"/><path d="m100.56,55.18c14.26,0,25.68,11.25,25.68,25.31v64.32c0,14.06-11.41,25.31-25.68,25.31s-25.67-11.25-25.67-25.31v-64.32c0-14.06,11.41-25.31,25.67-25.31Z" fill="#e0c141"/><path d="m75.24,147.27h51.35l18.54,66.78-42.43,14.76c-1.78-5.98-6.06-20.74-9.27-26.36l-12.12-18.28c-4.28-8.44-6.78-17.57-6.42-27.06.36-5.27.36-9.84.36-9.84Z" fill="#339"/><path d="m.71,342c-1.43,1.41-1.07,3.87.36,5.27,6.42,6.68,28.17,28.82,33.52,27.77,2.14-.35,2.85-1.76,2.85-1.76,1.07-1.76-.71-4.57-1.07-4.92l-10.7-22.5c0-1.05-.71-1.41-1.43-1.41-2.14,0-6.42,0-10.34-3.16-2.85-2.11-4.28-4.92-4.64-7.03-.36-.7-1.43-1.05-2.14-.35l-6.42,8.08Z"/><path d="m71.68,109.66l20.33-23.9-11.77-20.74-24.25,29.53,15.69,15.11Z" fill="#e0c141"/><path d="m110.55,29.52c1.07-1.76,2.5-4.22,2.14-7.38-.36-2.81-1.78-3.87-1.07-4.92,1.43-2.46,10.34,3.87,16.76.7,4.64-2.11,7.13-8.08,5.71-10.54-1.07-1.76-3.21-.35-8.92-2.11-5.71-1.76-5.71-3.51-10.7-4.57-3.92-1.05-7.49-.7-9.27-.35-1.43,0-7.13.7-11.77,3.87-8.92,6.33-12.12,21.44-6.78,27.42,2.14,2.46,5.71,3.16,6.06,6.68.36,2.81-1.78,4.22-.71,5.62,1.07,1.41,4.64,1.05,7.13-.35,3.92-2.11,5.35-6.33,5.71-7.38-3.92-1.41-5.71-4.92-4.99-7.73.36-2.11,2.5-3.51,4.64-3.87,2.5-.35,5.35,1.76,6.06,4.92Z" fill="#110905"/><path d="m123.03,24.96c-.36,0-.71.7-.71,1.05v2.46s0,.35.36.35c0,0,.36,0,.36.35h.71l.36-.35c.36-.35,0,0,0-.35v-1.41c0-.35,0-1.05-.36-1.41,0-.35-.36-.7-.71-1.05q.36,0,0,.35,0-.35,0,0Z"/><path d="m123.03,40.43c-.71.35-.36,2.11,0,3.16.71,1.76,2.14,2.81,2.85,3.16.71-.7,1.07-1.41,1.78-2.11.36-.7,1.07-1.41,1.07-2.11-.71,0-1.78-.35-2.85-.7-1.78-.7-2.5-1.76-2.85-1.41Z" fill="#fff"/><path d="m118.03,39.37c2.17,0,3.92-1.73,3.92-3.87s-1.76-3.87-3.92-3.87-3.92,1.73-3.92,3.87,1.76,3.87,3.92,3.87Z" fill="#e5618a" isolation="isolate" opacity=".48"/><path d="m95.21,86.11l-20.33,20.03v2.46l20.33-22.49Z" fill="#bcbbbb"/><path d="m126.59,102.64l-24.25,44.64-.36-26.71,22.82-48.51.71,1.76.36,2.46.36,1.76.36,12.3v12.3Z" fill="#e0c141"/><path d="m102.34,147.27h-.71l.36-57.29.36,57.29Z" fill="#bcbbbb"/></g></g></g></svg>