<?xml version="1.0" encoding="UTF-8"?><svg id="b" xmlns="http://www.w3.org/2000/svg" viewBox="0 0 231.93 427.6"><g id="c"><g id="d"><path d="m34.54,196.68l5.65-48.98.4-1.2.81-1.2,25.03-38.55,15.75,12.85-33.11,31.72,1.21-2.41-5.65,48.98-10.09-1.21Z" fill="#684135"/><path d="m171.82,197.48c-11.31-12.45-21.8-26.1-32.3-39.35-4.04-9.64-7.67-18.87-11.31-28.51-3.63-9.23-6.86-18.47-10.09-27.7l14.94-5.62c7.67,18.07,14.53,36.54,20.99,55.01l-.81-2.01c9.29,14.05,18.17,28.11,26.24,42.56-.4.4-7.67,5.62-7.67,5.62Z" fill="#684135"/><path d="m200.08,204.32c-.81.8-2.02-.4-4.44-.8-2.02-.4-5.25-1.21-5.25-.4-.81,1.61,12.52,8.83,11.31,11.64-.4.4-.81.8-1.21.8-2.02.4-3.63-2.01-7.67-4.82-2.83-2.01-5.25-3.21-5.65-2.81-.4.4,5.65,7.23,7.67,10.44.4.4.81,1.21.4,1.61-.4.4-1.21.8-1.21.8-2.83.4-10.09-10.04-11.31-9.64-.81.4,3.63,9.23,1.62,10.44-.4.4-.81,0-1.21,0-3.23-.8-3.63-9.23-4.04-9.23s.4,7.63-1.62,8.03h-.81c-1.21-.4-1.21-2.41-1.61-7.23-1.21-8.43,0-10.04-1.62-13.25-1.62-3.21-4.04-4.02-3.63-6.02.4-2.41,4.04-3.61,6.86-4.02,2.02,1.2,4.84,3.21,8.08,4.82,1.21.8,2.83,1.61,4.84,2.41,6.86,3.21,10.09,3.61,10.5,5.62.4.4.4,1.2,0,1.61Z" fill="#684135"/><path d="m155.26,134.05l-16.55-48.18-27.05-1.2,21,60.23,22.61-10.84Z" fill="#5c6042"/><path d="m36.89,378.24l-12.84-10.39-14.26,17.45,12.84,10.39,14.26-17.45Z" fill="#684135"/><path d="m188.17,385.34l-15.62,5.45,7.48,21.22,15.62-5.45-7.48-21.22Z" fill="#684135"/><path d="m179.49,422.34c.81,2.01,3.23,3.21,5.25,2.81,10.5-2.01,44.82-9.64,46.84-15.66.81-2.41,0-4.01,0-4.01-1.21-2.01-4.84-2.01-5.65-2.01l-28.67-3.21c-.81,0-1.21.4-1.62.8-1.21,2.01-4.04,6.02-9.29,8.03-4.04,1.2-7.27.8-9.69.4-.81-.4-2.02.8-1.61,1.61l4.44,11.24Z"/><path d="m93.89,168.17h41.99c-.81,11.24-2.42,26.9-4.44,45.77-6.86,63.84-10.5,74.28-14.13,83.11-7.67,17.27-11.71,32.12-30.28,53.4-17.36,20.08-24.23,43.77-36.34,53.8-8.08-6.42-31.09-25.7-39.57-32.12,21.8-27.7,43.61-55.41,65.41-83.11,3.23-20.48,6.46-41.36,9.29-62.23,2.83-19.67,5.65-39.35,8.07-58.62Z" fill="#29485d"/><path d="m48.67,218.76c-.81,0-1.21-1.61-2.02-4.02-.81-1.61-2.42-4.42-3.23-4.42-1.62.4,1.62,15.26-1.21,16.06-.4,0-1.21,0-1.21-.4-1.61-1.2-.81-4.02-1.21-8.83-.4-3.21-1.21-6.02-1.62-6.02-.81,0-2.02,8.83-2.83,12.45,0,.4-.4,1.21-1.21,1.61-.4,0-1.21-.4-1.21-.4-2.42-2.01.81-14.45-.4-14.86-.81-.4-4.85,8.43-6.86,8.03-.4,0-.81-.8-.81-.8-1.62-2.81,4.84-8.83,4.44-9.23-.4-.4-5.65,5.22-7.27,4.02-.4,0-.4-.4-.4-.8-.4-1.2,1.21-2.41,4.44-6.02,5.65-6.02,7.67-6.42,8.88-10.04,1.62-3.61.4-5.62,2.02-6.83,2.02-1.21,5.25.8,7.67,2.41.4,2.01.81,5.62,1.61,9.23.4,1.61.81,3.21,1.21,5.22,2.02,7.23,4.04,10.04,2.83,11.64-.4,1.61-1.21,2.01-1.62,2.01Z" fill="#684135"/><path d="m150.01,32.86c0-.4-.4-.8-.4-.8-.4-13.65-9.69-24.89-20.59-24.89s-20.59,11.64-20.59,26.1c0,4.82.81,9.23,2.83,12.85h-4.04v23.29h21.8v-10.44c9.29,0,16.96-7.63,19.78-18.47,2.83.4,3.23-.4,3.63-.8,0,.4.4-.4-2.42-6.83Z" fill="#684135"/><path d="m85.01,167.78h58.14l55.72,225.65-44.41,18.47-9.29-65.85-7.67-45.77c-2.02-6.83-4.84-13.65-8.48-20.07l-37.15-70.27c-4.84-9.64-7.67-20.08-7.27-30.92.4-6.02.4-11.24.4-11.24Z" fill="#295269"/><path d="m1.03,389.81c-1.62,2.01-1.21,4.42.4,6.02,7.27,7.63,31.9,32.92,37.95,31.72,2.42-.4,3.23-2.01,3.23-2.01,1.21-2.01-.81-5.22-1.21-5.62l-12.11-25.7c-.4-.8-.81-1.2-1.61-.8-2.42,0-7.27,0-11.71-3.61-3.23-2.41-4.85-5.62-5.25-8.03-.4-.8-1.61-1.2-2.42-.4l-7.27,8.43Z"/><path d="m71.68,136.46l32.3-39.35-13.32-23.29-40.38,49.39,21.4,13.25Z" fill="#707752"/><path d="m139.11,28.05c-.4,0-.81.8-.81,1.2v2.81l.4.4h2.02v-2.01c0-.4,0-1.2-.4-1.61,0-.4-.4-.8-.81-1.2h-.4c.4,0,0,.4,0,.4Z"/><path d="m128.61,15.2c.4-1.61,14.13,2.41,16.15-.4.81-1.2-.81-4.42-2.42-5.62-1.21-1.2-2.02-.8-4.84-2.81-2.83-2.01-2.83-2.81-4.84-3.21-2.02-.8-2.42,0-4.44-.8-2.42-.8-2.02-1.61-4.04-2.01-3.23-.8-6.06,0-8.07.4-2.42.8-2.42,1.2-5.25,2.01-1.61.4-2.42.4-3.23,1.2-1.21,0-1.21.4-3.63,2.81q-2.02,2.01-2.42,2.81c-.81,1.2-.4,1.61-1.21,3.21-1.21,2.81-2.02,2.41-3.23,4.82-.4,1.2,0,1.61-.4,5.22-.4,3.21-.81,3.21-.81,4.82,0,1.2,0,3.61,1.21,6.02.81,1.2,1.21,1.61,2.02,2.41q.4.4.81.8c1.21,1.2,1.62,2.41,2.42,4.42,1.21,2.01,1.62,2.01,2.02,3.61.4.8,0,1.2.4,2.81.4,2.41.4,3.61,1.21,4.42.81.8,2.42.4,5.25,0,2.42-.4,3.23-.8,3.63-1.2.81-.8,1.21-1.61,1.62-2.01.81-1.2.4-1.61,1.21-2.81.4-.8.81-.8,1.21-1.2.81-.8,1.21-1.61,1.62-3.61-4.04-.4-6.86-3.61-6.86-6.42,0-2.01,1.21-4.42,3.63-5.22,2.83-1.2,6.06.4,7.67,3.61,2.83-2.81,3.23-4.82,3.23-6.02s-.4-2.81,0-4.42c0-.4.4-.8,0-1.2,0-1.2-1.21-1.2-1.21-2.01s.81-.8.81-1.61c1.61-2.01.81-2.41.81-2.81Z" fill="#2d2821"/><path d="m139.52,45.71c-.81.4-.4,2.41,0,3.61.81,2.01,2.42,3.21,3.23,4.01.4-.8,1.21-1.61,2.02-2.41.4-.8,1.21-1.61,1.21-2.41-.81,0-2.02-.4-3.23-.8-2.02-1.2-2.83-2.41-3.23-2.01Z" fill="#fff"/><path d="m108.02,90.69c-.4.4-.4,1.21-.81,1.61-.4.4-.4,1.21-.81,1.61-.4.8-1.21,2.01-1.62,2.81-.4,1.2-1.21,2.01-2.02,3.21-.81.8-1.21,2.01-2.02,2.81-.4.8-1.21,1.61-1.62,2.41-.81.8-1.21,1.61-2.02,2.41-.81.8-1.62,1.61-2.42,2.41-.4.4-.81.8-1.21,1.2-.4.4-.81.8-1.21,1.2-.81.8-1.62,1.61-2.42,2.41-.4.4-.81.8-1.21,1.2-.4.4-.81.8-1.21.8-.4.4-.81.8-1.21,1.2-.4.4-.81.8-1.21,1.21-.4.4-.4.8,0,1.2.4.4.81.4,1.21,0,.4-.4.81-.8,1.21-1.2.4-.4.81-.8,1.21-1.21.4-.4.81-.8,1.21-.8.4-.4.81-.8,1.21-1.21.81-.8,1.62-1.61,2.42-2.01.4-.4.81-.8,1.21-1.2.4-.4.81-.8,1.21-1.2.81-.8,1.62-1.61,2.42-2.01.4-.4.81-.8,1.21-1.2.4-.4.81-.8,1.21-1.21,1.61-1.61,2.83-3.61,4.04-5.62.81-1.61,1.62-2.81,2.83-4.42.4-.8.81-1.61,1.21-2.41.4-.8.81-1.61,1.21-2.41,0-.4.4-.8,0-.8,0-.4-.4-.8-.4-.8-.4-.4-1.21-.4-1.62,0Z" fill="#a04a61"/><path d="m181.91,376.16c.4-.4.4-.8.4-1.61s0-1.61-.4-2.81c-.4-2.41-1.21-4.82-1.61-7.23-.81-3.21-1.21-6.42-2.02-9.64s-1.21-6.42-2.02-9.64c-1.21-6.02-2.83-12.45-4.04-18.87-.81-2.81-1.21-5.22-2.02-8.03s-1.61-5.62-2.02-8.43c-.81-2.81-1.21-5.62-2.02-8.03-.81-3.21-1.62-6.42-2.83-9.23-.4-1.2-.81-1.61-1.21-.8v1.61c0,.8,0,1.2.4,2.01.81,2.81,1.61,6.02,2.02,8.83.81,3.21,1.62,6.02,2.02,9.23.81,3.21,1.62,6.42,2.42,9.23.4,1.61.81,2.81,1.21,4.42s.81,3.21,1.21,4.82c1.21,4.42,2.02,9.23,2.83,13.65,1.21,4.82,2.02,9.64,3.23,14.45.4,2.01.81,4.42,1.21,6.83,0,.8.4,2.01.81,2.81.4,1.2.4,2.41.81,3.61.4,1.61.81,2.41,1.21,2.41,0,.4.4.4.4.4Z" fill="#29485d"/><path d="m156.47,214.35l-12.92-55.01h-.4v-67.86c0-16.06-13.32-28.91-29.07-28.91s-29.07,13.25-29.07,28.91v68.66l-.81,61.03,72.27-6.83Z" fill="#707752"/></g></g></svg>