<?xml version="1.0" encoding="UTF-8"?><svg id="b" xmlns="http://www.w3.org/2000/svg" xmlns:xlink="http://www.w3.org/1999/xlink" viewBox="0 0 161.88 310.27"><defs><clipPath id="e"><rect width="161.88" height="310.27" fill="none"/></clipPath></defs><g id="c"><g id="d"><g clip-path="url(#e)" fill="none"><path d="m131.77,137.42c-.52.44-1.46-.2-2.92-.67-1.27-.41-3.47-.87-3.72-.41-.52,1.05,8.57,6.34,7.78,8.32-.14.38-.58.49-.8.55-1.41.41-2.54-1.45-5.16-3.43-1.82-1.37-3.58-2.21-3.75-2.01-.28.38,3.83,5.27,5.21,7.51.17.29.52.87.3,1.31-.19.38-.72.44-.88.47-2.04.26-6.98-7.3-7.72-6.87-.63.38,2.37,6.6,1.05,7.59-.28.2-.66.12-.8.06-2.18-.61-2.37-6.81-2.79-6.78-.39.03.17,5.44-1.21,5.88-.22.06-.44,0-.55-.06-.8-.38-.74-1.77-1.13-5.12-.69-6.02.06-7.13-1.08-9.63-1.13-2.44-29.92-45.67-29.7-47.04.25-1.63,4.25-2.56,6.2-3.08,1.27.9,28.87,45,31.32,46.37.91.49,1.96,1.11,3.42,1.77,4.6,2.21,6.98,2.5,7.22,4.07.06.38,0,.93-.3,1.19Z" fill="#844a1e"/><path d="m8.13,286.45c2.4,2.07,5.93,1.72,7.97-.76l42.79-52.89c.47-.58.83-1.25,1.08-1.98l16.16-49.95c1.1-3.4-.83-7.04-4.14-7.82l-7.8-1.89c-3.01-.73-6.04,1.22-6.81,4.36l-12.55,51.31c-.19.81-.55,1.57-1.05,2.24l-36.51,48.9c-1.93,2.59-1.54,6.34.88,8.41l-.03.06Z" fill="#844a1e"/><path d="m132.98,298.17c2.79-1.05,4.36-4.19,3.56-7.19l-29.86-113.94c-.66-2.59-2.89-4.36-5.43-4.36h-10.37c-4.11,0-6.84,4.48-5.13,8.41l23.82,54.98c.11.26.22.52.28.81l15.83,57.36c.91,3.29,4.22,5.09,7.28,3.96l.03-.03Z" fill="#844a1e"/><path d="m125.84,305.36c.55,1.6,2.18,2.44,3.69,1.98,7.09-1.57,30.61-6.98,32.04-11.23.58-1.75,0-2.76,0-2.76-.83-1.51-3.31-1.45-3.83-1.43l-19.49-2.33c-.47-.06-.94.17-1.16.64-.74,1.45-2.62,4.48-6.34,5.85-2.65.96-5.05.67-6.59.26-.69-.17-1.27.52-1.05,1.22l2.67,7.8h.06Z"/><path d="m84.04,186.23c1.38-13.67,7.69-55.36,8.36-63.42-9.54,0-19.08,0-28.59-.03-1.79,14.08-6.53,43.87-8.49,58.15" fill="#1b1b5b"/><path d="m38.99,153.28c-.66-.12-.83-1.31-1.43-2.76-.52-1.28-1.65-3.34-2.15-3.23-1.1.26,1.1,11-.83,11.66-.36.12-.74-.15-.91-.26-1.21-.84-.63-2.97-.94-6.37-.22-2.36-.77-4.31-1.02-4.28-.44.03-1.24,6.52-1.93,9.08-.08.32-.28.99-.72,1.11-.39.09-.77-.26-.91-.41-1.54-1.45.63-10.36-.17-10.65-.69-.26-3.17,6.23-4.74,5.82-.33-.09-.5-.44-.58-.58-.99-2.12,3.31-6.37,3.01-6.69-.28-.29-3.78,3.72-4.99,2.91-.19-.15-.28-.38-.3-.49-.25-.87.77-1.77,2.9-4.28,3.83-4.51,5.13-4.65,6.15-7.19,1.02-2.5-1.16-36.89-.08-37.61.33-.2,22-27.02,22.78-26.7,1.46.58,12.49.84,14.12,1.95,1.02.7-27.93,28.97-27.46,29.32.19,1.6-2.18,33.95-1.54,36.83.25,1.05.5,2.27.97,3.9,1.46,5.12,2.78,7.19,1.85,8.41-.22.29-.66.61-1.05.55v-.03Z" fill="#844a1e"/><path d="m102.41,24.23c-.11-.23-.19-.47-.3-.67-.39-9.98-6.51-17.89-14.01-17.89s-14.03,8.47-14.03,18.91c0,3.43.69,6.63,1.87,9.4h-2.67v16.96h14.86v-7.45c6.31,0,11.64-5.59,13.43-13.29,1.79.23,2.32-.29,2.48-.52.17-.23.41-.81-1.6-5.47l-.03.03Z" fill="#844a1e"/><path d="m97.75,66.67c0-11.62-8.93-21.03-19.94-21.03s-19.94,9.42-19.94,21.03v53.26c0,11.62,8.93,21.03,19.94,21.03s19.94-9.42,19.94-21.03v-53.26Z" fill="#eaeaea"/><path d="m58.26,121.94h39.7l14.48,55.21-32.73,12.33c-1.46-5.06-4.74-17.28-7.09-21.96l-9.49-15.21c-3.45-6.89-5.16-14.57-5.02-22.37.08-4.33.17-8.14.17-8h-.03Z" fill="#339"/><path d="m.66,282.96c-.99,1.31-.85,3.23.36,4.36,4.96,5.53,21.67,23.85,25.86,22.92,1.71-.38,2.23-1.43,2.23-1.43.8-1.54-.55-3.72-.85-4.19l-8.33-18.73c-.19-.47-.63-.76-1.1-.7-1.57.12-4.99,0-8.05-2.65-2.18-1.86-3.2-4.16-3.67-5.79-.22-.73-1.1-.87-1.54-.29l-4.91,6.49Z"/><path d="m55.53,90.85l15.47-20.01-8.91-17.05-18.8,24.46,12.24,12.6Z" fill="#eaeaea"/><path d="m85.53,24.38c.83-1.37,1.85-3.52,1.63-6.05-.19-2.33-1.24-3.23-.8-4.07,1.02-1.98,7.91,3.08,13.07.47,3.5-1.77,5.51-6.66,4.36-8.67-.8-1.4-2.56-.44-6.81-1.72-4.25-1.28-4.41-2.79-8.38-3.81-3.23-.81-5.9-.47-7.36-.35-.97.09-5.43.49-9.04,3.17-7.03,5.21-9.32,17.83-5.32,22.69,1.65,2.01,4.41,2.71,4.77,5.44.3,2.18-1.27,3.58-.47,4.63.88,1.19,3.69.76,5.54-.23,3.06-1.63,4.05-5.12,4.3-6.08-3.01-1.02-4.55-3.99-3.92-6.34.41-1.6,1.88-3.03,3.61-3.2,2.12-.2,4.27,1.45,4.83,4.07v.06Z" fill="#110905"/><path d="m94.99,20.68c-.3.12-.47.47-.52.81-.03.15-.06.32-.06.47v.35c0,.17.03.32.06.47,0,.09.03.17.05.23.03.09.06.17.11.26.06.12.14.2.25.29.08.06.19.12.28.15h.3c.14,0,.25,0,.36-.09.08-.03.14-.09.19-.15.06-.06.08-.12.14-.17.03-.06.06-.12.08-.2.06-.15.08-.29.08-.47v-.2c0-.38-.06-.76-.17-1.13-.08-.32-.25-.7-.58-.76-.08-.06-.19-.06-.3-.06s-.22,0-.33.09l.05.12Z"/><path d="m95.15,33.48c-.44.23-.28,1.63.08,2.59.52,1.48,1.57,2.36,2.15,2.76.41-.49.83-1.05,1.27-1.69.39-.58.72-1.13.96-1.66-.52-.06-1.32-.23-2.18-.67-1.38-.7-1.9-1.57-2.29-1.34Z" fill="#fff"/><path d="m91.35,32.64c1.69,0,3.06-1.45,3.06-3.23s-1.37-3.23-3.06-3.23-3.06,1.45-3.06,3.23,1.37,3.23,3.06,3.23Z" fill="#e5618a" isolation="isolate" opacity=".48"/><path d="m73.56,71.36l-15.61,16.46-.08,2.18,15.69-18.65Z" fill="#bcbbbb"/><path d="m97.77,84.85l-18.75,37.09-.25-22.2,17.87-40,.44,1.48.39,1.77.25,1.57.05,10.09v10.18Z" fill="#f33"/><path d="m79.02,121.94h-.5l.25-47.36.25,47.36Z" fill="#bcbbbb"/></g></g></g></svg>