<?xml version="1.0" encoding="UTF-8"?><svg id="b" xmlns="http://www.w3.org/2000/svg" xmlns:xlink="http://www.w3.org/1999/xlink" viewBox="0 0 24 43"><defs><clipPath id="e"><rect width="24" height="43" fill="none"/></clipPath></defs><g id="c"><g id="d"><g clip-path="url(#e)" fill="none"><path d="m19.54,19.02c-.08.08-.2-.04-.45-.08-.2-.04-.53-.12-.53-.04-.08.16,1.27.89,1.14,1.17,0,.04-.08.08-.12.08-.2.04-.37-.2-.78-.48-.29-.2-.53-.32-.57-.28s.57.73.78,1.05c.04.04.08.12.04.2-.04.04-.12.08-.12.08-.29.04-1.02-1.01-1.14-.97-.08.04.37.93.16,1.05-.04.04-.08,0-.12,0-.33-.08-.37-.93-.41-.93s.04.77-.16.81h-.08c-.12-.04-.12-.24-.16-.73-.08-.85,0-1.01-.16-1.33-.16-.32-4.46-6.33-4.42-6.53.04-.24.61-.36.9-.44.2.12,4.29,6.25,4.66,6.41.12.08.29.16.49.24.7.32,1.02.36,1.06.56.04.08.04.16,0,.16Z" fill="#9b7045"/><path d="m1.23,39.7c.37.28.9.24,1.19-.12l6.34-7.33c.08-.08.12-.16.16-.28l2.41-6.93c.16-.48-.12-.97-.61-1.09l-1.14-.28c-.45-.08-.9.16-1.02.6l-1.88,7.17c-.04.12-.08.2-.16.32l-5.44,6.77c-.29.32-.2.85.16,1.17Z" fill="#9b7045"/><path d="m19.71,41.31c.41-.16.65-.56.53-1.01l-4.42-15.76c-.08-.36-.41-.6-.82-.6h-1.51c-.61,0-1.02.6-.78,1.17l3.52,7.62s.04.08.04.12l2.33,7.94c.16.44.65.69,1.1.52Z" fill="#9b7045"/><path d="m18.64,42.31c.08.24.33.32.53.28,1.06-.2,4.54-.97,4.74-1.57.08-.24,0-.36,0-.36-.12-.2-.49-.2-.57-.2l-2.9-.32c-.08,0-.12.04-.16.08-.12.2-.41.6-.94.81-.41.12-.74.08-.98.04-.08-.04-.2.08-.16.16l.45,1.09Z"/><path d="m12.47,25.79c.2-1.89,1.14-7.66,1.23-8.79h-4.25c-.25,1.93-.98,6.09-1.27,8.06" fill="#1b1b5b"/><path d="m5.76,21.24c-.08,0-.12-.2-.2-.4-.08-.16-.25-.48-.33-.44-.16.04.16,1.53-.12,1.61-.04,0-.12,0-.12-.04-.16-.12-.08-.4-.12-.89-.04-.32-.12-.6-.16-.6-.08,0-.16.89-.29,1.25,0,.04-.04.12-.12.16-.04,0-.12-.04-.12-.04-.25-.2.08-1.45-.04-1.49-.08-.04-.45.85-.7.81-.04,0-.08-.08-.08-.08-.16-.28.49-.89.45-.93-.04-.04-.57.52-.74.4-.04,0-.04-.04-.04-.08-.04-.12.12-.24.45-.6.57-.6.78-.64.9-1.01.16-.36-.16-5.12,0-5.2.04-.04,3.27-3.75,3.39-3.71.2.08,1.84.12,2.09.28.16.08-4.13,4.03-4.09,4.07.04.2-.33,4.72-.25,5.12.04.16.08.32.16.52.2.73.41,1.01.29,1.17-.08.08-.12.12-.2.12Z" fill="#9b7045"/><path d="m15.17,3.34s-.04-.08-.04-.08c-.04-1.37-.94-2.46-2.09-2.46s-2.09,1.17-2.09,2.62c0,.48.08.93.29,1.29h-.41v2.34h2.25v-1.01c.94,0,1.72-.77,2-1.85.29.04.33-.04.37-.08s.04-.12-.29-.77Z" fill="#9b7045"/><path d="m11.53,6.33c1.64,0,2.94,1.29,2.94,2.9v7.37c0,1.61-1.31,2.9-2.94,2.9s-2.94-1.29-2.94-2.9v-7.37c0-1.61,1.31-2.9,2.94-2.9Z" fill="#e0c141"/><path d="m8.63,16.89h5.89l2.13,7.66-4.87,1.69c-.2-.69-.69-2.38-1.06-3.02l-1.39-2.1c-.49-.97-.78-2.02-.74-3.1.04-.6.04-1.13.04-1.13Z" fill="#339"/><path d="m.08,39.21c-.16.16-.12.44.04.6.74.77,3.23,3.3,3.84,3.18.25-.04.33-.2.33-.2.12-.2-.08-.52-.12-.56l-1.23-2.58c0-.12-.08-.16-.16-.16-.25,0-.74,0-1.19-.36-.33-.24-.49-.56-.53-.81-.04-.08-.16-.12-.25-.04l-.74.93Z"/><path d="m8.22,12.57l2.33-2.74-1.35-2.38-2.78,3.39,1.8,1.73Z" fill="#e0c141"/><path d="m12.67,3.39c.12-.2.29-.48.25-.85-.04-.32-.2-.44-.12-.56.16-.28,1.19.44,1.92.08.53-.24.82-.93.65-1.21-.12-.2-.37-.04-1.02-.24-.65-.2-.65-.4-1.23-.52-.45-.12-.86-.08-1.06-.04-.16,0-.82.08-1.35.44-1.02.73-1.39,2.46-.78,3.14.25.28.65.36.7.77.04.32-.2.48-.08.64.12.16.53.12.82-.04.45-.24.61-.73.65-.85-.45-.16-.65-.56-.57-.89.04-.24.29-.4.53-.44.29-.04.61.2.7.56Z" fill="#110905"/><path d="m14.11,2.86s-.08.08-.08.12v.28s0,.04.04.04c0,0,.04,0,.04.04h.08l.04-.04s0,0,0-.04v-.16s0-.12-.04-.16c0-.04-.04-.08-.08-.12t0,.04s0-.04,0,0Z"/><path d="m14.11,4.63c-.08.04-.04.24,0,.36.08.2.25.32.33.36.08-.08.12-.16.2-.24.04-.08.12-.16.12-.24-.08,0-.2-.04-.33-.08-.2-.08-.29-.2-.33-.16Z" fill="#fff"/><path d="m13.53,4.51c.25,0,.45-.2.45-.44s-.2-.44-.45-.44-.45.2-.45.44.2.44.45.44Z" fill="#e5618a" isolation="isolate" opacity=".48"/><path d="m10.92,9.87l-2.33,2.3v.28l2.33-2.58Z" fill="#bcbbbb"/><path d="m14.51,11.77l-2.78,5.12-.04-3.06,2.62-5.56.08.2.04.28.04.2.04,1.41v1.41Z" fill="#e0c141"/><path d="m11.73,16.89h-.08l.04-6.57.04,6.57Z" fill="#bcbbbb"/></g></g></g></svg>