<?xml version="1.0" encoding="UTF-8"?><svg id="b" xmlns="http://www.w3.org/2000/svg" xmlns:xlink="http://www.w3.org/1999/xlink" viewBox="0 0 24 46"><defs><clipPath id="e"><rect width="24" height="46" fill="none"/></clipPath></defs><g id="c"><g id="d"><g clip-path="url(#e)" fill="none"><path d="m19.54,20.37c-.08.06-.22-.03-.43-.1-.19-.06-.52-.13-.55-.06-.08.16,1.27.94,1.15,1.23-.02.06-.09.07-.12.08-.21.06-.38-.22-.76-.51-.27-.2-.53-.33-.56-.3-.04.06.57.78.77,1.11.02.04.08.13.04.19-.03.06-.11.06-.13.07-.3.04-1.03-1.08-1.14-1.02-.09.06.35.98.16,1.13-.04.03-.1.02-.12,0-.32-.09-.35-1.01-.41-1-.06,0,.02.81-.18.87-.03,0-.07,0-.08,0-.12-.06-.11-.26-.17-.76-.1-.89,0-1.06-.16-1.43-.17-.36-4.44-6.77-4.4-6.97.04-.24.63-.38.92-.46.19.13,4.28,6.67,4.64,6.87.13.07.29.16.51.26.68.33,1.03.37,1.07.6,0,.06,0,.14-.04.18Z" fill="#844a1e"/><path d="m1.21,42.47c.36.31.88.25,1.18-.11l6.34-7.84c.07-.09.12-.19.16-.29l2.4-7.41c.16-.5-.12-1.04-.61-1.16l-1.16-.28c-.45-.11-.9.18-1.01.65l-1.86,7.61c-.03.12-.08.23-.16.33l-5.41,7.25c-.29.38-.23.94.13,1.25h0Z" fill="#844a1e"/><path d="m19.72,44.21c.41-.16.65-.62.53-1.07l-4.43-16.89c-.1-.38-.43-.65-.81-.65h-1.54c-.61,0-1.01.66-.76,1.25l3.53,8.15s.03.08.04.12l2.35,8.5c.13.49.63.75,1.08.59h0Z" fill="#844a1e"/><path d="m18.66,45.27c.08.24.32.36.55.29,1.05-.23,4.54-1.04,4.75-1.66.09-.26,0-.41,0-.41-.12-.22-.49-.22-.57-.21l-2.89-.35c-.07,0-.14.03-.17.09-.11.22-.39.66-.94.87-.39.14-.75.1-.98.04-.1-.03-.19.08-.16.18l.4,1.16h0Z"/><path d="m12.46,27.61c.2-2.03,1.14-8.21,1.24-9.4-1.41,0-2.83,0-4.24,0-.27,2.09-.97,6.5-1.26,8.62" fill="#1b1b5b"/><path d="m5.78,22.72c-.1-.02-.12-.19-.21-.41-.08-.19-.25-.5-.32-.48-.16.04.16,1.63-.12,1.73-.05.02-.11-.02-.13-.04-.18-.13-.09-.44-.14-.94-.03-.35-.11-.64-.15-.63-.07,0-.18.97-.29,1.35-.01.05-.04.15-.11.16-.06.01-.11-.04-.13-.06-.23-.22.09-1.54-.02-1.58-.1-.04-.47.92-.7.86-.05-.01-.07-.06-.09-.09-.15-.31.49-.94.45-.99-.04-.04-.56.55-.74.43-.03-.02-.04-.06-.04-.07-.04-.13.11-.26.43-.63.57-.67.76-.69.91-1.07.15-.37-.17-5.47-.01-5.58.05-.03,3.26-4.01,3.38-3.96.22.09,1.85.13,2.09.29.15.1-4.14,4.3-4.07,4.35.03.24-.32,5.03-.23,5.46.04.16.07.34.14.58.22.76.41,1.07.27,1.25-.03.04-.1.09-.16.08h0Z" fill="#844a1e"/><path d="m15.18,3.59s-.03-.07-.05-.1c-.06-1.48-.96-2.65-2.08-2.65s-2.08,1.26-2.08,2.8c0,.51.1.98.28,1.39h-.4v2.51h2.2v-1.1c.94,0,1.73-.83,1.99-1.97.27.03.34-.04.37-.08.02-.03.06-.12-.24-.81h0Z" fill="#844a1e"/><path d="m14.49,9.88c0-1.72-1.32-3.12-2.96-3.12s-2.96,1.4-2.96,3.12v7.9c0,1.72,1.32,3.12,2.96,3.12s2.96-1.4,2.96-3.12v-7.9Z" fill="#eaeaea"/><path d="m8.64,18.08h5.89l2.15,8.19-4.85,1.83c-.22-.75-.7-2.56-1.05-3.26l-1.41-2.26c-.51-1.02-.76-2.16-.74-3.32.01-.64.02-1.21.02-1.19h0Z" fill="#339"/><path d="m.1,41.95c-.15.19-.13.48.05.65.74.82,3.21,3.54,3.83,3.4.25-.06.33-.21.33-.21.12-.23-.08-.55-.13-.62l-1.23-2.78c-.03-.07-.09-.11-.16-.1-.23.02-.74,0-1.19-.39-.32-.28-.47-.62-.54-.86-.03-.11-.16-.13-.23-.04l-.73.96Z"/><path d="m8.23,13.47l2.29-2.97-1.32-2.53-2.79,3.63,1.82,1.87Z" fill="#eaeaea"/><path d="m12.68,3.61c.12-.2.27-.52.24-.9-.03-.35-.18-.48-.12-.6.15-.29,1.17.46,1.94.07.52-.26.82-.99.65-1.29-.12-.21-.38-.06-1.01-.25-.63-.19-.65-.41-1.24-.56-.48-.12-.87-.07-1.09-.05-.14.01-.81.07-1.34.47-1.04.77-1.38,2.64-.79,3.36.25.3.65.4.71.81.05.32-.19.53-.07.69.13.18.55.11.82-.03.45-.24.6-.76.64-.9-.45-.15-.67-.59-.58-.94.06-.24.28-.45.54-.47.31-.03.63.22.72.6h0Z" fill="#110905"/><path d="m14.08,3.07s-.07.07-.08.12c0,.02,0,.05,0,.07v.05s0,.05,0,.07c0,.01,0,.03,0,.03,0,.01,0,.03.02.04,0,.02.02.03.04.04.01,0,.03.02.04.02h.04s.04,0,.05-.01c.01,0,.02-.01.03-.02,0,0,.01-.02.02-.03,0,0,0-.02.01-.03,0-.02.01-.04.01-.07v-.03c0-.06,0-.11-.02-.17-.01-.05-.04-.1-.09-.11-.01,0-.03,0-.05,0s-.03,0-.05.01v.02Z"/><path d="m14.11,4.96c-.07.03-.04.24.01.38.08.22.23.35.32.41.06-.07.12-.16.19-.25.06-.09.11-.17.14-.25-.08,0-.2-.03-.32-.1-.2-.1-.28-.23-.34-.2Z" fill="#fff"/><path d="m13.54,4.84c.25,0,.45-.21.45-.48s-.2-.48-.45-.48-.45.21-.45.48.2.48.45.48Z" fill="#e5618a" isolation="isolate" opacity=".48"/><path d="m10.91,10.58l-2.31,2.44v.32s2.31-2.76,2.31-2.76Z" fill="#bcbbbb"/><path d="m14.5,12.58l-2.78,5.5-.04-3.29,2.65-5.93.07.22.06.26.04.23v1.5s0,1.51,0,1.51Z" fill="#f33"/><path d="m11.72,18.08h-.07l.04-7.02.04,7.02Z" fill="#bcbbbb"/></g></g></g></svg>