<?xml version="1.0" encoding="UTF-8"?><svg id="b" xmlns="http://www.w3.org/2000/svg" xmlns:xlink="http://www.w3.org/1999/xlink" viewBox="0 0 75.38 44.21"><defs><mask id="e" x="43.15" y="21.51" width="8.02" height="21.06" maskUnits="userSpaceOnUse"><g id="f"><path d="m47.38,28.13s.5,7.93.45,8.91c-.06.98.87,2.58.8,2.99-.07.42,2.45.95,2.53,1.73.09.78-2.1,1.18-3.78.34-1.68-.84-1.68-.64-1.68-1.09s.73-2.18.25-2.63c-.48-.45-.81-.53-1.03-1.57-.22-1.03-1.37-6.77-1.71-8.03-.34-1.26.67-7.28.67-7.28l3.5,6.62h0Z" fill="#fff"/></g></mask><mask id="g" x="14.43" y="16.78" width="14.07" height="24.91" maskUnits="userSpaceOnUse"><g id="h"><path d="m22.11,16.78s-1.73,2.52-2.85,6.18c-1.12,3.67-4.98,4.81-4.59,7,.39,2.18-.24,8.38-.24,9.18s1.25,2.54,1.92,2.39c.67-.15,3.58.17,3.58.17,0,0,2.14-1.72-.19-2.61-.58-.22-1.72,0-1.72,0,0,0-.17-.5-.5-1.34-.34-.84.78-6.43,2.01-8.12,1.23-1.68,7.67-6.38,7.67-6.38" fill="#fff"/></g></mask><mask id="i" x="0" y="0" width="75.38" height="44.21" maskUnits="userSpaceOnUse"><g id="j"><path d="m72.62,28.08c-1.2.2-1.87-.34-1.87-.34,0,0-1.99.64-4.56-1.32-2.58-1.96-6.63-2.3-8.26-2.6-1.62-.31-5.04-.62-5.6-.45-.09.03-.36.1-.76.2-.94.82-2.08,1.93-2.15,2.45-.11.89,5.2,9.01,4.87,10.58-.34,1.57-3.02,6.69-3.44,7.05-.42.36-1.43.56-1.87,0-.45-.56.06-.64,0-1.18-.06-.53-.2-.87.03-1.4.23-.53,1.62-1.46,1.62-2.49s.84-.81.53-1.46c-.31-.64.06-1.6-.53-2.35-.59-.75-6.18-7.61-7-7.75-.63-.11-.69-.46-.68-1.69-.05,0-.1,0-.13-.02-.87-.28-6.38-3.02-8.37-2.66-.63.12-1.09.2-1.41.26.05.62.05,1.12-.01,1.42-.34,1.51-4.59,8.17-4.2,9.79.39,1.62,2.84,5.95,3.9,5.89,1.06-.06,3.34,2.44-.14,2.52-1.25.03-2.84-.53-2.95-.6-.11-.07-5.01-5.97-5.01-7.7s1.79-6.1,1.46-7.89c-.34-1.79-.57-4.31-2.52-5.2-.4-.18-.74-.41-1.03-.65l-2.16-.54.16-.81c-1.1,1.34-2.05,2.81-2.19,4-.37,3.02-4.96,5.19-7.91,6.04-2.95.86-6.08,5.71-6.98,5.56-.89-.15-.6-8.17,1.9-10.82,2.5-2.65,7.28-3.92,10.15-8.58,1.95-3.17,2.7-4.03,4.62-5.69,1.93-1.66,12.49-6.27,20.97-3.79,9.96,2.91,15.26,7.84,17.42,7.91.68.02,1.69,0,2.79,0,.26-.75.64-1.58,1.09-1.87.88-.58,2.86-6.54,3.86-6.09,1,.45,1.29,4.93.64,7.34-.15.56-.21,1-.21,1.35.24.13.43.28.56.46,1.04,1.49,1.19,2.24,2.09,3.13.89.89.98,2.71.98,2.71,0,0,.62,1.54,1.74,3.12l1.4,1.8c.43.56.34,1.36-.21,1.81l-.64.52h-.01Z" fill="#fff"/></g></mask><clipPath id="k"><rect x="52.99" y="11.74" width="1.27" height="1.36" fill="none"/></clipPath><clipPath id="l"><rect x="49.45" y="11" width="1.27" height="1.36" fill="none"/></clipPath><clipPath id="m"><rect x="49.22" y="15.03" width="1.27" height="1.36" fill="none"/></clipPath><clipPath id="n"><rect x="40.42" y="7.7" width="1.27" height="1.36" fill="none"/></clipPath><clipPath id="o"><rect x="46.61" y="13.78" width="1.27" height="1.36" fill="none"/></clipPath><clipPath id="p"><rect x="33.62" y="7.28" width="1.27" height="1.36" fill="none"/></clipPath><clipPath id="q"><rect x="32.5" y="11.88" width="1.27" height="1.36" fill="none"/></clipPath><clipPath id="r"><rect x="39.81" y="11.79" width="1.27" height="1.36" fill="none"/></clipPath><clipPath id="s"><rect x="45.56" y="6.02" width="1.27" height="1.36" fill="none"/></clipPath><clipPath id="t"><rect x="45.06" y="10.59" width="1.27" height="1.36" fill="none"/></clipPath><clipPath id="u"><rect x="26.27" y="8.56" width="1.27" height="1.36" fill="none"/></clipPath><clipPath id="v"><rect x="25.04" y="5.97" width="1.27" height="1.36" fill="none"/></clipPath><clipPath id="w"><rect x="30.61" y="6.66" width="1.27" height="1.36" fill="none"/></clipPath><clipPath id="x"><rect x="37.78" y="9.69" width="1.27" height="1.36" fill="none"/></clipPath><clipPath id="y"><rect x="3.84" y="26.86" width="1.27" height="1.36" fill="none"/></clipPath><clipPath id="z"><rect x="11.07" y="22.64" width="1.27" height="1.36" fill="none"/></clipPath><clipPath id="aa"><rect x="7.97" y="28.91" width="1.27" height="1.36" fill="none"/></clipPath><clipPath id="ab"><rect x="3.19" y="31.45" width="1.27" height="1.36" fill="none"/></clipPath><clipPath id="ac"><rect x="6.86" y="21.51" width="1.27" height="1.36" fill="none"/></clipPath><clipPath id="ad"><rect x="14.06" y="17.5" width="1.27" height="1.36" fill="none"/></clipPath><clipPath id="ae"><rect x="15.74" y="14.28" width="1.27" height="1.36" fill="none"/></clipPath><clipPath id="af"><rect x="57.08" y="15.52" width="1.27" height="1.36" fill="none"/></clipPath></defs><g id="c"><g id="d"><path d="m47.38,28.13s.5,7.93.45,8.91c-.06.98.87,2.58.8,2.99-.07.42,2.45.95,2.53,1.73.09.78-2.1,1.18-3.78.34-1.68-.84-1.68-.64-1.68-1.09s.73-2.18.25-2.63c-.48-.45-.81-.53-1.03-1.57-.22-1.03-1.37-6.77-1.71-8.03-.34-1.26.67-7.28.67-7.28l3.5,6.62h0Z" fill="#e7bf77"/><g fill="none" mask="url(#e)"><path d="m47.97,29.74s1.02,7.75.83,7.8c-.19.05-2.23-.56-1.9-1.25.32-.69-.09-1.67-.51-2.32-.42-.65-.09-2.41-.65-3.71-.56-1.3-1.48-2.41-1.21-3.06l.28-.65,3.16,3.2Z" fill="#cf8a50"/></g><path d="m22.11,16.78s-1.73,2.52-2.85,6.18c-1.12,3.67-4.98,4.81-4.59,7,.39,2.18-.24,8.38-.24,9.18s1.25,2.54,1.92,2.39c.67-.15,3.58.17,3.58.17,0,0,2.14-1.72-.19-2.61-.58-.22-1.72,0-1.72,0,0,0-.17-.5-.5-1.34-.34-.84.78-6.43,2.01-8.12,1.23-1.68,7.67-6.38,7.67-6.38" fill="#e7bf77"/><g fill="none" mask="url(#g)"><path d="m21.21,31.42c-.42-.65-.09-2.41-.65-3.71l.65,3.71Z" fill="#cf8a50"/><path d="m28.5,21.51s-7.8,4.38-8.07,4.75c-.28.37-2.69,2.84-2.41,3.53.28.69-.5,6.68-.5,6.68l3.3.75,7.68-15.7h0Z" fill="#cf8a50"/></g><path d="m72.62,28.08c-1.2.2-1.87-.34-1.87-.34,0,0-1.99.64-4.56-1.32-2.58-1.96-6.63-2.3-8.26-2.6-1.62-.31-5.04-.62-5.6-.45-.09.03-.36.1-.76.2-.94.82-2.08,1.93-2.15,2.45-.11.89,5.2,9.01,4.87,10.58-.34,1.57-3.02,6.69-3.44,7.05-.42.36-1.43.56-1.87,0-.45-.56.06-.64,0-1.18-.06-.53-.2-.87.03-1.4.23-.53,1.62-1.46,1.62-2.49s.84-.81.53-1.46c-.31-.64.06-1.6-.53-2.35-.59-.75-6.18-7.61-7-7.75-.63-.11-.69-.46-.68-1.69-.05,0-.1,0-.13-.02-.87-.28-6.38-3.02-8.37-2.66-.63.12-1.09.2-1.41.26.05.62.05,1.12-.01,1.42-.34,1.51-4.59,8.17-4.2,9.79.39,1.62,2.84,5.95,3.9,5.89,1.06-.06,3.34,2.44-.14,2.52-1.25.03-2.84-.53-2.95-.6-.11-.07-5.01-5.97-5.01-7.7s1.79-6.1,1.46-7.89c-.34-1.79-.57-4.31-2.52-5.2-.4-.18-.74-.41-1.03-.65l-2.16-.54.16-.81c-1.1,1.34-2.05,2.81-2.19,4-.37,3.02-4.96,5.19-7.91,6.04-2.95.86-6.08,5.71-6.98,5.56-.89-.15-.6-8.17,1.9-10.82,2.5-2.65,7.28-3.92,10.15-8.58,1.95-3.17,2.7-4.03,4.62-5.69,1.93-1.66,12.49-6.27,20.97-3.79,9.96,2.91,15.26,7.84,17.42,7.91.68.02,1.69,0,2.79,0,.26-.75.64-1.58,1.09-1.87.88-.58,2.86-6.54,3.86-6.09,1,.45,1.29,4.93.64,7.34-.15.56-.21,1-.21,1.35.24.13.43.28.56.46,1.04,1.49,1.19,2.24,2.09,3.13.89.89.98,2.71.98,2.71,0,0,.62,1.54,1.74,3.12l1.4,1.8c.43.56.34,1.36-.21,1.81l-.64.52h-.01Z" fill="#e0ac52"/><g fill="none" mask="url(#i)"><path d="m68.81,8.73s-2.45,5.08-2.27,6.34c.18,1.26-2.74.63-2.81,1.6-.07.97-.07,4.24,0,6.26.07,2.02-.33,3.35-.33,3.35l-1.55-1.53s2.02-1.82.35-4.08c-1.67-2.26-3.13-2.47-3.27-4.21-.14-1.74,2.16-12.6,2.16-12.6l6.26-1.81,1.47,6.68h0Z" fill="#cd8a4f"/><path d="m72.39,22.38s.14.87-.28,1.11c-.42.24-2.51-1.39-4.32-.8-1.81.59-3.19.2-2.67,1.3.52,1.1-.15,2.18-.15,2.18l5.36,3.06s5.19-.35,5.05-.52c-.14-.17,0-3.41,0-3.41l-3-2.92h0Z" fill="#cd8a4f"/><path d="m47.4,31.44s1.02,7.75.83,7.8c-.19.05-2.23-.56-1.9-1.25.32-.69-.09-1.67-.51-2.32-.42-.65-.09-2.41-.65-3.71-.56-1.3-1.48-2.41-1.21-3.06l.28-.65,3.16,3.2Z" fill="#e7bf77"/><path d="m42.5,25.37s.42-1.86,0-2.13c-.42-.28-3.71-2.01-5.37-1.98-1.66.03-2.43-.53-2.73-.34-.3.19-1.19.34-1.19.34,0,0-.3,1.75,0,1.86.3.11,5.76,2.71,5.76,2.71l3.54-.46h0Z" fill="#e7bf77"/><path d="m21.46,27.73c-.88.32-2.55,1.53-3.06,2.55s-.93.97-1.16,1.62c-.23.65.28,2.55-.51,3.43-.79.88.37,2.23-.97,1.67s-1.58-1.11-1.58-1.11l-1.76,4.04,5.48,4.27,6.17-3.16-2.69-7.31.09-6.01h0Z" fill="#e7bf77"/><path d="m60.53,24.58s1.07-.46.83-.7c-.23-.23-1.02-.56-.83-.83.19-.28-.42-1.34-1.02-1.58-.6-.23-.81-.21-.76-1.18.05-.97-.21-1-.58-1.04-.37-.04-6.17.19-6.17.19l-2.23-.19s-1.67.43.28,1.35c1.95.93,1.58,1.25,1.07,1.86-.51.6.05,1.99,1.21,1.95,1.16-.04,8.21.19,8.21.19h0Z" fill="#e7bf77"/><path d="m52.66,16.9s.37,3.02.32,3.34c-.05.33-.65.69-.16,1.5.49.82.77.91.16,3.18-.61,2.27-2.19,1.21-2.19,1.21l3.02,5.06s-.93,1.53-.93,1.76-.74-.97-1.48-1.11c-.74-.14-1.9-1.11-2.04-1.95-.14-.84-.51-2.13-1.44-2.55-.93-.42-1.76-.7-1.76-.7,0,0-1.34-1.62,0-1.44,1.34.18,1.62-.56,1.72-.79.09-.23,2.92.53,2.92.53,0,0,.26-.4-.02-.63-.28-.23.1-.88.15-1.43.05-.55.62-1.71.11-1.57-.51.14-1.02-1.02-2.18-.97-1.16.05-.45-1.58-3.29-1.11-2.84.47-4.55-1.81-4.93-1.34-.37.47-3.3-1.25-4.04-.46-.74.79-1.67,1.72-2.88,1.53-1.21-.18-5.62-4.87-7.7-3.16s-4.5,4.83-4.5,4.83c0,0-6.22-2.74-5.9-4.83.32-2.09,3.76-7.47,4.04-7.56.28-.09,18.43,1.3,18.43,1.3l14.57,7.38h0Z" fill="#cf8a50"/><path d="m61.66,11.47s.81,3.25.78,4.03c-.03.78-.81-.56-1.01-.11-.2.45.2.98-.11,1.32-.31.34-1.68-.98-1.26,0,.42.98,1.37,2.01,1.29,2.04-.08.03-2.71-1.6-2.71-.45s.11,1.99.11,1.99c0,0-4.81,1.01-6.35-.08-1.54-1.09-.95-2.63-1.65-2.8-.7-.17-2.02-.23-4.59-.7-2.58-.48-8.7-3.69-10.41-3.25-1.71.45-5.43.08-5.93-.89-.5-.98-4.36-.23-4.53-1.2-.17-.98-1.01-1.48-2.07-.89-1.06.59-4.79-.53-4.79-.53L32.78,0l16.01,5.07,12.87,6.4h0Z" fill="#120c07"/><path d="m74.31,26.01s-1.61-.47-1.63-.21c-.07,1.14-1.12,2.64-.89,2.72.23.08,2.71-.59,2.71-.59l-.2-1.93Z" fill="#261911"/><path d="m19.81,10.29c-2.51,2.13-.25,5.92-.87,7.32-.62,1.4-1.68.73-1.79,1.06-.11.34-.39,4.14-1.62,4.2-1.23.06-2.63-.34-3.02,1.68-.39,2.01-6.93,14.19-10.93,12.01-3.99-2.18.85-12.35.85-12.35l11.36-14.89s8.52-1.17,6.01.96h0Z" fill="#120c07"/><g clip-path="url(#k)" fill="none"><path d="m52.99,12.43l.43-.1.47-.06-.33.34-.27.39.05-.48.28-.47.21.49.18.55-.34-.47-.36-.38.49.2.45-.02-.41.21-.55-.02.29-.46.37-.3-.17.44-.16.38-.06-.42-.34-.52.45.4.21.44-.45-.11-.44-.04Z" fill="#e7bf77"/></g><g clip-path="url(#l)" fill="none"><path d="m49.45,11.68l.43-.1.47-.06-.33.34-.27.39.05-.48.28-.47.21.49.18.55-.34-.47-.36-.38.49.2.45-.02-.41.21-.55-.02.29-.46.37-.3-.17.44-.16.38-.06-.42-.34-.52.45.4.21.44-.45-.11-.44-.04Z" fill="#e7bf77"/></g><g clip-path="url(#m)" fill="none"><path d="m49.22,15.72l.43-.1.47-.06-.33.34-.27.39.05-.48.28-.47.21.49.18.55-.34-.47-.36-.38.49.2.45-.02-.41.21-.55-.02.29-.46.37-.3-.17.44-.16.38-.06-.42-.34-.52.45.4.21.44-.45-.11-.44-.04Z" fill="#e7bf77"/></g><g clip-path="url(#n)" fill="none"><path d="m40.42,8.39l.43-.1.47-.06-.33.34-.27.39.05-.48.28-.47.21.49.18.55-.34-.47-.36-.38.49.2.45-.02-.41.21-.55-.02.29-.46.37-.3-.17.44-.16.38-.06-.42-.34-.52.45.4.21.44-.45-.11-.44-.04Z" fill="#e7bf77"/></g><g clip-path="url(#o)" fill="none"><path d="m46.61,14.47l.43-.1.47-.06-.33.34-.27.39.05-.48.28-.47.21.49.18.55-.34-.47-.36-.38.49.2.45-.02-.41.21-.55-.02.29-.46.37-.3-.17.44-.16.38-.06-.42-.34-.52.45.4.21.44-.45-.11-.44-.04Z" fill="#e7bf77"/></g><g clip-path="url(#p)" fill="none"><path d="m33.62,7.96l.43-.1.47-.06-.33.34-.27.39.05-.48.28-.47.21.49.18.55-.34-.47-.36-.38.49.2.45-.02-.41.21-.55-.02.29-.46.37-.3-.17.44-.16.38-.06-.42-.34-.52.45.4.21.44-.45-.11-.44-.04Z" fill="#e7bf77"/></g><g clip-path="url(#q)" fill="none"><path d="m32.5,12.57l.43-.1.47-.06-.33.34-.27.39.05-.48.28-.47.21.49.18.55-.34-.47-.36-.38.49.2.45-.02-.41.21-.55-.02.29-.46.37-.3-.17.44-.16.38-.06-.42-.34-.52.45.4.21.44-.45-.11-.44-.04Z" fill="#e7bf77"/></g><g clip-path="url(#r)" fill="none"><path d="m39.81,12.48l.43-.1.47-.06-.33.34-.27.39.05-.48.28-.47.21.49.18.55-.34-.47-.36-.38.49.2.45-.02-.41.21-.55-.02.29-.46.37-.3-.17.44-.16.38-.06-.42-.34-.52.45.4.21.44-.45-.11-.44-.04Z" fill="#e7bf77"/></g><g clip-path="url(#s)" fill="none"><path d="m45.56,6.7l.43-.1.47-.06-.33.34-.27.39.05-.48.28-.47.21.49.18.55-.34-.47-.36-.38.49.2.45-.02-.41.21-.55-.02.29-.46.37-.3-.17.44-.16.38-.06-.42-.34-.52.45.4.21.44-.45-.11-.44-.04Z" fill="#e7bf77"/></g><g clip-path="url(#t)" fill="none"><path d="m45.06,11.28l.43-.1.47-.06-.33.34-.27.39.05-.48.28-.47.21.49.18.55-.34-.47-.36-.38.49.2.45-.02-.41.21-.55-.02.29-.46.37-.3-.17.44-.16.38-.06-.42-.34-.52.45.4.21.44-.45-.11-.44-.04Z" fill="#e7bf77"/></g><g clip-path="url(#u)" fill="none"><path d="m26.27,9.25l.43-.1.47-.06-.33.34-.27.39.05-.48.28-.47.21.49.18.55-.34-.47-.36-.38.49.2.45-.02-.41.21-.55-.02.29-.46.37-.3-.17.44-.16.38-.06-.42-.34-.52.45.4.21.44-.45-.11-.44-.04Z" fill="#e7bf77"/></g><g clip-path="url(#v)" fill="none"><path d="m25.04,6.65l.43-.1.47-.06-.33.34-.27.39.05-.48.28-.47.21.49.18.55-.34-.47-.36-.38.49.2.45-.02-.41.21-.55-.02.29-.46.37-.3-.17.44-.16.38-.06-.42-.34-.52.45.4.21.44-.45-.11-.44-.04Z" fill="#e7bf77"/></g><g clip-path="url(#w)" fill="none"><path d="m30.61,7.35l.43-.1.47-.06-.33.34-.27.39.05-.48.28-.47.21.49.18.55-.34-.47-.36-.38.49.2.45-.02-.41.21-.55-.02.29-.46.37-.3-.17.44-.16.38-.06-.42-.34-.52.45.4.21.44-.45-.11-.44-.04Z" fill="#e7bf77"/></g><g clip-path="url(#x)" fill="none"><path d="m37.78,10.38l.43-.1.47-.06-.33.34-.27.39.05-.48.28-.47.21.49.18.55-.34-.47-.36-.38.49.2.45-.02-.41.21-.55-.02.29-.46.37-.3-.17.44-.16.38-.06-.42-.34-.52.45.4.21.44-.45-.11-.44-.04Z" fill="#e7bf77"/></g><g clip-path="url(#y)" fill="none"><path d="m3.84,27.54l.43-.1.47-.06-.33.34-.27.39.05-.48.28-.47.21.49.18.55-.34-.47-.36-.38.49.2.45-.02-.41.21-.55-.02.29-.46.37-.3-.17.44-.16.38-.06-.42-.34-.52.45.4.21.44-.45-.11-.44-.04Z" fill="#e7bf77"/></g><g clip-path="url(#z)" fill="none"><path d="m11.07,23.33l.43-.1.47-.06-.33.34-.27.39.05-.48.28-.47.21.49.18.55-.34-.47-.36-.38.49.2.45-.02-.41.21-.55-.02.29-.46.37-.3-.17.44-.16.38-.06-.42-.34-.52.45.4.21.44-.45-.11-.44-.04Z" fill="#e7bf77"/></g><g clip-path="url(#aa)" fill="none"><path d="m7.97,29.6l.43-.1.47-.06-.33.34-.27.39.05-.48.28-.47.21.49.18.55-.34-.47-.36-.38.49.2.45-.02-.41.21-.55-.02.29-.46.37-.3-.17.44-.16.38-.06-.42-.34-.52.45.4.21.44-.45-.11-.44-.04Z" fill="#e7bf77"/></g><g clip-path="url(#ab)" fill="none"><path d="m3.19,32.14l.43-.1.47-.06-.33.34-.27.39.05-.48.28-.47.21.49.18.55-.34-.47-.36-.38.49.2.45-.02-.41.21-.55-.02.29-.46.37-.3-.17.44-.16.38-.06-.42-.34-.52.45.4.21.44-.45-.11-.44-.04Z" fill="#e7bf77"/></g><g clip-path="url(#ac)" fill="none"><path d="m6.86,22.2l.43-.1.47-.06-.33.34-.27.39.05-.48.28-.47.21.49.18.55-.34-.47-.36-.38.49.2.45-.02-.41.21-.55-.02.29-.46.37-.3-.17.44-.16.38-.06-.42-.34-.52.45.4.21.44-.45-.11-.44-.04Z" fill="#e7bf77"/></g><g clip-path="url(#ad)" fill="none"><path d="m14.06,18.19l.43-.1.47-.06-.33.34-.27.39.05-.48.28-.47.21.49.18.55-.34-.47-.36-.38.49.2.45-.02-.41.21-.55-.02.29-.46.37-.3-.17.44-.16.38-.06-.42-.34-.52.45.4.21.44-.45-.11-.44-.04Z" fill="#e7bf77"/></g><g clip-path="url(#ae)" fill="none"><path d="m15.74,14.97l.43-.1.47-.06-.33.34-.27.39.05-.48.28-.47.21.49.18.55-.34-.47-.36-.38.49.2.45-.02-.41.21-.55-.02.29-.46.37-.3-.17.44-.16.38-.06-.42-.34-.52.45.4.21.44-.45-.11-.44-.04Z" fill="#e7bf77"/></g><g clip-path="url(#af)" fill="none"><path d="m57.08,16.21l.43-.1.47-.06-.33.34-.27.39.05-.48.28-.47.21.49.18.55-.34-.47-.36-.38.49.2.45-.02-.41.21-.55-.02.29-.46.37-.3-.17.44-.16.38-.06-.42-.34-.52.45.4.21.44-.45-.11-.44-.04Z" fill="#e7bf77"/></g></g><path d="m72.1,27.93c-.56.09-2.68-1.21-3.36-1.63-.67-.42-2.58-2.57-3.36-2.63" fill="none" stroke="#261911" stroke-miterlimit="10"/><path d="m69.11,21.2c.11,0,.18-.05.22-.1.14-.16.24-.65.2-1.01-.03-.22-.1-.38-.22-.47-.06-.04-.25-.18-1.31-.18-.37,0-.67.02-.67.02h-.14s.03.14.03.14c0,.03.17.7.83,1.08l.12.07c.46.27.73.43.94.43h0Z" fill="#7b5f1f"/><path d="m68.01,19.57c-.36,0-.67.02-.67.02,0,0,.15.64.77,1.01.49.28.81.48,1,.48.06,0,.1-.02.13-.05.15-.16.31-1.07,0-1.3-.18-.13-.76-.16-1.24-.16m0-.24c.97,0,1.25.11,1.38.2.15.11.24.29.27.55.04.39-.07.92-.23,1.1-.05.06-.15.13-.31.13-.24,0-.52-.17-1-.44l-.12-.07c-.71-.41-.88-1.13-.89-1.16l-.06-.28.28-.02s.31-.02.68-.02h0Z" fill="#201e21"/><path d="m69.05,19.84s.16.38,0,.58-.43.29-.43.29c0,0-.2-.32-.08-.56.12-.23.5-.31.5-.31Z" fill="#201e21"/><path d="m69.59,20.76s-.06.38,0,.67c.06.29.18.41.18.41l-1.39-.82.88.24.33-.5h0Z" fill="#201e21"/><path d="m66.01,7.38s-.19.32,0,.42.46.07.49.42c.03.35.05.79,0,1.32-.05.53.19.9-.09,1.86-.28.95-.47.88-.48,1.67,0,.79.31,1.04,0,1.09-.31.05-1.31-.67-1.7-.51-.39.16-1.04-.3-.74-.65.3-.35.93-2.11,1.16-2.71.23-.6.6-2.13.81-2.64.21-.51.56-.67.56-.25h0Z" fill="#e7bf77"/></g></g></svg>