<?xml version="1.0" encoding="UTF-8"?><svg id="b" xmlns="http://www.w3.org/2000/svg" xmlns:xlink="http://www.w3.org/1999/xlink" viewBox="0 0 311.24 182.53"><defs><mask id="e" x="178.15" y="88.82" width="33.1" height="86.97" maskUnits="userSpaceOnUse"><g id="f"><path d="m195.64,116.14s2.08,32.75,1.85,36.8c-.24,4.05,3.6,10.63,3.3,12.36-.3,1.73,10.1,3.93,10.45,7.16.35,3.23-8.67,4.86-15.6,1.39-6.93-3.47-6.93-2.66-6.93-4.5s3-9.01,1.03-10.86c-1.96-1.85-3.35-2.2-4.27-6.47-.92-4.27-5.66-27.96-7.04-33.16-1.39-5.2,2.78-30.04,2.78-30.04l14.44,27.33h-.01Z" fill="#fff"/></g></mask><mask id="g" x="59.58" y="69.27" width="58.1" height="102.87" maskUnits="userSpaceOnUse"><g id="h"><path d="m91.3,69.27s-7.16,10.4-11.79,25.53c-4.62,15.14-20.57,19.88-18.95,28.89,1.62,9.01-1,34.58-1,37.9s5.16,10.48,7.93,9.86c2.78-.62,14.78.69,14.78.69,0,0,8.84-7.1-.77-10.79-2.38-.92-7.08,0-7.08,0,0,0-.69-2.08-2.08-5.55-1.39-3.47,3.23-26.57,8.31-33.51,5.08-6.94,31.66-26.35,31.66-26.35" fill="#fff"/></g></mask><mask id="i" x="0" y="0" width="311.24" height="182.53" maskUnits="userSpaceOnUse"><g id="j"><path d="m299.85,115.95c-4.96.81-7.74-1.39-7.74-1.39,0,0-8.2,2.66-18.83-5.43-10.63-8.09-27.38-9.48-34.09-10.75-6.7-1.27-20.79-2.54-23.11-1.85-.37.1-1.48.41-3.13.84-3.86,3.39-8.6,7.96-8.88,10.14-.46,3.69,21.49,37.2,20.1,43.67-1.39,6.47-12.48,27.62-14.21,29.12-1.73,1.51-5.89,2.3-7.74,0-1.85-2.3.24-2.66,0-4.86-.24-2.2-.81-3.59.12-5.77.93-2.2,6.7-6.01,6.7-10.28s3.47-3.35,2.2-6.01c-1.27-2.66.24-6.59-2.2-9.7-2.42-3.12-25.53-31.43-28.89-32-2.61-.45-2.83-1.9-2.8-6.97-.22-.01-.41-.04-.54-.09-3.59-1.15-26.35-12.48-34.54-10.97-2.62.48-4.49.82-5.84,1.09.2,2.54.21,4.62-.05,5.85-1.39,6.23-18.95,33.73-17.34,40.44,1.61,6.7,11.73,24.55,16.12,24.32,4.39-.24,13.8,10.06-.56,10.42-5.16.13-11.73-2.19-12.19-2.49-.46-.29-20.69-24.64-20.69-31.81s7.4-25.19,6.01-32.58c-1.39-7.4-2.36-17.78-10.4-21.49-1.65-.76-3.05-1.69-4.24-2.68l-8.92-2.24.64-3.33c-4.53,5.54-8.46,11.59-9.06,16.5-1.55,12.48-20.49,21.41-32.66,24.96-12.16,3.55-25.12,23.57-28.81,22.95-3.69-.62-2.46-33.73,7.86-44.68,10.32-10.93,30.04-16.17,41.9-35.43,8.07-13.09,11.14-16.64,19.09-23.49,7.95-6.85,51.55-25.87,86.59-15.63,41.13,12.02,63.01,32.36,71.94,32.66,2.82.09,6.99,0,11.54.04,1.09-3.09,2.64-6.53,4.49-7.74,3.61-2.38,11.81-26.99,15.92-25.14,4.11,1.85,5.34,20.36,2.64,30.3-.63,2.33-.86,4.14-.85,5.57,1,.54,1.79,1.17,2.32,1.91,4.31,6.17,4.92,9.24,8.63,12.94,3.69,3.69,4.05,11.17,4.05,11.17,0,0,2.57,6.35,7.2,12.89l5.76,7.42c1.79,2.3,1.41,5.63-.85,7.48l-2.63,2.13h-.05Z" fill="#fff"/></g></mask><clipPath id="k"><rect x="218.78" y="48.46" width="5.22" height="5.6" fill="none"/></clipPath><clipPath id="l"><rect x="204.19" y="45.4" width="5.22" height="5.6" fill="none"/></clipPath><clipPath id="m"><rect x="203.22" y="62.06" width="5.22" height="5.6" fill="none"/></clipPath><clipPath id="n"><rect x="166.87" y="31.78" width="5.22" height="5.6" fill="none"/></clipPath><clipPath id="o"><rect x="192.43" y="56.91" width="5.22" height="5.6" fill="none"/></clipPath><clipPath id="p"><rect x="138.8" y="30.04" width="5.22" height="5.6" fill="none"/></clipPath><clipPath id="q"><rect x="134.19" y="49.06" width="5.22" height="5.6" fill="none"/></clipPath><clipPath id="r"><rect x="164.36" y="48.67" width="5.22" height="5.6" fill="none"/></clipPath><clipPath id="s"><rect x="188.12" y="24.84" width="5.22" height="5.6" fill="none"/></clipPath><clipPath id="t"><rect x="186.04" y="43.72" width="5.22" height="5.6" fill="none"/></clipPath><clipPath id="u"><rect x="108.48" y="35.34" width="5.22" height="5.6" fill="none"/></clipPath><clipPath id="v"><rect x="103.38" y="24.63" width="5.22" height="5.6" fill="none"/></clipPath><clipPath id="w"><rect x="126.4" y="27.49" width="5.22" height="5.6" fill="none"/></clipPath><clipPath id="x"><rect x="155.98" y="40.02" width="5.22" height="5.6" fill="none"/></clipPath><clipPath id="y"><rect x="15.85" y="110.88" width="5.22" height="5.6" fill="none"/></clipPath><clipPath id="z"><rect x="45.72" y="93.48" width="5.22" height="5.6" fill="none"/></clipPath><clipPath id="aa"><rect x="32.91" y="119.38" width="5.22" height="5.6" fill="none"/></clipPath><clipPath id="ab"><rect x="13.17" y="129.87" width="5.22" height="5.6" fill="none"/></clipPath><clipPath id="ac"><rect x="28.34" y="88.81" width="5.22" height="5.6" fill="none"/></clipPath><clipPath id="ad"><rect x="58.07" y="72.27" width="5.22" height="5.6" fill="none"/></clipPath><clipPath id="ae"><rect x="64.97" y="58.95" width="5.22" height="5.6" fill="none"/></clipPath><clipPath id="af"><rect x="235.7" y="64.08" width="5.22" height="5.6" fill="none"/></clipPath></defs><g id="c"><g id="d"><path d="m195.64,116.14s2.08,32.75,1.85,36.8c-.24,4.05,3.6,10.63,3.3,12.36-.3,1.73,10.1,3.93,10.45,7.16.35,3.23-8.67,4.86-15.6,1.39-6.93-3.47-6.93-2.66-6.93-4.5s3-9.01,1.03-10.86c-1.96-1.85-3.35-2.2-4.27-6.47-.92-4.27-5.66-27.96-7.04-33.16-1.39-5.2,2.78-30.04,2.78-30.04l14.44,27.33h-.01Z" fill="#e7bf77"/><g fill="none" mask="url(#e)"><path d="m198.05,122.8s4.22,32,3.44,32.2c-.77.2-9.19-2.3-7.86-5.17,1.34-2.87-.38-6.9-2.11-9.58-1.73-2.68-.38-9.97-2.68-15.33-2.3-5.37-6.13-9.96-4.98-12.65l1.15-2.68,13.03,13.23Z" fill="#cf8a50"/></g><path d="m91.3,69.27s-7.16,10.4-11.79,25.53c-4.62,15.14-20.57,19.88-18.95,28.89,1.62,9.01-1,34.58-1,37.9s5.16,10.48,7.93,9.86c2.78-.62,14.78.69,14.78.69,0,0,8.84-7.1-.77-10.79-2.38-.92-7.08,0-7.08,0,0,0-.69-2.08-2.08-5.55-1.39-3.47,3.23-26.57,8.31-33.51,5.08-6.94,31.66-26.35,31.66-26.35" fill="#e7bf77"/><g fill="none" mask="url(#g)"><path d="m87.58,129.72c-1.73-2.68-.38-9.97-2.68-15.33l2.68,15.33Z" fill="#cf8a50"/><path d="m117.68,88.79s-32.2,18.08-33.34,19.62c-1.14,1.53-11.12,11.71-9.97,14.56,1.15,2.85-2.06,27.58-2.06,27.58l13.64,3.08,31.72-64.84h0Z" fill="#cf8a50"/></g><path d="m299.85,115.95c-4.96.81-7.74-1.39-7.74-1.39,0,0-8.2,2.66-18.83-5.43-10.63-8.09-27.38-9.48-34.09-10.75-6.7-1.27-20.79-2.54-23.11-1.85-.37.1-1.48.41-3.13.84-3.86,3.39-8.6,7.96-8.88,10.14-.46,3.69,21.49,37.2,20.1,43.67-1.39,6.47-12.48,27.62-14.21,29.12-1.73,1.51-5.89,2.3-7.74,0-1.85-2.3.24-2.66,0-4.86-.24-2.2-.81-3.59.12-5.77.93-2.2,6.7-6.01,6.7-10.28s3.47-3.35,2.2-6.01c-1.27-2.66.24-6.59-2.2-9.7-2.42-3.12-25.53-31.43-28.89-32-2.61-.45-2.83-1.9-2.8-6.97-.22-.01-.41-.04-.54-.09-3.59-1.15-26.35-12.48-34.54-10.97-2.62.48-4.49.82-5.84,1.09.2,2.54.21,4.62-.05,5.85-1.39,6.23-18.95,33.73-17.34,40.44,1.61,6.7,11.73,24.55,16.12,24.32,4.39-.24,13.8,10.06-.56,10.42-5.16.13-11.73-2.19-12.19-2.49-.46-.29-20.69-24.64-20.69-31.81s7.4-25.19,6.01-32.58c-1.39-7.4-2.36-17.78-10.4-21.49-1.65-.76-3.05-1.69-4.24-2.68l-8.92-2.24.64-3.33c-4.53,5.54-8.46,11.59-9.06,16.5-1.55,12.48-20.49,21.41-32.66,24.96-12.16,3.55-25.12,23.57-28.81,22.95-3.69-.62-2.46-33.73,7.86-44.68,10.32-10.93,30.04-16.17,41.9-35.43,8.07-13.09,11.14-16.64,19.09-23.49,7.95-6.85,51.55-25.87,86.59-15.63,41.13,12.02,63.01,32.36,71.94,32.66,2.82.09,6.99,0,11.54.04,1.09-3.09,2.64-6.53,4.49-7.74,3.61-2.38,11.81-26.99,15.92-25.14,4.11,1.85,5.34,20.36,2.64,30.3-.63,2.33-.86,4.14-.85,5.57,1,.54,1.79,1.17,2.32,1.91,4.31,6.17,4.92,9.24,8.63,12.94,3.69,3.69,4.05,11.17,4.05,11.17,0,0,2.57,6.35,7.2,12.89l5.76,7.42c1.79,2.3,1.41,5.63-.85,7.48l-2.63,2.13h-.05Z" fill="#e0ac52"/><g fill="none" mask="url(#i)"><path d="m284.12,36.04s-10.12,20.98-9.38,26.16c.75,5.19-11.33,2.59-11.61,6.61-.29,4.02-.29,17.51,0,25.86.29,8.35-1.36,13.81-1.36,13.81l-6.4-6.32s8.34-7.52,1.44-16.84c-6.9-9.32-12.94-10.19-13.51-17.38-.58-7.19,8.9-52.02,8.9-52.02l25.84-7.48,6.08,27.59h.01Z" fill="#cd8a4f"/><path d="m298.88,92.4s.58,3.59-1.15,4.6c-1.73,1.01-10.34-5.75-17.82-3.3-7.48,2.45-13.17.82-11.03,5.37,2.15,4.54-.62,9.01-.62,9.01l22.13,12.65s21.41-1.44,20.83-2.16c-.58-.72,0-14.09,0-14.09l-12.37-12.07h.03Z" fill="#cd8a4f"/><path d="m195.71,129.83s4.22,32,3.44,32.2c-.77.2-9.19-2.3-7.86-5.17,1.34-2.87-.38-6.9-2.11-9.59-1.73-2.68-.38-9.97-2.68-15.33-2.3-5.37-6.13-9.97-4.98-12.65l1.15-2.68,13.03,13.23Z" fill="#e7bf77"/><path d="m175.46,104.73s1.75-7.66,0-8.81c-1.75-1.15-15.32-8.29-22.18-8.17-6.86.12-10.03-2.19-11.26-1.41-1.23.77-4.92,1.41-4.92,1.41,0,0-1.23,7.24,0,7.7,1.23.46,23.77,11.2,23.77,11.2l14.61-1.91h-.01Z" fill="#e7bf77"/><path d="m88.59,114.5c-3.64,1.34-10.54,6.32-12.65,10.54s-3.84,4.02-4.79,6.7c-.96,2.68,1.15,10.54-2.11,14.18-3.26,3.64,1.53,9.19-4.02,6.9-5.55-2.29-6.52-4.6-6.52-4.6l-7.28,16.67,22.61,17.63,25.48-13.03-11.12-30.17.38-24.83h.01Z" fill="#e7bf77"/><path d="m249.93,101.47s4.41-1.91,3.44-2.88c-.97-.97-4.22-2.3-3.44-3.44.77-1.14-1.73-5.55-4.22-6.52-2.49-.97-3.35-.86-3.16-4.88.2-4.02-.86-4.12-2.4-4.31-1.53-.18-25.48.77-25.48.77l-9.19-.79s-6.9,1.75,1.15,5.58c8.05,3.82,6.52,5.17,4.41,7.66-2.11,2.49.2,8.24,4.98,8.05,4.78-.18,33.91.77,33.91.77h-.01Z" fill="#e7bf77"/><path d="m217.44,69.77s1.53,12.45,1.34,13.8c-.2,1.35-2.67,2.83-.67,6.21,2,3.38,3.18,3.76.68,13.15-2.5,9.39-9.02,4.98-9.02,4.98l12.45,20.89s-3.84,6.32-3.84,7.28-3.06-4.02-6.13-4.6c-3.06-.58-7.86-4.6-8.43-8.05-.58-3.46-2.11-8.81-5.94-10.54-3.84-1.73-7.28-2.88-7.28-2.88,0,0-5.55-6.7,0-5.95,5.55.76,6.7-2.3,7.08-3.26.38-.96,12.07,2.17,12.07,2.17,0,0,1.06-1.66-.09-2.62-1.15-.96.42-3.63.62-5.92.2-2.29,2.55-7.05.45-6.47-2.11.58-4.22-4.22-9.01-4.02-4.79.2-1.87-6.52-13.58-4.6-11.71,1.92-18.8-7.48-20.34-5.55-1.53,1.92-13.6-5.17-16.67-1.91-3.06,3.26-6.9,7.08-11.88,6.32-4.98-.76-23.19-20.13-31.81-13.03-8.62,7.1-18.59,19.93-18.59,19.93,0,0-25.68-11.3-24.34-19.93,1.34-8.63,15.52-30.85,16.67-31.23,1.15-.38,76.08,5.37,76.08,5.37l60.17,30.47h.01Z" fill="#cf8a50"/><path d="m254.58,47.35s3.35,13.41,3.23,16.64c-.12,3.23-3.35-2.3-4.16-.46-.81,1.85.81,4.05-.46,5.43-1.27,1.39-6.93-4.05-5.2,0,1.73,4.05,5.66,8.31,5.32,8.43-.34.12-11.21-6.59-11.21-1.85s.46,8.2.46,8.2c0,0-19.88,4.16-26.23-.34-6.35-4.5-3.92-10.86-6.81-11.55-2.89-.69-8.33-.93-18.96-2.89-10.63-1.96-35.93-15.26-42.98-13.41-7.04,1.85-22.42.34-24.5-3.69-2.08-4.05-18.02-.93-18.71-4.96-.69-4.03-4.16-6.13-8.55-3.69-4.39,2.44-19.76-2.2-19.76-2.2L135.33,0l66.09,20.95,53.15,26.41h.01Z" fill="#120c07"/><path d="m306.84,107.4s-6.65-1.92-6.72-.85c-.29,4.73-4.61,10.91-3.68,11.25.93.34,11.21-2.42,11.21-2.42l-.81-7.97Z" fill="#261911"/><path d="m81.78,42.47c-10.34,8.8-1.03,24.46-3.57,30.24-2.54,5.77-6.93,3-7.4,4.39-.47,1.39-1.62,17.1-6.7,17.34-5.08.24-10.86-1.39-12.48,6.93-1.62,8.31-28.62,58.6-45.11,49.6-16.49-9,3.51-50.99,3.51-50.99l46.9-61.47s35.17-4.83,24.83,3.95h.03Z" fill="#120c07"/><g clip-path="url(#k)" fill="none"><path d="m218.78,51.31l1.79-.39,1.94-.24-1.35,1.4-1.11,1.6.2-1.98,1.17-1.92.85,2.03.73,2.27-1.39-1.95-1.51-1.56,2.04.84,1.86-.09-1.68.85-2.27-.07,1.18-1.91,1.55-1.26-.72,1.83-.65,1.57-.25-1.72-1.4-2.15,1.87,1.66.85,1.81-1.87-.45-1.83-.18Z" fill="#e7bf77"/></g><g clip-path="url(#l)" fill="none"><path d="m204.19,48.24l1.79-.39,1.94-.24-1.35,1.4-1.11,1.6.2-1.98,1.17-1.92.85,2.03.73,2.27-1.39-1.95-1.51-1.56,2.04.84,1.86-.09-1.68.85-2.27-.07,1.18-1.91,1.55-1.26-.72,1.83-.65,1.57-.25-1.72-1.4-2.15,1.87,1.66.85,1.81-1.87-.45-1.83-.18Z" fill="#e7bf77"/></g><g clip-path="url(#m)" fill="none"><path d="m203.22,64.9l1.79-.39,1.94-.24-1.35,1.4-1.11,1.6.2-1.98,1.17-1.92.85,2.03.73,2.27-1.39-1.95-1.51-1.56,2.04.84,1.86-.09-1.68.85-2.27-.07,1.18-1.91,1.55-1.26-.72,1.83-.65,1.57-.25-1.72-1.4-2.15,1.87,1.66.85,1.81-1.87-.45-1.83-.18Z" fill="#e7bf77"/></g><g clip-path="url(#n)" fill="none"><path d="m166.87,34.62l1.79-.39,1.94-.24-1.35,1.4-1.11,1.6.2-1.98,1.17-1.92.85,2.03.73,2.27-1.39-1.95-1.51-1.56,2.04.84,1.86-.09-1.68.85-2.27-.07,1.18-1.91,1.55-1.26-.72,1.83-.65,1.57-.25-1.72-1.4-2.15,1.87,1.66.85,1.81-1.87-.45-1.83-.18Z" fill="#e7bf77"/></g><g clip-path="url(#o)" fill="none"><path d="m192.43,59.75l1.79-.39,1.94-.24-1.35,1.4-1.11,1.6.2-1.98,1.17-1.92.85,2.03.73,2.27-1.39-1.95-1.51-1.56,2.04.84,1.86-.09-1.68.85-2.27-.07,1.18-1.91,1.55-1.26-.72,1.83-.65,1.57-.25-1.72-1.4-2.15,1.87,1.66.85,1.81-1.87-.45-1.83-.18Z" fill="#e7bf77"/></g><g clip-path="url(#p)" fill="none"><path d="m138.8,32.88l1.79-.39,1.94-.24-1.35,1.4-1.11,1.6.2-1.98,1.17-1.92.85,2.03.73,2.27-1.39-1.95-1.51-1.56,2.04.84,1.86-.09-1.68.85-2.27-.07,1.18-1.91,1.55-1.26-.72,1.83-.65,1.57-.25-1.72-1.4-2.15,1.87,1.66.85,1.81-1.87-.45-1.83-.18Z" fill="#e7bf77"/></g><g clip-path="url(#q)" fill="none"><path d="m134.19,51.9l1.79-.39,1.94-.24-1.35,1.4-1.11,1.6.2-1.98,1.17-1.92.85,2.03.73,2.27-1.39-1.95-1.51-1.56,2.04.84,1.86-.09-1.68.85-2.27-.07,1.18-1.91,1.55-1.26-.72,1.83-.65,1.57-.25-1.72-1.4-2.15,1.87,1.66.85,1.81-1.87-.45-1.83-.18Z" fill="#e7bf77"/></g><g clip-path="url(#r)" fill="none"><path d="m164.36,51.52l1.79-.39,1.94-.24-1.35,1.4-1.11,1.6.2-1.98,1.17-1.92.85,2.03.73,2.27-1.39-1.95-1.51-1.56,2.04.84,1.86-.09-1.68.85-2.27-.07,1.18-1.91,1.55-1.26-.72,1.83-.65,1.57-.25-1.72-1.4-2.15,1.87,1.66.85,1.81-1.87-.45-1.83-.18Z" fill="#e7bf77"/></g><g clip-path="url(#s)" fill="none"><path d="m188.12,27.68l1.79-.39,1.94-.24-1.35,1.4-1.11,1.6.2-1.98,1.17-1.92.85,2.03.73,2.27-1.39-1.95-1.51-1.56,2.04.84,1.86-.09-1.68.85-2.27-.07,1.18-1.91,1.55-1.26-.72,1.83-.65,1.57-.25-1.72-1.4-2.15,1.87,1.66.85,1.81-1.87-.45-1.83-.18Z" fill="#e7bf77"/></g><g clip-path="url(#t)" fill="none"><path d="m186.04,46.56l1.79-.39,1.94-.24-1.35,1.4-1.11,1.6.2-1.98,1.17-1.92.85,2.03.73,2.27-1.39-1.95-1.51-1.56,2.04.84,1.86-.09-1.68.85-2.27-.07,1.18-1.91,1.55-1.26-.72,1.83-.65,1.57-.25-1.72-1.4-2.15,1.87,1.66.85,1.81-1.87-.45-1.83-.18Z" fill="#e7bf77"/></g><g clip-path="url(#u)" fill="none"><path d="m108.48,38.19l1.79-.39,1.94-.24-1.35,1.4-1.11,1.6.2-1.98,1.17-1.92.85,2.03.73,2.27-1.39-1.95-1.51-1.56,2.04.84,1.86-.09-1.68.85-2.27-.07,1.18-1.91,1.55-1.26-.72,1.83-.65,1.57-.25-1.72-1.4-2.15,1.87,1.66.85,1.81-1.87-.45-1.83-.18Z" fill="#e7bf77"/></g><g clip-path="url(#v)" fill="none"><path d="m103.38,27.47l1.79-.39,1.94-.24-1.35,1.4-1.11,1.6.2-1.98,1.17-1.92.85,2.03.73,2.27-1.39-1.95-1.51-1.56,2.04.84,1.86-.09-1.68.85-2.27-.07,1.18-1.91,1.55-1.26-.72,1.83-.65,1.57-.25-1.72-1.4-2.15,1.87,1.66.85,1.81-1.87-.45-1.83-.18Z" fill="#e7bf77"/></g><g clip-path="url(#w)" fill="none"><path d="m126.4,30.33l1.79-.39,1.94-.24-1.35,1.4-1.11,1.6.2-1.98,1.17-1.92.85,2.03.73,2.27-1.39-1.95-1.51-1.56,2.04.84,1.86-.09-1.68.85-2.27-.07,1.18-1.91,1.55-1.26-.72,1.83-.65,1.57-.25-1.72-1.4-2.15,1.87,1.66.85,1.81-1.87-.45-1.83-.18Z" fill="#e7bf77"/></g><g clip-path="url(#x)" fill="none"><path d="m155.98,42.86l1.79-.39,1.94-.24-1.35,1.4-1.11,1.6.2-1.98,1.17-1.92.85,2.03.73,2.27-1.39-1.95-1.51-1.56,2.04.84,1.86-.09-1.68.85-2.27-.07,1.18-1.91,1.55-1.26-.72,1.83-.65,1.57-.25-1.72-1.4-2.15,1.87,1.66.85,1.81-1.87-.45-1.83-.18Z" fill="#e7bf77"/></g><g clip-path="url(#y)" fill="none"><path d="m15.85,113.73l1.79-.39,1.94-.24-1.35,1.4-1.11,1.6.2-1.98,1.17-1.92.85,2.03.73,2.27-1.39-1.95-1.51-1.56,2.04.84,1.86-.09-1.68.85-2.27-.07,1.18-1.91,1.55-1.26-.72,1.83-.65,1.57-.25-1.72-1.4-2.15,1.87,1.66.85,1.81-1.87-.45-1.83-.18Z" fill="#e7bf77"/></g><g clip-path="url(#z)" fill="none"><path d="m45.72,96.32l1.79-.39,1.94-.24-1.35,1.4-1.11,1.6.2-1.98,1.17-1.92.85,2.03.73,2.27-1.39-1.95-1.51-1.56,2.04.84,1.86-.09-1.68.85-2.27-.07,1.18-1.91,1.55-1.26-.72,1.83-.65,1.57-.25-1.72-1.4-2.15,1.87,1.66.85,1.81-1.87-.45-1.83-.18Z" fill="#e7bf77"/></g><g clip-path="url(#aa)" fill="none"><path d="m32.91,122.23l1.79-.39,1.94-.24-1.35,1.4-1.11,1.6.2-1.98,1.17-1.92.85,2.03.73,2.27-1.39-1.95-1.51-1.56,2.04.84,1.86-.09-1.68.85-2.27-.07,1.18-1.91,1.55-1.26-.72,1.83-.65,1.57-.25-1.72-1.4-2.15,1.87,1.66.85,1.81-1.87-.45-1.83-.18Z" fill="#e7bf77"/></g><g clip-path="url(#ab)" fill="none"><path d="m13.17,132.71l1.79-.39,1.94-.24-1.35,1.4-1.11,1.6.2-1.98,1.17-1.92.85,2.03.73,2.27-1.39-1.95-1.51-1.56,2.04.84,1.86-.09-1.68.85-2.27-.07,1.18-1.91,1.55-1.26-.72,1.83-.65,1.57-.25-1.72-1.4-2.15,1.87,1.66.85,1.81-1.87-.45-1.83-.18Z" fill="#e7bf77"/></g><g clip-path="url(#ac)" fill="none"><path d="m28.34,91.65l1.79-.39,1.94-.24-1.35,1.4-1.11,1.6.2-1.98,1.17-1.92.85,2.03.73,2.27-1.39-1.95-1.51-1.56,2.04.84,1.86-.09-1.68.85-2.27-.07,1.18-1.91,1.55-1.26-.72,1.83-.65,1.57-.25-1.72-1.4-2.15,1.87,1.66.85,1.81-1.87-.45-1.83-.18Z" fill="#e7bf77"/></g><g clip-path="url(#ad)" fill="none"><path d="m58.07,75.11l1.79-.39,1.94-.24-1.35,1.4-1.11,1.6.2-1.98,1.17-1.92.85,2.03.73,2.27-1.39-1.95-1.51-1.56,2.04.84,1.86-.09-1.68.85-2.27-.07,1.18-1.91,1.55-1.26-.72,1.83-.65,1.57-.25-1.72-1.4-2.15,1.87,1.66.85,1.81-1.87-.45-1.83-.18Z" fill="#e7bf77"/></g><g clip-path="url(#ae)" fill="none"><path d="m64.97,61.8l1.79-.39,1.94-.24-1.35,1.4-1.11,1.6.2-1.98,1.17-1.92.85,2.03.73,2.27-1.39-1.95-1.51-1.56,2.04.84,1.86-.09-1.68.85-2.27-.07,1.18-1.91,1.55-1.26-.72,1.83-.65,1.57-.25-1.72-1.4-2.15,1.87,1.66.85,1.81-1.87-.45-1.83-.18Z" fill="#e7bf77"/></g><g clip-path="url(#af)" fill="none"><path d="m235.7,66.93l1.79-.39,1.94-.24-1.35,1.4-1.11,1.6.2-1.98,1.17-1.92.85,2.03.73,2.27-1.39-1.95-1.51-1.56,2.04.84,1.86-.09-1.68.85-2.27-.07,1.18-1.91,1.55-1.26-.72,1.83-.65,1.57-.25-1.72-1.4-2.15,1.87,1.66.85,1.81-1.87-.45-1.83-.18Z" fill="#e7bf77"/></g></g><path d="m297.69,115.34c-2.3.38-11.08-4.99-13.85-6.73-2.78-1.74-10.66-10.59-13.85-10.86" fill="none" stroke="#261911" stroke-miterlimit="10"/><path d="m285.36,87.54c.47,0,.76-.21.92-.39.58-.64.98-2.7.82-4.15-.1-.92-.41-1.57-.9-1.92-.25-.18-1.02-.73-5.41-.73-1.53,0-2.78.07-2.78.07l-.58.03.13.56c.03.12.69,2.88,3.43,4.48l.48.27c1.89,1.11,3.02,1.78,3.89,1.78h-.01Z" fill="#7b5f1f"/><path d="m280.81,80.82c-1.51,0-2.75.07-2.75.07,0,0,.62,2.66,3.19,4.16,2,1.17,3.33,1.99,4.11,1.99.24,0,.42-.07.55-.22.62-.68,1.3-4.43,0-5.36-.73-.52-3.16-.64-5.12-.64m0-.98c4.02,0,5.16.45,5.68.82.62.45,1,1.22,1.1,2.28.17,1.62-.28,3.78-.94,4.53-.22.25-.63.55-1.28.55-.98,0-2.16-.69-4.12-1.83l-.48-.29c-2.92-1.7-3.63-4.67-3.67-4.79l-.26-1.14,1.17-.07s1.28-.07,2.8-.07h.01Z" fill="#201e21"/><path d="m285.1,81.91s.64,1.58,0,2.41-1.75,1.19-1.75,1.19c0,0-.82-1.34-.33-2.3.5-.97,2.08-1.3,2.08-1.3Z" fill="#201e21"/><path d="m287.34,85.72s-.25,1.58,0,2.76c.25,1.18.76,1.69.76,1.69l-5.75-3.38,3.64,1,1.36-2.07h-.01Z" fill="#201e21"/><path d="m272.54,30.47s-.77,1.34,0,1.73,1.91.29,2.02,1.73c.1,1.44.2,3.26,0,5.46-.2,2.2.77,3.73-.38,7.66-1.15,3.93-1.92,3.64-1.96,6.9-.04,3.26,1.28,4.31,0,4.5-1.28.2-5.41-2.78-7.03-2.11-1.62.67-4.31-1.24-3.06-2.68,1.24-1.44,3.84-8.72,4.79-11.21.96-2.49,2.49-8.81,3.35-10.92.86-2.11,2.3-2.78,2.3-1.05h-.03Z" fill="#e7bf77"/></g></g></svg>