<?xml version="1.0" encoding="UTF-8"?><svg id="b" xmlns="http://www.w3.org/2000/svg" xmlns:xlink="http://www.w3.org/1999/xlink" viewBox="0 0 290.94 310.64"><defs><mask id="e" x="160.51" y="0" width="91.79" height="90.4" maskUnits="userSpaceOnUse"><g id="f"><path d="m164.26,2.88c1.64,7.64,5.27,15.1,12.05,19.1,4.66,2.81,9.67,2.64,15.08,3.9,6.03,1.34,11.78,5.98,13.85,11.96,1.88,5.33,1.26,9.75,5.11,13.44,5.62,5.78,13.99,3.49,21.24,6.85,12.2,4.75,18.6,18.11,20.71,30.05l-12.93,1.94c-.91-8.3-3.14-16.56-9.95-21.53-2.63-1.79-5.09-2.64-8.55-3.45-2.54-.61-5.54-1.19-8.6-2.53-4.66-2.09-8.46-5.77-10.6-10.33-1.93-3.72-1.8-9.17-2.63-12.47-1.09-4.28-4.75-7.7-9.05-9.1-2.3-.8-4.96-1.26-7.72-2.05-5.58-1.43-10.76-5.08-13.93-9.9-3.22-4.75-4.78-10.26-5.46-15.67l1.41-.24h-.02Z" fill="#fff"/></g></mask><mask id="g" x="0" y="145.67" width="48.81" height="62.22" maskUnits="userSpaceOnUse"><g id="h"><path d="m45.41,145.67s-17.74,4.16-20.8,8.97c-3.06,4.81-4.33,31.07-12.67,34.67-8.34,3.6-8.34,6.67-8.34,6.67l9.54-3.87,4.4,4.67,5.53-9.6v4.93l3.4-8.4,5.6-.14,8.67-16.8,4.67-21.09h0Z" fill="#fff"/></g></mask><mask id="i" x="34.1" y="85.24" width="216.13" height="154.52" maskUnits="userSpaceOnUse"><g id="j"><path d="m73.41,193.43s24.54,14.67,33.34,11.2c8.8-3.47,28.8-1.08,34.14.53,5.34,1.6,42.94,1.87,45.87-5.87,2.94-7.74,14.94-10.67,23.48-18.81,8.54-8.14,34.93-56.95,34.93-56.95l5.07-18.14-7.2-19.47s-8.8-2.13-13.87,1.07c-5.08,3.2-20.54,20.27-26.93,29.61-6.39,9.34-13.87,16.54-21.07,15.2-7.2-1.34-23.47-9.34-38.01-6.94-14.53,2.4-13.47,10.94-42.01,10.94s-41.08-2.4-49.34,1.6c-8.26,4-18.81,14.46-17.6,29.07,1.2,14.6,39.21,26.93,39.21,26.93v.02Z" fill="#fff"/></g></mask><mask id="k" x="232.63" y="85.88" width="58.31" height="41.55" maskUnits="userSpaceOnUse"><g id="l"><path d="m232.63,111.79s1.2,13.5,13.21,13.7c12,.2,32.51,2.7,36.7,1.7,4.19-1,1.3-4.9,1.3-4.9,0,0,7.1,2.4,7.1-4s-10.6-12.11-15.4-16.5c-4.81-4.4-13-7.1-15.6-8.9-2.6-1.8-5.2-6.7-10.1-6.4-4.9.29-11.96-.7-12.25-.6-.29.1-4.95,25.91-4.95,25.91h0Z" fill="#fff"/></g></mask></defs><g id="c"><g id="d"><path d="m63.48,172.1s-.24.86,1.41,14.2c1.64,13.34,10.55,14.01,12.2,21.22,1.64,7.22,9.53,21.14,9.84,31.9.31,10.76,4.16,38.56,3.17,44.89-.99,6.32-1.3,9.03-1.3,9.03,0,0,4,7.56,5.26,7.72,1.26.16,10.47-4.75,10.47-4.75,0,0-7.49-34.84-7.45-44.84.05-10,4.67-13.38,2.68-23.38-2-10.01-5.49-27.47-3.76-34.13,1.72-6.67,9.73-13.57,7.49-21.7-2.23-8.13-8.86-17.81-8.86-17.81" fill="#bf9b6a"/><path d="m94.07,301.05s3.25-6.27,5.67-7.47c2.41-1.2,2.62-.93,4.17-.83,1.55.1,7.8,8.3,7.8,8.3,0,0-4.76,3.74-17.64,0Z" fill="#8c7c6c"/><path d="m89.33,289.5s-1.55,5.04-1.21,7.28c.34,2.23.56,2.7,1.77,2.15,1.21-.54-.56-9.43-.56-9.43Z" fill="#8c7c6c"/><path d="m55.05,292.91s-1.55,5.04-1.21,7.28c.34,2.23.56,2.7,1.77,2.15,1.21-.54-.56-9.43-.56-9.43Z" fill="#8c7c6c"/><path d="m237.3,130.89s-2.66,20.4-2.27,27.07c.4,6.67-3.2-2.64-3.2-2.64,0,0,.93,25.44-2,24.78-2.92-.66-1.46-5.74-1.46-5.74,0,0-6,22.27-8.4,22-2.4-.27,0-6.53,0-6.53,0,0-10.94,14.8-13.47,14-2.53-.81,3.07-6,3.07-6,0,0-9.46,6.46-11.34,6.03-1.87-.43,2.4-5.5,2.4-5.5,0,0-8,7.04-9.6,5.52s2.77-5.92,2.77-5.92c0,0-13.57,1.73-13.57.93s31.47-42.01,31.47-42.01l25.61-26h-.02Z" fill="#807362"/><path d="m197.04,15.44c4.01,7.44,8.16,15,10.86,23.12.32,1.1.61,2.34.73,3.49.19,1.11.63,1.81,1.64,2.87,2.24,2.22,5.1,3.93,7.28,6.85,1.24,1.61,2.12,3.59,2.46,5.61.02.12.09.53.15.63,1.22,4.14,6.48,6.63,10.68,8.18,5.94,2.34,9.67,1.28,14.91,5.07,6.28,4.48,7.56,13.09,5.93,20.05l-16.19-4.51c.45-1.11.84-2.45,1.01-3.65.18-.48-.12-.92-.57-1.22l-.1-.08s0-.02.01-.03c0,0,.12.02.19.02-3.59-1.04-6.99-2.7-10.38-4.52-4.86-2.75-9.92-6.51-12.71-11.82-1.16-2.13-1.88-4.78-1.86-7.36.02-.4-.07-.77-.2-1.18-1.51-3.77-5.87-6.5-7.37-10.69-.41-1.04-.69-2.27-.68-3.39,0-.44-.02-1.19.02-1.63-.03-.5-.09-1.05-.14-1.56-1.29-8.12-4.04-15.95-6.7-23.79l1.03-.48v.02Z" fill="#95836d"/><path d="m164.26,2.88c1.64,7.64,5.27,15.1,12.05,19.1,4.66,2.81,9.67,2.64,15.08,3.9,6.03,1.34,11.78,5.98,13.85,11.96,1.88,5.33,1.26,9.75,5.11,13.44,5.62,5.78,13.99,3.49,21.24,6.85,12.2,4.75,18.6,18.11,20.71,30.05l-12.93,1.94c-.91-8.3-3.14-16.56-9.95-21.53-2.63-1.79-5.09-2.64-8.55-3.45-2.54-.61-5.54-1.19-8.6-2.53-4.66-2.09-8.46-5.77-10.6-10.33-1.93-3.72-1.8-9.17-2.63-12.47-1.09-4.28-4.75-7.7-9.05-9.1-2.3-.8-4.96-1.26-7.72-2.05-5.58-1.43-10.76-5.08-13.93-9.9-3.22-4.75-4.78-10.26-5.46-15.67l1.41-.24h-.02Z" fill="#c0a87c"/><g fill="none" mask="url(#e)"><path d="m250.43,89.46s-3.47-11.2-10.27-15.34c-6.8-4.14-17.21-5.87-20.94-5.6l-3.73.27s21.62,7.36,23.07,12.93c1.45,5.58,2.54,8.67,2.54,8.67l9.34-.93h-.01Z" fill="#95836d"/><path d="m192.02,34.91s6.27.93,7.2,8.67c.93,7.74,1.56,12.67,14.59,15.47,13.02,2.8,26.3,3.23,26.3,3.23,0,0-.43-17.4-10.2-12.54-17.85,8.89-27.61-13.5-37.88-14.84Z" fill="#95836d"/><path d="m162.85,0s-6.37,15.13,1.9,21.14c8.27,6.01,24.4,3.87,24.4,3.87L162.85,0Z" fill="#95836d"/></g><path d="m250.23,90.39s6.9-5.6,12.2-5.6,7.5,3.5,7.5,5.6-9.31,9.7-9.31,9.7" fill="#cfac75"/><path d="m253.44,92.44s8.5-5.45,12.8-5.25c4.3.2,3.2,4.5,1.8,5.25-1.39.75-9,4.85-9,4.85l-5.6-4.85Z" fill="#e3d3b2"/><path d="m45.41,145.67s-17.74,4.16-20.8,8.97c-3.06,4.81-4.33,31.07-12.67,34.67-8.34,3.6-8.34,6.67-8.34,6.67l9.54-3.87,4.4,4.67,5.53-9.6v4.93l3.4-8.4,5.6-.14,8.67-16.8,4.67-21.09h0Z" fill="#cfad77"/><g fill="none" mask="url(#g)"><path d="m0,189.7s14.2,3.4,16.61-.2c2.4-3.6,5.93-9.8,5.93-9.8,0,0,1.46,3.6,1.97,2.6.51-1.01,1.1-16.2,3.11-14.8,2.01,1.39,8.4,0,8.4,0l12.8,1s-20.4,37.55-22.4,37.58c-1.99.02-22.81,1.82-22.81,1.82L.01,189.68v.02Z" fill="#f7f7f5"/></g><path d="m152.73,172.98s-.24.86,1.41,14.2c1.64,13.34,10.55,14.01,12.2,21.22,1.64,7.22,9.53,21.14,9.84,31.9.31,10.76,4.16,38.56,3.17,44.89-.99,6.32-1.3,9.03-1.3,9.03,0,0,4,7.56,5.26,7.72,1.26.16,10.47-4.75,10.47-4.75,0,0-7.49-34.84-7.45-44.84.05-10,4.67-13.38,2.68-23.38-2-10.01-5.49-27.47-3.76-34.13,1.72-6.67,9.73-13.57,7.49-21.7-2.23-8.13-8.86-17.81-8.86-17.81" fill="#bf9b6a"/><path d="m182.65,302.05s3.92-6.39,6.34-7.59c2.41-1.2,2.62-.93,4.17-.83,1.55.1,7.8,8.3,7.8,8.3,0,0-5.42,3.87-18.31.11h0Z" fill="#8c7c6c"/><path d="m178.58,290.37s-1.55,5.04-1.21,7.28c.34,2.23.56,2.7,1.77,2.15,1.21-.54-.56-9.43-.56-9.43Z" fill="#8c7c6c"/><path d="m73.41,193.43s24.54,14.67,33.34,11.2c8.8-3.47,28.8-1.08,34.14.53,5.34,1.6,42.94,1.87,45.87-5.87,2.94-7.74,14.94-10.67,23.48-18.81,8.54-8.14,34.93-56.95,34.93-56.95l5.07-18.14-7.2-19.47s-8.8-2.13-13.87,1.07c-5.08,3.2-20.54,20.27-26.93,29.61-6.39,9.34-13.87,16.54-21.07,15.2-7.2-1.34-23.47-9.34-38.01-6.94-14.53,2.4-13.47,10.94-42.01,10.94s-41.08-2.4-49.34,1.6c-8.26,4-18.81,14.46-17.6,29.07,1.2,14.6,39.21,26.93,39.21,26.93v.02Z" fill="#cfac75"/><g fill="none" mask="url(#i)"><path d="m110.76,234.96l-52.87,4.81,3.25-51.08,19.2-8.54s20.64,17.6,38.65,17.6,32.25-18.41,32.25-18.41l22.02-1.2s4.48,6.1,11.57,4.75" fill="#fef7ed"/><path d="m159.97,227.33s49.43-27.63,64.18-44.38c14.75-16.73,22.85-59.21,22.85-59.21l-1.72-10.28s-21.53,57.97-48.11,62.52c-26.58,4.56-29.36-1.44-29.36-1.44l-7.86,52.78h.01Z" fill="#d8be9b"/></g><path d="m263.84,124.49s-2.27,6-5.2,8c-2.94,2.01-4.14,5.46-5.2,2.94-1.07-2.53.67-4.53.67-4.53,0,0-3.87,8.4-6.94,6.94s5.87-7.07,3.07-8.4c-2.8-1.33-2.47,2.49-4.4-.53-1.93-3.03,1.87-7.47,1.87-7.47l16.14,3.07h-.01Z" fill="#807362"/><path d="m232.63,111.79s1.2,13.5,13.21,13.7c12,.2,32.51,2.7,36.7,1.7,4.19-1,1.3-4.9,1.3-4.9,0,0,7.1,2.4,7.1-4s-10.6-12.11-15.4-16.5c-4.81-4.4-13-7.1-15.6-8.9-2.6-1.8-5.2-6.7-10.1-6.4-4.9.29-11.96-.7-12.25-.6-.29.1-4.95,25.91-4.95,25.91h0Z" fill="#cfac75"/><g fill="none" mask="url(#k)"><path d="m243.81,91.32s5.8-5.77,7.93-5.16c2.13.61,31.44,15.14,31.44,15.14l-3.25,3.15-12.6-.85-10-5.95-7.65-4.26-5.87-2.07Z" fill="#807362"/></g><path d="m237.73,95.18s1-4.5,0-5.1c-1-.6-12-6.71-20.4-6.51-8.4.2-17.4-7.4-19.8-3.3-2.4,4.1,8.3,12.71,13.7,16.3,5.41,3.59,17,3.5,17,3.5" fill="#cfac75"/><path d="m231.37,96.35s-15.4-9.57-21.11-11.63c-5.7-2.06-12.57-4.11-10.59.46,1.98,4.58,15.19,11.37,21.89,12.37,6.7,1,9.8-1.2,9.8-1.2Z" fill="#e3d3b2"/><path d="m33.4,156.49s-4,10.8,1.99,24.61c6,13.81,14.8,18.2,10.41,31-4.4,12.8-18.41,18.41-15.2,25.21,3.21,6.8,19.6,43.96,20.8,51.56s8.8,17.94,8.8,17.94l9.85-4.74s-14.25-38.75-17.05-52.36c-2.8-13.6,1.6-22.4,6-24.8,4.4-2.4,19.6-7.61,27.6-22.81,8-15.2,16.4-36.81,3.6-42.01s-56.81-3.6-56.81-3.6h.01Z" fill="#cfac75"/><path d="m145.62,174.9s-.4.8-1.41,14.2c-1.01,13.4,7.61,15.8,7.8,23.2.19,7.4,5.2,22.6,3.4,33.2-1.8,10.6-.2,38.96-2.4,44.96-2.2,6-3.05,8.6-3.05,8.6,0,0,2.45,8.21,3.65,8.6s11.2-2.6,11.2-2.6c0,0-3.8-35.96-1.8-45.76,2-9.8,7.2-12.2,7.2-22.4s0-28.01,3-34.21c3-6.2,12.2-11.4,11.61-19.8-.59-8.4-5.2-19.2-5.2-19.2" fill="#cfac75"/><path d="m153.27,307.52s3.8-4.25,5.96-4.95c2.16-.7,3.92-1.04,5.17-.63,1.25.41,3.42,6.84,3.42,6.84,0,0-4.62,4.95-14.55-1.25Z" fill="#8c7c6c"/><path d="m151.24,295.42s-2.52,4.65-2.62,6.9c-.1,2.26.01,2.75,1.3,2.46,1.29-.29,1.3-9.36,1.3-9.36h.01Z" fill="#8c7c6c"/><path d="m242.62,92.49s.54-1.3,1.94-2.31c.83-.6,1.97-1.11,3.47-1.16,1.8-.06,4.31,1.92,6.51,4.11,3.8,3.77,8.55,6.45,13.78,7.56l7.71,1.63,7.29,5.53s-16.82.5-21.53-2.97c-4.7-3.47-6.14-7.42-6.14-7.42l-10.58-.85-2.45-4.13Z" fill="#e3d3b2"/><path d="m255.57,97.79s-.36-.53-1.63-.2c-1.27.33-3.87.93-5.37.74-1.51-.19-3.4-1-3.5-1.7-.1-.7,3.37-3.26,5.87-3.2,2.5.07,5,2.6,5,3.33s.06,1.28-.36,1.03Z" fill="#1d1d1b"/><path d="m284.4,124.49c-.09-2.64-3.53-3.48-5.67-4.13-2.56-.7-5.19-1.31-7.83-1.58-5.32-.66-10.64-1.19-15.97-1.7,7.32.66,14.79.69,22,2.2,2.97.78,8.01,1.3,8.33,5.2h-.86Z" fill="#807362"/><path d="m58.56,304.97s1.52,4.24,1.85,4.43c.33.19,19.94-.67,19.94-.67,0,0-9.49-11.05-13.34-11.63-3.85-.58-11.38,5.4-8.44,7.86h0Z" fill="#8c7c6c"/></g></g></svg>