<?xml version="1.0" encoding="UTF-8"?><svg id="b" xmlns="http://www.w3.org/2000/svg" viewBox="0 0 63.46 117.51"><g id="c"><g id="d"><g id="e"><path d="M54.64,56.18c-.21,.17-.58-.08-1.17-.25-.51-.15-1.39-.33-1.49-.15-.21,.4,3.43,2.4,3.11,3.15-.06,.14-.23,.19-.32,.21-.56,.15-1.01-.55-2.06-1.3-.73-.52-1.43-.84-1.5-.76-.11,.14,1.53,2,2.08,2.84,.07,.11,.21,.33,.12,.5-.08,.14-.29,.17-.35,.18-.82,.1-2.79-2.77-3.09-2.6-.25,.14,.95,2.5,.42,2.88-.11,.08-.26,.04-.32,.02-.87-.23-.95-2.58-1.11-2.57-.15,.01,.07,2.06-.49,2.23-.09,.02-.18,0-.22-.02-.32-.14-.3-.67-.45-1.94-.28-2.28,.02-2.7-.43-3.65-.45-.93-1.1-1.1-1.01-1.61,.1-.62,1.11-.96,1.89-1.16,.51,.34,1.28,.83,2.26,1.35,.36,.19,.78,.42,1.37,.67,1.84,.84,2.79,.95,2.89,1.54,.02,.14,0,.35-.12,.45Z" fill="#b78862"/><path d="M45.67,55.84l5.44-4.31-12.11-13.88-4.51-13.17-7.37-.39,5.74,16.59,12.82,15.16Z" fill="#a04a61"/><path d="M10.1,103.88l-3.48-2.83-3.9,4.79,3.48,2.83,3.9-4.79Z" fill="#b78862"/><path d="M51.43,105.9l-4.24,1.48,2.04,5.83,4.24-1.48-2.04-5.83Z" fill="#b78862"/><path d="M49.07,116c.22,.61,.87,.93,1.48,.75,2.83-.6,12.24-2.65,12.82-4.26,.23-.66,0-1.05,0-1.05-.33-.57-1.32-.55-1.53-.54l-7.8-.88c-.19-.02-.37,.07-.46,.24-.3,.55-1.05,1.7-2.54,2.22-1.06,.36-2.02,.25-2.64,.1-.28-.07-.51,.2-.42,.46l1.07,2.95h.02Z"/><path d="M25.68,46.27c3.82,0,7.63,0,11.44,.01-.28,3.05-.67,7.37-1.24,12.56-1.88,17.53-2.85,20.42-3.92,22.81-2.12,4.76-4.7,7.75-9.74,13.57-4.75,5.49-9.26,9.55-12.53,12.26-2.24-1.75-4.47-3.49-6.71-5.25,5.96-7.61,11.91-15.2,17.88-22.81,.87-5.62,1.72-11.3,2.55-17.03,.78-5.41,1.53-10.79,2.25-16.12h.01Z" fill="#29485d"/><path d="M13.28,60.14c-.26-.04-.33-.5-.57-1.05-.21-.48-.66-1.27-.86-1.22-.44,.1,.44,4.17-.33,4.42-.14,.04-.3-.06-.36-.1-.49-.32-.25-1.12-.37-2.41-.09-.89-.31-1.63-.41-1.62-.18,.01-.5,2.47-.77,3.44-.03,.12-.11,.37-.29,.42-.15,.03-.31-.1-.36-.15-.62-.55,.25-3.92-.07-4.03-.28-.1-1.27,2.36-1.9,2.2-.13-.03-.2-.17-.23-.22-.4-.8,1.32-2.41,1.2-2.54-.11-.11-1.51,1.41-2,1.1-.08-.06-.11-.14-.12-.19-.1-.33,.31-.67,1.16-1.62,1.53-1.71,2.05-1.76,2.46-2.72,.41-.95,.11-1.55,.55-1.83,.53-.33,1.46,.2,2.11,.66,.08,.61,.21,1.5,.46,2.59,.1,.4,.2,.86,.39,1.48,.58,1.94,1.11,2.72,.74,3.19-.09,.11-.26,.23-.42,.21Z" fill="#b78862"/><path d="M40.97,9.13c-.04-.09-.08-.18-.12-.25-.15-3.78-2.6-6.78-5.6-6.78s-5.61,3.21-5.61,7.17c0,1.3,.28,2.51,.75,3.56h-1.07v6.43h5.95v-2.82c2.53,0,4.66-2.12,5.37-5.04,.72,.09,.93-.11,.99-.2,.07-.09,.17-.31-.64-2.07h-.01Z" fill="#b78862"/><path d="M39.1,25.2c0-4.4-3.57-7.97-7.98-7.97s-7.98,3.57-7.98,7.97v20.18c0,4.4,3.57,7.97,7.98,7.97s7.98-3.57,7.98-7.97V25.2Z" fill="#a05660"/><path d="M23.22,46.19h15.88l15.22,61.91-8.01,2.89-8.7-28.46c-.58-1.92-1.36-3.78-2.29-5.56l-10.17-19.27c-1.38-2.61-2.06-5.52-2.01-8.48,.03-1.64,.07-3.09,.07-3.03h.01Z" fill="#295269"/><path d="M.26,107.16c-.4,.5-.34,1.22,.14,1.65,1.99,2.09,8.67,9.04,10.35,8.69,.68-.14,.89-.54,.89-.54,.32-.58-.22-1.41-.34-1.59l-3.33-7.1c-.08-.18-.25-.29-.44-.26-.63,.04-2,0-3.22-1-.87-.71-1.28-1.58-1.47-2.19-.09-.28-.44-.33-.62-.11l-1.96,2.46Z"/><path d="M7.67,52.84l6.53,2.34,5.39-17.61,8.81-10.79-3.56-6.45-11.08,13.64-6.1,18.87Z" fill="#a05660"/><path d="M38,7.77c-.12,.04-.19,.18-.21,.31-.01,.06-.02,.12-.02,.18v.13c0,.07,.01,.12,.02,.18,0,.03,.01,.07,.02,.09,.01,.03,.02,.07,.04,.1,.02,.04,.06,.08,.1,.11,.03,.02,.08,.04,.11,.06h.12c.06,0,.1,0,.14-.03,.03-.01,.06-.03,.08-.06s.03-.04,.06-.07c.01-.02,.02-.04,.03-.08,.02-.06,.03-.11,.03-.18v-.08c0-.14-.02-.29-.07-.43-.03-.12-.1-.26-.23-.29-.03-.02-.08-.02-.12-.02s-.09,0-.13,.03l.02,.04Z"/><path d="M35.19,4.26c.13-.45,3.86,.71,4.37-.14,.23-.37-.26-1.16-.67-1.54-.38-.35-.52-.24-1.3-.75-.79-.52-.77-.71-1.3-.9-.51-.19-.62-.04-1.24-.25-.61-.21-.6-.4-1.07-.55-.83-.26-1.63-.03-2.25,.15-.66,.2-.68,.33-1.46,.53-.49,.12-.64,.11-.93,.28-.21,.12-.24,.19-.87,.86-.51,.54-.57,.58-.68,.77-.2,.34-.14,.45-.3,.85-.29,.73-.6,.68-.83,1.28-.14,.37-.02,.39-.15,1.38-.11,.87-.21,.83-.22,1.36-.01,.37-.03,1.05,.33,1.69,.17,.3,.32,.41,.58,.68,.11,.12,.14,.14,.2,.21,.36,.39,.4,.65,.72,1.2,.34,.57,.46,.55,.58,.94,.08,.28,.03,.35,.09,.74,.1,.68,.14,1.01,.38,1.21,.23,.19,.62,.13,1.39,.02,.71-.1,.93-.25,1.03-.33,.23-.19,.39-.44,.43-.53,.19-.32,.17-.47,.36-.74,.14-.18,.22-.2,.36-.33,.18-.18,.36-.46,.44-.99-1.1-.13-1.86-.97-1.85-1.82,0-.56,.35-1.2,.95-1.43,.73-.28,1.65,.09,2.1,.95,.77-.75,.92-1.3,.89-1.66-.01-.31-.17-.79,0-1.27,.02-.08,.08-.19,.06-.33-.04-.29-.29-.34-.29-.56,0-.2,.21-.23,.25-.49,.04-.24-.12-.35-.1-.45h0Z" fill="#2d2821"/><path d="M36.83,12.03c0-.2,.5-.5,.95-.51,.23,0,.33,.08,.76,.11,.3,.02,.46,.01,.64,0,.29-.03,.72,0,1.31,.25-.11,.29-.21,.57-.32,.86-2.66-.23-3.33-.5-3.33-.72h-.01Z" fill="#2d2821"/><path d="M34.37,9.03c-.06,.37-.03,.66,0,.86,.03,.24,.08,.34,.12,.69,.01,.11,.04,.32,.06,.58,.02,.57-.08,.62-.02,.95,.06,.33,.15,.29,.24,.69,.08,.33,.01,.39,.09,.79,.07,.37,.12,.34,.17,.65,.06,.39,.01,.73-.01,.95-.06,.39-.11,.45-.08,.66,.04,.25,.21,.45,.33,.57,.53-.02,1.39-.14,2.29-.62,1.76-.94,2.44-2.58,2.61-3.06-2.04-.83-2.75-1.25-2.97-1.47-.03-.03-.21-.21-.46-.44-.13-.12-.23-.2-.49-.41-.42-.34-.63-.52-.63-.52-.29-.33-.23-.53-.54-.97-.14-.21-.3-.35-.4-.45-.1,.18-.2,.36-.31,.54h-.01Z" fill="#2d2821"/><path d="M38.1,12.62c-.18,.09-.11,.62,.03,.98,.21,.58,.65,.93,.89,1.08,.17-.18,.34-.4,.52-.65,.15-.23,.28-.45,.37-.65-.22-.02-.54-.09-.89-.25-.54-.26-.76-.6-.92-.51h-.01Z" fill="#fff"/><path d="M29.5,25.03c-.09,.13-.15,.28-.22,.42-.08,.14-.15,.3-.23,.44-.14,.28-.3,.54-.45,.83-.17,.29-.32,.57-.5,.86-.17,.26-.32,.53-.5,.78-.15,.23-.31,.44-.49,.66-.19,.22-.37,.44-.6,.63-.23,.2-.47,.41-.69,.62-.12,.11-.23,.22-.35,.32-.11,.11-.22,.21-.32,.32-.21,.21-.42,.41-.63,.62-.11,.1-.2,.21-.32,.31-.09,.1-.2,.19-.29,.28-.12,.11-.23,.22-.33,.33-.12,.12-.22,.25-.33,.36-.1,.09-.11,.25-.02,.35,.09,.1,.24,.11,.35,.02,.13-.1,.24-.21,.35-.32,.11-.1,.21-.21,.31-.3,.11-.09,.2-.18,.31-.28,.1-.09,.21-.21,.32-.31,.2-.21,.42-.4,.64-.61,.11-.11,.22-.21,.34-.32,.12-.11,.23-.22,.35-.32,.23-.2,.47-.39,.72-.57,.11-.1,.23-.2,.33-.31,.12-.12,.23-.24,.34-.37,.42-.47,.77-1.01,1.09-1.55,.26-.41,.47-.83,.72-1.25,.12-.22,.24-.43,.36-.66,.11-.21,.21-.41,.33-.62,.04-.08,.07-.17,.04-.25-.02-.08-.08-.17-.15-.21-.14-.1-.37-.07-.47,.1h-.02Z" fill="#a04a61"/><path d="M49.77,103.38c.06-.09,.11-.21,.11-.44,.01-.23-.02-.45-.08-.72-.15-.66-.3-1.33-.44-2.01-.18-.89-.34-1.79-.53-2.68-.19-.89-.36-1.74-.55-2.6-.36-1.71-.73-3.45-1.13-5.16-.18-.78-.35-1.48-.56-2.25-.21-.77-.39-1.51-.57-2.29-.19-.74-.36-1.51-.56-2.25-.23-.88-.47-1.76-.74-2.57-.11-.33-.26-.42-.33-.22-.03,.12-.04,.28-.04,.43,0,.19,.06,.34,.1,.52,.23,.8,.42,1.66,.61,2.48,.2,.85,.4,1.7,.58,2.56,.21,.89,.41,1.74,.63,2.59,.1,.41,.19,.77,.29,1.18,.1,.44,.2,.93,.31,1.37,.28,1.26,.54,2.52,.82,3.78,.29,1.33,.57,2.67,.84,4.01,.11,.6,.23,1.22,.35,1.86,.06,.26,.11,.52,.17,.78,.08,.33,.14,.63,.21,.97,.09,.41,.25,.65,.39,.63,.02,0,.04,0,.07-.04l.07,.07h.01Z" fill="#29485d"/></g></g></g></svg>