<?xml version="1.0" encoding="UTF-8"?><svg id="b" xmlns="http://www.w3.org/2000/svg" xmlns:xlink="http://www.w3.org/1999/xlink" viewBox="0 0 42.35 72.71"><defs><mask id="e" x="0" y="3.86" width="28.28" height="41.39" maskUnits="userSpaceOnUse"><g id="f"><path d="m8.05,19.05c5.3-9.43,7.11-10.36,9.56-9.69,0,0,6.31.32,5.72,9.12-.14,2.13-1.32,4.83-3.03,7.7-1.58,4.81-4.06,11.06-6.56,12.08-1.41.57-2.57.85-3.5.98-3.39,3.68-6.18,6.2-6.52,6.01-.89-.51-.96-16.77,4.34-26.2Z" fill="#fff"/></g></mask></defs><g id="c"><g id="d"><path d="m17.5,39.37c1.02-1.29,2.56-2.08,4.04-1.21.44.27.87.66,1.28,1.22.4-1.51-1.05-3.11-2.65-3.02-1.57,0-3,1.5-2.68,3.01Z" fill="#8f6143"/><path d="m17.22,39.56c1.48-.74,3.21-.8,4.18.61.29.43.51.96.64,1.65,1.01-1.19.39-3.25-1.1-3.85-1.42-.66-3.36.09-3.71,1.6h0Z" fill="#8f6143"/><path d="m16.88,39.27c1.25-.39,2.11-.03,2.67.59.65.78.86,1.79.89,2.89,1.05-.93,1.06-2.69.12-3.77-.93-1.17-3.1-1.14-3.68.28Z" fill="#8f6143"/><path d="m39.7,7.79s-.38,1.08,1.72-2.22C43.53,2.28,37.4.07,31.47,0c-5.93-.06-10.15,2.28-14.17,8.99-4.02,6.71-12.51,31.32-12.51,31.32l5.62,3.8,9.76-6.01s5.04-3.23,6.64-8.29c1.59-5.06,1.53-5.44,1.53-5.44,0,0,3.45-.38,3.7-3.92l.38-5.31,7.28-7.34Z" fill="#e41b20"/><path d="m38.9,15.98s-1.47.76-3.45.76-5.3-.32-4.63-2.31c.67-1.99,2.17-1.33,3.13-3.04.96-1.71,2.94-2.34,2.94-2.34l2.01,6.93h0Z" fill="#333"/><path d="m16.15,37.4s-8.17,34.61-9.32,34.87c-1.15.25-1.53-9.62-1.53-9.62,0,0,.89,10.06-.51,10.06s-3.55-22.18-1.4-28.35c2.14-6.17,5.36-7.47,5.36-7.47l7.4.51h0Z" fill="#e41b20"/><path d="m40.25,6.3s2.17,1.23,2.1,4.43c-.07,3.19-1.28,6.71-2.46,7.85s-1.69,1.27-1.69,1.27c0,0,.86-2.69,0-3.67-.86-.98-4.15-2.03-3.54-4.91.61-2.88,4.41-5.79,5.58-4.97h0Z" fill="#fdf0d7"/><path d="m32.24,16.39c-.38,0-3.1-.6-4.82-2.6-1.72-1.99-2.52-6.04-.19-8.61,2.33-2.56,7.59-1.71,8.94-.7s1.46,2.72.8,3.77c-.67,1.04-2.37.41-4.72,8.13h0Z" fill="#fff"/><path d="m17.94,25.69s1.4,5.82.51,10.31c-.89,4.49-6.32,11.14-7.02,11.39-.7.25-.32-17.15,1.08-18.29,1.4-1.14,5.42-3.42,5.42-3.42h0Z" fill="#084697"/><path d="m12.96,32.4s-1.79,18.03-3.06,19.74c-1.28,1.71-4.52-10.09-2.68-16.9,1.84-6.81,5.74-2.85,5.74-2.85Z" fill="#084697"/><path d="m7.35,23.99S1.28,35.19.96,41.26c-.32,6.07,1.47,12.4,3.19,11.77,1.72-.63,4.66-19.17,4.66-19.17l-1.47-9.87h0Z" fill="#084697"/><path d="m32.02,6.52c-.54,0-.98-.44-.98-.97s.44-.97.98-.97.98.44.98.97-.44.97-.98.97Z" fill="#333"/><path d="m8.05,19.05c5.3-9.43,7.11-10.36,9.56-9.69,0,0,6.31.32,5.72,9.12-.14,2.13-1.32,4.83-3.03,7.7-1.58,4.81-4.06,11.06-6.56,12.08-1.41.57-2.57.85-3.5.98-3.39,3.68-6.18,6.2-6.52,6.01-.89-.51-.96-16.77,4.34-26.2Z" fill="#38bcd9"/><g fill="none" mask="url(#e)"><path d="m20.71,30.38s-2.13,3.68-2.44,2.85c-.32-.83-3.97-4.31-4.95-1.97s-4.12,3.56-3.99,2.03c.36-4.3-2.61-.25-3.37,1.08-.76,1.33-4.05,5.66-4.05,5.66l1.36-17.75,19.87,2.09-2.41,6.45" fill="#92c143"/><path d="m21.9,25.69s-.47,1.42-1,2.79c-.59,1.53-1.25,3.01-1.43,2.4-.37-1.32-2.43-6.14-3.32-4.49-.89,1.65-3.87,5-4.3,2.78s-2.44-4.56-3.05-1.95c-.6,2.61-4.06,5.81-3.94,4.61.12-1.2-4.86-4.61-4.86-4.61l15.38-9.06,10.85,2.85" fill="#f3e600"/><path d="m24.27,19.84s-4.42,6.74-4.86,5.03c-.44-1.71-1.32-4.93-2.24-3.48-.92,1.45-5.76,4.89-5.67,3.27.35-6.37-5.32,1.51-6.71,1.32-1.39-.19,3.29-15.31,3.29-15.31l20.2,4.46-4.01,4.72h0Z" fill="#f9b03c"/><path d="m24.9,15.38s-1.33,2.34-1.78,3.54c-.45,1.2-4.22-3.42-5.18-1.46-.96,1.96-4.26,5.73-4.63,3.35-.37-2.38-1.22-4.56-2.22-3.42-.99,1.14-2.14,5.31-3.04,5.06-.89-.25-2.3-4.49-2.3-4.49L14.92,3.86l9.98,11.52h0Z" fill="#e41b20"/></g><path d="m34.98,4.58c.03.62.08,1.42-.26,1.95-.31.38-.88.51-1.29.8-.14.1-.27.25-.3.42.07-.16.2-.27.35-.35.46-.25,1.01-.32,1.38-.76.38-.56.29-1.44.12-2.06Z" fill="#e41b20"/><path d="m35.94,5.21c.03.62.08,1.42-.26,1.95-.31.38-.88.51-1.29.8-.14.1-.27.25-.3.42.07-.16.2-.27.35-.35.46-.25,1.01-.32,1.38-.76.38-.56.29-1.44.12-2.06Z" fill="#e41b20"/><path d="m32.24,8.2c-.52.55-1.05,1.1-1.69,1.49-.22.12-.43.2-.68.16-.49-.04-.99-.17-1.48-.29l-1.48-.38c.95.38,1.92.71,2.95.84.13.01.28,0,.41-.04.86-.32,1.45-1.09,1.97-1.79h0Z" fill="#e41b20"/><path d="m33.13,9.64c-.52.55-1.05,1.1-1.69,1.49-.22.12-.43.2-.68.17-.49-.04-.99-.17-1.48-.29l-1.48-.38c.95.38,1.92.71,2.95.84.13.01.28,0,.41-.04.86-.32,1.45-1.09,1.97-1.79h0Z" fill="#e41b20"/></g></g></svg>