<?xml version="1.0" encoding="UTF-8"?><svg id="b" xmlns="http://www.w3.org/2000/svg" xmlns:xlink="http://www.w3.org/1999/xlink" viewBox="0 0 167.92 258"><defs><clipPath id="e"><rect width="167.92" height="258" fill="none"/></clipPath><mask id="f" x="25.74" y="35.78" width="87.93" height="127.14" maskUnits="userSpaceOnUse"><g id="g"><path d="m50.77,82.42c16.48-28.95,22.1-31.83,29.72-29.76,0,0,19.62.99,17.78,28.01-.45,6.55-4.1,14.85-9.42,23.65-4.9,14.78-12.62,33.98-20.41,37.1-4.39,1.76-8,2.61-10.89,3-10.53,11.31-19.23,19.05-20.28,18.47-2.78-1.55-2.98-51.5,13.5-80.46Z" fill="#fff"/></g></mask><mask id="h" x="25.74" y="35.78" width="87.93" height="127.14" maskUnits="userSpaceOnUse"><g id="i"><path d="m50.77,82.42c16.48-28.95,22.1-31.83,29.72-29.76,0,0,19.62.99,17.78,28.01-.45,6.55-4.1,14.85-9.42,23.65-4.9,14.78-12.62,33.98-20.41,37.1-4.39,1.76-8,2.61-10.89,3-10.53,11.31-19.23,19.05-20.28,18.47-2.78-1.55-2.98-51.5,13.5-80.46Z" fill="#fff"/></g></mask></defs><g id="c"><g id="d"><g clip-path="url(#e)" fill="none"><path d="m80.15,144.84c3.16-3.98,7.95-6.39,12.57-3.71,1.38.81,2.7,2.02,3.99,3.74,1.25-4.63-3.25-9.54-8.23-9.28-4.88.02-9.33,4.6-8.33,9.25Z" fill="#8f6143"/><path d="m79.3,145.41c4.59-2.28,9.98-2.47,12.99,1.87.9,1.31,1.57,2.95,1.99,5.06,3.14-3.67,1.2-9.99-3.42-11.83-4.43-2.02-10.45.29-11.55,4.9h-.01Z" fill="#8f6143"/><path d="m78.24,144.53c3.9-1.19,6.56-.09,8.3,1.82,2.04,2.39,2.67,5.48,2.78,8.88,3.26-2.86,3.3-8.26.36-11.56-2.9-3.58-9.63-3.49-11.44.87Z" fill="#8f6143"/><path d="m149.2,47.83s-1.19,3.3,5.35-6.81c6.55-10.11-12.51-16.91-30.96-17.1-18.46-.2-31.56,6.99-44.06,27.6-12.51,20.61-38.9,96.2-38.9,96.2l17.47,11.66,30.36-18.46s15.68-9.91,20.64-25.46c4.96-15.55,4.77-16.72,4.77-16.72,0,0,10.72-1.17,11.52-12.05l1.19-16.32,22.63-22.54Z" fill="#e41b20"/><path d="m146.72,73s-4.57,2.33-10.72,2.33-16.48-.97-14.38-7.09c2.09-6.12,6.75-4.09,9.73-9.33,2.98-5.24,9.13-7.19,9.13-7.19l6.25,21.28h-.01Z" fill="#333"/><path d="m75.97,138.79s-25.41,106.31-28.97,107.09c-3.57.78-4.77-29.54-4.77-29.54,0,0,2.78,30.9-1.59,30.9s-11.03-68.13-4.36-87.07c6.67-18.94,16.67-22.93,16.67-22.93l23.02,1.55h0Z" fill="#e41b20"/><path d="m150.89,43.26s6.75,3.79,6.55,13.6c-.2,9.81-3.97,20.61-7.64,24.1-3.67,3.49-5.26,3.89-5.26,3.89,0,0,2.68-8.26,0-11.28-2.68-3.02-12.9-6.22-11.01-15.07,1.89-8.84,13.7-17.79,17.36-15.25h0Z" fill="#fdf0d7"/><path d="m125.98,74.26c-1.19,0-9.63-1.85-14.98-7.97-5.35-6.12-7.84-18.56-.6-26.43,7.24-7.87,23.62-5.24,27.79-2.14,4.17,3.11,4.55,8.36,2.49,11.56-2.07,3.2-7.38,1.27-14.69,24.98h-.01Z" fill="#fff"/><path d="m81.52,102.83s4.36,17.89,1.59,31.67c-2.78,13.79-19.65,34.21-21.83,34.98-2.18.77-.99-52.67,3.37-56.17,4.36-3.5,16.87-10.5,16.87-10.5h0Z" fill="#084697"/><path d="m66.05,123.44s-5.56,55.39-9.53,60.64c-3.97,5.25-14.07-30.99-8.33-51.89,5.74-20.9,17.86-8.74,17.86-8.74Z" fill="#084697"/><path d="m48.58,97.59s-18.85,34.41-19.85,53.06c-.99,18.66,4.57,38.1,9.92,36.15,5.35-1.95,14.49-58.89,14.49-58.89l-4.57-30.32h.01Z" fill="#084697"/><path d="m125.32,43.94c-1.68,0-3.05-1.34-3.05-2.98s1.36-2.98,3.05-2.98,3.05,1.34,3.05,2.98-1.36,2.98-3.05,2.98Z" fill="#333"/><path d="m50.77,82.42c16.48-28.95,22.1-31.83,29.72-29.76,0,0,19.62.99,17.78,28.01-.45,6.55-4.1,14.85-9.42,23.65-4.9,14.78-12.62,33.98-20.41,37.1-4.39,1.76-8,2.61-10.89,3-10.53,11.31-19.23,19.05-20.28,18.47-2.78-1.55-2.98-51.5,13.5-80.46Z" fill="#38bcd9"/><g fill="none" mask="url(#f)"><path d="m90.13,117.21s-6.61,11.29-7.6,8.74c-.99-2.54-12.35-13.25-15.41-6.05-3.06,7.2-12.8,10.94-12.4,6.23,1.11-13.22-8.12-.78-10.49,3.3-2.37,4.09-12.61,17.39-12.61,17.39l4.23-54.52,61.78,6.41-7.49,19.82" fill="#92c143"/><path d="m93.83,102.83s-1.45,4.36-3.1,8.58c-1.83,4.71-3.9,9.24-4.44,7.36-1.16-4.04-7.55-18.85-10.32-13.8-2.78,5.06-12.03,15.35-13.36,8.55-1.33-6.81-7.6-14-9.47-5.99-1.87,8.01-12.62,17.85-12.26,14.15.36-3.7-15.13-14.15-15.13-14.15l47.83-27.82,33.74,8.74" fill="#f3e600"/><path d="m101.2,84.86s-13.73,20.69-15.12,15.45c-1.38-5.24-4.09-15.15-6.95-10.69-2.86,4.46-17.9,15.02-17.62,10.03,1.09-19.56-16.54,4.64-20.87,4.05-4.33-.58,10.22-47.04,10.22-47.04l62.81,13.7-12.47,14.48h0Z" fill="#f9b03c"/><path d="m103.16,71.16s-4.14,7.19-5.54,10.88c-1.41,3.69-13.11-10.5-16.09-4.47-2.98,6.02-13.26,17.6-14.41,10.3-1.15-7.3-3.8-14-6.89-10.5-3.09,3.5-6.67,16.32-9.45,15.55-2.78-.77-7.14-13.8-7.14-13.8l28.51-43.34,31.03,35.37h-.01Z" fill="#e41b20"/></g><path d="m134.52,37.99c.08,1.91.24,4.35-.82,5.99-.97,1.16-2.73,1.56-4,2.46-.44.32-.85.76-.93,1.3.2-.5.62-.84,1.09-1.08,1.44-.78,3.14-.99,4.28-2.33,1.18-1.72.89-4.42.38-6.33Z" fill="#e41b20"/><path d="m137.51,39.92c.08,1.91.24,4.35-.82,5.99-.97,1.16-2.73,1.56-4,2.46-.44.32-.85.76-.93,1.3.2-.5.62-.84,1.09-1.08,1.44-.78,3.14-.99,4.28-2.33,1.18-1.72.89-4.42.38-6.33Z" fill="#e41b20"/><path d="m125.98,49.1c-1.61,1.67-3.25,3.39-5.26,4.57-.67.37-1.35.61-2.1.51-1.53-.13-3.08-.53-4.61-.88l-4.6-1.16c2.97,1.16,5.97,2.17,9.17,2.58.39.03.87.02,1.27-.12,2.67-.98,4.51-3.34,6.14-5.51h0Z" fill="#e41b20"/><path d="m128.76,53.53c-1.61,1.67-3.25,3.39-5.26,4.57-.67.37-1.35.61-2.1.51-1.53-.13-3.08-.53-4.61-.88l-4.6-1.16c2.97,1.16,5.97,2.17,9.17,2.58.39.03.87.02,1.27-.12,2.67-.98,4.51-3.34,6.14-5.51h0Z" fill="#e41b20"/><path d="m80.15,144.84c3.16-3.98,7.95-6.39,12.57-3.71,1.38.81,2.7,2.02,3.99,3.74,1.25-4.63-3.25-9.54-8.23-9.28-4.88.02-9.33,4.6-8.33,9.25Z" fill="#8f6143"/><path d="m79.3,145.41c4.59-2.28,9.98-2.47,12.99,1.87.9,1.31,1.57,2.95,1.99,5.06,3.14-3.67,1.2-9.99-3.42-11.83-4.43-2.02-10.45.29-11.55,4.9h-.01Z" fill="#8f6143"/><path d="m78.24,144.53c3.9-1.19,6.56-.09,8.3,1.82,2.04,2.39,2.67,5.48,2.78,8.88,3.26-2.86,3.3-8.26.36-11.56-2.9-3.58-9.63-3.49-11.44.87Z" fill="#8f6143"/><path d="m149.2,47.83s-1.19,3.3,5.35-6.81c6.55-10.11-12.51-16.91-30.96-17.1-18.46-.2-31.56,6.99-44.06,27.6-12.51,20.61-38.9,96.2-38.9,96.2l17.47,11.66,30.36-18.46s15.68-9.91,20.64-25.46c4.96-15.55,4.77-16.72,4.77-16.72,0,0,10.72-1.17,11.52-12.05l1.19-16.32,22.63-22.54Z" fill="#e41b20"/><path d="m146.72,73s-4.57,2.33-10.72,2.33-16.48-.97-14.38-7.09c2.09-6.12,6.75-4.09,9.73-9.33,2.98-5.24,9.13-7.19,9.13-7.19l6.25,21.28h-.01Z" fill="#333"/><path d="m75.97,138.79s-25.41,106.31-28.97,107.09c-3.57.78-4.77-29.54-4.77-29.54,0,0,2.78,30.9-1.59,30.9s-11.03-68.13-4.36-87.07c6.67-18.94,16.67-22.93,16.67-22.93l23.02,1.55h0Z" fill="#e41b20"/><path d="m150.89,43.26s6.75,3.79,6.55,13.6c-.2,9.81-3.97,20.61-7.64,24.1-3.67,3.49-5.26,3.89-5.26,3.89,0,0,2.68-8.26,0-11.28-2.68-3.02-12.9-6.22-11.01-15.07,1.89-8.84,13.7-17.79,17.36-15.25h0Z" fill="#fdf0d7"/><path d="m125.98,74.26c-1.19,0-9.63-1.85-14.98-7.97-5.35-6.12-7.84-18.56-.6-26.43,7.24-7.87,23.62-5.24,27.79-2.14,4.17,3.11,4.55,8.36,2.49,11.56-2.07,3.2-7.38,1.27-14.69,24.98h-.01Z" fill="#fff"/><path d="m81.52,102.83s4.36,17.89,1.59,31.67c-2.78,13.79-19.65,34.21-21.83,34.98-2.18.77-.99-52.67,3.37-56.17,4.36-3.5,16.87-10.5,16.87-10.5h0Z" fill="#084697"/><path d="m66.05,123.44s-5.56,55.39-9.53,60.64c-3.97,5.25-14.07-30.99-8.33-51.89,5.74-20.9,17.86-8.74,17.86-8.74Z" fill="#084697"/><path d="m48.58,97.59s-18.85,34.41-19.85,53.06c-.99,18.66,4.57,38.1,9.92,36.15,5.35-1.95,14.49-58.89,14.49-58.89l-4.57-30.32h.01Z" fill="#084697"/><path d="m125.32,43.94c-1.68,0-3.05-1.34-3.05-2.98s1.36-2.98,3.05-2.98,3.05,1.34,3.05,2.98-1.36,2.98-3.05,2.98Z" fill="#333"/><path d="m50.77,82.42c16.48-28.95,22.1-31.83,29.72-29.76,0,0,19.62.99,17.78,28.01-.45,6.55-4.1,14.85-9.42,23.65-4.9,14.78-12.62,33.98-20.41,37.1-4.39,1.76-8,2.61-10.89,3-10.53,11.31-19.23,19.05-20.28,18.47-2.78-1.55-2.98-51.5,13.5-80.46Z" fill="#38bcd9"/><g fill="none" mask="url(#h)"><path d="m90.13,117.21s-6.61,11.29-7.6,8.74c-.99-2.54-12.35-13.25-15.41-6.05-3.06,7.2-12.8,10.94-12.4,6.23,1.11-13.22-8.12-.78-10.49,3.3-2.37,4.09-12.61,17.39-12.61,17.39l4.23-54.52,61.78,6.41-7.49,19.82" fill="#92c143"/><path d="m93.83,102.83s-1.45,4.36-3.1,8.58c-1.83,4.71-3.9,9.24-4.44,7.36-1.16-4.04-7.55-18.85-10.32-13.8-2.78,5.06-12.03,15.35-13.36,8.55-1.33-6.81-7.6-14-9.47-5.99-1.87,8.01-12.62,17.85-12.26,14.15.36-3.7-15.13-14.15-15.13-14.15l47.83-27.82,33.74,8.74" fill="#f3e600"/><path d="m101.2,84.86s-13.73,20.69-15.12,15.45c-1.38-5.24-4.09-15.15-6.95-10.69-2.86,4.46-17.9,15.02-17.62,10.03,1.09-19.56-16.54,4.64-20.87,4.05-4.33-.58,10.22-47.04,10.22-47.04l62.81,13.7-12.47,14.48h0Z" fill="#f9b03c"/><path d="m103.16,71.16s-4.14,7.19-5.54,10.88c-1.41,3.69-13.11-10.5-16.09-4.47-2.98,6.02-13.26,17.6-14.41,10.3-1.15-7.3-3.8-14-6.89-10.5-3.09,3.5-6.67,16.32-9.45,15.55-2.78-.77-7.14-13.8-7.14-13.8l28.51-43.34,31.03,35.37h-.01Z" fill="#e41b20"/></g><path d="m134.52,37.99c.08,1.91.24,4.35-.82,5.99-.97,1.16-2.73,1.56-4,2.46-.44.32-.85.76-.93,1.3.2-.5.62-.84,1.09-1.08,1.44-.78,3.14-.99,4.28-2.33,1.18-1.72.89-4.42.38-6.33Z" fill="#e41b20"/><path d="m137.51,39.92c.08,1.91.24,4.35-.82,5.99-.97,1.16-2.73,1.56-4,2.46-.44.32-.85.76-.93,1.3.2-.5.62-.84,1.09-1.08,1.44-.78,3.14-.99,4.28-2.33,1.18-1.72.89-4.42.38-6.33Z" fill="#e41b20"/><path d="m125.98,49.1c-1.61,1.67-3.25,3.39-5.26,4.57-.67.37-1.35.61-2.1.51-1.53-.13-3.08-.53-4.61-.88l-4.6-1.16c2.97,1.16,5.97,2.17,9.17,2.58.39.03.87.02,1.27-.12,2.67-.98,4.51-3.34,6.14-5.51h0Z" fill="#e41b20"/><path d="m128.76,53.53c-1.61,1.67-3.25,3.39-5.26,4.57-.67.37-1.35.61-2.1.51-1.53-.13-3.08-.53-4.61-.88l-4.6-1.16c2.97,1.16,5.97,2.17,9.17,2.58.39.03.87.02,1.27-.12,2.67-.98,4.51-3.34,6.14-5.51h0Z" fill="#e41b20"/></g></g></g></svg>