<?xml version="1.0" encoding="UTF-8"?><svg id="b" xmlns="http://www.w3.org/2000/svg" viewBox="0 0 272.85 169.34"><g id="c"><g id="d"><g id="e"><path d="M150.67,16.44h-6.98V169.34h6.98V16.44Z" fill="#c6d325" isolation="isolate" opacity=".8"/><path d="M157.65,16.44h-6.98V169.34h6.98V16.44Z" fill="#c6d325"/><path d="M150.67,16.44h6.98l-3.49-8.95-2.63-6.75c-.38-.98-1.33-.98-1.71,0l-2.63,6.75-3.49,8.95h6.98Z" fill="#feebb6"/><path d="M154.16,7.48l-2.63-6.75c-.38-.98-1.33-.98-1.71,0l-2.63,6.75" fill="#c6d325"/><path d="M121.87,16.44h-6.98V169.34h6.98V16.44Z" fill="#006c66" isolation="isolate" opacity=".8"/><path d="M128.84,16.44h-6.98V169.34h6.98V16.44Z" fill="#006c66"/><path d="M121.86,16.44h6.98l-3.49-8.95-2.63-6.75c-.38-.98-1.33-.98-1.71,0l-2.63,6.75-3.49,8.95h6.98Z" fill="#feebb6"/><path d="M125.35,7.48l-2.63-6.75c-.38-.98-1.33-.98-1.71,0l-2.63,6.75" fill="#006c66"/><path d="M64.58,16.44h-6.98V169.34h6.98V16.44Z" fill="#00b1ea" isolation="isolate" opacity=".8"/><path d="M71.56,16.44h-6.98V169.34h6.98V16.44Z" fill="#00b1ea"/><path d="M64.58,16.44h6.98l-3.49-8.95-2.63-6.75c-.38-.98-1.33-.98-1.71,0l-2.63,6.75-3.49,8.95h6.98Z" fill="#feebb6"/><path d="M68.07,7.48l-2.63-6.75c-.38-.98-1.33-.98-1.71,0l-2.63,6.75" fill="#00b1ea"/><path d="M93.07,16.44h-6.98V169.34h6.98V16.44Z" fill="#29485d" isolation="isolate" opacity=".8"/><path d="M100.04,16.44h-6.98V169.34h6.98V16.44Z" fill="#29485d"/><path d="M93.07,16.44h6.98l-3.49-8.95-2.63-6.75c-.38-.98-1.33-.98-1.71,0l-2.63,6.75-3.49,8.95h6.98Z" fill="#feebb6"/><path d="M96.55,7.48l-2.63-6.75c-.38-.98-1.33-.98-1.71,0l-2.63,6.75" fill="#29485d"/><path d="M265.87,16.44h-6.98V169.34h6.98V16.44Z" fill="#29485d" isolation="isolate" opacity=".8"/><path d="M272.85,16.44h-6.98V169.34h6.98V16.44Z" fill="#29485d"/><path d="M265.87,16.44h6.98l-3.49-8.95-2.63-6.75c-.38-.98-1.33-.98-1.71,0l-2.63,6.75-3.49,8.95h6.98Z" fill="#feebb6"/><path d="M269.36,7.48l-2.63-6.75c-.38-.98-1.33-.98-1.71,0l-2.63,6.75" fill="#29485d"/><path d="M6.99,16.44H0V169.34H6.99V16.44Z" fill="#ef7c00" isolation="isolate" opacity=".8"/><path d="M13.96,16.44H6.98V169.34h6.98V16.44Z" fill="#ef7c00"/><path d="M6.98,16.44h6.98l-3.49-8.95L7.83,.73c-.38-.98-1.33-.98-1.71,0L3.49,7.48,0,16.44H6.98Z" fill="#feebb6"/><path d="M10.47,7.48L7.83,.73c-.38-.98-1.33-.98-1.71,0L3.49,7.48" fill="#ef7c00"/><path d="M35.78,16.44h-6.98V169.34h6.98V16.44Z" fill="#a04a61" isolation="isolate" opacity=".8"/><path d="M42.76,16.44h-6.98V169.34h6.98V16.44Z" fill="#a04a61"/><path d="M35.78,16.44h6.98l-3.49-8.95-2.63-6.75c-.38-.98-1.33-.98-1.71,0l-2.63,6.75-3.49,8.95h6.98Z" fill="#feebb6"/><path d="M39.27,7.48l-2.63-6.75c-.38-.98-1.33-.98-1.71,0l-2.63,6.75" fill="#a04a61"/><path d="M237.07,16.44h-6.98V169.34h6.98V16.44Z" fill="#00b1ea" isolation="isolate" opacity=".8"/><path d="M244.05,16.44h-6.98V169.34h6.98V16.44Z" fill="#00b1ea"/><path d="M237.07,16.44h6.98l-3.49-8.95-2.63-6.75c-.38-.98-1.33-.98-1.71,0l-2.63,6.75-3.49,8.95h6.98Z" fill="#feebb6"/><path d="M240.56,7.48l-2.63-6.75c-.38-.98-1.33-.98-1.71,0l-2.63,6.75" fill="#00b1ea"/><path d="M179.47,16.44h-6.98V169.34h6.98V16.44Z" fill="#ef7c00" isolation="isolate" opacity=".8"/><path d="M186.45,16.44h-6.98V169.34h6.98V16.44Z" fill="#ef7c00"/><path d="M179.47,16.44h6.98l-3.49-8.95-2.63-6.75c-.38-.98-1.33-.98-1.71,0l-2.63,6.75-3.49,8.95h6.98Z" fill="#feebb6"/><path d="M182.96,7.48l-2.63-6.75c-.38-.98-1.33-.98-1.71,0l-2.63,6.75" fill="#ef7c00"/><path d="M208.27,16.44h-6.98V169.34h6.98V16.44Z" fill="#a04a61" isolation="isolate" opacity=".8"/><path d="M215.24,16.44h-6.98V169.34h6.98V16.44Z" fill="#a04a61"/><path d="M208.27,16.44h6.98l-3.49-8.95-2.63-6.75c-.38-.98-1.33-.98-1.71,0l-2.63,6.75-3.49,8.95h6.98Z" fill="#feebb6"/><path d="M211.76,7.48l-2.63-6.75c-.38-.98-1.33-.98-1.71,0l-2.63,6.75" fill="#a04a61"/></g></g></g></svg>