<?xml version="1.0" encoding="UTF-8"?><svg id="b" xmlns="http://www.w3.org/2000/svg" viewBox="0 0 243.69 146.29"><g id="c"><g id="d"><path d="m28.04,18.87c.98.48.68,8.13.68,8.13l-.65,7.91s-.34,3.68.37,4.69c.43.61,4.4.87,4.4.87,0,0,2.11.08,2.89-.45.87-.58.45-2.12.68-3.37.25-1.28.4-6,.34-7.31-.06-1.43-.03-3.88-.03-5.06,0-1.68,0-5.57-.08-6.7-.08-1.12.15-3.88-.67-4.81-2.46-2.84-14.73-2.87-14.73-2.87,0,0-7,.48-10.21.84-3.22.36-4.19,2-5.79,3.53-1.16,1.1-4.22,5.44-4.95,6.86-.46.9-.47,2.45.59,3.97.83,1.2,3.26,1.51,4.3,1.33,3.11-.52,7.82-8.53,7.82-8.53"/><path d="m28.04,18.87c.98.48.68,8.13.68,8.13l-.65,7.91s-.34,3.68.37,4.69c.43.61,4.4.87,4.4.87,0,0,2.11.08,2.89-.45.87-.58.45-2.12.68-3.37.25-1.28.4-6,.34-7.31-.06-1.43-.03-3.88-.03-5.06,0-1.68,0-5.57-.08-6.7-.08-1.12.15-3.88-.67-4.81-2.46-2.84-14.73-2.87-14.73-2.87,0,0-7,.48-10.21.84-3.22.36-4.19,2-5.79,3.53-1.16,1.1-4.22,5.44-4.95,6.86-.46.9-.47,2.45.59,3.97.83,1.2,3.26,1.51,4.3,1.33,3.11-.52,7.82-8.53,7.82-8.53"/><path d="m215.12,22.21c-.99.48-.69,8.13-.69,8.13l.66,7.91s.35,3.68-.38,4.69c-.44.61-4.48.87-4.48.87,0,0-2.14.08-2.95-.45-.88-.58-.45-2.12-.69-3.37-.25-1.28-.41-6-.35-7.31.06-1.43.03-3.88.03-5.06,0-1.68,0-5.57.09-6.7.08-1.12-.15-3.88.68-4.81,2.51-2.84,15.01-2.87,15.01-2.87,0,0,7.12.48,10.4.84,3.27.36,4.27,2,5.9,3.53,1.18,1.1,4.3,5.44,5.04,6.86.47.9.47,2.45-.6,3.97-.85,1.2-3.32,1.5-4.38,1.33-3.17-.52-7.96-8.53-7.96-8.53"/><path d="m206.87,13.65C170.95-9.39,35.05,1.3,36.14,12.53c1.4,14.36-.98,30.33-.98,41.8,0,63.07-1.13,5.92,1.23,68.77.23,6.01,28.59,14.48,33.25,15.5,11.62,2.54,31.95,6.61,39.63,6.92,9.83.38,27.22,1.09,34.8.64,11.16-.66,29.78-2.33,40.07-6.72,6.89-2.94,22.72-12.05,22.72-19.55" fill="gray"/><path d="m41.57,82.47c0-19.98,1.2-42,3.88-42s.32,26.22.32,46.2c0,8.22-2.55,24.83,6.03,33.55,12.28,12.46,50.12,18.12,48.55,18.12-1.67,0-40.88-2.13-53.57-15.63-7.62-8.1-5.21-32.75-5.21-40.24Z" fill="#a3a3a3"/><path d="m63.21,114.12c.71,0,1.29-16.19,1.29-36.17s-.58-36.17-1.29-36.17-1.29,16.19-1.29,36.17.58,36.17,1.29,36.17Z" fill="#a3a3a3"/><path d="m54.81,86.13c1.07,0,1.94-16.19,1.94-36.17s-.87-36.17-1.94-36.17-1.94,16.19-1.94,36.17.87,36.17,1.94,36.17Z" fill="#a3a3a3"/></g></g></svg>