<?xml version="1.0" encoding="UTF-8"?><svg id="b" xmlns="http://www.w3.org/2000/svg" viewBox="0 0 69.06 60.53"><g id="c"><g id="d"><g id="e"><path d="M60.14,39.03c.55,0,1.56-.02,2.19-.05,.65-.03,1.37-.14,1.63-.26,.26-.12,.79-.43,1.18-.73,.39-.28,.99-.78,1.34-1.09,.34-.31,.94-.73,1.34-.94,.39-.19,.82-.57,.98-.83,.14-.26,.26-.76,.26-1.15s-.12-1.03-.26-1.46-.46-1.27-.74-1.88l-.09-.21c-.26-.61-.63-1.6-.82-2.22-.19-.64-.5-1.6-.67-2.14-.17-.54-.55-1.46-.84-2.05l-.07-.16c-.29-.59-.82-1.41-1.18-1.84-.36-.43-1.11-1.06-1.68-1.39l-.74-.45c-.57-.33-1.42-.8-1.94-1.03-.51-.23-1.35-.63-1.9-.89-.53-.26-1.34-.73-1.78-1.04-.45-.31-.91-1.09-1.03-1.74l-.51-2.85c-.12-.64-.41-1.67-.67-2.28l-.43-1.02c-.26-.61-.65-1.6-.87-2.21l-.38-.99c-.24-.61-.7-1.56-1.03-2.14l-.33-.56c-.33-.56-.92-1.42-1.32-1.91-.39-.49-.87-.99-1.08-1.15-.21-.14-.57-.31-.82-.36-.26-.05-.62-.03-.82,.05-.19,.09-.43,.54-.51,.99-.09,.45-.12,1.36-.09,2.02l.05,.83c.03,.66,.15,1.72,.26,2.36l.14,.96c.1,.64-.14,.85-.53,.45s-1.15-1.04-1.66-1.42l-.05-.03c-.51-.38-1.39-.96-1.92-1.29-.53-.31-1.3-.71-1.68-.89-.39-.17-.86-.3-1.03-.26-.17,.03-.24,.54-.15,1.15,.09,.59,.33,1.6,.55,2.21l.12,.35c.22,.63,.72,1.55,1.1,2.07l.43,.59c.39,.52,1.01,1.39,1.37,1.93l.63,.94c.36,.54,.92,1.44,1.27,2.02l.33,.56c.33,.56,.7,1.23,.8,1.49,.12,.26,.21,.63,.21,.83s-.53,.35-1.18,.31h-.12c-.65-.03-1.7-.17-2.31-.33l-1.18-.28c-.63-.16-1.64-.42-2.28-.61l-3.37-.99c-.62-.19-1.64-.47-2.26-.63h-.07c-.63-.19-1.66-.38-2.29-.43l-2.77-.28c-.63-.07-1.7-.1-2.35-.07h-.51c-.65,.03-1.7,.16-2.33,.26l-.65,.12c-.63,.1-1.64,.4-2.24,.63l-1.8,.69c-.6,.23-1.56,.68-2.12,.99l-1.71,.94c-.57,.31-1.44,.9-1.93,1.32l-1.78,1.49c-.5,.42-1.3,1.13-1.76,1.56l-1.15,1.08c-.48,.45-1.23,1.2-1.68,1.67l-.72,.76c-.45,.47-1.06,1.34-1.37,1.91l-.62,1.13c-.31,.57-.67,1.56-.79,2.21l-.15,.78c-.12,.64-.29,1.7-.34,2.35l-.1,1.06c-.05,.64-.09,1.72-.07,2.38l.12,2.92c.02,.66,.17,1.7,.33,2.35l.48,2.03c.15,.64,.43,1.67,.63,2.29,.19,.64,.43,1.62,.51,2.19,.1,.71-.05,1.03-.05,1.46,0,1.55,1.16,2.78,1.7,3.34,2.11,2.21,5.19,2.43,5.63,2.47,.31,.02,1.01-.16,1.88,.21,.55,.23,1.51,.45,2.14,.5l1.95,.14c.63,.05,1.7,.1,2.35,.14l2.14,.1c.65,.03,1.7,.05,2.35,.05h.1c.65,0,1.7,.1,2.33,.23l.87,.17c.63,.12,1.66,.35,2.29,.5l2.33,.57c.63,.16,1.66,.36,2.29,.47l.34,.05c.63,.1,1.7,.17,2.33,.17h.31c.65,0,1.49-.26,1.88-.57,.39-.31,.67-.8,.62-1.09-.05-.28-.39-.8-.77-1.15-.36-.35-.63-.82-.62-1.04,.03-.23,.33-.45,.67-.52,.34-.05,1.11-.19,1.73-.31,.62-.12,1.44,.05,1.85,.36,.39,.31,1.18,.8,1.75,1.09,.57,.28,1.54,.57,2.19,.63l.92,.09c.65,.07,1.7,.07,2.35,.03l2.36-.16c.63-.03,1.42-.3,1.73-.54,.31-.26,.45-.66,.31-.89-.14-.23-.55-.63-.92-.89-.36-.26-1.01-.61-1.44-.78-.43-.17-1.3-.31-1.95-.31h-.21c-.65,0-1.46-.12-1.78-.26-.34-.14-.24-.61,.21-1.04,.45-.43,1.2-1.16,1.64-1.62l1.3-1.32c.46-.47,1.16-1.27,1.56-1.77l1.71-2.17c.39-.52,1.03-1.37,1.39-1.93l.53-.82c.36-.54,2.55-4.31,3.1-4.31Z" fill="#777"/><path d="M43.7,7.88c.87-.5,3.29,1.89,4.73,4.08,1.99,3.01,2.77,6.55,2.28,6.81-.36,.17-1.66-.73-1.78-1.72-.03-.3,.02-.64-.22-.96-.22-.3-.58-.35-.72-.38-.7-.17-1.16-.87-1.95-1.98-2.24-3.2-2.76-3.61-2.71-4.71,0-.38,.03-.94,.38-1.13v-.02Z" fill="#f89fa3"/><path d="M50.28,5.43c1.03,2.15,1.52,3.23,1.58,3.35,.74,1.95,1.75,5.51,.98,5.92-.33,.17-.91-.23-1.2-.59-.51-.63-.26-1.22-.48-2.15-.26-1.02-.65-.71-1.68-2.54-.62-1.09-.92-2.08-1.11-3.07-.03-.14-.03-.28-.05-.45-.09-1.23,.17-2.69,.58-2.74,.27-.03,.53,.49,1.39,2.28Z" fill="#f89fa3"/><path d="M9.46,55.99c.44-1.43-1.2-3.22-3.67-4-2.47-.78-4.82-.25-5.26,1.18-.44,1.43,1.2,3.22,3.67,4,2.47,.78,4.82,.25,5.26-1.18Z" stroke="#000" stroke-linecap="round" stroke-miterlimit="10" stroke-width=".93"/><path d="M52.13,55.53c.15,0,.84-.02,1.46,.5,.5,.43,.63,.96,.69,1.15" fill="none" stroke="#000" stroke-linecap="round" stroke-miterlimit="10" stroke-width=".93"/><path d="M49.71,55.92c.26,.03,.72,.14,1.2,.49,.57,.4,.84,.92,.94,1.16" fill="none" stroke="#000" stroke-linecap="round" stroke-miterlimit="10" stroke-width=".93"/><path d="M38.1,57.45c.26,.12,.7,.36,1.11,.82,.39,.43,.58,.87,.69,1.15" fill="none" stroke="#000" stroke-linecap="round" stroke-miterlimit="10" stroke-width=".93"/><path d="M35.87,58.28c.22,.1,.58,.3,.92,.64,.41,.43,.6,.89,.69,1.15" fill="none" stroke="#000" stroke-linecap="round" stroke-miterlimit="10" stroke-width=".93"/><path d="M59.35,27.23c-.29,.17-1.32,.76-2.33,.36-1.01-.4-1.35-1.55-1.44-1.89,.29-.17,1.32-.76,2.33-.36,1.01,.4,1.35,1.55,1.44,1.89Z"/><path d="M67.62,36.09c-.09-.3-.21-.69-.34-1.2-.22-.89-.22-1.03-.15-1.15,.29-.54,1.73-.21,1.88-.16,.05,.26,.15,.96-.22,1.53-.21,.3-.53,.56-.65,.64-.19,.16-.38,.26-.51,.33Z" fill="#f89fa3"/><path d="M65.19,37.55c-.36-.02-1.18-.12-2-.69-.72-.5-1.08-1.11-1.23-1.44" fill="none" stroke="#000" stroke-linecap="round" stroke-miterlimit="10" stroke-width="1.19"/><path d="M38.82,55.64s-.03-.14-.09-.17c-.05-.03-.1-.07-.14-.09l-.14-.1c-.1-.09-.19-.17-.27-.26-.17-.17-.34-.33-.51-.5-.17-.17-.36-.35-.55-.5-.19-.16-.38-.33-.58-.49l-.14-.1-.21-.16s-.17-.1-.26-.14c-.09-.05-.15-.09-.24-.1-.17-.09-.36-.16-.53-.21-.26-.1-.5-.21-.74-.3-.31-.12-.62-.24-.92-.36-.21-.09-.41-.16-.62-.24-.09-.03-.19-.07-.29-.12-.14-.05-.26-.09-.39-.14-.07-.02-.14-.03-.21-.05-.14-.03-.26-.07-.38-.09-.12-.02-.24-.02-.36-.03-.26-.03-.51-.07-.77-.1-.24-.02-.5-.03-.74-.05h-1.06c-.15,0-.33,.02-.48,.03-.09,0-.15,0-.24,.02h-.19s-.09-.03-.14-.03c-.1,0-.21,.12-.19,.24,0,.05,.03,.12,.09,.16,.02,.02,.03,.03,.07,.05,.03,0,.07,.02,.12,.02h.41c.17-.02,.36-.03,.53-.05,.34-.03,.7-.03,1.04-.03,.31,0,.63,.03,.94,.07,.15,.02,.31,.05,.46,.07,.17,.03,.36,.05,.53,.09,.14,.03,.26,.09,.39,.14,.12,.05,.24,.1,.36,.14l.79,.33c.51,.21,1.01,.42,1.52,.64,.1,.03,.21,.09,.31,.12,.29,.12,.57,.23,.84,.38l.19,.16,.14,.1,.29,.24c.21,.16,.39,.31,.58,.49,.19,.16,.36,.35,.53,.5,.09,.09,.15,.16,.26,.24,.09,.09,.19,.17,.27,.26l.12,.1s.1,.07,.15,.1c.02,0,.03,.03,.07,.03,.05,0,.09,.03,.12,0,.07,0,.12-.03,.17-.09,.05-.05,.05-.12,.05-.19v-.02Z"/><path d="M18.71,35.07c.48,.1,6.83,1.63,9.06,7.73,1.52,4.17,.19,7.87-.19,8.83" fill="none" stroke="#000" stroke-linecap="round" stroke-miterlimit="10" stroke-width=".93"/><path d="M42.81,54.02c0-.24-.03-.5-.07-.75-.02-.26-.05-.52-.07-.78-.03-.49-.07-.97-.1-1.48-.03-.52-.07-1.03-.09-1.56,0-.49-.05-.97-.05-1.46v-1.29c.02-.45,.03-.9,.1-1.34,.07-.47,.12-.94,.19-1.41,.03-.24,.05-.49,.09-.73,.02-.24,.05-.47,.07-.69,.05-.45,.09-.9,.14-1.36,.02-.23,.03-.45,.07-.68,0-.21,.05-.42,.07-.61,.03-.24,.05-.49,.07-.73,.02-.26,.02-.52,.05-.76,.02-.21-.05-.43-.17-.49-.12-.05-.24,.07-.27,.3-.03,.24-.07,.49-.09,.73-.02,.23-.05,.45-.07,.66-.03,.21-.05,.4-.09,.63-.02,.21-.05,.45-.07,.68-.03,.45-.09,.89-.14,1.34-.02,.24-.05,.47-.09,.71-.03,.24-.05,.49-.09,.73-.07,.45-.14,.92-.21,1.37-.03,.23-.07,.45-.07,.69-.02,.26-.03,.52-.05,.78-.05,.99-.02,2,.03,2.99,.02,.76,.09,1.49,.14,2.26,.03,.4,.05,.78,.09,1.18,.03,.36,.07,.73,.09,1.09,0,.14,.03,.28,.1,.38,.07,.09,.14,.16,.22,.16,.15,0,.31-.26,.29-.56l-.03-.02Z"/></g></g></g></svg>