<?xml version="1.0" encoding="UTF-8" standalone="no"?>
<!-- Created with Keyshape -->
<svg xmlns="http://www.w3.org/2000/svg" shape-rendering="geometricPrecision" text-rendering="geometricPrecision" viewBox="0 0 1920 1080" style="white-space: pre;">
    <g id="a">
        <rect width="1920" height="1080" fill="rgba(207,185,182,0.54)" stroke="none" transform="translate(960,540) translate(-960,-540)"/>
    </g>
    <g id="b" transform="translate(-799.975,-481.31) scale(5,1.9)">
        <g id="c" transform="translate(959.99,539.995) translate(-799.995,-861.123)">
            <path fill="#7FC6EA" d="M0,634.87C0,634.87,73.5,614.49,220.83,642.71C374.61,672.16,455.93,586.29,586.81,584.72C721.49,583.11,888.27,650.16,989.07,633.31C1064.3,620.73,1137.73,577.81,1244.11,579.43C1345.86,580.98,1416.46,641.32,1493.51,649.37C1538.57,654.08,1599.99,628.61,1599.99,628.61L1599.99,1142.86L0,1142.86L0,634.87Z" transform="translate(799.995,861.123) translate(-799.995,-861.123)"/>
        </g>
        <g id="d" transform="translate(-255.755,574.984) translate(-800,-896.112)">
            <path fill="#0C7FCB" d="M1600,713.24L1600,1142.86L0,1142.86L0,730.48C0,730.48,35.43,708.04,114.25,706.19C180.86,704.62,234.07,734.89,324.27,710.5C452.19,675.91,490.41,648.88,609.92,649.37C708.13,649.78,804.16,692.86,960.51,706.97C1102.19,719.75,1116.31,681.53,1212.96,669.35C1292.31,659.35,1339.46,708.4,1442.77,717.55C1542.56,726.39,1521.04,724.32,1600,713.24Z" transform="translate(800,896.112) translate(-800,-896.112)"/>
        </g>
        <g id="e" transform="translate(959.99,619.82) translate(-799.995,-940.948)">
            <path fill="#0A65AA" d="M0,806.65C0,806.65,34.72,813.87,153.21,805.03C257.11,797.28,277.83,764.9,384.23,743.38C477.1,724.6,560.63,771.62,689.35,788.48C754,796.95,817.76,775.42,892.05,762.23C1017.83,739.9,1041.23,816.16,1224.61,770.32C1292.19,753.42,1390.52,741.86,1478.09,772.12C1581.03,807.68,1599.99,799.46,1599.99,799.46L1599.99,1142.87L0,1142.87L0,806.65Z" transform="translate(799.995,940.948) translate(-799.995,-940.948)"/>
        </g>
        <g id="f" transform="translate(279.581,468.95) scale(0.34,0.894737) translate(-128.98,-122.357)">
            <g id="g" transform="translate(23.8835,64.1219) translate(-128.98,-122.357)">
                <g id="h" transform="translate(128.98,122.357) translate(-128.98,-122.357)">
                    <path d="M86.45,183.6L86.45,173.89L161.39,170.42L160.43,183.6L86.45,183.6Z" fill="#c6d325" transform="translate(123.92,177.01) translate(-123.92,-177.01)"/>
                    <path d="M65.3,183.7L64.19,32.77C64.59,32.49,65.22,32.13,66.07,31.9C67,31.65,67.79,31.68,68.28,31.74C70.08,63.2,71.31,95.65,71.94,129.03C72.29,147.57,72.42,165.8,72.34,183.7L65.3,183.7Z" fill="#ef7c00" transform="translate(68.2764,107.699) translate(-68.2764,-107.699)"/>
                    <path d="M160.43,183.6L157.82,0.43C158.64,0.33,159.85,0.29,161.26,0.61C162.93,0.98,164.18,1.7,164.91,2.21C166.19,62.68,167.46,123.14,168.74,183.61L160.43,183.61Z" fill="#ef7c00" transform="translate(163.28,91.984) translate(-163.28,-91.984)"/>
                    <path d="M105.63,187.09C108.35,187.09,110.55,184.84,110.55,182.07C110.55,179.3,108.35,177.05,105.63,177.05C102.91,177.05,100.71,179.3,100.71,182.07C100.71,184.84,102.91,187.09,105.63,187.09Z" fill="#29485d" transform="translate(105.63,182.07) translate(-105.63,-182.07)"/>
                    <path d="M128.36,187.09C131.08,187.09,133.28,184.84,133.28,182.07C133.28,179.3,131.08,177.05,128.36,177.05C125.64,177.05,123.44,179.3,123.44,182.07C123.44,184.84,125.64,187.09,128.36,187.09Z" fill="#29485d" transform="translate(128.36,182.07) translate(-128.36,-182.07)"/>
                    <path d="M151.08,187.09C153.8,187.09,156,184.84,156,182.07C156,179.3,153.8,177.05,151.08,177.05C148.36,177.05,146.16,179.3,146.16,182.07C146.16,184.84,148.36,187.09,151.08,187.09Z" fill="#29485d" transform="translate(151.08,182.07) translate(-151.08,-182.07)"/>
                    <path d="M15.25,183.6L231.71,183.6C224.73,195.17,209.48,216.63,182.2,230.92C127.18,259.77,72.59,233.59,67.25,230.92C39.05,216.81,22.85,195.4,15.25,183.6Z" fill="#7b493f" transform="translate(123.48,213.978) translate(-123.48,-213.978)"/>
                    <path d="M0,180.02L20.31,185.59C21.74,185.04,23.16,184.5,24.59,183.95C16.39,182.64,8.2,181.33,0,180.02Z" fill="#7b493f" transform="translate(12.295,182.805) translate(-12.295,-182.805)"/>
                    <path d="M257.96,171.66C248.26,176.25,238.55,180.83,228.85,185.42C226.22,184.81,223.58,184.2,220.95,183.6L257.96,171.67L257.96,171.67Z" fill="#7b493f" transform="translate(239.455,178.54) translate(-239.455,-178.54)"/>
                    <path d="M15.25,183.6L231.71,183.6C229.94,186.6,227.85,189.83,225.37,193.17C223.05,196.3,220.74,199.07,218.54,201.51C155.74,201.97,92.96,202.43,30.16,202.89C27.19,199.67,24.1,196.01,21.01,191.89C18.88,189.05,16.96,186.27,15.25,183.61Z" fill="#a16053" transform="translate(123.48,193.245) translate(-123.48,-193.245)"/>
                    <path d="M27.72,185.96C28.29,187.75,29.09,189.85,30.25,192.08C31.71,194.89,33.33,197.11,34.73,198.8" fill="none" stroke="#c6d325" stroke-linecap="round" stroke-miterlimit="10" stroke-width="2.57" transform="translate(31.225,192.38) translate(-31.225,-192.38)"/>
                    <path d="M37.3,185.96C37.6,187.47,38.03,189.14,38.65,190.93C39.79,194.17,41.22,196.8,42.52,198.8" fill="none" stroke="#c6d325" stroke-linecap="round" stroke-miterlimit="10" stroke-width="2.57" transform="translate(39.91,192.38) translate(-39.91,-192.38)"/>
                    <path d="M46.37,185.96C46.55,187.59,46.87,189.48,47.46,191.53C48.32,194.56,49.47,197.05,50.52,198.93" fill="none" stroke="#c6d325" stroke-linecap="round" stroke-miterlimit="10" stroke-width="2.57" transform="translate(48.445,192.445) translate(-48.445,-192.445)"/>
                    <path d="M55.98,185.96C56.22,187.67,56.57,189.54,57.07,191.53C57.79,194.4,58.68,196.92,59.58,199.07" fill="none" stroke="#c6d325" stroke-linecap="round" stroke-miterlimit="10" stroke-width="2.57" transform="translate(57.78,192.515) translate(-57.78,-192.515)"/>
                    <path d="M65.79,185.96C66.03,187.67,66.38,189.54,66.88,191.53C67.6,194.4,68.49,196.92,69.39,199.07" fill="none" stroke="#c6d325" stroke-linecap="round" stroke-miterlimit="10" stroke-width="2.57" transform="translate(67.59,192.515) translate(-67.59,-192.515)"/>
                    <path d="M75.64,185.96C75.86,188,76.16,190.16,76.55,192.41C77,194.97,77.52,197.38,78.08,199.61" fill="none" stroke="#c6d325" stroke-linecap="round" stroke-miterlimit="10" stroke-width="2.57" transform="translate(76.86,192.785) translate(-76.86,-192.785)"/>
                    <path d="M87.43,185.96C87.6,188.28,87.78,190.64,88,193.04C88.21,195.36,88.43,197.64,88.68,199.88" fill="none" stroke="#c6d325" stroke-linecap="round" stroke-miterlimit="10" stroke-width="2.57" transform="translate(88.055,192.92) translate(-88.055,-192.92)"/>
                    <path d="M221.1,185.42C220.43,187.22,219.58,189.21,218.48,191.3C217.04,194.05,215.51,196.36,214.09,198.26" fill="none" stroke="#c6d325" stroke-linecap="round" stroke-miterlimit="10" stroke-width="2.57" transform="translate(217.595,191.84) translate(-217.595,-191.84)"/>
                    <path d="M212.77,185.42C212.47,186.93,212.04,188.6,211.42,190.39C210.28,193.63,208.85,196.26,207.55,198.26" fill="none" stroke="#c6d325" stroke-linecap="round" stroke-miterlimit="10" stroke-width="2.57" transform="translate(210.16,191.84) translate(-210.16,-191.84)"/>
                    <path d="M204.06,185.42C203.88,187.05,203.56,188.94,202.98,190.99C202.12,194.02,200.97,196.51,199.92,198.39" fill="none" stroke="#c6d325" stroke-linecap="round" stroke-miterlimit="10" stroke-width="2.57" transform="translate(201.99,191.905) translate(-201.99,-191.905)"/>
                    <path d="M196.43,185.42C196.06,187.12,195.55,189,194.84,191C193.82,193.89,192.63,196.34,191.48,198.35" fill="none" stroke="#c6d325" stroke-linecap="round" stroke-miterlimit="10" stroke-width="2.57" transform="translate(193.955,191.885) translate(-193.955,-191.885)"/>
                    <path d="M178.24,185.42C178,187.13,177.65,189,177.15,190.99C176.43,193.86,175.54,196.38,174.64,198.53" fill="none" stroke="#c6d325" stroke-linecap="round" stroke-miterlimit="10" stroke-width="2.57" transform="translate(176.44,191.975) translate(-176.44,-191.975)"/>
                    <path d="M187.9,185.51C187.47,187.19,186.9,189.04,186.14,191C185.03,193.86,183.77,196.28,182.57,198.27" fill="none" stroke="#c6d325" stroke-linecap="round" stroke-miterlimit="10" stroke-width="2.57" transform="translate(185.235,191.89) translate(-185.235,-191.89)"/>
                    <path d="M169.36,185.42C169.14,187.46,168.84,189.62,168.45,191.87C168,194.43,167.48,196.84,166.92,199.07" fill="none" stroke="#c6d325" stroke-linecap="round" stroke-miterlimit="10" stroke-width="2.57" transform="translate(168.14,192.245) translate(-168.14,-192.245)"/>
                    <path d="M160.77,185.42C160.6,187.74,160.42,190.1,160.2,192.5C159.99,194.82,159.77,197.1,159.52,199.34" fill="none" stroke="#c6d325" stroke-linecap="round" stroke-miterlimit="10" stroke-width="2.57" transform="translate(160.145,192.38) translate(-160.145,-192.38)"/>
                    <path d="M97.04,185.96C97.21,188.28,97.39,190.64,97.61,193.04C97.82,195.36,98.04,197.64,98.29,199.88" fill="none" stroke="#c6d325" stroke-linecap="round" stroke-miterlimit="10" stroke-width="2.57" transform="translate(97.665,192.92) translate(-97.665,-192.92)"/>
                    <path d="M106.32,186.02C106.43,188.33,106.54,190.68,106.64,193.04C106.73,195.33,106.81,197.61,106.87,199.87" fill="none" stroke="#c6d325" stroke-linecap="round" stroke-miterlimit="10" stroke-width="2.57" transform="translate(106.595,192.945) translate(-106.595,-192.945)"/>
                    <path d="M113.39,186.02C113.51,188.33,113.61,190.68,113.71,193.04C113.8,195.33,113.88,197.61,113.94,199.87" fill="none" stroke="#c6d325" stroke-linecap="round" stroke-miterlimit="10" stroke-width="2.57" transform="translate(113.665,192.945) translate(-113.665,-192.945)"/>
                    <path d="M121.13,186.02C121.3,188.23,121.41,190.58,121.45,193.04C121.49,195.4,121.45,197.65,121.36,199.78" fill="none" stroke="#c6d325" stroke-linecap="round" stroke-miterlimit="10" stroke-width="2.57" transform="translate(121.298,192.9) translate(-121.298,-192.9)"/>
                    <path d="M128.61,186.02C128.78,188.23,128.89,190.58,128.93,193.04C128.97,195.4,128.93,197.65,128.84,199.78" fill="none" stroke="#c6d325" stroke-linecap="round" stroke-miterlimit="10" stroke-width="2.57" transform="translate(128.778,192.9) translate(-128.778,-192.9)"/>
                    <path d="M136.95,186.02C137.12,188.23,137.23,190.58,137.27,193.04C137.31,195.4,137.27,197.65,137.18,199.78" fill="none" stroke="#c6d325" stroke-linecap="round" stroke-miterlimit="10" stroke-width="2.57" transform="translate(137.118,192.9) translate(-137.118,-192.9)"/>
                    <path d="M144.61,186.02C144.84,188.08,144.98,190.44,144.93,193.04C144.88,195.46,144.66,197.65,144.38,199.57" fill="none" stroke="#c6d325" stroke-linecap="round" stroke-miterlimit="10" stroke-width="2.57" transform="translate(144.66,192.795) translate(-144.66,-192.795)"/>
                    <path d="M152.18,186.02C152.41,188.08,152.55,190.44,152.5,193.04C152.45,195.46,152.23,197.65,151.95,199.57" fill="none" stroke="#c6d325" stroke-linecap="round" stroke-miterlimit="10" stroke-width="2.57" transform="translate(152.23,192.795) translate(-152.23,-192.795)"/>
                    <path d="M59.69,45.65C60.54,43.58,61.53,41.4,62.69,39.14C63.52,37.52,64.36,36,65.2,34.59" fill="none" stroke="#ef7c00" stroke-miterlimit="10" stroke-width="2.57" transform="translate(62.445,40.12) translate(-62.445,-40.12)"/>
                    <path d="M66.19,40.86C66.91,42.43,68.03,44.45,69.77,46.51C71.22,48.25,72.69,49.52,73.92,50.44" fill="none" stroke="#ef7c00" stroke-miterlimit="10" stroke-width="2.57" transform="translate(70.055,45.65) translate(-70.055,-45.65)"/>
                    <path d="M67.25,176.33C66.32,174.89,64.92,173.05,62.92,171.25C61.24,169.75,59.6,168.69,58.26,167.97" fill="none" stroke="#ef7c00" stroke-miterlimit="10" stroke-width="2.57" transform="translate(62.755,172.15) translate(-62.755,-172.15)"/>
                    <path d="M69.75,175.64C70.68,174.2,72.08,172.36,74.08,170.56C75.76,169.06,77.4,168,78.74,167.28" fill="none" stroke="#ef7c00" stroke-miterlimit="10" stroke-width="2.57" transform="translate(74.245,171.46) translate(-74.245,-171.46)"/>
                    <path d="M164.24,158.49C165.17,157.05,166.57,155.21,168.57,153.41C170.25,151.91,171.89,150.85,173.23,150.13" fill="none" stroke="#ef7c00" stroke-miterlimit="10" stroke-width="2.57" transform="translate(168.735,154.31) translate(-168.735,-154.31)"/>
                    <path d="M233.88,147.08C235.58,147.01,237.85,147.08,240.45,147.7C242.63,148.21,244.42,148.95,245.78,149.64" fill="none" stroke="#ef7c00" stroke-miterlimit="10" stroke-width="2.57" transform="translate(239.83,148.349) translate(-239.83,-148.349)"/>
                    <path d="M163.89,10.06L169.16,20.64" fill="none" stroke="#ef7c00" stroke-miterlimit="10" stroke-width="2.57" transform="translate(166.525,15.35) translate(-166.525,-15.35)"/>
                    <path d="M111.41,19.75C122.33,18.23,136.09,14.7,150.05,6.45C153.01,4.71,155.74,2.88,158.27,1.04" fill="none" stroke="#ef7c00" stroke-miterlimit="10" stroke-width="2.57" transform="translate(134.84,10.395) translate(-134.84,-10.395)"/>
                    <path d="M164.47,2.67C195.63,59,226.8,115.33,257.96,171.66" fill="none" stroke="#ef7c00" stroke-miterlimit="10" stroke-width="2.57" transform="translate(211.215,87.165) translate(-211.215,-87.165)"/>
                    <path d="M168.74,19.17L171.64,151.06C173.43,151.62,176.13,152.32,179.46,152.62C190.89,153.66,193.84,148.54,205.32,147.9C214.05,147.42,215.04,150.22,226.22,149.64C231.73,149.35,236.24,148.42,239.24,147.66C215.74,104.82,192.24,61.99,168.74,19.15L168.74,19.15Z" fill="#29485d" transform="translate(203.99,85.9545) translate(-203.99,-85.9545)"/>
                    <path d="M0,180.02L60.13,43.67L60.13,169.52C52.31,169.49,43.32,169.99,33.44,171.48C20.35,173.47,9.1,176.7,0,180L0,180Z" fill="#29485d" transform="translate(30.065,111.845) translate(-30.065,-111.845)"/>
                    <path d="M71.28,48.34L77.5,167.98L141.77,165.86C133.82,138.61,126.41,108.64,120.34,76.13C116.64,56.35,113.74,37.33,111.5,19.17C98.09,28.89,84.68,38.62,71.28,48.34L71.28,48.34Z" fill="#29485d" transform="translate(106.525,93.575) translate(-106.525,-93.575)"/>
                </g>
            </g>
        </g>
        <g id="i" transform="translate(498.634,468.95) scale(0.34,0.894737) translate(-128.98,-122.357)">
            <g id="j" transform="translate(23.8835,107.313) rotate(4) translate(-128.98,-122.357)">
                <g id="k" transform="translate(128.98,122.357) translate(-128.98,-122.357)">
                    <path d="M86.45,183.6L86.45,173.89L161.39,170.42L160.43,183.6L86.45,183.6Z" fill="#c6d325" transform="translate(123.92,177.01) translate(-123.92,-177.01)"/>
                    <path d="M65.3,183.7L64.19,32.77C64.59,32.49,65.22,32.13,66.07,31.9C67,31.65,67.79,31.68,68.28,31.74C70.08,63.2,71.31,95.65,71.94,129.03C72.29,147.57,72.42,165.8,72.34,183.7L65.3,183.7Z" fill="#ef7c00" transform="translate(68.2764,107.699) translate(-68.2764,-107.699)"/>
                    <path d="M160.43,183.6L157.82,0.43C158.64,0.33,159.85,0.29,161.26,0.61C162.93,0.98,164.18,1.7,164.91,2.21C166.19,62.68,167.46,123.14,168.74,183.61L160.43,183.61Z" fill="#ef7c00" transform="translate(163.28,91.984) translate(-163.28,-91.984)"/>
                    <path d="M105.63,187.09C108.35,187.09,110.55,184.84,110.55,182.07C110.55,179.3,108.35,177.05,105.63,177.05C102.91,177.05,100.71,179.3,100.71,182.07C100.71,184.84,102.91,187.09,105.63,187.09Z" fill="#29485d" transform="translate(105.63,182.07) translate(-105.63,-182.07)"/>
                    <path d="M128.36,187.09C131.08,187.09,133.28,184.84,133.28,182.07C133.28,179.3,131.08,177.05,128.36,177.05C125.64,177.05,123.44,179.3,123.44,182.07C123.44,184.84,125.64,187.09,128.36,187.09Z" fill="#29485d" transform="translate(128.36,182.07) translate(-128.36,-182.07)"/>
                    <path d="M151.08,187.09C153.8,187.09,156,184.84,156,182.07C156,179.3,153.8,177.05,151.08,177.05C148.36,177.05,146.16,179.3,146.16,182.07C146.16,184.84,148.36,187.09,151.08,187.09Z" fill="#29485d" transform="translate(151.08,182.07) translate(-151.08,-182.07)"/>
                    <path d="M15.25,183.6L231.71,183.6C224.73,195.17,209.48,216.63,182.2,230.92C127.18,259.77,72.59,233.59,67.25,230.92C39.05,216.81,22.85,195.4,15.25,183.6Z" fill="#7b493f" transform="translate(123.48,213.978) translate(-123.48,-213.978)"/>
                    <path d="M0,180.02L20.31,185.59C21.74,185.04,23.16,184.5,24.59,183.95C16.39,182.64,8.2,181.33,0,180.02Z" fill="#7b493f" transform="translate(12.295,182.805) translate(-12.295,-182.805)"/>
                    <path d="M257.96,171.66C248.26,176.25,238.55,180.83,228.85,185.42C226.22,184.81,223.58,184.2,220.95,183.6L257.96,171.67L257.96,171.67Z" fill="#7b493f" transform="translate(239.455,178.54) translate(-239.455,-178.54)"/>
                    <path d="M15.25,183.6L231.71,183.6C229.94,186.6,227.85,189.83,225.37,193.17C223.05,196.3,220.74,199.07,218.54,201.51C155.74,201.97,92.96,202.43,30.16,202.89C27.19,199.67,24.1,196.01,21.01,191.89C18.88,189.05,16.96,186.27,15.25,183.61Z" fill="#a16053" transform="translate(123.48,193.245) translate(-123.48,-193.245)"/>
                    <path d="M27.72,185.96C28.29,187.75,29.09,189.85,30.25,192.08C31.71,194.89,33.33,197.11,34.73,198.8" fill="none" stroke="#c6d325" stroke-linecap="round" stroke-miterlimit="10" stroke-width="2.57" transform="translate(31.225,192.38) translate(-31.225,-192.38)"/>
                    <path d="M37.3,185.96C37.6,187.47,38.03,189.14,38.65,190.93C39.79,194.17,41.22,196.8,42.52,198.8" fill="none" stroke="#c6d325" stroke-linecap="round" stroke-miterlimit="10" stroke-width="2.57" transform="translate(39.91,192.38) translate(-39.91,-192.38)"/>
                    <path d="M46.37,185.96C46.55,187.59,46.87,189.48,47.46,191.53C48.32,194.56,49.47,197.05,50.52,198.93" fill="none" stroke="#c6d325" stroke-linecap="round" stroke-miterlimit="10" stroke-width="2.57" transform="translate(48.445,192.445) translate(-48.445,-192.445)"/>
                    <path d="M55.98,185.96C56.22,187.67,56.57,189.54,57.07,191.53C57.79,194.4,58.68,196.92,59.58,199.07" fill="none" stroke="#c6d325" stroke-linecap="round" stroke-miterlimit="10" stroke-width="2.57" transform="translate(57.78,192.515) translate(-57.78,-192.515)"/>
                    <path d="M65.79,185.96C66.03,187.67,66.38,189.54,66.88,191.53C67.6,194.4,68.49,196.92,69.39,199.07" fill="none" stroke="#c6d325" stroke-linecap="round" stroke-miterlimit="10" stroke-width="2.57" transform="translate(67.59,192.515) translate(-67.59,-192.515)"/>
                    <path d="M75.64,185.96C75.86,188,76.16,190.16,76.55,192.41C77,194.97,77.52,197.38,78.08,199.61" fill="none" stroke="#c6d325" stroke-linecap="round" stroke-miterlimit="10" stroke-width="2.57" transform="translate(76.86,192.785) translate(-76.86,-192.785)"/>
                    <path d="M87.43,185.96C87.6,188.28,87.78,190.64,88,193.04C88.21,195.36,88.43,197.64,88.68,199.88" fill="none" stroke="#c6d325" stroke-linecap="round" stroke-miterlimit="10" stroke-width="2.57" transform="translate(88.055,192.92) translate(-88.055,-192.92)"/>
                    <path d="M221.1,185.42C220.43,187.22,219.58,189.21,218.48,191.3C217.04,194.05,215.51,196.36,214.09,198.26" fill="none" stroke="#c6d325" stroke-linecap="round" stroke-miterlimit="10" stroke-width="2.57" transform="translate(217.595,191.84) translate(-217.595,-191.84)"/>
                    <path d="M212.77,185.42C212.47,186.93,212.04,188.6,211.42,190.39C210.28,193.63,208.85,196.26,207.55,198.26" fill="none" stroke="#c6d325" stroke-linecap="round" stroke-miterlimit="10" stroke-width="2.57" transform="translate(210.16,191.84) translate(-210.16,-191.84)"/>
                    <path d="M204.06,185.42C203.88,187.05,203.56,188.94,202.98,190.99C202.12,194.02,200.97,196.51,199.92,198.39" fill="none" stroke="#c6d325" stroke-linecap="round" stroke-miterlimit="10" stroke-width="2.57" transform="translate(201.99,191.905) translate(-201.99,-191.905)"/>
                    <path d="M196.43,185.42C196.06,187.12,195.55,189,194.84,191C193.82,193.89,192.63,196.34,191.48,198.35" fill="none" stroke="#c6d325" stroke-linecap="round" stroke-miterlimit="10" stroke-width="2.57" transform="translate(193.955,191.885) translate(-193.955,-191.885)"/>
                    <path d="M178.24,185.42C178,187.13,177.65,189,177.15,190.99C176.43,193.86,175.54,196.38,174.64,198.53" fill="none" stroke="#c6d325" stroke-linecap="round" stroke-miterlimit="10" stroke-width="2.57" transform="translate(176.44,191.975) translate(-176.44,-191.975)"/>
                    <path d="M187.9,185.51C187.47,187.19,186.9,189.04,186.14,191C185.03,193.86,183.77,196.28,182.57,198.27" fill="none" stroke="#c6d325" stroke-linecap="round" stroke-miterlimit="10" stroke-width="2.57" transform="translate(185.235,191.89) translate(-185.235,-191.89)"/>
                    <path d="M169.36,185.42C169.14,187.46,168.84,189.62,168.45,191.87C168,194.43,167.48,196.84,166.92,199.07" fill="none" stroke="#c6d325" stroke-linecap="round" stroke-miterlimit="10" stroke-width="2.57" transform="translate(168.14,192.245) translate(-168.14,-192.245)"/>
                    <path d="M160.77,185.42C160.6,187.74,160.42,190.1,160.2,192.5C159.99,194.82,159.77,197.1,159.52,199.34" fill="none" stroke="#c6d325" stroke-linecap="round" stroke-miterlimit="10" stroke-width="2.57" transform="translate(160.145,192.38) translate(-160.145,-192.38)"/>
                    <path d="M97.04,185.96C97.21,188.28,97.39,190.64,97.61,193.04C97.82,195.36,98.04,197.64,98.29,199.88" fill="none" stroke="#c6d325" stroke-linecap="round" stroke-miterlimit="10" stroke-width="2.57" transform="translate(97.665,192.92) translate(-97.665,-192.92)"/>
                    <path d="M106.32,186.02C106.43,188.33,106.54,190.68,106.64,193.04C106.73,195.33,106.81,197.61,106.87,199.87" fill="none" stroke="#c6d325" stroke-linecap="round" stroke-miterlimit="10" stroke-width="2.57" transform="translate(106.595,192.945) translate(-106.595,-192.945)"/>
                    <path d="M113.39,186.02C113.51,188.33,113.61,190.68,113.71,193.04C113.8,195.33,113.88,197.61,113.94,199.87" fill="none" stroke="#c6d325" stroke-linecap="round" stroke-miterlimit="10" stroke-width="2.57" transform="translate(113.665,192.945) translate(-113.665,-192.945)"/>
                    <path d="M121.13,186.02C121.3,188.23,121.41,190.58,121.45,193.04C121.49,195.4,121.45,197.65,121.36,199.78" fill="none" stroke="#c6d325" stroke-linecap="round" stroke-miterlimit="10" stroke-width="2.57" transform="translate(121.298,192.9) translate(-121.298,-192.9)"/>
                    <path d="M128.61,186.02C128.78,188.23,128.89,190.58,128.93,193.04C128.97,195.4,128.93,197.65,128.84,199.78" fill="none" stroke="#c6d325" stroke-linecap="round" stroke-miterlimit="10" stroke-width="2.57" transform="translate(128.778,192.9) translate(-128.778,-192.9)"/>
                    <path d="M136.95,186.02C137.12,188.23,137.23,190.58,137.27,193.04C137.31,195.4,137.27,197.65,137.18,199.78" fill="none" stroke="#c6d325" stroke-linecap="round" stroke-miterlimit="10" stroke-width="2.57" transform="translate(137.118,192.9) translate(-137.118,-192.9)"/>
                    <path d="M144.61,186.02C144.84,188.08,144.98,190.44,144.93,193.04C144.88,195.46,144.66,197.65,144.38,199.57" fill="none" stroke="#c6d325" stroke-linecap="round" stroke-miterlimit="10" stroke-width="2.57" transform="translate(144.66,192.795) translate(-144.66,-192.795)"/>
                    <path d="M152.18,186.02C152.41,188.08,152.55,190.44,152.5,193.04C152.45,195.46,152.23,197.65,151.95,199.57" fill="none" stroke="#c6d325" stroke-linecap="round" stroke-miterlimit="10" stroke-width="2.57" transform="translate(152.23,192.795) translate(-152.23,-192.795)"/>
                    <path d="M59.69,45.65C60.54,43.58,61.53,41.4,62.69,39.14C63.52,37.52,64.36,36,65.2,34.59" fill="none" stroke="#ef7c00" stroke-miterlimit="10" stroke-width="2.57" transform="translate(62.445,40.12) translate(-62.445,-40.12)"/>
                    <path d="M66.19,40.86C66.91,42.43,68.03,44.45,69.77,46.51C71.22,48.25,72.69,49.52,73.92,50.44" fill="none" stroke="#ef7c00" stroke-miterlimit="10" stroke-width="2.57" transform="translate(70.055,45.65) translate(-70.055,-45.65)"/>
                    <path d="M67.25,176.33C66.32,174.89,64.92,173.05,62.92,171.25C61.24,169.75,59.6,168.69,58.26,167.97" fill="none" stroke="#ef7c00" stroke-miterlimit="10" stroke-width="2.57" transform="translate(62.755,172.15) translate(-62.755,-172.15)"/>
                    <path d="M69.75,175.64C70.68,174.2,72.08,172.36,74.08,170.56C75.76,169.06,77.4,168,78.74,167.28" fill="none" stroke="#ef7c00" stroke-miterlimit="10" stroke-width="2.57" transform="translate(74.245,171.46) translate(-74.245,-171.46)"/>
                    <path d="M164.24,158.49C165.17,157.05,166.57,155.21,168.57,153.41C170.25,151.91,171.89,150.85,173.23,150.13" fill="none" stroke="#ef7c00" stroke-miterlimit="10" stroke-width="2.57" transform="translate(168.735,154.31) translate(-168.735,-154.31)"/>
                    <path d="M233.88,147.08C235.58,147.01,237.85,147.08,240.45,147.7C242.63,148.21,244.42,148.95,245.78,149.64" fill="none" stroke="#ef7c00" stroke-miterlimit="10" stroke-width="2.57" transform="translate(239.83,148.349) translate(-239.83,-148.349)"/>
                    <path d="M163.89,10.06L169.16,20.64" fill="none" stroke="#ef7c00" stroke-miterlimit="10" stroke-width="2.57" transform="translate(166.525,15.35) translate(-166.525,-15.35)"/>
                    <path d="M111.41,19.75C122.33,18.23,136.09,14.7,150.05,6.45C153.01,4.71,155.74,2.88,158.27,1.04" fill="none" stroke="#ef7c00" stroke-miterlimit="10" stroke-width="2.57" transform="translate(134.84,10.395) translate(-134.84,-10.395)"/>
                    <path d="M164.47,2.67C195.63,59,226.8,115.33,257.96,171.66" fill="none" stroke="#ef7c00" stroke-miterlimit="10" stroke-width="2.57" transform="translate(211.215,87.165) translate(-211.215,-87.165)"/>
                    <path d="M168.74,19.17L171.64,151.06C173.43,151.62,176.13,152.32,179.46,152.62C190.89,153.66,193.84,148.54,205.32,147.9C214.05,147.42,215.04,150.22,226.22,149.64C231.73,149.35,236.24,148.42,239.24,147.66C215.74,104.82,192.24,61.99,168.74,19.15L168.74,19.15Z" fill="#29485d" transform="translate(203.99,85.9545) translate(-203.99,-85.9545)"/>
                    <path d="M0,180.02L60.13,43.67L60.13,169.52C52.31,169.49,43.32,169.99,33.44,171.48C20.35,173.47,9.1,176.7,0,180L0,180Z" fill="#29485d" transform="translate(30.065,111.845) translate(-30.065,-111.845)"/>
                    <path d="M71.28,48.34L77.5,167.98L141.77,165.86C133.82,138.61,126.41,108.64,120.34,76.13C116.64,56.35,113.74,37.33,111.5,19.17C98.09,28.89,84.68,38.62,71.28,48.34L71.28,48.34Z" fill="#29485d" transform="translate(106.525,93.575) translate(-106.525,-93.575)"/>
                </g>
            </g>
        </g>
        <g id="l" transform="translate(-255.766,659.794) translate(-800,-980.902)">
            <path fill="#094593" d="M0,892.68C0,892.68,116.6,839.96,241.99,861.12C411.28,889.69,521.76,779.85,789.78,866.84C925.25,910.81,967.28,896.11,1042.25,867.2C1213.9,801.01,1354.96,810.05,1471.58,851.55C1540.94,876.24,1600,865.66,1600,865.66L1600,1142.85L0,1142.85L0,892.68Z" transform="translate(800,980.902) translate(-800,-980.902)"/>
        </g>
        <g id="m" transform="translate(960,695.692) translate(-800.005,-1016.82)">
            <path fill="#08367F" d="M0,960.88C0,960.88,104.85,976.19,198.89,966.76C339.56,952.65,507.92,842.28,756.87,949.13C756.87,949.13,882.65,1005.55,1118.93,923.09C1318.55,853.42,1435.23,915.4,1478.74,933.3C1551.52,963.23,1600.01,966.76,1600.01,966.76L1600.01,1142.86L0,1142.86L0,960.88Z" transform="translate(800.005,1016.82) translate(-800.005,-1016.82)"/>
        </g>
        <g id="n" transform="translate(959.995,744.252) translate(-800,-1065.38)">
            <path fill="#062869" d="M0,1065.5C0,1065.5,272.56,974.78,465.34,1027.78C658.12,1080.78,702.07,1069.65,800,1059.93C897.93,1050.21,1106.81,987.97,1177.7,987.91C1343.06,987.76,1409.67,1072.94,1600,1040.81L1600,1142.85L0,1142.85L0,1065.5Z" transform="translate(800,1065.38) translate(-800,-1065.38)"/>
        </g>
    </g>
    <g id="o" transform="translate(1920,1038.96) scale(2.5,2.5)">
        <path d="M138.862,35.2106L135.435,35.2106C134.452,35.2106,133.655,36.0085,133.655,36.9929L133.655,42.9715C133.655,43.9558,134.452,44.7538,135.435,44.7538L138.862,44.7538C139.845,44.7538,140.642,43.9558,140.642,42.9715L140.642,36.9929C140.642,36.0085,139.845,35.2106,138.862,35.2106Z" fill="black" transform="translate(137.149,39.9822) translate(-137.149,-39.9822)"/>
        <path d="M140.623,46.0955L138.955,46.0955C138.477,46.0955,138.09,46.4835,138.09,46.9621L138.09,49.8658C138.09,50.3444,138.477,50.7324,138.955,50.7324L140.623,50.7324C141.101,50.7324,141.488,50.3444,141.488,49.8658L141.488,46.9621C141.488,46.4835,141.101,46.0955,140.623,46.0955Z" fill="black" transform="translate(139.789,48.414) translate(-139.789,-48.414)"/>
        <path d="M138.471,43.7794L138.471,47.0307" stroke="black" stroke-width="1.57" stroke-miterlimit="10" fill="none" transform="translate(138.471,45.4051) translate(-138.471,-45.4051)"/>
        <path d="M57.7961,26.2745L68.5437,22.0342L114.878,22.0342C116.287,22.3769,118.169,23.0282,120.086,24.3453C124.77,27.5721,126.237,32.4539,126.648,34.0697C117.377,35.5876,104.287,36.6845,88.8897,34.5937C76.1227,32.8652,65.5952,29.4621,57.7961,26.2794L57.7961,26.2745Z" fill="#00B1EA" transform="translate(92.222,28.892) translate(-92.222,-28.892)"/>
        <path d="M119,6.32141L73.4774,6.32141L73.4774,10.0232L119,10.0232L119,6.32141Z" fill="#00B1EA" transform="translate(96.2387,8.1723) translate(-96.2387,-8.1723)"/>
        <path d="M68.5437,22.0341L78.1079,10.0231L114.878,10.0231L114.878,22.0341L68.5437,22.0341Z" fill="#00B1EA" transform="translate(91.7108,16.0286) translate(-91.7108,-16.0286)"/>
        <path d="M0.00488281,22.0342L16.8499,49.9098L122.942,49.9098C127.919,49.9098,132.364,46.7761,134.036,42.0804L137.092,33.5115C125.01,34.4223,114.722,34.2656,106.874,33.8396C98.2682,33.3744,87.5158,32.7379,73.8491,29.5356C63.9474,27.2147,55.9088,24.3404,50.2074,22.0342L0.00488281,22.0342Z" fill="#29485D" transform="translate(68.5484,35.972) translate(-68.5484,-35.972)"/>
        <path d="M99.0554,12.8435L87.5206,12.8435L87.5206,22.0587L99.0554,22.0587L99.0554,12.8435Z" fill="#29485D" transform="translate(93.288,17.4511) translate(-93.288,-17.4511)"/>
        <path d="M112.14,12.8435L102.356,12.8435L102.356,22.0587L112.14,22.0587L112.14,12.8435Z" fill="#29485D" transform="translate(107.248,17.4511) translate(-107.248,-17.4511)"/>
        <path d="M84.4059,22.0587L71.903,22.0587L78.9686,12.8435L84.4059,12.8435L84.4059,22.0587Z" fill="#29485D" transform="translate(78.1544,17.4511) translate(-78.1544,-17.4511)"/>
        <path d="M108.771,6.32137L115.573,0L118.565,0L116.663,6.32137L108.771,6.32137Z" fill="#EF7C00" transform="translate(113.668,3.16068) translate(-113.668,-3.16068)"/>
        <path d="M20.6296,31.5774C21.5585,31.5774,22.3116,30.8233,22.3116,29.893C22.3116,28.9627,21.5585,28.2086,20.6296,28.2086C19.7006,28.2086,18.9475,28.9627,18.9475,29.893C18.9475,30.8233,19.7006,31.5774,20.6296,31.5774Z" fill="#EF7C00" transform="translate(20.6296,29.893) translate(-20.6296,-29.893)"/>
        <path d="M27.6659,31.5774C28.5949,31.5774,29.348,30.8233,29.348,29.893C29.348,28.9627,28.5949,28.2086,27.6659,28.2086C26.737,28.2086,25.9839,28.9627,25.9839,29.893C25.9839,30.8233,26.737,31.5774,27.6659,31.5774Z" fill="#EF7C00" transform="translate(27.6659,29.893) translate(-27.6659,-29.893)"/>
        <path d="M34.7071,31.5774C35.6361,31.5774,36.3891,30.8233,36.3891,29.893C36.3891,28.9627,35.6361,28.2086,34.7071,28.2086C33.7781,28.2086,33.025,28.9627,33.025,29.893C33.025,30.8233,33.7781,31.5774,34.7071,31.5774Z" fill="#EF7C00" transform="translate(34.7071,29.893) translate(-34.7071,-29.893)"/>
        <path d="M135.836,37.0272C130.887,37.1986,123.758,37.3455,115.167,37.1545C101.72,36.8558,90.4153,36.6012,76.6851,33.8739C69.9226,32.5273,60.466,30.1672,49.4348,25.7359L2.23458,25.7359L0,22.0342L50.2025,22.0342C61.1554,26.5292,70.6414,28.9725,77.5848,30.3925C91.3591,33.1982,102.581,33.4626,114.976,33.7515C124.042,33.962,131.635,33.7613,137.087,33.5164C136.672,34.6867,136.251,35.8569,135.836,37.0272Z" fill="#ef7c00" transform="translate(68.5435,29.6393) translate(-68.5435,-29.6393)"/>
        <path d="M97.256,23.7087C95.1388,23.7087,93.4274,25.4274,93.4274,27.5427L97.256,27.5427L97.256,23.7087Z" fill="#EF7C00" transform="translate(95.3417,25.6257) translate(-95.3417,-25.6257)"/>
        <path d="M93.4274,27.5427C93.4274,29.6629,95.1437,31.3767,97.256,31.3767L97.256,27.5427L93.4274,27.5427Z" fill="white" transform="translate(95.3417,29.4597) translate(-95.3417,-29.4597)"/>
        <path d="M97.256,23.7087C99.3732,23.7087,101.085,25.4274,101.085,27.5427L97.256,27.5427L97.256,23.7087Z" fill="white" transform="translate(99.1705,25.6257) translate(-99.1705,-25.6257)"/>
        <path d="M101.089,27.5427C101.089,29.6629,99.3732,31.3767,97.2609,31.3767L97.2609,27.5427L101.089,27.5427Z" fill="#EF7C00" transform="translate(99.1749,29.4597) translate(-99.1749,-29.4597)"/>
        <path d="M97.256,29.9176C98.5658,29.9176,99.6275,28.8543,99.6275,27.5428C99.6275,26.2312,98.5658,25.168,97.256,25.168C95.9463,25.168,94.8845,26.2312,94.8845,27.5428C94.8845,28.8543,95.9463,29.9176,97.256,29.9176Z" fill="#00B1EA" transform="translate(97.256,27.5428) translate(-97.256,-27.5428)"/>
    </g>
</svg>
