<?xml version="1.0" encoding="UTF-8"?><svg id="b" xmlns="http://www.w3.org/2000/svg" xmlns:xlink="http://www.w3.org/1999/xlink" viewBox="0 0 73 69.74"><defs><mask id="e" x="21.39" y="0" width="49.23" height="58.22" maskUnits="userSpaceOnUse"><g id="f"><path d="m60,3.96c-3.47-.28-6.77,2.37-7.25,5.05-.45,2.5,1.85,3.37,3,7.84.33,1.3.45,7.13-1.39,9.59-2.2,2.94-10.29-1.65-17.28-.95-7.5.74-14.31,4.78-15.52,12.74-1.09,7.13,3.19,13.51,7.98,16.48,9.33,5.77,24.94,4.19,31.78-2.86,1.36-1.4,6.47-6.67,5.79-12.82-.46-4.11-3.13-5.26-4.25-11.94-.43-2.55-.82-4.95,0-7.84,1.19-4.17,3.59-4.68,3.66-7.62.07-3.06-2.42-7.35-6.52-7.69h0Z" fill="#fff"/></g></mask></defs><g id="c"><g id="d"><path d="m50.81,55.71s.17,5,.44,5.77c.27.77.49.82.49.82,0,0,4.94.39,5.6,1.1-4.39.16-4.5.6-4.5.6,0,0,4.23.99,4.5,1.7-4.78-.93-5.11-.27-4.89,0,.22.27,2.84,2.03,2.31,2.14-2.56.52-4.01-3.13-5.16-3.19-1.15-.06-3.91.11-3.88-.44.03-.55,2.94-.33,2.94-1.48s-1.35-6.59-1.35-6.59l3.49-.44h0Z" fill="#a5611c"/><path d="m39.66,57.58s.16,5,.44,5.77c.27.77.49.82.49.82,0,0,4.94.39,5.6,1.1-4.39.16-4.5.6-4.5.6,0,0,4.23.99,4.5,1.7-4.78-.93-5.11-.27-4.89,0,.22.27,2.69,1.76,2.31,2.14-.39.38-4.53-3.1-5.68-3.16-1.15-.06-3.39.08-3.36-.47.03-.55,2.94-.33,2.94-1.48s-1.35-6.59-1.35-6.59l3.49-.44h0Z" fill="#a5611c"/><path d="m26.11,22.61c2.34,0,6.86-15.69,0-15.69s-2.34,15.69,0,15.69Z" fill="#330e12"/><path d="m26.11,28.1c.95,0,5.49-13.15,0-13.15s-.95,13.15,0,13.15Z" fill="#14242d"/><path d="m26.11,33.03c-.95,0-1.72-2.94-1.72-6.57s.77-6.57,1.72-6.57,1.72,2.94,1.72,6.57-.77,6.57-1.72,6.57Z" fill="#66481d"/><path d="m22.89,23.12c2.22-.72,1.67-17.05-4.85-14.93-6.53,2.12,2.63,15.65,4.85,14.93Z" fill="#330e12"/><path d="m24.59,28.34c.9-.29,1.16-14.2-4.06-12.5-5.22,1.7,3.16,12.79,4.06,12.5Z" fill="#14242d"/><path d="m22.45,27.31c-1.12-3.45-1.3-6.49-.39-6.78.9-.29,2.55,2.27,3.67,5.72,1.12,3.45,1.3,6.49.39,6.78-.9.29-2.55-2.27-3.67-5.72Z" fill="#66481d"/><path d="m19.99,24.6c1.89-1.37-3.68-16.73-9.22-12.7-5.55,4.03,7.34,14.07,9.22,12.7Z" fill="#330e12"/><path d="m23.21,29.04c.77-.56-3.28-13.86-7.73-10.63-4.44,3.23,6.96,11.19,7.73,10.63Z" fill="#14242d"/><path d="m20.86,28.72c-2.13-2.94-3.24-5.77-2.47-6.33s3.12,1.37,5.26,4.31c2.13,2.94,3.24,5.77,2.47,6.33-.77.56-3.12-1.37-5.26-4.31Z" fill="#66481d"/><path d="m17.68,26.91c1.37-1.89-8.66-14.78-12.7-9.22-4.03,5.55,11.33,11.12,12.7,9.22Z" fill="#330e12"/><path d="m22.12,30.13c.56-.77-7.41-12.17-10.63-7.73-3.23,4.44,10.07,8.5,10.63,7.73Z" fill="#14242d"/><path d="m19.79,30.56c-2.94-2.13-4.86-4.49-4.31-5.26s3.39.34,6.33,2.47c2.94,2.13,4.86,4.49,4.31,5.26-.56.77-3.39-.34-6.33-2.47Z" fill="#66481d"/><path d="m16.21,29.81c.72-2.22-12.81-11.38-14.93-4.85-2.12,6.53,14.2,7.07,14.93,4.85Z" fill="#330e12"/><path d="m21.42,31.51c.29-.9-10.8-9.28-12.5-4.06-1.7,5.22,12.21,4.97,12.5,4.06Z" fill="#14242d"/><path d="m19.33,32.63c-3.45-1.12-6.01-2.76-5.72-3.67.29-.9,3.33-.73,6.78.39,3.45,1.12,6.01,2.76,5.72,3.67-.29.9-3.33.73-6.78-.39Z" fill="#66481d"/><path d="m15.69,33.03c0-2.34-15.69-6.86-15.69,0s15.69,2.34,15.69,0Z" fill="#330e12"/><path d="m21.18,33.03c0-.95-13.15-5.49-13.15,0s13.15.95,13.15,0Z" fill="#14242d"/><path d="m19.54,34.75c3.63,0,6.57-.77,6.57-1.72s-2.94-1.72-6.57-1.72-6.57.77-6.57,1.72,2.94,1.72,6.57,1.72Z" fill="#66481d"/><path d="m16.21,36.25c-.72-2.22-17.05-1.67-14.93,4.85,2.12,6.52,15.65-2.63,14.93-4.85Z" fill="#330e12"/><path d="m21.42,34.55c-.29-.9-14.2-1.16-12.5,4.06,1.7,5.22,12.79-3.16,12.5-4.06Z" fill="#14242d"/><path d="m13.61,37.09c-.29-.9,2.27-2.55,5.72-3.67,3.45-1.12,6.49-1.3,6.78-.39.29.9-2.27,2.55-5.72,3.67-3.45,1.12-6.49,1.3-6.78.39Z" fill="#66481d"/><path d="m17.68,39.15c-1.37-1.89-16.73,3.68-12.7,9.22,4.03,5.55,14.07-7.34,12.7-9.22Z" fill="#330e12"/><path d="m22.12,35.93c-.56-.77-13.86,3.28-10.63,7.73,3.23,4.44,11.19-6.96,10.63-7.73Z" fill="#14242d"/><path d="m15.48,40.76c-.56-.77,1.37-3.12,4.31-5.26,2.94-2.13,5.77-3.24,6.33-2.47.56.77-1.37,3.12-4.31,5.26-2.94,2.13-5.77,3.24-6.33,2.47Z" fill="#66481d"/><path d="m19.99,41.46c-1.89-1.37-14.78,8.66-9.22,12.7,5.55,4.03,11.12-11.33,9.22-12.7Z" fill="#330e12"/><path d="m23.21,37.02c-.77-.56-12.17,7.41-7.73,10.63,4.44,3.23,8.5-10.07,7.73-10.63Z" fill="#14242d"/><path d="m18.39,43.66c-.77-.56.34-3.39,2.47-6.33,2.13-2.94,4.49-4.86,5.26-4.31.77.56-.34,3.39-2.47,6.33-2.13,2.94-4.49,4.86-5.26,4.31Z" fill="#66481d"/><path d="m22.89,42.94c-2.22-.72-11.38,12.81-4.85,14.93s7.07-14.2,4.85-14.93Z" fill="#330e12"/><path d="m24.59,37.72c-.9-.29-9.28,10.8-4.06,12.5,5.22,1.7,4.97-12.21,4.06-12.5Z" fill="#14242d"/><path d="m22.05,45.53c-.9-.29-.73-3.33.39-6.78,1.12-3.45,2.76-6.01,3.67-5.72.9.29.73,3.33-.39,6.78s-2.76,6.01-3.67,5.72Z" fill="#66481d"/><path d="m26.11,43.45c-2.34,0-6.86,15.69,0,15.69s2.34-15.69,0-15.69Z" fill="#330e12"/><path d="m26.11,37.96c-.95,0-5.49,13.15,0,13.15s.95-13.15,0-13.15Z" fill="#14242d"/><path d="m26.11,46.17c-.95,0-1.72-2.94-1.72-6.57s.77-6.57,1.72-6.57,1.72,2.94,1.72,6.57-.77,6.57-1.72,6.57Z" fill="#66481d"/><path d="m29.33,42.94c-2.22.72-1.67,17.05,4.85,14.93,6.53-2.12-2.63-15.65-4.85-14.93Z" fill="#330e12"/><path d="m27.64,37.72c-.9.29-1.16,14.2,4.06,12.5,5.22-1.7-3.16-12.79-4.06-12.5Z" fill="#14242d"/><path d="m26.51,39.81c-1.12-3.45-1.3-6.49-.39-6.78.9-.29,2.55,2.27,3.67,5.72s1.3,6.49.39,6.78c-.9.29-2.55-2.27-3.67-5.72Z" fill="#66481d"/><path d="m32.24,41.46c-1.89,1.37,3.68,16.73,9.22,12.7,5.55-4.03-7.34-14.07-9.22-12.7Z" fill="#330e12"/><path d="m29.01,37.02c-.77.56,3.28,13.86,7.73,10.63,4.44-3.23-6.96-11.19-7.73-10.63Z" fill="#14242d"/><path d="m28.58,39.36c-2.13-2.94-3.24-5.77-2.47-6.33.77-.56,3.12,1.37,5.26,4.31,2.13,2.94,3.24,5.77,2.47,6.33-.77.56-3.12-1.37-5.26-4.31Z" fill="#66481d"/><path d="m34.54,39.15c-1.37,1.89,8.66,14.78,12.7,9.22,4.03-5.55-11.33-11.12-12.7-9.22Z" fill="#330e12"/><path d="m30.1,35.93c-.56.77,7.41,12.17,10.63,7.73,3.23-4.44-10.07-8.5-10.63-7.73Z" fill="#14242d"/><path d="m30.42,38.28c-2.94-2.13-4.86-4.49-4.31-5.26.56-.77,3.39.34,6.33,2.47,2.94,2.13,4.86,4.49,4.31,5.26s-3.39-.34-6.33-2.47Z" fill="#66481d"/><path d="m36.02,36.25c-.72,2.22,12.81,11.38,14.93,4.85,2.12-6.53-14.2-7.07-14.93-4.85Z" fill="#330e12"/><path d="m30.8,34.55c-.29.9,10.8,9.28,12.5,4.06,1.7-5.22-12.21-4.97-12.5-4.06Z" fill="#14242d"/><path d="m31.83,36.7c-3.45-1.12-6.01-2.76-5.72-3.67.29-.9,3.33-.73,6.78.39,3.45,1.12,6.01,2.76,5.72,3.67-.29.9-3.33.73-6.78-.39Z" fill="#66481d"/><path d="m36.53,33.03c0,2.34,15.69,6.86,15.69,0s-15.69-2.34-15.69,0Z" fill="#330e12"/><path d="m31.04,33.03c0,.95,13.15,5.49,13.15,0s-13.15-.95-13.15,0Z" fill="#14242d"/><path d="m32.68,34.75c-3.63,0-6.57-.77-6.57-1.72s2.94-1.72,6.57-1.72,6.57.77,6.57,1.72-2.94,1.72-6.57,1.72Z" fill="#66481d"/><path d="m36.02,29.81c.72,2.22,17.05,1.67,14.93-4.85-2.12-6.53-15.65,2.63-14.93,4.85Z" fill="#330e12"/><path d="m30.8,31.51c.29.9,14.2,1.16,12.5-4.06-1.7-5.22-12.79,3.16-12.5,4.06Z" fill="#14242d"/><path d="m26.11,33.03c-.29-.9,2.27-2.55,5.72-3.67,3.45-1.12,6.49-1.3,6.78-.39.29.9-2.27,2.55-5.72,3.67-3.45,1.12-6.49,1.3-6.78.39Z" fill="#66481d"/><path d="m34.54,26.91c1.37,1.89,16.73-3.68,12.7-9.22-4.03-5.55-14.07,7.34-12.7,9.22Z" fill="#330e12"/><path d="m30.1,30.13c.56.77,13.86-3.28,10.63-7.73-3.23-4.44-11.19,6.96-10.63,7.73Z" fill="#14242d"/><path d="m26.11,33.03c-.56-.77,1.37-3.12,4.31-5.26,2.94-2.13,5.77-3.24,6.33-2.47.56.77-1.37,3.12-4.31,5.26-2.94,2.13-5.77,3.24-6.33,2.47Z" fill="#66481d"/><path d="m32.24,24.6c1.89,1.37,14.78-8.66,9.22-12.7-5.55-4.03-11.12,11.33-9.22,12.7Z" fill="#330e12"/><path d="m29.01,29.04c.77.56,12.17-7.41,7.73-10.63-4.44-3.23-8.5,10.07-7.73,10.63Z" fill="#14242d"/><path d="m26.11,33.03c-.77-.56.34-3.39,2.47-6.33,2.13-2.94,4.49-4.86,5.26-4.31s-.34,3.39-2.47,6.33c-2.13,2.94-4.49,4.86-5.26,4.31Z" fill="#66481d"/><path d="m29.33,23.12c2.22.72,11.38-12.81,4.85-14.93-6.53-2.12-7.07,14.2-4.85,14.93Z" fill="#330e12"/><path d="m27.64,28.34c.9.29,9.28-10.8,4.06-12.5-5.22-1.7-4.97,12.21-4.06,12.5Z" fill="#14242d"/><path d="m26.11,33.03c-.9-.29-.73-3.33.39-6.78,1.12-3.45,2.76-6.01,3.67-5.72.9.29.73,3.33-.39,6.78-1.12,3.45-2.76,6.01-3.67,5.72Z" fill="#66481d"/><path d="m26.11,22.61c2.34,0,6.86-15.69,0-15.69s-2.34,15.69,0,15.69Z" fill="#330e12"/><path d="m26.11,28.1c.95,0,5.49-13.15,0-13.15s-.95,13.15,0,13.15Z" fill="#14242d"/><path d="m26.11,33.03c-.95,0-1.72-2.94-1.72-6.57s.77-6.57,1.72-6.57,1.72,2.94,1.72,6.57-.77,6.57-1.72,6.57Z" fill="#66481d"/><path d="m27.84,39.5c-3.41,0-6.18-2.77-6.18-6.18s2.77-6.18,6.18-6.18,6.18,2.77,6.18,6.18-2.77,6.18-6.18,6.18Z" fill="#9b1918"/><path d="m60,3.96c-3.47-.28-6.77,2.37-7.25,5.05-.45,2.5,1.85,3.37,3,7.84.33,1.3.45,7.13-1.39,9.59-2.2,2.94-10.29-1.65-17.28-.95-7.5.74-14.31,4.78-15.52,12.74-1.09,7.13,3.19,13.51,7.98,16.48,9.33,5.77,24.94,4.19,31.78-2.86,1.36-1.4,6.47-6.67,5.79-12.82-.46-4.11-3.13-5.26-4.25-11.94-.43-2.55-.82-4.95,0-7.84,1.19-4.17,3.59-4.68,3.66-7.62.07-3.06-2.42-7.35-6.52-7.69h0Z" fill="#8f6143"/><g fill="none" mask="url(#e)"><path d="m66.51,31.08s-2.9.48-7.27-1.57c-4.37-2.05-6.57-9.15-6.57-9.15l-1.1-19.7,17.94-.66,1.1,25.85-4.1,5.23Z" fill="#9b1918"/></g><path d="m66.19,11.17s-.99-4.23-5.11-4.72c-4.12-.49-7.47,2.91-5.55,5.6,1.92,2.69,9.06,3.26,9.06,3.26l1.21-3.97.39-.16h0Z" fill="#8d6445"/><path d="m67.07,14.79c.46.96-.43,1.52-.39,3.24.06,2.04,1.36,2.73.88,3.73-.4.85-1.81,1.37-2.74.88-.97-.51-1.06-1.9-.93-2.69.22-1.35,1.2-1.44,1.43-2.64.35-1.81-1.59-3.14-1.15-3.68.38-.47,2.35-.03,2.91,1.15h0Z" fill="#9b1918"/><path d="m73,17.29s-.62-2.06-1.92-2.88c-1.29-.82-1.99-.3-2.74-1.1-1-1.05-.3-2.46-1.37-3.21-.45-.32-1.16-.47-1.51-.19-.52.42.21,1.41-.3,2.28-.53.9-1.69.46-2.39,1.37-.61.79-.58,2.23.08,2.83.74.68,1.83-.13,3.87-.27,3.59-.26,6.29,1.18,6.29,1.18Z" fill="#412f19"/><path d="m43.56,37.3c3.29-3.01,5.3-4.85,8.21-5.51,2.23-.5,5.48-.44,7.68.84,4.55,2.65,3.86,10.03,1.02,14.86-6.95,11.84-29.38,12.78-33.4,12.95-2,.08-5.53.11-5.62-.31-.16-.74,10.32-2.4,10.19-2.92-.13-.48-9.01.63-9.25-.1-.25-.77,9.19-2.91,8.93-3.66-.2-.58-5.95.17-6.1-.34-.17-.57,7.07-2.09,6.88-2.75-.14-.49-4.07.02-4.39-.76-.2-.5,1.15-1.34,2.33-1.77,1.73-.63,3.4-.47,3.41-.66.01-.24-2.56-.26-2.77-.94-.16-.5,1.05-1.17,1.84-1.48,1.56-.62,3.08-.5,3.08-.61,0-.19-4.32-.02-4.7-.96-.27-.68,6.8-2.06,9.47-3.14,1.14-.46,1.05-.79,3.18-2.73h0Z" fill="#14242d"/><path d="m44.65,37.57c2.87-2.94,4.62-4.72,7.23-5.46,2-.56,4.96-.63,7.01.46,4.24,2.27,3.91,9.16,1.53,13.76-5.83,11.29-26.17,13.09-29.81,13.42-1.81.16-5.01.33-5.11-.06-.17-.68,9.28-2.66,9.13-3.14-.13-.44-8.16.96-8.4.29-.26-.71,8.23-3.09,7.96-3.78-.21-.53-5.4.4-5.55-.06-.17-.52,6.34-2.23,6.14-2.84-.15-.45-3.7.19-4.02-.52-.21-.45.99-1.29,2.04-1.74,1.55-.65,3.07-.58,3.07-.76,0-.22-2.33-.13-2.56-.76-.17-.46.91-1.13,1.61-1.45,1.39-.64,2.78-.59,2.78-.7,0-.17-3.93.16-4.31-.7-.28-.62,6.09-2.19,8.47-3.31,1.01-.47.92-.78,2.78-2.67h0Z" fill="#330e12"/><path d="m48.22,38.42c2.47-2.81,2.91-6.67,5.17-7.37,1.72-.54,4.28-.61,6.05.45,3.66,2.17,4.44,10.91,2.39,15.32-5.03,10.81-22.56,12.54-25.7,12.85-1.56.15-4.32.32-4.41-.06-.15-.65,8-2.55,7.87-3-.12-.42-7.03.92-7.25.28-.22-.68,7.1-2.96,6.87-3.62-.18-.5-4.65.38-4.79-.06-.15-.5,5.47-2.14,5.29-2.73-.13-.43-3.19.18-3.46-.5-.18-.44.85-1.24,1.76-1.67,1.34-.63,2.65-.55,2.65-.72,0-.21-2.01-.13-2.2-.72-.14-.44.78-1.08,1.39-1.39,1.2-.61,2.4-.57,2.39-.67,0-.17-3.39.16-3.72-.67-.24-.59,5.25-2.1,7.31-3.17.87-.45.8-.74,2.39-2.56h0Z" fill="#621"/><path d="m59.83,10.75c-.88,0-1.6-.71-1.6-1.6s.71-1.6,1.6-1.6,1.6.71,1.6,1.6-.71,1.6-1.6,1.6Z" fill="#fff"/><path d="m59.83,10.12c.53,0,.96-.43.96-.96s-.43-.96-.96-.96-.96.43-.96.96.43.96.96.96Z" fill="#412f19"/></g></g></svg>