<?xml version="1.0" encoding="UTF-8"?><svg id="b" xmlns="http://www.w3.org/2000/svg" xmlns:xlink="http://www.w3.org/1999/xlink" viewBox="0 0 190 181.5"><defs><mask id="e" x="55.67" y="0" width="128.12" height="151.52" maskUnits="userSpaceOnUse"><g id="f"><path d="m156.17,10.3c-9.02-.74-17.63,6.17-18.87,13.15-1.16,6.5,4.82,8.76,7.82,20.39.87,3.38,1.17,18.55-3.62,24.96-5.72,7.65-26.78-4.28-44.98-2.48-19.52,1.94-37.24,12.45-40.4,33.16-2.84,18.56,8.31,35.17,20.78,42.88,24.28,15.01,64.91,10.91,82.72-7.44,3.53-3.64,16.84-17.35,15.06-33.35-1.19-10.7-8.16-13.7-11.06-31.06-1.11-6.63-2.15-12.87,0-20.39,3.09-10.84,9.34-12.18,9.53-19.82.19-7.97-6.29-19.14-16.96-20.01h0Z" fill="#fff"/></g></mask></defs><g id="c"><g id="d"><path d="m132.25,144.98s.43,13.01,1.14,15.01c.71,2,1.29,2.15,1.29,2.15,0,0,12.86,1,14.58,2.86-11.44.43-11.72,1.57-11.72,1.57,0,0,11.01,2.58,11.72,4.43-12.43-2.43-13.29-.71-12.73,0,.57.71,7.39,5.29,6,5.57-6.65,1.36-10.43-8.15-13.44-8.29-3.01-.15-10.18.28-10.09-1.14.09-1.43,7.66-.86,7.66-3.86s-3.51-17.15-3.51-17.15l9.08-1.14h0Z" fill="#a5611c"/><path d="m103.23,149.84s.43,13.01,1.14,15.01c.71,2,1.29,2.15,1.29,2.15,0,0,12.86,1,14.58,2.86-11.44.43-11.72,1.57-11.72,1.57,0,0,11.01,2.58,11.72,4.43-12.43-2.43-13.29-.71-12.73,0,.57.71,7.01,4.58,6,5.57-1,1-11.79-8.07-14.79-8.22-3.01-.15-8.83.21-8.74-1.21.09-1.43,7.66-.86,7.66-3.86s-3.51-17.15-3.51-17.15l9.08-1.14h0Z" fill="#a5611c"/><path d="m67.97,58.84c6.08,0,17.86-40.84,0-40.84s-6.08,40.84,0,40.84Z" fill="#330e12"/><path d="m67.97,73.12c2.47,0,14.3-34.21,0-34.21s-2.47,34.21,0,34.21Z" fill="#14242d"/><path d="m67.97,85.96c-2.47,0-4.48-7.66-4.48-17.11s2.01-17.11,4.48-17.11,4.48,7.66,4.48,17.11-2.01,17.11-4.48,17.11Z" fill="#66481d"/><path d="m59.59,60.17c5.78-1.88,4.36-44.37-12.62-38.84-16.99,5.52,6.84,40.72,12.62,38.84Z" fill="#330e12"/><path d="m64,73.75c2.35-.76,3.02-36.95-10.57-32.53-13.59,4.41,8.22,33.3,10.57,32.53Z" fill="#14242d"/><path d="m58.42,71.07c-2.92-8.98-3.38-16.89-1.03-17.65s6.63,5.9,9.55,14.88c2.92,8.98,3.38,16.89,1.03,17.65-2.35.76-6.63-5.9-9.55-14.88Z" fill="#66481d"/><path d="m52.03,64.02c4.92-3.57-9.57-43.54-24.01-33.04-14.45,10.5,19.09,36.62,24.01,33.04Z" fill="#330e12"/><path d="m60.42,75.58c2-1.45-8.55-36.07-20.11-27.67-11.57,8.4,18.1,29.12,20.11,27.67Z" fill="#14242d"/><path d="m54.29,74.74c-5.55-7.64-8.43-15.02-6.43-16.47,2-1.45,8.13,3.56,13.68,11.21,5.55,7.64,8.43,15.02,6.43,16.47-2,1.45-8.13-3.56-13.68-11.21Z" fill="#66481d"/><path d="m46.03,70.02c3.57-4.92-22.55-38.46-33.05-24.01-10.5,14.45,29.48,28.93,33.05,24.01Z" fill="#330e12"/><path d="m57.58,78.41c1.45-2-19.28-31.67-27.68-20.11-8.4,11.57,26.22,22.11,27.68,20.11Z" fill="#14242d"/><path d="m51.5,79.53c-7.64-5.55-12.66-11.68-11.21-13.68,1.45-2,8.83.88,16.47,6.43,7.64,5.55,12.66,11.68,11.21,13.68-1.45,2-8.83-.88-16.47-6.43Z" fill="#66481d"/><path d="m42.18,77.58c1.88-5.78-33.33-29.6-38.85-12.62-5.52,16.98,36.97,18.4,38.85,12.62Z" fill="#330e12"/><path d="m55.76,81.99c.76-2.35-28.12-24.16-32.54-10.57-4.41,13.59,31.77,12.93,32.54,10.57Z" fill="#14242d"/><path d="m50.31,84.93c-8.99-2.92-15.65-7.19-14.89-9.55.76-2.35,8.67-1.89,17.65,1.03,8.99,2.92,15.65,7.19,14.89,9.55-.76,2.35-8.67,1.89-17.65-1.03Z" fill="#66481d"/><path d="m40.85,85.96c0-6.08-40.85-17.86-40.85,0s40.85,6.08,40.85,0Z" fill="#330e12"/><path d="m55.13,85.96c0-2.47-34.22-14.3-34.22,0s34.22,2.47,34.22,0Z" fill="#14242d"/><path d="m50.86,90.43c9.45,0,17.11-2.01,17.11-4.48s-7.65-4.48-17.11-4.48-17.11,2.01-17.11,4.48,7.65,4.48,17.11,4.48Z" fill="#66481d"/><path d="m42.18,94.33c-1.88-5.78-44.37-4.36-38.85,12.62,5.52,16.98,40.73-6.84,38.85-12.62Z" fill="#330e12"/><path d="m55.76,89.92c-.76-2.35-36.95-3.02-32.54,10.57,4.41,13.59,33.3-8.22,32.54-10.57Z" fill="#14242d"/><path d="m35.43,96.53c-.76-2.35,5.9-6.63,14.89-9.55,8.99-2.92,16.89-3.38,17.65-1.03.76,2.35-5.9,6.63-14.89,9.55-8.99,2.92-16.89,3.38-17.65,1.03Z" fill="#66481d"/><path d="m46.03,101.89c-3.57-4.92-43.55,9.57-33.05,24.01,10.5,14.45,36.62-19.09,33.05-24.01Z" fill="#330e12"/><path d="m57.58,93.5c-1.45-2-36.08,8.54-27.68,20.11,8.4,11.57,29.13-18.1,27.68-20.11Z" fill="#14242d"/><path d="m40.28,106.06c-1.45-2,3.56-8.12,11.21-13.68,7.64-5.55,15.02-8.43,16.47-6.43,1.45,2-3.56,8.13-11.21,13.68-7.64,5.55-15.02,8.43-16.47,6.43Z" fill="#66481d"/><path d="m52.03,107.89c-4.92-3.57-38.46,22.55-24.01,33.04,14.45,10.5,28.93-29.47,24.01-33.04Z" fill="#330e12"/><path d="m60.42,96.33c-2-1.45-31.67,19.28-20.11,27.68,11.57,8.4,22.11-26.22,20.11-27.68Z" fill="#14242d"/><path d="m47.86,113.63c-2-1.45.88-8.83,6.43-16.47,5.55-7.64,11.68-12.66,13.68-11.21,2,1.45-.88,8.83-6.43,16.47-5.55,7.64-11.68,12.66-13.68,11.21Z" fill="#66481d"/><path d="m59.59,111.75c-5.78-1.88-29.61,33.33-12.62,38.84,16.99,5.52,18.4-36.96,12.62-38.84Z" fill="#330e12"/><path d="m64,98.16c-2.35-.76-24.16,28.11-10.57,32.53,13.59,4.41,12.93-31.77,10.57-32.53Z" fill="#14242d"/><path d="m57.4,118.5c-2.35-.76-1.89-8.67,1.03-17.65,2.92-8.98,7.19-15.65,9.55-14.88,2.35.76,1.89,8.67-1.03,17.65-2.92,8.98-7.19,15.65-9.55,14.88Z" fill="#66481d"/><path d="m67.97,113.07c-6.08,0-17.86,40.84,0,40.84s6.08-40.84,0-40.84Z" fill="#330e12"/><path d="m67.97,98.79c-2.47,0-14.3,34.21,0,34.21s2.47-34.21,0-34.21Z" fill="#14242d"/><path d="m67.97,120.16c-2.47,0-4.48-7.66-4.48-17.11s2.01-17.11,4.48-17.11,4.48,7.66,4.48,17.11-2.01,17.11-4.48,17.11Z" fill="#66481d"/><path d="m76.35,111.75c-5.78,1.88-4.36,44.37,12.62,38.84,16.99-5.52-6.84-40.72-12.62-38.84Z" fill="#330e12"/><path d="m71.93,98.16c-2.35.76-3.02,36.95,10.57,32.53,13.59-4.41-8.22-33.3-10.57-32.53Z" fill="#14242d"/><path d="m68.99,103.6c-2.92-8.98-3.38-16.89-1.03-17.65,2.35-.76,6.63,5.9,9.55,14.88,2.92,8.98,3.38,16.89,1.03,17.65-2.35.76-6.63-5.9-9.55-14.88Z" fill="#66481d"/><path d="m83.9,107.89c-4.92,3.57,9.57,43.54,24.01,33.04,14.45-10.5-19.09-36.62-24.01-33.04Z" fill="#330e12"/><path d="m75.51,96.33c-2,1.45,8.55,36.07,20.11,27.68,11.57-8.4-18.1-29.12-20.11-27.68Z" fill="#14242d"/><path d="m74.4,102.42c-5.55-7.64-8.43-15.02-6.43-16.47,2-1.45,8.13,3.56,13.68,11.21,5.55,7.64,8.43,15.02,6.43,16.47-2,1.45-8.13-3.56-13.68-11.21Z" fill="#66481d"/><path d="m89.9,101.89c-3.57,4.92,22.55,38.46,33.05,24.01,10.5-14.45-29.48-28.93-33.05-24.01Z" fill="#330e12"/><path d="m78.35,93.5c-1.45,2,19.28,31.67,27.68,20.11,8.4-11.57-26.22-22.11-27.68-20.11Z" fill="#14242d"/><path d="m79.18,99.63c-7.64-5.55-12.66-11.68-11.21-13.68,1.45-2,8.83.88,16.47,6.43,7.64,5.55,12.66,11.68,11.21,13.68-1.45,2-8.83-.88-16.47-6.43Z" fill="#66481d"/><path d="m93.76,94.33c-1.88,5.78,33.33,29.6,38.85,12.62,5.52-16.98-36.97-18.4-38.85-12.62Z" fill="#330e12"/><path d="m80.18,89.92c-.76,2.35,28.12,24.16,32.54,10.57,4.41-13.59-31.77-12.93-32.54-10.57Z" fill="#14242d"/><path d="m82.85,95.5c-8.99-2.92-15.65-7.19-14.89-9.55.76-2.35,8.67-1.89,17.65,1.03,8.99,2.92,15.65,7.19,14.89,9.55s-8.67,1.89-17.65-1.03Z" fill="#66481d"/><path d="m95.08,85.96c0,6.08,40.85,17.86,40.85,0s-40.85-6.08-40.85,0Z" fill="#330e12"/><path d="m80.8,85.96c0,2.47,34.22,14.3,34.22,0s-34.22-2.47-34.22,0Z" fill="#14242d"/><path d="m85.07,90.44c-9.45,0-17.11-2.01-17.11-4.48s7.66-4.48,17.11-4.48,17.11,2.01,17.11,4.48-7.66,4.48-17.11,4.48Z" fill="#66481d"/><path d="m93.76,77.58c1.88,5.78,44.37,4.36,38.85-12.62-5.52-16.98-40.73,6.84-38.85,12.62Z" fill="#330e12"/><path d="m80.18,81.99c.76,2.35,36.95,3.02,32.54-10.57-4.41-13.59-33.3,8.22-32.54,10.57Z" fill="#14242d"/><path d="m67.96,85.96c-.76-2.35,5.9-6.63,14.89-9.55,8.99-2.92,16.89-3.38,17.65-1.03s-5.9,6.63-14.89,9.55c-8.99,2.92-16.89,3.38-17.65,1.03Z" fill="#66481d"/><path d="m89.91,70.02c3.57,4.92,43.55-9.57,33.05-24.01-10.5-14.44-36.62,19.09-33.05,24.01Z" fill="#330e12"/><path d="m78.35,78.41c1.45,2,36.08-8.54,27.68-20.11-8.4-11.57-29.13,18.1-27.68,20.11Z" fill="#14242d"/><path d="m67.97,85.95c-1.45-2,3.56-8.12,11.21-13.68,7.64-5.55,15.02-8.43,16.47-6.43,1.45,2-3.56,8.13-11.21,13.68-7.64,5.55-15.02,8.43-16.47,6.43Z" fill="#66481d"/><path d="m83.9,64.02c4.92,3.57,38.46-22.55,24.01-33.04-14.45-10.5-28.93,29.47-24.01,33.04Z" fill="#330e12"/><path d="m75.51,75.58c2,1.45,31.67-19.28,20.11-27.67-11.56-8.4-22.11,26.22-20.11,27.67Z" fill="#14242d"/><path d="m67.96,85.96c-2-1.45.88-8.83,6.43-16.47,5.55-7.64,11.68-12.66,13.68-11.21,2,1.45-.88,8.83-6.43,16.47-5.55,7.64-11.68,12.66-13.68,11.21Z" fill="#66481d"/><path d="m76.35,60.17c5.78,1.88,29.61-33.33,12.62-38.84-16.99-5.52-18.4,36.96-12.62,38.84Z" fill="#330e12"/><path d="m71.93,73.75c2.35.76,24.16-28.11,10.57-32.53-13.59-4.42-12.93,31.77-10.57,32.53Z" fill="#14242d"/><path d="m67.96,85.96c-2.35-.76-1.89-8.67,1.03-17.65,2.92-8.98,7.19-15.65,9.55-14.88,2.35.76,1.89,8.67-1.03,17.65-2.92,8.98-7.19,15.65-9.55,14.88Z" fill="#66481d"/><path d="m67.97,58.84c6.08,0,17.86-40.84,0-40.84s-6.08,40.84,0,40.84Z" fill="#330e12"/><path d="m67.97,73.12c2.47,0,14.3-34.21,0-34.21s-2.47,34.21,0,34.21Z" fill="#14242d"/><path d="m67.97,85.96c-2.47,0-4.48-7.66-4.48-17.11s2.01-17.11,4.48-17.11,4.48,7.66,4.48,17.11-2.01,17.11-4.48,17.11Z" fill="#66481d"/><path d="m72.45,102.79c-8.88,0-16.08-7.2-16.08-16.08s7.2-16.08,16.08-16.08,16.08,7.2,16.08,16.08-7.2,16.08-16.08,16.08Z" fill="#9b1918"/><path d="m156.17,10.3c-9.02-.74-17.63,6.17-18.87,13.15-1.16,6.5,4.82,8.76,7.82,20.39.87,3.38,1.17,18.55-3.62,24.96-5.72,7.65-26.78-4.28-44.98-2.48-19.52,1.94-37.24,12.45-40.4,33.16-2.84,18.56,8.31,35.17,20.78,42.88,24.28,15.01,64.91,10.91,82.72-7.44,3.53-3.64,16.84-17.35,15.06-33.35-1.19-10.7-8.16-13.7-11.06-31.06-1.11-6.63-2.15-12.87,0-20.39,3.09-10.84,9.34-12.18,9.53-19.82.19-7.97-6.29-19.14-16.96-20.01h0Z" fill="#8f6143"/><g fill="none" mask="url(#e)"><path d="m173.11,80.88s-7.55,1.26-18.92-4.08c-11.37-5.34-17.1-23.82-17.1-23.82l-2.86-51.26,46.7-1.72,2.86,67.27-10.68,13.61Z" fill="#9b1918"/></g><path d="m172.28,29.06s-2.58-11.01-13.29-12.29c-10.72-1.29-19.44,7.57-14.43,14.58,5.01,7.01,23.59,8.48,23.59,8.48l3.14-10.33,1-.43h0Z" fill="#8d6445"/><path d="m174.56,38.5c1.19,2.5-1.13,3.96-1,8.43.15,5.31,3.53,7.1,2.28,9.72-1.05,2.2-4.71,3.56-7.14,2.28-2.53-1.32-2.77-4.95-2.43-7.01.58-3.51,3.11-3.76,3.72-6.86.92-4.71-4.14-8.17-3.01-9.57,1-1.23,6.12-.07,7.57,3h0Z" fill="#9b1918"/><path d="m190,45s-1.6-5.36-5.01-7.5c-3.37-2.12-5.17-.79-7.14-2.86-2.61-2.73-.78-6.4-3.57-8.36-1.18-.83-3.01-1.23-3.93-.5-1.36,1.09.56,3.67-.79,5.93-1.39,2.34-4.4,1.2-6.22,3.57-1.59,2.07-1.5,5.8.21,7.36,1.94,1.77,4.75-.33,10.08-.71,9.36-.67,16.37,3.07,16.37,3.07Z" fill="#412f19"/><path d="m113.37,97.06c8.57-7.84,13.79-12.62,21.37-14.34,5.79-1.31,14.26-1.14,20,2.19,11.85,6.89,10.04,26.11,2.66,38.68-18.08,30.81-76.47,33.26-86.94,33.7-5.2.22-14.39.29-14.62-.82-.41-1.94,26.87-6.24,26.51-7.6-.33-1.24-23.45,1.65-24.07-.26-.65-2.01,23.92-7.58,23.25-9.53-.52-1.5-15.49.43-15.88-.87-.44-1.48,18.41-5.43,17.91-7.17-.36-1.27-10.6.06-11.43-1.98-.53-1.3,2.99-3.5,6.07-4.61,4.51-1.63,8.85-1.22,8.87-1.72.03-.62-6.66-.67-7.22-2.44-.41-1.31,2.75-3.05,4.78-3.86,4.06-1.61,8.03-1.3,8.03-1.6,0-.49-11.25-.05-12.24-2.5-.71-1.77,17.69-5.36,24.66-8.17,2.96-1.2,2.74-2.05,8.28-7.11v-.02Z" fill="#14242d"/><path d="m116.21,97.79c7.47-7.65,12.01-12.29,18.82-14.21,5.2-1.46,12.91-1.65,18.26,1.21,11.04,5.9,10.18,23.84,3.99,35.81-15.17,29.38-68.11,34.07-77.59,34.92-4.71.42-13.05.87-13.31-.15-.45-1.78,24.15-6.92,23.77-8.16-.35-1.14-21.23,2.51-21.87.75-.66-1.84,21.42-8.03,20.73-9.82-.53-1.38-14.05,1.04-14.45-.15-.45-1.36,16.5-5.81,15.97-7.4-.39-1.17-9.63.49-10.46-1.36-.53-1.18,2.58-3.37,5.32-4.54,4.03-1.7,7.99-1.51,7.99-1.97,0-.58-6.08-.35-6.66-1.97-.43-1.21,2.37-2.94,4.19-3.78,3.62-1.67,7.24-1.55,7.23-1.81-.02-.45-10.22.42-11.22-1.81-.72-1.61,15.85-5.71,22.06-8.62,2.64-1.23,2.41-2.02,7.23-6.95v.02Z" fill="#330e12"/><path d="m125.5,99.98c6.44-7.32,7.58-17.35,13.45-19.18,4.49-1.4,11.13-1.58,15.74,1.16,9.52,5.65,11.55,28.4,6.22,39.87-13.08,28.13-58.72,32.62-66.89,33.43-4.07.4-11.25.83-11.48-.15-.39-1.7,20.82-6.63,20.49-7.82-.3-1.09-18.31,2.41-18.86.72-.58-1.76,18.47-7.69,17.87-9.41-.46-1.31-12.11,1-12.46-.15-.4-1.3,14.22-5.56,13.77-7.1-.33-1.12-8.3.47-9.02-1.3-.46-1.13,2.22-3.23,4.59-4.34,3.48-1.63,6.89-1.44,6.89-1.88,0-.55-5.24-.33-5.73-1.88-.37-1.15,2.04-2.82,3.6-3.62,3.12-1.6,6.24-1.47,6.23-1.73-.02-.44-8.81.4-9.67-1.73-.62-1.54,13.67-5.47,19.02-8.25,2.28-1.18,2.07-1.93,6.23-6.66h0Z" fill="#621"/><path d="m155.73,27.98c-2.29,0-4.16-1.86-4.16-4.15s1.86-4.15,4.16-4.15,4.16,1.86,4.16,4.15-1.86,4.15-4.16,4.15Z" fill="#fff"/><path d="m155.73,26.32c1.39,0,2.5-1.13,2.5-2.5s-1.13-2.5-2.5-2.5-2.5,1.13-2.5,2.5,1.13,2.5,2.5,2.5Z" fill="#412f19"/></g></g></svg>