<?xml version="1.0" encoding="UTF-8"?><svg id="b" xmlns="http://www.w3.org/2000/svg" viewBox="0 0 62.53 116.96"><g id="c"><g id="d"><g id="e"><path d="M9.95,103.53l-3.43-2.79-3.84,4.72,3.43,2.79,3.84-4.72Z" fill="#e0ab78"/><path d="M53.83,56.53c-.21,.16-.58-.08-1.15-.25-.5-.15-1.37-.33-1.47-.15-.21,.39,3.38,2.37,3.07,3.11-.05,.14-.23,.18-.32,.21-.55,.15-1-.54-2.03-1.28-.72-.51-1.41-.83-1.48-.75-.11,.14,1.51,1.97,2.05,2.8,.07,.11,.21,.33,.12,.49-.08,.14-.28,.16-.35,.17-.8,.1-2.75-2.73-3.04-2.56-.25,.14,.93,2.47,.41,2.83-.11,.08-.26,.04-.32,.02-.86-.23-.93-2.54-1.1-2.53-.15,.01,.07,2.03-.48,2.19-.09,.02-.17,0-.22-.02-.32-.14-.29-.66-.45-1.91-.27-2.25,.02-2.66-.42-3.6-.45-.91-1.09-1.09-1-1.59,.1-.61,1.1-.95,1.86-1.14,.5,.34,1.26,.81,2.23,1.33,.36,.18,.77,.41,1.35,.66,1.82,.83,2.75,.93,2.85,1.52,.02,.14,0,.35-.12,.45Z" fill="#e0ab78"/><path d="M45,56.2l5.36-4.25-11.92-13.67-3.88-11.31c-.33-.96-.5-1.96-.63-2.97-.38-2.87-2.4-4.67-3.88-4.57-1,.07-2.12,1.02-2.77,2.53-.59,1.38-.55,2.94-.07,4.36,1.73,4.99,3.45,9.97,5.17,14.96l12.62,14.92Z" fill="#a04a61"/><path d="M13.08,60.44c-.26-.04-.33-.49-.57-1.03-.21-.48-.65-1.25-.85-1.21-.43,.1,.43,4.11-.33,4.36-.14,.04-.29-.05-.36-.1-.48-.32-.25-1.11-.37-2.38-.09-.88-.3-1.61-.4-1.6-.17,.01-.49,2.43-.76,3.39-.03,.12-.11,.37-.28,.41-.15,.03-.3-.1-.36-.15-.61-.54,.25-3.87-.07-3.98-.27-.1-1.25,2.32-1.87,2.17-.13-.03-.2-.16-.23-.22-.39-.79,1.3-2.38,1.18-2.5-.11-.11-1.49,1.39-1.97,1.09-.08-.05-.11-.14-.12-.18-.1-.33,.3-.66,1.14-1.6,1.51-1.68,2.02-1.74,2.42-2.68,.4-.93,.11-1.53,.54-1.8,.52-.33,1.43,.2,2.08,.65,.08,.6,.21,1.48,.46,2.55,.1,.39,.2,.85,.38,1.46,.58,1.91,1.1,2.68,.73,3.14-.09,.11-.26,.23-.41,.21Z" fill="#e0ab78"/><path d="M7.55,53.23l6.43,2.3,5.32-17.35,8.68-10.63-3.51-6.35-10.91,13.44-6.01,18.6Z" fill="#a05660"/><path d="M50.67,105.52l-4.17,1.46,2.01,5.74,4.17-1.46-2.01-5.74Z" fill="#e0ab78"/><path d="M48.34,115.47c.22,.6,.86,.91,1.46,.74,2.79-.59,12.06-2.61,12.63-4.19,.23-.65,0-1.03,0-1.03-.33-.56-1.3-.54-1.51-.53l-7.68-.87c-.18-.02-.37,.07-.46,.24-.29,.54-1.03,1.67-2.5,2.18-1.04,.36-1.99,.25-2.6,.1-.27-.07-.5,.2-.41,.46l1.05,2.91h.02Z"/><path d="M25.3,46.76c3.76,0,7.52,0,11.27,.01-.27,3.01-.66,7.27-1.22,12.37-1.85,17.27-2.8,20.12-3.86,22.47-2.09,4.69-4.63,7.64-9.6,13.37-4.68,5.41-9.12,9.41-12.35,12.08-2.21-1.73-4.4-3.44-6.61-5.17,5.87-7.49,11.74-14.98,17.62-22.47,.86-5.54,1.7-11.13,2.51-16.78,.77-5.33,1.51-10.63,2.22-15.88h.01Z" fill="#29485d"/><path d="M36.12,2.54c-.15,.42,.67,.76,1.84,2.3,1.39,1.86,1.45,3.03,1.89,3,.74-.05,2.03-3.43,.46-5.06-1.28-1.33-3.93-.94-4.18-.24Z" fill="#ad542b"/><path d="M40.37,10.17c-.04-.09-.08-.17-.12-.25-.15-3.73-2.57-6.68-5.52-6.68s-5.53,3.16-5.53,7.06c0,1.28,.27,2.48,.74,3.51h-1.05v6.33h5.86v-2.78c2.49,0,4.59-2.09,5.29-4.96,.71,.09,.91-.11,.98-.2,.07-.09,.16-.3-.63-2.04h-.01Z" fill="#e0ab78"/><path d="M38.53,26c0-4.34-3.52-7.85-7.86-7.85s-7.86,3.52-7.86,7.85v19.89c0,4.34,3.52,7.85,7.86,7.85s7.86-3.52,7.86-7.85V26Z" fill="#a05660"/><path d="M22.88,46.69h15.65l15,61-7.89,2.85-8.58-28.05c-.58-1.89-1.34-3.73-2.26-5.47l-10.02-18.99c-1.36-2.57-2.03-5.44-1.98-8.35,.03-1.62,.07-3.04,.07-2.99h.01Z" fill="#295269"/><path d="M.26,106.76c-.39,.49-.34,1.21,.14,1.63,1.96,2.06,8.54,8.91,10.2,8.56,.67-.14,.88-.53,.88-.53,.32-.58-.22-1.39-.34-1.56l-3.28-7c-.08-.17-.25-.28-.43-.26-.62,.04-1.97,0-3.17-.99-.86-.7-1.26-1.55-1.45-2.16-.09-.27-.43-.33-.61-.11l-1.93,2.42Z"/><path d="M37.44,8.83c-.12,.04-.18,.17-.21,.3-.01,.05-.02,.12-.02,.17v.13c0,.07,.01,.12,.02,.17,0,.03,.01,.07,.02,.09,.01,.03,.02,.07,.04,.1,.02,.04,.05,.08,.1,.11,.03,.02,.08,.04,.11,.05h.12c.05,0,.1,0,.14-.03,.03-.01,.05-.03,.08-.05s.03-.04,.05-.07c.01-.02,.02-.04,.03-.08,.02-.05,.03-.11,.03-.17v-.08c0-.14-.02-.28-.07-.42-.03-.12-.1-.26-.23-.28-.03-.02-.08-.02-.12-.02s-.09,0-.13,.03l.02,.04Z"/><path d="M37.51,13.61c-.17,.09-.11,.61,.03,.97,.21,.55,.62,.88,.85,1.03,.16-.18,.33-.39,.5-.63,.15-.22,.28-.42,.38-.62-.21-.02-.52-.09-.86-.25-.54-.26-.75-.59-.9-.5Z" fill="#fff"/><path d="M37.74,24.82c.28,0,.71,.84,1.57,2.49,.76,1.47,1.13,2.2,1.21,2.91,.04,.41,.21,2.04-.91,3.24-.98,1.05-2.82,1.63-3.74,.98-2.14-1.51,.46-9.67,1.89-9.62h-.01Z" fill="#a05660"/><path d="M33.03,9.18c1.27-.58,2.92-1.6,4.04-3.38,.41-.66,.77-1.25,.75-2.04-.04-1.69-1.8-3.15-3.43-3.62-1.48-.42-2.76,.13-5.3,1.23-1.85,.79-3.39,1.49-3.56,2.69-.14,.97,.74,1.23,.63,2.17-.18,1.52-2.54,1.49-3.87,3.73-.23,.39-.9,1.53-.63,2.76,.43,1.97,3.02,3.14,5.11,3.14s4.5-1.15,5.06-3.17c.2-.71,.11-1.35,0-1.79-1.07,.09-1.91-.72-1.89-1.56,.01-.7,.6-1.35,1.34-1.44,.78-.11,1.58,.45,1.78,1.3h-.02Z" fill="#ad5b2d"/><path d="M29.15,25.82c-.09,.13-.15,.27-.22,.41-.08,.14-.15,.29-.23,.43-.14,.27-.29,.53-.45,.81-.16,.28-.32,.56-.49,.85-.16,.26-.32,.52-.49,.77-.15,.23-.3,.43-.48,.65-.18,.22-.37,.43-.59,.62-.23,.2-.47,.4-.68,.61-.12,.11-.23,.22-.35,.31-.11,.11-.22,.21-.32,.32-.21,.21-.41,.4-.62,.61-.11,.1-.2,.21-.32,.3-.09,.1-.2,.18-.28,.27-.12,.11-.23,.22-.33,.33-.12,.12-.22,.25-.33,.36-.1,.09-.11,.25-.02,.35,.09,.1,.24,.11,.35,.02,.13-.1,.24-.21,.35-.32,.11-.1,.21-.21,.3-.29,.11-.09,.2-.17,.3-.27,.1-.09,.21-.21,.32-.3,.2-.21,.41-.39,.63-.6,.11-.11,.22-.21,.34-.31,.12-.11,.23-.22,.35-.32,.23-.2,.47-.38,.71-.56,.11-.1,.23-.2,.33-.3,.12-.12,.23-.24,.34-.37,.41-.47,.76-1,1.08-1.53,.26-.4,.47-.81,.71-1.23,.12-.22,.24-.42,.36-.65,.11-.21,.21-.4,.33-.61,.04-.08,.07-.16,.04-.25-.02-.08-.08-.16-.15-.21-.14-.1-.37-.07-.47,.1h-.02Z" fill="#a04a61"/><path d="M49.13,103.01c.05-.09,.11-.21,.11-.43,.01-.23-.02-.45-.08-.71-.15-.65-.29-1.31-.43-1.98-.17-.88-.34-1.76-.52-2.64-.18-.88-.36-1.72-.54-2.56-.36-1.68-.72-3.4-1.11-5.08-.17-.77-.35-1.46-.55-2.22-.21-.76-.38-1.49-.57-2.26-.18-.73-.36-1.49-.55-2.22-.23-.87-.47-1.74-.73-2.53-.11-.33-.26-.41-.33-.22-.03,.12-.04,.27-.04,.42,0,.18,.05,.34,.1,.51,.23,.79,.41,1.64,.6,2.44,.2,.84,.39,1.67,.58,2.52,.21,.88,.4,1.72,.62,2.55,.1,.4,.18,.76,.28,1.16,.1,.43,.2,.91,.3,1.35,.27,1.24,.53,2.49,.8,3.73,.28,1.31,.57,2.63,.83,3.95,.11,.59,.23,1.21,.35,1.84,.05,.26,.11,.51,.16,.77,.08,.33,.14,.62,.21,.96,.09,.4,.25,.64,.38,.62,.02,0,.04,0,.07-.04l.07,.07h.01Z" fill="#29485d"/></g></g></g></svg>